<svg width="156" height="46" viewBox="0 0 156 46" fill="none" xmlns="http://www.w3.org/2000/svg">
<mask id="mask0_15_580" style="mask-type:luminance" maskUnits="userSpaceOnUse" x="0" y="0" width="156" height="46">
<path d="M150.236 0H5.76389C2.58058 0 0 2.58058 0 5.76389V40.2361C0 43.4194 2.58058 46 5.76389 46H150.236C153.419 46 156 43.4194 156 40.2361V5.76389C156 2.58058 153.419 0 150.236 0Z" fill="white"/>
</mask>
<g mask="url(#mask0_15_580)">
<path d="M150.236 0H5.76389C2.58058 0 0 2.58058 0 5.76389V40.2361C0 43.4194 2.58058 46 5.76389 46H150.236C153.419 46 156 43.4194 156 40.2361V5.76389C156 2.58058 153.419 0 150.236 0Z" fill="white"/>
<path d="M150.222 45.5H5.7766C2.8728 45.5 0.5 43.1342 0.5 40.25V5.75C0.5 2.86578 2.8728 0.5 5.7766 0.5H150.222C153.126 0.5 155.5 2.86592 155.5 5.75V40.25C155.5 43.1341 153.126 45.5 150.222 45.5Z" fill="white" stroke="#EBEBEB"/>
<path d="M61.1 29.558H55.6303L54.3167 33.4179H52L57.1808 19.1372H59.5878L64.7687 33.4179H62.4124L61.1 29.558ZM56.1968 27.7768H60.5324L58.3951 21.5125H58.3352L56.1968 27.7768Z" fill="black"/>
<path d="M75.9565 28.2128C75.9565 31.4483 74.2164 33.527 71.5905 33.527C70.9253 33.5617 70.2637 33.4092 69.6816 33.087C69.0994 32.7648 68.6202 32.286 68.2987 31.7054H68.249V36.8625H66.1016V23.0063H68.1802V24.7381H68.2197C68.5559 24.1602 69.0433 23.6839 69.6298 23.3598C70.2164 23.0357 70.8804 22.8759 71.551 22.8974C74.2063 22.8974 75.9565 24.9863 75.9565 28.2128ZM73.7492 28.2128C73.7492 26.1048 72.6546 24.719 70.9845 24.719C69.3437 24.719 68.24 26.134 68.24 28.2128C68.24 30.3106 69.3437 31.7156 70.9845 31.7156C72.6546 31.7156 73.7492 30.3398 73.7492 28.2128Z" fill="black"/>
<path d="M87.473 28.2128C87.473 31.4483 85.732 33.527 83.1061 33.527C82.4409 33.5617 81.7794 33.4092 81.1972 33.087C80.615 32.7648 80.1358 32.286 79.8144 31.7054H79.7647V36.8625H77.6172V23.0063H79.6958V24.7381H79.7353C80.0715 24.1602 80.5589 23.6839 81.1455 23.3598C81.7321 23.0357 82.396 22.8759 83.0666 22.8974C85.722 22.8974 87.473 24.9863 87.473 28.2128ZM85.265 28.2128C85.265 26.1048 84.17 24.719 82.5001 24.719C80.8593 24.719 79.7557 26.134 79.7557 28.2128C79.7557 30.3106 80.8593 31.7156 82.5001 31.7156C84.17 31.7156 85.265 30.3398 85.265 28.2128Z" fill="black"/>
<path d="M95.0828 29.4392C95.2418 30.8554 96.6248 31.7852 98.5138 31.7852C100.324 31.7852 101.626 30.8553 101.626 29.5784C101.626 28.47 100.841 27.8063 98.9808 27.3514L97.1208 26.9056C94.4858 26.2722 93.2628 25.0458 93.2628 23.0558C93.2628 20.5918 95.4208 18.8994 98.4828 18.8994C101.517 18.8994 103.595 20.5918 103.665 23.0558H101.497C101.368 21.6306 100.184 20.7704 98.4538 20.7704C96.7238 20.7704 95.5398 21.6407 95.5398 22.9075C95.5398 23.9172 96.2958 24.5112 98.1458 24.966L99.7268 25.3524C102.671 26.0453 103.893 27.2223 103.893 29.3111C103.893 31.9828 101.756 33.6562 98.3538 33.6562C95.1718 33.6562 93.0238 32.0221 92.8848 29.4391L95.0828 29.4392Z" fill="black"/>
<path d="M108.528 20.542V23.006H110.518V24.6984H108.528V30.4383C108.528 31.33 108.927 31.7456 109.801 31.7456C110.038 31.7415 110.273 31.7249 110.508 31.6961V33.3784C110.115 33.4515 109.715 33.4847 109.315 33.4773C107.197 33.4773 106.371 32.6855 106.371 30.6663V24.6984H104.85V23.006H106.371V20.542H108.528Z" fill="black"/>
<path d="M111.67 28.2128C111.67 24.9369 113.609 22.8784 116.632 22.8784C119.665 22.8784 121.595 24.9369 121.595 28.2128C121.595 31.4978 119.675 33.5473 116.632 33.5473C113.589 33.5473 111.67 31.4977 111.67 28.2128ZM119.407 28.2128C119.407 25.9656 118.372 24.6393 116.632 24.6393C114.892 24.6393 113.857 25.9757 113.857 28.2128C113.857 30.469 114.892 31.7853 116.632 31.7853C118.372 31.7853 119.407 30.469 119.407 28.2128Z" fill="black"/>
<path d="M123.365 23.0063H125.413V24.7784H125.463C125.602 24.2249 125.928 23.7358 126.386 23.3932C126.844 23.0507 127.407 22.8756 127.98 22.8973C128.227 22.8965 128.474 22.9232 128.715 22.9771V24.9761C128.403 24.8811 128.077 24.8374 127.75 24.8469C127.439 24.8343 127.127 24.8891 126.839 25.0074C126.55 25.1257 126.291 25.3048 126.078 25.5324C125.865 25.76 125.705 26.0306 125.607 26.3258C125.51 26.621 125.477 26.9337 125.513 27.2424V33.418H123.365V23.0063Z" fill="black"/>
<path d="M138.617 30.3601C138.328 32.2502 136.479 33.5473 134.112 33.5473C131.069 33.5473 129.18 31.518 129.18 28.2623C129.18 24.9964 131.079 22.8784 134.022 22.8784C136.916 22.8784 138.737 24.8572 138.737 28.0141V28.7463H131.347V28.8754C131.313 29.2586 131.362 29.6446 131.489 30.0079C131.616 30.3711 131.82 30.7032 132.086 30.9821C132.352 31.261 132.675 31.4804 133.033 31.6257C133.391 31.7709 133.776 31.8387 134.162 31.8246C134.669 31.8719 135.179 31.7549 135.614 31.4911C136.049 31.2272 136.387 30.8305 136.578 30.3601H138.617ZM131.358 27.2526H136.588C136.607 26.9081 136.555 26.5633 136.434 26.2399C136.313 25.9165 136.126 25.6215 135.885 25.3734C135.644 25.1253 135.354 24.9294 135.034 24.798C134.713 24.6667 134.369 24.6027 134.022 24.6101C133.672 24.608 133.326 24.6749 133.002 24.8069C132.678 24.9388 132.384 25.1332 132.137 25.3789C131.889 25.6246 131.692 25.9167 131.559 26.2383C131.425 26.5599 131.357 26.9046 131.358 27.2526Z" fill="black"/>
<path d="M55.928 8.38818C56.3783 8.35598 56.83 8.42368 57.2508 8.58628C57.6715 8.74898 58.0508 9.00247 58.3611 9.32867C58.6715 9.65487 58.9053 10.0455 59.0456 10.4725C59.1858 10.8995 59.2292 11.3521 59.1724 11.7977C59.1724 13.9899 57.9819 15.25 55.928 15.25H53.4375V8.38818H55.928ZM54.5084 14.2796H55.8084C56.1301 14.2987 56.4521 14.2462 56.7508 14.1259C57.0496 14.0056 57.3176 13.8205 57.5354 13.5841C57.7533 13.3477 57.9154 13.066 58.01 12.7594C58.1046 12.4528 58.1293 12.129 58.0823 11.8117C58.1259 11.4956 58.0986 11.1739 58.0026 10.8695C57.9065 10.5652 57.744 10.2857 57.5267 10.0512C57.3094 9.81668 57.0427 9.63288 56.7456 9.51298C56.4485 9.39318 56.1285 9.34018 55.8084 9.35778H54.5084V14.2796Z" fill="black"/>
<path d="M60.3827 12.6585C60.35 12.3182 60.3891 11.9749 60.4975 11.6505C60.606 11.3261 60.7813 11.0279 61.0124 10.7749C61.2434 10.5219 61.5251 10.3198 61.8392 10.1814C62.1533 10.0431 62.4931 9.97168 62.8366 9.97168C63.1801 9.97168 63.5198 10.0431 63.8339 10.1814C64.1481 10.3198 64.4297 10.5219 64.6607 10.7749C64.8918 11.0279 65.0671 11.3261 65.1756 11.6505C65.284 11.9749 65.3231 12.3182 65.2904 12.6585C65.3238 12.9992 65.2851 13.343 65.177 13.6679C65.0688 13.9928 64.8935 14.2916 64.6624 14.5451C64.4313 14.7985 64.1495 15.0011 63.8351 15.1397C63.5206 15.2783 63.1805 15.3499 62.8366 15.3499C62.4926 15.3499 62.1525 15.2783 61.8381 15.1397C61.5236 15.0011 61.2418 14.7985 61.0107 14.5451C60.7796 14.2916 60.6043 13.9928 60.4962 13.6679C60.388 13.343 60.3494 12.9992 60.3827 12.6585ZM64.2342 12.6585C64.2342 11.536 63.7275 10.8796 62.8383 10.8796C61.9456 10.8796 61.4435 11.536 61.4435 12.6585C61.4435 13.79 61.9457 14.4414 62.8383 14.4414C63.7275 14.4413 64.2342 13.7855 64.2342 12.6585Z" fill="black"/>
<path d="M71.8136 15.2497H70.7484L69.6729 11.4358H69.5917L68.5208 15.2497H67.4656L66.0312 10.0713H67.0729L68.0051 14.0227H68.0818L69.1516 10.0713H70.1367L71.2065 14.0227H71.2878L72.2154 10.0713H73.2423L71.8136 15.2497Z" fill="black"/>
<path d="M74.4492 10.0718H75.4378V10.8944H75.5145C75.6447 10.599 75.8642 10.3513 76.1426 10.1859C76.4209 10.0205 76.7442 9.94572 77.0673 9.97192C77.3205 9.95292 77.5747 9.99092 77.8111 10.083C78.0475 10.1751 78.2601 10.319 78.4331 10.504C78.606 10.6889 78.735 10.9103 78.8103 11.1516C78.8857 11.3928 78.9055 11.6479 78.8683 11.8979V15.2501H77.8414V12.1545C77.8414 11.3223 77.4781 10.9085 76.7186 10.9085C76.5467 10.9005 76.3751 10.9296 76.2156 10.9938C76.056 11.058 75.9123 11.1558 75.7943 11.2805C75.6763 11.4051 75.5868 11.5537 75.5318 11.716C75.4769 11.8783 75.4579 12.0505 75.4761 12.2208V15.2502H74.4492V10.0718Z" fill="black"/>
<path d="M80.5039 8.0498H81.5308V15.2497H80.5039V8.0498Z" fill="black"/>
<path d="M82.9588 12.6582C82.9262 12.3178 82.9653 11.9745 83.0738 11.6501C83.1822 11.3257 83.3576 11.0274 83.5887 10.7744C83.8198 10.5215 84.101 10.3193 84.416 10.181C84.73 10.0427 85.069 9.97119 85.413 9.97119C85.757 9.97119 86.096 10.0427 86.41 10.181C86.725 10.3193 87.006 10.5215 87.237 10.7744C87.468 11.0274 87.644 11.3257 87.752 11.6501C87.861 11.9745 87.9 12.3178 87.867 12.6582C87.9 12.9988 87.862 13.3427 87.754 13.6676C87.645 13.9925 87.47 14.2913 87.239 14.5447C87.008 14.7982 86.726 15.0007 86.412 15.1394C86.097 15.278 85.757 15.3496 85.413 15.3496C85.069 15.3496 84.729 15.278 84.414 15.1394C84.1 15.0007 83.8181 14.7982 83.587 14.5447C83.3559 14.2913 83.1806 13.9925 83.0724 13.6676C82.9642 13.3427 82.9256 12.9988 82.9588 12.6582ZM86.81 12.6582C86.81 11.5357 86.304 10.8793 85.414 10.8793C84.522 10.8793 84.02 11.5357 84.02 12.6582C84.02 13.7897 84.522 14.441 85.414 14.441C86.304 14.441 86.81 13.7851 86.81 12.6582Z" fill="black"/>
<path d="M88.9468 13.7855C88.9468 12.8534 89.6448 12.316 90.8828 12.2397L92.2918 12.1588V11.7118C92.2918 11.1649 91.9288 10.8561 91.2268 10.8561C90.6538 10.8561 90.2558 11.0655 90.1418 11.4316H89.1478C89.2528 10.5422 90.0938 9.97168 91.2738 9.97168C92.5788 9.97168 93.3138 10.618 93.3138 11.7118V15.25H92.3258V14.5223H92.2448C92.0798 14.7833 91.8478 14.9961 91.5738 15.139C91.2988 15.2818 90.9908 15.3496 90.6818 15.3353C90.4628 15.3579 90.2428 15.3347 90.0338 15.2672C89.8248 15.1997 89.6318 15.0894 89.4688 14.9434C89.3058 14.7974 89.1748 14.6189 89.0848 14.4195C88.9948 14.2201 88.9478 14.0041 88.9468 13.7855ZM92.2918 13.3431V12.9101L91.0208 12.991C90.3048 13.0387 89.9798 13.2813 89.9798 13.7378C89.9798 14.2039 90.3858 14.4751 90.9448 14.4751C91.1078 14.4916 91.2738 14.4751 91.4308 14.4267C91.5878 14.3783 91.7338 14.2989 91.8598 14.1933C91.9848 14.0877 92.0878 13.958 92.1628 13.8119C92.2368 13.6659 92.2808 13.5064 92.2918 13.3431Z" fill="black"/>
<path d="M94.6641 12.6583C94.6641 11.022 95.5091 9.9854 96.8241 9.9854C97.1491 9.9705 97.4721 10.048 97.7541 10.2089C98.0371 10.3698 98.2681 10.6074 98.4201 10.8939H98.4961V8.0498H99.5231V15.2497H98.5391V14.4316H98.4581C98.2941 14.7162 98.0561 14.9508 97.7681 15.1101C97.4801 15.2693 97.1531 15.3471 96.8241 15.335C95.5001 15.3351 94.6641 14.2985 94.6641 12.6583ZM95.7251 12.6583C95.7251 13.7566 96.2451 14.4175 97.1151 14.4175C97.9811 14.4175 98.5161 13.7471 98.5161 12.6628C98.5161 11.5835 97.9751 10.9035 97.1151 10.9035C96.2511 10.9035 95.7251 11.5689 95.7251 12.6583Z" fill="black"/>
<path d="M103.771 12.6585C103.739 12.3182 103.778 11.9749 103.886 11.6505C103.995 11.3261 104.17 11.0279 104.401 10.7749C104.632 10.5219 104.914 10.3198 105.228 10.1814C105.542 10.0431 105.882 9.97168 106.225 9.97168C106.569 9.97168 106.908 10.0431 107.223 10.1814C107.537 10.3198 107.818 10.5219 108.049 10.7749C108.28 11.0279 108.456 11.3261 108.564 11.6505C108.673 11.9749 108.712 12.3182 108.679 12.6585C108.712 12.9992 108.674 13.343 108.566 13.6679C108.457 13.9928 108.282 14.2916 108.051 14.5451C107.82 14.7985 107.538 15.0011 107.224 15.1397C106.909 15.2783 106.569 15.3499 106.225 15.3499C105.881 15.3499 105.541 15.2783 105.227 15.1397C104.912 15.0011 104.63 14.7985 104.399 14.5451C104.168 14.2916 103.993 13.9928 103.885 13.6679C103.777 13.343 103.738 12.9992 103.771 12.6585ZM107.623 12.6585C107.623 11.536 107.116 10.8796 106.227 10.8796C105.334 10.8796 104.832 11.536 104.832 12.6585C104.832 13.79 105.334 14.4414 106.227 14.4414C107.116 14.4413 107.623 13.7855 107.623 12.6585Z" fill="black"/>
<path d="M110.059 10.0718H111.047V10.8944H111.124C111.254 10.599 111.474 10.3513 111.752 10.1859C112.03 10.0205 112.354 9.94572 112.677 9.97192C112.93 9.95292 113.184 9.99092 113.42 10.083C113.657 10.1751 113.869 10.319 114.042 10.504C114.215 10.6889 114.344 10.9103 114.42 11.1516C114.495 11.3928 114.515 11.6479 114.478 11.8979V15.2501H113.451V12.1545C113.451 11.3223 113.087 10.9085 112.328 10.9085C112.156 10.9005 111.984 10.9296 111.825 10.9938C111.665 11.058 111.522 11.1558 111.404 11.2805C111.286 11.4051 111.196 11.5537 111.141 11.716C111.086 11.8783 111.067 12.0505 111.086 12.2208V15.2502H110.059V10.0718Z" fill="black"/>
<path d="M120.28 8.78223V10.0951H121.407V10.9559H120.28V13.6186C120.28 14.1611 120.504 14.3986 121.016 14.3986C121.146 14.3982 121.277 14.3903 121.407 14.375V15.2263C121.223 15.2591 121.036 15.2766 120.849 15.2785C119.707 15.2785 119.252 14.8787 119.252 13.8803V10.9558H118.426V10.095H119.252V8.78223H120.28Z" fill="black"/>
<path d="M122.811 8.0498H123.828V10.9035H123.91C124.046 10.6053 124.272 10.3562 124.556 10.1902C124.84 10.0242 125.168 9.94941 125.496 9.97591C125.748 9.96221 126 10.0041 126.234 10.0984C126.467 10.1928 126.677 10.3373 126.848 10.5217C127.02 10.7061 127.148 10.9258 127.224 11.1652C127.3 11.4045 127.322 11.6576 127.288 11.9064V15.2497H126.26V12.1585C126.26 11.3314 125.873 10.9125 125.148 10.9125C124.971 10.8981 124.794 10.9222 124.627 10.9832C124.461 11.0443 124.311 11.1407 124.186 11.2657C124.061 11.3907 123.965 11.5414 123.905 11.7072C123.845 11.8729 123.822 12.0498 123.838 12.2253V15.2497H122.811V8.0498Z" fill="black"/>
<path d="M133.274 13.8514C133.135 14.3247 132.832 14.7341 132.42 15.008C132.008 15.2818 131.512 15.4028 131.02 15.3496C130.677 15.3586 130.336 15.2932 130.021 15.1581C129.706 15.0229 129.425 14.8212 129.196 14.5669C128.967 14.3126 128.797 14.0118 128.697 13.6854C128.597 13.359 128.569 13.0148 128.616 12.6767C128.57 12.3376 128.598 11.9927 128.698 11.6653C128.798 11.338 128.968 11.0358 129.195 10.7792C129.423 10.5227 129.703 10.3178 130.017 10.1784C130.331 10.039 130.671 9.96838 131.015 9.97128C132.463 9.97128 133.336 10.9557 133.336 12.5818V12.9384H129.662V12.9957C129.646 13.1857 129.67 13.377 129.732 13.5573C129.795 13.7375 129.895 13.9028 130.025 14.0425C130.156 14.1821 130.314 14.2931 130.49 14.3684C130.666 14.4436 130.856 14.4813 131.048 14.4792C131.293 14.5085 131.542 14.4645 131.763 14.3527C131.983 14.2409 132.165 14.0664 132.286 13.8514H133.274ZM129.662 12.1826H132.29C132.303 12.0088 132.279 11.8342 132.221 11.6701C132.162 11.506 132.069 11.3559 131.948 11.2296C131.828 11.1033 131.682 11.0034 131.52 10.9365C131.358 10.8696 131.184 10.8371 131.009 10.8411C130.832 10.8389 130.656 10.8721 130.491 10.9387C130.326 11.0054 130.177 11.1041 130.051 11.2291C129.926 11.3541 129.827 11.5029 129.76 11.6667C129.693 11.8304 129.66 12.0058 129.662 12.1826Z" fill="black"/>
<path d="M36.637 23.3395C36.651 22.2375 36.9402 21.157 37.4777 20.1986C38.0152 19.2401 38.7835 18.4349 39.7111 17.8577C39.1218 17.0059 38.3444 16.3049 37.4406 15.8104C36.5368 15.3159 35.5315 15.0415 34.5046 15.009C32.3141 14.7763 30.1904 16.3356 29.0742 16.3356C27.9363 16.3356 26.2176 15.0321 24.3669 15.0706C23.1698 15.1098 22.0031 15.4621 20.9806 16.0932C19.958 16.7244 19.1144 17.6129 18.532 18.6721C16.0092 23.0929 17.891 29.59 20.3077 33.1634C21.5168 34.9132 22.9299 36.8678 24.779 36.7985C26.5884 36.7226 27.2642 35.6308 29.4483 35.6308C31.6121 35.6308 32.2461 36.7985 34.1327 36.7544C36.0743 36.7226 37.2976 34.9969 38.4643 33.2305C39.3331 31.9837 40.0016 30.6057 40.4451 29.1476C39.3171 28.6647 38.3545 27.8565 37.6773 26.8236C37.0001 25.7908 36.6383 24.579 36.637 23.3395Z" fill="black"/>
<path d="M33.073 12.6584C34.1316 11.3722 34.6532 9.719 34.5269 8.0498C32.9095 8.2218 31.4156 9.0041 30.3426 10.241C29.818 10.8452 29.4162 11.5482 29.1602 12.3096C28.9042 13.0711 28.799 13.8762 28.8507 14.6789C29.6596 14.6873 30.4599 14.5098 31.1913 14.1599C31.9227 13.8099 32.5661 13.2965 33.073 12.6584Z" fill="black"/>
</g>
</svg>
