<svg width="156" height="46" viewBox="0 0 156 46" fill="none" xmlns="http://www.w3.org/2000/svg">
<mask id="mask0_15_556" style="mask-type:luminance" maskUnits="userSpaceOnUse" x="0" y="0" width="156" height="46">
<path d="M5.76389 0.5H150.236C153.143 0.5 155.5 2.85672 155.5 5.76389V40.2361C155.5 43.1433 153.143 45.5 150.236 45.5H5.76389C2.85672 45.5 0.5 43.1433 0.5 40.2361V5.76389C0.5 2.85672 2.85672 0.5 5.76389 0.5Z" fill="white" stroke="white"/>
</mask>
<g mask="url(#mask0_15_556)">
<path d="M5.76389 0.5H150.236C153.143 0.5 155.5 2.85672 155.5 5.76389V40.2361C155.5 43.1433 153.143 45.5 150.236 45.5H5.76389C2.85672 45.5 0.5 43.1433 0.5 40.2361V5.76389C0.5 2.85672 2.85672 0.5 5.76389 0.5Z" fill="white" stroke="#EBEBEB"/>
<path d="M150.222 45.5H5.7766C2.8728 45.5 0.5 43.1342 0.5 40.25V5.75C0.5 2.86578 2.8728 0.5 5.7766 0.5H150.222C153.126 0.5 155.5 2.86592 155.5 5.75V40.25C155.5 43.1341 153.126 45.5 150.222 45.5Z" fill="white" stroke="#EBEBEB"/>
<path d="M11.3241 8.50734C10.9878 8.86154 10.7891 9.41124 10.7891 10.123V35.5564C10.7891 36.2694 10.9878 36.818 11.3241 37.1722L11.4096 37.255L25.7258 23.0076V22.8397V22.6718L11.4096 8.42334L11.3241 8.50734Z" fill="url(#paint0_linear_15_556)"/>
<path d="M30.4979 27.7597L25.7266 23.0091V22.8412V22.6733L30.499 17.9238L30.6065 17.9847L36.2606 21.1817C37.8761 22.0948 37.8761 23.5887 36.2606 24.5029L30.6065 27.6999L30.4979 27.7597Z" fill="url(#paint1_linear_15_556)"/>
<path d="M30.607 27.6974L25.7271 22.8398L11.3242 37.1723C11.8569 37.7335 12.7352 37.8025 13.7255 37.2424L30.607 27.6974Z" fill="url(#paint2_linear_15_556)"/>
<path d="M30.6058 17.9819L13.7255 8.43687C12.7352 7.87687 11.8569 7.94697 11.3242 8.50707L25.7259 22.8395L30.6058 17.9819Z" fill="url(#paint3_linear_15_556)"/>
<path opacity="0.2" d="M30.4995 27.5908L13.7266 37.0748C12.7883 37.605 11.9494 37.5705 11.4109 37.0875L11.3242 37.1737L11.4097 37.2565C11.9482 37.7395 12.7872 37.7752 13.7255 37.2439L30.6058 27.6989L30.4995 27.5908Z" fill="black"/>
<path opacity="0.12" d="M11.3241 37.0044C10.9878 36.6502 10.7891 36.1005 10.7891 35.3887V35.5566C10.7891 36.2684 10.9878 36.8181 11.3241 37.1723L11.4108 37.0861L11.3241 37.0044Z" fill="black"/>
<path opacity="0.12" d="M36.2616 24.3328L30.5 27.5908L30.6075 27.6977L36.2616 24.5007C37.0693 24.0442 37.4726 23.4427 37.4726 22.8413C37.4044 23.3852 36.9931 23.9188 36.2616 24.3328Z" fill="black"/>
<path opacity="0.25" d="M13.7253 8.60487L36.2598 21.3469C36.9924 21.7609 37.4027 22.2945 37.4708 22.8396C37.4708 22.2382 37.0676 21.6356 36.2598 21.179L13.7253 8.43697C12.1099 7.52387 10.7891 8.28177 10.7891 10.1229V10.292C10.7891 8.45077 12.111 7.69177 13.7253 8.60487Z" fill="white"/>
<path d="M78.0078 23.8107C75.29 23.8107 73.0748 25.8669 73.0748 28.7016C73.0748 31.518 75.29 33.5926 78.0078 33.5926C80.7257 33.5926 82.9409 31.518 82.9409 28.7016C82.9409 25.8669 80.7257 23.8107 78.0078 23.8107ZM78.0078 31.6663C76.5183 31.6663 75.2334 30.4439 75.2334 28.7016C75.2334 26.941 76.5183 25.7369 78.0078 25.7369C79.4974 25.7369 80.7812 26.941 80.7812 28.7016C80.7812 30.4427 79.4974 31.6663 78.0078 31.6663ZM67.245 23.8107C64.5271 23.8107 62.3119 25.8669 62.3119 28.7016C62.3119 31.518 64.5271 33.5926 67.245 33.5926C69.9629 33.5926 72.1781 31.518 72.1781 28.7016C72.1792 25.8669 69.9629 23.8107 67.245 23.8107ZM67.245 31.6663C65.7555 31.6663 64.4717 30.4439 64.4717 28.7016C64.4717 26.941 65.7566 25.7369 67.245 25.7369C68.7345 25.7369 70.0183 26.941 70.0183 28.7016C70.0195 30.4427 68.7345 31.6663 67.245 31.6663ZM54.4438 25.3114V27.386H59.4334C59.2844 28.5533 58.8938 29.4054 58.2975 29.9988C57.5718 30.721 56.4359 31.518 54.4438 31.518C51.3723 31.518 48.971 29.0535 48.971 25.9968C48.971 22.9401 51.3723 20.4757 54.4438 20.4757C56.1008 20.4757 57.3107 21.1243 58.2039 21.958L59.675 20.4941C58.4281 19.3084 56.771 18.3999 54.4438 18.3999C50.2364 18.3999 46.6992 21.8085 46.6992 25.9957C46.6992 30.1828 50.2364 33.5914 54.4438 33.5914C56.7144 33.5914 58.4281 32.8508 59.7686 31.4605C61.146 30.0897 61.5747 28.1623 61.5747 26.6063C61.5747 26.1245 61.5377 25.6794 61.4626 25.3091H54.4438V25.3114ZM106.8 26.9226C106.391 25.8289 105.143 23.8095 102.592 23.8095C100.06 23.8095 97.957 25.7921 97.957 28.7005C97.957 31.4421 100.042 33.5914 102.835 33.5914C105.087 33.5914 106.391 32.2206 106.93 31.4237L105.255 30.3116C104.697 31.127 103.933 31.664 102.835 31.664C101.736 31.664 100.955 31.1638 100.452 30.1817L107.024 27.4769L106.8 26.9226ZM100.097 28.5533C100.042 26.6638 101.568 25.7001 102.666 25.7001C103.523 25.7001 104.248 26.1256 104.491 26.7374L100.097 28.5533ZM94.754 33.2959H96.914V18.9197H94.754V33.2959ZM91.217 24.9032H91.143C90.659 24.3293 89.729 23.8095 88.556 23.8095C86.098 23.8095 83.8457 25.9589 83.8457 28.7189C83.8457 31.4605 86.098 33.5914 88.556 33.5914C89.729 33.5914 90.659 33.0728 91.143 32.4794H91.217V33.1832C91.217 35.0542 90.212 36.0547 88.592 36.0547C87.27 36.0547 86.45 35.1094 86.115 34.3136L84.235 35.0922C84.775 36.3894 86.209 37.9821 88.592 37.9821C91.123 37.9821 93.265 36.4998 93.265 32.8876V24.1062H91.217V24.9032ZM88.742 31.6663C87.252 31.6663 86.005 30.4255 86.005 28.72C86.005 26.9973 87.252 25.7369 88.742 25.7369C90.213 25.7369 91.366 26.9962 91.366 28.72C91.366 30.4243 90.213 31.6663 88.742 31.6663ZM116.915 18.9197H111.749V33.2959H113.904V27.8495H116.914C119.304 27.8495 121.653 26.1279 121.653 23.3852C121.653 20.6424 119.305 18.9197 116.915 18.9197ZM116.971 25.8485H113.904V20.9207H116.971C118.583 20.9207 119.498 22.249 119.498 23.3852C119.498 24.4984 118.583 25.8485 116.971 25.8485ZM130.297 23.7842C128.736 23.7842 127.119 24.4685 126.45 25.9853L128.365 26.7811C128.774 25.9853 129.535 25.7266 130.335 25.7266C131.45 25.7266 132.584 26.3924 132.602 27.5758V27.7241C132.211 27.5022 131.375 27.1687 130.353 27.1687C128.291 27.1687 126.19 28.2968 126.19 30.4059C126.19 32.3299 127.882 33.5684 129.777 33.5684C131.227 33.5684 132.025 32.921 132.527 32.1631H132.601V33.2729H134.682V27.7609C134.682 25.2079 132.768 23.7842 130.297 23.7842ZM130.036 31.6629C129.33 31.6629 128.344 31.311 128.344 30.4427C128.344 29.333 129.571 28.9075 130.63 28.9075C131.577 28.9075 132.023 29.111 132.6 29.3882C132.433 30.7199 131.281 31.6629 130.036 31.6629ZM142.265 24.0982L139.793 30.3312H139.719L137.155 24.0982H134.832L138.679 32.8094L136.486 37.6555H138.735L144.664 24.0982H142.265ZM122.843 33.2959H125V18.9197H122.843V33.2959Z" fill="black"/>
<path fill-rule="evenodd" clip-rule="evenodd" d="M84.382 14.2138C83.7004 14.9119 82.8533 15.2592 81.8399 15.2592C80.8264 15.2592 79.9794 14.9107 79.2988 14.2138C78.617 13.5169 78.2773 12.6636 78.2773 11.6551C78.2773 10.6465 78.617 9.79321 79.2988 9.09631C79.9794 8.39831 80.8264 8.0498 81.8399 8.0498C82.8475 8.0498 83.6934 8.40061 84.3779 9.10091C85.0619 9.80131 85.4039 10.6523 85.4039 11.6551C85.4039 12.6648 85.063 13.5181 84.382 14.2138ZM79.9563 13.6365C80.4694 14.154 81.0968 14.4116 81.8399 14.4116C82.5829 14.4116 83.2104 14.1529 83.7234 13.6365C84.2369 13.119 84.4939 12.4589 84.4939 11.6562C84.4939 10.8535 84.2369 10.1923 83.7234 9.67591C83.2115 9.15841 82.5829 8.9008 81.8399 8.9008C81.0968 8.9008 80.4694 9.15961 79.9563 9.67591C79.4444 10.1934 79.1867 10.8535 79.1867 11.6562C79.1867 12.4589 79.4444 13.119 79.9563 13.6365Z" fill="black"/>
<path d="M54.117 11.9361C54.117 12.8998 53.8304 13.6668 53.2561 14.2395C52.6044 14.9203 51.7539 15.2607 50.7093 15.2607C49.7086 15.2607 48.8569 14.9157 48.1578 14.2257C47.4576 13.5346 47.1074 12.679 47.1074 11.6578C47.1074 10.6354 47.4576 9.77981 48.1578 9.08981C48.8569 8.39871 49.7086 8.05371 50.7093 8.05371C51.2062 8.05371 51.6811 8.15031 52.1318 8.34231C52.5836 8.53551 52.9453 8.79201 53.2157 9.11281L52.6067 9.72001C52.148 9.17381 51.5159 8.90121 50.7081 8.90121C49.9778 8.90121 49.3469 9.15651 48.8142 9.66711C48.2826 10.1777 48.0168 10.8401 48.0168 11.6566C48.0168 12.4731 48.2826 13.1355 48.8153 13.6473C49.348 14.1579 49.979 14.4132 50.7093 14.4132C51.4835 14.4132 52.1295 14.1567 52.646 13.6427C52.9811 13.308 53.1752 12.8423 53.2272 12.2454H50.7093V11.4151H54.0685C54.102 11.5957 54.117 11.7693 54.117 11.9361Z" fill="black"/>
<path d="M59.4439 9.05404H56.287V11.2413H59.1342V12.0705H56.287V14.2578H59.4439V15.1065H55.396V8.20654H59.4439V9.05404Z" fill="black"/>
<path d="M62.3088 15.1065H63.1997V9.05404H65.1364V8.20654H60.3721V9.05404H62.3088V15.1065Z" fill="black"/>
<path d="M68.5845 15.1065V8.20654H69.4754V15.1065H68.5845Z" fill="black"/>
<path d="M72.5344 15.1065H73.4253V9.05404H75.362V8.20654H70.5977V9.05404H72.5344V15.1065Z" fill="black"/>
<path d="M86.6538 8.20654V15.1065H87.5428V10.8078L87.5038 9.47844H87.5428L91.0678 15.1065H91.9978V8.20654H91.1078V12.2453L91.1458 13.5747H91.1078L87.7378 8.20654H86.6538Z" fill="black"/>
</g>
<defs>
<linearGradient id="paint0_linear_15_556" x1="24.4565" y1="9.85494" x2="5.15696" y2="29.2476" gradientUnits="userSpaceOnUse">
<stop stop-color="#00A0FF"/>
<stop offset="0.0066" stop-color="#00A1FF"/>
<stop offset="0.2601" stop-color="#00BEFF"/>
<stop offset="0.5122" stop-color="#00D2FF"/>
<stop offset="0.7604" stop-color="#00DFFF"/>
<stop offset="1" stop-color="#00E3FF"/>
</linearGradient>
<linearGradient id="paint1_linear_15_556" x1="38.3629" y1="22.8406" x2="10.402" y2="22.8406" gradientUnits="userSpaceOnUse">
<stop stop-color="#FFE000"/>
<stop offset="0.4087" stop-color="#FFBD00"/>
<stop offset="0.7754" stop-color="#FFA500"/>
<stop offset="1" stop-color="#FF9C00"/>
</linearGradient>
<linearGradient id="paint2_linear_15_556" x1="27.9549" y1="25.4793" x2="1.78312" y2="51.7775" gradientUnits="userSpaceOnUse">
<stop stop-color="#FF3A44"/>
<stop offset="1" stop-color="#C31162"/>
</linearGradient>
<linearGradient id="paint3_linear_15_556" x1="7.69722" y1="0.0410743" x2="19.384" y2="11.7843" gradientUnits="userSpaceOnUse">
<stop stop-color="#32A071"/>
<stop offset="0.0685" stop-color="#2DA771"/>
<stop offset="0.4762" stop-color="#15CF74"/>
<stop offset="0.8009" stop-color="#06E775"/>
<stop offset="1" stop-color="#00F076"/>
</linearGradient>
</defs>
</svg>
