<svg width="156" height="46" viewBox="0 0 156 46" fill="none" xmlns="http://www.w3.org/2000/svg">
<mask id="mask0_15_554" style="mask-type:luminance" maskUnits="userSpaceOnUse" x="0" y="0" width="156" height="46">
<path d="M156 0H0V46H156V0Z" fill="white"/>
</mask>
<g mask="url(#mask0_15_554)">
<g opacity="0.5" filter="url(#filter0_ddd_15_554)">
<path d="M2.0362 43.9351C2.511 44.4219 3.058 44.8273 3.6666 45.1414C4.2549 45.4472 4.888 45.6603 5.6003 45.791L5.69054 45.2992M2.0362 43.9351L5.69054 45.2992M2.0362 43.9351C1.5531 43.4531 1.1559 42.8996 0.845301 42.2785L2.0362 43.9351ZM5.69054 45.2992C6.40528 45.43 7.14651 45.4663 7.79437 45.4851C8.14396 45.4927 8.48678 45.4974 8.83741 45.4974L145.506 45.5H145.507L146.771 45.4974H146.772C147.114 45.4974 147.469 45.4927 147.807 45.4851C148.462 45.4662 149.203 45.43 149.91 45.2993L149.911 45.2991C150.59 45.1753 151.16 44.9835 151.718 44.6946C152.275 44.4064 152.778 44.0345 153.222 43.5776L153.228 43.5723C153.659 43.1414 154.028 42.6279 154.32 42.0562C154.6 41.4943 154.79 40.9002 154.904 40.2187L154.905 40.2113C155.031 39.5189 155.072 38.7831 155.096 38.0896C155.101 37.7318 155.101 37.3836 155.101 36.999V36.9884C155.11 36.5703 155.11 36.1554 155.11 35.7232V10.2752C155.11 9.84774 155.11 9.42928 155.101 8.99021L155.101 8.9801C155.101 8.62214 155.101 8.26615 155.097 7.93526C155.072 7.21927 155.031 6.48306 154.902 5.77461L154.901 5.76749C154.791 5.1067 154.6 4.51242 154.323 3.95283C154.029 3.37364 153.659 2.85778 153.22 2.41508L153.218 2.41306C152.778 1.96445 152.272 1.58965 151.722 1.30268C151.157 1.01391 150.569 0.817058 149.913 0.700243L149.911 0.699798C149.178 0.565351 148.414 0.530212 147.822 0.515309C147.821 0.515287 147.82 0.515265 147.819 0.515243L146.766 0.5H146.762H8.84149L7.79457 0.514609C7.19402 0.530211 6.43043 0.565343 5.68561 0.701186L5.68382 0.701512C5.0327 0.817817 4.44877 1.01345 3.89644 1.29824C3.33875 1.58925 2.83212 1.96439 2.38615 2.41803L2.38416 2.42006L2.38415 2.42005C1.94572 2.86096 1.57888 3.37365 1.29223 3.94897L1.29131 3.95083L1.2913 3.95082C1.01289 4.50388 0.820431 5.09848 0.703104 5.78253L0.702502 5.78604L0.70249 5.78603C0.568139 6.53718 0.532207 7.3153 0.51715 7.93122L0.517099 7.93331H0.517095C0.513766 8.04956 0.509489 8.3109 0.506008 8.54729L0.501688 8.85491L0.500418 8.9509L0.500077 8.97725L0.5 8.98329V37.0018V37.0048L0.500076 37.0082L0.500399 37.035L0.501608 37.1325L0.505787 37.4455C0.509194 37.6864 0.51347 37.9527 0.517076 38.0731L0.517155 38.0758C0.532198 38.686 0.568109 39.4649 0.703804 40.2244L0.704419 40.2278C0.821037 40.908 1.01345 41.5027 1.29156 42.053L1.2925 42.0549C1.57961 42.629 1.94539 43.1382 2.38935 43.5811L2.39417 43.586L2.39414 43.586C2.83147 44.0344 3.33504 44.4076 3.89591 44.6971L3.89721 44.6978C4.43775 44.9787 5.02298 45.1767 5.69054 45.2992Z" fill="white" stroke="#EBEBEB"/>
<path d="M53.113 29.2272H57.203L55.7388 25.3746C55.5372 24.8425 55.3391 24.2546 55.1438 23.6106C54.9675 24.1801 54.7753 24.7619 54.5675 25.3559L53.113 29.2272ZM57.9019 31.0562H52.4234L51.0825 34.6583H48.6738L54.0387 21.2061H56.315L61.8028 34.6583H59.2715L57.9019 31.0562Z" fill="#030404"/>
<path d="M68.919 32.2018C69.3945 31.5737 69.6323 30.6562 69.6323 29.4491C69.6323 28.3292 69.4354 27.5165 69.042 27.0121C68.6482 26.5076 68.1241 26.2555 67.4692 26.2555C67.0158 26.2555 66.5971 26.361 66.2131 26.5711C65.829 26.7818 65.4636 27.0633 65.1173 27.4159V32.782C65.3504 32.8933 65.6212 32.9816 65.9298 33.0463C66.2383 33.1117 66.5438 33.1442 66.8458 33.1442C67.7528 33.1442 68.4435 32.8298 68.919 32.2018ZM62.7845 27.082C62.7845 26.3392 62.7592 25.5223 62.709 24.6308H64.9002C64.9819 25.0457 65.0387 25.4698 65.0702 25.9029C65.9769 24.9313 67.0158 24.4453 68.1871 24.4453C68.8672 24.4453 69.4969 24.6139 70.0762 24.951C70.6553 25.2886 71.123 25.8207 71.4787 26.5478C71.8347 27.2752 72.0125 28.1992 72.0125 29.3191C72.0125 30.4891 71.8094 31.4885 71.4032 32.3177C70.997 33.1472 70.4288 33.7753 69.6984 34.2025C68.968 34.6294 68.1241 34.8431 67.1672 34.8431C66.4742 34.8431 65.7909 34.7284 65.1173 34.4996V38.6399L62.7845 38.835V27.082Z" fill="#030404"/>
<path d="M79.5404 32.2018C80.0159 31.5737 80.2537 30.6562 80.2537 29.4491C80.2537 28.3292 80.0568 27.5165 79.6634 27.0121C79.2696 26.5076 78.7455 26.2555 78.0906 26.2555C77.6372 26.2555 77.2185 26.361 76.8345 26.5711C76.4501 26.7818 76.085 27.0633 75.7387 27.4159V32.782C75.9718 32.8933 76.2423 32.9816 76.5512 33.0463C76.8594 33.1117 77.1649 33.1442 77.4672 33.1442C78.3739 33.1442 79.065 32.8298 79.5404 32.2018ZM73.4056 27.082C73.4056 26.3392 73.3803 25.5223 73.3301 24.6308H75.5216C75.6033 25.0457 75.6601 25.4698 75.6916 25.9029C76.5983 24.9313 77.6372 24.4453 78.8085 24.4453C79.4886 24.4453 80.118 24.6139 80.6976 24.951C81.2764 25.2886 81.7444 25.8207 82.1004 26.5478C82.4558 27.2752 82.6339 28.1992 82.6339 29.3191C82.6339 30.4891 82.4305 31.4885 82.0246 32.3177C81.618 33.1472 81.0499 33.7753 80.3198 34.2025C79.5891 34.6294 78.7455 34.8431 77.7882 34.8431C77.0956 34.8431 76.4123 34.7284 75.7387 34.4996V38.6399L73.4056 38.835V27.082Z" fill="#030404"/>
<path d="M86.919 34.0204C85.911 33.473 85.137 32.6882 84.596 31.667C84.054 30.6458 83.7832 29.4391 83.7832 28.0465C83.7832 26.5365 84.095 25.2534 84.718 24.1982C85.342 23.1429 86.19 22.3508 87.264 21.8215C88.337 21.2925 89.541 21.0278 90.877 21.0278C91.664 21.0278 92.415 21.1131 93.129 21.283C93.844 21.4535 94.51 21.6869 95.127 21.984L94.532 23.748C93.291 23.1662 92.108 22.8752 90.981 22.8752C90.03 22.8752 89.197 23.0748 88.483 23.4741C87.768 23.8734 87.212 24.4597 86.815 25.2335C86.418 26.0072 86.22 26.9416 86.22 28.037C86.22 28.9966 86.373 29.8476 86.678 30.5903C86.984 31.3328 87.465 31.9209 88.123 32.354C88.781 32.7873 89.611 33.0038 90.612 33.0038C91.066 33.0038 91.519 32.9667 91.972 32.8925C92.426 32.8183 92.851 32.71 93.247 32.5674V29.8476H90.083V28.0649H95.514V33.7281C94.733 34.0869 93.913 34.3626 93.054 34.5543C92.194 34.746 91.34 34.8419 90.489 34.8419C89.117 34.8419 87.926 34.5684 86.919 34.0204Z" fill="#030404"/>
<path d="M102.424 32.7912C102.909 32.5624 103.306 32.2775 103.614 31.9371V30.0806C102.978 30.0125 102.459 29.9785 102.056 29.9785C101.092 29.9785 100.426 30.1315 100.059 30.4381C99.6898 30.7439 99.5058 31.1573 99.5058 31.6771C99.5058 32.1727 99.6398 32.5391 99.9068 32.7774C100.175 33.0157 100.538 33.1347 100.998 33.1347C101.464 33.1347 101.939 33.0203 102.424 32.7912ZM103.822 34.6481C103.74 34.258 103.686 33.8158 103.661 33.3205C103.303 33.7416 102.835 34.0988 102.259 34.3929C101.683 34.6867 101.033 34.8336 100.308 34.8336C99.7228 34.8336 99.1888 34.7207 98.7068 34.4947C98.2258 34.269 97.8428 33.9286 97.5598 33.4735C97.2768 33.0187 97.1348 32.4634 97.1348 31.8071C97.1348 30.8356 97.4898 30.0603 98.2018 29.4817C98.9138 28.903 100.101 28.6138 101.763 28.6138C102.386 28.6138 103.003 28.657 103.614 28.7435V28.5488C103.614 27.6637 103.422 27.0403 103.038 26.6778C102.654 26.3159 102.103 26.135 101.385 26.135C100.888 26.135 100.356 26.2061 99.7888 26.3484C99.2218 26.491 98.7248 26.6609 98.2968 26.859L97.9278 25.188C98.3438 25.0022 98.8918 24.8323 99.5718 24.6774C100.252 24.5229 100.97 24.4453 101.725 24.4453C102.607 24.4453 103.356 24.5768 103.973 24.8396C104.59 25.1028 105.072 25.5548 105.418 26.1951C105.765 26.836 105.938 27.6978 105.938 28.7809V32.7633C105.938 33.1782 105.963 33.8066 106.013 34.6481H103.822Z" fill="#030404"/>
<path d="M107.715 32.254V20.4172L110.038 20.2314V31.8455C110.038 32.2727 110.112 32.5741 110.26 32.7508C110.408 32.9268 110.643 33.0154 110.964 33.0154C111.109 33.0154 111.313 32.9814 111.578 32.9133L111.852 34.5564C111.631 34.6432 111.362 34.7128 111.045 34.7653C110.726 34.8177 110.426 34.8441 110.142 34.8441C108.524 34.8441 107.715 33.9808 107.715 32.254Z" fill="#030404"/>
<path d="M113.516 32.254V20.4172L115.839 20.2314V31.8455C115.839 32.2727 115.913 32.5741 116.061 32.7508C116.209 32.9268 116.444 33.0154 116.765 33.0154C116.91 33.0154 117.114 32.9814 117.379 32.9133L117.653 34.5564C117.432 34.6432 117.163 34.7128 116.845 34.7653C116.527 34.8177 116.226 34.8441 115.943 34.8441C114.325 34.8441 113.516 33.9808 113.516 32.254Z" fill="#030404"/>
<path d="M124.953 28.4746C124.909 27.676 124.704 27.0774 124.339 26.6778C123.974 26.2788 123.486 26.0792 122.875 26.0792C122.283 26.0792 121.79 26.2804 121.397 26.6827C121.003 27.0851 120.746 27.6824 120.627 28.4746H124.953ZM127.229 29.9318H120.561C120.668 32.03 121.685 33.0792 123.612 33.0792C124.09 33.0792 124.58 33.0218 125.081 32.9074C125.581 32.7927 126.061 32.6397 126.521 32.4477L127.031 34.0166C125.891 34.5616 124.61 34.8336 123.187 34.8336C122.104 34.8336 121.19 34.6327 120.448 34.2304C119.704 33.828 119.146 33.2494 118.771 32.494C118.396 31.7393 118.209 30.8295 118.209 29.765C118.209 28.657 118.407 27.7039 118.804 26.9053C119.201 26.1071 119.754 25.4974 120.462 25.0764C121.17 24.6556 121.987 24.4453 122.913 24.4453C123.876 24.4453 124.681 24.6667 125.326 25.1092C125.972 25.5514 126.45 26.1411 126.762 26.8774C127.073 27.6144 127.229 28.4279 127.229 29.3191V29.9318Z" fill="#030404"/>
<path d="M128.992 27.1467C128.992 26.5962 128.966 25.7575 128.916 24.6308H131.098C131.136 24.9096 131.172 25.242 131.206 25.629C131.241 26.0157 131.264 26.3297 131.277 26.5711C131.548 26.1319 131.814 25.7621 132.076 25.4619C132.336 25.1616 132.642 24.9172 132.991 24.7283C133.341 24.5394 133.739 24.4453 134.186 24.4453C134.545 24.4453 134.854 24.4824 135.112 24.5566L134.819 26.5435C134.593 26.4754 134.34 26.4414 134.064 26.4414C133.516 26.4414 133.037 26.5791 132.628 26.8544C132.219 27.1298 131.781 27.5831 131.315 28.2145V34.6481H128.992V27.1467Z" fill="#030404"/>
<path d="M136.411 38.7497C136.071 38.6911 135.791 38.6246 135.57 38.5503L135.995 36.8793C136.153 36.9222 136.351 36.9643 136.59 37.0044C136.83 37.0449 137.056 37.0648 137.27 37.0648C138.303 37.0648 139.078 36.4116 139.594 35.1059L139.745 34.7345L135.986 24.6338H138.489L140.378 30.2786C140.686 31.244 140.885 31.9837 140.973 32.497C141.149 31.773 141.357 31.049 141.596 30.3249L143.514 24.6338H145.866L142.116 34.7811C141.763 35.7403 141.382 36.5138 140.973 37.1019C140.564 37.6898 140.081 38.1262 139.523 38.4111C138.966 38.6954 138.293 38.838 137.507 38.838C137.116 38.838 136.751 38.8089 136.411 38.7497Z" fill="#030404"/>
<path d="M48.6738 8.39648H52.8322L52.7152 9.38358H49.8925V11.2954H52.5542V12.2203H49.8925V14.3382H52.8662L52.7638 15.3348H48.6738V8.39648Z" fill="#030404"/>
<path d="M55.6982 11.7937L53.5046 8.39648H54.8889L56.3759 10.8931L57.9409 8.39648H59.2862L57.1119 11.7508L59.4666 15.3348H58.0626L56.3809 12.6036L54.6696 15.3348H53.3242L55.6982 11.7937Z" fill="#030404"/>
<path d="M63.4199 11.4944C63.6798 11.2629 63.8099 10.9363 63.8099 10.5146C63.8099 10.0865 63.6773 9.77829 63.4128 9.58969C63.1479 9.40139 62.7585 9.30698 62.2453 9.30698H61.5823V11.7698C61.8877 11.818 62.1217 11.8419 62.2843 11.8419C62.7813 11.8419 63.1601 11.7263 63.4199 11.4944ZM60.3633 8.39648H62.2646C63.1582 8.39648 63.8424 8.57559 64.3169 8.93319C64.7915 9.29099 65.0286 9.80868 65.0286 10.4858C65.0286 10.9458 64.9222 11.3475 64.7094 11.691C64.4963 12.0345 64.1999 12.2979 63.8196 12.4816C63.4396 12.6653 63.0022 12.757 62.5083 12.757C62.2387 12.757 61.9298 12.7254 61.5823 12.6613V15.3348H60.3633V8.39648Z" fill="#030404"/>
<path d="M66.207 8.39648H67.4257V14.3096H70.3457L70.2434 15.3348H66.207V8.39648Z" fill="#030404"/>
<path d="M75.3546 14.1458C75.6959 13.9204 75.9508 13.6107 76.1199 13.216C76.289 12.8216 76.3736 12.3702 76.3736 11.8623C76.3736 11.364 76.2987 10.9203 76.1492 10.5302C75.9995 10.1407 75.7608 9.83015 75.4326 9.59825C75.1043 9.36705 74.6819 9.25115 74.1649 9.25115C73.671 9.25115 73.2517 9.36825 72.9072 9.60315C72.5628 9.83805 72.3045 10.1527 72.1322 10.547C71.96 10.9417 71.8739 11.3769 71.8739 11.8528C71.8739 12.3545 71.955 12.8035 72.1176 13.1994C72.2798 13.5956 72.5285 13.9084 72.8636 14.1384C73.198 14.3684 73.6124 14.4834 74.1066 14.4834C74.5973 14.4834 75.0132 14.3709 75.3546 14.1458ZM72.1956 14.9962C71.6789 14.7058 71.2839 14.2976 71.0109 13.772C70.7379 13.2466 70.6016 12.6358 70.6016 11.939C70.6016 11.2076 70.7466 10.5682 71.0377 10.0199C71.3285 9.47225 71.7479 9.04905 72.2954 8.75035C72.843 8.45165 73.4888 8.30225 74.2332 8.30225C74.9449 8.30225 75.5577 8.44705 76.0712 8.73595C76.5845 9.02515 76.9763 9.43145 77.2459 9.95525C77.5158 10.4793 77.6506 11.0862 77.6506 11.7762C77.6506 12.5208 77.5036 13.1675 77.2094 13.7168C76.9152 14.2663 76.4962 14.6895 75.9517 14.9867C75.4073 15.2835 74.768 15.4323 74.0336 15.4323C73.325 15.4323 72.7122 15.2869 72.1956 14.9962Z" fill="#030404"/>
<path d="M80.9579 11.6787C81.2533 11.6787 81.5148 11.6223 81.7426 11.5088C81.97 11.3957 82.1472 11.2356 82.2739 11.0295C82.4009 10.8234 82.4642 10.5849 82.4642 10.3132C82.4642 9.96538 82.3519 9.71059 82.1279 9.54889C81.9036 9.38789 81.5766 9.30698 81.1476 9.30698H80.2656V11.6787H80.9579ZM79.0469 8.39648H81.2552C82.0611 8.39648 82.6714 8.55468 83.0857 8.87088C83.5 9.18708 83.7072 9.63938 83.7072 10.227C83.7072 10.5944 83.6323 10.9179 83.4829 11.1973C83.3334 11.477 83.1481 11.7045 82.9272 11.8802C82.706 12.0559 82.4789 12.1869 82.2449 12.2731L84.414 15.3348H83.0005L81.1626 12.5846H80.2656V15.3348H79.0469V8.39648Z" fill="#030404"/>
<path d="M85.3608 8.39648H89.5198L89.4028 9.38358H86.5798V11.2954H89.2418V12.2203H86.5798V14.3382H89.5538L89.4508 15.3348H85.3608V8.39648Z" fill="#030404"/>
<path d="M95.281 8.39648H94.062V15.3348H95.281V8.39648Z" fill="#030404"/>
<path d="M98.4698 9.39808H96.2808L96.3888 8.39648H101.883L101.771 9.39808H99.6888V15.3348H98.4698V9.39808Z" fill="#030404"/>
<path d="M110.335 14.1458C110.676 13.9204 110.932 13.6107 111.101 13.216C111.269 12.8216 111.354 12.3702 111.354 11.8623C111.354 11.364 111.279 10.9203 111.13 10.5302C110.98 10.1407 110.741 9.83015 110.413 9.59825C110.085 9.36705 109.662 9.25115 109.146 9.25115C108.651 9.25115 108.232 9.36825 107.888 9.60315C107.543 9.83805 107.285 10.1527 107.113 10.547C106.94 10.9417 106.854 11.3769 106.854 11.8528C106.854 12.3545 106.935 12.8035 107.098 13.1994C107.261 13.5956 107.509 13.9084 107.844 14.1384C108.179 14.3684 108.593 14.4834 109.087 14.4834C109.578 14.4834 109.994 14.3709 110.335 14.1458ZM107.176 14.9962C106.659 14.7058 106.265 14.2976 105.992 13.772C105.719 13.2466 105.582 12.6358 105.582 11.939C105.582 11.2076 105.727 10.5682 106.019 10.0199C106.309 9.47225 106.728 9.04905 107.276 8.75035C107.824 8.45165 108.47 8.30225 109.214 8.30225C109.926 8.30225 110.538 8.44705 111.052 8.73595C111.565 9.02515 111.957 9.43145 112.227 9.95525C112.496 10.4793 112.631 11.0862 112.631 11.7762C112.631 12.5208 112.484 13.1675 112.19 13.7168C111.896 14.2663 111.477 14.6895 110.933 14.9867C110.388 15.2835 109.748 15.4323 109.014 15.4323C108.305 15.4323 107.693 15.2869 107.176 14.9962Z" fill="#030404"/>
<path d="M113.984 8.39648H115.384L118.874 13.773C118.845 13.2621 118.83 12.7904 118.83 12.3592V8.39648H119.961V15.3348H118.606L115.062 9.87248C115.098 10.4922 115.115 11.0415 115.115 11.5208V15.3348H113.984V8.39648Z" fill="#030404"/>
<path fill-rule="evenodd" clip-rule="evenodd" d="M31.5391 8.42822H18.5774C12.4716 8.42822 10.2383 10.6236 10.2383 16.6248V29.3652C10.2383 35.3664 12.4716 37.5615 18.5774 37.5615H31.5351C37.6409 37.5615 39.8783 35.3664 39.8783 29.3652V16.6248C39.8783 10.6236 37.645 8.42822 31.5391 8.42822Z" fill="#C9202F"/>
<path d="M23.1897 25.326H24.3784L23.7822 23.9631L23.1897 25.326ZM22.8971 26.0129L22.5445 26.8059H21.7417L23.449 22.9993H24.1426L25.843 26.8059H25.0187L24.6705 26.0129H22.8971ZM35.8148 26.8035H36.5908V22.9993H35.8148V26.8035ZM32.7269 25.1686H34.1568V24.4756H32.7269V23.6957H34.8027V23.0017H31.9513V26.8056H34.8776V26.1119H32.7269V25.1686ZM29.6441 25.6182L28.7642 22.999H28.1228L27.2429 25.6182L26.3868 23.0008H25.55L26.9007 26.8078H27.5515L28.4326 24.3072L29.3134 26.8078H29.9701L31.3173 23.0008H30.5021L29.6441 25.6182ZM20.5574 25.1794C20.5574 25.7985 20.2445 26.1294 19.6763 26.1294C19.105 26.1294 18.7905 25.7893 18.7905 25.153V23.0014H18.0043V25.1794C18.0043 26.2509 18.6099 26.8651 19.6657 26.8651C20.7318 26.8651 21.3433 26.2392 21.3433 25.1478V22.999H20.5574V25.1794ZM16.1282 22.9993H16.9142V26.8081H16.1282V25.2613H14.3527V26.8081H13.5664V22.9993H14.3527V24.5357H16.1282V22.9993Z" fill="white"/>
<path d="M25.0684 18.1519C22.3481 18.1519 20.1348 15.9764 20.1348 13.3022H20.8318C20.8318 15.5986 22.7322 17.4665 25.0684 17.4665C27.4047 17.4665 29.3051 15.5986 29.3051 13.3022H30.0021C30.0021 15.9764 27.7887 18.1519 25.0684 18.1519Z" fill="white"/>
</g>
</g>
<defs>
<filter id="filter0_ddd_15_554" x="-14" y="-11" width="183.61" height="75" filterUnits="userSpaceOnUse" color-interpolation-filters="sRGB">
<feFlood flood-opacity="0" result="BackgroundImageFix"/>
<feColorMatrix in="SourceAlpha" type="matrix" values="0 0 0 0 0 0 0 0 0 0 0 0 0 0 0 0 0 0 127 0" result="hardAlpha"/>
<feOffset dy="5"/>
<feGaussianBlur stdDeviation="2.5"/>
<feColorMatrix type="matrix" values="0 0 0 0 0.364706 0 0 0 0 0.447059 0 0 0 0 0.54902 0 0 0 0.16 0"/>
<feBlend mode="normal" in2="BackgroundImageFix" result="effect1_dropShadow_15_554"/>
<feColorMatrix in="SourceAlpha" type="matrix" values="0 0 0 0 0 0 0 0 0 0 0 0 0 0 0 0 0 0 127 0" result="hardAlpha"/>
<feOffset dy="3"/>
<feGaussianBlur stdDeviation="7"/>
<feColorMatrix type="matrix" values="0 0 0 0 0.364706 0 0 0 0 0.447059 0 0 0 0 0.54902 0 0 0 0.08 0"/>
<feBlend mode="normal" in2="effect1_dropShadow_15_554" result="effect2_dropShadow_15_554"/>
<feColorMatrix in="SourceAlpha" type="matrix" values="0 0 0 0 0 0 0 0 0 0 0 0 0 0 0 0 0 0 127 0" result="hardAlpha"/>
<feOffset dy="8"/>
<feGaussianBlur stdDeviation="5"/>
<feColorMatrix type="matrix" values="0 0 0 0 0.364706 0 0 0 0 0.447059 0 0 0 0 0.54902 0 0 0 0.1 0"/>
<feBlend mode="normal" in2="effect2_dropShadow_15_554" result="effect3_dropShadow_15_554"/>
<feBlend mode="normal" in="SourceGraphic" in2="effect3_dropShadow_15_554" result="shape"/>
</filter>
</defs>
</svg>
