<svg width="16" height="16" viewBox="0 0 16 16" fill="none" xmlns="http://www.w3.org/2000/svg">
<path fill-rule="evenodd" clip-rule="evenodd" d="M11.7242 8.6667H3.33366C2.96547 8.6667 2.66699 8.36822 2.66699 8.00003C2.66699 7.63184 2.96547 7.33336 3.33366 7.33336H11.7242L8.00033 3.60951C7.73998 3.34916 7.73998 2.92705 8.00033 2.6667C8.26067 2.40635 8.68278 2.40635 8.94313 2.6667L14.2765 8.00003L8.94313 13.3334C8.68278 13.5937 8.26067 13.5937 8.00033 13.3334C7.73998 13.073 7.73998 12.6509 8.00033 12.3906L11.7242 8.6667Z" fill="#93A5B1"/>
<mask id="mask0_1138_8806" style="mask-type:luminance" maskUnits="userSpaceOnUse" x="2" y="2" width="13" height="12">
<path fill-rule="evenodd" clip-rule="evenodd" d="M11.7242 8.6667H3.33366C2.96547 8.6667 2.66699 8.36822 2.66699 8.00003C2.66699 7.63184 2.96547 7.33336 3.33366 7.33336H11.7242L8.00033 3.60951C7.73998 3.34916 7.73998 2.92705 8.00033 2.6667C8.26067 2.40635 8.68278 2.40635 8.94313 2.6667L14.2765 8.00003L8.94313 13.3334C8.68278 13.5937 8.26067 13.5937 8.00033 13.3334C7.73998 13.073 7.73998 12.6509 8.00033 12.3906L11.7242 8.6667Z" fill="white"/>
</mask>
<g mask="url(#mask0_1138_8806)">
</g>
</svg>
