<svg width="736" height="568" viewBox="0 0 736 568" fill="none" xmlns="http://www.w3.org/2000/svg">
<path d="M484.172 259.168C486.566 259.168 488.204 257.6 488.204 255.276C488.204 253.176 486.804 251.846 484.788 251.846C484.158 251.846 483.584 251.986 483.136 252.252L483.542 250.74H487.546V248.64H481.918L480.616 254.198L482.688 254.59C482.94 254.086 483.57 253.722 484.27 253.722C485.292 253.722 485.88 254.352 485.88 255.416C485.88 256.508 485.25 257.166 484.228 257.166C483.276 257.166 482.702 256.578 482.702 255.598H480.462C480.462 257.74 481.946 259.168 484.172 259.168ZM492.363 254.128C493.581 254.128 494.057 254.828 494.057 255.654C494.057 256.578 493.455 257.18 492.573 257.18C491.663 257.18 491.047 256.634 491.047 255.612H488.807C488.807 257.95 490.501 259.182 492.517 259.182C494.617 259.182 496.381 257.852 496.381 255.668C496.381 253.904 495.247 252.784 493.847 252.364L496.031 250.446V248.64H489.283V250.628H493.189L490.935 252.602C490.907 252.63 490.879 252.644 490.851 252.672V254.128H492.363ZM500.772 254.128C501.99 254.128 502.466 254.828 502.466 255.654C502.466 256.578 501.864 257.18 500.982 257.18C500.072 257.18 499.456 256.634 499.456 255.612H497.216C497.216 257.95 498.91 259.182 500.926 259.182C503.026 259.182 504.79 257.852 504.79 255.668C504.79 253.904 503.656 252.784 502.256 252.364L504.44 250.446V248.64H497.692V250.628H501.598L499.344 252.602C499.316 252.63 499.288 252.644 499.26 252.672V254.128H500.772ZM514.351 259.168C516.941 259.168 518.873 257.642 519.237 255.332H516.885C516.605 256.354 515.667 256.984 514.393 256.984C512.727 256.984 511.691 255.766 511.691 253.82C511.691 251.846 512.713 250.656 514.393 250.656C515.639 250.656 516.521 251.244 516.829 252.28H519.223C518.901 249.956 517.039 248.472 514.449 248.472C511.355 248.472 509.297 250.6 509.297 253.834C509.297 257.11 511.243 259.168 514.351 259.168Z" fill="#284B64"/>
<path d="M389.11 255.388C391.084 255.388 392.372 254.016 392.372 252.126C392.372 250.18 391.098 248.878 389.11 248.878H385.176V259H386.548V255.388H389.11ZM388.872 250.11C390.16 250.11 390.93 250.838 390.93 252.112C390.93 253.358 390.174 254.156 388.816 254.156H386.548V250.11H388.872ZM393.867 259L394.763 256.48H399.019L399.929 259H401.371L397.661 248.878H396.135L392.439 259H393.867ZM396.723 251.062C396.793 250.852 396.863 250.614 396.891 250.474C396.919 250.628 396.989 250.866 397.059 251.062L398.613 255.29H395.183L396.723 251.062ZM404.089 259V251.174L409.269 259H410.641V248.878H409.269V256.704L404.089 248.878H402.717V259H404.089ZM412.018 250.138H415.07V259H416.442V250.138H419.48V248.878H412.018V250.138ZM429.605 253.932C429.605 250.852 427.603 248.696 424.733 248.696C421.877 248.696 419.875 250.866 419.875 253.932C419.875 257.012 421.863 259.168 424.719 259.168C427.589 259.168 429.605 257.012 429.605 253.932ZM428.163 253.932C428.163 256.27 426.791 257.852 424.733 257.852C422.675 257.852 421.317 256.284 421.317 253.932C421.317 251.58 422.675 250.026 424.733 250.026C426.791 250.026 428.163 251.58 428.163 253.932ZM432.732 259V251.174L437.912 259H439.284V248.878H437.912V256.704L432.732 248.878H431.36V259H432.732ZM447.815 259V257.726H443.013V254.52H447.339V253.302H443.013V250.138H447.815V248.878H441.641V259H447.815Z" fill="#284B64"/>
<g clip-path="url(#clip0_1203_16909)">
<path d="M352 0H0V98H352V0Z" fill="#1A938A"/>
<path opacity="0.9" d="M71 98H0V140H71V98Z" fill="#1A938A"/>
<path opacity="0.8" d="M141 98H71V140H141V98Z" fill="#1A938A"/>
<path opacity="0.7" d="M211 98H141V140H211V98Z" fill="#1A938A"/>
<path opacity="0.5" d="M352 98H281V140H352V98Z" fill="#1A938A"/>
<path opacity="0.6" d="M281 98H211V140H281V98Z" fill="#1A938A"/>
</g>
<path d="M96.938 179.52L96.518 181.536H97.778L97.302 184H99.444L99.92 181.536H101.306L100.83 184H102.972L103.448 181.536H105.058L105.464 179.52H103.84L104.12 178.134H105.506L105.926 176.118H104.512L104.988 173.64H102.846L102.37 176.118H100.984L101.474 173.64H99.332L98.842 176.118H97.442L97.022 178.134H98.45L98.184 179.52H96.938ZM100.326 179.52L100.592 178.134H101.978L101.698 179.52H100.326ZM109.273 175.67V184H111.443V173.64H106.921V175.67H109.273ZM115.049 184L115.791 181.816H119.137L119.865 184H122.273L118.591 173.64H116.379L112.683 184H115.049ZM117.191 177.7C117.317 177.322 117.429 176.93 117.471 176.692C117.513 176.944 117.639 177.35 117.751 177.7L118.493 179.912H116.449L117.191 177.7ZM129.078 181.214C130.338 179.492 130.8 178.554 130.8 177.28C130.8 175.11 129.106 173.458 126.782 173.458C124.486 173.458 122.82 174.998 122.82 177.266C122.82 179.394 124.276 180.864 126.404 180.864C126.544 180.864 126.684 180.85 126.824 180.822L124.458 184H127.048L129.078 181.214ZM128.476 177.252C128.476 178.316 127.804 179.03 126.782 179.03C125.788 179.03 125.116 178.316 125.116 177.252C125.116 176.188 125.802 175.46 126.782 175.46C127.79 175.46 128.476 176.188 128.476 177.252ZM134.75 179.128C135.968 179.128 136.444 179.828 136.444 180.654C136.444 181.578 135.842 182.18 134.96 182.18C134.05 182.18 133.434 181.634 133.434 180.612H131.194C131.194 182.95 132.888 184.182 134.904 184.182C137.004 184.182 138.768 182.852 138.768 180.668C138.768 178.904 137.634 177.784 136.234 177.364L138.418 175.446V173.64H131.67V175.628H135.576L133.322 177.602C133.294 177.63 133.266 177.644 133.238 177.672V179.128H134.75ZM139.57 181.004C139.57 182.95 141.152 184.168 143.672 184.168C146.192 184.168 147.788 182.936 147.788 180.99C147.788 179.786 147.13 178.806 146.094 178.414C146.948 178.036 147.41 177.294 147.41 176.328C147.41 174.592 145.926 173.444 143.7 173.444C141.474 173.444 139.948 174.606 139.948 176.3C139.948 177.266 140.396 177.994 141.222 178.4C140.214 178.806 139.57 179.8 139.57 181.004ZM141.992 176.524C141.992 175.81 142.636 175.362 143.658 175.362C144.68 175.362 145.324 175.81 145.324 176.524C145.324 177.224 144.68 177.658 143.658 177.658C142.636 177.658 141.992 177.224 141.992 176.524ZM141.796 180.85C141.796 180.01 142.51 179.506 143.672 179.506C144.834 179.506 145.548 180.01 145.548 180.85C145.548 181.69 144.848 182.18 143.672 182.18C142.496 182.18 141.796 181.69 141.796 180.85ZM150.787 184L151.529 181.816H154.875L155.603 184H158.011L154.329 173.64H152.117L148.421 184H150.787ZM152.929 177.7C153.055 177.322 153.167 176.93 153.209 176.692C153.251 176.944 153.377 177.35 153.489 177.7L154.231 179.912H152.187L152.929 177.7Z" fill="#284B64"/>
<path d="M2.548 184V179.506H7.56V184H8.932V173.878H7.56V178.232H2.548V173.878H1.176V184H2.548ZM17.4535 184V182.726H12.6515V179.52H16.9775V178.302H12.6515V175.138H17.4535V173.878H11.2795V184H17.4535ZM21.9616 178.946L18.4896 184H20.0996L22.8156 179.996C23.1516 180.584 23.5296 181.2 23.9216 181.774L25.4756 184H27.0996L23.6696 178.932L27.0576 173.878H25.4756L22.8016 177.91C22.5076 177.35 22.1716 176.79 21.7236 176.132L20.1416 173.878H18.5036L21.9616 178.946Z" fill="#284B64"/>
<path d="M96.07 248.64V250.74H101.474L97.834 259H100.186L103.756 250.74V248.64H96.07ZM104.588 248.64V250.74H109.992L106.352 259H108.704L112.274 250.74V248.64H104.588ZM115.439 250.67V259H117.609V248.64H113.087V250.67H115.439ZM118.793 248.64V250.74H124.197L120.557 259H122.909L126.479 250.74V248.64H118.793ZM135.806 259.168C138.396 259.168 140.328 257.642 140.692 255.332H138.34C138.06 256.354 137.122 256.984 135.848 256.984C134.182 256.984 133.146 255.766 133.146 253.82C133.146 251.846 134.168 250.656 135.848 250.656C137.094 250.656 137.976 251.244 138.284 252.28H140.678C140.356 249.956 138.494 248.472 135.904 248.472C132.81 248.472 130.752 250.6 130.752 253.834C130.752 257.11 132.698 259.168 135.806 259.168Z" fill="#284B64"/>
<path d="M5.11 255.388C7.084 255.388 8.372 254.016 8.372 252.126C8.372 250.18 7.098 248.878 5.11 248.878H1.176V259H2.548V255.388H5.11ZM4.872 250.11C6.16 250.11 6.93 250.838 6.93 252.112C6.93 253.358 6.174 254.156 4.816 254.156H2.548V250.11H4.872ZM9.86748 259L10.7635 256.48H15.0195L15.9295 259H17.3715L13.6615 248.878H12.1355L8.43948 259H9.86748ZM12.7235 251.062C12.7935 250.852 12.8635 250.614 12.8915 250.474C12.9195 250.628 12.9895 250.866 13.0595 251.062L14.6135 255.29H11.1835L12.7235 251.062ZM20.089 259V251.174L25.269 259H26.641V248.878H25.269V256.704L20.089 248.878H18.717V259H20.089ZM28.0183 250.138H31.0703V259H32.4423V250.138H35.4803V248.878H28.0183V250.138ZM45.6048 253.932C45.6048 250.852 43.6028 248.696 40.7328 248.696C37.8768 248.696 35.8748 250.866 35.8748 253.932C35.8748 257.012 37.8628 259.168 40.7188 259.168C43.5888 259.168 45.6048 257.012 45.6048 253.932ZM44.1628 253.932C44.1628 256.27 42.7908 257.852 40.7328 257.852C38.6748 257.852 37.3168 256.284 37.3168 253.932C37.3168 251.58 38.6748 250.026 40.7328 250.026C42.7908 250.026 44.1628 251.58 44.1628 253.932ZM48.7316 259V251.174L53.9116 259H55.2836V248.878H53.9116V256.704L48.7316 248.878H47.3596V259H48.7316ZM63.8148 259V257.726H59.0128V254.52H63.3388V253.302H59.0128V250.138H63.8148V248.878H57.6408V259H63.8148Z" fill="#284B64"/>
<path d="M104.05 233.972V231.872H100.27L101.824 230.57C103.112 229.492 103.966 228.344 103.966 226.93C103.966 224.718 102.552 223.444 100.186 223.444C97.904 223.444 96.42 224.956 96.42 227.28H98.674C98.674 226.118 99.234 225.46 100.2 225.46C101.124 225.46 101.642 226.02 101.642 227.07C101.642 227.924 101.18 228.568 100.074 229.478L96.658 232.32V234L104.05 233.972ZM106.619 226.426C105.359 228.148 104.897 229.086 104.897 230.36C104.897 232.53 106.591 234.182 108.915 234.182C111.211 234.182 112.877 232.642 112.877 230.374C112.877 228.246 111.421 226.776 109.293 226.776C109.153 226.776 109.013 226.79 108.873 226.818L111.239 223.64H108.649L106.619 226.426ZM107.221 230.388C107.221 229.324 107.893 228.61 108.915 228.61C109.909 228.61 110.581 229.324 110.581 230.388C110.581 231.452 109.895 232.18 108.915 232.18C107.907 232.18 107.221 231.452 107.221 230.388ZM119.142 234L123.188 223.668H121.032L117 234H119.142ZM129.726 225.67V234H131.896V223.64H127.374V225.67H129.726ZM141.858 232.166V230.178H140.584V223.64H137.756L133.29 230.178V232.166H138.442V234H140.584V232.166H141.858ZM135.698 230.178L138.442 226.146V230.178H135.698ZM141.652 223.64V225.74H147.056L143.416 234H145.768L149.338 225.74V223.64H141.652ZM155.249 234L159.295 223.668H157.139L153.107 234H155.249ZM165.834 225.67V234H168.004V223.64H163.482V225.67H165.834ZM172.785 229.128C174.003 229.128 174.479 229.828 174.479 230.654C174.479 231.578 173.877 232.18 172.995 232.18C172.085 232.18 171.469 231.634 171.469 230.612H169.229C169.229 232.95 170.923 234.182 172.939 234.182C175.039 234.182 176.803 232.852 176.803 230.668C176.803 228.904 175.669 227.784 174.269 227.364L176.453 225.446V223.64H169.705V225.628H173.611L171.357 227.602C171.329 227.63 171.301 227.644 171.273 227.672V229.128H172.785ZM177.606 231.004C177.606 232.95 179.188 234.168 181.708 234.168C184.228 234.168 185.824 232.936 185.824 230.99C185.824 229.786 185.166 228.806 184.13 228.414C184.984 228.036 185.446 227.294 185.446 226.328C185.446 224.592 183.962 223.444 181.736 223.444C179.51 223.444 177.984 224.606 177.984 226.3C177.984 227.266 178.432 227.994 179.258 228.4C178.25 228.806 177.606 229.8 177.606 231.004ZM180.028 226.524C180.028 225.81 180.672 225.362 181.694 225.362C182.716 225.362 183.36 225.81 183.36 226.524C183.36 227.224 182.716 227.658 181.694 227.658C180.672 227.658 180.028 227.224 180.028 226.524ZM179.832 230.85C179.832 230.01 180.546 229.506 181.708 229.506C182.87 229.506 183.584 230.01 183.584 230.85C183.584 231.69 182.884 232.18 181.708 232.18C180.532 232.18 179.832 231.69 179.832 230.85Z" fill="#284B64"/>
<path d="M2.548 234V229.996H5.138L7.028 234H8.554L6.496 229.73C7.756 229.324 8.456 228.316 8.456 226.916C8.456 225.026 7.168 223.878 4.998 223.878H1.176V234H2.548ZM2.548 225.11H4.998C6.258 225.11 7.014 225.754 7.014 226.93C7.014 228.092 6.286 228.778 5.012 228.778H2.548V225.11ZM14.6351 224.998C15.9791 224.998 17.0991 225.642 17.4771 226.93H18.9331C18.5971 224.984 16.8751 223.71 14.6631 223.71C11.6811 223.71 9.69314 225.894 9.69314 228.974C9.69314 232.096 11.6671 234.168 14.5371 234.168C16.0211 234.168 17.2531 233.524 17.7991 232.642L17.8971 234.014H19.0451V228.428H14.3691V229.646H17.7571V229.94C17.7571 231.984 16.3711 232.866 14.6491 232.866C12.5631 232.866 11.1351 231.452 11.1351 229.002C11.1351 226.608 12.4511 224.998 14.6351 224.998ZM21.0002 234H25.0042C27.0062 234 28.2242 232.978 28.2242 231.298C28.2242 230.094 27.6502 229.282 26.5302 228.918C27.5382 228.498 28.0422 227.714 28.0422 226.552C28.0422 224.886 26.8382 223.878 24.8642 223.878H21.0002V234ZM24.7802 225.096C25.9702 225.096 26.6422 225.67 26.6422 226.678C26.6422 227.728 25.9982 228.344 24.8642 228.344H22.3722V225.096H24.7802ZM24.9762 229.534C26.1382 229.534 26.8102 230.122 26.8102 231.13C26.8102 232.18 26.1522 232.782 24.9762 232.782H22.3722V229.534H24.9762Z" fill="#284B64"/>
<path d="M96.504 206.004C96.504 207.95 98.086 209.168 100.606 209.168C103.126 209.168 104.722 207.936 104.722 205.99C104.722 204.786 104.064 203.806 103.028 203.414C103.882 203.036 104.344 202.294 104.344 201.328C104.344 199.592 102.86 198.444 100.634 198.444C98.408 198.444 96.882 199.606 96.882 201.3C96.882 202.266 97.33 202.994 98.156 203.4C97.148 203.806 96.504 204.8 96.504 206.004ZM98.926 201.524C98.926 200.81 99.57 200.362 100.592 200.362C101.614 200.362 102.258 200.81 102.258 201.524C102.258 202.224 101.614 202.658 100.592 202.658C99.57 202.658 98.926 202.224 98.926 201.524ZM98.73 205.85C98.73 205.01 99.444 204.506 100.606 204.506C101.768 204.506 102.482 205.01 102.482 205.85C102.482 206.69 101.782 207.18 100.606 207.18C99.43 207.18 98.73 206.69 98.73 205.85ZM105.162 198.64V200.74H110.566L106.926 209H109.278L112.848 200.74V198.64H105.162ZM118.876 201.258C118.876 199.606 117.714 198.444 116.076 198.444C114.438 198.444 113.276 199.606 113.276 201.258C113.276 202.91 114.438 204.072 116.076 204.072C117.714 204.072 118.876 202.91 118.876 201.258ZM124.812 198.668H122.698L114.83 209H116.944L124.812 198.668ZM117.196 201.258C117.196 201.958 116.748 202.448 116.076 202.448C115.404 202.448 114.956 201.958 114.956 201.258C114.956 200.558 115.404 200.068 116.076 200.068C116.748 200.068 117.196 200.558 117.196 201.258ZM126.394 206.368C126.394 204.716 125.232 203.554 123.594 203.554C121.956 203.554 120.794 204.716 120.794 206.368C120.794 208.02 121.956 209.182 123.594 209.182C125.232 209.182 126.394 208.02 126.394 206.368ZM124.714 206.368C124.714 207.068 124.266 207.558 123.594 207.558C122.922 207.558 122.474 207.068 122.474 206.368C122.474 205.668 122.922 205.178 123.594 205.178C124.266 205.178 124.714 205.668 124.714 206.368ZM132.105 210.26H133.757V197.968H132.105V210.26ZM147.144 208.972V206.872H143.364L144.918 205.57C146.206 204.492 147.06 203.344 147.06 201.93C147.06 199.718 145.646 198.444 143.28 198.444C140.998 198.444 139.514 199.956 139.514 202.28H141.768C141.768 201.118 142.328 200.46 143.294 200.46C144.218 200.46 144.736 201.02 144.736 202.07C144.736 202.924 144.274 203.568 143.168 204.478L139.752 207.32V209L147.144 208.972ZM155.757 208.972V206.872H151.977L153.531 205.57C154.819 204.492 155.673 203.344 155.673 201.93C155.673 199.718 154.259 198.444 151.893 198.444C149.611 198.444 148.127 199.956 148.127 202.28H150.381C150.381 201.118 150.941 200.46 151.907 200.46C152.831 200.46 153.349 201.02 153.349 202.07C153.349 202.924 152.887 203.568 151.781 204.478L148.365 207.32V209L155.757 208.972ZM162.148 201.258C162.148 199.606 160.986 198.444 159.348 198.444C157.71 198.444 156.548 199.606 156.548 201.258C156.548 202.91 157.71 204.072 159.348 204.072C160.986 204.072 162.148 202.91 162.148 201.258ZM168.084 198.668H165.97L158.102 209H160.216L168.084 198.668ZM160.468 201.258C160.468 201.958 160.02 202.448 159.348 202.448C158.676 202.448 158.228 201.958 158.228 201.258C158.228 200.558 158.676 200.068 159.348 200.068C160.02 200.068 160.468 200.558 160.468 201.258ZM169.666 206.368C169.666 204.716 168.504 203.554 166.866 203.554C165.228 203.554 164.066 204.716 164.066 206.368C164.066 208.02 165.228 209.182 166.866 209.182C168.504 209.182 169.666 208.02 169.666 206.368ZM167.986 206.368C167.986 207.068 167.538 207.558 166.866 207.558C166.194 207.558 165.746 207.068 165.746 206.368C165.746 205.668 166.194 205.178 166.866 205.178C167.538 205.178 167.986 205.668 167.986 206.368ZM175.376 210.26H177.028V197.968H175.376V210.26ZM186.537 209.168C188.931 209.168 190.569 207.6 190.569 205.276C190.569 203.176 189.169 201.846 187.153 201.846C186.523 201.846 185.949 201.986 185.501 202.252L185.907 200.74H189.911V198.64H184.283L182.981 204.198L185.053 204.59C185.305 204.086 185.935 203.722 186.635 203.722C187.657 203.722 188.245 204.352 188.245 205.416C188.245 206.508 187.615 207.166 186.593 207.166C185.641 207.166 185.067 206.578 185.067 205.598H182.827C182.827 207.74 184.311 209.168 186.537 209.168ZM191.428 203.848C191.428 207.054 193.108 209.182 195.95 209.182C198.792 209.182 200.472 207.054 200.472 203.848C200.472 200.642 198.652 198.444 195.95 198.444C193.248 198.444 191.428 200.642 191.428 203.848ZM193.668 203.848C193.668 201.552 194.508 200.432 195.95 200.432C197.392 200.432 198.232 201.552 198.232 203.848C198.232 206.074 197.392 207.194 195.95 207.194C194.508 207.194 193.668 206.074 193.668 203.848ZM206.937 201.258C206.937 199.606 205.775 198.444 204.137 198.444C202.499 198.444 201.337 199.606 201.337 201.258C201.337 202.91 202.499 204.072 204.137 204.072C205.775 204.072 206.937 202.91 206.937 201.258ZM212.873 198.668H210.759L202.891 209H205.005L212.873 198.668ZM205.257 201.258C205.257 201.958 204.809 202.448 204.137 202.448C203.465 202.448 203.017 201.958 203.017 201.258C203.017 200.558 203.465 200.068 204.137 200.068C204.809 200.068 205.257 200.558 205.257 201.258ZM214.455 206.368C214.455 204.716 213.293 203.554 211.655 203.554C210.017 203.554 208.855 204.716 208.855 206.368C208.855 208.02 210.017 209.182 211.655 209.182C213.293 209.182 214.455 208.02 214.455 206.368ZM212.775 206.368C212.775 207.068 212.327 207.558 211.655 207.558C210.983 207.558 210.535 207.068 210.535 206.368C210.535 205.668 210.983 205.178 211.655 205.178C212.327 205.178 212.775 205.668 212.775 206.368ZM220.165 210.26H221.817V197.968H220.165V210.26ZM230.822 204.128C232.04 204.128 232.516 204.828 232.516 205.654C232.516 206.578 231.914 207.18 231.032 207.18C230.122 207.18 229.506 206.634 229.506 205.612H227.266C227.266 207.95 228.96 209.182 230.976 209.182C233.076 209.182 234.84 207.852 234.84 205.668C234.84 203.904 233.706 202.784 232.306 202.364L234.49 200.446V198.64H227.742V200.628H231.648L229.394 202.602C229.366 202.63 229.338 202.644 229.31 202.672V204.128H230.822ZM241.103 201.258C241.103 199.606 239.941 198.444 238.303 198.444C236.665 198.444 235.503 199.606 235.503 201.258C235.503 202.91 236.665 204.072 238.303 204.072C239.941 204.072 241.103 202.91 241.103 201.258ZM247.039 198.668H244.925L237.057 209H239.171L247.039 198.668ZM239.423 201.258C239.423 201.958 238.975 202.448 238.303 202.448C237.631 202.448 237.183 201.958 237.183 201.258C237.183 200.558 237.631 200.068 238.303 200.068C238.975 200.068 239.423 200.558 239.423 201.258ZM248.621 206.368C248.621 204.716 247.459 203.554 245.821 203.554C244.183 203.554 243.021 204.716 243.021 206.368C243.021 208.02 244.183 209.182 245.821 209.182C247.459 209.182 248.621 208.02 248.621 206.368ZM246.941 206.368C246.941 207.068 246.493 207.558 245.821 207.558C245.149 207.558 244.701 207.068 244.701 206.368C244.701 205.668 245.149 205.178 245.821 205.178C246.493 205.178 246.941 205.668 246.941 206.368Z" fill="#284B64"/>
<path d="M5.376 209.154C7.658 209.154 9.464 207.81 9.898 205.794H8.442C8.064 207.04 6.888 207.838 5.404 207.838C3.36 207.838 2.016 206.298 2.016 203.932C2.016 201.566 3.36 200.026 5.404 200.026C6.874 200.026 8.008 200.824 8.386 202.14H9.856C9.478 200.068 7.728 198.71 5.446 198.71C2.548 198.71 0.574 200.824 0.574 203.946C0.574 207.082 2.492 209.154 5.376 209.154ZM12.9243 209V204.674C12.9243 203.26 12.8963 202.224 12.8263 201.734L15.7663 209H17.0543L20.0083 201.706C19.9383 202.42 19.9243 203.106 19.9243 204.996V209H21.2683V198.878H19.8963L16.4103 207.39L12.9243 198.878H11.5803V209H12.9243ZM26.0192 204.884V209H27.3912V204.884L30.7932 198.878H29.2952L27.0552 202.924C26.8732 203.26 26.8452 203.344 26.7192 203.596C26.6072 203.358 26.5232 203.162 26.3832 202.924L24.1292 198.878H22.5892L26.0192 204.884ZM33.4875 198.878H32.1155V209H33.4875V206.676L35.3355 204.338L38.0935 209H39.6895L36.2455 203.176L39.6335 198.878H37.9955L33.4875 204.618V198.878Z" fill="#284B64"/>
<path d="M155.439 50.2C156.825 50.2 158.049 50.812 158.391 52.216H161.451C161.145 49.336 158.697 47.464 155.511 47.464C151.389 47.464 148.707 50.362 148.707 54.376C148.707 58.462 151.317 61.198 155.043 61.198C156.627 61.198 158.067 60.64 158.787 59.794L158.949 61H161.451V53.35H155.187V55.906H158.715C158.589 57.292 157.617 58.48 155.421 58.48C153.297 58.48 151.785 57.148 151.785 54.466C151.785 51.892 153.027 50.2 155.439 50.2ZM167.693 61.234C170.159 61.234 171.941 59.956 172.265 57.958H169.727C169.529 58.606 168.791 58.984 167.747 58.984C166.523 58.984 165.857 58.426 165.695 57.238L172.229 57.202V56.5C172.229 53.566 170.465 51.712 167.639 51.712C164.921 51.712 163.031 53.674 163.031 56.482C163.031 59.254 164.975 61.234 167.693 61.234ZM167.657 53.962C168.773 53.962 169.475 54.574 169.475 55.528H165.731C165.947 54.448 166.559 53.962 167.657 53.962ZM176.642 61V56.068C176.642 54.952 177.344 54.232 178.442 54.232C179.396 54.232 180.026 54.97 180.026 56.104V61H182.798V55.438C182.798 53.08 181.556 51.712 179.414 51.712C178.244 51.712 177.218 52.162 176.66 52.936L176.48 52H173.87V61H176.642ZM184.3 56.482C184.3 59.326 186.388 61.216 189.268 61.216C192.13 61.216 194.218 59.326 194.218 56.482C194.218 53.638 192.13 51.73 189.268 51.73C186.388 51.73 184.3 53.638 184.3 56.482ZM187.09 56.464C187.09 55.114 187.972 54.214 189.268 54.214C190.546 54.214 191.428 55.114 191.428 56.464C191.428 57.832 190.546 58.732 189.268 58.732C187.972 58.732 187.09 57.832 187.09 56.464ZM198.543 61.234C199.893 61.234 201.081 60.64 201.369 59.812L201.549 61H203.997V55.744C203.997 53.17 202.521 51.712 199.911 51.712C197.337 51.712 195.663 53.044 195.663 55.078H197.967C197.967 54.268 198.597 53.818 199.767 53.818C200.757 53.818 201.297 54.286 201.297 55.168V55.312L198.777 55.51C196.617 55.672 195.447 56.698 195.447 58.354C195.447 60.118 196.635 61.234 198.543 61.234ZM199.515 59.182C198.669 59.182 198.273 58.876 198.273 58.228C198.273 57.652 198.705 57.382 199.911 57.274L201.315 57.148V57.634C201.315 58.66 200.577 59.182 199.515 59.182Z" fill="white"/>
<g clip-path="url(#clip1_1203_16909)">
<path d="M736 304H384V402H736V304Z" fill="#BEC9D0"/>
<path opacity="0.9" d="M455 402H384V444H455V402Z" fill="#BEC9D0"/>
<path opacity="0.8" d="M525 402H455V444H525V402Z" fill="#BEC9D0"/>
<path opacity="0.7" d="M595 402H525V444H595V402Z" fill="#BEC9D0"/>
<path opacity="0.5" d="M736 402H665V444H736V402Z" fill="#BEC9D0"/>
<path opacity="0.6" d="M665 402H595V444H665V402Z" fill="#BEC9D0"/>
</g>
<path d="M527.614 365V361.274C527.614 359.816 527.596 358.7 527.434 357.71L530.242 365H532.906L535.732 357.71C535.588 358.7 535.588 359.33 535.588 362.21V365H538.414V351.68H535.552L531.574 361.616L527.614 351.68H524.788V365H527.614ZM545.023 365.234C547.489 365.234 549.271 363.956 549.595 361.958H547.057C546.859 362.606 546.121 362.984 545.077 362.984C543.853 362.984 543.187 362.426 543.025 361.238L549.559 361.202V360.5C549.559 357.566 547.795 355.712 544.969 355.712C542.251 355.712 540.361 357.674 540.361 360.482C540.361 363.254 542.305 365.234 545.023 365.234ZM544.987 357.962C546.103 357.962 546.805 358.574 546.805 359.528H543.061C543.277 358.448 543.889 357.962 544.987 357.962ZM557.392 356C557.014 355.91 556.654 355.874 556.33 355.874C555.124 355.874 554.332 356.468 553.954 357.35L553.81 356.018H551.2V365H553.972V361.094C553.972 359.312 554.926 358.61 556.51 358.61H557.392V356ZM558.044 360.464C558.044 363.344 559.88 365.234 562.724 365.234C565.244 365.234 567.08 363.686 567.26 361.418H564.47C564.29 362.3 563.696 362.75 562.724 362.75C561.536 362.75 560.834 361.904 560.834 360.464C560.834 359.078 561.59 358.196 562.76 358.196C563.714 358.196 564.272 358.628 564.47 359.528H567.26C567.08 357.17 565.316 355.712 562.652 355.712C559.952 355.712 558.044 357.692 558.044 360.464ZM574.754 356V360.68C574.754 362.156 574.268 362.768 573.08 362.768C571.946 362.768 571.442 362.12 571.442 360.644V356H568.67V361.652C568.67 363.866 569.93 365.234 571.982 365.234C573.062 365.234 574.178 364.73 574.736 363.992L574.916 365H577.526V356H574.754ZM585.799 356C585.421 355.91 585.061 355.874 584.737 355.874C583.531 355.874 582.739 356.468 582.361 357.35L582.217 356.018H579.607V365H582.379V361.094C582.379 359.312 583.333 358.61 584.917 358.61H585.799V356ZM586.744 369.32C587.284 369.482 587.914 369.572 588.58 369.572C590.164 369.572 591.172 368.798 591.928 366.962L596.5 356H593.62L591.442 361.778L589.48 356H586.51L590.128 365.306L589.966 365.738C589.606 366.71 589.21 366.998 588.274 366.998H586.744V369.32Z" fill="#284B64"/>
<g clip-path="url(#clip2_1203_16909)">
<path d="M352 304H0V402H352V304Z" fill="#205260"/>
<path opacity="0.9" d="M71 402H0V444H71V402Z" fill="#205260"/>
<path opacity="0.8" d="M141 402H71V444H141V402Z" fill="#205260"/>
<path opacity="0.7" d="M211 402H141V444H211V402Z" fill="#205260"/>
<path opacity="0.5" d="M352 402H281V444H352V402Z" fill="#205260"/>
<path opacity="0.6" d="M281 402H211V444H281V402Z" fill="#205260"/>
</g>
<path d="M96.938 483.52L96.518 485.536H97.778L97.302 488H99.444L99.92 485.536H101.306L100.83 488H102.972L103.448 485.536H105.058L105.464 483.52H103.84L104.12 482.134H105.506L105.926 480.118H104.512L104.988 477.64H102.846L102.37 480.118H100.984L101.474 477.64H99.332L98.842 480.118H97.442L97.022 482.134H98.45L98.184 483.52H96.938ZM100.326 483.52L100.592 482.134H101.978L101.698 483.52H100.326ZM114.495 487.972V485.872H110.715L112.269 484.57C113.557 483.492 114.411 482.344 114.411 480.93C114.411 478.718 112.997 477.444 110.631 477.444C108.349 477.444 106.865 478.956 106.865 481.28H109.119C109.119 480.118 109.679 479.46 110.645 479.46C111.569 479.46 112.087 480.02 112.087 481.07C112.087 481.924 111.625 482.568 110.519 483.478L107.103 486.32V488L114.495 487.972ZM115.426 482.848C115.426 486.054 117.106 488.182 119.948 488.182C122.79 488.182 124.47 486.054 124.47 482.848C124.47 479.642 122.65 477.444 119.948 477.444C117.246 477.444 115.426 479.642 115.426 482.848ZM117.666 482.848C117.666 480.552 118.506 479.432 119.948 479.432C121.39 479.432 122.23 480.552 122.23 482.848C122.23 485.074 121.39 486.194 119.948 486.194C118.506 486.194 117.666 485.074 117.666 482.848ZM129.143 488.168C131.537 488.168 133.175 486.6 133.175 484.276C133.175 482.176 131.775 480.846 129.759 480.846C129.129 480.846 128.555 480.986 128.107 481.252L128.513 479.74H132.517V477.64H126.889L125.587 483.198L127.659 483.59C127.911 483.086 128.541 482.722 129.241 482.722C130.263 482.722 130.851 483.352 130.851 484.416C130.851 485.508 130.221 486.166 129.199 486.166C128.247 486.166 127.673 485.578 127.673 484.598H125.433C125.433 486.74 126.917 488.168 129.143 488.168ZM141.374 487.972V485.872H137.594L139.148 484.57C140.436 483.492 141.29 482.344 141.29 480.93C141.29 478.718 139.876 477.444 137.51 477.444C135.228 477.444 133.744 478.956 133.744 481.28H135.998C135.998 480.118 136.558 479.46 137.524 479.46C138.448 479.46 138.966 480.02 138.966 481.07C138.966 481.924 138.504 482.568 137.398 483.478L133.982 486.32V488L141.374 487.972ZM143.943 480.426C142.683 482.148 142.221 483.086 142.221 484.36C142.221 486.53 143.915 488.182 146.239 488.182C148.535 488.182 150.201 486.642 150.201 484.374C150.201 482.246 148.745 480.776 146.617 480.776C146.477 480.776 146.337 480.79 146.197 480.818L148.563 477.64H145.973L143.943 480.426ZM144.545 484.388C144.545 483.324 145.217 482.61 146.239 482.61C147.233 482.61 147.905 483.324 147.905 484.388C147.905 485.452 147.219 486.18 146.239 486.18C145.231 486.18 144.545 485.452 144.545 484.388ZM151.123 482.848C151.123 486.054 152.803 488.182 155.645 488.182C158.487 488.182 160.167 486.054 160.167 482.848C160.167 479.642 158.347 477.444 155.645 477.444C152.943 477.444 151.123 479.642 151.123 482.848ZM153.363 482.848C153.363 480.552 154.203 479.432 155.645 479.432C157.087 479.432 157.927 480.552 157.927 482.848C157.927 485.074 157.087 486.194 155.645 486.194C154.203 486.194 153.363 485.074 153.363 482.848Z" fill="#284B64"/>
<path d="M2.548 488V483.506H7.56V488H8.932V477.878H7.56V482.232H2.548V477.878H1.176V488H2.548ZM17.4535 488V486.726H12.6515V483.52H16.9775V482.302H12.6515V479.138H17.4535V477.878H11.2795V488H17.4535ZM21.9616 482.946L18.4896 488H20.0996L22.8156 483.996C23.1516 484.584 23.5296 485.2 23.9216 485.774L25.4756 488H27.0996L23.6696 482.932L27.0576 477.878H25.4756L22.8016 481.91C22.5076 481.35 22.1716 480.79 21.7236 480.132L20.1416 477.878H18.5036L21.9616 482.946Z" fill="#284B64"/>
<path d="M100.172 563.168C102.566 563.168 104.204 561.6 104.204 559.276C104.204 557.176 102.804 555.846 100.788 555.846C100.158 555.846 99.584 555.986 99.136 556.252L99.542 554.74H103.546V552.64H97.918L96.616 558.198L98.688 558.59C98.94 558.086 99.57 557.722 100.27 557.722C101.292 557.722 101.88 558.352 101.88 559.416C101.88 560.508 101.25 561.166 100.228 561.166C99.276 561.166 98.702 560.578 98.702 559.598H96.462C96.462 561.74 97.946 563.168 100.172 563.168ZM113.407 561.166V559.178H112.133V552.64H109.305L104.839 559.178V561.166H109.991V563H112.133V561.166H113.407ZM107.247 559.178L109.991 555.146V559.178H107.247ZM113.201 552.64V554.74H118.605L114.965 563H117.317L120.887 554.74V552.64H113.201ZM124.756 558.128C125.974 558.128 126.45 558.828 126.45 559.654C126.45 560.578 125.848 561.18 124.966 561.18C124.056 561.18 123.44 560.634 123.44 559.612H121.2C121.2 561.95 122.894 563.182 124.91 563.182C127.01 563.182 128.774 561.852 128.774 559.668C128.774 557.904 127.64 556.784 126.24 556.364L128.424 554.446V552.64H121.676V554.628H125.582L123.328 556.602C123.3 556.63 123.272 556.644 123.244 556.672V558.128H124.756ZM138.335 563.168C140.925 563.168 142.857 561.642 143.221 559.332H140.869C140.589 560.354 139.651 560.984 138.377 560.984C136.711 560.984 135.675 559.766 135.675 557.82C135.675 555.846 136.697 554.656 138.377 554.656C139.623 554.656 140.505 555.244 140.813 556.28H143.207C142.885 553.956 141.023 552.472 138.433 552.472C135.339 552.472 133.281 554.6 133.281 557.834C133.281 561.11 135.227 563.168 138.335 563.168ZM150.291 563.182C151.341 563.182 152.265 562.72 152.489 562.076L152.629 563H154.533V558.912C154.533 556.91 153.385 555.776 151.355 555.776C149.353 555.776 148.051 556.812 148.051 558.394H149.843C149.843 557.764 150.333 557.414 151.243 557.414C152.013 557.414 152.433 557.778 152.433 558.464V558.576L150.473 558.73C148.793 558.856 147.883 559.654 147.883 560.942C147.883 562.314 148.807 563.182 150.291 563.182ZM151.047 561.586C150.389 561.586 150.081 561.348 150.081 560.844C150.081 560.396 150.417 560.186 151.355 560.102L152.447 560.004V560.382C152.447 561.18 151.873 561.586 151.047 561.586ZM156.08 566.36H158.236V562.3C158.642 562.832 159.538 563.196 160.504 563.196C162.59 563.196 163.794 561.6 163.794 559.388C163.794 557.134 162.436 555.776 160.49 555.776C159.496 555.776 158.614 556.21 158.222 556.854L158.11 556H156.08V566.36ZM158.25 559.5C158.25 558.45 158.95 557.75 159.958 557.75C160.98 557.75 161.624 558.464 161.624 559.5C161.624 560.536 160.98 561.25 159.958 561.25C158.95 561.25 158.25 560.55 158.25 559.5ZM165.035 566.36H167.191V562.3C167.597 562.832 168.493 563.196 169.459 563.196C171.545 563.196 172.749 561.6 172.749 559.388C172.749 557.134 171.391 555.776 169.445 555.776C168.451 555.776 167.569 556.21 167.177 556.854L167.065 556H165.035V566.36ZM167.205 559.5C167.205 558.45 167.905 557.75 168.913 557.75C169.935 557.75 170.579 558.464 170.579 559.5C170.579 560.536 169.935 561.25 168.913 561.25C167.905 561.25 167.205 560.55 167.205 559.5ZM178.806 556C178.512 555.93 178.232 555.902 177.98 555.902C177.042 555.902 176.426 556.364 176.132 557.05L176.02 556.014H173.99V563H176.146V559.962C176.146 558.576 176.888 558.03 178.12 558.03H178.806V556ZM179.313 559.486C179.313 561.698 180.937 563.168 183.177 563.168C185.403 563.168 187.027 561.698 187.027 559.486C187.027 557.274 185.403 555.79 183.177 555.79C180.937 555.79 179.313 557.274 179.313 559.486ZM181.483 559.472C181.483 558.422 182.169 557.722 183.177 557.722C184.171 557.722 184.857 558.422 184.857 559.472C184.857 560.536 184.171 561.236 183.177 561.236C182.169 561.236 181.483 560.536 181.483 559.472ZM189.699 563L190.875 560.984L192.079 563H194.557L192.331 559.57L194.641 556H192.233L191.029 558.128L189.741 556H187.249L189.601 559.612L187.249 563H189.699ZM196.799 563.182C197.485 563.182 198.087 562.608 198.087 561.922C198.087 561.222 197.485 560.648 196.799 560.648C196.085 560.648 195.511 561.222 195.511 561.922C195.511 562.608 196.085 563.182 196.799 563.182Z" fill="#284B64"/>
<path d="M5.11 559.388C7.084 559.388 8.372 558.016 8.372 556.126C8.372 554.18 7.098 552.878 5.11 552.878H1.176V563H2.548V559.388H5.11ZM4.872 554.11C6.16 554.11 6.93 554.838 6.93 556.112C6.93 557.358 6.174 558.156 4.816 558.156H2.548V554.11H4.872ZM9.86748 563L10.7635 560.48H15.0195L15.9295 563H17.3715L13.6615 552.878H12.1355L8.43948 563H9.86748ZM12.7235 555.062C12.7935 554.852 12.8635 554.614 12.8915 554.474C12.9195 554.628 12.9895 554.866 13.0595 555.062L14.6135 559.29H11.1835L12.7235 555.062ZM20.089 563V555.174L25.269 563H26.641V552.878H25.269V560.704L20.089 552.878H18.717V563H20.089ZM28.0183 554.138H31.0703V563H32.4423V554.138H35.4803V552.878H28.0183V554.138ZM45.6048 557.932C45.6048 554.852 43.6028 552.696 40.7328 552.696C37.8768 552.696 35.8748 554.866 35.8748 557.932C35.8748 561.012 37.8628 563.168 40.7188 563.168C43.5888 563.168 45.6048 561.012 45.6048 557.932ZM44.1628 557.932C44.1628 560.27 42.7908 561.852 40.7328 561.852C38.6748 561.852 37.3168 560.284 37.3168 557.932C37.3168 555.58 38.6748 554.026 40.7328 554.026C42.7908 554.026 44.1628 555.58 44.1628 557.932ZM48.7316 563V555.174L53.9116 563H55.2836V552.878H53.9116V560.704L48.7316 552.878H47.3596V563H48.7316ZM63.8148 563V561.726H59.0128V558.52H63.3388V557.302H59.0128V554.138H63.8148V552.878H57.6408V563H63.8148Z" fill="#284B64"/>
<path d="M99.668 533.128C100.886 533.128 101.362 533.828 101.362 534.654C101.362 535.578 100.76 536.18 99.878 536.18C98.968 536.18 98.352 535.634 98.352 534.612H96.112C96.112 536.95 97.806 538.182 99.822 538.182C101.922 538.182 103.686 536.852 103.686 534.668C103.686 532.904 102.552 531.784 101.152 531.364L103.336 529.446V527.64H96.588V529.628H100.494L98.24 531.602C98.212 531.63 98.184 531.644 98.156 531.672V533.128H99.668ZM111.898 537.972V535.872H108.118L109.672 534.57C110.96 533.492 111.814 532.344 111.814 530.93C111.814 528.718 110.4 527.444 108.034 527.444C105.752 527.444 104.268 528.956 104.268 531.28H106.522C106.522 530.118 107.082 529.46 108.048 529.46C108.972 529.46 109.49 530.02 109.49 531.07C109.49 531.924 109.028 532.568 107.922 533.478L104.506 536.32V538L111.898 537.972ZM118.171 538L122.217 527.668H120.061L116.029 538H118.171ZM126.432 535.004C126.432 536.95 128.014 538.168 130.534 538.168C133.054 538.168 134.65 536.936 134.65 534.99C134.65 533.786 133.992 532.806 132.956 532.414C133.81 532.036 134.272 531.294 134.272 530.328C134.272 528.592 132.788 527.444 130.562 527.444C128.336 527.444 126.81 528.606 126.81 530.3C126.81 531.266 127.258 531.994 128.084 532.4C127.076 532.806 126.432 533.8 126.432 535.004ZM128.854 530.524C128.854 529.81 129.498 529.362 130.52 529.362C131.542 529.362 132.186 529.81 132.186 530.524C132.186 531.224 131.542 531.658 130.52 531.658C129.498 531.658 128.854 531.224 128.854 530.524ZM128.658 534.85C128.658 534.01 129.372 533.506 130.534 533.506C131.696 533.506 132.41 534.01 132.41 534.85C132.41 535.69 131.71 536.18 130.534 536.18C129.358 536.18 128.658 535.69 128.658 534.85ZM142.933 537.972V535.872H139.153L140.707 534.57C141.995 533.492 142.849 532.344 142.849 530.93C142.849 528.718 141.435 527.444 139.069 527.444C136.787 527.444 135.303 528.956 135.303 531.28H137.557C137.557 530.118 138.117 529.46 139.083 529.46C140.007 529.46 140.525 530.02 140.525 531.07C140.525 531.924 140.063 532.568 138.957 533.478L135.541 536.32V538L142.933 537.972ZM149.206 538L153.252 527.668H151.096L147.064 538H149.206ZM163.641 535.214C164.901 533.492 165.363 532.554 165.363 531.28C165.363 529.11 163.669 527.458 161.345 527.458C159.049 527.458 157.383 528.998 157.383 531.266C157.383 533.394 158.839 534.864 160.967 534.864C161.107 534.864 161.247 534.85 161.387 534.822L159.021 538H161.611L163.641 535.214ZM163.039 531.252C163.039 532.316 162.367 533.03 161.345 533.03C160.351 533.03 159.679 532.316 159.679 531.252C159.679 530.188 160.365 529.46 161.345 529.46C162.353 529.46 163.039 530.188 163.039 531.252ZM167.65 530.426C166.39 532.148 165.928 533.086 165.928 534.36C165.928 536.53 167.622 538.182 169.946 538.182C172.242 538.182 173.908 536.642 173.908 534.374C173.908 532.246 172.452 530.776 170.324 530.776C170.184 530.776 170.044 530.79 169.904 530.818L172.27 527.64H169.68L167.65 530.426ZM168.252 534.388C168.252 533.324 168.924 532.61 169.946 532.61C170.94 532.61 171.612 533.324 171.612 534.388C171.612 535.452 170.926 536.18 169.946 536.18C168.938 536.18 168.252 535.452 168.252 534.388Z" fill="#284B64"/>
<path d="M2.548 538V533.996H5.138L7.028 538H8.554L6.496 533.73C7.756 533.324 8.456 532.316 8.456 530.916C8.456 529.026 7.168 527.878 4.998 527.878H1.176V538H2.548ZM2.548 529.11H4.998C6.258 529.11 7.014 529.754 7.014 530.93C7.014 532.092 6.286 532.778 5.012 532.778H2.548V529.11ZM14.6351 528.998C15.9791 528.998 17.0991 529.642 17.4771 530.93H18.9331C18.5971 528.984 16.8751 527.71 14.6631 527.71C11.6811 527.71 9.69314 529.894 9.69314 532.974C9.69314 536.096 11.6671 538.168 14.5371 538.168C16.0211 538.168 17.2531 537.524 17.7991 536.642L17.8971 538.014H19.0451V532.428H14.3691V533.646H17.7571V533.94C17.7571 535.984 16.3711 536.866 14.6491 536.866C12.5631 536.866 11.1351 535.452 11.1351 533.002C11.1351 530.608 12.4511 528.998 14.6351 528.998ZM21.0002 538H25.0042C27.0062 538 28.2242 536.978 28.2242 535.298C28.2242 534.094 27.6502 533.282 26.5302 532.918C27.5382 532.498 28.0422 531.714 28.0422 530.552C28.0422 528.886 26.8382 527.878 24.8642 527.878H21.0002V538ZM24.7802 529.096C25.9702 529.096 26.6422 529.67 26.6422 530.678C26.6422 531.728 25.9982 532.344 24.8642 532.344H22.3722V529.096H24.7802ZM24.9762 533.534C26.1382 533.534 26.8102 534.122 26.8102 535.13C26.8102 536.18 26.1522 536.782 24.9762 536.782H22.3722V533.534H24.9762Z" fill="#284B64"/>
<path d="M96.504 510.004C96.504 511.95 98.086 513.168 100.606 513.168C103.126 513.168 104.722 511.936 104.722 509.99C104.722 508.786 104.064 507.806 103.028 507.414C103.882 507.036 104.344 506.294 104.344 505.328C104.344 503.592 102.86 502.444 100.634 502.444C98.408 502.444 96.882 503.606 96.882 505.3C96.882 506.266 97.33 506.994 98.156 507.4C97.148 507.806 96.504 508.8 96.504 510.004ZM98.926 505.524C98.926 504.81 99.57 504.362 100.592 504.362C101.614 504.362 102.258 504.81 102.258 505.524C102.258 506.224 101.614 506.658 100.592 506.658C99.57 506.658 98.926 506.224 98.926 505.524ZM98.73 509.85C98.73 509.01 99.444 508.506 100.606 508.506C101.768 508.506 102.482 509.01 102.482 509.85C102.482 510.69 101.782 511.18 100.606 511.18C99.43 511.18 98.73 510.69 98.73 509.85ZM105.733 510.004C105.733 511.95 107.315 513.168 109.835 513.168C112.355 513.168 113.951 511.936 113.951 509.99C113.951 508.786 113.293 507.806 112.257 507.414C113.111 507.036 113.573 506.294 113.573 505.328C113.573 503.592 112.089 502.444 109.863 502.444C107.637 502.444 106.111 503.606 106.111 505.3C106.111 506.266 106.559 506.994 107.385 507.4C106.377 507.806 105.733 508.8 105.733 510.004ZM108.155 505.524C108.155 504.81 108.799 504.362 109.821 504.362C110.843 504.362 111.487 504.81 111.487 505.524C111.487 506.224 110.843 506.658 109.821 506.658C108.799 506.658 108.155 506.224 108.155 505.524ZM107.959 509.85C107.959 509.01 108.673 508.506 109.835 508.506C110.997 508.506 111.711 509.01 111.711 509.85C111.711 510.69 111.011 511.18 109.835 511.18C108.659 511.18 107.959 510.69 107.959 509.85ZM120.421 505.258C120.421 503.606 119.259 502.444 117.621 502.444C115.983 502.444 114.821 503.606 114.821 505.258C114.821 506.91 115.983 508.072 117.621 508.072C119.259 508.072 120.421 506.91 120.421 505.258ZM126.357 502.668H124.243L116.375 513H118.489L126.357 502.668ZM118.741 505.258C118.741 505.958 118.293 506.448 117.621 506.448C116.949 506.448 116.501 505.958 116.501 505.258C116.501 504.558 116.949 504.068 117.621 504.068C118.293 504.068 118.741 504.558 118.741 505.258ZM127.939 510.368C127.939 508.716 126.777 507.554 125.139 507.554C123.501 507.554 122.339 508.716 122.339 510.368C122.339 512.02 123.501 513.182 125.139 513.182C126.777 513.182 127.939 512.02 127.939 510.368ZM126.259 510.368C126.259 511.068 125.811 511.558 125.139 511.558C124.467 511.558 124.019 511.068 124.019 510.368C124.019 509.668 124.467 509.178 125.139 509.178C125.811 509.178 126.259 509.668 126.259 510.368ZM133.65 514.26H135.302V501.968H133.65V514.26ZM144.811 513.168C147.205 513.168 148.843 511.6 148.843 509.276C148.843 507.176 147.443 505.846 145.427 505.846C144.797 505.846 144.223 505.986 143.775 506.252L144.181 504.74H148.185V502.64H142.557L141.255 508.198L143.327 508.59C143.579 508.086 144.209 507.722 144.909 507.722C145.931 507.722 146.519 508.352 146.519 509.416C146.519 510.508 145.889 511.166 144.867 511.166C143.915 511.166 143.341 510.578 143.341 509.598H141.101C141.101 511.74 142.585 513.168 144.811 513.168ZM149.131 502.64V504.74H154.535L150.895 513H153.247L156.817 504.74V502.64H149.131ZM162.845 505.258C162.845 503.606 161.683 502.444 160.045 502.444C158.407 502.444 157.245 503.606 157.245 505.258C157.245 506.91 158.407 508.072 160.045 508.072C161.683 508.072 162.845 506.91 162.845 505.258ZM168.781 502.668H166.667L158.799 513H160.913L168.781 502.668ZM161.165 505.258C161.165 505.958 160.717 506.448 160.045 506.448C159.373 506.448 158.925 505.958 158.925 505.258C158.925 504.558 159.373 504.068 160.045 504.068C160.717 504.068 161.165 504.558 161.165 505.258ZM170.363 510.368C170.363 508.716 169.201 507.554 167.563 507.554C165.925 507.554 164.763 508.716 164.763 510.368C164.763 512.02 165.925 513.182 167.563 513.182C169.201 513.182 170.363 512.02 170.363 510.368ZM168.683 510.368C168.683 511.068 168.235 511.558 167.563 511.558C166.891 511.558 166.443 511.068 166.443 510.368C166.443 509.668 166.891 509.178 167.563 509.178C168.235 509.178 168.683 509.668 168.683 510.368ZM176.074 514.26H177.726V501.968H176.074V514.26ZM191.911 511.166V509.178H190.637V502.64H187.809L183.343 509.178V511.166H188.495V513H190.637V511.166H191.911ZM185.751 509.178L188.495 505.146V509.178H185.751ZM191.705 502.64V504.74H197.109L193.469 513H195.821L199.391 504.74V502.64H191.705ZM205.419 505.258C205.419 503.606 204.257 502.444 202.619 502.444C200.981 502.444 199.819 503.606 199.819 505.258C199.819 506.91 200.981 508.072 202.619 508.072C204.257 508.072 205.419 506.91 205.419 505.258ZM211.355 502.668H209.241L201.373 513H203.487L211.355 502.668ZM203.739 505.258C203.739 505.958 203.291 506.448 202.619 506.448C201.947 506.448 201.499 505.958 201.499 505.258C201.499 504.558 201.947 504.068 202.619 504.068C203.291 504.068 203.739 504.558 203.739 505.258ZM212.937 510.368C212.937 508.716 211.775 507.554 210.137 507.554C208.499 507.554 207.337 508.716 207.337 510.368C207.337 512.02 208.499 513.182 210.137 513.182C211.775 513.182 212.937 512.02 212.937 510.368ZM211.257 510.368C211.257 511.068 210.809 511.558 210.137 511.558C209.465 511.558 209.017 511.068 209.017 510.368C209.017 509.668 209.465 509.178 210.137 509.178C210.809 509.178 211.257 509.668 211.257 510.368ZM218.648 514.26H220.3V501.968H218.648V514.26ZM233.687 512.972V510.872H229.907L231.461 509.57C232.749 508.492 233.603 507.344 233.603 505.93C233.603 503.718 232.189 502.444 229.823 502.444C227.541 502.444 226.057 503.956 226.057 506.28H228.311C228.311 505.118 228.871 504.46 229.837 504.46C230.761 504.46 231.279 505.02 231.279 506.07C231.279 506.924 230.817 507.568 229.711 508.478L226.295 511.32V513L233.687 512.972ZM234.617 510.004C234.617 511.95 236.199 513.168 238.719 513.168C241.239 513.168 242.835 511.936 242.835 509.99C242.835 508.786 242.177 507.806 241.141 507.414C241.995 507.036 242.457 506.294 242.457 505.328C242.457 503.592 240.973 502.444 238.747 502.444C236.521 502.444 234.995 503.606 234.995 505.3C234.995 506.266 235.443 506.994 236.269 507.4C235.261 507.806 234.617 508.8 234.617 510.004ZM237.039 505.524C237.039 504.81 237.683 504.362 238.705 504.362C239.727 504.362 240.371 504.81 240.371 505.524C240.371 506.224 239.727 506.658 238.705 506.658C237.683 506.658 237.039 506.224 237.039 505.524ZM236.843 509.85C236.843 509.01 237.557 508.506 238.719 508.506C239.881 508.506 240.595 509.01 240.595 509.85C240.595 510.69 239.895 511.18 238.719 511.18C237.543 511.18 236.843 510.69 236.843 509.85ZM249.306 505.258C249.306 503.606 248.144 502.444 246.506 502.444C244.868 502.444 243.706 503.606 243.706 505.258C243.706 506.91 244.868 508.072 246.506 508.072C248.144 508.072 249.306 506.91 249.306 505.258ZM255.242 502.668H253.128L245.26 513H247.374L255.242 502.668ZM247.626 505.258C247.626 505.958 247.178 506.448 246.506 506.448C245.834 506.448 245.386 505.958 245.386 505.258C245.386 504.558 245.834 504.068 246.506 504.068C247.178 504.068 247.626 504.558 247.626 505.258ZM256.824 510.368C256.824 508.716 255.662 507.554 254.024 507.554C252.386 507.554 251.224 508.716 251.224 510.368C251.224 512.02 252.386 513.182 254.024 513.182C255.662 513.182 256.824 512.02 256.824 510.368ZM255.144 510.368C255.144 511.068 254.696 511.558 254.024 511.558C253.352 511.558 252.904 511.068 252.904 510.368C252.904 509.668 253.352 509.178 254.024 509.178C254.696 509.178 255.144 509.668 255.144 510.368Z" fill="#284B64"/>
<path d="M5.376 513.154C7.658 513.154 9.464 511.81 9.898 509.794H8.442C8.064 511.04 6.888 511.838 5.404 511.838C3.36 511.838 2.016 510.298 2.016 507.932C2.016 505.566 3.36 504.026 5.404 504.026C6.874 504.026 8.008 504.824 8.386 506.14H9.856C9.478 504.068 7.728 502.71 5.446 502.71C2.548 502.71 0.574 504.824 0.574 507.946C0.574 511.082 2.492 513.154 5.376 513.154ZM12.9243 513V508.674C12.9243 507.26 12.8963 506.224 12.8263 505.734L15.7663 513H17.0543L20.0083 505.706C19.9383 506.42 19.9243 507.106 19.9243 508.996V513H21.2683V502.878H19.8963L16.4103 511.39L12.9243 502.878H11.5803V513H12.9243ZM26.0192 508.884V513H27.3912V508.884L30.7932 502.878H29.2952L27.0552 506.924C26.8732 507.26 26.8452 507.344 26.7192 507.596C26.6072 507.358 26.5232 507.162 26.3832 506.924L24.1292 502.878H22.5892L26.0192 508.884ZM33.4875 502.878H32.1155V513H33.4875V510.676L35.3355 508.338L38.0935 513H39.6895L36.2455 507.176L39.6335 502.878H37.9955L33.4875 508.618V502.878Z" fill="#284B64"/>
<path d="M160.602 366.216C163.932 366.216 166.416 364.254 166.884 361.284H163.86C163.5 362.598 162.294 363.408 160.656 363.408C158.514 363.408 157.182 361.842 157.182 359.34C157.182 356.802 158.496 355.272 160.656 355.272C162.258 355.272 163.392 356.028 163.788 357.36H166.866C166.452 354.372 164.058 352.464 160.728 352.464C156.75 352.464 154.104 355.2 154.104 359.358C154.104 363.57 156.606 366.216 160.602 366.216ZM172.668 366.234C175.134 366.234 176.916 364.956 177.24 362.958H174.702C174.504 363.606 173.766 363.984 172.722 363.984C171.498 363.984 170.832 363.426 170.67 362.238L177.204 362.202V361.5C177.204 358.566 175.44 356.712 172.614 356.712C169.896 356.712 168.006 358.674 168.006 361.482C168.006 364.254 169.95 366.234 172.668 366.234ZM172.632 358.962C173.748 358.962 174.45 359.574 174.45 360.528H170.706C170.922 359.448 171.534 358.962 172.632 358.962ZM181.618 366V352.428H178.846V366H181.618ZM186.469 366V352.428H183.697V366H186.469ZM188.063 361.482C188.063 364.326 190.151 366.216 193.031 366.216C195.893 366.216 197.981 364.326 197.981 361.482C197.981 358.638 195.893 356.73 193.031 356.73C190.151 356.73 188.063 358.638 188.063 361.482ZM190.853 361.464C190.853 360.114 191.735 359.214 193.031 359.214C194.309 359.214 195.191 360.114 195.191 361.464C195.191 362.832 194.309 363.732 193.031 363.732C191.735 363.732 190.853 362.832 190.853 361.464Z" fill="white"/>
<g clip-path="url(#clip3_1203_16909)">
<path d="M736 0H384V98H736V0Z" fill="#043344"/>
<path opacity="0.9" d="M455 98H384V140H455V98Z" fill="#043344"/>
<path opacity="0.8" d="M525 98H455V140H525V98Z" fill="#043344"/>
<path opacity="0.7" d="M595 98H525V140H595V98Z" fill="#043344"/>
<path opacity="0.5" d="M736 98H665V140H736V98Z" fill="#043344"/>
<path opacity="0.6" d="M665 98H595V140H665V98Z" fill="#043344"/>
</g>
<path d="M480.938 179.52L480.518 181.536H481.778L481.302 184H483.444L483.92 181.536H485.306L484.83 184H486.972L487.448 181.536H489.058L489.464 179.52H487.84L488.12 178.134H489.506L489.926 176.118H488.512L488.988 173.64H486.846L486.37 176.118H484.984L485.474 173.64H483.332L482.842 176.118H481.442L481.022 178.134H482.45L482.184 179.52H480.938ZM484.326 179.52L484.592 178.134H485.978L485.698 179.52H484.326ZM490.949 178.848C490.949 182.054 492.629 184.182 495.471 184.182C498.313 184.182 499.993 182.054 499.993 178.848C499.993 175.642 498.173 173.444 495.471 173.444C492.769 173.444 490.949 175.642 490.949 178.848ZM493.189 178.848C493.189 176.552 494.029 175.432 495.471 175.432C496.913 175.432 497.753 176.552 497.753 178.848C497.753 181.074 496.913 182.194 495.471 182.194C494.029 182.194 493.189 181.074 493.189 178.848ZM509.342 182.166V180.178H508.068V173.64H505.24L500.774 180.178V182.166H505.926V184H508.068V182.166H509.342ZM503.182 180.178L505.926 176.146V180.178H503.182ZM513.5 179.128C514.718 179.128 515.194 179.828 515.194 180.654C515.194 181.578 514.592 182.18 513.71 182.18C512.8 182.18 512.184 181.634 512.184 180.612H509.944C509.944 182.95 511.638 184.182 513.654 184.182C515.754 184.182 517.518 182.852 517.518 180.668C517.518 178.904 516.384 177.784 514.984 177.364L517.168 175.446V173.64H510.42V175.628H514.326L512.072 177.602C512.044 177.63 512.016 177.644 511.988 177.672V179.128H513.5ZM521.908 179.128C523.126 179.128 523.602 179.828 523.602 180.654C523.602 181.578 523 182.18 522.118 182.18C521.208 182.18 520.592 181.634 520.592 180.612H518.352C518.352 182.95 520.046 184.182 522.062 184.182C524.162 184.182 525.926 182.852 525.926 180.668C525.926 178.904 524.792 177.784 523.392 177.364L525.576 175.446V173.64H518.828V175.628H522.734L520.48 177.602C520.452 177.63 520.424 177.644 520.396 177.672V179.128H521.908ZM535.209 182.166V180.178H533.935V173.64H531.107L526.641 180.178V182.166H531.793V184H533.935V182.166H535.209ZM529.049 180.178L531.793 176.146V180.178H529.049ZM544.411 182.166V180.178H543.137V173.64H540.309L535.843 180.178V182.166H540.995V184H543.137V182.166H544.411ZM538.251 180.178L540.995 176.146V180.178H538.251Z" fill="#284B64"/>
<path d="M480.938 483.52L480.518 485.536H481.778L481.302 488H483.444L483.92 485.536H485.306L484.83 488H486.972L487.448 485.536H489.058L489.464 483.52H487.84L488.12 482.134H489.506L489.926 480.118H488.512L488.988 477.64H486.846L486.37 480.118H484.984L485.474 477.64H483.332L482.842 480.118H481.442L481.022 482.134H482.45L482.184 483.52H480.938ZM484.326 483.52L484.592 482.134H485.978L485.698 483.52H484.326ZM491.523 488H495.835C498.075 488 499.307 486.978 499.307 485.144C499.307 483.968 498.761 483.17 497.739 482.834C498.677 482.428 499.181 481.616 499.181 480.51C499.181 478.732 497.921 477.64 495.835 477.64H491.523V488ZM495.597 479.628C496.423 479.628 496.857 480.006 496.857 480.734C496.857 481.476 496.409 481.882 495.597 481.882H493.791V479.628H495.597ZM495.709 483.786C496.535 483.786 496.983 484.164 496.983 484.864C496.983 485.634 496.549 486.012 495.709 486.012H493.791V483.786H495.709ZM507.414 488V485.9H503.102V483.758H506.924V481.77H503.102V479.74H507.414V477.64H500.834V488H507.414ZM513.749 488.168C516.339 488.168 518.271 486.642 518.635 484.332H516.283C516.003 485.354 515.065 485.984 513.791 485.984C512.125 485.984 511.089 484.766 511.089 482.82C511.089 480.846 512.111 479.656 513.791 479.656C515.037 479.656 515.919 480.244 516.227 481.28H518.621C518.299 478.956 516.437 477.472 513.847 477.472C510.753 477.472 508.695 479.6 508.695 482.834C508.695 486.11 510.641 488.168 513.749 488.168ZM525.752 485.214C527.012 483.492 527.474 482.554 527.474 481.28C527.474 479.11 525.78 477.458 523.456 477.458C521.16 477.458 519.494 478.998 519.494 481.266C519.494 483.394 520.95 484.864 523.078 484.864C523.218 484.864 523.358 484.85 523.498 484.822L521.132 488H523.722L525.752 485.214ZM525.15 481.252C525.15 482.316 524.478 483.03 523.456 483.03C522.462 483.03 521.79 482.316 521.79 481.252C521.79 480.188 522.476 479.46 523.456 479.46C524.464 479.46 525.15 480.188 525.15 481.252ZM533.031 488C535.985 488 538.043 485.872 538.043 482.848C538.043 479.768 535.929 477.64 532.891 477.64H528.971V488H533.031ZM532.667 479.74C534.543 479.74 535.649 480.888 535.649 482.848C535.649 484.766 534.599 485.9 532.807 485.9H531.239V479.74H532.667ZM539.047 482.848C539.047 486.054 540.727 488.182 543.569 488.182C546.411 488.182 548.091 486.054 548.091 482.848C548.091 479.642 546.271 477.444 543.569 477.444C540.867 477.444 539.047 479.642 539.047 482.848ZM541.287 482.848C541.287 480.552 542.127 479.432 543.569 479.432C545.011 479.432 545.851 480.552 545.851 482.848C545.851 485.074 545.011 486.194 543.569 486.194C542.127 486.194 541.287 485.074 541.287 482.848Z" fill="#284B64"/>
<path d="M386.548 184V179.506H391.56V184H392.932V173.878H391.56V178.232H386.548V173.878H385.176V184H386.548ZM401.454 184V182.726H396.652V179.52H400.978V178.302H396.652V175.138H401.454V173.878H395.28V184H401.454ZM405.962 178.946L402.49 184H404.1L406.816 179.996C407.152 180.584 407.53 181.2 407.922 181.774L409.476 184H411.1L407.67 178.932L411.058 173.878H409.476L406.802 177.91C406.508 177.35 406.172 176.79 405.724 176.132L404.142 173.878H402.504L405.962 178.946Z" fill="#284B64"/>
<path d="M386.548 488V483.506H391.56V488H392.932V477.878H391.56V482.232H386.548V477.878H385.176V488H386.548ZM401.454 488V486.726H396.652V483.52H400.978V482.302H396.652V479.138H401.454V477.878H395.28V488H401.454ZM405.962 482.946L402.49 488H404.1L406.816 483.996C407.152 484.584 407.53 485.2 407.922 485.774L409.476 488H411.1L407.67 482.932L411.058 477.878H409.476L406.802 481.91C406.508 481.35 406.172 480.79 405.724 480.132L404.142 477.878H402.504L405.962 482.946Z" fill="#284B64"/>
<path d="M389.11 255.388C391.084 255.388 392.372 254.016 392.372 252.126C392.372 250.18 391.098 248.878 389.11 248.878H385.176V259H386.548V255.388H389.11ZM388.872 250.11C390.16 250.11 390.93 250.838 390.93 252.112C390.93 253.358 390.174 254.156 388.816 254.156H386.548V250.11H388.872ZM393.867 259L394.763 256.48H399.019L399.929 259H401.371L397.661 248.878H396.135L392.439 259H393.867ZM396.723 251.062C396.793 250.852 396.863 250.614 396.891 250.474C396.919 250.628 396.989 250.866 397.059 251.062L398.613 255.29H395.183L396.723 251.062ZM404.089 259V251.174L409.269 259H410.641V248.878H409.269V256.704L404.089 248.878H402.717V259H404.089ZM412.018 250.138H415.07V259H416.442V250.138H419.48V248.878H412.018V250.138ZM429.605 253.932C429.605 250.852 427.603 248.696 424.733 248.696C421.877 248.696 419.875 250.866 419.875 253.932C419.875 257.012 421.863 259.168 424.719 259.168C427.589 259.168 429.605 257.012 429.605 253.932ZM428.163 253.932C428.163 256.27 426.791 257.852 424.733 257.852C422.675 257.852 421.317 256.284 421.317 253.932C421.317 251.58 422.675 250.026 424.733 250.026C426.791 250.026 428.163 251.58 428.163 253.932ZM432.732 259V251.174L437.912 259H439.284V248.878H437.912V256.704L432.732 248.878H431.36V259H432.732ZM447.815 259V257.726H443.013V254.52H447.339V253.302H443.013V250.138H447.815V248.878H441.641V259H447.815Z" fill="#284B64"/>
<path d="M389.11 559.388C391.084 559.388 392.372 558.016 392.372 556.126C392.372 554.18 391.098 552.878 389.11 552.878H385.176V563H386.548V559.388H389.11ZM388.872 554.11C390.16 554.11 390.93 554.838 390.93 556.112C390.93 557.358 390.174 558.156 388.816 558.156H386.548V554.11H388.872ZM393.867 563L394.763 560.48H399.019L399.929 563H401.371L397.661 552.878H396.135L392.439 563H393.867ZM396.723 555.062C396.793 554.852 396.863 554.614 396.891 554.474C396.919 554.628 396.989 554.866 397.059 555.062L398.613 559.29H395.183L396.723 555.062ZM404.089 563V555.174L409.269 563H410.641V552.878H409.269V560.704L404.089 552.878H402.717V563H404.089ZM412.018 554.138H415.07V563H416.442V554.138H419.48V552.878H412.018V554.138ZM429.605 557.932C429.605 554.852 427.603 552.696 424.733 552.696C421.877 552.696 419.875 554.866 419.875 557.932C419.875 561.012 421.863 563.168 424.719 563.168C427.589 563.168 429.605 561.012 429.605 557.932ZM428.163 557.932C428.163 560.27 426.791 561.852 424.733 561.852C422.675 561.852 421.317 560.284 421.317 557.932C421.317 555.58 422.675 554.026 424.733 554.026C426.791 554.026 428.163 555.58 428.163 557.932ZM432.732 563V555.174L437.912 563H439.284V552.878H437.912V560.704L432.732 552.878H431.36V563H432.732ZM447.815 563V561.726H443.013V558.52H447.339V557.302H443.013V554.138H447.815V552.878H441.641V563H447.815Z" fill="#284B64"/>
<path d="M488.848 232.166V230.178H487.574V223.64H484.746L480.28 230.178V232.166H485.432V234H487.574V232.166H488.848ZM482.688 230.178L485.432 226.146V230.178H482.688ZM495.048 234L499.094 223.668H496.938L492.906 234H495.048ZM506.977 234.168C509.371 234.168 511.009 232.6 511.009 230.276C511.009 228.176 509.609 226.846 507.593 226.846C506.963 226.846 506.389 226.986 505.941 227.252L506.347 225.74H510.351V223.64H504.723L503.421 229.198L505.493 229.59C505.745 229.086 506.375 228.722 507.075 228.722C508.097 228.722 508.685 229.352 508.685 230.416C508.685 231.508 508.055 232.166 507.033 232.166C506.081 232.166 505.507 231.578 505.507 230.598H503.267C503.267 232.74 504.751 234.168 506.977 234.168ZM513.631 225.67V234H515.801V223.64H511.279V225.67H513.631ZM522.761 234L526.807 223.668H524.651L520.619 234H522.761ZM532.66 226.426C531.4 228.148 530.938 229.086 530.938 230.36C530.938 232.53 532.632 234.182 534.956 234.182C537.252 234.182 538.918 232.642 538.918 230.374C538.918 228.246 537.462 226.776 535.334 226.776C535.194 226.776 535.054 226.79 534.914 226.818L537.28 223.64H534.69L532.66 226.426ZM533.262 230.388C533.262 229.324 533.934 228.61 534.956 228.61C535.95 228.61 536.622 229.324 536.622 230.388C536.622 231.452 535.936 232.18 534.956 232.18C533.948 232.18 533.262 231.452 533.262 230.388ZM539.84 231.004C539.84 232.95 541.422 234.168 543.942 234.168C546.462 234.168 548.058 232.936 548.058 230.99C548.058 229.786 547.4 228.806 546.364 228.414C547.218 228.036 547.68 227.294 547.68 226.328C547.68 224.592 546.196 223.444 543.97 223.444C541.744 223.444 540.218 224.606 540.218 226.3C540.218 227.266 540.666 227.994 541.492 228.4C540.484 228.806 539.84 229.8 539.84 231.004ZM542.262 226.524C542.262 225.81 542.906 225.362 543.928 225.362C544.95 225.362 545.594 225.81 545.594 226.524C545.594 227.224 544.95 227.658 543.928 227.658C542.906 227.658 542.262 227.224 542.262 226.524ZM542.066 230.85C542.066 230.01 542.78 229.506 543.942 229.506C545.104 229.506 545.818 230.01 545.818 230.85C545.818 231.69 545.118 232.18 543.942 232.18C542.766 232.18 542.066 231.69 542.066 230.85Z" fill="#284B64"/>
<path d="M482.828 529.67V538H484.998V527.64H480.476V529.67H482.828ZM492.789 535.214C494.049 533.492 494.511 532.554 494.511 531.28C494.511 529.11 492.817 527.458 490.493 527.458C488.197 527.458 486.531 528.998 486.531 531.266C486.531 533.394 487.987 534.864 490.115 534.864C490.255 534.864 490.395 534.85 490.535 534.822L488.169 538H490.759L492.789 535.214ZM492.187 531.252C492.187 532.316 491.515 533.03 490.493 533.03C489.499 533.03 488.827 532.316 488.827 531.252C488.827 530.188 489.513 529.46 490.493 529.46C491.501 529.46 492.187 530.188 492.187 531.252ZM495.434 532.848C495.434 536.054 497.114 538.182 499.956 538.182C502.798 538.182 504.478 536.054 504.478 532.848C504.478 529.642 502.658 527.444 499.956 527.444C497.254 527.444 495.434 529.642 495.434 532.848ZM497.674 532.848C497.674 530.552 498.514 529.432 499.956 529.432C501.398 529.432 502.238 530.552 502.238 532.848C502.238 535.074 501.398 536.194 499.956 536.194C498.514 536.194 497.674 535.074 497.674 532.848ZM510.826 538L514.872 527.668H512.716L508.684 538H510.826ZM526.632 537.972V535.872H522.852L524.406 534.57C525.694 533.492 526.548 532.344 526.548 530.93C526.548 528.718 525.134 527.444 522.768 527.444C520.486 527.444 519.002 528.956 519.002 531.28H521.256C521.256 530.118 521.816 529.46 522.782 529.46C523.706 529.46 524.224 530.02 524.224 531.07C524.224 531.924 523.762 532.568 522.656 533.478L519.24 536.32V538L526.632 537.972ZM527.563 532.848C527.563 536.054 529.243 538.182 532.085 538.182C534.927 538.182 536.607 536.054 536.607 532.848C536.607 529.642 534.787 527.444 532.085 527.444C529.383 527.444 527.563 529.642 527.563 532.848ZM529.803 532.848C529.803 530.552 530.643 529.432 532.085 529.432C533.527 529.432 534.367 530.552 534.367 532.848C534.367 535.074 533.527 536.194 532.085 536.194C530.643 536.194 529.803 535.074 529.803 532.848ZM539.935 529.67V538H542.105V527.64H537.583V529.67H539.935ZM549.066 538L553.112 527.668H550.956L546.924 538H549.066ZM564.872 537.972V535.872H561.092L562.646 534.57C563.934 533.492 564.788 532.344 564.788 530.93C564.788 528.718 563.374 527.444 561.008 527.444C558.726 527.444 557.242 528.956 557.242 531.28H559.496C559.496 530.118 560.056 529.46 561.022 529.46C561.946 529.46 562.464 530.02 562.464 531.07C562.464 531.924 562.002 532.568 560.896 533.478L557.48 536.32V538L564.872 537.972ZM565.803 532.848C565.803 536.054 567.483 538.182 570.325 538.182C573.167 538.182 574.847 536.054 574.847 532.848C574.847 529.642 573.027 527.444 570.325 527.444C567.623 527.444 565.803 529.642 565.803 532.848ZM568.043 532.848C568.043 530.552 568.883 529.432 570.325 529.432C571.767 529.432 572.607 530.552 572.607 532.848C572.607 535.074 571.767 536.194 570.325 536.194C568.883 536.194 568.043 535.074 568.043 532.848ZM575.852 535.004C575.852 536.95 577.434 538.168 579.954 538.168C582.474 538.168 584.07 536.936 584.07 534.99C584.07 533.786 583.412 532.806 582.376 532.414C583.23 532.036 583.692 531.294 583.692 530.328C583.692 528.592 582.208 527.444 579.982 527.444C577.756 527.444 576.23 528.606 576.23 530.3C576.23 531.266 576.678 531.994 577.504 532.4C576.496 532.806 575.852 533.8 575.852 535.004ZM578.274 530.524C578.274 529.81 578.918 529.362 579.94 529.362C580.962 529.362 581.606 529.81 581.606 530.524C581.606 531.224 580.962 531.658 579.94 531.658C578.918 531.658 578.274 531.224 578.274 530.524ZM578.078 534.85C578.078 534.01 578.792 533.506 579.954 533.506C581.116 533.506 581.83 534.01 581.83 534.85C581.83 535.69 581.13 536.18 579.954 536.18C578.778 536.18 578.078 535.69 578.078 534.85Z" fill="#284B64"/>
<path d="M386.548 234V229.996H389.138L391.028 234H392.554L390.496 229.73C391.756 229.324 392.456 228.316 392.456 226.916C392.456 225.026 391.168 223.878 388.998 223.878H385.176V234H386.548ZM386.548 225.11H388.998C390.258 225.11 391.014 225.754 391.014 226.93C391.014 228.092 390.286 228.778 389.012 228.778H386.548V225.11ZM398.635 224.998C399.979 224.998 401.099 225.642 401.477 226.93H402.933C402.597 224.984 400.875 223.71 398.663 223.71C395.681 223.71 393.693 225.894 393.693 228.974C393.693 232.096 395.667 234.168 398.537 234.168C400.021 234.168 401.253 233.524 401.799 232.642L401.897 234.014H403.045V228.428H398.369V229.646H401.757V229.94C401.757 231.984 400.371 232.866 398.649 232.866C396.563 232.866 395.135 231.452 395.135 229.002C395.135 226.608 396.451 224.998 398.635 224.998ZM405 234H409.004C411.006 234 412.224 232.978 412.224 231.298C412.224 230.094 411.65 229.282 410.53 228.918C411.538 228.498 412.042 227.714 412.042 226.552C412.042 224.886 410.838 223.878 408.864 223.878H405V234ZM408.78 225.096C409.97 225.096 410.642 225.67 410.642 226.678C410.642 227.728 409.998 228.344 408.864 228.344H406.372V225.096H408.78ZM408.976 229.534C410.138 229.534 410.81 230.122 410.81 231.13C410.81 232.18 410.152 232.782 408.976 232.782H406.372V229.534H408.976Z" fill="#284B64"/>
<path d="M386.548 538V533.996H389.138L391.028 538H392.554L390.496 533.73C391.756 533.324 392.456 532.316 392.456 530.916C392.456 529.026 391.168 527.878 388.998 527.878H385.176V538H386.548ZM386.548 529.11H388.998C390.258 529.11 391.014 529.754 391.014 530.93C391.014 532.092 390.286 532.778 389.012 532.778H386.548V529.11ZM398.635 528.998C399.979 528.998 401.099 529.642 401.477 530.93H402.933C402.597 528.984 400.875 527.71 398.663 527.71C395.681 527.71 393.693 529.894 393.693 532.974C393.693 536.096 395.667 538.168 398.537 538.168C400.021 538.168 401.253 537.524 401.799 536.642L401.897 538.014H403.045V532.428H398.369V533.646H401.757V533.94C401.757 535.984 400.371 536.866 398.649 536.866C396.563 536.866 395.135 535.452 395.135 533.002C395.135 530.608 396.451 528.998 398.635 528.998ZM405 538H409.004C411.006 538 412.224 536.978 412.224 535.298C412.224 534.094 411.65 533.282 410.53 532.918C411.538 532.498 412.042 531.714 412.042 530.552C412.042 528.886 410.838 527.878 408.864 527.878H405V538ZM408.78 529.096C409.97 529.096 410.642 529.67 410.642 530.678C410.642 531.728 409.998 532.344 408.864 532.344H406.372V529.096H408.78ZM408.976 533.534C410.138 533.534 410.81 534.122 410.81 535.13C410.81 536.18 410.152 536.782 408.976 536.782H406.372V533.534H408.976Z" fill="#284B64"/>
<path d="M486.678 206.214C487.938 204.492 488.4 203.554 488.4 202.28C488.4 200.11 486.706 198.458 484.382 198.458C482.086 198.458 480.42 199.998 480.42 202.266C480.42 204.394 481.876 205.864 484.004 205.864C484.144 205.864 484.284 205.85 484.424 205.822L482.058 209H484.648L486.678 206.214ZM486.076 202.252C486.076 203.316 485.404 204.03 484.382 204.03C483.388 204.03 482.716 203.316 482.716 202.252C482.716 201.188 483.402 200.46 484.382 200.46C485.39 200.46 486.076 201.188 486.076 202.252ZM490.687 201.426C489.427 203.148 488.965 204.086 488.965 205.36C488.965 207.53 490.659 209.182 492.983 209.182C495.279 209.182 496.945 207.642 496.945 205.374C496.945 203.246 495.489 201.776 493.361 201.776C493.221 201.776 493.081 201.79 492.941 201.818L495.307 198.64H492.717L490.687 201.426ZM491.289 205.388C491.289 204.324 491.961 203.61 492.983 203.61C493.977 203.61 494.649 204.324 494.649 205.388C494.649 206.452 493.963 207.18 492.983 207.18C491.975 207.18 491.289 206.452 491.289 205.388ZM503.327 201.258C503.327 199.606 502.165 198.444 500.527 198.444C498.889 198.444 497.727 199.606 497.727 201.258C497.727 202.91 498.889 204.072 500.527 204.072C502.165 204.072 503.327 202.91 503.327 201.258ZM509.263 198.668H507.149L499.281 209H501.395L509.263 198.668ZM501.647 201.258C501.647 201.958 501.199 202.448 500.527 202.448C499.855 202.448 499.407 201.958 499.407 201.258C499.407 200.558 499.855 200.068 500.527 200.068C501.199 200.068 501.647 200.558 501.647 201.258ZM510.845 206.368C510.845 204.716 509.683 203.554 508.045 203.554C506.407 203.554 505.245 204.716 505.245 206.368C505.245 208.02 506.407 209.182 508.045 209.182C509.683 209.182 510.845 208.02 510.845 206.368ZM509.165 206.368C509.165 207.068 508.717 207.558 508.045 207.558C507.373 207.558 506.925 207.068 506.925 206.368C506.925 205.668 507.373 205.178 508.045 205.178C508.717 205.178 509.165 205.668 509.165 206.368ZM516.556 210.26H518.208V197.968H516.556V210.26ZM523.615 198.64V200.74H529.019L525.379 209H527.731L531.301 200.74V198.64H523.615ZM531.733 203.848C531.733 207.054 533.413 209.182 536.255 209.182C539.097 209.182 540.777 207.054 540.777 203.848C540.777 200.642 538.957 198.444 536.255 198.444C533.553 198.444 531.733 200.642 531.733 203.848ZM533.973 203.848C533.973 201.552 534.813 200.432 536.255 200.432C537.697 200.432 538.537 201.552 538.537 203.848C538.537 206.074 537.697 207.194 536.255 207.194C534.813 207.194 533.973 206.074 533.973 203.848ZM547.241 201.258C547.241 199.606 546.079 198.444 544.441 198.444C542.803 198.444 541.641 199.606 541.641 201.258C541.641 202.91 542.803 204.072 544.441 204.072C546.079 204.072 547.241 202.91 547.241 201.258ZM553.177 198.668H551.063L543.195 209H545.309L553.177 198.668ZM545.561 201.258C545.561 201.958 545.113 202.448 544.441 202.448C543.769 202.448 543.321 201.958 543.321 201.258C543.321 200.558 543.769 200.068 544.441 200.068C545.113 200.068 545.561 200.558 545.561 201.258ZM554.759 206.368C554.759 204.716 553.597 203.554 551.959 203.554C550.321 203.554 549.159 204.716 549.159 206.368C549.159 208.02 550.321 209.182 551.959 209.182C553.597 209.182 554.759 208.02 554.759 206.368ZM553.079 206.368C553.079 207.068 552.631 207.558 551.959 207.558C551.287 207.558 550.839 207.068 550.839 206.368C550.839 205.668 551.287 205.178 551.959 205.178C552.631 205.178 553.079 205.668 553.079 206.368ZM560.47 210.26H562.122V197.968H560.47V210.26ZM571.631 209.168C574.025 209.168 575.663 207.6 575.663 205.276C575.663 203.176 574.263 201.846 572.247 201.846C571.617 201.846 571.043 201.986 570.595 202.252L571.001 200.74H575.005V198.64H569.377L568.075 204.198L570.147 204.59C570.399 204.086 571.029 203.722 571.729 203.722C572.751 203.722 573.339 204.352 573.339 205.416C573.339 206.508 572.709 207.166 571.687 207.166C570.735 207.166 570.161 206.578 570.161 205.598H567.921C567.921 207.74 569.405 209.168 571.631 209.168ZM578.285 200.67V209H580.455V198.64H575.933V200.67H578.285ZM587.532 201.258C587.532 199.606 586.37 198.444 584.732 198.444C583.094 198.444 581.932 199.606 581.932 201.258C581.932 202.91 583.094 204.072 584.732 204.072C586.37 204.072 587.532 202.91 587.532 201.258ZM593.468 198.668H591.354L583.486 209H585.6L593.468 198.668ZM585.852 201.258C585.852 201.958 585.404 202.448 584.732 202.448C584.06 202.448 583.612 201.958 583.612 201.258C583.612 200.558 584.06 200.068 584.732 200.068C585.404 200.068 585.852 200.558 585.852 201.258ZM595.05 206.368C595.05 204.716 593.888 203.554 592.25 203.554C590.612 203.554 589.45 204.716 589.45 206.368C589.45 208.02 590.612 209.182 592.25 209.182C593.888 209.182 595.05 208.02 595.05 206.368ZM593.37 206.368C593.37 207.068 592.922 207.558 592.25 207.558C591.578 207.558 591.13 207.068 591.13 206.368C591.13 205.668 591.578 205.178 592.25 205.178C592.922 205.178 593.37 205.668 593.37 206.368ZM600.761 210.26H602.413V197.968H600.761V210.26ZM616.598 207.166V205.178H615.324V198.64H612.496L608.03 205.178V207.166H613.182V209H615.324V207.166H616.598ZM610.438 205.178L613.182 201.146V205.178H610.438ZM617.455 206.004C617.455 207.95 619.037 209.168 621.557 209.168C624.077 209.168 625.673 207.936 625.673 205.99C625.673 204.786 625.015 203.806 623.979 203.414C624.833 203.036 625.295 202.294 625.295 201.328C625.295 199.592 623.811 198.444 621.585 198.444C619.359 198.444 617.833 199.606 617.833 201.3C617.833 202.266 618.281 202.994 619.107 203.4C618.099 203.806 617.455 204.8 617.455 206.004ZM619.877 201.524C619.877 200.81 620.521 200.362 621.543 200.362C622.565 200.362 623.209 200.81 623.209 201.524C623.209 202.224 622.565 202.658 621.543 202.658C620.521 202.658 619.877 202.224 619.877 201.524ZM619.681 205.85C619.681 205.01 620.395 204.506 621.557 204.506C622.719 204.506 623.433 205.01 623.433 205.85C623.433 206.69 622.733 207.18 621.557 207.18C620.381 207.18 619.681 206.69 619.681 205.85ZM632.144 201.258C632.144 199.606 630.982 198.444 629.344 198.444C627.706 198.444 626.544 199.606 626.544 201.258C626.544 202.91 627.706 204.072 629.344 204.072C630.982 204.072 632.144 202.91 632.144 201.258ZM638.08 198.668H635.966L628.098 209H630.212L638.08 198.668ZM630.464 201.258C630.464 201.958 630.016 202.448 629.344 202.448C628.672 202.448 628.224 201.958 628.224 201.258C628.224 200.558 628.672 200.068 629.344 200.068C630.016 200.068 630.464 200.558 630.464 201.258ZM639.662 206.368C639.662 204.716 638.5 203.554 636.862 203.554C635.224 203.554 634.062 204.716 634.062 206.368C634.062 208.02 635.224 209.182 636.862 209.182C638.5 209.182 639.662 208.02 639.662 206.368ZM637.982 206.368C637.982 207.068 637.534 207.558 636.862 207.558C636.19 207.558 635.742 207.068 635.742 206.368C635.742 205.668 636.19 205.178 636.862 205.178C637.534 205.178 637.982 205.668 637.982 206.368Z" fill="#284B64"/>
<path d="M488.05 512.972V510.872H484.27L485.824 509.57C487.112 508.492 487.966 507.344 487.966 505.93C487.966 503.718 486.552 502.444 484.186 502.444C481.904 502.444 480.42 503.956 480.42 506.28H482.674C482.674 505.118 483.234 504.46 484.2 504.46C485.124 504.46 485.642 505.02 485.642 506.07C485.642 506.924 485.18 507.568 484.074 508.478L480.658 511.32V513L488.05 512.972ZM492.512 513.168C494.906 513.168 496.544 511.6 496.544 509.276C496.544 507.176 495.144 505.846 493.128 505.846C492.498 505.846 491.924 505.986 491.476 506.252L491.882 504.74H495.886V502.64H490.258L488.956 508.198L491.028 508.59C491.28 508.086 491.91 507.722 492.61 507.722C493.632 507.722 494.22 508.352 494.22 509.416C494.22 510.508 493.59 511.166 492.568 511.166C491.616 511.166 491.042 510.578 491.042 509.598H488.802C488.802 511.74 490.286 513.168 492.512 513.168ZM502.862 505.258C502.862 503.606 501.7 502.444 500.062 502.444C498.424 502.444 497.262 503.606 497.262 505.258C497.262 506.91 498.424 508.072 500.062 508.072C501.7 508.072 502.862 506.91 502.862 505.258ZM508.798 502.668H506.684L498.816 513H500.93L508.798 502.668ZM501.182 505.258C501.182 505.958 500.734 506.448 500.062 506.448C499.39 506.448 498.942 505.958 498.942 505.258C498.942 504.558 499.39 504.068 500.062 504.068C500.734 504.068 501.182 504.558 501.182 505.258ZM510.38 510.368C510.38 508.716 509.218 507.554 507.58 507.554C505.942 507.554 504.78 508.716 504.78 510.368C504.78 512.02 505.942 513.182 507.58 513.182C509.218 513.182 510.38 512.02 510.38 510.368ZM508.7 510.368C508.7 511.068 508.252 511.558 507.58 511.558C506.908 511.558 506.46 511.068 506.46 510.368C506.46 509.668 506.908 509.178 507.58 509.178C508.252 509.178 508.7 509.668 508.7 510.368ZM516.091 514.26H517.743V501.968H516.091V514.26ZM525.908 504.67V513H528.078V502.64H523.556V504.67H525.908ZM533.227 513.168C535.621 513.168 537.259 511.6 537.259 509.276C537.259 507.176 535.859 505.846 533.843 505.846C533.213 505.846 532.639 505.986 532.191 506.252L532.597 504.74H536.601V502.64H530.973L529.671 508.198L531.743 508.59C531.995 508.086 532.625 507.722 533.325 507.722C534.347 507.722 534.935 508.352 534.935 509.416C534.935 510.508 534.305 511.166 533.283 511.166C532.331 511.166 531.757 510.578 531.757 509.598H529.517C529.517 511.74 531.001 513.168 533.227 513.168ZM543.577 505.258C543.577 503.606 542.415 502.444 540.777 502.444C539.139 502.444 537.977 503.606 537.977 505.258C537.977 506.91 539.139 508.072 540.777 508.072C542.415 508.072 543.577 506.91 543.577 505.258ZM549.513 502.668H547.399L539.531 513H541.645L549.513 502.668ZM541.897 505.258C541.897 505.958 541.449 506.448 540.777 506.448C540.105 506.448 539.657 505.958 539.657 505.258C539.657 504.558 540.105 504.068 540.777 504.068C541.449 504.068 541.897 504.558 541.897 505.258ZM551.095 510.368C551.095 508.716 549.933 507.554 548.295 507.554C546.657 507.554 545.495 508.716 545.495 510.368C545.495 512.02 546.657 513.182 548.295 513.182C549.933 513.182 551.095 512.02 551.095 510.368ZM549.415 510.368C549.415 511.068 548.967 511.558 548.295 511.558C547.623 511.558 547.175 511.068 547.175 510.368C547.175 509.668 547.623 509.178 548.295 509.178C548.967 509.178 549.415 509.668 549.415 510.368ZM556.806 514.26H558.458V501.968H556.806V514.26ZM566.623 504.67V513H568.793V502.64H564.271V504.67H566.623ZM573.574 508.128C574.792 508.128 575.268 508.828 575.268 509.654C575.268 510.578 574.666 511.18 573.784 511.18C572.874 511.18 572.258 510.634 572.258 509.612H570.018C570.018 511.95 571.712 513.182 573.728 513.182C575.828 513.182 577.592 511.852 577.592 509.668C577.592 507.904 576.458 506.784 575.058 506.364L577.242 504.446V502.64H570.494V504.628H574.4L572.146 506.602C572.118 506.63 572.09 506.644 572.062 506.672V508.128H573.574ZM583.855 505.258C583.855 503.606 582.693 502.444 581.055 502.444C579.417 502.444 578.255 503.606 578.255 505.258C578.255 506.91 579.417 508.072 581.055 508.072C582.693 508.072 583.855 506.91 583.855 505.258ZM589.791 502.668H587.677L579.809 513H581.923L589.791 502.668ZM582.175 505.258C582.175 505.958 581.727 506.448 581.055 506.448C580.383 506.448 579.935 505.958 579.935 505.258C579.935 504.558 580.383 504.068 581.055 504.068C581.727 504.068 582.175 504.558 582.175 505.258ZM591.373 510.368C591.373 508.716 590.211 507.554 588.573 507.554C586.935 507.554 585.773 508.716 585.773 510.368C585.773 512.02 586.935 513.182 588.573 513.182C590.211 513.182 591.373 512.02 591.373 510.368ZM589.693 510.368C589.693 511.068 589.245 511.558 588.573 511.558C587.901 511.558 587.453 511.068 587.453 510.368C587.453 509.668 587.901 509.178 588.573 509.178C589.245 509.178 589.693 509.668 589.693 510.368ZM597.083 514.26H598.735V501.968H597.083V514.26ZM604.576 507.848C604.576 511.054 606.256 513.182 609.098 513.182C611.94 513.182 613.62 511.054 613.62 507.848C613.62 504.642 611.8 502.444 609.098 502.444C606.396 502.444 604.576 504.642 604.576 507.848ZM606.816 507.848C606.816 505.552 607.656 504.432 609.098 504.432C610.54 504.432 611.38 505.552 611.38 507.848C611.38 510.074 610.54 511.194 609.098 511.194C607.656 511.194 606.816 510.074 606.816 507.848ZM620.085 505.258C620.085 503.606 618.923 502.444 617.285 502.444C615.647 502.444 614.485 503.606 614.485 505.258C614.485 506.91 615.647 508.072 617.285 508.072C618.923 508.072 620.085 506.91 620.085 505.258ZM626.021 502.668H623.907L616.039 513H618.153L626.021 502.668ZM618.405 505.258C618.405 505.958 617.957 506.448 617.285 506.448C616.613 506.448 616.165 505.958 616.165 505.258C616.165 504.558 616.613 504.068 617.285 504.068C617.957 504.068 618.405 504.558 618.405 505.258ZM627.603 510.368C627.603 508.716 626.441 507.554 624.803 507.554C623.165 507.554 622.003 508.716 622.003 510.368C622.003 512.02 623.165 513.182 624.803 513.182C626.441 513.182 627.603 512.02 627.603 510.368ZM625.923 510.368C625.923 511.068 625.475 511.558 624.803 511.558C624.131 511.558 623.683 511.068 623.683 510.368C623.683 509.668 624.131 509.178 624.803 509.178C625.475 509.178 625.923 509.668 625.923 510.368Z" fill="#284B64"/>
<path d="M389.376 209.154C391.658 209.154 393.464 207.81 393.898 205.794H392.442C392.064 207.04 390.888 207.838 389.404 207.838C387.36 207.838 386.016 206.298 386.016 203.932C386.016 201.566 387.36 200.026 389.404 200.026C390.874 200.026 392.008 200.824 392.386 202.14H393.856C393.478 200.068 391.728 198.71 389.446 198.71C386.548 198.71 384.574 200.824 384.574 203.946C384.574 207.082 386.492 209.154 389.376 209.154ZM396.924 209V204.674C396.924 203.26 396.896 202.224 396.826 201.734L399.766 209H401.054L404.008 201.706C403.938 202.42 403.924 203.106 403.924 204.996V209H405.268V198.878H403.896L400.41 207.39L396.924 198.878H395.58V209H396.924ZM410.019 204.884V209H411.391V204.884L414.793 198.878H413.295L411.055 202.924C410.873 203.26 410.845 203.344 410.719 203.596C410.607 203.358 410.523 203.162 410.383 202.924L408.129 198.878H406.589L410.019 204.884ZM417.487 198.878H416.115V209H417.487V206.676L419.335 204.338L422.093 209H423.689L420.245 203.176L423.633 198.878H421.995L417.487 204.618V198.878Z" fill="#284B64"/>
<path d="M389.376 513.154C391.658 513.154 393.464 511.81 393.898 509.794H392.442C392.064 511.04 390.888 511.838 389.404 511.838C387.36 511.838 386.016 510.298 386.016 507.932C386.016 505.566 387.36 504.026 389.404 504.026C390.874 504.026 392.008 504.824 392.386 506.14H393.856C393.478 504.068 391.728 502.71 389.446 502.71C386.548 502.71 384.574 504.824 384.574 507.946C384.574 511.082 386.492 513.154 389.376 513.154ZM396.924 513V508.674C396.924 507.26 396.896 506.224 396.826 505.734L399.766 513H401.054L404.008 505.706C403.938 506.42 403.924 507.106 403.924 508.996V513H405.268V502.878H403.896L400.41 511.39L396.924 502.878H395.58V513H396.924ZM410.019 508.884V513H411.391V508.884L414.793 502.878H413.295L411.055 506.924C410.873 507.26 410.845 507.344 410.719 507.596C410.607 507.358 410.523 507.162 410.383 506.924L408.129 502.878H406.589L410.019 508.884ZM417.487 502.878H416.115V513H417.487V510.676L419.335 508.338L422.093 513H423.689L420.245 507.176L423.633 502.878H421.995L417.487 508.618V502.878Z" fill="#284B64"/>
<path d="M520.792 51.38H524.572V62H527.488V51.38H531.268V48.68H520.792V51.38ZM533.774 62.234C535.124 62.234 536.312 61.64 536.6 60.812L536.78 62H539.228V56.744C539.228 54.17 537.752 52.712 535.142 52.712C532.568 52.712 530.894 54.044 530.894 56.078H533.198C533.198 55.268 533.828 54.818 534.998 54.818C535.988 54.818 536.528 55.286 536.528 56.168V56.312L534.008 56.51C531.848 56.672 530.678 57.698 530.678 59.354C530.678 61.118 531.866 62.234 533.774 62.234ZM534.746 60.182C533.9 60.182 533.504 59.876 533.504 59.228C533.504 58.652 533.936 58.382 535.142 58.274L536.546 58.148V58.634C536.546 59.66 535.808 60.182 534.746 60.182ZM547.408 53C547.03 52.91 546.67 52.874 546.346 52.874C545.14 52.874 544.348 53.468 543.97 54.35L543.826 53.018H541.216V62H543.988V58.094C543.988 56.312 544.942 55.61 546.526 55.61H547.408V53ZM551.176 62.234C552.526 62.234 553.714 61.64 554.002 60.812L554.182 62H556.63V56.744C556.63 54.17 555.154 52.712 552.544 52.712C549.97 52.712 548.296 54.044 548.296 56.078H550.6C550.6 55.268 551.23 54.818 552.4 54.818C553.39 54.818 553.93 55.286 553.93 56.168V56.312L551.41 56.51C549.25 56.672 548.08 57.698 548.08 59.354C548.08 61.118 549.268 62.234 551.176 62.234ZM552.148 60.182C551.302 60.182 550.906 59.876 550.906 59.228C550.906 58.652 551.338 58.382 552.544 58.274L553.948 58.148V58.634C553.948 59.66 553.21 60.182 552.148 60.182ZM560.389 62H563.089L563.953 59.192C564.529 57.302 564.691 56.6 564.763 56.222C564.817 56.6 565.051 57.662 565.501 59.138L566.365 62H568.939L572.089 53H569.155L568.291 55.934C568.201 56.258 567.769 57.842 567.661 58.49C567.571 57.914 567.139 56.24 567.049 55.934L566.203 53H563.359L562.441 55.934C562.045 57.194 561.955 57.536 561.793 58.49C561.649 57.59 561.451 56.708 561.235 55.934L560.407 53H557.491L560.389 62ZM577.033 62.234C579.499 62.234 581.281 60.956 581.605 58.958H579.067C578.869 59.606 578.131 59.984 577.087 59.984C575.863 59.984 575.197 59.426 575.035 58.238L581.569 58.202V57.5C581.569 54.566 579.805 52.712 576.979 52.712C574.261 52.712 572.371 54.674 572.371 57.482C572.371 60.254 574.315 62.234 577.033 62.234ZM576.997 54.962C578.113 54.962 578.815 55.574 578.815 56.528H575.071C575.287 55.448 575.899 54.962 576.997 54.962ZM589.402 53C589.024 52.91 588.664 52.874 588.34 52.874C587.134 52.874 586.342 53.468 585.964 54.35L585.82 53.018H583.21V62H585.982V58.094C585.982 56.312 586.936 55.61 588.52 55.61H589.402V53ZM593.17 62.234C594.52 62.234 595.708 61.64 595.996 60.812L596.176 62H598.624V56.744C598.624 54.17 597.148 52.712 594.538 52.712C591.964 52.712 590.29 54.044 590.29 56.078H592.594C592.594 55.268 593.224 54.818 594.394 54.818C595.384 54.818 595.924 55.286 595.924 56.168V56.312L593.404 56.51C591.244 56.672 590.074 57.698 590.074 59.354C590.074 61.118 591.262 62.234 593.17 62.234ZM594.142 60.182C593.296 60.182 592.9 59.876 592.9 59.228C592.9 58.652 593.332 58.382 594.538 58.274L595.942 58.148V58.634C595.942 59.66 595.204 60.182 594.142 60.182Z" fill="white"/>
<defs>
<clipPath id="clip0_1203_16909">
<rect width="352" height="140" rx="16" fill="white"/>
</clipPath>
<clipPath id="clip1_1203_16909">
<rect x="384" y="304" width="352" height="140" rx="16" fill="white"/>
</clipPath>
<clipPath id="clip2_1203_16909">
<rect y="304" width="352" height="140" rx="16" fill="white"/>
</clipPath>
<clipPath id="clip3_1203_16909">
<rect x="384" width="352" height="140" rx="16" fill="white"/>
</clipPath>
</defs>
</svg>
