<svg width="351" height="263" viewBox="0 0 351 263" fill="none" xmlns="http://www.w3.org/2000/svg">
<path d="M68.272 20.8099H71.696V30.6179H73.744V20.8099H77.168V18.9219H68.272V20.8099ZM79.4538 30.8259C80.6858 30.8259 81.7578 30.2659 82.0938 29.4499L82.2378 30.6179H83.9498V25.8179C83.9498 23.6259 82.6378 22.4739 80.5098 22.4739C78.3658 22.4739 76.9578 23.5939 76.9578 25.3059H78.6218C78.6218 24.4739 79.2618 23.9939 80.4138 23.9939C81.4058 23.9939 82.0458 24.4259 82.0458 25.4979V25.6739L79.6778 25.8499C77.8058 25.9939 76.7498 26.9059 76.7498 28.3619C76.7498 29.8499 77.7738 30.8259 79.4538 30.8259ZM80.0938 29.3539C79.2138 29.3539 78.7338 29.0019 78.7338 28.2819C78.7338 27.6419 79.1978 27.2419 80.4138 27.1299L82.0618 27.0019V27.4179C82.0618 28.6339 81.2938 29.3539 80.0938 29.3539ZM87.8354 30.6179V18.7139H85.8994V30.6179H87.8354ZM93.419 30.8259C95.483 30.8259 96.923 29.7859 97.259 28.0579H95.451C95.227 28.8099 94.523 29.2259 93.451 29.2259C92.155 29.2259 91.419 28.5219 91.275 27.1299L97.227 27.1139V26.5219C97.227 24.0579 95.723 22.4739 93.355 22.4739C91.035 22.4739 89.419 24.1859 89.419 26.6659C89.419 29.1139 91.067 30.8259 93.419 30.8259ZM93.371 24.0739C94.539 24.0739 95.291 24.7939 95.291 25.8819H91.323C91.515 24.6979 92.219 24.0739 93.371 24.0739ZM100.741 30.6179V26.3619C100.741 25.0819 101.477 24.2499 102.677 24.2499C103.685 24.2499 104.341 24.8899 104.341 26.2179V30.6179H106.293V25.7539C106.293 23.7059 105.269 22.4739 103.285 22.4739C102.213 22.4739 101.253 22.9379 100.757 23.7379L100.597 22.7139H98.7893V30.6179H100.741ZM110.899 30.6179V24.3459H112.435V22.7139H110.899V20.2499H108.947V22.7139H107.427V24.3459H108.947V30.6179H110.899ZM120.233 30.6179V26.4259C120.233 24.9699 120.217 23.8659 120.105 23.1619L123.065 30.6179H124.953L127.929 23.1459C127.817 23.9779 127.817 24.6659 127.817 27.0179V30.6179H129.801V18.9219H127.785L124.009 28.2339L120.233 18.9219H118.249V30.6179H120.233ZM134.454 30.8259C135.686 30.8259 136.758 30.2659 137.094 29.4499L137.238 30.6179H138.95V25.8179C138.95 23.6259 137.638 22.4739 135.51 22.4739C133.366 22.4739 131.958 23.5939 131.958 25.3059H133.622C133.622 24.4739 134.262 23.9939 135.414 23.9939C136.406 23.9939 137.046 24.4259 137.046 25.4979V25.6739L134.678 25.8499C132.806 25.9939 131.75 26.9059 131.75 28.3619C131.75 29.8499 132.774 30.8259 134.454 30.8259ZM135.094 29.3539C134.214 29.3539 133.734 29.0019 133.734 28.2819C133.734 27.6419 134.198 27.2419 135.414 27.1299L137.062 27.0019V27.4179C137.062 28.6339 136.294 29.3539 135.094 29.3539ZM142.819 30.6179V26.3619C142.819 25.0819 143.555 24.2499 144.755 24.2499C145.763 24.2499 146.419 24.8899 146.419 26.2179V30.6179H148.371V25.7539C148.371 23.7059 147.347 22.4739 145.363 22.4739C144.291 22.4739 143.331 22.9379 142.835 23.7379L142.675 22.7139H140.867V30.6179H142.819ZM152.641 30.8259C153.873 30.8259 154.945 30.2659 155.281 29.4499L155.425 30.6179H157.137V25.8179C157.137 23.6259 155.825 22.4739 153.697 22.4739C151.553 22.4739 150.145 23.5939 150.145 25.3059H151.809C151.809 24.4739 152.449 23.9939 153.601 23.9939C154.593 23.9939 155.233 24.4259 155.233 25.4979V25.6739L152.865 25.8499C150.993 25.9939 149.937 26.9059 149.937 28.3619C149.937 29.8499 150.961 30.8259 152.641 30.8259ZM153.281 29.3539C152.401 29.3539 151.921 29.0019 151.921 28.2819C151.921 27.6419 152.385 27.2419 153.601 27.1299L155.249 27.0019V27.4179C155.249 28.6339 154.481 29.3539 153.281 29.3539ZM158.607 26.4899C158.607 28.7779 160.079 30.4579 162.319 30.4579C163.455 30.4579 164.431 29.9939 164.927 29.2579V30.5699C164.927 31.8819 164.063 32.7299 162.719 32.7299C161.519 32.7299 160.735 32.1219 160.607 31.0979H158.655C158.895 33.2099 160.447 34.5059 162.719 34.5059C165.279 34.5059 166.863 32.8579 166.863 30.2179V22.7139H165.055L164.943 23.8019C164.479 22.9539 163.551 22.4579 162.367 22.4579C160.111 22.4579 158.607 24.1859 158.607 26.4899ZM160.575 26.4419C160.575 25.1459 161.407 24.1699 162.703 24.1699C164.063 24.1699 164.879 25.0979 164.879 26.4419C164.879 27.8179 164.047 28.7619 162.703 28.7619C161.423 28.7619 160.575 27.7699 160.575 26.4419ZM172.419 30.8259C174.483 30.8259 175.923 29.7859 176.259 28.0579H174.451C174.227 28.8099 173.523 29.2259 172.451 29.2259C171.155 29.2259 170.419 28.5219 170.275 27.1299L176.227 27.1139V26.5219C176.227 24.0579 174.723 22.4739 172.355 22.4739C170.035 22.4739 168.419 24.1859 168.419 26.6659C168.419 29.1139 170.067 30.8259 172.419 30.8259ZM172.371 24.0739C173.539 24.0739 174.291 24.7939 174.291 25.8819H170.323C170.515 24.6979 171.219 24.0739 172.371 24.0739ZM179.741 30.6179V26.1379C179.741 24.8579 180.493 24.2499 181.421 24.2499C182.349 24.2499 182.941 24.8419 182.941 25.9459V30.6179H184.893V26.1379C184.893 24.8419 185.613 24.2339 186.557 24.2339C187.485 24.2339 188.093 24.8259 188.093 25.9619V30.6179H190.029V25.4499C190.029 23.6259 188.973 22.4739 187.053 22.4739C185.853 22.4739 184.925 23.0659 184.525 23.9779C184.109 23.0659 183.277 22.4739 182.077 22.4739C180.941 22.4739 180.141 22.9859 179.741 23.6419L179.581 22.7139H177.789V30.6179H179.741ZM195.482 30.8259C197.546 30.8259 198.986 29.7859 199.322 28.0579H197.514C197.29 28.8099 196.586 29.2259 195.514 29.2259C194.218 29.2259 193.482 28.5219 193.338 27.1299L199.29 27.1139V26.5219C199.29 24.0579 197.786 22.4739 195.418 22.4739C193.098 22.4739 191.482 24.1859 191.482 26.6659C191.482 29.1139 193.13 30.8259 195.482 30.8259ZM195.434 24.0739C196.602 24.0739 197.354 24.7939 197.354 25.8819H193.386C193.578 24.6979 194.282 24.0739 195.434 24.0739ZM202.804 30.6179V26.3619C202.804 25.0819 203.54 24.2499 204.74 24.2499C205.748 24.2499 206.404 24.8899 206.404 26.2179V30.6179H208.356V25.7539C208.356 23.7059 207.332 22.4739 205.348 22.4739C204.276 22.4739 203.316 22.9379 202.82 23.7379L202.66 22.7139H200.852V30.6179H202.804ZM212.962 30.6179V24.3459H214.498V22.7139H212.962V20.2499H211.01V22.7139H209.49V24.3459H211.01V30.6179H212.962Z" fill="#043344"/>
<g filter="url(#filter0_d_1312_13673)">
<path d="M44.1649 36.2667H28.3891C27.6441 36.2667 26.9283 35.9255 26.4463 35.347C25.9643 34.7536 25.7744 33.9971 25.9058 33.2406C26.8407 28.1972 31.1936 24.5333 36.2624 24.5333C41.3311 24.5333 45.684 28.1972 46.6189 33.2406C46.765 33.9971 46.5605 34.7536 46.0784 35.347C45.6256 35.9255 44.9099 36.2667 44.1649 36.2667ZM36.277 26.5952C32.1869 26.5952 28.6812 29.5471 27.9216 33.6115C27.8924 33.8043 27.9654 33.9378 28.0239 34.012C28.0823 34.0713 28.1992 34.19 28.3891 34.19H44.1649C44.3548 34.19 44.4716 34.0861 44.5301 34.012C44.5885 33.9526 44.6615 33.8043 44.6323 33.6115C43.8727 29.5471 40.367 26.5952 36.277 26.5952Z" fill="#1A938A"/>
<path d="M41.866 16.8C41.866 19.8982 39.3642 22.4 36.266 22.4C33.1824 22.4 30.666 19.8982 30.666 16.8C30.666 13.7018 33.1824 11.2 36.266 11.2C39.3642 11.2 41.866 13.7018 41.866 16.8Z" fill="#043344"/>
<rect x="4.5" y="0.5" width="342" height="47" rx="23.5" stroke="#205260"/>
<rect x="4" y="57.5" width="343" height="24.75" rx="12.375" fill="white"/>
<rect x="4" y="82.25" width="343" height="24.75" rx="12.375" fill="#E9EDEF"/>
<rect x="4" y="107" width="343" height="24.75" rx="12.375" fill="white"/>
<rect x="4" y="131.75" width="343" height="24.75" rx="12.375" fill="#E9EDEF"/>
<rect x="4" y="156.5" width="343" height="24.75" rx="12.375" fill="white"/>
<rect x="4" y="181.25" width="343" height="24.75" rx="12.375" fill="#E9EDEF"/>
<rect x="4" y="206" width="343" height="24.5" rx="12.25" fill="white"/>
<rect x="4" y="230.5" width="343" height="24.5" rx="12.25" fill="#E9EDEF"/>
<path d="M22.07 73.5V68.32L25.51 73.5H26.77V66.19H25.51V71.37L22.08 66.19H20.81V73.5H22.07ZM29.6781 73.63C30.4481 73.63 31.1181 73.28 31.3281 72.77L31.4181 73.5H32.4881V70.5C32.4881 69.13 31.6681 68.41 30.3381 68.41C28.9981 68.41 28.1181 69.11 28.1181 70.18H29.1581C29.1581 69.66 29.5581 69.36 30.2781 69.36C30.8981 69.36 31.2981 69.63 31.2981 70.3V70.41L29.8181 70.52C28.6481 70.61 27.9881 71.18 27.9881 72.09C27.9881 73.02 28.6281 73.63 29.6781 73.63ZM30.0781 72.71C29.5281 72.71 29.2281 72.49 29.2281 72.04C29.2281 71.64 29.5181 71.39 30.2781 71.32L31.3081 71.24V71.5C31.3081 72.26 30.8281 72.71 30.0781 72.71ZM35.2983 73.5V69.58H36.2583V68.56H35.2983V67.02H34.0783V68.56H33.1283V69.58H34.0783V73.5H35.2983ZM37.6267 67.57C38.0267 67.57 38.3567 67.24 38.3567 66.83C38.3567 66.42 38.0267 66.1 37.6267 66.1C37.2067 66.1 36.8767 66.42 36.8767 66.83C36.8767 67.24 37.2067 67.57 37.6267 67.57ZM37.0167 73.5H38.2367V68.56H37.0167V73.5ZM40.8972 73.5H42.0972L44.1572 68.56H42.8972L41.9972 70.83C41.7872 71.37 41.6072 71.89 41.5372 72.2C41.4772 71.93 41.3072 71.42 41.0972 70.83L40.2372 68.56H38.9372L40.8972 73.5ZM46.8244 73.63C48.1144 73.63 49.0144 72.98 49.2244 71.9H48.0944C47.9544 72.37 47.5144 72.63 46.8444 72.63C46.0344 72.63 45.5744 72.19 45.4844 71.32L49.2044 71.31V70.94C49.2044 69.4 48.2644 68.41 46.7844 68.41C45.3344 68.41 44.3244 69.48 44.3244 71.03C44.3244 72.56 45.3544 73.63 46.8244 73.63ZM46.7944 69.41C47.5244 69.41 47.9944 69.86 47.9944 70.54H45.5144C45.6344 69.8 46.0744 69.41 46.7944 69.41ZM53.4861 67.57C53.8861 67.57 54.2161 67.24 54.2161 66.83C54.2161 66.42 53.8861 66.1 53.4861 66.1C53.0661 66.1 52.7361 66.42 52.7361 66.83C52.7361 67.24 53.0661 67.57 53.4861 67.57ZM52.8761 73.5H54.0961V68.56H52.8761V73.5ZM62.2066 69.84C62.2066 67.61 60.7466 66.06 58.6566 66.06C56.5666 66.06 55.1166 67.62 55.1166 69.84C55.1166 72.07 56.5566 73.62 58.6466 73.62C60.7466 73.62 62.2066 72.06 62.2066 69.84ZM60.8566 69.84C60.8566 71.38 59.9966 72.39 58.6566 72.39C57.3166 72.39 56.4566 71.4 56.4566 69.84C56.4566 68.28 57.3166 67.29 58.6566 67.29C59.9966 67.29 60.8566 68.28 60.8566 69.84ZM62.9779 68.23C62.9779 69.35 63.6279 70.06 64.8679 70.33L66.0279 70.59C66.6279 70.72 66.8779 71.01 66.8779 71.5C66.8779 72.11 66.3379 72.48 65.4879 72.48C64.6679 72.48 64.1679 72.11 64.1579 71.49H62.8779C62.9079 72.8 63.9279 73.63 65.4879 73.63C67.0979 73.63 68.1579 72.75 68.1579 71.39C68.1579 70.3 67.5479 69.66 66.2979 69.39L65.1479 69.14C64.5379 69 64.2579 68.71 64.2579 68.19C64.2579 67.58 64.7679 67.2 65.5579 67.2C66.2779 67.2 66.7279 67.57 66.7579 68.2H68.0379C67.9979 66.88 67.0579 66.06 65.5779 66.06C64.0379 66.06 62.9779 66.95 62.9779 68.23ZM73.3012 73.63C74.0712 73.63 74.7412 73.28 74.9512 72.77L75.0412 73.5H76.1112V70.5C76.1112 69.13 75.2912 68.41 73.9612 68.41C72.6212 68.41 71.7412 69.11 71.7412 70.18H72.7812C72.7812 69.66 73.1812 69.36 73.9012 69.36C74.5212 69.36 74.9212 69.63 74.9212 70.3V70.41L73.4412 70.52C72.2712 70.61 71.6112 71.18 71.6112 72.09C71.6112 73.02 72.2512 73.63 73.3012 73.63ZM73.7012 72.71C73.1512 72.71 72.8512 72.49 72.8512 72.04C72.8512 71.64 73.1412 71.39 73.9012 71.32L74.9312 71.24V71.5C74.9312 72.26 74.4512 72.71 73.7012 72.71ZM78.5297 73.5V70.84C78.5297 70.04 78.9897 69.52 79.7397 69.52C80.3697 69.52 80.7797 69.92 80.7797 70.75V73.5H81.9997V70.46C81.9997 69.18 81.3597 68.41 80.1197 68.41C79.4497 68.41 78.8497 68.7 78.5397 69.2L78.4397 68.56H77.3097V73.5H78.5297ZM85.2284 73.63C85.9784 73.63 86.6184 73.3 86.9184 72.73L86.9984 73.5H88.1184V66.06H86.9084V69.19C86.5984 68.7 85.9884 68.41 85.2984 68.41C83.8084 68.41 82.9084 69.51 82.9084 71.05C82.9084 72.58 83.7984 73.63 85.2284 73.63ZM85.4984 72.51C84.6484 72.51 84.1284 71.89 84.1284 71.01C84.1284 70.13 84.6484 69.5 85.4984 69.5C86.3484 69.5 86.8984 70.12 86.8984 71.01C86.8984 71.9 86.3484 72.51 85.4984 72.51ZM92.8951 73.5L93.4851 71.81H96.2151L96.8051 73.5H98.1551L95.5151 66.19H94.2051L91.5651 73.5H92.8951ZM94.6951 68.37C94.7651 68.17 94.8251 67.95 94.8551 67.81C94.8751 67.96 94.9451 68.18 95.0051 68.37L95.8451 70.73H93.8651L94.6951 68.37ZM100.112 73.5V70.84C100.112 70.04 100.572 69.52 101.322 69.52C101.952 69.52 102.362 69.92 102.362 70.75V73.5H103.582V70.46C103.582 69.18 102.942 68.41 101.702 68.41C101.032 68.41 100.432 68.7 100.122 69.2L100.022 68.56H98.8917V73.5H100.112ZM106.81 73.63C107.56 73.63 108.2 73.3 108.5 72.73L108.58 73.5H109.7V66.06H108.49V69.19C108.18 68.7 107.57 68.41 106.88 68.41C105.39 68.41 104.49 69.51 104.49 71.05C104.49 72.58 105.38 73.63 106.81 73.63ZM107.08 72.51C106.23 72.51 105.71 71.89 105.71 71.01C105.71 70.13 106.23 69.5 107.08 69.5C107.93 69.5 108.48 70.12 108.48 71.01C108.48 71.9 107.93 72.51 107.08 72.51ZM114.072 68.54C113.872 68.49 113.702 68.47 113.532 68.47C112.872 68.47 112.402 68.8 112.192 69.29L112.122 68.57H110.972V73.5H112.192V71.1C112.192 70.14 112.742 69.67 113.622 69.67H114.072V68.54ZM114.442 71.02C114.442 72.56 115.552 73.62 117.082 73.62C118.612 73.62 119.722 72.56 119.722 71.02C119.722 69.48 118.612 68.42 117.082 68.42C115.552 68.42 114.442 69.48 114.442 71.02ZM115.662 71.02C115.662 70.12 116.242 69.51 117.082 69.51C117.922 69.51 118.502 70.12 118.502 71.02C118.502 71.92 117.922 72.53 117.082 72.53C116.242 72.53 115.662 71.92 115.662 71.02ZM121.299 67.57C121.699 67.57 122.029 67.24 122.029 66.83C122.029 66.42 121.699 66.1 121.299 66.1C120.879 66.1 120.549 66.42 120.549 66.83C120.549 67.24 120.879 67.57 121.299 67.57ZM120.689 73.5H121.909V68.56H120.689V73.5ZM125.199 73.63C125.949 73.63 126.589 73.3 126.889 72.73L126.969 73.5H128.089V66.06H126.879V69.19C126.569 68.7 125.959 68.41 125.269 68.41C123.779 68.41 122.879 69.51 122.879 71.05C122.879 72.58 123.769 73.63 125.199 73.63ZM125.469 72.51C124.619 72.51 124.099 71.89 124.099 71.01C124.099 70.13 124.619 69.5 125.469 69.5C126.319 69.5 126.869 70.12 126.869 71.01C126.869 71.9 126.319 72.51 125.469 72.51ZM132.866 73.5L133.456 71.81H136.186L136.776 73.5H138.126L135.486 66.19H134.176L131.536 73.5H132.866ZM134.666 68.37C134.736 68.17 134.796 67.95 134.826 67.81C134.846 67.96 134.916 68.18 134.976 68.37L135.816 70.73H133.836L134.666 68.37ZM138.862 75.79H140.082V72.84C140.392 73.34 141.032 73.63 141.772 73.63C143.242 73.63 144.082 72.51 144.082 70.97C144.082 69.42 143.162 68.41 141.772 68.41C141.022 68.41 140.372 68.74 140.072 69.31L139.992 68.56H138.862V75.79ZM140.092 71.03C140.092 70.14 140.642 69.52 141.482 69.52C142.342 69.52 142.852 70.15 142.852 71.03C142.852 71.91 142.342 72.53 141.482 72.53C140.642 72.53 140.092 71.92 140.092 71.03ZM145.054 75.79H146.274V72.84C146.584 73.34 147.224 73.63 147.964 73.63C149.434 73.63 150.274 72.51 150.274 70.97C150.274 69.42 149.354 68.41 147.964 68.41C147.214 68.41 146.564 68.74 146.264 69.31L146.184 68.56H145.054V75.79ZM146.284 71.03C146.284 70.14 146.834 69.52 147.674 69.52C148.534 69.52 149.044 70.15 149.044 71.03C149.044 71.91 148.534 72.53 147.674 72.53C146.834 72.53 146.284 71.92 146.284 71.03ZM150.865 72C150.865 72.97 151.645 73.63 152.875 73.63C154.095 73.63 154.945 73.01 154.945 72.01C154.945 71.25 154.525 70.87 153.695 70.68L152.805 70.47C152.385 70.37 152.165 70.19 152.165 69.91C152.165 69.54 152.445 69.32 152.925 69.32C153.395 69.32 153.675 69.59 153.685 70.01H154.845C154.835 69.05 154.085 68.41 152.975 68.41C151.835 68.41 151.015 68.99 151.015 69.96C151.015 70.75 151.445 71.17 152.335 71.37L153.225 71.58C153.665 71.68 153.795 71.86 153.795 72.11C153.795 72.47 153.485 72.7 152.915 72.7C152.355 72.7 152.035 72.43 152.025 72H150.865ZM23.9 98.62C25.63 98.62 26.97 97.6 27.25 96.06H25.92C25.68 96.87 24.92 97.39 23.93 97.39C22.59 97.39 21.73 96.39 21.73 94.84C21.73 93.28 22.58 92.3 23.93 92.3C24.9 92.3 25.63 92.8 25.88 93.65H27.23C26.98 92.08 25.69 91.07 23.96 91.07C21.82 91.07 20.39 92.58 20.39 94.85C20.39 97.14 21.77 98.62 23.9 98.62ZM27.9279 96.02C27.9279 97.56 29.0379 98.62 30.5679 98.62C32.0979 98.62 33.2079 97.56 33.2079 96.02C33.2079 94.48 32.0979 93.42 30.5679 93.42C29.0379 93.42 27.9279 94.48 27.9279 96.02ZM29.1479 96.02C29.1479 95.12 29.7279 94.51 30.5679 94.51C31.4079 94.51 31.9879 95.12 31.9879 96.02C31.9879 96.92 31.4079 97.53 30.5679 97.53C29.7279 97.53 29.1479 96.92 29.1479 96.02ZM35.3949 98.5V95.7C35.3949 94.9 35.8649 94.52 36.4449 94.52C37.0249 94.52 37.3949 94.89 37.3949 95.58V98.5H38.6149V95.7C38.6149 94.89 39.0649 94.51 39.6549 94.51C40.2349 94.51 40.6149 94.88 40.6149 95.59V98.5H41.8249V95.27C41.8249 94.13 41.1649 93.41 39.9649 93.41C39.2149 93.41 38.6349 93.78 38.3849 94.35C38.1249 93.78 37.6049 93.41 36.8549 93.41C36.1449 93.41 35.6449 93.73 35.3949 94.14L35.2949 93.56H34.1749V98.5H35.3949ZM43.0226 100.79H44.2426V97.84C44.5526 98.34 45.1926 98.63 45.9326 98.63C47.4026 98.63 48.2426 97.51 48.2426 95.97C48.2426 94.42 47.3226 93.41 45.9326 93.41C45.1826 93.41 44.5326 93.74 44.2326 94.31L44.1526 93.56H43.0226V100.79ZM44.2526 96.03C44.2526 95.14 44.8026 94.52 45.6426 94.52C46.5026 94.52 47.0126 95.15 47.0126 96.03C47.0126 96.91 46.5026 97.53 45.6426 97.53C44.8026 97.53 44.2526 96.92 44.2526 96.03ZM50.684 98.63C51.454 98.63 52.124 98.28 52.334 97.77L52.424 98.5H53.494V95.5C53.494 94.13 52.674 93.41 51.344 93.41C50.004 93.41 49.124 94.11 49.124 95.18H50.164C50.164 94.66 50.564 94.36 51.284 94.36C51.904 94.36 52.304 94.63 52.304 95.3V95.41L50.824 95.52C49.654 95.61 48.994 96.18 48.994 97.09C48.994 98.02 49.634 98.63 50.684 98.63ZM51.084 97.71C50.534 97.71 50.234 97.49 50.234 97.04C50.234 96.64 50.524 96.39 51.284 96.32L52.314 96.24V96.5C52.314 97.26 51.834 97.71 51.084 97.71ZM55.9125 98.5V95.84C55.9125 95.04 56.3725 94.52 57.1225 94.52C57.7525 94.52 58.1625 94.92 58.1625 95.75V98.5H59.3825V95.46C59.3825 94.18 58.7425 93.41 57.5025 93.41C56.8325 93.41 56.2325 93.7 55.9225 94.2L55.8225 93.56H54.6925V98.5H55.9125ZM60.0535 100.79C60.3235 100.86 60.6235 100.9 60.9635 100.9C61.7735 100.9 62.2935 100.52 62.6635 99.6L65.0835 93.56H63.8235L62.4835 97.16L61.2135 93.56H59.9235L61.9135 98.71L61.7735 99.08C61.5635 99.66 61.2635 99.77 60.7835 99.77H60.0535V100.79ZM69.2818 98.5L69.8718 96.81H72.6018L73.1918 98.5H74.5418L71.9018 91.19H70.5918L67.9518 98.5H69.2818ZM71.0818 93.37C71.1518 93.17 71.2118 92.95 71.2418 92.81C71.2618 92.96 71.3318 93.18 71.3918 93.37L72.2318 95.73H70.2518L71.0818 93.37ZM76.4984 98.5V95.84C76.4984 95.04 76.9584 94.52 77.7084 94.52C78.3384 94.52 78.7484 94.92 78.7484 95.75V98.5H79.9684V95.46C79.9684 94.18 79.3284 93.41 78.0884 93.41C77.4184 93.41 76.8184 93.7 76.5084 94.2L76.4084 93.56H75.2784V98.5H76.4984ZM82.3871 98.5V95.84C82.3871 95.04 82.8471 94.52 83.5971 94.52C84.2271 94.52 84.6371 94.92 84.6371 95.75V98.5H85.8571V95.46C85.8571 94.18 85.2171 93.41 83.9771 93.41C83.3071 93.41 82.7071 93.7 82.3971 94.2L82.2971 93.56H81.1671V98.5H82.3871ZM86.7658 96.02C86.7658 97.56 87.8758 98.62 89.4058 98.62C90.9358 98.62 92.0458 97.56 92.0458 96.02C92.0458 94.48 90.9358 93.42 89.4058 93.42C87.8758 93.42 86.7658 94.48 86.7658 96.02ZM87.9858 96.02C87.9858 95.12 88.5658 94.51 89.4058 94.51C90.2458 94.51 90.8258 95.12 90.8258 96.02C90.8258 96.92 90.2458 97.53 89.4058 97.53C88.5658 97.53 87.9858 96.92 87.9858 96.02ZM96.2456 93.56V96.15C96.2456 97.09 95.8756 97.54 95.1056 97.54C94.4256 97.54 94.0556 97.16 94.0556 96.22V93.56H92.8356V96.65C92.8356 97.86 93.5056 98.63 94.6456 98.63C95.3056 98.63 95.9456 98.31 96.2456 97.84L96.3356 98.5H97.4656V93.56H96.2456ZM99.9457 98.5V95.84C99.9457 95.04 100.406 94.52 101.156 94.52C101.786 94.52 102.196 94.92 102.196 95.75V98.5H103.416V95.46C103.416 94.18 102.776 93.41 101.536 93.41C100.866 93.41 100.266 93.7 99.9557 94.2L99.8557 93.56H98.7257V98.5H99.9457ZM104.324 96.02C104.324 97.59 105.304 98.63 106.804 98.63C108.094 98.63 109.054 97.84 109.204 96.69H107.974C107.844 97.23 107.414 97.53 106.804 97.53C106.024 97.53 105.544 96.95 105.544 96.02C105.544 95.09 106.064 94.5 106.844 94.5C107.424 94.5 107.834 94.79 107.974 95.35H109.194C109.064 94.16 108.144 93.41 106.794 93.41C105.334 93.41 104.324 94.49 104.324 96.02ZM112.322 98.63C113.612 98.63 114.512 97.98 114.722 96.9H113.592C113.452 97.37 113.012 97.63 112.342 97.63C111.532 97.63 111.072 97.19 110.982 96.32L114.702 96.31V95.94C114.702 94.4 113.762 93.41 112.282 93.41C110.832 93.41 109.822 94.48 109.822 96.03C109.822 97.56 110.852 98.63 112.322 98.63ZM112.292 94.41C113.022 94.41 113.492 94.86 113.492 95.54H111.012C111.132 94.8 111.572 94.41 112.292 94.41ZM116.899 98.5V95.7C116.899 94.9 117.369 94.52 117.949 94.52C118.529 94.52 118.899 94.89 118.899 95.58V98.5H120.119V95.7C120.119 94.89 120.569 94.51 121.159 94.51C121.739 94.51 122.119 94.88 122.119 95.59V98.5H123.329V95.27C123.329 94.13 122.669 93.41 121.469 93.41C120.719 93.41 120.139 93.78 119.889 94.35C119.629 93.78 119.109 93.41 118.359 93.41C117.649 93.41 117.149 93.73 116.899 94.14L116.799 93.56H115.679V98.5H116.899ZM126.736 98.63C128.026 98.63 128.926 97.98 129.136 96.9H128.006C127.866 97.37 127.426 97.63 126.756 97.63C125.946 97.63 125.486 97.19 125.396 96.32L129.116 96.31V95.94C129.116 94.4 128.176 93.41 126.696 93.41C125.246 93.41 124.236 94.48 124.236 96.03C124.236 97.56 125.266 98.63 126.736 98.63ZM126.706 94.41C127.436 94.41 127.906 94.86 127.906 95.54H125.426C125.546 94.8 125.986 94.41 126.706 94.41ZM131.313 98.5V95.84C131.313 95.04 131.773 94.52 132.523 94.52C133.153 94.52 133.563 94.92 133.563 95.75V98.5H134.783V95.46C134.783 94.18 134.143 93.41 132.903 93.41C132.233 93.41 131.633 93.7 131.323 94.2L131.223 93.56H130.093V98.5H131.313ZM137.662 98.5V94.58H138.622V93.56H137.662V92.02H136.442V93.56H135.492V94.58H136.442V98.5H137.662ZM139 97C139 97.97 139.78 98.63 141.01 98.63C142.23 98.63 143.08 98.01 143.08 97.01C143.08 96.25 142.66 95.87 141.83 95.68L140.94 95.47C140.52 95.37 140.3 95.19 140.3 94.91C140.3 94.54 140.58 94.32 141.06 94.32C141.53 94.32 141.81 94.59 141.82 95.01H142.98C142.97 94.05 142.22 93.41 141.11 93.41C139.97 93.41 139.15 93.99 139.15 94.96C139.15 95.75 139.58 96.17 140.47 96.37L141.36 96.58C141.8 96.68 141.93 96.86 141.93 97.11C141.93 97.47 141.62 97.7 141.05 97.7C140.49 97.7 140.17 97.43 140.16 97H139ZM22.07 123.5V118.32L25.51 123.5H26.77V116.19H25.51V121.37L22.08 116.19H20.81V123.5H22.07ZM27.9181 121.02C27.9181 122.56 29.0281 123.62 30.5581 123.62C32.0881 123.62 33.1981 122.56 33.1981 121.02C33.1981 119.48 32.0881 118.42 30.5581 118.42C29.0281 118.42 27.9181 119.48 27.9181 121.02ZM29.1381 121.02C29.1381 120.12 29.7181 119.51 30.5581 119.51C31.3981 119.51 31.9781 120.12 31.9781 121.02C31.9781 121.92 31.3981 122.53 30.5581 122.53C29.7181 122.53 29.1381 121.92 29.1381 121.02ZM35.7963 123.5V119.58H36.7563V118.56H35.7963V117.02H34.5763V118.56H33.6263V119.58H34.5763V123.5H35.7963ZM38.1248 117.57C38.5248 117.57 38.8548 117.24 38.8548 116.83C38.8548 116.42 38.5248 116.1 38.1248 116.1C37.7048 116.1 37.3748 116.42 37.3748 116.83C37.3748 117.24 37.7048 117.57 38.1248 117.57ZM37.5148 123.5H38.7348V118.56H37.5148V123.5ZM43.4452 123.5H44.6652V118.56H41.4252V117.96C41.4252 117.47 41.5652 117.15 42.1152 117.15H42.5452V116.11C42.3352 116.07 42.1052 116.06 41.9152 116.06C40.9152 116.06 40.2152 116.62 40.2152 117.96V118.56H39.5052V119.58H40.2152V123.5H41.4252V119.58H43.4452V123.5ZM44.0552 117.55C44.4552 117.55 44.7752 117.23 44.7752 116.82C44.7752 116.42 44.4552 116.1 44.0552 116.1C43.6452 116.1 43.3252 116.42 43.3252 116.82C43.3252 117.23 43.6452 117.55 44.0552 117.55ZM45.633 121.02C45.633 122.59 46.613 123.63 48.113 123.63C49.403 123.63 50.363 122.84 50.513 121.69H49.283C49.153 122.23 48.723 122.53 48.113 122.53C47.333 122.53 46.853 121.95 46.853 121.02C46.853 120.09 47.373 119.5 48.153 119.5C48.733 119.5 49.143 119.79 49.283 120.35H50.503C50.373 119.16 49.453 118.41 48.103 118.41C46.643 118.41 45.633 119.49 45.633 121.02ZM52.891 123.63C53.661 123.63 54.331 123.28 54.541 122.77L54.631 123.5H55.701V120.5C55.701 119.13 54.881 118.41 53.551 118.41C52.211 118.41 51.331 119.11 51.331 120.18H52.371C52.371 119.66 52.771 119.36 53.491 119.36C54.111 119.36 54.511 119.63 54.511 120.3V120.41L53.031 120.52C51.861 120.61 51.201 121.18 51.201 122.09C51.201 123.02 51.841 123.63 52.891 123.63ZM53.291 122.71C52.741 122.71 52.441 122.49 52.441 122.04C52.441 121.64 52.731 121.39 53.491 121.32L54.521 121.24V121.5C54.521 122.26 54.041 122.71 53.291 122.71ZM58.5112 123.5V119.58H59.4712V118.56H58.5112V117.02H57.2912V118.56H56.3412V119.58H57.2912V123.5H58.5112ZM60.8396 117.57C61.2396 117.57 61.5696 117.24 61.5696 116.83C61.5696 116.42 61.2396 116.1 60.8396 116.1C60.4196 116.1 60.0896 116.42 60.0896 116.83C60.0896 117.24 60.4196 117.57 60.8396 117.57ZM60.2296 123.5H61.4496V118.56H60.2296V123.5ZM62.4201 121.02C62.4201 122.56 63.5301 123.62 65.0601 123.62C66.5901 123.62 67.7001 122.56 67.7001 121.02C67.7001 119.48 66.5901 118.42 65.0601 118.42C63.5301 118.42 62.4201 119.48 62.4201 121.02ZM63.6401 121.02C63.6401 120.12 64.2201 119.51 65.0601 119.51C65.9001 119.51 66.4801 120.12 66.4801 121.02C66.4801 121.92 65.9001 122.53 65.0601 122.53C64.2201 122.53 63.6401 121.92 63.6401 121.02ZM69.8871 123.5V120.84C69.8871 120.04 70.3471 119.52 71.0971 119.52C71.7271 119.52 72.1371 119.92 72.1371 120.75V123.5H73.3571V120.46C73.3571 119.18 72.7171 118.41 71.4771 118.41C70.8071 118.41 70.2071 118.7 69.8971 119.2L69.7971 118.56H68.6671V123.5H69.8871ZM74.1172 122C74.1172 122.97 74.8972 123.63 76.1272 123.63C77.3472 123.63 78.1972 123.01 78.1972 122.01C78.1972 121.25 77.7772 120.87 76.9472 120.68L76.0572 120.47C75.6372 120.37 75.4172 120.19 75.4172 119.91C75.4172 119.54 75.6972 119.32 76.1772 119.32C76.6472 119.32 76.9272 119.59 76.9372 120.01H78.0972C78.0872 119.05 77.3372 118.41 76.2272 118.41C75.0872 118.41 74.2672 118.99 74.2672 119.96C74.2672 120.75 74.6972 121.17 75.5872 121.37L76.4772 121.58C76.9172 121.68 77.0472 121.86 77.0472 122.11C77.0472 122.47 76.7372 122.7 76.1672 122.7C75.6072 122.7 75.2872 122.43 75.2772 122H74.1172ZM25.35 148.5V147.32H22.09V145.38H25.01V144.25H22.09V142.37H25.35V141.19H20.81V148.5H25.35ZM27.7777 148.5V145.7C27.7777 144.9 28.2477 144.52 28.8277 144.52C29.4077 144.52 29.7777 144.89 29.7777 145.58V148.5H30.9977V145.7C30.9977 144.89 31.4477 144.51 32.0377 144.51C32.6177 144.51 32.9977 144.88 32.9977 145.59V148.5H34.2077V145.27C34.2077 144.13 33.5477 143.41 32.3477 143.41C31.5977 143.41 31.0177 143.78 30.7677 144.35C30.5077 143.78 29.9877 143.41 29.2377 143.41C28.5277 143.41 28.0277 143.73 27.7777 144.14L27.6777 143.56H26.5577V148.5H27.7777ZM35.4054 150.79H36.6254V147.84C36.9354 148.34 37.5754 148.63 38.3154 148.63C39.7854 148.63 40.6254 147.51 40.6254 145.97C40.6254 144.42 39.7054 143.41 38.3154 143.41C37.5654 143.41 36.9154 143.74 36.6154 144.31L36.5354 143.56H35.4054V150.79ZM36.6354 146.03C36.6354 145.14 37.1854 144.52 38.0254 144.52C38.8854 144.52 39.3954 145.15 39.3954 146.03C39.3954 146.91 38.8854 147.53 38.0254 147.53C37.1854 147.53 36.6354 146.92 36.6354 146.03ZM42.8268 148.5V141.06H41.6168V148.5H42.8268ZM43.8166 146.02C43.8166 147.56 44.9266 148.62 46.4566 148.62C47.9866 148.62 49.0966 147.56 49.0966 146.02C49.0966 144.48 47.9866 143.42 46.4566 143.42C44.9266 143.42 43.8166 144.48 43.8166 146.02ZM45.0366 146.02C45.0366 145.12 45.6166 144.51 46.4566 144.51C47.2966 144.51 47.8766 145.12 47.8766 146.02C47.8766 146.92 47.2966 147.53 46.4566 147.53C45.6166 147.53 45.0366 146.92 45.0366 146.02ZM49.448 150.79C49.718 150.86 50.018 150.9 50.358 150.9C51.168 150.9 51.688 150.52 52.058 149.6L54.478 143.56H53.218L51.878 147.16L50.608 143.56H49.318L51.308 148.71L51.168 149.08C50.958 149.66 50.658 149.77 50.178 149.77H49.448V150.79ZM57.1564 148.63C58.4464 148.63 59.3464 147.98 59.5564 146.9H58.4264C58.2864 147.37 57.8464 147.63 57.1764 147.63C56.3664 147.63 55.9064 147.19 55.8164 146.32L59.5364 146.31V145.94C59.5364 144.4 58.5964 143.41 57.1164 143.41C55.6664 143.41 54.6564 144.48 54.6564 146.03C54.6564 147.56 55.6864 148.63 57.1564 148.63ZM57.1264 144.41C57.8564 144.41 58.3264 144.86 58.3264 145.54H55.8464C55.9664 144.8 56.4064 144.41 57.1264 144.41ZM62.7228 148.63C64.0128 148.63 64.9128 147.98 65.1228 146.9H63.9928C63.8528 147.37 63.4128 147.63 62.7428 147.63C61.9328 147.63 61.4728 147.19 61.3828 146.32L65.1028 146.31V145.94C65.1028 144.4 64.1628 143.41 62.6828 143.41C61.2328 143.41 60.2228 144.48 60.2228 146.03C60.2228 147.56 61.2528 148.63 62.7228 148.63ZM62.6928 144.41C63.4228 144.41 63.8928 144.86 63.8928 145.54H61.4128C61.5328 144.8 61.9728 144.41 62.6928 144.41ZM68.5345 143.23C68.5345 144.35 69.1845 145.06 70.4245 145.33L71.5845 145.59C72.1845 145.72 72.4345 146.01 72.4345 146.5C72.4345 147.11 71.8945 147.48 71.0445 147.48C70.2245 147.48 69.7245 147.11 69.7145 146.49H68.4345C68.4645 147.8 69.4845 148.63 71.0445 148.63C72.6545 148.63 73.7145 147.75 73.7145 146.39C73.7145 145.3 73.1045 144.66 71.8545 144.39L70.7045 144.14C70.0945 144 69.8145 143.71 69.8145 143.19C69.8145 142.58 70.3245 142.2 71.1145 142.2C71.8345 142.2 72.2845 142.57 72.3145 143.2H73.5945C73.5545 141.88 72.6145 141.06 71.1345 141.06C69.5945 141.06 68.5345 141.95 68.5345 143.23ZM76.9025 148.63C78.1925 148.63 79.0925 147.98 79.3025 146.9H78.1725C78.0325 147.37 77.5925 147.63 76.9225 147.63C76.1125 147.63 75.6525 147.19 75.5625 146.32L79.2825 146.31V145.94C79.2825 144.4 78.3425 143.41 76.8625 143.41C75.4125 143.41 74.4025 144.48 74.4025 146.03C74.4025 147.56 75.4325 148.63 76.9025 148.63ZM76.8725 144.41C77.6025 144.41 78.0725 144.86 78.0725 145.54H75.5925C75.7125 144.8 76.1525 144.41 76.8725 144.41ZM81.4889 148.5V141.06H80.2789V148.5H81.4889ZM82.2787 143.56V144.58H82.9887V148.5H84.1987V144.58H85.3787V143.56H84.1987V142.96C84.1987 142.47 84.3487 142.15 84.9687 142.15H85.3987V141.11C85.1887 141.07 84.9587 141.06 84.7687 141.06C83.6987 141.06 82.9887 141.62 82.9887 142.96V143.56H82.2787ZM88.6127 143.23C88.6127 144.35 89.2627 145.06 90.5027 145.33L91.6627 145.59C92.2627 145.72 92.5127 146.01 92.5127 146.5C92.5127 147.11 91.9727 147.48 91.1227 147.48C90.3027 147.48 89.8027 147.11 89.7927 146.49H88.5127C88.5427 147.8 89.5627 148.63 91.1227 148.63C92.7327 148.63 93.7927 147.75 93.7927 146.39C93.7927 145.3 93.1827 144.66 91.9327 144.39L90.7827 144.14C90.1727 144 89.8927 143.71 89.8927 143.19C89.8927 142.58 90.4027 142.2 91.1927 142.2C91.9127 142.2 92.3627 142.57 92.3927 143.2H93.6727C93.6327 141.88 92.6927 141.06 91.2127 141.06C89.6727 141.06 88.6127 141.95 88.6127 143.23ZM96.9806 148.63C98.2706 148.63 99.1706 147.98 99.3806 146.9H98.2506C98.1106 147.37 97.6706 147.63 97.0006 147.63C96.1906 147.63 95.7306 147.19 95.6406 146.32L99.3606 146.31V145.94C99.3606 144.4 98.4206 143.41 96.9406 143.41C95.4906 143.41 94.4806 144.48 94.4806 146.03C94.4806 147.56 95.5106 148.63 96.9806 148.63ZM96.9506 144.41C97.6806 144.41 98.1506 144.86 98.1506 145.54H95.6706C95.7906 144.8 96.2306 144.41 96.9506 144.41ZM103.437 143.54C103.237 143.49 103.067 143.47 102.897 143.47C102.237 143.47 101.767 143.8 101.557 144.29L101.487 143.57H100.337V148.5H101.557V146.1C101.557 145.14 102.107 144.67 102.987 144.67H103.437V143.54ZM105.809 148.5H107.009L109.069 143.56H107.809L106.909 145.83C106.699 146.37 106.519 146.89 106.449 147.2C106.389 146.93 106.219 146.42 106.009 145.83L105.149 143.56H103.849L105.809 148.5ZM110.381 142.57C110.781 142.57 111.111 142.24 111.111 141.83C111.111 141.42 110.781 141.1 110.381 141.1C109.961 141.1 109.631 141.42 109.631 141.83C109.631 142.24 109.961 142.57 110.381 142.57ZM109.771 148.5H110.991V143.56H109.771V148.5ZM111.961 146.02C111.961 147.59 112.941 148.63 114.441 148.63C115.731 148.63 116.691 147.84 116.841 146.69H115.611C115.481 147.23 115.051 147.53 114.441 147.53C113.661 147.53 113.181 146.95 113.181 146.02C113.181 145.09 113.701 144.5 114.481 144.5C115.061 144.5 115.471 144.79 115.611 145.35H116.831C116.701 144.16 115.781 143.41 114.431 143.41C112.971 143.41 111.961 144.49 111.961 146.02ZM119.959 148.63C121.249 148.63 122.149 147.98 122.359 146.9H121.229C121.089 147.37 120.649 147.63 119.979 147.63C119.169 147.63 118.709 147.19 118.619 146.32L122.339 146.31V145.94C122.339 144.4 121.399 143.41 119.919 143.41C118.469 143.41 117.459 144.48 117.459 146.03C117.459 147.56 118.489 148.63 119.959 148.63ZM119.929 144.41C120.659 144.41 121.129 144.86 121.129 145.54H118.649C118.769 144.8 119.209 144.41 119.929 144.41ZM22.09 172.5V169.4H25.33V172.5H26.61V165.19H25.33V168.21H22.09V165.19H20.81V172.5H22.09ZM29.5119 172.5V169.77H31.0819L32.3219 172.5H33.7219L32.3319 169.5C33.1919 169.15 33.6519 168.45 33.6519 167.47C33.6519 166.03 32.6819 165.19 31.0219 165.19H28.2319V172.5H29.5119ZM29.5119 166.33H31.0219C31.8319 166.33 32.3119 166.74 32.3119 167.47C32.3119 168.21 31.8319 168.64 31.0219 168.64H29.5119V166.33ZM38.9064 172.5V169.77H40.4764L41.7164 172.5H43.1164L41.7264 169.5C42.5864 169.15 43.0464 168.45 43.0464 167.47C43.0464 166.03 42.0764 165.19 40.4164 165.19H37.6264V172.5H38.9064ZM38.9064 166.33H40.4164C41.2264 166.33 41.7064 166.74 41.7064 167.47C41.7064 168.21 41.2264 168.64 40.4164 168.64H38.9064V166.33ZM46.0041 172.63C47.2941 172.63 48.1941 171.98 48.4041 170.9H47.2741C47.1341 171.37 46.6941 171.63 46.0241 171.63C45.2141 171.63 44.7541 171.19 44.6641 170.32L48.3841 170.31V169.94C48.3841 168.4 47.4441 167.41 45.9641 167.41C44.5141 167.41 43.5041 168.48 43.5041 170.03C43.5041 171.56 44.5341 172.63 46.0041 172.63ZM45.9741 168.41C46.7041 168.41 47.1741 168.86 47.1741 169.54H44.6941C44.8141 168.8 45.2541 168.41 45.9741 168.41ZM49.0705 169.97C49.0705 171.51 49.9105 172.63 51.3805 172.63C52.1105 172.63 52.7605 172.34 53.0705 171.84V174.79H54.2805V167.56H53.1605L53.0805 168.31C52.7805 167.74 52.1305 167.41 51.3805 167.41C49.9905 167.41 49.0705 168.42 49.0705 169.97ZM50.2905 170.03C50.2905 169.15 50.8105 168.52 51.6605 168.52C52.5105 168.52 53.0605 169.14 53.0605 170.03C53.0605 170.92 52.5105 171.53 51.6605 171.53C50.8105 171.53 50.2905 170.91 50.2905 170.03ZM58.9019 167.56V170.15C58.9019 171.09 58.5319 171.54 57.7619 171.54C57.0819 171.54 56.7119 171.16 56.7119 170.22V167.56H55.4919V170.65C55.4919 171.86 56.1619 172.63 57.3019 172.63C57.9619 172.63 58.6019 172.31 58.9019 171.84L58.9919 172.5H60.1219V167.56H58.9019ZM63.4943 172.63C64.7843 172.63 65.6843 171.98 65.8943 170.9H64.7643C64.6243 171.37 64.1843 171.63 63.5143 171.63C62.7043 171.63 62.2443 171.19 62.1543 170.32L65.8743 170.31V169.94C65.8743 168.4 64.9343 167.41 63.4543 167.41C62.0043 167.41 60.9943 168.48 60.9943 170.03C60.9943 171.56 62.0243 172.63 63.4943 172.63ZM63.4643 168.41C64.1943 168.41 64.6643 168.86 64.6643 169.54H62.1843C62.3043 168.8 62.7443 168.41 63.4643 168.41ZM66.4707 171C66.4707 171.97 67.2507 172.63 68.4807 172.63C69.7007 172.63 70.5507 172.01 70.5507 171.01C70.5507 170.25 70.1307 169.87 69.3007 169.68L68.4107 169.47C67.9907 169.37 67.7707 169.19 67.7707 168.91C67.7707 168.54 68.0507 168.32 68.5307 168.32C69.0007 168.32 69.2807 168.59 69.2907 169.01H70.4507C70.4407 168.05 69.6907 167.41 68.5807 167.41C67.4407 167.41 66.6207 167.99 66.6207 168.96C66.6207 169.75 67.0507 170.17 67.9407 170.37L68.8307 170.58C69.2707 170.68 69.4007 170.86 69.4007 171.11C69.4007 171.47 69.0907 171.7 68.5207 171.7C67.9607 171.7 67.6407 171.43 67.6307 171H66.4707ZM73.1596 172.5V168.58H74.1196V167.56H73.1596V166.02H71.9396V167.56H70.9896V168.58H71.9396V172.5H73.1596ZM74.498 171C74.498 171.97 75.278 172.63 76.508 172.63C77.728 172.63 78.578 172.01 78.578 171.01C78.578 170.25 78.158 169.87 77.328 169.68L76.438 169.47C76.018 169.37 75.798 169.19 75.798 168.91C75.798 168.54 76.078 168.32 76.558 168.32C77.028 168.32 77.308 168.59 77.318 169.01H78.478C78.468 168.05 77.718 167.41 76.608 167.41C75.468 167.41 74.648 167.99 74.648 168.96C74.648 169.75 75.078 170.17 75.968 170.37L76.858 170.58C77.298 170.68 77.428 170.86 77.428 171.11C77.428 171.47 77.118 171.7 76.548 171.7C75.988 171.7 75.668 171.43 75.658 171H74.498ZM20.17 191.37H22.31V197.5H23.59V191.37H25.73V190.19H20.17V191.37ZM27.1384 191.57C27.5384 191.57 27.8684 191.24 27.8684 190.83C27.8684 190.42 27.5384 190.1 27.1384 190.1C26.7184 190.1 26.3884 190.42 26.3884 190.83C26.3884 191.24 26.7184 191.57 27.1384 191.57ZM26.5284 197.5H27.7484V192.56H26.5284V197.5ZM30.2289 197.5V194.7C30.2289 193.9 30.6989 193.52 31.2789 193.52C31.8589 193.52 32.2289 193.89 32.2289 194.58V197.5H33.4489V194.7C33.4489 193.89 33.8989 193.51 34.4889 193.51C35.0689 193.51 35.4489 193.88 35.4489 194.59V197.5H36.6589V194.27C36.6589 193.13 35.9989 192.41 34.7989 192.41C34.0489 192.41 33.4689 192.78 33.2189 193.35C32.9589 192.78 32.4389 192.41 31.6889 192.41C30.9789 192.41 30.4789 192.73 30.2289 193.14L30.1289 192.56H29.0089V197.5H30.2289ZM40.0666 197.63C41.3566 197.63 42.2566 196.98 42.4666 195.9H41.3366C41.1966 196.37 40.7566 196.63 40.0866 196.63C39.2766 196.63 38.8166 196.19 38.7266 195.32L42.4466 195.31V194.94C42.4466 193.4 41.5066 192.41 40.0266 192.41C38.5766 192.41 37.5666 193.48 37.5666 195.03C37.5666 196.56 38.5966 197.63 40.0666 197.63ZM40.0366 193.41C40.7666 193.41 41.2366 193.86 41.2366 194.54H38.7566C38.8766 193.8 39.3166 193.41 40.0366 193.41ZM47.5783 197.5V194.77H49.1483L50.3883 197.5H51.7883L50.3983 194.5C51.2583 194.15 51.7183 193.45 51.7183 192.47C51.7183 191.03 50.7483 190.19 49.0883 190.19H46.2983V197.5H47.5783ZM47.5783 191.33H49.0883C49.8983 191.33 50.3783 191.74 50.3783 192.47C50.3783 193.21 49.8983 193.64 49.0883 193.64H47.5783V191.33ZM54.6759 197.63C55.9659 197.63 56.8659 196.98 57.0759 195.9H55.9459C55.8059 196.37 55.3659 196.63 54.6959 196.63C53.8859 196.63 53.4259 196.19 53.3359 195.32L57.0559 195.31V194.94C57.0559 193.4 56.1159 192.41 54.6359 192.41C53.1859 192.41 52.1759 193.48 52.1759 195.03C52.1759 196.56 53.2059 197.63 54.6759 197.63ZM54.6459 193.41C55.3759 193.41 55.8459 193.86 55.8459 194.54H53.3659C53.4859 193.8 53.9259 193.41 54.6459 193.41ZM57.7423 194.97C57.7423 196.51 58.5823 197.63 60.0523 197.63C60.7823 197.63 61.4323 197.34 61.7423 196.84V199.79H62.9523V192.56H61.8323L61.7523 193.31C61.4523 192.74 60.8023 192.41 60.0523 192.41C58.6623 192.41 57.7423 193.42 57.7423 194.97ZM58.9623 195.03C58.9623 194.15 59.4823 193.52 60.3323 193.52C61.1823 193.52 61.7323 194.14 61.7323 195.03C61.7323 195.92 61.1823 196.53 60.3323 196.53C59.4823 196.53 58.9623 195.91 58.9623 195.03ZM67.5738 192.56V195.15C67.5738 196.09 67.2038 196.54 66.4338 196.54C65.7538 196.54 65.3838 196.16 65.3838 195.22V192.56H64.1638V195.65C64.1638 196.86 64.8338 197.63 65.9738 197.63C66.6338 197.63 67.2738 197.31 67.5738 196.84L67.6638 197.5H68.7938V192.56H67.5738ZM72.1662 197.63C73.4562 197.63 74.3562 196.98 74.5662 195.9H73.4362C73.2962 196.37 72.8562 196.63 72.1862 196.63C71.3762 196.63 70.9162 196.19 70.8262 195.32L74.5462 195.31V194.94C74.5462 193.4 73.6062 192.41 72.1262 192.41C70.6762 192.41 69.6662 193.48 69.6662 195.03C69.6662 196.56 70.6962 197.63 72.1662 197.63ZM72.1362 193.41C72.8662 193.41 73.3362 193.86 73.3362 194.54H70.8562C70.9762 193.8 71.4162 193.41 72.1362 193.41ZM75.1426 196C75.1426 196.97 75.9226 197.63 77.1526 197.63C78.3726 197.63 79.2226 197.01 79.2226 196.01C79.2226 195.25 78.8026 194.87 77.9726 194.68L77.0826 194.47C76.6626 194.37 76.4426 194.19 76.4426 193.91C76.4426 193.54 76.7226 193.32 77.2026 193.32C77.6726 193.32 77.9526 193.59 77.9626 194.01H79.1226C79.1126 193.05 78.3626 192.41 77.2526 192.41C76.1126 192.41 75.2926 192.99 75.2926 193.96C75.2926 194.75 75.7226 195.17 76.6126 195.37L77.5026 195.58C77.9426 195.68 78.0726 195.86 78.0726 196.11C78.0726 196.47 77.7626 196.7 77.1926 196.7C76.6326 196.7 76.3126 196.43 76.3026 196H75.1426ZM81.8315 197.5V193.58H82.7915V192.56H81.8315V191.02H80.6115V192.56H79.6615V193.58H80.6115V197.5H81.8315ZM83.1699 196C83.1699 196.97 83.9499 197.63 85.1799 197.63C86.3999 197.63 87.2499 197.01 87.2499 196.01C87.2499 195.25 86.8299 194.87 85.9999 194.68L85.1099 194.47C84.6899 194.37 84.4699 194.19 84.4699 193.91C84.4699 193.54 84.7499 193.32 85.2299 193.32C85.6999 193.32 85.9799 193.59 85.9899 194.01H87.1499C87.1399 193.05 86.3899 192.41 85.2799 192.41C84.1399 192.41 83.3199 192.99 83.3199 193.96C83.3199 194.75 83.7499 195.17 84.6399 195.37L85.5299 195.58C85.9699 195.68 86.0999 195.86 86.0999 196.11C86.0999 196.47 85.7899 196.7 85.2199 196.7C84.6599 196.7 84.3399 196.43 84.3299 196H83.1699ZM23.9 222.62C25.63 222.62 26.97 221.6 27.25 220.06H25.92C25.68 220.87 24.92 221.39 23.93 221.39C22.59 221.39 21.73 220.39 21.73 218.84C21.73 217.28 22.58 216.3 23.93 216.3C24.9 216.3 25.63 216.8 25.88 217.65H27.23C26.98 216.08 25.69 215.07 23.96 215.07C21.82 215.07 20.39 216.58 20.39 218.85C20.39 221.14 21.77 222.62 23.9 222.62ZM31.5679 217.56V220.15C31.5679 221.09 31.1979 221.54 30.4279 221.54C29.7479 221.54 29.3779 221.16 29.3779 220.22V217.56H28.1579V220.65C28.1579 221.86 28.8279 222.63 29.9679 222.63C30.6279 222.63 31.2679 222.31 31.5679 221.84L31.6579 222.5H32.7879V217.56H31.5679ZM33.5703 221C33.5703 221.97 34.3503 222.63 35.5803 222.63C36.8003 222.63 37.6503 222.01 37.6503 221.01C37.6503 220.25 37.2303 219.87 36.4003 219.68L35.5103 219.47C35.0903 219.37 34.8703 219.19 34.8703 218.91C34.8703 218.54 35.1503 218.32 35.6303 218.32C36.1003 218.32 36.3803 218.59 36.3903 219.01H37.5503C37.5403 218.05 36.7903 217.41 35.6803 217.41C34.5403 217.41 33.7203 217.99 33.7203 218.96C33.7203 219.75 34.1503 220.17 35.0403 220.37L35.9303 220.58C36.3703 220.68 36.5003 220.86 36.5003 221.11C36.5003 221.47 36.1903 221.7 35.6203 221.7C35.0603 221.7 34.7403 221.43 34.7303 221H33.5703ZM40.2592 222.5V218.58H41.2192V217.56H40.2592V216.02H39.0392V217.56H38.0892V218.58H39.0392V222.5H40.2592ZM41.6388 220.02C41.6388 221.56 42.7488 222.62 44.2788 222.62C45.8088 222.62 46.9188 221.56 46.9188 220.02C46.9188 218.48 45.8088 217.42 44.2788 217.42C42.7488 217.42 41.6388 218.48 41.6388 220.02ZM42.8588 220.02C42.8588 219.12 43.4388 218.51 44.2788 218.51C45.1188 218.51 45.6988 219.12 45.6988 220.02C45.6988 220.92 45.1188 221.53 44.2788 221.53C43.4388 221.53 42.8588 220.92 42.8588 220.02ZM49.1059 222.5V219.7C49.1059 218.9 49.5759 218.52 50.1559 218.52C50.7359 218.52 51.1059 218.89 51.1059 219.58V222.5H52.3259V219.7C52.3259 218.89 52.7759 218.51 53.3659 218.51C53.9459 218.51 54.3259 218.88 54.3259 219.59V222.5H55.5359V219.27C55.5359 218.13 54.8759 217.41 53.6759 217.41C52.9259 217.41 52.3459 217.78 52.0959 218.35C51.8359 217.78 51.3159 217.41 50.5659 217.41C49.8559 217.41 49.3559 217.73 49.1059 218.14L49.0059 217.56H47.8859V222.5H49.1059ZM61.1288 222.5H62.3888L63.9788 217.18L65.5388 222.5H66.7788L68.9988 215.19H67.6988L66.5188 219.06C66.4088 219.43 66.3088 219.82 66.1688 220.5C66.0488 219.88 65.9388 219.46 65.8188 219.05L64.6888 215.19H63.2788L62.1288 219.05C61.9988 219.47 61.8888 219.85 61.7688 220.5C61.6588 219.86 61.5488 219.45 61.4388 219.05L60.2788 215.19H58.9488L61.1288 222.5ZM68.7775 220.02C68.7775 221.56 69.8875 222.62 71.4175 222.62C72.9475 222.62 74.0575 221.56 74.0575 220.02C74.0575 218.48 72.9475 217.42 71.4175 217.42C69.8875 217.42 68.7775 218.48 68.7775 220.02ZM69.9975 220.02C69.9975 219.12 70.5775 218.51 71.4175 218.51C72.2575 218.51 72.8375 219.12 72.8375 220.02C72.8375 220.92 72.2575 221.53 71.4175 221.53C70.5775 221.53 69.9975 220.92 69.9975 220.02ZM78.1245 217.54C77.9245 217.49 77.7545 217.47 77.5845 217.47C76.9245 217.47 76.4545 217.8 76.2445 218.29L76.1745 217.57H75.0245V222.5H76.2445V220.1C76.2445 219.14 76.7945 218.67 77.6745 218.67H78.1245V217.54ZM80.1803 222.5V221.17L80.9003 220.42L82.1903 222.5H83.5903L81.7503 219.52L83.6303 217.56H82.1003L80.1803 219.63V215.06H78.9703V222.5H80.1803ZM83.8412 217.56V218.58H84.5512V222.5H85.7612V218.58H87.7312V222.5H88.9512V215.06H87.7312V217.56H85.7612V216.96C85.7612 216.47 85.8812 216.15 86.4312 216.15H86.8612V215.11C86.6512 215.07 86.4212 215.06 86.2312 215.06C85.2312 215.06 84.5512 215.62 84.5512 216.96V217.56H83.8412ZM89.9396 220.02C89.9396 221.56 91.0496 222.62 92.5796 222.62C94.1096 222.62 95.2196 221.56 95.2196 220.02C95.2196 218.48 94.1096 217.42 92.5796 217.42C91.0496 217.42 89.9396 218.48 89.9396 220.02ZM91.1596 220.02C91.1596 219.12 91.7396 218.51 92.5796 218.51C93.4196 218.51 93.9996 219.12 93.9996 220.02C93.9996 220.92 93.4196 221.53 92.5796 221.53C91.7396 221.53 91.1596 220.92 91.1596 220.02ZM97.0325 222.5H98.2225L98.9025 220.38C99.1525 219.57 99.2425 219.22 99.2925 218.99C99.3325 219.24 99.4425 219.71 99.6425 220.36L100.323 222.5H101.463L103.173 217.56H101.883L101.223 219.68C101.133 219.99 100.973 220.58 100.893 220.95C100.833 220.62 100.633 219.88 100.573 219.68L99.9125 217.56H98.6725L97.9925 219.68C97.8325 220.17 97.7425 220.48 97.6525 220.96C97.5625 220.5 97.4625 220.07 97.3525 219.68L96.7025 217.56H95.4325L97.0325 222.5ZM103.424 221C103.424 221.97 104.204 222.63 105.434 222.63C106.654 222.63 107.504 222.01 107.504 221.01C107.504 220.25 107.084 219.87 106.254 219.68L105.364 219.47C104.944 219.37 104.724 219.19 104.724 218.91C104.724 218.54 105.004 218.32 105.484 218.32C105.954 218.32 106.234 218.59 106.244 219.01H107.404C107.394 218.05 106.644 217.41 105.534 217.41C104.394 217.41 103.574 217.99 103.574 218.96C103.574 219.75 104.004 220.17 104.894 220.37L105.784 220.58C106.224 220.68 106.354 220.86 106.354 221.11C106.354 221.47 106.044 221.7 105.474 221.7C104.914 221.7 104.594 221.43 104.584 221H103.424ZM20.39 242.23C20.39 243.35 21.04 244.06 22.28 244.33L23.44 244.59C24.04 244.72 24.29 245.01 24.29 245.5C24.29 246.11 23.75 246.48 22.9 246.48C22.08 246.48 21.58 246.11 21.57 245.49H20.29C20.32 246.8 21.34 247.63 22.9 247.63C24.51 247.63 25.57 246.75 25.57 245.39C25.57 244.3 24.96 243.66 23.71 243.39L22.56 243.14C21.95 243 21.67 242.71 21.67 242.19C21.67 241.58 22.18 241.2 22.97 241.2C23.69 241.2 24.14 241.57 24.17 242.2H25.45C25.41 240.88 24.47 240.06 22.99 240.06C21.45 240.06 20.39 240.95 20.39 242.23ZM29.898 242.56V245.15C29.898 246.09 29.528 246.54 28.758 246.54C28.078 246.54 27.708 246.16 27.708 245.22V242.56H26.488V245.65C26.488 246.86 27.158 247.63 28.298 247.63C28.958 247.63 29.598 247.31 29.898 246.84L29.988 247.5H31.118V242.56H29.898ZM35.478 242.54C35.278 242.49 35.108 242.47 34.938 242.47C34.278 242.47 33.808 242.8 33.598 243.29L33.528 242.57H32.378V247.5H33.598V245.1C33.598 244.14 34.148 243.67 35.028 243.67H35.478V242.54ZM37.8503 247.5H39.0503L41.1103 242.56H39.8503L38.9503 244.83C38.7403 245.37 38.5603 245.89 38.4903 246.2C38.4303 245.93 38.2603 245.42 38.0503 244.83L37.1903 242.56H35.8903L37.8503 247.5ZM43.7775 247.63C45.0675 247.63 45.9675 246.98 46.1775 245.9H45.0475C44.9075 246.37 44.4675 246.63 43.7975 246.63C42.9875 246.63 42.5275 246.19 42.4375 245.32L46.1575 245.31V244.94C46.1575 243.4 45.2175 242.41 43.7375 242.41C42.2875 242.41 41.2775 243.48 41.2775 245.03C41.2775 246.56 42.3075 247.63 43.7775 247.63ZM43.7475 243.41C44.4775 243.41 44.9475 243.86 44.9475 244.54H42.4675C42.5875 243.8 43.0275 243.41 43.7475 243.41ZM46.5379 249.79C46.8079 249.86 47.1079 249.9 47.4479 249.9C48.2579 249.9 48.7779 249.52 49.1479 248.6L51.5679 242.56H50.3079L48.9679 246.16L47.6979 242.56H46.4079L48.3979 247.71L48.2579 248.08C48.0479 248.66 47.7479 248.77 47.2679 248.77H46.5379V249.79ZM51.7734 246C51.7734 246.97 52.5534 247.63 53.7834 247.63C55.0034 247.63 55.8534 247.01 55.8534 246.01C55.8534 245.25 55.4334 244.87 54.6034 244.68L53.7134 244.47C53.2934 244.37 53.0734 244.19 53.0734 243.91C53.0734 243.54 53.3534 243.32 53.8334 243.32C54.3034 243.32 54.5834 243.59 54.5934 244.01H55.7534C55.7434 243.05 54.9934 242.41 53.8834 242.41C52.7434 242.41 51.9234 242.99 51.9234 243.96C51.9234 244.75 52.3534 245.17 53.2434 245.37L54.1334 245.58C54.5734 245.68 54.7034 245.86 54.7034 246.11C54.7034 246.47 54.3934 246.7 53.8234 246.7C53.2634 246.7 52.9434 246.43 52.9334 246H51.7734ZM64.3549 247.5H65.7749L64.5849 246.16C64.9549 245.58 65.1549 244.85 65.1549 244H63.9649C63.9649 244.48 63.8949 244.9 63.7649 245.25L62.2949 243.6C63.2049 242.99 63.5949 242.41 63.5949 241.68C63.5949 240.73 62.8549 240.07 61.7849 240.07C60.7049 240.07 59.9149 240.77 59.9149 241.74C59.9149 242.29 60.1349 242.74 60.7049 243.4C59.5849 243.94 59.0049 244.67 59.0049 245.56C59.0049 246.79 60.0749 247.63 61.6649 247.63C62.5449 247.63 63.2849 247.39 63.8649 246.95L64.3549 247.5ZM61.0749 241.73C61.0749 241.3 61.3449 241.04 61.7849 241.04C62.2049 241.04 62.4649 241.29 62.4649 241.72C62.4649 242.22 62.2149 242.63 61.7049 242.93C61.2349 242.39 61.0749 242.09 61.0749 241.73ZM60.2949 245.44C60.2949 244.87 60.6049 244.45 61.2949 244.06L63.1549 246.15C62.8049 246.43 62.3549 246.58 61.8049 246.58C60.8649 246.58 60.2949 246.15 60.2949 245.44ZM73.0131 244.51V243.36H70.2931V241.37H73.5331V240.19H69.0131V247.5H70.2931V244.51H73.0131ZM76.3361 247.63C77.6261 247.63 78.5261 246.98 78.7361 245.9H77.6061C77.4661 246.37 77.0261 246.63 76.3561 246.63C75.5461 246.63 75.0861 246.19 74.9961 245.32L78.7161 245.31V244.94C78.7161 243.4 77.7761 242.41 76.2961 242.41C74.8461 242.41 73.8361 243.48 73.8361 245.03C73.8361 246.56 74.8661 247.63 76.3361 247.63ZM76.3061 243.41C77.0361 243.41 77.5061 243.86 77.5061 244.54H75.0261C75.1461 243.8 75.5861 243.41 76.3061 243.41ZM81.9025 247.63C83.1925 247.63 84.0925 246.98 84.3025 245.9H83.1725C83.0325 246.37 82.5925 246.63 81.9225 246.63C81.1125 246.63 80.6525 246.19 80.5625 245.32L84.2825 245.31V244.94C84.2825 243.4 83.3425 242.41 81.8625 242.41C80.4125 242.41 79.4025 243.48 79.4025 245.03C79.4025 246.56 80.4325 247.63 81.9025 247.63ZM81.8725 243.41C82.6025 243.41 83.0725 243.86 83.0725 244.54H80.5925C80.7125 243.8 81.1525 243.41 81.8725 243.41ZM87.2889 247.63C88.0389 247.63 88.6789 247.3 88.9789 246.73L89.0589 247.5H90.1789V240.06H88.9689V243.19C88.6589 242.7 88.0489 242.41 87.3589 242.41C85.8689 242.41 84.9689 243.51 84.9689 245.05C84.9689 246.58 85.8589 247.63 87.2889 247.63ZM87.5589 246.51C86.7089 246.51 86.1889 245.89 86.1889 245.01C86.1889 244.13 86.7089 243.5 87.5589 243.5C88.4089 243.5 88.9589 244.12 88.9589 245.01C88.9589 245.9 88.4089 246.51 87.5589 246.51ZM92.5803 247.5L92.6603 246.73C92.9503 247.3 93.5803 247.63 94.3203 247.63C95.7403 247.63 96.6703 246.58 96.6703 245.06C96.6703 243.5 95.8103 242.4 94.4003 242.4C93.6503 242.4 92.9903 242.73 92.6703 243.28V240.06H91.4503V247.5H92.5803ZM92.6803 245.01C92.6803 244.12 93.2303 243.5 94.0703 243.5C94.9303 243.5 95.4403 244.13 95.4403 245.01C95.4403 245.89 94.9303 246.51 94.0703 246.51C93.2303 246.51 92.6803 245.9 92.6803 245.01ZM99.1117 247.63C99.8817 247.63 100.552 247.28 100.762 246.77L100.852 247.5H101.922V244.5C101.922 243.13 101.102 242.41 99.7717 242.41C98.4317 242.41 97.5517 243.11 97.5517 244.18H98.5917C98.5917 243.66 98.9917 243.36 99.7117 243.36C100.332 243.36 100.732 243.63 100.732 244.3V244.41L99.2517 244.52C98.0817 244.61 97.4217 245.18 97.4217 246.09C97.4217 247.02 98.0617 247.63 99.1117 247.63ZM99.5117 246.71C98.9617 246.71 98.6617 246.49 98.6617 246.04C98.6617 245.64 98.9517 245.39 99.7117 245.32L100.742 245.24V245.5C100.742 246.26 100.262 246.71 99.5117 246.71ZM102.83 245.02C102.83 246.59 103.81 247.63 105.31 247.63C106.6 247.63 107.56 246.84 107.71 245.69H106.48C106.35 246.23 105.92 246.53 105.31 246.53C104.53 246.53 104.05 245.95 104.05 245.02C104.05 244.09 104.57 243.5 105.35 243.5C105.93 243.5 106.34 243.79 106.48 244.35H107.7C107.57 243.16 106.65 242.41 105.3 242.41C103.84 242.41 102.83 243.49 102.83 245.02ZM109.848 247.5V246.17L110.568 245.42L111.858 247.5H113.258L111.418 244.52L113.298 242.56H111.768L109.848 244.63V240.06H108.638V247.5H109.848Z" fill="#284B64"/>
<path d="M263.172 72.125L269.453 65.8438C269.589 65.7083 269.755 65.6406 269.953 65.6406C270.161 65.6406 270.339 65.7083 270.484 65.8438C270.63 65.9896 270.703 66.1667 270.703 66.375C270.703 66.5729 270.63 66.7448 270.484 66.8906L263.172 74.1875L259.516 70.5469C259.37 70.401 259.297 70.2292 259.297 70.0312C259.297 69.8229 259.37 69.6458 259.516 69.5C259.661 69.3646 259.833 69.2969 260.031 69.2969C260.24 69.2969 260.411 69.3646 260.547 69.5L263.172 72.125Z" fill="#1A938A"/>
<path d="M263.172 96.8252L269.453 90.5439C269.589 90.4085 269.755 90.3408 269.953 90.3408C270.161 90.3408 270.339 90.4085 270.484 90.5439C270.63 90.6898 270.703 90.8669 270.703 91.0752C270.703 91.2731 270.63 91.445 270.484 91.5908L263.172 98.8877L259.516 95.2471C259.37 95.1012 259.297 94.9294 259.297 94.7314C259.297 94.5231 259.37 94.346 259.516 94.2002C259.661 94.0648 259.833 93.9971 260.031 93.9971C260.24 93.9971 260.411 94.0648 260.547 94.2002L263.172 96.8252Z" fill="#1A938A"/>
<path d="M263.172 121.525L269.453 115.244C269.589 115.108 269.755 115.041 269.953 115.041C270.161 115.041 270.339 115.108 270.484 115.244C270.63 115.389 270.703 115.567 270.703 115.775C270.703 115.973 270.63 116.145 270.484 116.291L263.172 123.587L259.516 119.947C259.37 119.801 259.297 119.629 259.297 119.431C259.297 119.223 259.37 119.046 259.516 118.9C259.661 118.764 259.833 118.697 260.031 118.697C260.24 118.697 260.411 118.764 260.547 118.9L263.172 121.525Z" fill="#1A938A"/>
<path d="M263.172 146.225L269.453 139.943C269.589 139.808 269.755 139.74 269.953 139.74C270.161 139.74 270.339 139.808 270.484 139.943C270.63 140.089 270.703 140.266 270.703 140.475C270.703 140.673 270.63 140.844 270.484 140.99L263.172 148.287L259.516 144.646C259.37 144.501 259.297 144.329 259.297 144.131C259.297 143.923 259.37 143.745 259.516 143.6C259.661 143.464 259.833 143.396 260.031 143.396C260.24 143.396 260.411 143.464 260.547 143.6L263.172 146.225Z" fill="#1A938A"/>
<path d="M263.172 170.925L269.453 164.644C269.589 164.508 269.755 164.44 269.953 164.44C270.161 164.44 270.339 164.508 270.484 164.644C270.63 164.789 270.703 164.966 270.703 165.175C270.703 165.373 270.63 165.545 270.484 165.69L263.172 172.987L259.516 169.347C259.37 169.201 259.297 169.029 259.297 168.831C259.297 168.623 259.37 168.446 259.516 168.3C259.661 168.164 259.833 168.097 260.031 168.097C260.24 168.097 260.411 168.164 260.547 168.3L263.172 170.925Z" fill="#1A938A"/>
<path d="M263.172 195.625L269.453 189.344C269.589 189.208 269.755 189.141 269.953 189.141C270.161 189.141 270.339 189.208 270.484 189.344C270.63 189.49 270.703 189.667 270.703 189.875C270.703 190.073 270.63 190.245 270.484 190.391L263.172 197.688L259.516 194.047C259.37 193.901 259.297 193.729 259.297 193.531C259.297 193.323 259.37 193.146 259.516 193C259.661 192.865 259.833 192.797 260.031 192.797C260.24 192.797 260.411 192.865 260.547 193L263.172 195.625Z" fill="#1A938A"/>
<path d="M263.172 220.325L269.453 214.043C269.589 213.908 269.755 213.84 269.953 213.84C270.161 213.84 270.339 213.908 270.484 214.043C270.63 214.189 270.703 214.366 270.703 214.575C270.703 214.773 270.63 214.944 270.484 215.09L263.172 222.387L259.516 218.747C259.37 218.601 259.297 218.429 259.297 218.231C259.297 218.023 259.37 217.846 259.516 217.7C259.661 217.564 259.833 217.497 260.031 217.497C260.24 217.497 260.411 217.564 260.547 217.7L263.172 220.325Z" fill="#1A938A"/>
<path d="M265.938 242.899L269.719 246.665C269.844 246.8 269.906 246.962 269.906 247.149C269.906 247.326 269.844 247.483 269.719 247.618C269.583 247.743 269.422 247.806 269.234 247.806C269.057 247.806 268.901 247.743 268.766 247.618L265 243.837L261.234 247.618C261.099 247.743 260.938 247.806 260.75 247.806C260.573 247.806 260.417 247.743 260.281 247.618C260.156 247.483 260.094 247.326 260.094 247.149C260.094 246.962 260.156 246.8 260.281 246.665L264.062 242.899L260.281 239.134C260.156 238.998 260.094 238.842 260.094 238.665C260.094 238.478 260.156 238.316 260.281 238.181C260.417 238.056 260.573 237.993 260.75 237.993C260.938 237.993 261.099 238.056 261.234 238.181L265 241.962L268.766 238.181C268.901 238.056 269.057 237.993 269.234 237.993C269.422 237.993 269.583 238.056 269.719 238.181C269.844 238.316 269.906 238.478 269.906 238.665C269.906 238.842 269.844 238.998 269.719 239.134L265.938 242.899Z" fill="#F45147"/>
<path d="M322.172 72.125L328.453 65.8438C328.589 65.7083 328.755 65.6406 328.953 65.6406C329.161 65.6406 329.339 65.7083 329.484 65.8438C329.63 65.9896 329.703 66.1667 329.703 66.375C329.703 66.5729 329.63 66.7448 329.484 66.8906L322.172 74.1875L318.516 70.5469C318.37 70.401 318.297 70.2292 318.297 70.0312C318.297 69.8229 318.37 69.6458 318.516 69.5C318.661 69.3646 318.833 69.2969 319.031 69.2969C319.24 69.2969 319.411 69.3646 319.547 69.5L322.172 72.125Z" fill="#1A938A"/>
<path d="M322.172 96.8252L328.453 90.5439C328.589 90.4085 328.755 90.3408 328.953 90.3408C329.161 90.3408 329.339 90.4085 329.484 90.5439C329.63 90.6898 329.703 90.8669 329.703 91.0752C329.703 91.2731 329.63 91.445 329.484 91.5908L322.172 98.8877L318.516 95.2471C318.37 95.1012 318.297 94.9294 318.297 94.7314C318.297 94.5231 318.37 94.346 318.516 94.2002C318.661 94.0648 318.833 93.9971 319.031 93.9971C319.24 93.9971 319.411 94.0648 319.547 94.2002L322.172 96.8252Z" fill="#1A938A"/>
<path d="M322.172 121.525L328.453 115.244C328.589 115.108 328.755 115.041 328.953 115.041C329.161 115.041 329.339 115.108 329.484 115.244C329.63 115.389 329.703 115.567 329.703 115.775C329.703 115.973 329.63 116.145 329.484 116.291L322.172 123.587L318.516 119.947C318.37 119.801 318.297 119.629 318.297 119.431C318.297 119.223 318.37 119.046 318.516 118.9C318.661 118.764 318.833 118.697 319.031 118.697C319.24 118.697 319.411 118.764 319.547 118.9L322.172 121.525Z" fill="#1A938A"/>
<path d="M322.172 146.225L328.453 139.943C328.589 139.808 328.755 139.74 328.953 139.74C329.161 139.74 329.339 139.808 329.484 139.943C329.63 140.089 329.703 140.266 329.703 140.475C329.703 140.673 329.63 140.844 329.484 140.99L322.172 148.287L318.516 144.646C318.37 144.501 318.297 144.329 318.297 144.131C318.297 143.923 318.37 143.745 318.516 143.6C318.661 143.464 318.833 143.396 319.031 143.396C319.24 143.396 319.411 143.464 319.547 143.6L322.172 146.225Z" fill="#1A938A"/>
<path d="M322.172 170.925L328.453 164.644C328.589 164.508 328.755 164.44 328.953 164.44C329.161 164.44 329.339 164.508 329.484 164.644C329.63 164.789 329.703 164.966 329.703 165.175C329.703 165.373 329.63 165.545 329.484 165.69L322.172 172.987L318.516 169.347C318.37 169.201 318.297 169.029 318.297 168.831C318.297 168.623 318.37 168.446 318.516 168.3C318.661 168.164 318.833 168.097 319.031 168.097C319.24 168.097 319.411 168.164 319.547 168.3L322.172 170.925Z" fill="#1A938A"/>
<path d="M322.172 195.625L328.453 189.344C328.589 189.208 328.755 189.141 328.953 189.141C329.161 189.141 329.339 189.208 329.484 189.344C329.63 189.49 329.703 189.667 329.703 189.875C329.703 190.073 329.63 190.245 329.484 190.391L322.172 197.688L318.516 194.047C318.37 193.901 318.297 193.729 318.297 193.531C318.297 193.323 318.37 193.146 318.516 193C318.661 192.865 318.833 192.797 319.031 192.797C319.24 192.797 319.411 192.865 319.547 193L322.172 195.625Z" fill="#1A938A"/>
<path d="M322.172 220.325L328.453 214.043C328.589 213.908 328.755 213.84 328.953 213.84C329.161 213.84 329.339 213.908 329.484 214.043C329.63 214.189 329.703 214.366 329.703 214.575C329.703 214.773 329.63 214.944 329.484 215.09L322.172 222.387L318.516 218.747C318.37 218.601 318.297 218.429 318.297 218.231C318.297 218.023 318.37 217.846 318.516 217.7C318.661 217.564 318.833 217.497 319.031 217.497C319.24 217.497 319.411 217.564 319.547 217.7L322.172 220.325Z" fill="#1A938A"/>
<path d="M315.094 246.25C316.824 246.25 317.914 245.26 317.914 243.93C317.914 241.17 313.324 242.45 313.324 240.76C313.324 240.13 313.944 239.66 314.904 239.66C315.914 239.66 316.644 240.26 316.644 241.1H317.754C317.744 239.69 316.544 238.67 314.894 238.67C313.244 238.67 312.134 239.6 312.134 240.93C312.134 243.67 316.724 242.37 316.724 244.11C316.724 244.74 316.134 245.26 315.124 245.26C313.984 245.26 313.184 244.6 313.184 243.69H312.044C312.044 245.17 313.324 246.25 315.094 246.25ZM324.523 243.46C324.523 241.85 323.383 240.72 321.763 240.72C320.133 240.72 319.003 241.85 319.003 243.46C319.003 245.07 320.133 246.2 321.763 246.2C323.383 246.2 324.523 245.07 324.523 243.46ZM323.443 243.46C323.443 244.49 322.733 245.24 321.763 245.24C320.783 245.24 320.083 244.49 320.083 243.46C320.083 242.43 320.783 241.68 321.763 241.68C322.733 241.68 323.443 242.43 323.443 243.46ZM330.988 243.46C330.988 241.85 329.848 240.72 328.228 240.72C326.598 240.72 325.468 241.85 325.468 243.46C325.468 245.07 326.598 246.2 328.228 246.2C329.848 246.2 330.988 245.07 330.988 243.46ZM329.908 243.46C329.908 244.49 329.198 245.24 328.228 245.24C327.248 245.24 326.548 244.49 326.548 243.46C326.548 242.43 327.248 241.68 328.228 241.68C329.198 241.68 329.908 242.43 329.908 243.46ZM334.903 240.72C334.243 240.72 333.613 241.04 333.253 241.57V240.92H332.183V246H333.273V243.08C333.273 242.27 333.903 241.68 334.663 241.68C335.423 241.68 335.873 242.23 335.873 242.98V246H336.953V242.9C336.953 241.64 336.143 240.72 334.903 240.72Z" fill="#A7B5BF"/>
</g>
<defs>
<filter id="filter0_d_1312_13673" x="0" y="0" width="351" height="263" filterUnits="userSpaceOnUse" color-interpolation-filters="sRGB">
<feFlood flood-opacity="0" result="BackgroundImageFix"/>
<feColorMatrix in="SourceAlpha" type="matrix" values="0 0 0 0 0 0 0 0 0 0 0 0 0 0 0 0 0 0 127 0" result="hardAlpha"/>
<feOffset dy="4"/>
<feGaussianBlur stdDeviation="2"/>
<feComposite in2="hardAlpha" operator="out"/>
<feColorMatrix type="matrix" values="0 0 0 0 0 0 0 0 0 0 0 0 0 0 0 0 0 0 0.25 0"/>
<feBlend mode="normal" in2="BackgroundImageFix" result="effect1_dropShadow_1312_13673"/>
<feBlend mode="normal" in="SourceGraphic" in2="effect1_dropShadow_1312_13673" result="shape"/>
</filter>
</defs>
</svg>
