<svg width="343" height="355" viewBox="0 0 343 355" fill="none" xmlns="http://www.w3.org/2000/svg">
<rect x="0.5" y="0.5" width="342" height="46.9325" rx="23.4662" stroke="#D4DBE0"/>
<rect y="57.4192" width="343" height="24.7152" rx="12.3576" fill="white"/>
<rect y="82.1343" width="343" height="24.7152" rx="12.3576" fill="#E9EDEF"/>
<rect y="57.4192" width="343" height="24.7152" rx="12.3576" fill="white"/>
<rect y="82.1343" width="343" height="24.7152" rx="12.3576" fill="#E9EDEF"/>
<rect y="106.85" width="343" height="24.7152" rx="12.3576" fill="white"/>
<rect y="131.565" width="343" height="24.7152" rx="12.3576" fill="#E9EDEF"/>
<rect y="156.28" width="343" height="24.7152" rx="12.3576" fill="white"/>
<rect y="180.995" width="343" height="24.7152" rx="12.3576" fill="#E9EDEF"/>
<rect y="205.71" width="343" height="24.7152" rx="12.3576" fill="white"/>
<rect y="230.425" width="343" height="24.7152" rx="12.3576" fill="#E9EDEF"/>
<rect y="255.141" width="343" height="24.7152" rx="12.3576" fill="white"/>
<rect y="279.856" width="343" height="24.7152" rx="12.3576" fill="#E9EDEF"/>
<rect y="304.571" width="343" height="24.7152" rx="12.3576" fill="white"/>
<path d="M21.3566 66.6992V72.4192H23.0366V66.6992H25.1766V65.2992H19.2166V66.6992H21.3566ZM27.1757 72.4192H29.0757L29.9357 69.0492L30.7957 72.4192H32.6957L34.2557 67.2992H32.7457L31.7057 70.9492L30.6357 67.2992H29.2357L28.2357 70.9192L27.1857 67.2992H25.6257L27.1757 72.4192ZM40.4398 69.8592C40.4398 68.2292 39.2798 67.0992 37.5898 67.0992C35.9098 67.0992 34.7498 68.2292 34.7498 69.8592C34.7498 71.4892 35.9098 72.6192 37.5898 72.6192C39.2798 72.6192 40.4398 71.4892 40.4398 69.8592ZM38.9398 69.8592C38.9398 70.6992 38.3798 71.2992 37.5898 71.2992C36.8098 71.2992 36.2498 70.6992 36.2498 69.8592C36.2498 69.0192 36.8098 68.4192 37.5898 68.4192C38.3798 68.4192 38.9398 69.0192 38.9398 69.8592ZM48.9802 69.8692V68.5892H46.4002V66.7392H49.5702V65.2992H44.7202V72.4192H46.4002V69.8692H48.9802ZM54.194 68.0092C53.794 67.4392 53.184 67.0992 52.454 67.0992C51.014 67.0992 50.004 68.2392 50.004 69.8592C50.004 71.4792 51.014 72.6192 52.454 72.6192C53.184 72.6192 53.794 72.2792 54.194 71.7092V72.4192H55.694V67.2992H54.194V68.0092ZM52.844 71.2992C52.064 71.2992 51.504 70.6892 51.504 69.8592C51.504 69.0292 52.064 68.4192 52.844 68.4192C53.624 68.4192 54.184 69.0292 54.184 69.8592C54.184 70.6892 53.624 71.2992 52.844 71.2992ZM62.1718 69.1292C62.0118 67.9492 60.8918 67.0992 59.5518 67.0992C57.9318 67.0992 56.7618 68.2592 56.7618 69.8592C56.7618 71.4592 57.9418 72.6192 59.5518 72.6192C60.8718 72.6192 61.9918 71.7692 62.1818 70.5892L60.7818 70.4092C60.6418 70.9592 60.1518 71.3592 59.5618 71.3592C58.8218 71.3592 58.2618 70.7292 58.2618 69.8592C58.2618 68.9892 58.8318 68.3592 59.5618 68.3592C60.1318 68.3592 60.6418 68.7592 60.7718 69.3092L62.1718 69.1292ZM63.4267 70.7592C63.4267 71.8492 64.0867 72.6192 65.1067 72.6192C65.4267 72.6192 65.8267 72.5592 66.1267 72.4592L66.1367 71.2592C65.9667 71.2992 65.7467 71.3292 65.6067 71.3292C65.1867 71.3292 64.9267 71.0392 64.9267 70.6092V68.4392H66.0867V67.2992H64.9267V66.0092H63.6667L63.4967 67.2992H62.7067V68.4392H63.4267V70.7592ZM72.6566 69.8592C72.6566 68.2292 71.4966 67.0992 69.8066 67.0992C68.1266 67.0992 66.9666 68.2292 66.9666 69.8592C66.9666 71.4892 68.1266 72.6192 69.8066 72.6192C71.4966 72.6192 72.6566 71.4892 72.6566 69.8592ZM71.1566 69.8592C71.1566 70.6992 70.5966 71.2992 69.8066 71.2992C69.0266 71.2992 68.4666 70.6992 68.4666 69.8592C68.4666 69.0192 69.0266 68.4192 69.8066 68.4192C70.5966 68.4192 71.1566 69.0192 71.1566 69.8592ZM76.5303 67.1092C75.9603 67.1092 75.4603 67.4392 75.1603 67.9492V67.2992H73.7203V72.4192H75.2203V69.6992C75.2203 68.9292 75.6503 68.3792 76.3003 68.3792C76.5203 68.3792 76.8503 68.4492 77.1403 68.5692V67.2392C76.9403 67.1592 76.7303 67.1092 76.5303 67.1092ZM85.4241 65.2992H82.9841L80.5941 72.4192H82.3641L82.7641 71.1292H85.6241L86.0441 72.4192H87.8041L85.4241 65.2992ZM84.2041 66.7392L85.2841 69.9192H83.1241L84.2041 66.7392ZM90.3648 72.6192C91.0348 72.6192 91.6348 72.2792 91.9948 71.7292V72.4192H93.4548V67.2992H91.9548V70.1792C91.9548 70.8292 91.4748 71.2992 90.8848 71.2992C90.2948 71.2992 89.9348 70.8592 89.9348 70.2392V67.2992H88.4348V70.4992C88.4348 71.7292 89.2148 72.6192 90.3648 72.6192ZM95.1455 70.7592C95.1455 71.8492 95.8055 72.6192 96.8255 72.6192C97.1455 72.6192 97.5455 72.5592 97.8455 72.4592L97.8555 71.2592C97.6855 71.2992 97.4655 71.3292 97.3255 71.3292C96.9055 71.3292 96.6455 71.0392 96.6455 70.6092V68.4392H97.8055V67.2992H96.6455V66.0092H95.3855L95.2155 67.2992H94.4255V68.4392H95.1455V70.7592ZM101.995 67.0992C101.375 67.0992 100.765 67.3792 100.425 67.8792V64.9992H98.9254V72.4192H100.425V69.5392C100.425 68.8892 100.905 68.4192 101.485 68.4192C102.085 68.4192 102.445 68.8592 102.445 69.4792V72.4192H103.945V69.1792C103.945 67.9592 103.165 67.0992 101.995 67.0992ZM107.776 71.4692C107.096 71.4692 106.596 70.9992 106.466 70.2792L110.476 70.2892C110.496 70.1792 110.496 69.9692 110.496 69.8392C110.496 68.2192 109.376 67.0992 107.736 67.0992C106.086 67.0992 104.916 68.2192 104.916 69.8192C104.916 71.4692 106.086 72.6192 107.736 72.6192C108.946 72.6192 109.996 71.9692 110.266 71.0792L108.956 70.7892C108.776 71.1792 108.316 71.4692 107.776 71.4692ZM106.456 69.3792C106.586 68.6992 107.046 68.2492 107.706 68.2492C108.386 68.2492 108.886 68.7292 108.976 69.3792H106.456ZM114.642 67.0992C113.982 67.0992 113.382 67.4392 113.022 67.9892V67.2992H111.562V72.4192H113.062V69.5392C113.062 68.8892 113.542 68.4192 114.132 68.4192C114.722 68.4192 115.082 68.8592 115.082 69.4792V72.4192H116.582V69.2192C116.582 67.9892 115.802 67.0992 114.642 67.0992ZM118.173 70.7592C118.173 71.8492 118.833 72.6192 119.853 72.6192C120.173 72.6192 120.573 72.5592 120.873 72.4592L120.883 71.2592C120.713 71.2992 120.493 71.3292 120.353 71.3292C119.933 71.3292 119.673 71.0392 119.673 70.6092V68.4392H120.833V67.2992H119.673V66.0092H118.413L118.243 67.2992H117.453V68.4392H118.173V70.7592ZM123.573 67.2992H122.073V72.4192H123.573V67.2992ZM121.953 65.7692C121.953 66.2692 122.313 66.6192 122.823 66.6192C123.333 66.6192 123.693 66.2692 123.693 65.7692C123.693 65.2792 123.333 64.9292 122.823 64.9292C122.313 64.9292 121.953 65.2792 121.953 65.7692ZM130.17 69.1292C130.01 67.9492 128.89 67.0992 127.55 67.0992C125.93 67.0992 124.76 68.2592 124.76 69.8592C124.76 71.4592 125.94 72.6192 127.55 72.6192C128.87 72.6192 129.99 71.7692 130.18 70.5892L128.78 70.4092C128.64 70.9592 128.15 71.3592 127.56 71.3592C126.82 71.3592 126.26 70.7292 126.26 69.8592C126.26 68.9892 126.83 68.3592 127.56 68.3592C128.13 68.3592 128.64 68.7592 128.77 69.3092L130.17 69.1292ZM135.19 68.0092C134.79 67.4392 134.18 67.0992 133.45 67.0992C132.01 67.0992 131 68.2392 131 69.8592C131 71.4792 132.01 72.6192 133.45 72.6192C134.18 72.6192 134.79 72.2792 135.19 71.7092V72.4192H136.69V67.2992H135.19V68.0092ZM133.84 71.2992C133.06 71.2992 132.5 70.6892 132.5 69.8592C132.5 69.0292 133.06 68.4192 133.84 68.4192C134.62 68.4192 135.18 69.0292 135.18 69.8592C135.18 70.6892 134.62 71.2992 133.84 71.2992ZM138.378 70.7592C138.378 71.8492 139.038 72.6192 140.058 72.6192C140.378 72.6192 140.778 72.5592 141.078 72.4592L141.088 71.2592C140.918 71.2992 140.698 71.3292 140.558 71.3292C140.138 71.3292 139.878 71.0392 139.878 70.6092V68.4392H141.038V67.2992H139.878V66.0092H138.618L138.448 67.2992H137.658V68.4392H138.378V70.7592ZM143.778 67.2992H142.278V72.4192H143.778V67.2992ZM142.158 65.7692C142.158 66.2692 142.518 66.6192 143.028 66.6192C143.538 66.6192 143.898 66.2692 143.898 65.7692C143.898 65.2792 143.538 64.9292 143.028 64.9292C142.518 64.9292 142.158 65.2792 142.158 65.7692ZM150.645 69.8592C150.645 68.2292 149.485 67.0992 147.795 67.0992C146.115 67.0992 144.955 68.2292 144.955 69.8592C144.955 71.4892 146.115 72.6192 147.795 72.6192C149.485 72.6192 150.645 71.4892 150.645 69.8592ZM149.145 69.8592C149.145 70.6992 148.585 71.2992 147.795 71.2992C147.015 71.2992 146.455 70.6992 146.455 69.8592C146.455 69.0192 147.015 68.4192 147.795 68.4192C148.585 68.4192 149.145 69.0192 149.145 69.8592ZM154.789 67.0992C154.129 67.0992 153.529 67.4392 153.169 67.9892V67.2992H151.709V72.4192H153.209V69.5392C153.209 68.8892 153.689 68.4192 154.279 68.4192C154.869 68.4192 155.229 68.8592 155.229 69.4792V72.4192H156.729V69.2192C156.729 67.9892 155.949 67.0992 154.789 67.0992ZM19.99 95.2092C21.65 95.2092 22.81 94.1992 22.81 92.7592C22.81 91.3092 21.66 90.2992 20 90.2992H16.81V97.4192H18.43V95.2092H19.99ZM19.69 91.5692C20.54 91.5692 21.13 92.0592 21.13 92.7592C21.13 93.4492 20.53 93.9392 19.69 93.9392H18.43V91.5692H19.69ZM27.4948 93.0092C27.0948 92.4392 26.4848 92.0992 25.7548 92.0992C24.3148 92.0992 23.3048 93.2392 23.3048 94.8592C23.3048 96.4792 24.3148 97.6192 25.7548 97.6192C26.4848 97.6192 27.0948 97.2792 27.4948 96.7092V97.4192H28.9948V92.2992H27.4948V93.0092ZM26.1448 96.2992C25.3648 96.2992 24.8048 95.6892 24.8048 94.8592C24.8048 94.0292 25.3648 93.4192 26.1448 93.4192C26.9248 93.4192 27.4848 94.0292 27.4848 94.8592C27.4848 95.6892 26.9248 96.2992 26.1448 96.2992ZM31.7826 89.9992H30.2826V97.4192H31.7826V89.9992ZM33.0758 97.4192H34.5758V94.4992C34.5758 93.8492 34.9458 93.4192 35.5158 93.4192C36.0758 93.4192 36.4358 93.8492 36.4358 94.4992V97.4192H37.9358V94.4992C37.9358 93.8692 38.3258 93.4192 38.9058 93.4192C39.4758 93.4392 39.8558 93.8892 39.8558 94.4992V97.4192H41.3558V94.1992C41.3558 92.9692 40.5458 92.1092 39.3858 92.1092C38.6758 92.1092 37.9958 92.4492 37.6658 93.0092C37.3758 92.4492 36.7558 92.0992 36.0158 92.0992C35.3858 92.0992 34.8358 92.3892 34.5158 92.9092V92.2992H33.0758V97.4192ZM44.3882 97.4192V94.4092H47.3282V97.4192H49.0082V90.2992H47.3282V93.0492H44.3882V90.2992H42.7082V97.4192H44.3882ZM50.6186 97.4192H52.2986V94.9292H53.7486L55.1486 97.4192H57.0286L55.3086 94.6992C56.2386 94.3992 56.8686 93.6192 56.8686 92.6692C56.8686 91.2692 55.7186 90.2992 54.0686 90.2992H50.6186V97.4192ZM53.7986 91.5692C54.5886 91.5692 55.1886 91.9692 55.1886 92.6692C55.1886 93.3092 54.5886 93.7392 53.7986 93.7392H52.2986V91.5692H53.7986ZM63.0405 97.4192V94.4092H65.9805V97.4192H67.6605V90.2992H65.9805V93.0492H63.0405V90.2992H61.3605V97.4192H63.0405ZM71.7409 96.4692C71.0609 96.4692 70.5609 95.9992 70.4309 95.2792L74.4409 95.2892C74.4609 95.1792 74.4609 94.9692 74.4609 94.8392C74.4609 93.2192 73.3409 92.0992 71.7009 92.0992C70.0509 92.0992 68.8809 93.2192 68.8809 94.8192C68.8809 96.4692 70.0509 97.6192 71.7009 97.6192C72.9109 97.6192 73.9609 96.9692 74.2309 96.0792L72.9209 95.7892C72.7409 96.1792 72.2809 96.4692 71.7409 96.4692ZM70.4209 94.3792C70.5509 93.6992 71.0109 93.2492 71.6709 93.2492C72.3509 93.2492 72.8509 93.7292 72.9409 94.3792H70.4209ZM77.017 89.9992H75.517V97.4192H77.017V89.9992ZM79.8102 96.7992C80.2102 97.3192 80.8002 97.6192 81.5002 97.6192C82.9302 97.6192 83.9302 96.4792 83.9302 94.8592C83.9302 93.2392 82.9202 92.0992 81.5002 92.0992C80.7902 92.0992 80.1902 92.4092 79.7902 92.9192V92.2992H78.3102V99.7192H79.8102V96.7992ZM82.4302 94.8592C82.4302 95.6692 81.8702 96.2692 81.0902 96.2692C80.3102 96.2692 79.7502 95.6692 79.7502 94.8592C79.7502 94.0492 80.3102 93.4492 81.0902 93.4492C81.8602 93.4492 82.4302 94.0392 82.4302 94.8592ZM93.6562 94.7692C93.4363 95.6092 92.6263 96.2292 91.7263 96.2292C90.4663 96.2292 89.5663 95.2492 89.5663 93.8592C89.5663 92.4692 90.4563 91.4892 91.7263 91.4892C92.6463 91.4892 93.4463 92.1192 93.6463 92.9992L95.2163 92.8192C94.9663 91.2092 93.4863 90.0492 91.6863 90.0492C89.4863 90.0492 87.8863 91.6492 87.8863 93.8592C87.8863 96.0692 89.4863 97.6692 91.6863 97.6692C93.5063 97.6692 94.9863 96.5392 95.2263 94.9692L93.6562 94.7692ZM98.987 96.4692C98.307 96.4692 97.807 95.9992 97.677 95.2792L101.687 95.2892C101.707 95.1792 101.707 94.9692 101.707 94.8392C101.707 93.2192 100.587 92.0992 98.947 92.0992C97.297 92.0992 96.127 93.2192 96.127 94.8192C96.127 96.4692 97.297 97.6192 98.947 97.6192C100.157 97.6192 101.207 96.9692 101.477 96.0792L100.167 95.7892C99.987 96.1792 99.527 96.4692 98.987 96.4692ZM97.667 94.3792C97.797 93.6992 98.257 93.2492 98.917 93.2492C99.597 93.2492 100.097 93.7292 100.187 94.3792H97.667ZM105.853 92.0992C105.193 92.0992 104.593 92.4392 104.233 92.9892V92.2992H102.773V97.4192H104.273V94.5392C104.273 93.8892 104.753 93.4192 105.343 93.4192C105.933 93.4192 106.293 93.8592 106.293 94.4792V97.4192H107.793V94.2192C107.793 92.9892 107.013 92.0992 105.853 92.0992ZM109.384 95.7592C109.384 96.8492 110.044 97.6192 111.064 97.6192C111.384 97.6192 111.784 97.5592 112.084 97.4592L112.094 96.2592C111.924 96.2992 111.704 96.3292 111.564 96.3292C111.144 96.3292 110.884 96.0392 110.884 95.6092V93.4392H112.044V92.2992H110.884V91.0092H109.624L109.454 92.2992H108.664V93.4392H109.384V95.7592ZM115.794 96.4692C115.114 96.4692 114.614 95.9992 114.484 95.2792L118.494 95.2892C118.514 95.1792 118.514 94.9692 118.514 94.8392C118.514 93.2192 117.394 92.0992 115.754 92.0992C114.104 92.0992 112.934 93.2192 112.934 94.8192C112.934 96.4692 114.104 97.6192 115.754 97.6192C116.964 97.6192 118.014 96.9692 118.284 96.0792L116.974 95.7892C116.794 96.1792 116.334 96.4692 115.794 96.4692ZM114.474 94.3792C114.604 93.6992 115.064 93.2492 115.724 93.2492C116.404 93.2492 116.904 93.7292 116.994 94.3792H114.474ZM122.39 92.1092C121.82 92.1092 121.32 92.4392 121.02 92.9492V92.2992H119.58V97.4192H121.08V94.6992C121.08 93.9292 121.51 93.3792 122.16 93.3792C122.38 93.3792 122.71 93.4492 123 93.5692V92.2392C122.8 92.1592 122.59 92.1092 122.39 92.1092ZM18.49 115.299H16.81V122.419H18.49V115.299ZM23.021 117.099C22.361 117.099 21.761 117.439 21.401 117.989V117.299H19.941V122.419H21.441V119.539C21.441 118.889 21.921 118.419 22.511 118.419C23.101 118.419 23.461 118.859 23.461 119.479V122.419H24.961V119.219C24.961 117.989 24.181 117.099 23.021 117.099ZM33.5784 115.299H31.1384L28.7484 122.419H30.5184L30.9184 121.129H33.7784L34.1984 122.419H35.9584L33.5784 115.299ZM32.3584 116.739L33.4384 119.919H31.2784L32.3584 116.739ZM38.2867 121.799C38.6867 122.319 39.2767 122.619 39.9767 122.619C41.4067 122.619 42.4067 121.479 42.4067 119.859C42.4067 118.239 41.3967 117.099 39.9767 117.099C39.2667 117.099 38.6667 117.409 38.2667 117.919V117.299H36.7867V124.719H38.2867V121.799ZM40.9067 119.859C40.9067 120.669 40.3467 121.269 39.5667 121.269C38.7867 121.269 38.2267 120.669 38.2267 119.859C38.2267 119.049 38.7867 118.449 39.5667 118.449C40.3367 118.449 40.9067 119.039 40.9067 119.859ZM44.9762 121.799C45.3762 122.319 45.9662 122.619 46.6662 122.619C48.0962 122.619 49.0962 121.479 49.0962 119.859C49.0962 118.239 48.0862 117.099 46.6662 117.099C45.9562 117.099 45.3562 117.409 44.9562 117.919V117.299H43.4762V124.719H44.9762V121.799ZM47.5962 119.859C47.5962 120.669 47.0362 121.269 46.2562 121.269C45.4762 121.269 44.9162 120.669 44.9162 119.859C44.9162 119.049 45.4762 118.449 46.2562 118.449C47.0262 118.449 47.5962 119.039 47.5962 119.859ZM53.6123 120.759C53.6123 121.849 54.2723 122.619 55.2923 122.619C55.6123 122.619 56.0123 122.559 56.3123 122.459L56.3223 121.259C56.1523 121.299 55.9323 121.329 55.7923 121.329C55.3723 121.329 55.1123 121.039 55.1123 120.609V118.439H56.2723V117.299H55.1123V116.009H53.8523L53.6823 117.299H52.8923V118.439H53.6123V120.759ZM62.8422 119.859C62.8422 118.229 61.6822 117.099 59.9922 117.099C58.3122 117.099 57.1522 118.229 57.1522 119.859C57.1522 121.489 58.3122 122.619 59.9922 122.619C61.6822 122.619 62.8422 121.489 62.8422 119.859ZM61.3422 119.859C61.3422 120.699 60.7822 121.299 59.9922 121.299C59.2122 121.299 58.6522 120.699 58.6522 119.859C58.6522 119.019 59.2122 118.419 59.9922 118.419C60.7822 118.419 61.3422 119.019 61.3422 119.859ZM65.7359 122.619C66.4059 122.619 67.0059 122.279 67.3659 121.729V122.419H68.8259V117.299H67.3259V120.179C67.3259 120.829 66.8459 121.299 66.2559 121.299C65.6659 121.299 65.3059 120.859 65.3059 120.239V117.299H63.8059V120.499C63.8059 121.729 64.5859 122.619 65.7359 122.619ZM72.9366 117.109C72.3666 117.109 71.8666 117.439 71.5666 117.949V117.299H70.1266V122.419H71.6266V119.699C71.6266 118.929 72.0566 118.379 72.7066 118.379C72.9266 118.379 73.2566 118.449 73.5466 118.569V117.239C73.3466 117.159 73.1366 117.109 72.9366 117.109ZM76.5937 122.639C78.0137 122.639 79.0037 121.869 79.0037 120.809C78.9937 118.879 75.6137 119.689 75.6237 118.709C75.6237 118.379 75.9937 118.139 76.4637 118.139C77.0637 118.139 77.5037 118.429 77.5137 118.849H78.8337C78.8237 117.819 77.8337 117.079 76.4637 117.079C75.2137 117.079 74.2737 117.799 74.2637 118.799C74.2637 120.959 77.5537 119.939 77.5637 120.969C77.5637 121.319 77.1637 121.579 76.6137 121.579C75.9637 121.579 75.4837 121.219 75.4837 120.709H74.2137C74.2137 121.829 75.2037 122.639 76.5937 122.639ZM18.43 145.069V143.359H21.41V142.179H18.43V140.649H21.81V139.299H16.81V146.419H21.91V145.069H18.43ZM26.897 142.699H22.797V143.929H26.897V142.699ZM29.7684 146.419V141.329L31.7284 146.419H32.9884L34.9584 141.329V146.419H36.5984V139.299H34.3484L32.3584 144.509L30.3484 139.299H28.1284V146.419H29.7684ZM42.0163 142.009C41.6163 141.439 41.0063 141.099 40.2763 141.099C38.8363 141.099 37.8263 142.239 37.8263 143.859C37.8263 145.479 38.8363 146.619 40.2763 146.619C41.0063 146.619 41.6163 146.279 42.0163 145.709V146.419H43.5163V141.299H42.0163V142.009ZM40.6663 145.299C39.8863 145.299 39.3263 144.689 39.3263 143.859C39.3263 143.029 39.8863 142.419 40.6663 142.419C41.4463 142.419 42.0063 143.029 42.0063 143.859C42.0063 144.689 41.4463 145.299 40.6663 145.299ZM46.4341 141.299H44.9341V146.419H46.4341V141.299ZM44.8141 139.769C44.8141 140.269 45.1741 140.619 45.6841 140.619C46.1941 140.619 46.5541 140.269 46.5541 139.769C46.5541 139.279 46.1941 138.929 45.6841 138.929C45.1741 138.929 44.8141 139.279 44.8141 139.769ZM49.3412 138.999H47.8412V146.419H49.3412V138.999ZM56.681 146.669C58.491 146.669 59.701 145.659 59.701 144.239C59.701 141.389 55.271 142.639 55.271 141.189C55.271 140.689 55.801 140.319 56.591 140.319C57.451 140.319 58.081 140.819 58.071 141.519H59.531C59.531 140.089 58.281 139.049 56.551 139.049C54.831 139.049 53.641 140.009 53.641 141.409C53.641 144.239 58.061 142.969 58.061 144.479C58.061 144.989 57.561 145.399 56.731 145.399C55.771 145.399 55.081 144.849 55.081 144.079H53.571C53.571 145.579 54.871 146.669 56.681 146.669ZM62.6988 146.619C63.3688 146.619 63.9688 146.279 64.3288 145.729V146.419H65.7888V141.299H64.2888V144.179C64.2888 144.829 63.8088 145.299 63.2188 145.299C62.6288 145.299 62.2688 144.859 62.2688 144.239V141.299H60.7688V144.499C60.7688 145.729 61.5488 146.619 62.6988 146.619ZM68.5895 145.799C68.9895 146.319 69.5795 146.619 70.2795 146.619C71.7095 146.619 72.7095 145.479 72.7095 143.859C72.7095 142.239 71.6995 141.099 70.2795 141.099C69.5695 141.099 68.9695 141.409 68.5695 141.919V141.299H67.0895V148.719H68.5895V145.799ZM71.2095 143.859C71.2095 144.669 70.6495 145.269 69.8695 145.269C69.0895 145.269 68.5295 144.669 68.5295 143.859C68.5295 143.049 69.0895 142.449 69.8695 142.449C70.6395 142.449 71.2095 143.039 71.2095 143.859ZM75.2789 145.799C75.6789 146.319 76.2689 146.619 76.9689 146.619C78.3989 146.619 79.3989 145.479 79.3989 143.859C79.3989 142.239 78.3889 141.099 76.9689 141.099C76.2589 141.099 75.6589 141.409 75.2589 141.919V141.299H73.7789V148.719H75.2789V145.799ZM77.8989 143.859C77.8989 144.669 77.3389 145.269 76.5589 145.269C75.7789 145.269 75.2189 144.669 75.2189 143.859C75.2189 143.049 75.7789 142.449 76.5589 142.449C77.3289 142.449 77.8989 143.039 77.8989 143.859ZM85.9184 143.859C85.9184 142.229 84.7584 141.099 83.0684 141.099C81.3884 141.099 80.2284 142.229 80.2284 143.859C80.2284 145.489 81.3884 146.619 83.0684 146.619C84.7584 146.619 85.9184 145.489 85.9184 143.859ZM84.4184 143.859C84.4184 144.699 83.8584 145.299 83.0684 145.299C82.2884 145.299 81.7284 144.699 81.7284 143.859C81.7284 143.019 82.2884 142.419 83.0684 142.419C83.8584 142.419 84.4184 143.019 84.4184 143.859ZM89.792 141.109C89.222 141.109 88.722 141.439 88.422 141.949V141.299H86.982V146.419H88.482V143.699C88.482 142.929 88.912 142.379 89.562 142.379C89.782 142.379 90.112 142.449 90.402 142.569V141.239C90.202 141.159 89.992 141.109 89.792 141.109ZM91.6591 144.759C91.6591 145.849 92.3191 146.619 93.3391 146.619C93.6591 146.619 94.0591 146.559 94.3591 146.459L94.3691 145.259C94.1991 145.299 93.9791 145.329 93.8391 145.329C93.4191 145.329 93.1591 145.039 93.1591 144.609V142.439H94.3191V141.299H93.1591V140.009H91.8991L91.7291 141.299H90.9391V142.439H91.6591V144.759ZM21.47 171.419V169.979H18.49V164.299H16.81V171.419H21.47ZM24.1001 166.299H22.6001V171.419H24.1001V166.299ZM22.4801 164.769C22.4801 165.269 22.8401 165.619 23.3501 165.619C23.8601 165.619 24.2201 165.269 24.2201 164.769C24.2201 164.279 23.8601 163.929 23.3501 163.929C22.8401 163.929 22.4801 164.279 22.4801 164.769ZM26.8372 171.419H28.9772L30.7672 166.299H29.1572L27.9072 170.279L26.6472 166.299H25.0472L26.8372 171.419ZM33.9675 170.469C33.2875 170.469 32.7875 169.999 32.6575 169.279L36.6675 169.289C36.6875 169.179 36.6875 168.969 36.6875 168.839C36.6875 167.219 35.5675 166.099 33.9275 166.099C32.2775 166.099 31.1075 167.219 31.1075 168.819C31.1075 170.469 32.2775 171.619 33.9275 171.619C35.1375 171.619 36.1875 170.969 36.4575 170.079L35.1475 169.789C34.9675 170.179 34.5075 170.469 33.9675 170.469ZM32.6475 168.379C32.7775 167.699 33.2375 167.249 33.8975 167.249C34.5775 167.249 35.0775 167.729 35.1675 168.379H32.6475ZM46.4102 168.769C46.1902 169.609 45.3802 170.229 44.4802 170.229C43.2202 170.229 42.3202 169.249 42.3202 167.859C42.3202 166.469 43.2102 165.489 44.4802 165.489C45.4002 165.489 46.2002 166.119 46.4002 166.999L47.9702 166.819C47.7202 165.209 46.2402 164.049 44.4402 164.049C42.2402 164.049 40.6402 165.649 40.6402 167.859C40.6402 170.069 42.2402 171.669 44.4402 171.669C46.2602 171.669 47.7402 170.539 47.9802 168.969L46.4102 168.769ZM52.1809 166.099C51.5609 166.099 50.9509 166.379 50.6109 166.879V163.999H49.1109V171.419H50.6109V168.539C50.6109 167.889 51.0909 167.419 51.6709 167.419C52.2709 167.419 52.6309 167.859 52.6309 168.479V171.419H54.1309V168.179C54.1309 166.959 53.3509 166.099 52.1809 166.099ZM59.2916 167.009C58.8916 166.439 58.2816 166.099 57.5516 166.099C56.1116 166.099 55.1016 167.239 55.1016 168.859C55.1016 170.479 56.1116 171.619 57.5516 171.619C58.2816 171.619 58.8916 171.279 59.2916 170.709V171.419H60.7916V166.299H59.2916V167.009ZM57.9416 170.299C57.1616 170.299 56.6016 169.689 56.6016 168.859C56.6016 168.029 57.1616 167.419 57.9416 167.419C58.7216 167.419 59.2816 168.029 59.2816 168.859C59.2816 169.689 58.7216 170.299 57.9416 170.299ZM62.4795 169.759C62.4795 170.849 63.1395 171.619 64.1595 171.619C64.4795 171.619 64.8795 171.559 65.1795 171.459L65.1895 170.259C65.0195 170.299 64.7995 170.329 64.6595 170.329C64.2395 170.329 63.9795 170.039 63.9795 169.609V167.439H65.1395V166.299H63.9795V165.009H62.7195L62.5495 166.299H61.7595V167.439H62.4795V169.759ZM72.306 171.669C74.116 171.669 75.326 170.659 75.326 169.239C75.326 166.389 70.896 167.639 70.896 166.189C70.896 165.689 71.426 165.319 72.216 165.319C73.076 165.319 73.706 165.819 73.696 166.519H75.156C75.156 165.089 73.906 164.049 72.176 164.049C70.456 164.049 69.266 165.009 69.266 166.409C69.266 169.239 73.686 167.969 73.686 169.479C73.686 169.989 73.186 170.399 72.356 170.399C71.396 170.399 70.706 169.849 70.706 169.079H69.196C69.196 170.579 70.496 171.669 72.306 171.669ZM78.3238 171.619C78.9938 171.619 79.5938 171.279 79.9538 170.729V171.419H81.4138V166.299H79.9138V169.179C79.9138 169.829 79.4338 170.299 78.8438 170.299C78.2538 170.299 77.8938 169.859 77.8938 169.239V166.299H76.3938V169.499C76.3938 170.729 77.1738 171.619 78.3238 171.619ZM84.2145 170.799C84.6145 171.319 85.2045 171.619 85.9045 171.619C87.3345 171.619 88.3345 170.479 88.3345 168.859C88.3345 167.239 87.3245 166.099 85.9045 166.099C85.1945 166.099 84.5945 166.409 84.1945 166.919V166.299H82.7145V173.719H84.2145V170.799ZM86.8345 168.859C86.8345 169.669 86.2745 170.269 85.4945 170.269C84.7145 170.269 84.1545 169.669 84.1545 168.859C84.1545 168.049 84.7145 167.449 85.4945 167.449C86.2645 167.449 86.8345 168.039 86.8345 168.859ZM90.9039 170.799C91.3039 171.319 91.8939 171.619 92.5939 171.619C94.0239 171.619 95.0239 170.479 95.0239 168.859C95.0239 167.239 94.0139 166.099 92.5939 166.099C91.8839 166.099 91.2839 166.409 90.8839 166.919V166.299H89.4039V173.719H90.9039V170.799ZM93.5239 168.859C93.5239 169.669 92.9639 170.269 92.1839 170.269C91.4039 170.269 90.8439 169.669 90.8439 168.859C90.8439 168.049 91.4039 167.449 92.1839 167.449C92.9539 167.449 93.5239 168.039 93.5239 168.859ZM101.543 168.859C101.543 167.229 100.383 166.099 98.6934 166.099C97.0134 166.099 95.8534 167.229 95.8534 168.859C95.8534 170.489 97.0134 171.619 98.6934 171.619C100.383 171.619 101.543 170.489 101.543 168.859ZM100.043 168.859C100.043 169.699 99.4834 170.299 98.6934 170.299C97.9134 170.299 97.3534 169.699 97.3534 168.859C97.3534 168.019 97.9134 167.419 98.6934 167.419C99.4834 167.419 100.043 168.019 100.043 168.859ZM105.417 166.109C104.847 166.109 104.347 166.439 104.047 166.949V166.299H102.607V171.419H104.107V168.699C104.107 167.929 104.537 167.379 105.187 167.379C105.407 167.379 105.737 167.449 106.027 167.569V166.239C105.827 166.159 105.617 166.109 105.417 166.109ZM107.284 169.759C107.284 170.849 107.944 171.619 108.964 171.619C109.284 171.619 109.684 171.559 109.984 171.459L109.994 170.259C109.824 170.299 109.604 170.329 109.464 170.329C109.044 170.329 108.784 170.039 108.784 169.609V167.439H109.944V166.299H108.784V165.009H107.524L107.354 166.299H106.564V167.439H107.284V169.759ZM22.56 193.479C22.5 194.469 21.59 195.229 20.46 195.229C19.12 195.229 18.16 194.229 18.16 192.859C18.16 191.479 19.1 190.489 20.41 190.489C21.25 190.489 22.01 190.969 22.24 191.629L23.78 191.289C23.43 189.979 22.05 189.049 20.42 189.049C18.13 189.049 16.48 190.649 16.48 192.859C16.48 195.069 18.13 196.669 20.42 196.669C22.82 196.669 24.41 194.869 24.18 192.379H20.36V193.479H22.56ZM30.7816 193.859C30.7816 192.229 29.6216 191.099 27.9316 191.099C26.2516 191.099 25.0916 192.229 25.0916 193.859C25.0916 195.489 26.2516 196.619 27.9316 196.619C29.6216 196.619 30.7816 195.489 30.7816 193.859ZM29.2816 193.859C29.2816 194.699 28.7216 195.299 27.9316 195.299C27.1516 195.299 26.5916 194.699 26.5916 193.859C26.5916 193.019 27.1516 192.419 27.9316 192.419C28.7216 192.419 29.2816 193.019 29.2816 193.859ZM37.2953 193.859C37.2953 192.229 36.1353 191.099 34.4453 191.099C32.7653 191.099 31.6053 192.229 31.6053 193.859C31.6053 195.489 32.7653 196.619 34.4453 196.619C36.1353 196.619 37.2953 195.489 37.2953 193.859ZM35.7953 193.859C35.7953 194.699 35.2353 195.299 34.4453 195.299C33.6653 195.299 33.1053 194.699 33.1053 193.859C33.1053 193.019 33.6653 192.419 34.4453 192.419C35.2353 192.419 35.7953 193.019 35.7953 193.859ZM38.369 197.049C38.589 198.139 39.679 198.919 41.009 198.919C42.629 198.919 43.749 197.949 43.749 196.359V191.299H42.259V191.909C41.859 191.409 41.279 191.109 40.559 191.109C39.149 191.109 38.129 192.249 38.129 193.859C38.129 195.409 39.149 196.489 40.559 196.489C41.269 196.489 41.849 196.199 42.249 195.709V196.319C42.249 197.209 41.709 197.729 40.949 197.729C40.379 197.729 39.869 197.359 39.709 196.839L38.369 197.049ZM40.969 195.259C40.189 195.259 39.629 194.669 39.629 193.859C39.629 193.029 40.189 192.419 40.969 192.419C41.749 192.419 42.309 193.029 42.309 193.859C42.309 194.669 41.749 195.259 40.969 195.259ZM46.5384 188.999H45.0384V196.419H46.5384V188.999ZM50.4616 195.469C49.7816 195.469 49.2816 194.999 49.1516 194.279L53.1616 194.289C53.1816 194.179 53.1816 193.969 53.1816 193.839C53.1816 192.219 52.0616 191.099 50.4216 191.099C48.7716 191.099 47.6016 192.219 47.6016 193.819C47.6016 195.469 48.7716 196.619 50.4216 196.619C51.6316 196.619 52.6816 195.969 52.9516 195.079L51.6416 194.789C51.4616 195.179 51.0016 195.469 50.4616 195.469ZM49.1416 193.379C49.2716 192.699 49.7316 192.249 50.3916 192.249C51.0716 192.249 51.5716 192.729 51.6616 193.379H49.1416ZM60.2943 196.669C62.1043 196.669 63.3143 195.659 63.3143 194.239C63.3143 191.389 58.8843 192.639 58.8843 191.189C58.8843 190.689 59.4143 190.319 60.2043 190.319C61.0643 190.319 61.6943 190.819 61.6843 191.519H63.1443C63.1443 190.089 61.8943 189.049 60.1643 189.049C58.4443 189.049 57.2543 190.009 57.2543 191.409C57.2543 194.239 61.6743 192.969 61.6743 194.479C61.6743 194.989 61.1743 195.399 60.3443 195.399C59.3843 195.399 58.6943 194.849 58.6943 194.079H57.1843C57.1843 195.579 58.4843 196.669 60.2943 196.669ZM66.102 191.299H64.602V196.419H66.102V191.299ZM64.482 189.769C64.482 190.269 64.842 190.619 65.352 190.619C65.862 190.619 66.222 190.269 66.222 189.769C66.222 189.279 65.862 188.929 65.352 188.929C64.842 188.929 64.482 189.279 64.482 189.769ZM70.5991 191.099C69.9391 191.099 69.3391 191.439 68.9791 191.989V191.299H67.5191V196.419H69.0191V193.539C69.0191 192.889 69.4991 192.419 70.0891 192.419C70.6791 192.419 71.0391 192.859 71.0391 193.479V196.419H72.5391V193.219C72.5391 191.989 71.7591 191.099 70.5991 191.099ZM73.7498 197.049C73.9698 198.139 75.0598 198.919 76.3898 198.919C78.0098 198.919 79.1298 197.949 79.1298 196.359V191.299H77.6398V191.909C77.2398 191.409 76.6598 191.109 75.9398 191.109C74.5298 191.109 73.5098 192.249 73.5098 193.859C73.5098 195.409 74.5298 196.489 75.9398 196.489C76.6498 196.489 77.2298 196.199 77.6298 195.709V196.319C77.6298 197.209 77.0898 197.729 76.3298 197.729C75.7598 197.729 75.2498 197.359 75.0898 196.839L73.7498 197.049ZM76.3498 195.259C75.5698 195.259 75.0098 194.669 75.0098 193.859C75.0098 193.029 75.5698 192.419 76.3498 192.419C77.1298 192.419 77.6898 193.029 77.6898 193.859C77.6898 194.669 77.1298 195.259 76.3498 195.259ZM81.9193 188.999H80.4193V196.419H81.9193V188.999ZM85.8425 195.469C85.1625 195.469 84.6625 194.999 84.5325 194.279L88.5425 194.289C88.5625 194.179 88.5625 193.969 88.5625 193.839C88.5625 192.219 87.4425 191.099 85.8025 191.099C84.1525 191.099 82.9825 192.219 82.9825 193.819C82.9825 195.469 84.1525 196.619 85.8025 196.619C87.0125 196.619 88.0625 195.969 88.3325 195.079L87.0225 194.789C86.8425 195.179 86.3825 195.469 85.8425 195.469ZM84.5225 193.379C84.6525 192.699 85.1125 192.249 85.7725 192.249C86.4525 192.249 86.9525 192.729 87.0425 193.379H84.5225ZM95.6752 196.669C97.4852 196.669 98.6952 195.659 98.6952 194.239C98.6952 191.389 94.2652 192.639 94.2652 191.189C94.2652 190.689 94.7952 190.319 95.5852 190.319C96.4452 190.319 97.0752 190.819 97.0652 191.519H98.5252C98.5252 190.089 97.2752 189.049 95.5452 189.049C93.8252 189.049 92.6352 190.009 92.6352 191.409C92.6352 194.239 97.0552 192.969 97.0552 194.479C97.0552 194.989 96.5552 195.399 95.7252 195.399C94.7652 195.399 94.0752 194.849 94.0752 194.079H92.5652C92.5652 195.579 93.8652 196.669 95.6752 196.669ZM101.483 191.299H99.9829V196.419H101.483V191.299ZM99.8629 189.769C99.8629 190.269 100.223 190.619 100.733 190.619C101.243 190.619 101.603 190.269 101.603 189.769C101.603 189.279 101.243 188.929 100.733 188.929C100.223 188.929 99.8629 189.279 99.8629 189.769ZM102.91 197.049C103.13 198.139 104.22 198.919 105.55 198.919C107.17 198.919 108.29 197.949 108.29 196.359V191.299H106.8V191.909C106.4 191.409 105.82 191.109 105.1 191.109C103.69 191.109 102.67 192.249 102.67 193.859C102.67 195.409 103.69 196.489 105.1 196.489C105.81 196.489 106.39 196.199 106.79 195.709V196.319C106.79 197.209 106.25 197.729 105.49 197.729C104.92 197.729 104.41 197.359 104.25 196.839L102.91 197.049ZM105.51 195.259C104.73 195.259 104.17 194.669 104.17 193.859C104.17 193.029 104.73 192.419 105.51 192.419C106.29 192.419 106.85 193.029 106.85 193.859C106.85 194.669 106.29 195.259 105.51 195.259ZM112.669 191.099C112.009 191.099 111.409 191.439 111.049 191.989V191.299H109.589V196.419H111.089V193.539C111.089 192.889 111.569 192.419 112.159 192.419C112.749 192.419 113.109 192.859 113.109 193.479V196.419H114.609V193.219C114.609 191.989 113.829 191.099 112.669 191.099ZM118.697 192.859C118.697 195.119 120.297 196.669 122.637 196.669C124.967 196.669 126.577 195.119 126.577 192.859C126.577 190.609 124.967 189.049 122.637 189.049C120.297 189.049 118.697 190.609 118.697 192.859ZM120.377 192.859C120.377 191.469 121.307 190.489 122.637 190.489C123.967 190.489 124.897 191.469 124.897 192.859C124.897 194.249 123.967 195.229 122.637 195.229C121.307 195.219 120.377 194.249 120.377 192.859ZM130.785 191.099C130.125 191.099 129.525 191.439 129.165 191.989V191.299H127.705V196.419H129.205V193.539C129.205 192.889 129.685 192.419 130.275 192.419C130.865 192.419 131.225 192.859 131.225 193.479V196.419H132.725V193.219C132.725 191.989 131.945 191.099 130.785 191.099ZM19.64 221.669C21.45 221.669 22.66 220.659 22.66 219.239C22.66 216.389 18.23 217.639 18.23 216.189C18.23 215.689 18.76 215.319 19.55 215.319C20.41 215.319 21.04 215.819 21.03 216.519H22.49C22.49 215.089 21.24 214.049 19.51 214.049C17.79 214.049 16.6 215.009 16.6 216.409C16.6 219.239 21.02 217.969 21.02 219.479C21.02 219.989 20.52 220.399 19.69 220.399C18.73 220.399 18.04 219.849 18.04 219.079H16.53C16.53 220.579 17.83 221.669 19.64 221.669ZM24.0224 219.759C24.0224 220.849 24.6824 221.619 25.7024 221.619C26.0224 221.619 26.4224 221.559 26.7224 221.459L26.7324 220.259C26.5624 220.299 26.3424 220.329 26.2024 220.329C25.7824 220.329 25.5224 220.039 25.5224 219.609V217.439H26.6824V216.299H25.5224V215.009H24.2624L24.0924 216.299H23.3024V217.439H24.0224V219.759ZM31.7623 217.009C31.3623 216.439 30.7523 216.099 30.0223 216.099C28.5823 216.099 27.5723 217.239 27.5723 218.859C27.5723 220.479 28.5823 221.619 30.0223 221.619C30.7523 221.619 31.3623 221.279 31.7623 220.709V221.419H33.2623V216.299H31.7623V217.009ZM30.4123 220.299C29.6323 220.299 29.0723 219.689 29.0723 218.859C29.0723 218.029 29.6323 217.419 30.4123 217.419C31.1923 217.419 31.7523 218.029 31.7523 218.859C31.7523 219.689 31.1923 220.299 30.4123 220.299ZM37.6402 216.099C36.9802 216.099 36.3802 216.439 36.0202 216.989V216.299H34.5602V221.419H36.0602V218.539C36.0602 217.889 36.5402 217.419 37.1302 217.419C37.7202 217.419 38.0802 217.859 38.0802 218.479V221.419H39.5802V218.219C39.5802 216.989 38.8002 216.099 37.6402 216.099ZM44.6709 216.919C44.2709 216.399 43.6809 216.099 42.9809 216.099C41.5609 216.099 40.5509 217.239 40.5509 218.859C40.5509 220.479 41.5609 221.619 42.9809 221.619C43.7009 221.619 44.2909 221.309 44.6909 220.799V221.419H46.1709V213.999H44.6709V216.919ZM42.0509 218.859C42.0509 218.049 42.6109 217.449 43.3909 217.449C44.1709 217.449 44.7309 218.049 44.7309 218.859C44.7309 219.669 44.1709 220.269 43.3909 220.269C42.6209 220.269 42.0509 219.679 42.0509 218.859ZM51.4303 217.009C51.0303 216.439 50.4203 216.099 49.6903 216.099C48.2503 216.099 47.2403 217.239 47.2403 218.859C47.2403 220.479 48.2503 221.619 49.6903 221.619C50.4203 221.619 51.0303 221.279 51.4303 220.709V221.419H52.9303V216.299H51.4303V217.009ZM50.0803 220.299C49.3003 220.299 48.7403 219.689 48.7403 218.859C48.7403 218.029 49.3003 217.419 50.0803 217.419C50.8603 217.419 51.4203 218.029 51.4203 218.859C51.4203 219.689 50.8603 220.299 50.0803 220.299ZM57.0381 216.109C56.4681 216.109 55.9681 216.439 55.6681 216.949V216.299H54.2281V221.419H55.7281V218.699C55.7281 217.929 56.1581 217.379 56.8081 217.379C57.0281 217.379 57.3581 217.449 57.6481 217.569V216.239C57.4481 216.159 57.2381 216.109 57.0381 216.109ZM62.4052 216.919C62.0052 216.399 61.4152 216.099 60.7152 216.099C59.2952 216.099 58.2852 217.239 58.2852 218.859C58.2852 220.479 59.2952 221.619 60.7152 221.619C61.4352 221.619 62.0252 221.309 62.4252 220.799V221.419H63.9052V213.999H62.4052V216.919ZM59.7852 218.859C59.7852 218.049 60.3452 217.449 61.1252 217.449C61.9052 217.449 62.4652 218.049 62.4652 218.859C62.4652 219.669 61.9052 220.269 61.1252 220.269C60.3552 220.269 59.7852 219.679 59.7852 218.859ZM70.1013 214.299H68.4213V221.419H70.1013V214.299ZM71.5523 221.419H73.0523V218.499C73.0523 217.849 73.4223 217.419 73.9923 217.419C74.5523 217.419 74.9123 217.849 74.9123 218.499V221.419H76.4123V218.499C76.4123 217.869 76.8023 217.419 77.3823 217.419C77.9523 217.439 78.3323 217.889 78.3323 218.499V221.419H79.8323V218.199C79.8323 216.969 79.0223 216.109 77.8623 216.109C77.1523 216.109 76.4723 216.449 76.1423 217.009C75.8523 216.449 75.2323 216.099 74.4923 216.099C73.8623 216.099 73.3123 216.389 72.9923 216.909V216.299H71.5523V221.419ZM82.5348 220.799C82.9348 221.319 83.5248 221.619 84.2248 221.619C85.6548 221.619 86.6548 220.479 86.6548 218.859C86.6548 217.239 85.6448 216.099 84.2248 216.099C83.5148 216.099 82.9148 216.409 82.5148 216.919V216.299H81.0348V223.719H82.5348V220.799ZM85.1548 218.859C85.1548 219.669 84.5948 220.269 83.8148 220.269C83.0348 220.269 82.4748 219.669 82.4748 218.859C82.4748 218.049 83.0348 217.449 83.8148 217.449C84.5848 217.449 85.1548 218.039 85.1548 218.859ZM89.2142 213.999H87.7142V221.419H89.2142V213.999ZM93.1374 220.469C92.4574 220.469 91.9574 219.999 91.8274 219.279L95.8374 219.289C95.8574 219.179 95.8574 218.969 95.8574 218.839C95.8574 217.219 94.7374 216.099 93.0974 216.099C91.4474 216.099 90.2774 217.219 90.2774 218.819C90.2774 220.469 91.4474 221.619 93.0974 221.619C94.3074 221.619 95.3574 220.969 95.6274 220.079L94.3174 219.789C94.1374 220.179 93.6774 220.469 93.1374 220.469ZM91.8174 218.379C91.9474 217.699 92.4074 217.249 93.0674 217.249C93.7474 217.249 94.2474 217.729 94.3374 218.379H91.8174ZM96.9234 221.419H98.4234V218.499C98.4234 217.849 98.7934 217.419 99.3634 217.419C99.9234 217.419 100.283 217.849 100.283 218.499V221.419H101.783V218.499C101.783 217.869 102.173 217.419 102.753 217.419C103.323 217.439 103.703 217.889 103.703 218.499V221.419H105.203V218.199C105.203 216.969 104.393 216.109 103.233 216.109C102.523 216.109 101.843 216.449 101.513 217.009C101.223 216.449 100.603 216.099 99.8634 216.099C99.2334 216.099 98.6834 216.389 98.3634 216.909V216.299H96.9234V221.419ZM109.036 220.469C108.356 220.469 107.856 219.999 107.726 219.279L111.736 219.289C111.756 219.179 111.756 218.969 111.756 218.839C111.756 217.219 110.636 216.099 108.996 216.099C107.346 216.099 106.176 217.219 106.176 218.819C106.176 220.469 107.346 221.619 108.996 221.619C110.206 221.619 111.256 220.969 111.526 220.079L110.216 219.789C110.036 220.179 109.576 220.469 109.036 220.469ZM107.716 218.379C107.846 217.699 108.306 217.249 108.966 217.249C109.646 217.249 110.146 217.729 110.236 218.379H107.716ZM115.902 216.099C115.242 216.099 114.642 216.439 114.282 216.989V216.299H112.822V221.419H114.322V218.539C114.322 217.889 114.802 217.419 115.392 217.419C115.982 217.419 116.342 217.859 116.342 218.479V221.419H117.842V218.219C117.842 216.989 117.062 216.099 115.902 216.099ZM119.433 219.759C119.433 220.849 120.093 221.619 121.113 221.619C121.433 221.619 121.833 221.559 122.133 221.459L122.143 220.259C121.973 220.299 121.753 220.329 121.613 220.329C121.193 220.329 120.933 220.039 120.933 219.609V217.439H122.093V216.299H120.933V215.009H119.673L119.503 216.299H118.713V217.439H119.433V219.759ZM127.173 217.009C126.773 216.439 126.163 216.099 125.433 216.099C123.993 216.099 122.983 217.239 122.983 218.859C122.983 220.479 123.993 221.619 125.433 221.619C126.163 221.619 126.773 221.279 127.173 220.709V221.419H128.673V216.299H127.173V217.009ZM125.823 220.299C125.043 220.299 124.483 219.689 124.483 218.859C124.483 218.029 125.043 217.419 125.823 217.419C126.603 217.419 127.163 218.029 127.163 218.859C127.163 219.689 126.603 220.299 125.823 220.299ZM130.36 219.759C130.36 220.849 131.02 221.619 132.04 221.619C132.36 221.619 132.76 221.559 133.06 221.459L133.07 220.259C132.9 220.299 132.68 220.329 132.54 220.329C132.12 220.329 131.86 220.039 131.86 219.609V217.439H133.02V216.299H131.86V215.009H130.6L130.43 216.299H129.64V217.439H130.36V219.759ZM135.76 216.299H134.26V221.419H135.76V216.299ZM134.14 214.769C134.14 215.269 134.5 215.619 135.01 215.619C135.52 215.619 135.88 215.269 135.88 214.769C135.88 214.279 135.52 213.929 135.01 213.929C134.5 213.929 134.14 214.279 134.14 214.769ZM142.627 218.859C142.627 217.229 141.467 216.099 139.777 216.099C138.097 216.099 136.937 217.229 136.937 218.859C136.937 220.489 138.097 221.619 139.777 221.619C141.467 221.619 142.627 220.489 142.627 218.859ZM141.127 218.859C141.127 219.699 140.567 220.299 139.777 220.299C138.997 220.299 138.437 219.699 138.437 218.859C138.437 218.019 138.997 217.419 139.777 217.419C140.567 217.419 141.127 218.019 141.127 218.859ZM146.771 216.099C146.111 216.099 145.511 216.439 145.151 216.989V216.299H143.691V221.419H145.191V218.539C145.191 217.889 145.671 217.419 146.261 217.419C146.851 217.419 147.211 217.859 147.211 218.479V221.419H148.711V218.219C148.711 216.989 147.931 216.099 146.771 216.099ZM155.958 221.669C157.768 221.669 158.978 220.659 158.978 219.239C158.978 216.389 154.548 217.639 154.548 216.189C154.548 215.689 155.078 215.319 155.868 215.319C156.728 215.319 157.358 215.819 157.348 216.519H158.808C158.808 215.089 157.558 214.049 155.828 214.049C154.108 214.049 152.918 215.009 152.918 216.409C152.918 219.239 157.338 217.969 157.338 219.479C157.338 219.989 156.838 220.399 156.008 220.399C155.048 220.399 154.358 219.849 154.358 219.079H152.848C152.848 220.579 154.148 221.669 155.958 221.669ZM161.976 221.619C162.646 221.619 163.246 221.279 163.606 220.729V221.419H165.066V216.299H163.566V219.179C163.566 219.829 163.086 220.299 162.496 220.299C161.906 220.299 161.546 219.859 161.546 219.239V216.299H160.046V219.499C160.046 220.729 160.826 221.619 161.976 221.619ZM167.867 220.799C168.267 221.319 168.857 221.619 169.557 221.619C170.987 221.619 171.987 220.479 171.987 218.859C171.987 217.239 170.977 216.099 169.557 216.099C168.847 216.099 168.247 216.409 167.847 216.919V216.299H166.367V223.719H167.867V220.799ZM170.487 218.859C170.487 219.669 169.927 220.269 169.147 220.269C168.367 220.269 167.807 219.669 167.807 218.859C167.807 218.049 168.367 217.449 169.147 217.449C169.917 217.449 170.487 218.039 170.487 218.859ZM174.556 220.799C174.956 221.319 175.546 221.619 176.246 221.619C177.676 221.619 178.676 220.479 178.676 218.859C178.676 217.239 177.666 216.099 176.246 216.099C175.536 216.099 174.936 216.409 174.536 216.919V216.299H173.056V223.719H174.556V220.799ZM177.176 218.859C177.176 219.669 176.616 220.269 175.836 220.269C175.056 220.269 174.496 219.669 174.496 218.859C174.496 218.049 175.056 217.449 175.836 217.449C176.606 217.449 177.176 218.039 177.176 218.859ZM185.196 218.859C185.196 217.229 184.036 216.099 182.346 216.099C180.666 216.099 179.506 217.229 179.506 218.859C179.506 220.489 180.666 221.619 182.346 221.619C184.036 221.619 185.196 220.489 185.196 218.859ZM183.696 218.859C183.696 219.699 183.136 220.299 182.346 220.299C181.566 220.299 181.006 219.699 181.006 218.859C181.006 218.019 181.566 217.419 182.346 217.419C183.136 217.419 183.696 218.019 183.696 218.859ZM189.069 216.109C188.499 216.109 187.999 216.439 187.699 216.949V216.299H186.259V221.419H187.759V218.699C187.759 217.929 188.189 217.379 188.839 217.379C189.059 217.379 189.389 217.449 189.679 217.569V216.239C189.479 216.159 189.269 216.109 189.069 216.109ZM190.936 219.759C190.936 220.849 191.596 221.619 192.616 221.619C192.936 221.619 193.336 221.559 193.636 221.459L193.646 220.259C193.476 220.299 193.256 220.329 193.116 220.329C192.696 220.329 192.436 220.039 192.436 219.609V217.439H193.596V216.299H192.436V215.009H191.176L191.006 216.299H190.216V217.439H190.936V219.759ZM19.99 244.209C21.65 244.209 22.81 243.199 22.81 241.759C22.81 240.309 21.66 239.299 20 239.299H16.81V246.419H18.43V244.209H19.99ZM19.69 240.569C20.54 240.569 21.13 241.059 21.13 241.759C21.13 242.449 20.53 242.939 19.69 242.939H18.43V240.569H19.69ZM26.6475 241.109C26.0775 241.109 25.5775 241.439 25.2775 241.949V241.299H23.8375V246.419H25.3375V243.699C25.3375 242.929 25.7675 242.379 26.4175 242.379C26.6375 242.379 26.9675 242.449 27.2575 242.569V241.239C27.0575 241.159 26.8475 241.109 26.6475 241.109ZM30.7546 245.469C30.0746 245.469 29.5746 244.999 29.4446 244.279L33.4546 244.289C33.4746 244.179 33.4746 243.969 33.4746 243.839C33.4746 242.219 32.3546 241.099 30.7146 241.099C29.0646 241.099 27.8946 242.219 27.8946 243.819C27.8946 245.469 29.0646 246.619 30.7146 246.619C31.9246 246.619 32.9746 245.969 33.2446 245.079L31.9346 244.789C31.7546 245.179 31.2946 245.469 30.7546 245.469ZM29.4346 243.379C29.5646 242.699 30.0246 242.249 30.6846 242.249C31.3646 242.249 31.8646 242.729 31.9546 243.379H29.4346ZM34.5406 246.419H36.0406V243.499C36.0406 242.849 36.4106 242.419 36.9806 242.419C37.5406 242.419 37.9006 242.849 37.9006 243.499V246.419H39.4006V243.499C39.4006 242.869 39.7906 242.419 40.3706 242.419C40.9406 242.439 41.3206 242.889 41.3206 243.499V246.419H42.8206V243.199C42.8206 241.969 42.0106 241.109 40.8506 241.109C40.1406 241.109 39.4606 241.449 39.1306 242.009C38.8406 241.449 38.2206 241.099 37.4806 241.099C36.8506 241.099 36.3006 241.389 35.9806 241.909V241.299H34.5406V246.419ZM45.643 241.299H44.143V246.419H45.643V241.299ZM44.023 239.769C44.023 240.269 44.383 240.619 44.893 240.619C45.403 240.619 45.763 240.269 45.763 239.769C45.763 239.279 45.403 238.929 44.893 238.929C44.383 238.929 44.023 239.279 44.023 239.769ZM48.8902 246.619C49.5602 246.619 50.1602 246.279 50.5202 245.729V246.419H51.9802V241.299H50.4802V244.179C50.4802 244.829 50.0002 245.299 49.4102 245.299C48.8202 245.299 48.4602 244.859 48.4602 244.239V241.299H46.9602V244.499C46.9602 245.729 47.7402 246.619 48.8902 246.619ZM53.2809 246.419H54.7809V243.499C54.7809 242.849 55.1509 242.419 55.7209 242.419C56.2809 242.419 56.6409 242.849 56.6409 243.499V246.419H58.1409V243.499C58.1409 242.869 58.5309 242.419 59.1109 242.419C59.6809 242.439 60.0609 242.889 60.0609 243.499V246.419H61.5609V243.199C61.5609 241.969 60.7509 241.109 59.5909 241.109C58.8809 241.109 58.2009 241.449 57.8709 242.009C57.5809 241.449 56.9609 241.099 56.2209 241.099C55.5909 241.099 55.0409 241.389 54.7209 241.909V241.299H53.2809V246.419ZM67.6599 239.299H65.9799V246.419H67.6599V239.299ZM69.1109 246.419H70.6109V243.499C70.6109 242.849 70.9809 242.419 71.5509 242.419C72.1109 242.419 72.4709 242.849 72.4709 243.499V246.419H73.9709V243.499C73.9709 242.869 74.3609 242.419 74.9409 242.419C75.5109 242.439 75.8909 242.889 75.8909 243.499V246.419H77.3909V243.199C77.3909 241.969 76.5809 241.109 75.4209 241.109C74.7109 241.109 74.0309 241.449 73.7009 242.009C73.4109 241.449 72.7909 241.099 72.0509 241.099C71.4209 241.099 70.8709 241.389 70.5509 241.909V241.299H69.1109V246.419ZM80.0934 245.799C80.4934 246.319 81.0834 246.619 81.7834 246.619C83.2134 246.619 84.2134 245.479 84.2134 243.859C84.2134 242.239 83.2034 241.099 81.7834 241.099C81.0734 241.099 80.4734 241.409 80.0734 241.919V241.299H78.5934V248.719H80.0934V245.799ZM82.7134 243.859C82.7134 244.669 82.1534 245.269 81.3734 245.269C80.5934 245.269 80.0334 244.669 80.0334 243.859C80.0334 243.049 80.5934 242.449 81.3734 242.449C82.1434 242.449 82.7134 243.039 82.7134 243.859ZM86.7728 238.999H85.2728V246.419H86.7728V238.999ZM90.696 245.469C90.016 245.469 89.516 244.999 89.386 244.279L93.396 244.289C93.416 244.179 93.416 243.969 93.416 243.839C93.416 242.219 92.296 241.099 90.656 241.099C89.006 241.099 87.836 242.219 87.836 243.819C87.836 245.469 89.006 246.619 90.656 246.619C91.866 246.619 92.916 245.969 93.186 245.079L91.876 244.789C91.696 245.179 91.236 245.469 90.696 245.469ZM89.376 243.379C89.506 242.699 89.966 242.249 90.626 242.249C91.306 242.249 91.806 242.729 91.896 243.379H89.376ZM94.482 246.419H95.982V243.499C95.982 242.849 96.352 242.419 96.922 242.419C97.482 242.419 97.842 242.849 97.842 243.499V246.419H99.342V243.499C99.342 242.869 99.732 242.419 100.312 242.419C100.882 242.439 101.262 242.889 101.262 243.499V246.419H102.762V243.199C102.762 241.969 101.952 241.109 100.792 241.109C100.082 241.109 99.402 241.449 99.072 242.009C98.782 241.449 98.162 241.099 97.422 241.099C96.792 241.099 96.242 241.389 95.922 241.909V241.299H94.482V246.419ZM106.594 245.469C105.914 245.469 105.414 244.999 105.284 244.279L109.294 244.289C109.314 244.179 109.314 243.969 109.314 243.839C109.314 242.219 108.194 241.099 106.554 241.099C104.904 241.099 103.734 242.219 103.734 243.819C103.734 245.469 104.904 246.619 106.554 246.619C107.764 246.619 108.814 245.969 109.084 245.079L107.774 244.789C107.594 245.179 107.134 245.469 106.594 245.469ZM105.274 243.379C105.404 242.699 105.864 242.249 106.524 242.249C107.204 242.249 107.704 242.729 107.794 243.379H105.274ZM113.46 241.099C112.8 241.099 112.2 241.439 111.84 241.989V241.299H110.38V246.419H111.88V243.539C111.88 242.889 112.36 242.419 112.95 242.419C113.54 242.419 113.9 242.859 113.9 243.479V246.419H115.4V243.219C115.4 241.989 114.62 241.099 113.46 241.099ZM116.991 244.759C116.991 245.849 117.651 246.619 118.671 246.619C118.991 246.619 119.391 246.559 119.691 246.459L119.701 245.259C119.531 245.299 119.311 245.329 119.171 245.329C118.751 245.329 118.491 245.039 118.491 244.609V242.439H119.651V241.299H118.491V240.009H117.231L117.061 241.299H116.271V242.439H116.991V244.759ZM124.731 242.009C124.331 241.439 123.721 241.099 122.991 241.099C121.551 241.099 120.541 242.239 120.541 243.859C120.541 245.479 121.551 246.619 122.991 246.619C123.721 246.619 124.331 246.279 124.731 245.709V246.419H126.231V241.299H124.731V242.009ZM123.381 245.299C122.601 245.299 122.041 244.689 122.041 243.859C122.041 243.029 122.601 242.419 123.381 242.419C124.161 242.419 124.721 243.029 124.721 243.859C124.721 244.689 124.161 245.299 123.381 245.299ZM127.919 244.759C127.919 245.849 128.579 246.619 129.599 246.619C129.919 246.619 130.319 246.559 130.619 246.459L130.629 245.259C130.459 245.299 130.239 245.329 130.099 245.329C129.679 245.329 129.419 245.039 129.419 244.609V242.439H130.579V241.299H129.419V240.009H128.159L127.989 241.299H127.199V242.439H127.919V244.759ZM133.319 241.299H131.819V246.419H133.319V241.299ZM131.699 239.769C131.699 240.269 132.059 240.619 132.569 240.619C133.079 240.619 133.439 240.269 133.439 239.769C133.439 239.279 133.079 238.929 132.569 238.929C132.059 238.929 131.699 239.279 131.699 239.769ZM140.186 243.859C140.186 242.229 139.026 241.099 137.336 241.099C135.656 241.099 134.496 242.229 134.496 243.859C134.496 245.489 135.656 246.619 137.336 246.619C139.026 246.619 140.186 245.489 140.186 243.859ZM138.686 243.859C138.686 244.699 138.126 245.299 137.336 245.299C136.556 245.299 135.996 244.699 135.996 243.859C135.996 243.019 136.556 242.419 137.336 242.419C138.126 242.419 138.686 243.019 138.686 243.859ZM144.33 241.099C143.67 241.099 143.07 241.439 142.71 241.989V241.299H141.25V246.419H142.75V243.539C142.75 242.889 143.23 242.419 143.82 242.419C144.41 242.419 144.77 242.859 144.77 243.479V246.419H146.27V243.219C146.27 241.989 145.49 241.099 144.33 241.099ZM153.517 246.669C155.327 246.669 156.537 245.659 156.537 244.239C156.537 241.389 152.107 242.639 152.107 241.189C152.107 240.689 152.637 240.319 153.427 240.319C154.287 240.319 154.917 240.819 154.907 241.519H156.367C156.367 240.089 155.117 239.049 153.387 239.049C151.667 239.049 150.477 240.009 150.477 241.409C150.477 244.239 154.897 242.969 154.897 244.479C154.897 244.989 154.397 245.399 153.567 245.399C152.607 245.399 151.917 244.849 151.917 244.079H150.407C150.407 245.579 151.707 246.669 153.517 246.669ZM159.535 246.619C160.205 246.619 160.805 246.279 161.165 245.729V246.419H162.625V241.299H161.125V244.179C161.125 244.829 160.645 245.299 160.055 245.299C159.465 245.299 159.105 244.859 159.105 244.239V241.299H157.605V244.499C157.605 245.729 158.385 246.619 159.535 246.619ZM165.425 245.799C165.825 246.319 166.415 246.619 167.115 246.619C168.545 246.619 169.545 245.479 169.545 243.859C169.545 242.239 168.535 241.099 167.115 241.099C166.405 241.099 165.805 241.409 165.405 241.919V241.299H163.925V248.719H165.425V245.799ZM168.045 243.859C168.045 244.669 167.485 245.269 166.705 245.269C165.925 245.269 165.365 244.669 165.365 243.859C165.365 243.049 165.925 242.449 166.705 242.449C167.475 242.449 168.045 243.039 168.045 243.859ZM172.115 245.799C172.515 246.319 173.105 246.619 173.805 246.619C175.235 246.619 176.235 245.479 176.235 243.859C176.235 242.239 175.225 241.099 173.805 241.099C173.095 241.099 172.495 241.409 172.095 241.919V241.299H170.615V248.719H172.115V245.799ZM174.735 243.859C174.735 244.669 174.175 245.269 173.395 245.269C172.615 245.269 172.055 244.669 172.055 243.859C172.055 243.049 172.615 242.449 173.395 242.449C174.165 242.449 174.735 243.039 174.735 243.859ZM182.754 243.859C182.754 242.229 181.594 241.099 179.904 241.099C178.224 241.099 177.064 242.229 177.064 243.859C177.064 245.489 178.224 246.619 179.904 246.619C181.594 246.619 182.754 245.489 182.754 243.859ZM181.254 243.859C181.254 244.699 180.694 245.299 179.904 245.299C179.124 245.299 178.564 244.699 178.564 243.859C178.564 243.019 179.124 242.419 179.904 242.419C180.694 242.419 181.254 243.019 181.254 243.859ZM186.628 241.109C186.058 241.109 185.558 241.439 185.258 241.949V241.299H183.818V246.419H185.318V243.699C185.318 242.929 185.748 242.379 186.398 242.379C186.618 242.379 186.948 242.449 187.238 242.569V241.239C187.038 241.159 186.828 241.109 186.628 241.109ZM188.495 244.759C188.495 245.849 189.155 246.619 190.175 246.619C190.495 246.619 190.895 246.559 191.195 246.459L191.205 245.259C191.035 245.299 190.815 245.329 190.675 245.329C190.255 245.329 189.995 245.039 189.995 244.609V242.439H191.155V241.299H189.995V240.009H188.735L188.565 241.299H187.775V242.439H188.495V244.759ZM16.81 270.419H19.48C21.94 270.419 23.58 268.999 23.58 266.859C23.58 264.719 21.94 263.299 19.48 263.299H16.81V270.419ZM21.91 266.859C21.91 268.239 20.93 269.109 19.48 269.109H18.44V264.609H19.48C20.93 264.609 21.91 265.479 21.91 266.859ZM27.3366 269.469C26.6566 269.469 26.1566 268.999 26.0266 268.279L30.0366 268.289C30.0566 268.179 30.0566 267.969 30.0566 267.839C30.0566 266.219 28.9366 265.099 27.2966 265.099C25.6466 265.099 24.4766 266.219 24.4766 267.819C24.4766 269.469 25.6466 270.619 27.2966 270.619C28.5066 270.619 29.5566 269.969 29.8266 269.079L28.5166 268.789C28.3366 269.179 27.8766 269.469 27.3366 269.469ZM26.0166 267.379C26.1466 266.699 26.6066 266.249 27.2666 266.249C27.9466 266.249 28.4466 266.729 28.5366 267.379H26.0166ZM35.0127 265.919C34.6127 265.399 34.0227 265.099 33.3227 265.099C31.9027 265.099 30.8927 266.239 30.8927 267.859C30.8927 269.479 31.9027 270.619 33.3227 270.619C34.0427 270.619 34.6327 270.309 35.0327 269.799V270.419H36.5127V262.999H35.0127V265.919ZM32.3927 267.859C32.3927 267.049 32.9527 266.449 33.7327 266.449C34.5127 266.449 35.0727 267.049 35.0727 267.859C35.0727 268.669 34.5127 269.269 33.7327 269.269C32.9627 269.269 32.3927 268.679 32.3927 267.859ZM39.4321 265.299H37.9321V270.419H39.4321V265.299ZM37.8121 263.769C37.8121 264.269 38.1721 264.619 38.6821 264.619C39.1921 264.619 39.5521 264.269 39.5521 263.769C39.5521 263.279 39.1921 262.929 38.6821 262.929C38.1721 262.929 37.8121 263.279 37.8121 263.769ZM46.0292 267.129C45.8692 265.949 44.7492 265.099 43.4092 265.099C41.7892 265.099 40.6192 266.259 40.6192 267.859C40.6192 269.459 41.7992 270.619 43.4092 270.619C44.7292 270.619 45.8492 269.769 46.0392 268.589L44.6392 268.409C44.4992 268.959 44.0092 269.359 43.4192 269.359C42.6792 269.359 42.1192 268.729 42.1192 267.859C42.1192 266.989 42.6892 266.359 43.4192 266.359C43.9892 266.359 44.4992 266.759 44.6292 267.309L46.0292 267.129ZM51.0495 266.009C50.6495 265.439 50.0395 265.099 49.3095 265.099C47.8695 265.099 46.8595 266.239 46.8595 267.859C46.8595 269.479 47.8695 270.619 49.3095 270.619C50.0395 270.619 50.6495 270.279 51.0495 269.709V270.419H52.5495V265.299H51.0495V266.009ZM49.6995 269.299C48.9195 269.299 48.3595 268.689 48.3595 267.859C48.3595 267.029 48.9195 266.419 49.6995 266.419C50.4795 266.419 51.0395 267.029 51.0395 267.859C51.0395 268.689 50.4795 269.299 49.6995 269.299ZM54.2373 268.759C54.2373 269.849 54.8973 270.619 55.9173 270.619C56.2373 270.619 56.6373 270.559 56.9373 270.459L56.9473 269.259C56.7773 269.299 56.5573 269.329 56.4173 269.329C55.9973 269.329 55.7373 269.039 55.7373 268.609V266.439H56.8973V265.299H55.7373V264.009H54.4773L54.3073 265.299H53.5173V266.439H54.2373V268.759ZM60.6472 269.469C59.9672 269.469 59.4672 268.999 59.3372 268.279L63.3472 268.289C63.3672 268.179 63.3672 267.969 63.3672 267.839C63.3672 266.219 62.2472 265.099 60.6072 265.099C58.9572 265.099 57.7872 266.219 57.7872 267.819C57.7872 269.469 58.9572 270.619 60.6072 270.619C61.8172 270.619 62.8672 269.969 63.1372 269.079L61.8272 268.789C61.6472 269.179 61.1872 269.469 60.6472 269.469ZM59.3272 267.379C59.4572 266.699 59.9172 266.249 60.5772 266.249C61.2572 266.249 61.7572 266.729 61.8472 267.379H59.3272ZM68.3232 265.919C67.9232 265.399 67.3332 265.099 66.6332 265.099C65.2132 265.099 64.2032 266.239 64.2032 267.859C64.2032 269.479 65.2132 270.619 66.6332 270.619C67.3532 270.619 67.9432 270.309 68.3432 269.799V270.419H69.8232V262.999H68.3232V265.919ZM65.7032 267.859C65.7032 267.049 66.2632 266.449 67.0432 266.449C67.8232 266.449 68.3832 267.049 68.3832 267.859C68.3832 268.669 67.8232 269.269 67.0432 269.269C66.2732 269.269 65.7032 268.679 65.7032 267.859ZM78.5393 263.299H76.0993L73.7093 270.419H75.4793L75.8793 269.129H78.7393L79.1593 270.419H80.9193L78.5393 263.299ZM77.3193 264.739L78.3993 267.919H76.2393L77.3193 264.739ZM86.7323 267.129C86.5723 265.949 85.4523 265.099 84.1123 265.099C82.4923 265.099 81.3223 266.259 81.3223 267.859C81.3223 269.459 82.5023 270.619 84.1123 270.619C85.4323 270.619 86.5523 269.769 86.7423 268.589L85.3423 268.409C85.2023 268.959 84.7123 269.359 84.1223 269.359C83.3823 269.359 82.8223 268.729 82.8223 267.859C82.8223 266.989 83.3923 266.359 84.1223 266.359C84.6923 266.359 85.2023 266.759 85.3323 267.309L86.7323 267.129ZM92.9726 267.129C92.8126 265.949 91.6926 265.099 90.3526 265.099C88.7326 265.099 87.5626 266.259 87.5626 267.859C87.5626 269.459 88.7426 270.619 90.3526 270.619C91.6726 270.619 92.7926 269.769 92.9826 268.589L91.5826 268.409C91.4426 268.959 90.9526 269.359 90.3626 269.359C89.6226 269.359 89.0626 268.729 89.0626 267.859C89.0626 266.989 89.6326 266.359 90.3626 266.359C90.9326 266.359 91.4426 266.759 91.5726 267.309L92.9726 267.129ZM99.4828 267.859C99.4828 266.229 98.3228 265.099 96.6328 265.099C94.9528 265.099 93.7928 266.229 93.7928 267.859C93.7928 269.489 94.9528 270.619 96.6328 270.619C98.3228 270.619 99.4828 269.489 99.4828 267.859ZM97.9828 267.859C97.9828 268.699 97.4228 269.299 96.6328 269.299C95.8528 269.299 95.2928 268.699 95.2928 267.859C95.2928 267.019 95.8528 266.419 96.6328 266.419C97.4228 266.419 97.9828 267.019 97.9828 267.859ZM102.376 270.619C103.046 270.619 103.646 270.279 104.006 269.729V270.419H105.466V265.299H103.966V268.179C103.966 268.829 103.486 269.299 102.896 269.299C102.306 269.299 101.946 268.859 101.946 268.239V265.299H100.446V268.499C100.446 269.729 101.226 270.619 102.376 270.619ZM109.847 265.099C109.187 265.099 108.587 265.439 108.227 265.989V265.299H106.767V270.419H108.267V267.539C108.267 266.889 108.747 266.419 109.337 266.419C109.927 266.419 110.287 266.859 110.287 267.479V270.419H111.787V267.219C111.787 265.989 111.007 265.099 109.847 265.099ZM113.378 268.759C113.378 269.849 114.038 270.619 115.058 270.619C115.378 270.619 115.778 270.559 116.078 270.459L116.088 269.259C115.918 269.299 115.698 269.329 115.558 269.329C115.138 269.329 114.878 269.039 114.878 268.609V266.439H116.038V265.299H114.878V264.009H113.618L113.448 265.299H112.658V266.439H113.378V268.759ZM122.014 270.419V265.329L123.974 270.419H125.234L127.204 265.329V270.419H128.844V263.299H126.594L124.604 268.509L122.594 263.299H120.374V270.419H122.014ZM134.262 266.009C133.862 265.439 133.252 265.099 132.522 265.099C131.082 265.099 130.072 266.239 130.072 267.859C130.072 269.479 131.082 270.619 132.522 270.619C133.252 270.619 133.862 270.279 134.262 269.709V270.419H135.762V265.299H134.262V266.009ZM132.912 269.299C132.132 269.299 131.572 268.689 131.572 267.859C131.572 267.029 132.132 266.419 132.912 266.419C133.692 266.419 134.252 267.029 134.252 267.859C134.252 268.689 133.692 269.299 132.912 269.299ZM140.14 265.099C139.48 265.099 138.88 265.439 138.52 265.989V265.299H137.06V270.419H138.56V267.539C138.56 266.889 139.04 266.419 139.63 266.419C140.22 266.419 140.58 266.859 140.58 267.479V270.419H142.08V267.219C142.08 265.989 141.3 265.099 140.14 265.099ZM147.241 266.009C146.841 265.439 146.231 265.099 145.501 265.099C144.061 265.099 143.051 266.239 143.051 267.859C143.051 269.479 144.061 270.619 145.501 270.619C146.231 270.619 146.841 270.279 147.241 269.709V270.419H148.741V265.299H147.241V266.009ZM145.891 269.299C145.111 269.299 144.551 268.689 144.551 267.859C144.551 267.029 145.111 266.419 145.891 266.419C146.671 266.419 147.231 267.029 147.231 267.859C147.231 268.689 146.671 269.299 145.891 269.299ZM150.049 271.049C150.269 272.139 151.359 272.919 152.689 272.919C154.309 272.919 155.429 271.949 155.429 270.359V265.299H153.939V265.909C153.539 265.409 152.959 265.109 152.239 265.109C150.829 265.109 149.809 266.249 149.809 267.859C149.809 269.409 150.829 270.489 152.239 270.489C152.949 270.489 153.529 270.199 153.929 269.709V270.319C153.929 271.209 153.389 271.729 152.629 271.729C152.059 271.729 151.549 271.359 151.389 270.839L150.049 271.049ZM152.649 269.259C151.869 269.259 151.309 268.669 151.309 267.859C151.309 267.029 151.869 266.419 152.649 266.419C153.429 266.419 153.989 267.029 153.989 267.859C153.989 268.669 153.429 269.259 152.649 269.259ZM159.358 269.469C158.678 269.469 158.178 268.999 158.048 268.279L162.058 268.289C162.078 268.179 162.078 267.969 162.078 267.839C162.078 266.219 160.958 265.099 159.318 265.099C157.668 265.099 156.498 266.219 156.498 267.819C156.498 269.469 157.668 270.619 159.318 270.619C160.528 270.619 161.578 269.969 161.848 269.079L160.538 268.789C160.358 269.179 159.898 269.469 159.358 269.469ZM158.038 267.379C158.168 266.699 158.628 266.249 159.288 266.249C159.968 266.249 160.468 266.729 160.558 267.379H158.038ZM165.954 265.109C165.384 265.109 164.884 265.439 164.584 265.949V265.299H163.144V270.419H164.644V267.699C164.644 266.929 165.074 266.379 165.724 266.379C165.944 266.379 166.274 266.449 166.564 266.569V265.239C166.364 265.159 166.154 265.109 165.954 265.109ZM19.99 293.209C21.65 293.209 22.81 292.199 22.81 290.759C22.81 289.309 21.66 288.299 20 288.299H16.81V295.419H18.43V293.209H19.99ZM19.69 289.569C20.54 289.569 21.13 290.059 21.13 290.759C21.13 291.449 20.53 291.939 19.69 291.939H18.43V289.569H19.69ZM26.6475 290.109C26.0775 290.109 25.5775 290.439 25.2775 290.949V290.299H23.8375V295.419H25.3375V292.699C25.3375 291.929 25.7675 291.379 26.4175 291.379C26.6375 291.379 26.9675 291.449 27.2575 291.569V290.239C27.0575 290.159 26.8475 290.109 26.6475 290.109ZM29.7446 290.299H28.2446V295.419H29.7446V290.299ZM28.1246 288.769C28.1246 289.269 28.4846 289.619 28.9946 289.619C29.5046 289.619 29.8646 289.269 29.8646 288.769C29.8646 288.279 29.5046 287.929 28.9946 287.929C28.4846 287.929 28.1246 288.279 28.1246 288.769ZM36.6117 292.859C36.6117 291.229 35.4517 290.099 33.7617 290.099C32.0817 290.099 30.9217 291.229 30.9217 292.859C30.9217 294.489 32.0817 295.619 33.7617 295.619C35.4517 295.619 36.6117 294.489 36.6117 292.859ZM35.1117 292.859C35.1117 293.699 34.5517 294.299 33.7617 294.299C32.9817 294.299 32.4217 293.699 32.4217 292.859C32.4217 292.019 32.9817 291.419 33.7617 291.419C34.5517 291.419 35.1117 292.019 35.1117 292.859ZM40.4854 290.109C39.9154 290.109 39.4154 290.439 39.1154 290.949V290.299H37.6754V295.419H39.1754V292.699C39.1754 291.929 39.6054 291.379 40.2554 291.379C40.4754 291.379 40.8054 291.449 41.0954 291.569V290.239C40.8954 290.159 40.6854 290.109 40.4854 290.109ZM43.5825 290.299H42.0825V295.419H43.5825V290.299ZM41.9625 288.769C41.9625 289.269 42.3225 289.619 42.8325 289.619C43.3425 289.619 43.7025 289.269 43.7025 288.769C43.7025 288.279 43.3425 287.929 42.8325 287.929C42.3225 287.929 41.9625 288.279 41.9625 288.769ZM45.3896 293.759C45.3896 294.849 46.0496 295.619 47.0696 295.619C47.3896 295.619 47.7896 295.559 48.0896 295.459L48.0996 294.259C47.9296 294.299 47.7096 294.329 47.5696 294.329C47.1496 294.329 46.8896 294.039 46.8896 293.609V291.439H48.0496V290.299H46.8896V289.009H45.6296L45.4596 290.299H44.6696V291.439H45.3896V293.759ZM49.3895 297.549C49.6695 297.659 50.0595 297.729 50.3795 297.729C51.4195 297.729 51.9695 296.909 52.4495 295.599L54.4295 290.299H52.8695L51.7295 293.599L50.3395 290.299H48.6995L51.1195 295.469C50.8895 296.089 50.6395 296.549 49.9995 296.549C49.8195 296.549 49.5595 296.499 49.3895 296.439V297.549ZM61.3002 295.669C63.1102 295.669 64.3202 294.659 64.3202 293.239C64.3202 290.389 59.8902 291.639 59.8902 290.189C59.8902 289.689 60.4202 289.319 61.2102 289.319C62.0702 289.319 62.7002 289.819 62.6902 290.519H64.1502C64.1502 289.089 62.9002 288.049 61.1702 288.049C59.4502 288.049 58.2602 289.009 58.2602 290.409C58.2602 293.239 62.6802 291.969 62.6802 293.479C62.6802 293.989 62.1802 294.399 61.3502 294.399C60.3902 294.399 59.7002 293.849 59.7002 293.079H58.1902C58.1902 294.579 59.4902 295.669 61.3002 295.669ZM67.3179 295.619C67.9879 295.619 68.5879 295.279 68.9479 294.729V295.419H70.4079V290.299H68.9079V293.179C68.9079 293.829 68.4279 294.299 67.8379 294.299C67.2479 294.299 66.8879 293.859 66.8879 293.239V290.299H65.3879V293.499C65.3879 294.729 66.1679 295.619 67.3179 295.619ZM73.2086 294.799C73.6086 295.319 74.1986 295.619 74.8986 295.619C76.3286 295.619 77.3286 294.479 77.3286 292.859C77.3286 291.239 76.3186 290.099 74.8986 290.099C74.1886 290.099 73.5886 290.409 73.1886 290.919V290.299H71.7086V297.719H73.2086V294.799ZM75.8286 292.859C75.8286 293.669 75.2686 294.269 74.4886 294.269C73.7086 294.269 73.1486 293.669 73.1486 292.859C73.1486 292.049 73.7086 291.449 74.4886 291.449C75.2586 291.449 75.8286 292.039 75.8286 292.859ZM79.898 294.799C80.298 295.319 80.888 295.619 81.588 295.619C83.018 295.619 84.018 294.479 84.018 292.859C84.018 291.239 83.008 290.099 81.588 290.099C80.878 290.099 80.278 290.409 79.878 290.919V290.299H78.398V297.719H79.898V294.799ZM82.518 292.859C82.518 293.669 81.958 294.269 81.178 294.269C80.398 294.269 79.838 293.669 79.838 292.859C79.838 292.049 80.398 291.449 81.178 291.449C81.948 291.449 82.518 292.039 82.518 292.859ZM90.5375 292.859C90.5375 291.229 89.3775 290.099 87.6875 290.099C86.0075 290.099 84.8475 291.229 84.8475 292.859C84.8475 294.489 86.0075 295.619 87.6875 295.619C89.3775 295.619 90.5375 294.489 90.5375 292.859ZM89.0375 292.859C89.0375 293.699 88.4775 294.299 87.6875 294.299C86.9075 294.299 86.3475 293.699 86.3475 292.859C86.3475 292.019 86.9075 291.419 87.6875 291.419C88.4775 291.419 89.0375 292.019 89.0375 292.859ZM94.4112 290.109C93.8412 290.109 93.3412 290.439 93.0412 290.949V290.299H91.6012V295.419H93.1012V292.699C93.1012 291.929 93.5312 291.379 94.1812 291.379C94.4012 291.379 94.7312 291.449 95.0212 291.569V290.239C94.8212 290.159 94.6112 290.109 94.4112 290.109ZM96.2783 293.759C96.2783 294.849 96.9383 295.619 97.9583 295.619C98.2783 295.619 98.6783 295.559 98.9783 295.459L98.9883 294.259C98.8183 294.299 98.5983 294.329 98.4583 294.329C98.0383 294.329 97.7783 294.039 97.7783 293.609V291.439H98.9383V290.299H97.7783V289.009H96.5183L96.3483 290.299H95.5583V291.439H96.2783V293.759ZM21.52 317.449C21.98 316.829 22.25 316.139 22.25 315.559C22.25 314.119 21.07 313.049 19.37 313.049C17.63 313.049 16.42 314.119 16.42 315.649C16.42 316.999 17.38 317.959 18.75 317.959C18.93 317.959 19.15 317.939 19.4 317.869L17.52 320.419H19.38L21.52 317.449ZM20.57 315.649C20.57 316.359 20.05 316.849 19.31 316.849C18.61 316.849 18.1 316.349 18.1 315.649C18.1 314.929 18.61 314.409 19.31 314.409C20.05 314.399 20.57 314.919 20.57 315.649ZM28.1899 317.449C28.6499 316.829 28.9199 316.139 28.9199 315.559C28.9199 314.119 27.7399 313.049 26.0399 313.049C24.2999 313.049 23.0899 314.119 23.0899 315.649C23.0899 316.999 24.0499 317.959 25.4199 317.959C25.5999 317.959 25.8199 317.939 26.0699 317.869L24.1899 320.419H26.0499L28.1899 317.449ZM27.2399 315.649C27.2399 316.359 26.7199 316.849 25.9799 316.849C25.2799 316.849 24.7699 316.349 24.7699 315.649C24.7699 314.929 25.2799 314.409 25.9799 314.409C26.7199 314.399 27.2399 314.919 27.2399 315.649ZM29.1641 319.729C29.1641 320.229 29.5341 320.579 30.0341 320.579C30.5441 320.579 30.9041 320.229 30.9041 319.729C30.9041 319.239 30.5441 318.889 30.0341 318.889C29.5341 318.889 29.1641 319.239 29.1641 319.729ZM36.2466 317.449C36.7066 316.829 36.9766 316.139 36.9766 315.559C36.9766 314.119 35.7966 313.049 34.0966 313.049C32.3566 313.049 31.1466 314.119 31.1466 315.649C31.1466 316.999 32.1066 317.959 33.4766 317.959C33.6566 317.959 33.8766 317.939 34.1266 317.869L32.2466 320.419H34.1066L36.2466 317.449ZM35.2966 315.649C35.2966 316.359 34.7766 316.849 34.0366 316.849C33.3366 316.849 32.8266 316.349 32.8266 315.649C32.8266 314.929 33.3366 314.409 34.0366 314.409C34.7766 314.399 35.2966 314.919 35.2966 315.649ZM42.9165 317.449C43.3765 316.829 43.6465 316.139 43.6465 315.559C43.6465 314.119 42.4665 313.049 40.7665 313.049C39.0265 313.049 37.8165 314.119 37.8165 315.649C37.8165 316.999 38.7765 317.959 40.1465 317.959C40.3265 317.959 40.5465 317.939 40.7965 317.869L38.9165 320.419H40.7765L42.9165 317.449ZM41.9665 315.649C41.9665 316.359 41.4465 316.849 40.7065 316.849C40.0065 316.849 39.4965 316.349 39.4965 315.649C39.4965 314.929 40.0065 314.409 40.7065 314.409C41.4465 314.399 41.9665 314.919 41.9665 315.649ZM52.1664 316.279C50.9164 316.279 50.0364 317.169 50.0364 318.419C50.0364 319.679 50.9164 320.559 52.1664 320.559C53.4264 320.559 54.3064 319.679 54.3064 318.419C54.3064 317.169 53.4264 316.279 52.1664 316.279ZM52.1664 317.529C52.6964 317.529 53.0564 317.899 53.0564 318.419C53.0564 318.949 52.6964 319.309 52.1664 319.309C51.6464 319.309 51.2864 318.949 51.2864 318.419C51.2864 317.899 51.6464 317.529 52.1664 317.529ZM46.6264 312.859C45.3764 312.859 44.4864 313.739 44.4864 314.999C44.4864 316.249 45.3764 317.139 46.6264 317.139C47.8864 317.139 48.7664 316.249 48.7664 314.999C48.7664 313.739 47.8864 312.859 46.6264 312.859ZM46.6264 314.109C47.1564 314.109 47.5164 314.469 47.5164 314.999C47.5164 315.519 47.1564 315.889 46.6264 315.889C46.1064 315.889 45.7364 315.519 45.7364 314.999C45.7364 314.469 46.1064 314.109 46.6264 314.109ZM52.6564 312.999H51.2264L46.1464 320.419H47.5664L52.6564 312.999ZM58.4471 321.049C58.6671 322.139 59.7571 322.919 61.0871 322.919C62.7071 322.919 63.8271 321.949 63.8271 320.359V315.299H62.3371V315.909C61.9371 315.409 61.3571 315.109 60.6371 315.109C59.2271 315.109 58.2071 316.249 58.2071 317.859C58.2071 319.409 59.2271 320.489 60.6371 320.489C61.3471 320.489 61.9271 320.199 62.3271 319.709V320.319C62.3271 321.209 61.7871 321.729 61.0271 321.729C60.4571 321.729 59.9471 321.359 59.7871 320.839L58.4471 321.049ZM61.0471 319.259C60.2671 319.259 59.7071 318.669 59.7071 317.859C59.7071 317.029 60.2671 316.419 61.0471 316.419C61.8271 316.419 62.3871 317.029 62.3871 317.859C62.3871 318.669 61.8271 319.259 61.0471 319.259ZM66.9566 320.619C67.6266 320.619 68.2266 320.279 68.5866 319.729V320.419H70.0466V315.299H68.5466V318.179C68.5466 318.829 68.0666 319.299 67.4766 319.299C66.8866 319.299 66.5266 318.859 66.5266 318.239V315.299H65.0266V318.499C65.0266 319.729 65.8066 320.619 66.9566 320.619ZM75.3073 316.009C74.9073 315.439 74.2973 315.099 73.5673 315.099C72.1273 315.099 71.1173 316.239 71.1173 317.859C71.1173 319.479 72.1273 320.619 73.5673 320.619C74.2973 320.619 74.9073 320.279 75.3073 319.709V320.419H76.8073V315.299H75.3073V316.009ZM73.9573 319.299C73.1773 319.299 72.6173 318.689 72.6173 317.859C72.6173 317.029 73.1773 316.419 73.9573 316.419C74.7373 316.419 75.2973 317.029 75.2973 317.859C75.2973 318.689 74.7373 319.299 73.9573 319.299ZM80.9151 315.109C80.3451 315.109 79.8451 315.439 79.5451 315.949V315.299H78.1051V320.419H79.6051V317.699C79.6051 316.929 80.0351 316.379 80.6851 316.379C80.9051 316.379 81.2351 316.449 81.5251 316.569V315.239C81.3251 315.159 81.1151 315.109 80.9151 315.109ZM86.3522 316.009C85.9522 315.439 85.3422 315.099 84.6122 315.099C83.1722 315.099 82.1622 316.239 82.1622 317.859C82.1622 319.479 83.1722 320.619 84.6122 320.619C85.3422 320.619 85.9522 320.279 86.3522 319.709V320.419H87.8522V315.299H86.3522V316.009ZM85.0022 319.299C84.2222 319.299 83.6622 318.689 83.6622 317.859C83.6622 317.029 84.2222 316.419 85.0022 316.419C85.7822 316.419 86.3422 317.029 86.3422 317.859C86.3422 318.689 85.7822 319.299 85.0022 319.299ZM92.23 315.099C91.57 315.099 90.97 315.439 90.61 315.989V315.299H89.15V320.419H90.65V317.539C90.65 316.889 91.13 316.419 91.72 316.419C92.31 316.419 92.67 316.859 92.67 317.479V320.419H94.17V317.219C94.17 315.989 93.39 315.099 92.23 315.099ZM95.7607 318.759C95.7607 319.849 96.4207 320.619 97.4407 320.619C97.7607 320.619 98.1607 320.559 98.4607 320.459L98.4707 319.259C98.3007 319.299 98.0807 319.329 97.9407 319.329C97.5207 319.329 97.2607 319.039 97.2607 318.609V316.439H98.4207V315.299H97.2607V314.009H96.0007L95.8307 315.299H95.0407V316.439H95.7607V318.759ZM102.171 319.469C101.491 319.469 100.991 318.999 100.861 318.279L104.871 318.289C104.891 318.179 104.891 317.969 104.891 317.839C104.891 316.219 103.771 315.099 102.131 315.099C100.481 315.099 99.3106 316.219 99.3106 317.819C99.3106 319.469 100.481 320.619 102.131 320.619C103.341 320.619 104.391 319.969 104.661 319.079L103.351 318.789C103.171 319.179 102.711 319.469 102.171 319.469ZM100.851 317.379C100.981 316.699 101.441 316.249 102.101 316.249C102.781 316.249 103.281 316.729 103.371 317.379H100.851ZM108.587 319.469C107.907 319.469 107.407 318.999 107.277 318.279L111.287 318.289C111.307 318.179 111.307 317.969 111.307 317.839C111.307 316.219 110.187 315.099 108.547 315.099C106.897 315.099 105.727 316.219 105.727 317.819C105.727 319.469 106.897 320.619 108.547 320.619C109.757 320.619 110.807 319.969 111.077 319.079L109.767 318.789C109.587 319.179 109.127 319.469 108.587 319.469ZM107.267 317.379C107.397 316.699 107.857 316.249 108.517 316.249C109.197 316.249 109.697 316.729 109.787 317.379H107.267ZM116.263 315.919C115.863 315.399 115.273 315.099 114.573 315.099C113.153 315.099 112.143 316.239 112.143 317.859C112.143 319.479 113.153 320.619 114.573 320.619C115.293 320.619 115.883 320.309 116.283 319.799V320.419H117.763V312.999H116.263V315.919ZM113.643 317.859C113.643 317.049 114.203 316.449 114.983 316.449C115.763 316.449 116.323 317.049 116.323 317.859C116.323 318.669 115.763 319.269 114.983 319.269C114.213 319.269 113.643 318.679 113.643 317.859ZM123.949 320.619C124.619 320.619 125.219 320.279 125.579 319.729V320.419H127.039V315.299H125.539V318.179C125.539 318.829 125.059 319.299 124.469 319.299C123.879 319.299 123.519 318.859 123.519 318.239V315.299H122.019V318.499C122.019 319.729 122.799 320.619 123.949 320.619ZM129.839 319.799C130.239 320.319 130.829 320.619 131.529 320.619C132.959 320.619 133.959 319.479 133.959 317.859C133.959 316.239 132.949 315.099 131.529 315.099C130.819 315.099 130.219 315.409 129.819 315.919V315.299H128.339V322.719H129.839V319.799ZM132.459 317.859C132.459 318.669 131.899 319.269 131.119 319.269C130.339 319.269 129.779 318.669 129.779 317.859C129.779 317.049 130.339 316.449 131.119 316.449C131.889 316.449 132.459 317.039 132.459 317.859ZM135.224 318.759C135.224 319.849 135.884 320.619 136.904 320.619C137.224 320.619 137.624 320.559 137.924 320.459L137.934 319.259C137.764 319.299 137.544 319.329 137.404 319.329C136.984 319.329 136.724 319.039 136.724 318.609V316.439H137.884V315.299H136.724V314.009H135.464L135.294 315.299H134.504V316.439H135.224V318.759ZM140.624 315.299H139.124V320.419H140.624V315.299ZM139.004 313.769C139.004 314.269 139.364 314.619 139.874 314.619C140.384 314.619 140.744 314.269 140.744 313.769C140.744 313.279 140.384 312.929 139.874 312.929C139.364 312.929 139.004 313.279 139.004 313.769ZM142.041 320.419H143.541V317.499C143.541 316.849 143.911 316.419 144.481 316.419C145.041 316.419 145.401 316.849 145.401 317.499V320.419H146.901V317.499C146.901 316.869 147.291 316.419 147.871 316.419C148.441 316.439 148.821 316.889 148.821 317.499V320.419H150.321V317.199C150.321 315.969 149.511 315.109 148.351 315.109C147.641 315.109 146.961 315.449 146.631 316.009C146.341 315.449 145.721 315.099 144.981 315.099C144.351 315.099 143.801 315.389 143.481 315.909V315.299H142.041V320.419ZM154.153 319.469C153.473 319.469 152.973 318.999 152.843 318.279L156.853 318.289C156.873 318.179 156.873 317.969 156.873 317.839C156.873 316.219 155.753 315.099 154.113 315.099C152.463 315.099 151.293 316.219 151.293 317.819C151.293 319.469 152.463 320.619 154.113 320.619C155.323 320.619 156.373 319.969 156.643 319.079L155.333 318.789C155.153 319.179 154.693 319.469 154.153 319.469ZM152.833 317.379C152.963 316.699 153.423 316.249 154.083 316.249C154.763 316.249 155.263 316.729 155.353 317.379H152.833ZM163.986 320.669C165.796 320.669 167.006 319.659 167.006 318.239C167.006 315.389 162.576 316.639 162.576 315.189C162.576 314.689 163.106 314.319 163.896 314.319C164.756 314.319 165.386 314.819 165.376 315.519H166.836C166.836 314.089 165.586 313.049 163.856 313.049C162.136 313.049 160.946 314.009 160.946 315.409C160.946 318.239 165.366 316.969 165.366 318.479C165.366 318.989 164.866 319.399 164.036 319.399C163.076 319.399 162.386 318.849 162.386 318.079H160.876C160.876 319.579 162.176 320.669 163.986 320.669ZM172.993 320.419V318.979H170.013V313.299H168.333V320.419H172.993ZM178.364 313.299H175.924L173.534 320.419H175.304L175.704 319.129H178.564L178.984 320.419H180.744L178.364 313.299ZM177.144 314.739L178.224 317.919H176.064L177.144 314.739Z" fill="#043344"/>
<path d="M259.172 71.0449L265.453 64.7637C265.589 64.6283 265.755 64.5605 265.953 64.5605C266.161 64.5605 266.339 64.6283 266.484 64.7637C266.63 64.9095 266.703 65.0866 266.703 65.2949C266.703 65.4928 266.63 65.6647 266.484 65.8105L259.172 73.1074L255.516 69.4668C255.37 69.321 255.297 69.1491 255.297 68.9512C255.297 68.7428 255.37 68.5658 255.516 68.4199C255.661 68.2845 255.833 68.2168 256.031 68.2168C256.24 68.2168 256.411 68.2845 256.547 68.4199L259.172 71.0449Z" fill="#1A938A"/>
<path d="M259.172 95.7103L265.453 89.429C265.589 89.2936 265.755 89.2259 265.953 89.2259C266.161 89.2259 266.339 89.2936 266.484 89.429C266.63 89.5748 266.703 89.7519 266.703 89.9603C266.703 90.1582 266.63 90.3301 266.484 90.4759L259.172 97.7728L255.516 94.1321C255.37 93.9863 255.297 93.8144 255.297 93.6165C255.297 93.4082 255.37 93.2311 255.516 93.0853C255.661 92.9498 255.833 92.8821 256.031 92.8821C256.24 92.8821 256.411 92.9498 256.547 93.0853L259.172 95.7103Z" fill="#1A938A"/>
<path d="M259.172 120.375L265.453 114.094C265.589 113.959 265.755 113.891 265.953 113.891C266.161 113.891 266.339 113.959 266.484 114.094C266.63 114.24 266.703 114.417 266.703 114.625C266.703 114.823 266.63 114.995 266.484 115.141L259.172 122.438L255.516 118.797C255.37 118.651 255.297 118.479 255.297 118.281C255.297 118.073 255.37 117.896 255.516 117.75C255.661 117.615 255.833 117.547 256.031 117.547C256.24 117.547 256.411 117.615 256.547 117.75L259.172 120.375Z" fill="#1A938A"/>
<path d="M259.172 145.04L265.453 138.759C265.589 138.624 265.755 138.556 265.953 138.556C266.161 138.556 266.339 138.624 266.484 138.759C266.63 138.905 266.703 139.082 266.703 139.29C266.703 139.488 266.63 139.66 266.484 139.806L259.172 147.103L255.516 143.462C255.37 143.316 255.297 143.144 255.297 142.946C255.297 142.738 255.37 142.561 255.516 142.415C255.661 142.28 255.833 142.212 256.031 142.212C256.24 142.212 256.411 142.28 256.547 142.415L259.172 145.04Z" fill="#1A938A"/>
<path d="M259.172 169.706L265.453 163.424C265.589 163.289 265.755 163.221 265.953 163.221C266.161 163.221 266.339 163.289 266.484 163.424C266.63 163.57 266.703 163.747 266.703 163.956C266.703 164.154 266.63 164.325 266.484 164.471L259.172 171.768L255.516 168.128C255.37 167.982 255.297 167.81 255.297 167.612C255.297 167.404 255.37 167.227 255.516 167.081C255.661 166.945 255.833 166.878 256.031 166.878C256.24 166.878 256.411 166.945 256.547 167.081L259.172 169.706Z" fill="#1A938A"/>
<path d="M259.172 194.371L265.453 188.09C265.589 187.954 265.755 187.887 265.953 187.887C266.161 187.887 266.339 187.954 266.484 188.09C266.63 188.236 266.703 188.413 266.703 188.621C266.703 188.819 266.63 188.991 266.484 189.137L259.172 196.434L255.516 192.793C255.37 192.647 255.297 192.475 255.297 192.277C255.297 192.069 255.37 191.892 255.516 191.746C255.661 191.611 255.833 191.543 256.031 191.543C256.24 191.543 256.411 191.611 256.547 191.746L259.172 194.371Z" fill="#1A938A"/>
<path d="M259.172 219.036L265.453 212.755C265.589 212.619 265.755 212.552 265.953 212.552C266.161 212.552 266.339 212.619 266.484 212.755C266.63 212.901 266.703 213.078 266.703 213.286C266.703 213.484 266.63 213.656 266.484 213.802L259.172 221.099L255.516 217.458C255.37 217.312 255.297 217.14 255.297 216.942C255.297 216.734 255.37 216.557 255.516 216.411C255.661 216.276 255.833 216.208 256.031 216.208C256.24 216.208 256.411 216.276 256.547 216.411L259.172 219.036Z" fill="#1A938A"/>
<path d="M261.938 241.576L265.719 245.342C265.844 245.477 265.906 245.639 265.906 245.826C265.906 246.003 265.844 246.159 265.719 246.295C265.583 246.42 265.422 246.482 265.234 246.482C265.057 246.482 264.901 246.42 264.766 246.295L261 242.514L257.234 246.295C257.099 246.42 256.938 246.482 256.75 246.482C256.573 246.482 256.417 246.42 256.281 246.295C256.156 246.159 256.094 246.003 256.094 245.826C256.094 245.639 256.156 245.477 256.281 245.342L260.062 241.576L256.281 237.81C256.156 237.675 256.094 237.519 256.094 237.342C256.094 237.154 256.156 236.993 256.281 236.857C256.417 236.732 256.573 236.67 256.75 236.67C256.938 236.67 257.099 236.732 257.234 236.857L261 240.639L264.766 236.857C264.901 236.732 265.057 236.67 265.234 236.67C265.422 236.67 265.583 236.732 265.719 236.857C265.844 236.993 265.906 237.154 265.906 237.342C265.906 237.519 265.844 237.675 265.719 237.81L261.938 241.576Z" fill="#F45147"/>
<path d="M261.938 266.241L265.719 270.007C265.844 270.142 265.906 270.304 265.906 270.491C265.906 270.669 265.844 270.825 265.719 270.96C265.583 271.085 265.422 271.148 265.234 271.148C265.057 271.148 264.901 271.085 264.766 270.96L261 267.179L257.234 270.96C257.099 271.085 256.938 271.148 256.75 271.148C256.573 271.148 256.417 271.085 256.281 270.96C256.156 270.825 256.094 270.669 256.094 270.491C256.094 270.304 256.156 270.142 256.281 270.007L260.062 266.241L256.281 262.476C256.156 262.34 256.094 262.184 256.094 262.007C256.094 261.82 256.156 261.658 256.281 261.523C256.417 261.398 256.573 261.335 256.75 261.335C256.938 261.335 257.099 261.398 257.234 261.523L261 265.304L264.766 261.523C264.901 261.398 265.057 261.335 265.234 261.335C265.422 261.335 265.583 261.398 265.719 261.523C265.844 261.658 265.906 261.82 265.906 262.007C265.906 262.184 265.844 262.34 265.719 262.476L261.938 266.241Z" fill="#F45147"/>
<path d="M260.938 293.602L264.719 297.368C264.844 297.503 264.906 297.664 264.906 297.852C264.906 298.029 264.844 298.185 264.719 298.321C264.583 298.446 264.422 298.508 264.234 298.508C264.057 298.508 263.901 298.446 263.766 298.321L260 294.539L256.234 298.321C256.099 298.446 255.938 298.508 255.75 298.508C255.573 298.508 255.417 298.446 255.281 298.321C255.156 298.185 255.094 298.029 255.094 297.852C255.094 297.664 255.156 297.503 255.281 297.368L259.062 293.602L255.281 289.836C255.156 289.701 255.094 289.545 255.094 289.368C255.094 289.18 255.156 289.019 255.281 288.883C255.417 288.758 255.573 288.696 255.75 288.696C255.938 288.696 256.099 288.758 256.234 288.883L260 292.664L263.766 288.883C263.901 288.758 264.057 288.696 264.234 288.696C264.422 288.696 264.583 288.758 264.719 288.883C264.844 289.019 264.906 289.18 264.906 289.368C264.906 289.545 264.844 289.701 264.719 289.836L260.938 293.602Z" fill="#F45147"/>
<path d="M260.938 318.567L264.719 322.332C264.844 322.468 264.906 322.629 264.906 322.817C264.906 322.994 264.844 323.15 264.719 323.286C264.583 323.411 264.422 323.473 264.234 323.473C264.057 323.473 263.901 323.411 263.766 323.286L260 319.504L256.234 323.286C256.099 323.411 255.938 323.473 255.75 323.473C255.573 323.473 255.417 323.411 255.281 323.286C255.156 323.15 255.094 322.994 255.094 322.817C255.094 322.629 255.156 322.468 255.281 322.332L259.062 318.567L255.281 314.801C255.156 314.666 255.094 314.509 255.094 314.332C255.094 314.145 255.156 313.983 255.281 313.848C255.417 313.723 255.573 313.661 255.75 313.661C255.938 313.661 256.099 313.723 256.234 313.848L260 317.629L263.766 313.848C263.901 313.723 264.057 313.661 264.234 313.661C264.422 313.661 264.583 313.723 264.719 313.848C264.844 313.983 264.906 314.145 264.906 314.332C264.906 314.509 264.844 314.666 264.719 314.801L260.938 318.567Z" fill="#F45147"/>
<path d="M318.172 71.0449L324.453 64.7637C324.589 64.6283 324.755 64.5605 324.953 64.5605C325.161 64.5605 325.339 64.6283 325.484 64.7637C325.63 64.9095 325.703 65.0866 325.703 65.2949C325.703 65.4928 325.63 65.6647 325.484 65.8105L318.172 73.1074L314.516 69.4668C314.37 69.321 314.297 69.1491 314.297 68.9512C314.297 68.7428 314.37 68.5658 314.516 68.4199C314.661 68.2845 314.833 68.2168 315.031 68.2168C315.24 68.2168 315.411 68.2845 315.547 68.4199L318.172 71.0449Z" fill="#1A938A"/>
<path d="M318.172 95.7103L324.453 89.429C324.589 89.2936 324.755 89.2259 324.953 89.2259C325.161 89.2259 325.339 89.2936 325.484 89.429C325.63 89.5748 325.703 89.7519 325.703 89.9603C325.703 90.1582 325.63 90.3301 325.484 90.4759L318.172 97.7728L314.516 94.1321C314.37 93.9863 314.297 93.8144 314.297 93.6165C314.297 93.4082 314.37 93.2311 314.516 93.0853C314.661 92.9498 314.833 92.8821 315.031 92.8821C315.24 92.8821 315.411 92.9498 315.547 93.0853L318.172 95.7103Z" fill="#1A938A"/>
<path d="M318.172 120.375L324.453 114.094C324.589 113.959 324.755 113.891 324.953 113.891C325.161 113.891 325.339 113.959 325.484 114.094C325.63 114.24 325.703 114.417 325.703 114.625C325.703 114.823 325.63 114.995 325.484 115.141L318.172 122.438L314.516 118.797C314.37 118.651 314.297 118.479 314.297 118.281C314.297 118.073 314.37 117.896 314.516 117.75C314.661 117.615 314.833 117.547 315.031 117.547C315.24 117.547 315.411 117.615 315.547 117.75L318.172 120.375Z" fill="#1A938A"/>
<path d="M318.172 145.04L324.453 138.759C324.589 138.624 324.755 138.556 324.953 138.556C325.161 138.556 325.339 138.624 325.484 138.759C325.63 138.905 325.703 139.082 325.703 139.29C325.703 139.488 325.63 139.66 325.484 139.806L318.172 147.103L314.516 143.462C314.37 143.316 314.297 143.144 314.297 142.946C314.297 142.738 314.37 142.561 314.516 142.415C314.661 142.28 314.833 142.212 315.031 142.212C315.24 142.212 315.411 142.28 315.547 142.415L318.172 145.04Z" fill="#1A938A"/>
<path d="M318.172 169.706L324.453 163.424C324.589 163.289 324.755 163.221 324.953 163.221C325.161 163.221 325.339 163.289 325.484 163.424C325.63 163.57 325.703 163.747 325.703 163.956C325.703 164.154 325.63 164.325 325.484 164.471L318.172 171.768L314.516 168.128C314.37 167.982 314.297 167.81 314.297 167.612C314.297 167.404 314.37 167.227 314.516 167.081C314.661 166.945 314.833 166.878 315.031 166.878C315.24 166.878 315.411 166.945 315.547 167.081L318.172 169.706Z" fill="#1A938A"/>
<path d="M318.172 194.371L324.453 188.09C324.589 187.954 324.755 187.887 324.953 187.887C325.161 187.887 325.339 187.954 325.484 188.09C325.63 188.236 325.703 188.413 325.703 188.621C325.703 188.819 325.63 188.991 325.484 189.137L318.172 196.434L314.516 192.793C314.37 192.647 314.297 192.475 314.297 192.277C314.297 192.069 314.37 191.892 314.516 191.746C314.661 191.611 314.833 191.543 315.031 191.543C315.24 191.543 315.411 191.611 315.547 191.746L318.172 194.371Z" fill="#1A938A"/>
<path d="M318.172 219.036L324.453 212.755C324.589 212.619 324.755 212.552 324.953 212.552C325.161 212.552 325.339 212.619 325.484 212.755C325.63 212.901 325.703 213.078 325.703 213.286C325.703 213.484 325.63 213.656 325.484 213.802L318.172 221.099L314.516 217.458C314.37 217.312 314.297 217.14 314.297 216.942C314.297 216.734 314.37 216.557 314.516 216.411C314.661 216.276 314.833 216.208 315.031 216.208C315.24 216.208 315.411 216.276 315.547 216.411L318.172 219.036Z" fill="#1A938A"/>
<path d="M318.172 243.701L324.453 237.42C324.589 237.284 324.755 237.217 324.953 237.217C325.161 237.217 325.339 237.284 325.484 237.42C325.63 237.566 325.703 237.743 325.703 237.951C325.703 238.149 325.63 238.321 325.484 238.467L318.172 245.764L314.516 242.123C314.37 241.977 314.297 241.805 314.297 241.607C314.297 241.399 314.37 241.222 314.516 241.076C314.661 240.941 314.833 240.873 315.031 240.873C315.24 240.873 315.411 240.941 315.547 241.076L318.172 243.701Z" fill="#1A938A"/>
<path d="M318.172 268.366L324.453 262.085C324.589 261.95 324.755 261.882 324.953 261.882C325.161 261.882 325.339 261.95 325.484 262.085C325.63 262.231 325.703 262.408 325.703 262.616C325.703 262.814 325.63 262.986 325.484 263.132L318.172 270.429L314.516 266.788C314.37 266.642 314.297 266.471 314.297 266.273C314.297 266.064 314.37 265.887 314.516 265.741C314.661 265.606 314.833 265.538 315.031 265.538C315.24 265.538 315.411 265.606 315.547 265.741L318.172 268.366Z" fill="#1A938A"/>
<path d="M317.172 295.727L323.453 289.446C323.589 289.31 323.755 289.243 323.953 289.243C324.161 289.243 324.339 289.31 324.484 289.446C324.63 289.592 324.703 289.769 324.703 289.977C324.703 290.175 324.63 290.347 324.484 290.493L317.172 297.789L313.516 294.149C313.37 294.003 313.297 293.831 313.297 293.633C313.297 293.425 313.37 293.248 313.516 293.102C313.661 292.967 313.833 292.899 314.031 292.899C314.24 292.899 314.411 292.967 314.547 293.102L317.172 295.727Z" fill="#1A938A"/>
<path d="M317.172 320.692L323.453 314.411C323.589 314.275 323.755 314.207 323.953 314.207C324.161 314.207 324.339 314.275 324.484 314.411C324.63 314.556 324.703 314.733 324.703 314.942C324.703 315.14 324.63 315.312 324.484 315.457L317.172 322.754L313.516 319.114C313.37 318.968 313.297 318.796 313.297 318.598C313.297 318.39 313.37 318.213 313.516 318.067C313.661 317.931 313.833 317.864 314.031 317.864C314.24 317.864 314.411 317.931 314.547 318.067L317.172 320.692Z" fill="#1A938A"/>
<path d="M67.344 30.6179V26.2499H69.856L71.84 30.6179H74.08L71.856 25.8179C73.232 25.2579 73.968 24.1379 73.968 22.5699C73.968 20.2659 72.416 18.9219 69.76 18.9219H65.296V30.6179H67.344ZM67.344 20.7459H69.76C71.056 20.7459 71.824 21.4019 71.824 22.5699C71.824 23.7539 71.056 24.4419 69.76 24.4419H67.344V20.7459ZM78.7003 30.8259C80.7643 30.8259 82.2043 29.7859 82.5403 28.0579H80.7323C80.5083 28.8099 79.8043 29.2259 78.7323 29.2259C77.4363 29.2259 76.7003 28.5219 76.5563 27.1299L82.5083 27.1139V26.5219C82.5083 24.0579 81.0043 22.4739 78.6363 22.4739C76.3163 22.4739 74.7003 24.1859 74.7003 26.6659C74.7003 29.1139 76.3483 30.8259 78.7003 30.8259ZM78.6523 24.0739C79.8203 24.0739 80.5723 24.7939 80.5723 25.8819H76.6043C76.7963 24.6979 77.5003 24.0739 78.6523 24.0739ZM83.6225 26.4899C83.6225 28.7779 85.0945 30.4579 87.3345 30.4579C88.4705 30.4579 89.4465 29.9939 89.9425 29.2579V30.5699C89.9425 31.8819 89.0785 32.7299 87.7345 32.7299C86.5345 32.7299 85.7505 32.1219 85.6225 31.0979H83.6705C83.9105 33.2099 85.4625 34.5059 87.7345 34.5059C90.2945 34.5059 91.8785 32.8579 91.8785 30.2179V22.7139H90.0705L89.9585 23.8019C89.4945 22.9539 88.5665 22.4579 87.3825 22.4579C85.1265 22.4579 83.6225 24.1859 83.6225 26.4899ZM85.5905 26.4419C85.5905 25.1459 86.4225 24.1699 87.7185 24.1699C89.0785 24.1699 89.8945 25.0979 89.8945 26.4419C89.8945 27.8179 89.0625 28.7619 87.7185 28.7619C86.4385 28.7619 85.5905 27.7699 85.5905 26.4419ZM99.2586 22.7139V26.8579C99.2586 28.3619 98.6666 29.0819 97.4346 29.0819C96.3466 29.0819 95.7546 28.4739 95.7546 26.9699V22.7139H93.8026V27.6579C93.8026 29.5939 94.8746 30.8259 96.6986 30.8259C97.7546 30.8259 98.7786 30.3139 99.2586 29.5619L99.4026 30.6179H101.211V22.7139H99.2586ZM105.195 30.6179V18.7139H103.259V30.6179H105.195ZM109.594 30.8259C110.826 30.8259 111.898 30.2659 112.234 29.4499L112.378 30.6179H114.09V25.8179C114.09 23.6259 112.778 22.4739 110.65 22.4739C108.506 22.4739 107.098 23.5939 107.098 25.3059H108.762C108.762 24.4739 109.402 23.9939 110.554 23.9939C111.546 23.9939 112.186 24.4259 112.186 25.4979V25.6739L109.818 25.8499C107.946 25.9939 106.89 26.9059 106.89 28.3619C106.89 29.8499 107.914 30.8259 109.594 30.8259ZM110.234 29.3539C109.354 29.3539 108.874 29.0019 108.874 28.2819C108.874 27.6419 109.338 27.2419 110.554 27.1299L112.202 27.0019V27.4179C112.202 28.6339 111.434 29.3539 110.234 29.3539ZM118.587 30.6179V24.3459H120.123V22.7139H118.587V20.2499H116.635V22.7139H115.115V24.3459H116.635V30.6179H118.587ZM120.794 26.6499C120.794 29.1139 122.57 30.8099 125.018 30.8099C127.466 30.8099 129.242 29.1139 129.242 26.6499C129.242 24.1859 127.466 22.4899 125.018 22.4899C122.57 22.4899 120.794 24.1859 120.794 26.6499ZM122.746 26.6499C122.746 25.2099 123.674 24.2339 125.018 24.2339C126.362 24.2339 127.29 25.2099 127.29 26.6499C127.29 28.0899 126.362 29.0659 125.018 29.0659C123.674 29.0659 122.746 28.0899 122.746 26.6499ZM135.749 22.6819C135.429 22.6019 135.157 22.5699 134.885 22.5699C133.829 22.5699 133.077 23.0979 132.741 23.8819L132.629 22.7299H130.789V30.6179H132.741V26.7779C132.741 25.2419 133.621 24.4899 135.029 24.4899H135.749V22.6819ZM136.617 34.2819C137.049 34.3939 137.529 34.4579 138.073 34.4579C139.369 34.4579 140.201 33.8499 140.793 32.3779L144.665 22.7139H142.649L140.505 28.4739L138.473 22.7139H136.409L139.593 30.9539L139.369 31.5459C139.033 32.4739 138.553 32.6499 137.785 32.6499H136.617V34.2819ZM155.318 30.8099C158.086 30.8099 160.23 29.1779 160.678 26.7139H158.55C158.166 28.0099 156.95 28.8419 155.366 28.8419C153.222 28.8419 151.846 27.2419 151.846 24.7619C151.846 22.2659 153.206 20.6979 155.366 20.6979C156.918 20.6979 158.086 21.4979 158.486 22.8579H160.646C160.246 20.3459 158.182 18.7299 155.414 18.7299C151.99 18.7299 149.702 21.1459 149.702 24.7779C149.702 28.4419 151.91 30.8099 155.318 30.8099ZM161.763 26.6499C161.763 29.1139 163.539 30.8099 165.987 30.8099C168.435 30.8099 170.211 29.1139 170.211 26.6499C170.211 24.1859 168.435 22.4899 165.987 22.4899C163.539 22.4899 161.763 24.1859 161.763 26.6499ZM163.715 26.6499C163.715 25.2099 164.643 24.2339 165.987 24.2339C167.331 24.2339 168.259 25.2099 168.259 26.6499C168.259 28.0899 167.331 29.0659 165.987 29.0659C164.643 29.0659 163.715 28.0899 163.715 26.6499ZM173.71 30.6179V26.1379C173.71 24.8579 174.462 24.2499 175.39 24.2499C176.318 24.2499 176.91 24.8419 176.91 25.9459V30.6179H178.862V26.1379C178.862 24.8419 179.582 24.2339 180.526 24.2339C181.454 24.2339 182.062 24.8259 182.062 25.9619V30.6179H183.998V25.4499C183.998 23.6259 182.942 22.4739 181.022 22.4739C179.822 22.4739 178.894 23.0659 178.494 23.9779C178.078 23.0659 177.246 22.4739 176.046 22.4739C174.91 22.4739 174.11 22.9859 173.71 23.6419L173.55 22.7139H171.758V30.6179H173.71ZM185.914 34.2819H187.866V29.5619C188.362 30.3619 189.386 30.8259 190.57 30.8259C192.922 30.8259 194.266 29.0339 194.266 26.5699C194.266 24.0899 192.794 22.4739 190.57 22.4739C189.37 22.4739 188.33 23.0019 187.85 23.9139L187.722 22.7139H185.914V34.2819ZM187.882 26.6659C187.882 25.2419 188.762 24.2499 190.106 24.2499C191.482 24.2499 192.298 25.2579 192.298 26.6659C192.298 28.0739 191.482 29.0659 190.106 29.0659C188.762 29.0659 187.882 28.0899 187.882 26.6659ZM197.789 30.6179V18.7139H195.853V30.6179H197.789ZM200.812 21.1299C201.452 21.1299 201.98 20.6019 201.98 19.9459C201.98 19.2899 201.452 18.7779 200.812 18.7779C200.14 18.7779 199.612 19.2899 199.612 19.9459C199.612 20.6019 200.14 21.1299 200.812 21.1299ZM199.836 30.6179H201.788V22.7139H199.836V30.6179ZM206.157 30.8259C207.389 30.8259 208.461 30.2659 208.797 29.4499L208.941 30.6179H210.653V25.8179C210.653 23.6259 209.341 22.4739 207.213 22.4739C205.069 22.4739 203.661 23.5939 203.661 25.3059H205.325C205.325 24.4739 205.965 23.9939 207.117 23.9939C208.109 23.9939 208.749 24.4259 208.749 25.4979V25.6739L206.381 25.8499C204.509 25.9939 203.453 26.9059 203.453 28.3619C203.453 29.8499 204.477 30.8259 206.157 30.8259ZM206.797 29.3539C205.917 29.3539 205.437 29.0019 205.437 28.2819C205.437 27.6419 205.901 27.2419 207.117 27.1299L208.765 27.0019V27.4179C208.765 28.6339 207.997 29.3539 206.797 29.3539ZM214.523 30.6179V26.3619C214.523 25.0819 215.259 24.2499 216.459 24.2499C217.467 24.2499 218.123 24.8899 218.123 26.2179V30.6179H220.075V25.7539C220.075 23.7059 219.051 22.4739 217.067 22.4739C215.995 22.4739 215.035 22.9379 214.539 23.7379L214.379 22.7139H212.571V30.6179H214.523ZM221.528 26.6499C221.528 29.1619 223.096 30.8259 225.496 30.8259C227.56 30.8259 229.096 29.5619 229.336 27.7219H227.368C227.16 28.5859 226.472 29.0659 225.496 29.0659C224.248 29.0659 223.48 28.1379 223.48 26.6499C223.48 25.1619 224.312 24.2179 225.56 24.2179C226.488 24.2179 227.144 24.6819 227.368 25.5779H229.32C229.112 23.6739 227.64 22.4739 225.48 22.4739C223.144 22.4739 221.528 24.2019 221.528 26.6499ZM234.325 30.8259C236.389 30.8259 237.829 29.7859 238.165 28.0579H236.357C236.133 28.8099 235.429 29.2259 234.357 29.2259C233.061 29.2259 232.325 28.5219 232.181 27.1299L238.133 27.1139V26.5219C238.133 24.0579 236.629 22.4739 234.261 22.4739C231.941 22.4739 230.325 24.1859 230.325 26.6659C230.325 29.1139 231.973 30.8259 234.325 30.8259ZM234.277 24.0739C235.445 24.0739 236.197 24.7939 236.197 25.8819H232.229C232.421 24.6979 233.125 24.0739 234.277 24.0739Z" fill="#043344"/>
<path d="M40.1649 36.2665H24.3891C23.6441 36.2665 22.9283 35.9254 22.4463 35.3469C21.9643 34.7535 21.7744 33.997 21.9058 33.2405C22.8407 28.1971 27.1936 24.5332 32.2624 24.5332C37.3311 24.5332 41.684 28.1971 42.6189 33.2405C42.765 33.997 42.5605 34.7535 42.0784 35.3469C41.6256 35.9254 40.9099 36.2665 40.1649 36.2665ZM32.277 26.5951C28.1869 26.5951 24.6812 29.5469 23.9216 33.6113C23.8924 33.8042 23.9654 33.9377 24.0239 34.0118C24.0823 34.0712 24.1992 34.1898 24.3891 34.1898H40.1649C40.3548 34.1898 40.4716 34.086 40.5301 34.0118C40.5885 33.9525 40.6615 33.8042 40.6323 33.6113C39.8727 29.5469 36.367 26.5951 32.277 26.5951Z" fill="#1A938A"/>
<path d="M37.866 16.8C37.866 19.8982 35.3642 22.4 32.266 22.4C29.1824 22.4 26.666 19.8982 26.666 16.8C26.666 13.7018 29.1824 11.2 32.266 11.2C35.3642 11.2 37.866 13.7018 37.866 16.8Z" fill="#043344"/>
</svg>
