<svg width="1144" height="778" viewBox="0 0 1144 778" fill="none" xmlns="http://www.w3.org/2000/svg">
<rect x="0.5" y="0.832031" width="1143" height="79" rx="39.5" stroke="#5D728C"/>
<path d="M91.762 48.4426V43.5286H94.588L96.82 48.4426H99.34L96.838 43.0426C98.386 42.4126 99.214 41.1526 99.214 39.3886C99.214 36.7966 97.468 35.2846 94.48 35.2846H89.458V48.4426H91.762ZM91.762 37.3366H94.48C95.938 37.3366 96.802 38.0746 96.802 39.3886C96.802 40.7206 95.938 41.4946 94.48 41.4946H91.762V37.3366ZM104.538 48.6766C106.86 48.6766 108.48 47.5066 108.858 45.5626H106.824C106.572 46.4086 105.78 46.8766 104.574 46.8766C103.116 46.8766 102.288 46.0846 102.126 44.5186L108.822 44.5006V43.8346C108.822 41.0626 107.13 39.2806 104.466 39.2806C101.856 39.2806 100.038 41.2066 100.038 43.9966C100.038 46.7506 101.892 48.6766 104.538 48.6766ZM104.484 41.0806C105.798 41.0806 106.644 41.8906 106.644 43.1146H102.18C102.396 41.7826 103.188 41.0806 104.484 41.0806ZM110.075 43.7986C110.075 46.3726 111.731 48.2626 114.251 48.2626C115.529 48.2626 116.627 47.7406 117.185 46.9126V48.3886C117.185 49.8646 116.213 50.8186 114.701 50.8186C113.351 50.8186 112.469 50.1346 112.325 48.9826H110.129C110.399 51.3586 112.145 52.8166 114.701 52.8166C117.581 52.8166 119.363 50.9626 119.363 47.9926V39.5506H117.329L117.203 40.7746C116.681 39.8206 115.637 39.2626 114.305 39.2626C111.767 39.2626 110.075 41.2066 110.075 43.7986ZM112.289 43.7446C112.289 42.2866 113.225 41.1886 114.683 41.1886C116.213 41.1886 117.131 42.2326 117.131 43.7446C117.131 45.2926 116.195 46.3546 114.683 46.3546C113.243 46.3546 112.289 45.2386 112.289 43.7446ZM127.666 39.5506V44.2126C127.666 45.9046 127 46.7146 125.614 46.7146C124.39 46.7146 123.724 46.0306 123.724 44.3386V39.5506H121.528V45.1126C121.528 47.2906 122.734 48.6766 124.786 48.6766C125.974 48.6766 127.126 48.1006 127.666 47.2546L127.828 48.4426H129.862V39.5506H127.666ZM134.344 48.4426V35.0506H132.166V48.4426H134.344ZM139.294 48.6766C140.68 48.6766 141.886 48.0466 142.264 47.1286L142.426 48.4426H144.352V43.0426C144.352 40.5766 142.876 39.2806 140.482 39.2806C138.07 39.2806 136.486 40.5406 136.486 42.4666H138.358C138.358 41.5306 139.078 40.9906 140.374 40.9906C141.49 40.9906 142.21 41.4766 142.21 42.6826V42.8806L139.546 43.0786C137.44 43.2406 136.252 44.2666 136.252 45.9046C136.252 47.5786 137.404 48.6766 139.294 48.6766ZM140.014 47.0206C139.024 47.0206 138.484 46.6246 138.484 45.8146C138.484 45.0946 139.006 44.6446 140.374 44.5186L142.228 44.3746V44.8426C142.228 46.2106 141.364 47.0206 140.014 47.0206ZM149.41 48.4426V41.3866H151.138V39.5506H149.41V36.7786H147.214V39.5506H145.504V41.3866H147.214V48.4426H149.41ZM151.893 43.9786C151.893 46.7506 153.891 48.6586 156.645 48.6586C159.399 48.6586 161.397 46.7506 161.397 43.9786C161.397 41.2066 159.399 39.2986 156.645 39.2986C153.891 39.2986 151.893 41.2066 151.893 43.9786ZM154.089 43.9786C154.089 42.3586 155.133 41.2606 156.645 41.2606C158.157 41.2606 159.201 42.3586 159.201 43.9786C159.201 45.5986 158.157 46.6966 156.645 46.6966C155.133 46.6966 154.089 45.5986 154.089 43.9786ZM168.718 39.5146C168.358 39.4246 168.052 39.3886 167.746 39.3886C166.558 39.3886 165.712 39.9826 165.334 40.8646L165.208 39.5686H163.138V48.4426H165.334V44.1226C165.334 42.3946 166.324 41.5486 167.908 41.5486H168.718V39.5146ZM169.694 52.5646C170.18 52.6906 170.72 52.7626 171.332 52.7626C172.79 52.7626 173.726 52.0786 174.392 50.4226L178.748 39.5506H176.48L174.068 46.0306L171.782 39.5506H169.46L173.042 48.8206L172.79 49.4866C172.412 50.5306 171.872 50.7286 171.008 50.7286H169.694V52.5646ZM190.733 48.6586C193.847 48.6586 196.259 46.8226 196.763 44.0506H194.369C193.937 45.5086 192.569 46.4446 190.787 46.4446C188.375 46.4446 186.827 44.6446 186.827 41.8546C186.827 39.0466 188.357 37.2826 190.787 37.2826C192.533 37.2826 193.847 38.1826 194.297 39.7126H196.727C196.277 36.8866 193.955 35.0686 190.841 35.0686C186.989 35.0686 184.415 37.7866 184.415 41.8726C184.415 45.9946 186.899 48.6586 190.733 48.6586ZM197.983 43.9786C197.983 46.7506 199.981 48.6586 202.735 48.6586C205.489 48.6586 207.487 46.7506 207.487 43.9786C207.487 41.2066 205.489 39.2986 202.735 39.2986C199.981 39.2986 197.983 41.2066 197.983 43.9786ZM200.179 43.9786C200.179 42.3586 201.223 41.2606 202.735 41.2606C204.247 41.2606 205.291 42.3586 205.291 43.9786C205.291 45.5986 204.247 46.6966 202.735 46.6966C201.223 46.6966 200.179 45.5986 200.179 43.9786ZM211.424 48.4426V43.4026C211.424 41.9626 212.27 41.2786 213.314 41.2786C214.358 41.2786 215.024 41.9446 215.024 43.1866V48.4426H217.22V43.4026C217.22 41.9446 218.03 41.2606 219.092 41.2606C220.136 41.2606 220.82 41.9266 220.82 43.2046V48.4426H222.998V42.6286C222.998 40.5766 221.81 39.2806 219.65 39.2806C218.3 39.2806 217.256 39.9466 216.806 40.9726C216.338 39.9466 215.402 39.2806 214.052 39.2806C212.774 39.2806 211.874 39.8566 211.424 40.5946L211.244 39.5506H209.228V48.4426H211.424ZM225.154 52.5646H227.35V47.2546C227.908 48.1546 229.06 48.6766 230.392 48.6766C233.038 48.6766 234.55 46.6606 234.55 43.8886C234.55 41.0986 232.894 39.2806 230.392 39.2806C229.042 39.2806 227.872 39.8746 227.332 40.9006L227.188 39.5506H225.154V52.5646ZM227.368 43.9966C227.368 42.3946 228.358 41.2786 229.87 41.2786C231.418 41.2786 232.336 42.4126 232.336 43.9966C232.336 45.5806 231.418 46.6966 229.87 46.6966C228.358 46.6966 227.368 45.5986 227.368 43.9966ZM238.512 48.4426V35.0506H236.334V48.4426H238.512ZM241.914 37.7686C242.634 37.7686 243.228 37.1746 243.228 36.4366C243.228 35.6986 242.634 35.1226 241.914 35.1226C241.158 35.1226 240.564 35.6986 240.564 36.4366C240.564 37.1746 241.158 37.7686 241.914 37.7686ZM240.816 48.4426H243.012V39.5506H240.816V48.4426ZM247.926 48.6766C249.312 48.6766 250.518 48.0466 250.896 47.1286L251.058 48.4426H252.984V43.0426C252.984 40.5766 251.508 39.2806 249.114 39.2806C246.702 39.2806 245.118 40.5406 245.118 42.4666H246.99C246.99 41.5306 247.71 40.9906 249.006 40.9906C250.122 40.9906 250.842 41.4766 250.842 42.6826V42.8806L248.178 43.0786C246.072 43.2406 244.884 44.2666 244.884 45.9046C244.884 47.5786 246.036 48.6766 247.926 48.6766ZM248.646 47.0206C247.656 47.0206 247.116 46.6246 247.116 45.8146C247.116 45.0946 247.638 44.6446 249.006 44.5186L250.86 44.3746V44.8426C250.86 46.2106 249.996 47.0206 248.646 47.0206ZM257.338 48.4426V43.6546C257.338 42.2146 258.166 41.2786 259.516 41.2786C260.65 41.2786 261.388 41.9986 261.388 43.4926V48.4426H263.584V42.9706C263.584 40.6666 262.432 39.2806 260.2 39.2806C258.994 39.2806 257.914 39.8026 257.356 40.7026L257.176 39.5506H255.142V48.4426H257.338ZM265.219 43.9786C265.219 46.8046 266.983 48.6766 269.683 48.6766C272.005 48.6766 273.733 47.2546 274.003 45.1846H271.789C271.555 46.1566 270.781 46.6966 269.683 46.6966C268.279 46.6966 267.415 45.6526 267.415 43.9786C267.415 42.3046 268.351 41.2426 269.755 41.2426C270.799 41.2426 271.537 41.7646 271.789 42.7726H273.985C273.751 40.6306 272.095 39.2806 269.665 39.2806C267.037 39.2806 265.219 41.2246 265.219 43.9786ZM279.616 48.6766C281.938 48.6766 283.558 47.5066 283.936 45.5626H281.902C281.65 46.4086 280.858 46.8766 279.652 46.8766C278.194 46.8766 277.366 46.0846 277.204 44.5186L283.9 44.5006V43.8346C283.9 41.0626 282.208 39.2806 279.544 39.2806C276.934 39.2806 275.116 41.2066 275.116 43.9966C275.116 46.7506 276.97 48.6766 279.616 48.6766ZM279.562 41.0806C280.876 41.0806 281.722 41.8906 281.722 43.1146H277.258C277.474 41.7826 278.266 41.0806 279.562 41.0806Z" fill="#043344"/>
<path d="M45.2514 58.875C34.8478 58.875 26.4004 50.5737 26.4004 40.3719C26.4004 30.17 34.8478 21.8469 45.2514 21.8469C50.6756 21.8469 55.8329 24.1407 59.4119 28.1384C59.9899 28.7719 59.9232 29.7331 59.2786 30.3011C58.6339 30.8691 57.6558 30.8036 57.0778 30.17C54.0767 26.8277 49.7641 24.9053 45.2514 24.9053C36.5595 24.9053 29.5126 31.8303 29.5126 40.3719C29.5126 48.9134 36.5595 55.8384 45.2514 55.8384C46.1184 55.8384 46.8075 56.5157 46.8075 57.3676C46.8075 58.2196 46.0962 58.875 45.2514 58.875Z" fill="#1A938A"/>
<path d="M37.9609 38.8643L53.0328 53.8066C53.4552 54.2435 54.1666 54.2435 54.5889 53.8066L69.6609 38.8643C70.35 38.1871 69.861 37.0293 68.8828 37.0293H38.739C37.7608 37.0293 37.2718 38.1871 37.9609 38.8643Z" fill="#043344"/>
<rect y="80.6641" width="1144" height="64" rx="32" fill="#E9EDEF"/>
<rect y="461.664" width="1144" height="63" rx="31.5" fill="#E9EDEF"/>
<rect y="714.664" width="1144" height="63" rx="31.5" fill="#E9EDEF"/>
<rect y="207.664" width="1144" height="64" rx="32" fill="#E9EDEF"/>
<rect y="334.664" width="1144" height="64" rx="32" fill="#E9EDEF"/>
<rect y="587.664" width="1144" height="64" rx="32" fill="#E9EDEF"/>
<rect opacity="0.5" y="271.664" width="1144" height="63" rx="31.5" fill="white"/>
<rect opacity="0.5" y="144.664" width="1144" height="63" rx="31.5" fill="white"/>
<rect opacity="0.5" y="398.664" width="1144" height="63" rx="31.5" fill="white"/>
<rect opacity="0.5" y="524.664" width="1144" height="63" rx="31.5" fill="white"/>
<rect opacity="0.5" y="651.664" width="1144" height="63" rx="31.5" fill="white"/>
<path d="M569.258 117.352L578.68 107.93C578.883 107.727 579.133 107.625 579.43 107.625C579.743 107.625 580.008 107.727 580.227 107.93C580.446 108.148 580.555 108.414 580.555 108.727C580.555 109.023 580.446 109.281 580.227 109.5L569.258 120.445L563.774 114.984C563.555 114.766 563.446 114.508 563.446 114.211C563.446 113.898 563.555 113.633 563.774 113.414C563.993 113.211 564.25 113.109 564.547 113.109C564.86 113.109 565.118 113.211 565.321 113.414L569.258 117.352Z" fill="#1A938A"/>
<path d="M569.258 180.352L578.68 170.93C578.883 170.727 579.133 170.625 579.43 170.625C579.743 170.625 580.008 170.727 580.227 170.93C580.446 171.148 580.555 171.414 580.555 171.727C580.555 172.023 580.446 172.281 580.227 172.5L569.258 183.445L563.774 177.984C563.555 177.766 563.446 177.508 563.446 177.211C563.446 176.898 563.555 176.633 563.774 176.414C563.993 176.211 564.25 176.109 564.547 176.109C564.86 176.109 565.118 176.211 565.321 176.414L569.258 180.352Z" fill="#1A938A"/>
<path d="M569.258 243.352L578.68 233.93C578.883 233.727 579.133 233.625 579.43 233.625C579.743 233.625 580.008 233.727 580.227 233.93C580.446 234.148 580.555 234.414 580.555 234.727C580.555 235.023 580.446 235.281 580.227 235.5L569.258 246.445L563.774 240.984C563.555 240.766 563.446 240.508 563.446 240.211C563.446 239.898 563.555 239.633 563.774 239.414C563.993 239.211 564.25 239.109 564.547 239.109C564.86 239.109 565.118 239.211 565.321 239.414L569.258 243.352Z" fill="#1A938A"/>
<path d="M569.258 306.352L578.68 296.93C578.883 296.727 579.133 296.625 579.43 296.625C579.743 296.625 580.008 296.727 580.227 296.93C580.446 297.148 580.555 297.414 580.555 297.727C580.555 298.023 580.446 298.281 580.227 298.5L569.258 309.445L563.774 303.984C563.555 303.766 563.446 303.508 563.446 303.211C563.446 302.898 563.555 302.633 563.774 302.414C563.993 302.211 564.25 302.109 564.547 302.109C564.86 302.109 565.118 302.211 565.321 302.414L569.258 306.352Z" fill="#1A938A"/>
<path d="M569.258 369.352L578.68 359.93C578.883 359.727 579.133 359.625 579.43 359.625C579.743 359.625 580.008 359.727 580.227 359.93C580.446 360.148 580.555 360.414 580.555 360.727C580.555 361.023 580.446 361.281 580.227 361.5L569.258 372.445L563.774 366.984C563.555 366.766 563.446 366.508 563.446 366.211C563.446 365.898 563.555 365.633 563.774 365.414C563.993 365.211 564.25 365.109 564.547 365.109C564.86 365.109 565.118 365.211 565.321 365.414L569.258 369.352Z" fill="#1A938A"/>
<path d="M569.258 432.352L578.68 422.93C578.883 422.727 579.133 422.625 579.43 422.625C579.743 422.625 580.008 422.727 580.227 422.93C580.446 423.148 580.555 423.414 580.555 423.727C580.555 424.023 580.446 424.281 580.227 424.5L569.258 435.445L563.774 429.984C563.555 429.766 563.446 429.508 563.446 429.211C563.446 428.898 563.555 428.633 563.774 428.414C563.993 428.211 564.25 428.109 564.547 428.109C564.86 428.109 565.118 428.211 565.321 428.414L569.258 432.352Z" fill="#1A938A"/>
<path d="M569.258 495.352L578.68 485.93C578.883 485.727 579.133 485.625 579.43 485.625C579.743 485.625 580.008 485.727 580.227 485.93C580.446 486.148 580.555 486.414 580.555 486.727C580.555 487.023 580.446 487.281 580.227 487.5L569.258 498.445L563.774 492.984C563.555 492.766 563.446 492.508 563.446 492.211C563.446 491.898 563.555 491.633 563.774 491.414C563.993 491.211 564.25 491.109 564.547 491.109C564.86 491.109 565.118 491.211 565.321 491.414L569.258 495.352Z" fill="#1A938A"/>
<path d="M569.258 558.352L578.68 548.93C578.883 548.727 579.133 548.625 579.43 548.625C579.743 548.625 580.008 548.727 580.227 548.93C580.446 549.148 580.555 549.414 580.555 549.727C580.555 550.023 580.446 550.281 580.227 550.5L569.258 561.445L563.774 555.984C563.555 555.766 563.446 555.508 563.446 555.211C563.446 554.898 563.555 554.633 563.774 554.414C563.993 554.211 564.25 554.109 564.547 554.109C564.86 554.109 565.118 554.211 565.321 554.414L569.258 558.352Z" fill="#1A938A"/>
<path d="M573.407 619.164L579.079 624.812C579.266 625.016 579.36 625.258 579.36 625.539C579.36 625.805 579.266 626.039 579.079 626.242C578.875 626.43 578.633 626.523 578.352 626.523C578.086 626.523 577.852 626.43 577.649 626.242L572 620.57L566.352 626.242C566.149 626.43 565.907 626.523 565.625 626.523C565.36 626.523 565.125 626.43 564.922 626.242C564.735 626.039 564.641 625.805 564.641 625.539C564.641 625.258 564.735 625.016 564.922 624.812L570.594 619.164L564.922 613.516C564.735 613.312 564.641 613.078 564.641 612.812C564.641 612.531 564.735 612.289 564.922 612.086C565.125 611.898 565.36 611.805 565.625 611.805C565.907 611.805 566.149 611.898 566.352 612.086L572 617.758L577.649 612.086C577.852 611.898 578.086 611.805 578.352 611.805C578.633 611.805 578.875 611.898 579.079 612.086C579.266 612.289 579.36 612.531 579.36 612.812C579.36 613.078 579.266 613.312 579.079 613.516L573.407 619.164Z" fill="#F45147"/>
<path d="M573.407 683.164L579.079 688.812C579.266 689.016 579.36 689.258 579.36 689.539C579.36 689.805 579.266 690.039 579.079 690.242C578.875 690.43 578.633 690.523 578.352 690.523C578.086 690.523 577.852 690.43 577.649 690.242L572 684.57L566.352 690.242C566.149 690.43 565.907 690.523 565.625 690.523C565.36 690.523 565.125 690.43 564.922 690.242C564.735 690.039 564.641 689.805 564.641 689.539C564.641 689.258 564.735 689.016 564.922 688.812L570.594 683.164L564.922 677.516C564.735 677.312 564.641 677.078 564.641 676.812C564.641 676.531 564.735 676.289 564.922 676.086C565.125 675.898 565.36 675.805 565.625 675.805C565.907 675.805 566.149 675.898 566.352 676.086L572 681.758L577.649 676.086C577.852 675.898 578.086 675.805 578.352 675.805C578.633 675.805 578.875 675.898 579.079 676.086C579.266 676.289 579.36 676.531 579.36 676.812C579.36 677.078 579.266 677.312 579.079 677.516L573.407 683.164Z" fill="#F45147"/>
<path d="M573.407 747.164L579.079 752.812C579.266 753.016 579.36 753.258 579.36 753.539C579.36 753.805 579.266 754.039 579.079 754.242C578.875 754.43 578.633 754.523 578.352 754.523C578.086 754.523 577.852 754.43 577.649 754.242L572 748.57L566.352 754.242C566.149 754.43 565.907 754.523 565.625 754.523C565.36 754.523 565.125 754.43 564.922 754.242C564.735 754.039 564.641 753.805 564.641 753.539C564.641 753.258 564.735 753.016 564.922 752.812L570.594 747.164L564.922 741.516C564.735 741.312 564.641 741.078 564.641 740.812C564.641 740.531 564.735 740.289 564.922 740.086C565.125 739.898 565.36 739.805 565.625 739.805C565.907 739.805 566.149 739.898 566.352 740.086L572 745.758L577.649 740.086C577.852 739.898 578.086 739.805 578.352 739.805C578.633 739.805 578.875 739.898 579.079 740.086C579.266 740.289 579.36 740.531 579.36 740.812C579.36 741.078 579.266 741.312 579.079 741.516L573.407 747.164Z" fill="#F45147"/>
<path d="M960.627 117.352L970.049 107.93C970.252 107.727 970.502 107.625 970.799 107.625C971.112 107.625 971.377 107.727 971.596 107.93C971.815 108.148 971.924 108.414 971.924 108.727C971.924 109.023 971.815 109.281 971.596 109.5L960.627 120.445L955.143 114.984C954.924 114.766 954.815 114.508 954.815 114.211C954.815 113.898 954.924 113.633 955.143 113.414C955.362 113.211 955.62 113.109 955.916 113.109C956.229 113.109 956.487 113.211 956.69 113.414L960.627 117.352Z" fill="#1A938A"/>
<path d="M960.627 180.352L970.049 170.93C970.252 170.727 970.502 170.625 970.799 170.625C971.112 170.625 971.377 170.727 971.596 170.93C971.815 171.148 971.924 171.414 971.924 171.727C971.924 172.023 971.815 172.281 971.596 172.5L960.627 183.445L955.143 177.984C954.924 177.766 954.815 177.508 954.815 177.211C954.815 176.898 954.924 176.633 955.143 176.414C955.362 176.211 955.62 176.109 955.916 176.109C956.229 176.109 956.487 176.211 956.69 176.414L960.627 180.352Z" fill="#1A938A"/>
<path d="M960.627 243.352L970.049 233.93C970.252 233.727 970.502 233.625 970.799 233.625C971.112 233.625 971.377 233.727 971.596 233.93C971.815 234.148 971.924 234.414 971.924 234.727C971.924 235.023 971.815 235.281 971.596 235.5L960.627 246.445L955.143 240.984C954.924 240.766 954.815 240.508 954.815 240.211C954.815 239.898 954.924 239.633 955.143 239.414C955.362 239.211 955.62 239.109 955.916 239.109C956.229 239.109 956.487 239.211 956.69 239.414L960.627 243.352Z" fill="#1A938A"/>
<path d="M960.627 306.352L970.049 296.93C970.252 296.727 970.502 296.625 970.799 296.625C971.112 296.625 971.377 296.727 971.596 296.93C971.815 297.148 971.924 297.414 971.924 297.727C971.924 298.023 971.815 298.281 971.596 298.5L960.627 309.445L955.143 303.984C954.924 303.766 954.815 303.508 954.815 303.211C954.815 302.898 954.924 302.633 955.143 302.414C955.362 302.211 955.62 302.109 955.916 302.109C956.229 302.109 956.487 302.211 956.69 302.414L960.627 306.352Z" fill="#1A938A"/>
<path d="M960.627 369.352L970.049 359.93C970.252 359.727 970.502 359.625 970.799 359.625C971.112 359.625 971.377 359.727 971.596 359.93C971.815 360.148 971.924 360.414 971.924 360.727C971.924 361.023 971.815 361.281 971.596 361.5L960.627 372.445L955.143 366.984C954.924 366.766 954.815 366.508 954.815 366.211C954.815 365.898 954.924 365.633 955.143 365.414C955.362 365.211 955.62 365.109 955.916 365.109C956.229 365.109 956.487 365.211 956.69 365.414L960.627 369.352Z" fill="#1A938A"/>
<path d="M960.627 432.352L970.049 422.93C970.252 422.727 970.502 422.625 970.799 422.625C971.112 422.625 971.377 422.727 971.596 422.93C971.815 423.148 971.924 423.414 971.924 423.727C971.924 424.023 971.815 424.281 971.596 424.5L960.627 435.445L955.143 429.984C954.924 429.766 954.815 429.508 954.815 429.211C954.815 428.898 954.924 428.633 955.143 428.414C955.362 428.211 955.62 428.109 955.916 428.109C956.229 428.109 956.487 428.211 956.69 428.414L960.627 432.352Z" fill="#1A938A"/>
<path d="M960.627 495.352L970.049 485.93C970.252 485.727 970.502 485.625 970.799 485.625C971.112 485.625 971.377 485.727 971.596 485.93C971.815 486.148 971.924 486.414 971.924 486.727C971.924 487.023 971.815 487.281 971.596 487.5L960.627 498.445L955.143 492.984C954.924 492.766 954.815 492.508 954.815 492.211C954.815 491.898 954.924 491.633 955.143 491.414C955.362 491.211 955.62 491.109 955.916 491.109C956.229 491.109 956.487 491.211 956.69 491.414L960.627 495.352Z" fill="#1A938A"/>
<path d="M960.627 558.352L970.049 548.93C970.252 548.727 970.502 548.625 970.799 548.625C971.112 548.625 971.377 548.727 971.596 548.93C971.815 549.148 971.924 549.414 971.924 549.727C971.924 550.023 971.815 550.281 971.596 550.5L960.627 561.445L955.143 555.984C954.924 555.766 954.815 555.508 954.815 555.211C954.815 554.898 954.924 554.633 955.143 554.414C955.362 554.211 955.62 554.109 955.916 554.109C956.229 554.109 956.487 554.211 956.69 554.414L960.627 558.352Z" fill="#1A938A"/>
<path d="M960.627 622.352L970.049 612.93C970.252 612.727 970.502 612.625 970.799 612.625C971.112 612.625 971.377 612.727 971.596 612.93C971.815 613.148 971.924 613.414 971.924 613.727C971.924 614.023 971.815 614.281 971.596 614.5L960.627 625.445L955.143 619.984C954.924 619.766 954.815 619.508 954.815 619.211C954.815 618.898 954.924 618.633 955.143 618.414C955.362 618.211 955.62 618.109 955.916 618.109C956.229 618.109 956.487 618.211 956.69 618.414L960.627 622.352Z" fill="#1A938A"/>
<path d="M960.627 686.352L970.049 676.93C970.252 676.727 970.502 676.625 970.799 676.625C971.112 676.625 971.377 676.727 971.596 676.93C971.815 677.148 971.924 677.414 971.924 677.727C971.924 678.023 971.815 678.281 971.596 678.5L960.627 689.445L955.143 683.984C954.924 683.766 954.815 683.508 954.815 683.211C954.815 682.898 954.924 682.633 955.143 682.414C955.362 682.211 955.62 682.109 955.916 682.109C956.229 682.109 956.487 682.211 956.69 682.414L960.627 686.352Z" fill="#1A938A"/>
<path d="M960.627 749.352L970.049 739.93C970.252 739.727 970.502 739.625 970.799 739.625C971.112 739.625 971.377 739.727 971.596 739.93C971.815 740.148 971.924 740.414 971.924 740.727C971.924 741.023 971.815 741.281 971.596 741.5L960.627 752.445L955.143 746.984C954.924 746.766 954.815 746.508 954.815 746.211C954.815 745.898 954.924 745.633 955.143 745.414C955.362 745.211 955.62 745.109 955.916 745.109C956.229 745.109 956.487 745.211 956.69 745.414L960.627 749.352Z" fill="#1A938A"/>
<path d="M26.272 110.967H29.696V120.775H31.744V110.967H35.168V109.079H26.272V110.967ZM37.4864 120.775H39.3904L40.4784 117.383C40.8784 116.087 41.0224 115.527 41.1024 115.159C41.1664 115.559 41.3424 116.311 41.6624 117.351L42.7504 120.775H44.5744L47.3104 112.871H45.2464L44.1904 116.263C44.0464 116.759 43.7904 117.703 43.6624 118.295C43.5664 117.767 43.2464 116.583 43.1504 116.263L42.0944 112.871H40.1104L39.0224 116.263C38.7664 117.047 38.6224 117.543 38.4784 118.311C38.3344 117.575 38.1744 116.887 37.9984 116.263L36.9584 112.871H34.9264L37.4864 120.775ZM47.6378 116.807C47.6378 119.271 49.4138 120.967 51.8618 120.967C54.3098 120.967 56.0858 119.271 56.0858 116.807C56.0858 114.343 54.3098 112.647 51.8618 112.647C49.4138 112.647 47.6378 114.343 47.6378 116.807ZM49.5898 116.807C49.5898 115.367 50.5178 114.391 51.8618 114.391C53.2058 114.391 54.1338 115.367 54.1338 116.807C54.1338 118.247 53.2058 119.223 51.8618 119.223C50.5178 119.223 49.5898 118.247 49.5898 116.807ZM68.6335 115.991V114.151H64.2815V110.967H69.4655V109.079H62.2335V120.775H64.2815V115.991H68.6335ZM72.735 120.983C73.967 120.983 75.039 120.423 75.375 119.607L75.519 120.775H77.231V115.975C77.231 113.783 75.919 112.631 73.791 112.631C71.647 112.631 70.239 113.751 70.239 115.463H71.903C71.903 114.631 72.543 114.151 73.695 114.151C74.687 114.151 75.327 114.583 75.327 115.655V115.831L72.959 116.007C71.087 116.151 70.031 117.063 70.031 118.519C70.031 120.007 71.055 120.983 72.735 120.983ZM73.375 119.511C72.495 119.511 72.015 119.159 72.015 118.439C72.015 117.799 72.479 117.399 73.695 117.287L75.343 117.159V117.575C75.343 118.791 74.575 119.511 73.375 119.511ZM78.6846 116.807C78.6846 119.319 80.2526 120.983 82.6526 120.983C84.7166 120.983 86.2526 119.719 86.4926 117.879H84.5246C84.3166 118.743 83.6286 119.223 82.6526 119.223C81.4046 119.223 80.6366 118.295 80.6366 116.807C80.6366 115.319 81.4686 114.375 82.7166 114.375C83.6446 114.375 84.3006 114.839 84.5246 115.735H86.4766C86.2686 113.831 84.7966 112.631 82.6366 112.631C80.3006 112.631 78.6846 114.359 78.6846 116.807ZM90.6335 120.775V114.503H92.1695V112.871H90.6335V110.407H88.6815V112.871H87.1615V114.503H88.6815V120.775H90.6335ZM92.8409 116.807C92.8409 119.271 94.6169 120.967 97.0649 120.967C99.5129 120.967 101.289 119.271 101.289 116.807C101.289 114.343 99.5129 112.647 97.0649 112.647C94.6169 112.647 92.8409 114.343 92.8409 116.807ZM94.7929 116.807C94.7929 115.367 95.7209 114.391 97.0649 114.391C98.4089 114.391 99.3369 115.367 99.3369 116.807C99.3369 118.247 98.4089 119.223 97.0649 119.223C95.7209 119.223 94.7929 118.247 94.7929 116.807ZM107.796 112.839C107.476 112.759 107.204 112.727 106.932 112.727C105.876 112.727 105.124 113.255 104.788 114.039L104.676 112.887H102.836V120.775H104.788V116.935C104.788 115.399 105.668 114.647 107.076 114.647H107.796V112.839ZM114.726 120.775L115.67 118.071H120.038L120.982 120.775H123.142L118.918 109.079H116.822L112.598 120.775H114.726ZM117.606 112.567C117.718 112.247 117.814 111.895 117.862 111.671C117.894 111.911 118.006 112.263 118.102 112.567L119.446 116.343H116.278L117.606 112.567ZM129.384 112.871V117.015C129.384 118.519 128.792 119.239 127.56 119.239C126.472 119.239 125.88 118.631 125.88 117.127V112.871H123.928V117.815C123.928 119.751 125 120.983 126.824 120.983C127.88 120.983 128.904 120.471 129.384 119.719L129.528 120.775H131.336V112.871H129.384ZM136.04 120.775V114.503H137.576V112.871H136.04V110.407H134.088V112.871H132.568V114.503H134.088V120.775H136.04ZM140.741 120.775V116.455C140.741 115.271 141.461 114.407 142.693 114.407C143.685 114.407 144.341 115.047 144.341 116.375V120.775H146.293V115.911C146.293 113.863 145.269 112.631 143.317 112.631C142.181 112.631 141.253 113.127 140.757 113.895V108.871H138.789V120.775H140.741ZM151.747 120.983C153.811 120.983 155.251 119.943 155.587 118.215H153.779C153.555 118.967 152.851 119.383 151.779 119.383C150.483 119.383 149.747 118.679 149.603 117.287L155.555 117.271V116.679C155.555 114.215 154.051 112.631 151.683 112.631C149.363 112.631 147.747 114.343 147.747 116.823C147.747 119.271 149.395 120.983 151.747 120.983ZM151.699 114.231C152.867 114.231 153.619 114.951 153.619 116.039H149.651C149.843 114.855 150.547 114.231 151.699 114.231ZM159.069 120.775V116.519C159.069 115.239 159.805 114.407 161.005 114.407C162.013 114.407 162.669 115.047 162.669 116.375V120.775H164.621V115.911C164.621 113.863 163.597 112.631 161.613 112.631C160.541 112.631 159.581 113.095 159.085 113.895L158.925 112.871H157.117V120.775H159.069ZM169.227 120.775V114.503H170.763V112.871H169.227V110.407H167.275V112.871H165.755V114.503H167.275V120.775H169.227ZM172.953 111.287C173.593 111.287 174.121 110.759 174.121 110.103C174.121 109.447 173.593 108.935 172.953 108.935C172.281 108.935 171.753 109.447 171.753 110.103C171.753 110.759 172.281 111.287 172.953 111.287ZM171.977 120.775H173.929V112.871H171.977V120.775ZM175.482 116.807C175.482 119.319 177.049 120.983 179.45 120.983C181.514 120.983 183.05 119.719 183.29 117.879H181.322C181.114 118.743 180.426 119.223 179.45 119.223C178.202 119.223 177.434 118.295 177.434 116.807C177.434 115.319 178.266 114.375 179.514 114.375C180.442 114.375 181.098 114.839 181.322 115.735H183.274C183.066 113.831 181.594 112.631 179.434 112.631C177.098 112.631 175.482 114.359 175.482 116.807ZM187.094 120.983C188.326 120.983 189.398 120.423 189.734 119.607L189.878 120.775H191.59V115.975C191.59 113.783 190.278 112.631 188.15 112.631C186.006 112.631 184.598 113.751 184.598 115.463H186.262C186.262 114.631 186.902 114.151 188.054 114.151C189.046 114.151 189.686 114.583 189.686 115.655V115.831L187.318 116.007C185.446 116.151 184.39 117.063 184.39 118.519C184.39 120.007 185.414 120.983 187.094 120.983ZM187.734 119.511C186.854 119.511 186.374 119.159 186.374 118.439C186.374 117.799 186.838 117.399 188.054 117.287L189.702 117.159V117.575C189.702 118.791 188.934 119.511 187.734 119.511ZM196.087 120.775V114.503H197.623V112.871H196.087V110.407H194.135V112.871H192.615V114.503H194.135V120.775H196.087ZM199.812 111.287C200.452 111.287 200.98 110.759 200.98 110.103C200.98 109.447 200.452 108.935 199.812 108.935C199.14 108.935 198.612 109.447 198.612 110.103C198.612 110.759 199.14 111.287 199.812 111.287ZM198.836 120.775H200.788V112.871H198.836V120.775ZM202.341 116.807C202.341 119.271 204.117 120.967 206.565 120.967C209.013 120.967 210.789 119.271 210.789 116.807C210.789 114.343 209.013 112.647 206.565 112.647C204.117 112.647 202.341 114.343 202.341 116.807ZM204.293 116.807C204.293 115.367 205.221 114.391 206.565 114.391C207.909 114.391 208.837 115.367 208.837 116.807C208.837 118.247 207.909 119.223 206.565 119.223C205.221 119.223 204.293 118.247 204.293 116.807ZM214.288 120.775V116.519C214.288 115.239 215.024 114.407 216.224 114.407C217.232 114.407 217.888 115.047 217.888 116.375V120.775H219.84V115.911C219.84 113.863 218.816 112.631 216.832 112.631C215.76 112.631 214.8 113.095 214.304 113.895L214.144 112.871H212.336V120.775H214.288ZM27.008 187.439H28.96V182.719C29.456 183.519 30.48 183.983 31.664 183.983C34.016 183.983 35.36 182.191 35.36 179.727C35.36 177.247 33.888 175.631 31.664 175.631C30.464 175.631 29.424 176.159 28.944 177.071L28.816 175.871H27.008V187.439ZM28.976 179.823C28.976 178.399 29.856 177.407 31.2 177.407C32.576 177.407 33.392 178.415 33.392 179.823C33.392 181.231 32.576 182.223 31.2 182.223C29.856 182.223 28.976 181.247 28.976 179.823ZM39.2663 183.983C40.4983 183.983 41.5703 183.423 41.9063 182.607L42.0503 183.775H43.7623V178.975C43.7623 176.783 42.4503 175.631 40.3223 175.631C38.1783 175.631 36.7703 176.751 36.7703 178.463H38.4343C38.4343 177.631 39.0743 177.151 40.2263 177.151C41.2183 177.151 41.8583 177.583 41.8583 178.655V178.831L39.4903 179.007C37.6183 179.151 36.5623 180.063 36.5623 181.519C36.5623 183.007 37.5863 183.983 39.2663 183.983ZM39.9062 182.511C39.0263 182.511 38.5463 182.159 38.5463 181.439C38.5463 180.799 39.0103 180.399 40.2263 180.287L41.8743 180.159V180.575C41.8743 181.791 41.1063 182.511 39.9062 182.511ZM47.6479 183.775V171.871H45.7119V183.775H47.6479ZM51.6475 183.775V179.295C51.6475 178.015 52.3995 177.407 53.3275 177.407C54.2555 177.407 54.8475 177.999 54.8475 179.103V183.775H56.7995V179.295C56.7995 177.999 57.5195 177.391 58.4635 177.391C59.3915 177.391 59.9995 177.983 59.9995 179.119V183.775H61.9355V178.607C61.9355 176.783 60.8795 175.631 58.9595 175.631C57.7595 175.631 56.8315 176.223 56.4315 177.135C56.0155 176.223 55.1835 175.631 53.9835 175.631C52.8475 175.631 52.0475 176.143 51.6475 176.799L51.4875 175.871H49.6955V183.775H51.6475ZM70.46 183.775V179.455C70.46 178.271 71.18 177.407 72.412 177.407C73.404 177.407 74.06 178.047 74.06 179.375V183.775H76.012V178.911C76.012 176.863 74.988 175.631 73.036 175.631C71.9 175.631 70.972 176.127 70.476 176.895V171.871H68.508V183.775H70.46ZM82.8899 175.839C82.5699 175.759 82.2979 175.727 82.0259 175.727C80.9699 175.727 80.2179 176.255 79.8819 177.039L79.7699 175.887H77.9299V183.775H79.8819V179.935C79.8819 178.399 80.7619 177.647 82.1699 177.647H82.8899V175.839ZM90.8596 183.775V178.815H96.0436V183.775H98.0916V172.079H96.0436V176.911H90.8596V172.079H88.8116V183.775H90.8596ZM103.935 183.983C105.999 183.983 107.439 182.943 107.775 181.215H105.967C105.743 181.967 105.039 182.383 103.967 182.383C102.671 182.383 101.935 181.679 101.791 180.287L107.743 180.271V179.679C107.743 177.215 106.239 175.631 103.871 175.631C101.551 175.631 99.9346 177.343 99.9346 179.823C99.9346 182.271 101.583 183.983 103.935 183.983ZM103.887 177.231C105.055 177.231 105.807 177.951 105.807 179.039H101.839C102.031 177.855 102.735 177.231 103.887 177.231ZM111.273 183.775V171.871H109.337V183.775H111.273ZM113.321 187.439H115.273V182.719C115.769 183.519 116.793 183.983 117.977 183.983C120.329 183.983 121.673 182.191 121.673 179.727C121.673 177.247 120.201 175.631 117.977 175.631C116.777 175.631 115.737 176.159 115.257 177.071L115.129 175.871H113.321V187.439ZM115.289 179.823C115.289 178.399 116.169 177.407 117.513 177.407C118.889 177.407 119.705 178.415 119.705 179.823C119.705 181.231 118.889 182.223 117.513 182.223C116.169 182.223 115.289 181.247 115.289 179.823ZM132.771 183.967C135.539 183.967 137.683 182.335 138.131 179.871H136.003C135.619 181.167 134.403 181.999 132.819 181.999C130.675 181.999 129.299 180.399 129.299 177.919C129.299 175.423 130.659 173.855 132.819 173.855C134.371 173.855 135.539 174.655 135.939 176.015H138.099C137.699 173.503 135.635 171.887 132.867 171.887C129.443 171.887 127.155 174.303 127.155 177.935C127.155 181.599 129.363 183.967 132.771 183.967ZM143.216 183.983C145.28 183.983 146.72 182.943 147.056 181.215H145.248C145.024 181.967 144.32 182.383 143.248 182.383C141.952 182.383 141.216 181.679 141.072 180.287L147.024 180.271V179.679C147.024 177.215 145.52 175.631 143.152 175.631C140.832 175.631 139.216 177.343 139.216 179.823C139.216 182.271 140.864 183.983 143.216 183.983ZM143.168 177.231C144.336 177.231 145.088 177.951 145.088 179.039H141.12C141.312 177.855 142.016 177.231 143.168 177.231ZM150.538 183.775V179.519C150.538 178.239 151.274 177.407 152.474 177.407C153.482 177.407 154.138 178.047 154.138 179.375V183.775H156.09V178.911C156.09 176.863 155.066 175.631 153.082 175.631C152.01 175.631 151.05 176.095 150.554 176.895L150.394 175.871H148.586V183.775H150.538ZM160.696 183.775V177.503H162.232V175.871H160.696V173.407H158.744V175.871H157.224V177.503H158.744V183.775H160.696ZM166.903 183.983C168.967 183.983 170.407 182.943 170.743 181.215H168.935C168.711 181.967 168.007 182.383 166.935 182.383C165.639 182.383 164.903 181.679 164.759 180.287L170.711 180.271V179.679C170.711 177.215 169.207 175.631 166.839 175.631C164.519 175.631 162.903 177.343 162.903 179.823C162.903 182.271 164.551 183.983 166.903 183.983ZM166.855 177.231C168.023 177.231 168.775 177.951 168.775 179.039H164.807C164.999 177.855 165.703 177.231 166.855 177.231ZM177.234 175.839C176.914 175.759 176.642 175.727 176.37 175.727C175.314 175.727 174.562 176.255 174.226 177.039L174.114 175.887H172.274V183.775H174.226V179.935C174.226 178.399 175.106 177.647 176.514 177.647H177.234V175.839ZM29.344 235.079H27.296V246.775H29.344V235.079ZM33.6006 246.775V242.519C33.6006 241.239 34.3366 240.407 35.5366 240.407C36.5446 240.407 37.2006 241.047 37.2006 242.375V246.775H39.1526V241.911C39.1526 239.863 38.1286 238.631 36.1446 238.631C35.0726 238.631 34.1126 239.095 33.6166 239.895L33.4566 238.871H31.6486V246.775H33.6006ZM46.679 246.775L47.623 244.071H51.991L52.935 246.775H55.095L50.871 235.079H48.775L44.551 246.775H46.679ZM49.559 238.567C49.671 238.247 49.767 237.895 49.815 237.671C49.847 237.911 49.959 238.263 50.055 238.567L51.399 242.343H48.231L49.559 238.567ZM56.2736 250.439H58.2256V245.719C58.7216 246.519 59.7456 246.983 60.9296 246.983C63.2816 246.983 64.6256 245.191 64.6256 242.727C64.6256 240.247 63.1536 238.631 60.9296 238.631C59.7296 238.631 58.6896 239.159 58.2096 240.071L58.0816 238.871H56.2736V250.439ZM58.2416 242.823C58.2416 241.399 59.1216 240.407 60.4656 240.407C61.8416 240.407 62.6576 241.415 62.6576 242.823C62.6576 244.231 61.8416 245.223 60.4656 245.223C59.1216 245.223 58.2416 244.247 58.2416 242.823ZM66.1799 250.439H68.1319V245.719C68.6279 246.519 69.6519 246.983 70.8359 246.983C73.1879 246.983 74.5319 245.191 74.5319 242.727C74.5319 240.247 73.0599 238.631 70.8359 238.631C69.6359 238.631 68.5959 239.159 68.1159 240.071L67.9879 238.871H66.1799V250.439ZM68.1479 242.823C68.1479 241.399 69.0279 240.407 70.3719 240.407C71.7479 240.407 72.5639 241.415 72.5639 242.823C72.5639 244.231 71.7479 245.223 70.3719 245.223C69.0279 245.223 68.1479 244.247 68.1479 242.823ZM83.0866 246.775V240.503H84.6226V238.871H83.0866V236.407H81.1346V238.871H79.6146V240.503H81.1346V246.775H83.0866ZM85.294 242.807C85.294 245.271 87.07 246.967 89.518 246.967C91.966 246.967 93.742 245.271 93.742 242.807C93.742 240.343 91.966 238.647 89.518 238.647C87.07 238.647 85.294 240.343 85.294 242.807ZM87.246 242.807C87.246 241.367 88.174 240.391 89.518 240.391C90.862 240.391 91.79 241.367 91.79 242.807C91.79 244.247 90.862 245.223 89.518 245.223C88.174 245.223 87.246 244.247 87.246 242.807ZM100.462 238.871V243.015C100.462 244.519 99.8698 245.239 98.6378 245.239C97.5498 245.239 96.9578 244.631 96.9578 243.127V238.871H95.0058V243.815C95.0058 245.751 96.0778 246.983 97.9018 246.983C98.9578 246.983 99.9818 246.471 100.462 245.719L100.606 246.775H102.414V238.871H100.462ZM109.39 238.839C109.07 238.759 108.798 238.727 108.526 238.727C107.47 238.727 106.718 239.255 106.382 240.039L106.27 238.887H104.43V246.775H106.382V242.935C106.382 241.399 107.262 240.647 108.67 240.647H109.39V238.839ZM110.103 244.375C110.103 245.927 111.351 246.983 113.319 246.983C115.271 246.983 116.631 245.991 116.631 244.391C116.631 243.175 115.959 242.567 114.631 242.263L113.207 241.927C112.535 241.767 112.183 241.479 112.183 241.031C112.183 240.439 112.631 240.087 113.399 240.087C114.151 240.087 114.599 240.519 114.615 241.191H116.471C116.455 239.655 115.255 238.631 113.479 238.631C111.655 238.631 110.343 239.559 110.343 241.111C110.343 242.375 111.031 243.047 112.455 243.367L113.879 243.703C114.583 243.863 114.791 244.151 114.791 244.551C114.791 245.127 114.295 245.495 113.383 245.495C112.487 245.495 111.975 245.063 111.959 244.375H110.103ZM34.56 310.775V308.887H29.344V305.783H34.016V303.975H29.344V300.967H34.56V299.079H27.296V310.775H34.56ZM36.4764 307.367H41.6284V305.639H36.4764V307.367ZM45.8894 310.775V306.583C45.8894 305.127 45.8734 304.023 45.7614 303.319L48.7214 310.775H50.6094L53.5854 303.303C53.4734 304.135 53.4734 304.823 53.4734 307.175V310.775H55.4574V299.079H53.4414L49.6654 308.391L45.8894 299.079H43.9054V310.775H45.8894ZM60.11 310.983C61.342 310.983 62.414 310.423 62.75 309.607L62.894 310.775H64.606V305.975C64.606 303.783 63.294 302.631 61.166 302.631C59.022 302.631 57.614 303.751 57.614 305.463H59.278C59.278 304.631 59.918 304.151 61.07 304.151C62.062 304.151 62.702 304.583 62.702 305.655V305.831L60.334 306.007C58.462 306.151 57.406 307.063 57.406 308.519C57.406 310.007 58.43 310.983 60.11 310.983ZM60.75 309.511C59.87 309.511 59.39 309.159 59.39 308.439C59.39 307.799 59.854 307.399 61.07 307.287L62.718 307.159V307.575C62.718 308.791 61.95 309.511 60.75 309.511ZM67.4996 301.287C68.1396 301.287 68.6676 300.759 68.6676 300.103C68.6676 299.447 68.1396 298.935 67.4996 298.935C66.8276 298.935 66.2996 299.447 66.2996 300.103C66.2996 300.759 66.8276 301.287 67.4996 301.287ZM66.5236 310.775H68.4756V302.871H66.5236V310.775ZM72.4604 310.775V298.871H70.5244V310.775H72.4604ZM78.4365 302.343C78.4365 304.135 79.4765 305.271 81.4605 305.703L83.3165 306.119C84.2765 306.327 84.6765 306.791 84.6765 307.575C84.6765 308.551 83.8125 309.143 82.4525 309.143C81.1405 309.143 80.3405 308.551 80.3245 307.559H78.2765C78.3245 309.655 79.9565 310.983 82.4525 310.983C85.0285 310.983 86.7245 309.575 86.7245 307.399C86.7245 305.655 85.7485 304.631 83.7485 304.199L81.9085 303.799C80.9325 303.575 80.4845 303.111 80.4845 302.279C80.4845 301.303 81.3005 300.695 82.5645 300.695C83.7165 300.695 84.4365 301.287 84.4845 302.295H86.5325C86.4685 300.183 84.9645 298.871 82.5965 298.871C80.1325 298.871 78.4365 300.295 78.4365 302.343ZM93.6493 302.871V307.015C93.6493 308.519 93.0573 309.239 91.8253 309.239C90.7373 309.239 90.1453 308.631 90.1453 307.127V302.871H88.1933V307.815C88.1933 309.751 89.2653 310.983 91.0893 310.983C92.1453 310.983 93.1693 310.471 93.6493 309.719L93.7933 310.775H95.6013V302.871H93.6493ZM97.6174 314.439H99.5694V309.719C100.065 310.519 101.089 310.983 102.273 310.983C104.625 310.983 105.969 309.191 105.969 306.727C105.969 304.247 104.497 302.631 102.273 302.631C101.073 302.631 100.033 303.159 99.5534 304.071L99.4254 302.871H97.6174V314.439ZM99.5854 306.823C99.5854 305.399 100.465 304.407 101.809 304.407C103.185 304.407 104.001 305.415 104.001 306.823C104.001 308.231 103.185 309.223 101.809 309.223C100.465 309.223 99.5854 308.247 99.5854 306.823ZM107.524 314.439H109.476V309.719C109.972 310.519 110.996 310.983 112.18 310.983C114.532 310.983 115.876 309.191 115.876 306.727C115.876 304.247 114.404 302.631 112.18 302.631C110.98 302.631 109.94 303.159 109.46 304.071L109.332 302.871H107.524V314.439ZM109.492 306.823C109.492 305.399 110.372 304.407 111.716 304.407C113.092 304.407 113.908 305.415 113.908 306.823C113.908 308.231 113.092 309.223 111.716 309.223C110.372 309.223 109.492 308.247 109.492 306.823ZM116.966 306.807C116.966 309.271 118.742 310.967 121.19 310.967C123.638 310.967 125.414 309.271 125.414 306.807C125.414 304.343 123.638 302.647 121.19 302.647C118.742 302.647 116.966 304.343 116.966 306.807ZM118.918 306.807C118.918 305.367 119.846 304.391 121.19 304.391C122.534 304.391 123.462 305.367 123.462 306.807C123.462 308.247 122.534 309.223 121.19 309.223C119.846 309.223 118.918 308.247 118.918 306.807ZM131.921 302.839C131.601 302.759 131.329 302.727 131.057 302.727C130.001 302.727 129.249 303.255 128.913 304.039L128.801 302.887H126.961V310.775H128.913V306.935C128.913 305.399 129.793 304.647 131.201 304.647H131.921V302.839ZM136.243 310.775V304.503H137.779V302.871H136.243V300.407H134.291V302.871H132.771V304.503H134.291V310.775H136.243ZM29.344 362.079H27.296V373.775H34.24V371.887H29.344V362.079ZM36.5934 364.287C37.2334 364.287 37.7614 363.759 37.7614 363.103C37.7614 362.447 37.2334 361.935 36.5934 361.935C35.9214 361.935 35.3934 362.447 35.3934 363.103C35.3934 363.759 35.9214 364.287 36.5934 364.287ZM35.6174 373.775H37.5694V365.871H35.6174V373.775ZM41.8261 373.775H43.7461L47.0421 365.871H45.0261L43.5861 369.503C43.2501 370.367 42.9621 371.199 42.8501 371.695C42.7541 371.263 42.4821 370.447 42.1461 369.503L40.7701 365.871H38.6901L41.8261 373.775ZM51.3096 373.983C53.3736 373.983 54.8136 372.943 55.1496 371.215H53.3416C53.1176 371.967 52.4136 372.383 51.3416 372.383C50.0456 372.383 49.3096 371.679 49.1656 370.287L55.1176 370.271V369.679C55.1176 367.215 53.6136 365.631 51.2456 365.631C48.9256 365.631 47.3096 367.343 47.3096 369.823C47.3096 372.271 48.9576 373.983 51.3096 373.983ZM51.2616 367.231C52.4296 367.231 53.1816 367.951 53.1816 369.039H49.2136C49.4056 367.855 50.1096 367.231 51.2616 367.231ZM66.2244 373.967C68.9924 373.967 71.1364 372.335 71.5844 369.871H69.4564C69.0724 371.167 67.8564 371.999 66.2724 371.999C64.1284 371.999 62.7524 370.399 62.7524 367.919C62.7524 365.423 64.1124 363.855 66.2724 363.855C67.8244 363.855 68.9924 364.655 69.3924 366.015H71.5524C71.1524 363.503 69.0884 361.887 66.3204 361.887C62.8964 361.887 60.6084 364.303 60.6084 367.935C60.6084 371.599 62.8164 373.967 66.2244 373.967ZM75.0069 373.775V369.455C75.0069 368.271 75.7269 367.407 76.9589 367.407C77.9509 367.407 78.6069 368.047 78.6069 369.375V373.775H80.5589V368.911C80.5589 366.863 79.5349 365.631 77.5829 365.631C76.4469 365.631 75.5189 366.127 75.0229 366.895V361.871H73.0549V373.775H75.0069ZM84.8288 373.983C86.0608 373.983 87.1328 373.423 87.4688 372.607L87.6128 373.775H89.3248V368.975C89.3248 366.783 88.0128 365.631 85.8848 365.631C83.7408 365.631 82.3328 366.751 82.3328 368.463H83.9968C83.9968 367.631 84.6368 367.151 85.7888 367.151C86.7808 367.151 87.4208 367.583 87.4208 368.655V368.831L85.0528 369.007C83.1808 369.151 82.1248 370.063 82.1248 371.519C82.1248 373.007 83.1488 373.983 84.8288 373.983ZM85.4688 372.511C84.5888 372.511 84.1088 372.159 84.1088 371.439C84.1088 370.799 84.5728 370.399 85.7888 370.287L87.4368 370.159V370.575C87.4368 371.791 86.6688 372.511 85.4688 372.511ZM93.821 373.775V367.503H95.357V365.871H93.821V363.407H91.869V365.871H90.349V367.503H91.869V373.775H93.821ZM100.499 365.343C100.499 367.135 101.539 368.271 103.523 368.703L105.379 369.119C106.339 369.327 106.739 369.791 106.739 370.575C106.739 371.551 105.875 372.143 104.515 372.143C103.203 372.143 102.403 371.551 102.387 370.559H100.339C100.387 372.655 102.019 373.983 104.515 373.983C107.091 373.983 108.787 372.575 108.787 370.399C108.787 368.655 107.811 367.631 105.811 367.199L103.971 366.799C102.995 366.575 102.547 366.111 102.547 365.279C102.547 364.303 103.363 363.695 104.627 363.695C105.779 363.695 106.499 364.287 106.547 365.295H108.595C108.531 363.183 107.027 361.871 104.659 361.871C102.195 361.871 100.499 363.295 100.499 365.343ZM115.712 365.871V370.015C115.712 371.519 115.12 372.239 113.888 372.239C112.8 372.239 112.208 371.631 112.208 370.127V365.871H110.256V370.815C110.256 372.751 111.328 373.983 113.152 373.983C114.208 373.983 115.232 373.471 115.712 372.719L115.856 373.775H117.664V365.871H115.712ZM119.68 377.439H121.632V372.719C122.128 373.519 123.152 373.983 124.336 373.983C126.688 373.983 128.032 372.191 128.032 369.727C128.032 367.247 126.56 365.631 124.336 365.631C123.136 365.631 122.096 366.159 121.616 367.071L121.488 365.871H119.68V377.439ZM121.648 369.823C121.648 368.399 122.528 367.407 123.872 367.407C125.248 367.407 126.064 368.415 126.064 369.823C126.064 371.231 125.248 372.223 123.872 372.223C122.528 372.223 121.648 371.247 121.648 369.823ZM129.586 377.439H131.538V372.719C132.034 373.519 133.058 373.983 134.242 373.983C136.594 373.983 137.938 372.191 137.938 369.727C137.938 367.247 136.466 365.631 134.242 365.631C133.042 365.631 132.002 366.159 131.522 367.071L131.394 365.871H129.586V377.439ZM131.554 369.823C131.554 368.399 132.434 367.407 133.778 367.407C135.154 367.407 135.97 368.415 135.97 369.823C135.97 371.231 135.154 372.223 133.778 372.223C132.434 372.223 131.554 371.247 131.554 369.823ZM139.028 369.807C139.028 372.271 140.804 373.967 143.252 373.967C145.7 373.967 147.476 372.271 147.476 369.807C147.476 367.343 145.7 365.647 143.252 365.647C140.804 365.647 139.028 367.343 139.028 369.807ZM140.98 369.807C140.98 368.367 141.908 367.391 143.252 367.391C144.596 367.391 145.524 368.367 145.524 369.807C145.524 371.247 144.596 372.223 143.252 372.223C141.908 372.223 140.98 371.247 140.98 369.807ZM153.984 365.839C153.664 365.759 153.392 365.727 153.12 365.727C152.064 365.727 151.312 366.255 150.976 367.039L150.864 365.887H149.024V373.775H150.976V369.935C150.976 368.399 151.856 367.647 153.264 367.647H153.984V365.839ZM158.305 373.775V367.503H159.841V365.871H158.305V363.407H156.353V365.871H154.833V367.503H156.353V373.775H158.305ZM32.416 426.807C33.824 426.807 35.008 427.447 35.376 428.823H37.536C37.2 426.439 35.136 424.887 32.464 424.887C28.944 424.887 26.624 427.415 26.624 430.967C26.624 434.567 28.912 436.951 32.192 436.951C33.776 436.951 35.104 436.327 35.744 435.431L35.872 436.775H37.6V430.199H32.16V432.007H35.696V432.055C35.696 433.927 34.464 435.047 32.432 435.047C30.272 435.047 28.768 433.623 28.768 431.015C28.768 428.487 30.096 426.807 32.416 426.807ZM39.0596 432.807C39.0596 435.271 40.8356 436.967 43.2836 436.967C45.7316 436.967 47.5076 435.271 47.5076 432.807C47.5076 430.343 45.7316 428.647 43.2836 428.647C40.8356 428.647 39.0596 430.343 39.0596 432.807ZM41.0116 432.807C41.0116 431.367 41.9396 430.391 43.2836 430.391C44.6276 430.391 45.5556 431.367 45.5556 432.807C45.5556 434.247 44.6276 435.223 43.2836 435.223C41.9396 435.223 41.0116 434.247 41.0116 432.807ZM48.5909 432.807C48.5909 435.271 50.3669 436.967 52.8149 436.967C55.2629 436.967 57.0389 435.271 57.0389 432.807C57.0389 430.343 55.2629 428.647 52.8149 428.647C50.3669 428.647 48.5909 430.343 48.5909 432.807ZM50.5429 432.807C50.5429 431.367 51.4709 430.391 52.8149 430.391C54.1589 430.391 55.0869 431.367 55.0869 432.807C55.0869 434.247 54.1589 435.223 52.8149 435.223C51.4709 435.223 50.5429 434.247 50.5429 432.807ZM58.1381 432.647C58.1381 434.935 59.6101 436.615 61.8501 436.615C62.9861 436.615 63.9621 436.151 64.4581 435.415V436.727C64.4581 438.039 63.5941 438.887 62.2501 438.887C61.0501 438.887 60.2661 438.279 60.1381 437.255H58.1861C58.4261 439.367 59.9781 440.663 62.2501 440.663C64.8101 440.663 66.3941 439.015 66.3941 436.375V428.871H64.5861L64.4741 429.959C64.0101 429.111 63.0821 428.615 61.8981 428.615C59.6421 428.615 58.1381 430.343 58.1381 432.647ZM60.1061 432.599C60.1061 431.303 60.9381 430.327 62.2341 430.327C63.5941 430.327 64.4101 431.255 64.4101 432.599C64.4101 433.975 63.5781 434.919 62.2341 434.919C60.9541 434.919 60.1061 433.927 60.1061 432.599ZM70.3823 436.775V424.871H68.4463V436.775H70.3823ZM75.9659 436.983C78.0299 436.983 79.4699 435.943 79.8059 434.215H77.9979C77.7739 434.967 77.0699 435.383 75.9979 435.383C74.7019 435.383 73.9659 434.679 73.8219 433.287L79.7739 433.271V432.679C79.7739 430.215 78.2699 428.631 75.9019 428.631C73.5819 428.631 71.9659 430.343 71.9659 432.823C71.9659 435.271 73.6139 436.983 75.9659 436.983ZM75.9179 430.231C77.0859 430.231 77.8379 430.951 77.8379 432.039H73.8699C74.0619 430.855 74.7659 430.231 75.9179 430.231ZM85.2646 428.343C85.2646 430.135 86.3046 431.271 88.2886 431.703L90.1446 432.119C91.1046 432.327 91.5046 432.791 91.5046 433.575C91.5046 434.551 90.6406 435.143 89.2806 435.143C87.9686 435.143 87.1686 434.551 87.1526 433.559H85.1046C85.1526 435.655 86.7846 436.983 89.2806 436.983C91.8566 436.983 93.5526 435.575 93.5526 433.399C93.5526 431.655 92.5766 430.631 90.5766 430.199L88.7366 429.799C87.7606 429.575 87.3126 429.111 87.3126 428.279C87.3126 427.303 88.1286 426.695 89.3926 426.695C90.5446 426.695 91.2646 427.287 91.3126 428.295H93.3606C93.2966 426.183 91.7926 424.871 89.4246 424.871C86.9606 424.871 85.2646 426.295 85.2646 428.343ZM96.0934 427.287C96.7334 427.287 97.2614 426.759 97.2614 426.103C97.2614 425.447 96.7334 424.935 96.0934 424.935C95.4214 424.935 94.8934 425.447 94.8934 426.103C94.8934 426.759 95.4214 427.287 96.0934 427.287ZM95.1174 436.775H97.0694V428.871H95.1174V436.775ZM101.038 436.775V432.519C101.038 431.239 101.774 430.407 102.974 430.407C103.982 430.407 104.638 431.047 104.638 432.375V436.775H106.59V431.911C106.59 429.863 105.566 428.631 103.582 428.631C102.51 428.631 101.55 429.095 101.054 429.895L100.894 428.871H99.0861V436.775H101.038ZM108.06 432.647C108.06 434.935 109.532 436.615 111.772 436.615C112.908 436.615 113.884 436.151 114.38 435.415V436.727C114.38 438.039 113.516 438.887 112.172 438.887C110.972 438.887 110.188 438.279 110.06 437.255H108.108C108.348 439.367 109.9 440.663 112.172 440.663C114.732 440.663 116.316 439.015 116.316 436.375V428.871H114.508L114.396 429.959C113.932 429.111 113.004 428.615 111.82 428.615C109.564 428.615 108.06 430.343 108.06 432.647ZM110.028 432.599C110.028 431.303 110.86 430.327 112.156 430.327C113.516 430.327 114.332 431.255 114.332 432.599C114.332 433.975 113.5 434.919 112.156 434.919C110.876 434.919 110.028 433.927 110.028 432.599ZM120.304 436.775V424.871H118.368V436.775H120.304ZM125.888 436.983C127.952 436.983 129.392 435.943 129.728 434.215H127.92C127.696 434.967 126.992 435.383 125.92 435.383C124.624 435.383 123.888 434.679 123.744 433.287L129.696 433.271V432.679C129.696 430.215 128.192 428.631 125.824 428.631C123.504 428.631 121.888 430.343 121.888 432.823C121.888 435.271 123.536 436.983 125.888 436.983ZM125.84 430.231C127.008 430.231 127.76 430.951 127.76 432.039H123.792C123.984 430.855 124.688 430.231 125.84 430.231ZM135.187 428.343C135.187 430.135 136.227 431.271 138.211 431.703L140.067 432.119C141.027 432.327 141.427 432.791 141.427 433.575C141.427 434.551 140.563 435.143 139.203 435.143C137.891 435.143 137.091 434.551 137.075 433.559H135.027C135.075 435.655 136.707 436.983 139.203 436.983C141.779 436.983 143.475 435.575 143.475 433.399C143.475 431.655 142.499 430.631 140.499 430.199L138.659 429.799C137.683 429.575 137.235 429.111 137.235 428.279C137.235 427.303 138.051 426.695 139.315 426.695C140.467 426.695 141.187 427.287 141.235 428.295H143.283C143.219 426.183 141.715 424.871 139.347 424.871C136.883 424.871 135.187 426.295 135.187 428.343ZM146.015 427.287C146.655 427.287 147.183 426.759 147.183 426.103C147.183 425.447 146.655 424.935 146.015 424.935C145.343 424.935 144.815 425.447 144.815 426.103C144.815 426.759 145.343 427.287 146.015 427.287ZM145.039 436.775H146.991V428.871H145.039V436.775ZM148.56 432.647C148.56 434.935 150.032 436.615 152.272 436.615C153.408 436.615 154.384 436.151 154.88 435.415V436.727C154.88 438.039 154.016 438.887 152.672 438.887C151.472 438.887 150.688 438.279 150.56 437.255H148.608C148.848 439.367 150.4 440.663 152.672 440.663C155.232 440.663 156.816 439.015 156.816 436.375V428.871H155.008L154.896 429.959C154.432 429.111 153.504 428.615 152.32 428.615C150.064 428.615 148.56 430.343 148.56 432.647ZM150.528 432.599C150.528 431.303 151.36 430.327 152.656 430.327C154.016 430.327 154.832 431.255 154.832 432.599C154.832 433.975 154 434.919 152.656 434.919C151.376 434.919 150.528 433.927 150.528 432.599ZM160.788 436.775V432.519C160.788 431.239 161.524 430.407 162.724 430.407C163.732 430.407 164.388 431.047 164.388 432.375V436.775H166.34V431.911C166.34 429.863 165.316 428.631 163.332 428.631C162.26 428.631 161.3 429.095 160.804 429.895L160.644 428.871H158.836V436.775H160.788ZM183.531 430.919C183.531 427.351 181.195 424.871 177.851 424.871C174.507 424.871 172.187 427.367 172.187 430.919C172.187 434.487 174.491 436.967 177.835 436.967C181.195 436.967 183.531 434.471 183.531 430.919ZM181.371 430.919C181.371 433.383 179.995 434.999 177.851 434.999C175.707 434.999 174.331 433.415 174.331 430.919C174.331 428.423 175.707 426.839 177.851 426.839C179.995 426.839 181.371 428.423 181.371 430.919ZM187.101 436.775V432.519C187.101 431.239 187.837 430.407 189.037 430.407C190.045 430.407 190.701 431.047 190.701 432.375V436.775H192.653V431.911C192.653 429.863 191.629 428.631 189.645 428.631C188.573 428.631 187.613 429.095 187.117 429.895L186.957 428.871H185.149V436.775H187.101ZM26.624 492.343C26.624 494.135 27.664 495.271 29.648 495.703L31.504 496.119C32.464 496.327 32.864 496.791 32.864 497.575C32.864 498.551 32 499.143 30.64 499.143C29.328 499.143 28.528 498.551 28.512 497.559H26.464C26.512 499.655 28.144 500.983 30.64 500.983C33.216 500.983 34.912 499.575 34.912 497.399C34.912 495.655 33.936 494.631 31.936 494.199L30.096 493.799C29.12 493.575 28.672 493.111 28.672 492.279C28.672 491.303 29.488 490.695 30.752 490.695C31.904 490.695 32.624 491.287 32.672 492.295H34.72C34.656 490.183 33.152 488.871 30.784 488.871C28.32 488.871 26.624 490.295 26.624 492.343ZM39.1648 500.775V494.503H40.7008V492.871H39.1648V490.407H37.2128V492.871H35.6928V494.503H37.2128V500.775H39.1648ZM44.2194 500.983C45.4514 500.983 46.5234 500.423 46.8594 499.607L47.0034 500.775H48.7154V495.975C48.7154 493.783 47.4034 492.631 45.2754 492.631C43.1314 492.631 41.7234 493.751 41.7234 495.463H43.3874C43.3874 494.631 44.0274 494.151 45.1794 494.151C46.1714 494.151 46.8114 494.583 46.8114 495.655V495.831L44.4434 496.007C42.5714 496.151 41.5154 497.063 41.5154 498.519C41.5154 500.007 42.5394 500.983 44.2194 500.983ZM44.8594 499.511C43.9794 499.511 43.4994 499.159 43.4994 498.439C43.4994 497.799 43.9634 497.399 45.1794 497.287L46.8274 497.159V497.575C46.8274 498.791 46.0594 499.511 44.8594 499.511ZM52.585 500.775V496.519C52.585 495.239 53.321 494.407 54.521 494.407C55.529 494.407 56.185 495.047 56.185 496.375V500.775H58.137V495.911C58.137 493.863 57.113 492.631 55.129 492.631C54.057 492.631 53.097 493.095 52.601 493.895L52.441 492.871H50.633V500.775H52.585ZM63.3029 500.983C64.5029 500.983 65.5269 500.455 66.0069 499.543L66.1349 500.775H67.9269V488.871H65.9909V493.879C65.4949 493.095 64.5189 492.631 63.4149 492.631C61.0309 492.631 59.5909 494.391 59.5909 496.855C59.5909 499.303 61.0149 500.983 63.3029 500.983ZM63.7349 499.191C62.3749 499.191 61.5429 498.199 61.5429 496.791C61.5429 495.383 62.3749 494.375 63.7349 494.375C65.0949 494.375 65.9749 495.367 65.9749 496.791C65.9749 498.215 65.0949 499.191 63.7349 499.191ZM72.3131 500.983C73.5451 500.983 74.6171 500.423 74.9531 499.607L75.0971 500.775H76.8091V495.975C76.8091 493.783 75.4971 492.631 73.3691 492.631C71.2251 492.631 69.8171 493.751 69.8171 495.463H71.4811C71.4811 494.631 72.1211 494.151 73.2731 494.151C74.2651 494.151 74.9051 494.583 74.9051 495.655V495.831L72.5371 496.007C70.6651 496.151 69.6091 497.063 69.6091 498.519C69.6091 500.007 70.6331 500.983 72.3131 500.983ZM72.9531 499.511C72.0731 499.511 71.5931 499.159 71.5931 498.439C71.5931 497.799 72.0571 497.399 73.2731 497.287L74.9211 497.159V497.575C74.9211 498.791 74.1531 499.511 72.9531 499.511ZM83.6868 492.839C83.3668 492.759 83.0948 492.727 82.8228 492.727C81.7668 492.727 81.0148 493.255 80.6788 494.039L80.5668 492.887H78.7268V500.775H80.6788V496.935C80.6788 495.399 81.5588 494.647 82.9668 494.647H83.6868V492.839ZM87.9904 500.983C89.1904 500.983 90.2144 500.455 90.6944 499.543L90.8224 500.775H92.6144V488.871H90.6784V493.879C90.1824 493.095 89.2064 492.631 88.1024 492.631C85.7184 492.631 84.2784 494.391 84.2784 496.855C84.2784 499.303 85.7024 500.983 87.9904 500.983ZM88.4224 499.191C87.0624 499.191 86.2304 498.199 86.2304 496.791C86.2304 495.383 87.0624 494.375 88.4224 494.375C89.7824 494.375 90.6624 495.367 90.6624 496.791C90.6624 498.215 89.7824 499.191 88.4224 499.191ZM101.297 489.079H99.2491V500.775H101.297V489.079ZM105.554 500.775V496.295C105.554 495.015 106.306 494.407 107.234 494.407C108.162 494.407 108.754 494.999 108.754 496.103V500.775H110.706V496.295C110.706 494.999 111.426 494.391 112.37 494.391C113.298 494.391 113.906 494.983 113.906 496.119V500.775H115.842V495.607C115.842 493.783 114.786 492.631 112.866 492.631C111.666 492.631 110.738 493.223 110.338 494.135C109.922 493.223 109.09 492.631 107.89 492.631C106.754 492.631 105.954 493.143 105.554 493.799L105.394 492.871H103.602V500.775H105.554ZM117.758 504.439H119.71V499.719C120.206 500.519 121.23 500.983 122.414 500.983C124.766 500.983 126.11 499.191 126.11 496.727C126.11 494.247 124.638 492.631 122.414 492.631C121.214 492.631 120.174 493.159 119.694 494.071L119.566 492.871H117.758V504.439ZM119.726 496.823C119.726 495.399 120.606 494.407 121.95 494.407C123.326 494.407 124.142 495.415 124.142 496.823C124.142 498.231 123.326 499.223 121.95 499.223C120.606 499.223 119.726 498.247 119.726 496.823ZM129.632 500.775V488.871H127.696V500.775H129.632ZM135.216 500.983C137.28 500.983 138.72 499.943 139.056 498.215H137.248C137.024 498.967 136.32 499.383 135.248 499.383C133.952 499.383 133.216 498.679 133.072 497.287L139.024 497.271V496.679C139.024 494.215 137.52 492.631 135.152 492.631C132.832 492.631 131.216 494.343 131.216 496.823C131.216 499.271 132.864 500.983 135.216 500.983ZM135.168 494.231C136.336 494.231 137.088 494.951 137.088 496.039H133.12C133.312 494.855 134.016 494.231 135.168 494.231ZM142.538 500.775V496.295C142.538 495.015 143.29 494.407 144.218 494.407C145.146 494.407 145.738 494.999 145.738 496.103V500.775H147.69V496.295C147.69 494.999 148.41 494.391 149.354 494.391C150.282 494.391 150.89 494.983 150.89 496.119V500.775H152.826V495.607C152.826 493.783 151.77 492.631 149.85 492.631C148.65 492.631 147.722 493.223 147.322 494.135C146.906 493.223 146.074 492.631 144.874 492.631C143.738 492.631 142.938 493.143 142.538 493.799L142.378 492.871H140.586V500.775H142.538ZM158.278 500.983C160.342 500.983 161.782 499.943 162.118 498.215H160.31C160.086 498.967 159.382 499.383 158.31 499.383C157.014 499.383 156.278 498.679 156.134 497.287L162.086 497.271V496.679C162.086 494.215 160.582 492.631 158.214 492.631C155.894 492.631 154.278 494.343 154.278 496.823C154.278 499.271 155.926 500.983 158.278 500.983ZM158.23 494.231C159.398 494.231 160.15 494.951 160.15 496.039H156.182C156.374 494.855 157.078 494.231 158.23 494.231ZM165.601 500.775V496.519C165.601 495.239 166.337 494.407 167.537 494.407C168.545 494.407 169.201 495.047 169.201 496.375V500.775H171.153V495.911C171.153 493.863 170.129 492.631 168.145 492.631C167.073 492.631 166.113 493.095 165.617 493.895L165.457 492.871H163.649V500.775H165.601ZM175.759 500.775V494.503H177.295V492.871H175.759V490.407H173.807V492.871H172.287V494.503H173.807V500.775H175.759ZM180.813 500.983C182.045 500.983 183.117 500.423 183.453 499.607L183.597 500.775H185.309V495.975C185.309 493.783 183.997 492.631 181.869 492.631C179.725 492.631 178.317 493.751 178.317 495.463H179.981C179.981 494.631 180.621 494.151 181.773 494.151C182.765 494.151 183.405 494.583 183.405 495.655V495.831L181.037 496.007C179.165 496.151 178.109 497.063 178.109 498.519C178.109 500.007 179.133 500.983 180.813 500.983ZM181.453 499.511C180.573 499.511 180.093 499.159 180.093 498.439C180.093 497.799 180.557 497.399 181.773 497.287L183.421 497.159V497.575C183.421 498.791 182.653 499.511 181.453 499.511ZM189.805 500.775V494.503H191.341V492.871H189.805V490.407H187.853V492.871H186.333V494.503H187.853V500.775H189.805ZM193.531 491.287C194.171 491.287 194.699 490.759 194.699 490.103C194.699 489.447 194.171 488.935 193.531 488.935C192.859 488.935 192.331 489.447 192.331 490.103C192.331 490.759 192.859 491.287 193.531 491.287ZM192.555 500.775H194.507V492.871H192.555V500.775ZM196.06 496.807C196.06 499.271 197.836 500.967 200.284 500.967C202.732 500.967 204.508 499.271 204.508 496.807C204.508 494.343 202.732 492.647 200.284 492.647C197.836 492.647 196.06 494.343 196.06 496.807ZM198.012 496.807C198.012 495.367 198.94 494.391 200.284 494.391C201.628 494.391 202.556 495.367 202.556 496.807C202.556 498.247 201.628 499.223 200.284 499.223C198.94 499.223 198.012 498.247 198.012 496.807ZM208.007 500.775V496.519C208.007 495.239 208.743 494.407 209.943 494.407C210.951 494.407 211.607 495.047 211.607 496.375V500.775H213.559V495.911C213.559 493.863 212.535 492.631 210.551 492.631C209.479 492.631 208.519 493.095 208.023 493.895L207.863 492.871H206.055V500.775H208.007ZM219.405 492.343C219.405 494.135 220.445 495.271 222.429 495.703L224.285 496.119C225.245 496.327 225.645 496.791 225.645 497.575C225.645 498.551 224.781 499.143 223.421 499.143C222.109 499.143 221.309 498.551 221.293 497.559H219.245C219.293 499.655 220.925 500.983 223.421 500.983C225.997 500.983 227.693 499.575 227.693 497.399C227.693 495.655 226.717 494.631 224.717 494.199L222.877 493.799C221.901 493.575 221.453 493.111 221.453 492.279C221.453 491.303 222.269 490.695 223.533 490.695C224.685 490.695 225.405 491.287 225.453 492.295H227.501C227.437 490.183 225.933 488.871 223.565 488.871C221.101 488.871 219.405 490.295 219.405 492.343ZM234.618 492.871V497.015C234.618 498.519 234.026 499.239 232.794 499.239C231.706 499.239 231.114 498.631 231.114 497.127V492.871H229.162V497.815C229.162 499.751 230.234 500.983 232.058 500.983C233.114 500.983 234.138 500.471 234.618 499.719L234.762 500.775H236.57V492.871H234.618ZM238.586 504.439H240.538V499.719C241.034 500.519 242.058 500.983 243.242 500.983C245.594 500.983 246.938 499.191 246.938 496.727C246.938 494.247 245.466 492.631 243.242 492.631C242.042 492.631 241.002 493.159 240.522 494.071L240.394 492.871H238.586V504.439ZM240.554 496.823C240.554 495.399 241.434 494.407 242.778 494.407C244.154 494.407 244.97 495.415 244.97 496.823C244.97 498.231 244.154 499.223 242.778 499.223C241.434 499.223 240.554 498.247 240.554 496.823ZM248.492 504.439H250.444V499.719C250.94 500.519 251.964 500.983 253.148 500.983C255.5 500.983 256.844 499.191 256.844 496.727C256.844 494.247 255.372 492.631 253.148 492.631C251.948 492.631 250.908 493.159 250.428 494.071L250.3 492.871H248.492V504.439ZM250.46 496.823C250.46 495.399 251.34 494.407 252.684 494.407C254.06 494.407 254.876 495.415 254.876 496.823C254.876 498.231 254.06 499.223 252.684 499.223C251.34 499.223 250.46 498.247 250.46 496.823ZM257.935 496.807C257.935 499.271 259.711 500.967 262.159 500.967C264.607 500.967 266.383 499.271 266.383 496.807C266.383 494.343 264.607 492.647 262.159 492.647C259.711 492.647 257.935 494.343 257.935 496.807ZM259.887 496.807C259.887 495.367 260.815 494.391 262.159 494.391C263.503 494.391 264.431 495.367 264.431 496.807C264.431 498.247 263.503 499.223 262.159 499.223C260.815 499.223 259.887 498.247 259.887 496.807ZM272.89 492.839C272.57 492.759 272.298 492.727 272.026 492.727C270.97 492.727 270.218 493.255 269.882 494.039L269.77 492.887H267.93V500.775H269.882V496.935C269.882 495.399 270.762 494.647 272.17 494.647H272.89V492.839ZM277.212 500.775V494.503H278.748V492.871H277.212V490.407H275.26V492.871H273.74V494.503H275.26V500.775H277.212ZM33.568 560.335C34.88 558.559 35.344 557.535 35.344 556.127C35.344 553.727 33.456 551.871 30.928 551.871C28.432 551.871 26.576 553.615 26.576 556.111C26.576 558.479 28.208 560.175 30.624 560.175C30.912 560.175 31.216 560.127 31.504 560.047L28.704 563.775H31.04L33.568 560.335ZM33.248 556.111C33.248 557.519 32.32 558.495 30.928 558.495C29.584 558.495 28.64 557.519 28.64 556.111C28.64 554.687 29.584 553.695 30.928 553.695C32.304 553.695 33.248 554.687 33.248 556.111ZM43.4899 560.335C44.8019 558.559 45.2659 557.535 45.2659 556.127C45.2659 553.727 43.3779 551.871 40.8499 551.871C38.3539 551.871 36.4979 553.615 36.4979 556.111C36.4979 558.479 38.1299 560.175 40.5459 560.175C40.8339 560.175 41.1379 560.127 41.4259 560.047L38.6259 563.775H40.9619L43.4899 560.335ZM43.1699 556.111C43.1699 557.519 42.2419 558.495 40.8499 558.495C39.5059 558.495 38.5619 557.519 38.5619 556.111C38.5619 554.687 39.5059 553.695 40.8499 553.695C42.2259 553.695 43.1699 554.687 43.1699 556.111ZM47.5856 563.967C48.2896 563.967 48.8816 563.391 48.8816 562.703C48.8816 561.999 48.2896 561.423 47.5856 561.423C46.8816 561.423 46.2896 561.999 46.2896 562.703C46.2896 563.391 46.8816 563.967 47.5856 563.967ZM57.1149 560.335C58.4269 558.559 58.8909 557.535 58.8909 556.127C58.8909 553.727 57.0029 551.871 54.4749 551.871C51.9789 551.871 50.1229 553.615 50.1229 556.111C50.1229 558.479 51.7549 560.175 54.1709 560.175C54.4589 560.175 54.7629 560.127 55.0509 560.047L52.2509 563.775H54.5869L57.1149 560.335ZM56.7949 556.111C56.7949 557.519 55.8669 558.495 54.4749 558.495C53.1309 558.495 52.1869 557.519 52.1869 556.111C52.1869 554.687 53.1309 553.695 54.4749 553.695C55.8509 553.695 56.7949 554.687 56.7949 556.111ZM67.0368 560.335C68.3488 558.559 68.8128 557.535 68.8128 556.127C68.8128 553.727 66.9248 551.871 64.3968 551.871C61.9008 551.871 60.0448 553.615 60.0448 556.111C60.0448 558.479 61.6768 560.175 64.0928 560.175C64.3808 560.175 64.6848 560.127 64.9728 560.047L62.1728 563.775H64.5088L67.0368 560.335ZM66.7168 556.111C66.7168 557.519 65.7888 558.495 64.3968 558.495C63.0528 558.495 62.1088 557.519 62.1088 556.111C62.1088 554.687 63.0528 553.695 64.3968 553.695C65.7728 553.695 66.7168 554.687 66.7168 556.111ZM76.0466 554.927C76.0466 553.135 74.7666 551.855 72.9906 551.855C71.2146 551.855 69.9346 553.135 69.9346 554.927C69.9346 556.735 71.2146 557.999 72.9906 557.999C74.7666 557.999 76.0466 556.735 76.0466 554.927ZM82.4626 552.095H80.5106L71.6306 563.775H73.5826L82.4626 552.095ZM74.4946 554.927C74.4946 555.855 73.8866 556.495 72.9906 556.495C72.1106 556.495 71.5026 555.855 71.5026 554.927C71.5026 553.999 72.0946 553.359 72.9906 553.359C73.8866 553.359 74.4946 553.999 74.4946 554.927ZM84.1746 560.911C84.1746 559.119 82.9106 557.839 81.1346 557.839C79.3426 557.839 78.0786 559.119 78.0786 560.911C78.0786 562.703 79.3426 563.983 81.1346 563.983C82.9106 563.983 84.1746 562.703 84.1746 560.911ZM82.6226 560.911C82.6226 561.839 82.0146 562.479 81.1346 562.479C80.2386 562.479 79.6306 561.839 79.6306 560.911C79.6306 559.983 80.2386 559.343 81.1346 559.343C82.0146 559.343 82.6226 559.983 82.6226 560.911ZM89.6069 559.647C89.6069 561.935 91.0789 563.615 93.3189 563.615C94.4549 563.615 95.4309 563.151 95.9269 562.415V563.727C95.9269 565.039 95.0629 565.887 93.7189 565.887C92.5189 565.887 91.7349 565.279 91.6069 564.255H89.6549C89.8949 566.367 91.4469 567.663 93.7189 567.663C96.2789 567.663 97.8629 566.015 97.8629 563.375V555.871H96.0549L95.9429 556.959C95.4789 556.111 94.5509 555.615 93.3669 555.615C91.1109 555.615 89.6069 557.343 89.6069 559.647ZM91.5749 559.599C91.5749 558.303 92.4069 557.327 93.7029 557.327C95.0629 557.327 95.8789 558.255 95.8789 559.599C95.8789 560.975 95.0469 561.919 93.7029 561.919C92.4229 561.919 91.5749 560.927 91.5749 559.599ZM105.243 555.871V560.015C105.243 561.519 104.651 562.239 103.419 562.239C102.331 562.239 101.739 561.631 101.739 560.127V555.871H99.787V560.815C99.787 562.751 100.859 563.983 102.683 563.983C103.739 563.983 104.763 563.471 105.243 562.719L105.387 563.775H107.195V555.871H105.243ZM111.563 563.983C112.795 563.983 113.867 563.423 114.203 562.607L114.347 563.775H116.059V558.975C116.059 556.783 114.747 555.631 112.619 555.631C110.475 555.631 109.067 556.751 109.067 558.463H110.731C110.731 557.631 111.371 557.151 112.523 557.151C113.515 557.151 114.155 557.583 114.155 558.655V558.831L111.787 559.007C109.915 559.151 108.859 560.063 108.859 561.519C108.859 563.007 109.883 563.983 111.563 563.983ZM112.203 562.511C111.323 562.511 110.843 562.159 110.843 561.439C110.843 560.799 111.307 560.399 112.523 560.287L114.171 560.159V560.575C114.171 561.791 113.403 562.511 112.203 562.511ZM122.937 555.839C122.617 555.759 122.345 555.727 122.073 555.727C121.017 555.727 120.265 556.255 119.929 557.039L119.817 555.887H117.977V563.775H119.929V559.935C119.929 558.399 120.809 557.647 122.217 557.647H122.937V555.839ZM126.298 563.983C127.53 563.983 128.602 563.423 128.938 562.607L129.082 563.775H130.794V558.975C130.794 556.783 129.482 555.631 127.354 555.631C125.21 555.631 123.802 556.751 123.802 558.463H125.466C125.466 557.631 126.106 557.151 127.258 557.151C128.25 557.151 128.89 557.583 128.89 558.655V558.831L126.522 559.007C124.65 559.151 123.594 560.063 123.594 561.519C123.594 563.007 124.618 563.983 126.298 563.983ZM126.938 562.511C126.058 562.511 125.578 562.159 125.578 561.439C125.578 560.799 126.042 560.399 127.258 560.287L128.906 560.159V560.575C128.906 561.791 128.138 562.511 126.938 562.511ZM134.663 563.775V559.519C134.663 558.239 135.399 557.407 136.599 557.407C137.607 557.407 138.263 558.047 138.263 559.375V563.775H140.215V558.911C140.215 556.863 139.191 555.631 137.207 555.631C136.135 555.631 135.175 556.095 134.679 556.895L134.519 555.871H132.711V563.775H134.663ZM144.821 563.775V557.503H146.357V555.871H144.821V553.407H142.869V555.871H141.349V557.503H142.869V563.775H144.821ZM151.028 563.983C153.092 563.983 154.532 562.943 154.868 561.215H153.06C152.836 561.967 152.132 562.383 151.06 562.383C149.764 562.383 149.028 561.679 148.884 560.287L154.836 560.271V559.679C154.836 557.215 153.332 555.631 150.964 555.631C148.644 555.631 147.028 557.343 147.028 559.823C147.028 562.271 148.676 563.983 151.028 563.983ZM150.98 557.231C152.148 557.231 152.9 557.951 152.9 559.039H148.932C149.124 557.855 149.828 557.231 150.98 557.231ZM159.935 563.983C161.999 563.983 163.439 562.943 163.775 561.215H161.967C161.743 561.967 161.039 562.383 159.967 562.383C158.671 562.383 157.935 561.679 157.791 560.287L163.743 560.271V559.679C163.743 557.215 162.239 555.631 159.871 555.631C157.551 555.631 155.935 557.343 155.935 559.823C155.935 562.271 157.583 563.983 159.935 563.983ZM159.887 557.231C161.055 557.231 161.807 557.951 161.807 559.039H157.839C158.031 557.855 158.735 557.231 159.887 557.231ZM168.553 563.983C169.753 563.983 170.777 563.455 171.257 562.543L171.385 563.775H173.177V551.871H171.241V556.879C170.745 556.095 169.769 555.631 168.665 555.631C166.281 555.631 164.841 557.391 164.841 559.855C164.841 562.303 166.265 563.983 168.553 563.983ZM168.985 562.191C167.625 562.191 166.793 561.199 166.793 559.791C166.793 558.383 167.625 557.375 168.985 557.375C170.345 557.375 171.225 558.367 171.225 559.791C171.225 561.215 170.345 562.191 168.985 562.191ZM184.884 555.871V560.015C184.884 561.519 184.292 562.239 183.06 562.239C181.972 562.239 181.38 561.631 181.38 560.127V555.871H179.428V560.815C179.428 562.751 180.5 563.983 182.324 563.983C183.38 563.983 184.404 563.471 184.884 562.719L185.028 563.775H186.836V555.871H184.884ZM188.852 567.439H190.804V562.719C191.3 563.519 192.324 563.983 193.508 563.983C195.86 563.983 197.204 562.191 197.204 559.727C197.204 557.247 195.732 555.631 193.508 555.631C192.308 555.631 191.268 556.159 190.788 557.071L190.66 555.871H188.852V567.439ZM190.82 559.823C190.82 558.399 191.7 557.407 193.044 557.407C194.42 557.407 195.236 558.415 195.236 559.823C195.236 561.231 194.42 562.223 193.044 562.223C191.7 562.223 190.82 561.247 190.82 559.823ZM201.368 563.775V557.503H202.904V555.871H201.368V553.407H199.416V555.871H197.896V557.503H199.416V563.775H201.368ZM205.093 554.287C205.733 554.287 206.261 553.759 206.261 553.103C206.261 552.447 205.733 551.935 205.093 551.935C204.421 551.935 203.893 552.447 203.893 553.103C203.893 553.759 204.421 554.287 205.093 554.287ZM204.117 563.775H206.069V555.871H204.117V563.775ZM210.038 563.775V559.295C210.038 558.015 210.79 557.407 211.718 557.407C212.646 557.407 213.238 557.999 213.238 559.103V563.775H215.19V559.295C215.19 557.999 215.91 557.391 216.854 557.391C217.782 557.391 218.39 557.983 218.39 559.119V563.775H220.326V558.607C220.326 556.783 219.27 555.631 217.35 555.631C216.15 555.631 215.222 556.223 214.822 557.135C214.406 556.223 213.574 555.631 212.374 555.631C211.238 555.631 210.438 556.143 210.038 556.799L209.878 555.871H208.086V563.775H210.038ZM225.778 563.983C227.842 563.983 229.282 562.943 229.618 561.215H227.81C227.586 561.967 226.882 562.383 225.81 562.383C224.514 562.383 223.778 561.679 223.634 560.287L229.586 560.271V559.679C229.586 557.215 228.082 555.631 225.714 555.631C223.394 555.631 221.778 557.343 221.778 559.823C221.778 562.271 223.426 563.983 225.778 563.983ZM225.73 557.231C226.898 557.231 227.65 557.951 227.65 559.039H223.682C223.874 557.855 224.578 557.231 225.73 557.231ZM235.077 555.343C235.077 557.135 236.117 558.271 238.101 558.703L239.957 559.119C240.917 559.327 241.317 559.791 241.317 560.575C241.317 561.551 240.453 562.143 239.093 562.143C237.781 562.143 236.981 561.551 236.965 560.559H234.917C234.965 562.655 236.597 563.983 239.093 563.983C241.669 563.983 243.365 562.575 243.365 560.399C243.365 558.655 242.389 557.631 240.389 557.199L238.549 556.799C237.573 556.575 237.125 556.111 237.125 555.279C237.125 554.303 237.941 553.695 239.205 553.695C240.357 553.695 241.077 554.287 241.125 555.295H243.173C243.109 553.183 241.605 551.871 239.237 551.871C236.773 551.871 235.077 553.295 235.077 555.343ZM247.266 552.079H245.218V563.775H252.162V561.887H247.266V552.079ZM255.148 563.775L256.092 561.071H260.46L261.404 563.775H263.564L259.34 552.079H257.244L253.02 563.775H255.148ZM258.028 555.567C258.14 555.247 258.236 554.895 258.284 554.671C258.316 554.911 258.428 555.263 258.524 555.567L259.868 559.343H256.7L258.028 555.567ZM31.92 622.743C34.256 622.743 35.792 621.159 35.792 618.903C35.792 616.615 34.272 615.079 31.92 615.079H27.296V626.775H29.344V622.743H31.92ZM31.52 616.903C32.88 616.903 33.648 617.607 33.648 618.887C33.648 620.167 32.896 620.919 31.488 620.919H29.344V616.903H31.52ZM42.1868 618.839C41.8668 618.759 41.5948 618.727 41.3228 618.727C40.2668 618.727 39.5148 619.255 39.1788 620.039L39.0668 618.887H37.2268V626.775H39.1788V622.935C39.1788 621.399 40.0588 620.647 41.4668 620.647H42.1868V618.839ZM46.7784 626.983C48.8424 626.983 50.2824 625.943 50.6184 624.215H48.8104C48.5864 624.967 47.8824 625.383 46.8104 625.383C45.5144 625.383 44.7784 624.679 44.6344 623.287L50.5864 623.271V622.679C50.5864 620.215 49.0824 618.631 46.7144 618.631C44.3944 618.631 42.7784 620.343 42.7784 622.823C42.7784 625.271 44.4264 626.983 46.7784 626.983ZM46.7304 620.231C47.8984 620.231 48.6504 620.951 48.6504 622.039H44.6824C44.8744 620.855 45.5784 620.231 46.7304 620.231ZM54.1006 626.775V622.295C54.1006 621.015 54.8526 620.407 55.7806 620.407C56.7086 620.407 57.3006 620.999 57.3006 622.103V626.775H59.2526V622.295C59.2526 620.999 59.9726 620.391 60.9166 620.391C61.8446 620.391 62.4526 620.983 62.4526 622.119V626.775H64.3886V621.607C64.3886 619.783 63.3326 618.631 61.4126 618.631C60.2126 618.631 59.2846 619.223 58.8846 620.135C58.4686 619.223 57.6366 618.631 56.4366 618.631C55.3006 618.631 54.5006 619.143 54.1006 619.799L53.9406 618.871H52.1486V626.775H54.1006ZM67.2809 617.287C67.9209 617.287 68.4489 616.759 68.4489 616.103C68.4489 615.447 67.9209 614.935 67.2809 614.935C66.6089 614.935 66.0809 615.447 66.0809 616.103C66.0809 616.759 66.6089 617.287 67.2809 617.287ZM66.3049 626.775H68.2569V618.871H66.3049V626.775ZM75.1493 618.871V623.015C75.1493 624.519 74.5573 625.239 73.3253 625.239C72.2373 625.239 71.6453 624.631 71.6453 623.127V618.871H69.6933V623.815C69.6933 625.751 70.7653 626.983 72.5893 626.983C73.6453 626.983 74.6693 626.471 75.1493 625.719L75.2933 626.775H77.1013V618.871H75.1493ZM81.0694 626.775V622.295C81.0694 621.015 81.8214 620.407 82.7494 620.407C83.6774 620.407 84.2694 620.999 84.2694 622.103V626.775H86.2214V622.295C86.2214 620.999 86.9414 620.391 87.8854 620.391C88.8134 620.391 89.4214 620.983 89.4214 622.119V626.775H91.3574V621.607C91.3574 619.783 90.3014 618.631 88.3814 618.631C87.1814 618.631 86.2534 619.223 85.8534 620.135C85.4374 619.223 84.6054 618.631 83.4054 618.631C82.2694 618.631 81.4694 619.143 81.0694 619.799L80.9094 618.871H79.1174V626.775H81.0694ZM99.9221 615.079H97.8741V626.775H99.9221V615.079ZM104.179 626.775V622.295C104.179 621.015 104.931 620.407 105.859 620.407C106.787 620.407 107.379 620.999 107.379 622.103V626.775H109.331V622.295C109.331 620.999 110.051 620.391 110.995 620.391C111.923 620.391 112.531 620.983 112.531 622.119V626.775H114.467V621.607C114.467 619.783 113.411 618.631 111.491 618.631C110.291 618.631 109.363 619.223 108.963 620.135C108.547 619.223 107.715 618.631 106.515 618.631C105.379 618.631 104.579 619.143 104.179 619.799L104.019 618.871H102.227V626.775H104.179ZM116.383 630.439H118.335V625.719C118.831 626.519 119.855 626.983 121.039 626.983C123.391 626.983 124.735 625.191 124.735 622.727C124.735 620.247 123.263 618.631 121.039 618.631C119.839 618.631 118.799 619.159 118.319 620.071L118.191 618.871H116.383V630.439ZM118.351 622.823C118.351 621.399 119.231 620.407 120.575 620.407C121.951 620.407 122.767 621.415 122.767 622.823C122.767 624.231 121.951 625.223 120.575 625.223C119.231 625.223 118.351 624.247 118.351 622.823ZM128.257 626.775V614.871H126.321V626.775H128.257ZM133.841 626.983C135.905 626.983 137.345 625.943 137.681 624.215H135.873C135.649 624.967 134.945 625.383 133.873 625.383C132.577 625.383 131.841 624.679 131.697 623.287L137.649 623.271V622.679C137.649 620.215 136.145 618.631 133.777 618.631C131.457 618.631 129.841 620.343 129.841 622.823C129.841 625.271 131.489 626.983 133.841 626.983ZM133.793 620.231C134.961 620.231 135.713 620.951 135.713 622.039H131.745C131.937 620.855 132.641 620.231 133.793 620.231ZM141.163 626.775V622.295C141.163 621.015 141.915 620.407 142.843 620.407C143.771 620.407 144.363 620.999 144.363 622.103V626.775H146.315V622.295C146.315 620.999 147.035 620.391 147.979 620.391C148.907 620.391 149.515 620.983 149.515 622.119V626.775H151.451V621.607C151.451 619.783 150.395 618.631 148.475 618.631C147.275 618.631 146.347 619.223 145.947 620.135C145.531 619.223 144.699 618.631 143.499 618.631C142.363 618.631 141.563 619.143 141.163 619.799L141.003 618.871H139.211V626.775H141.163ZM156.903 626.983C158.967 626.983 160.407 625.943 160.743 624.215H158.935C158.711 624.967 158.007 625.383 156.935 625.383C155.639 625.383 154.903 624.679 154.759 623.287L160.711 623.271V622.679C160.711 620.215 159.207 618.631 156.839 618.631C154.519 618.631 152.903 620.343 152.903 622.823C152.903 625.271 154.551 626.983 156.903 626.983ZM156.855 620.231C158.023 620.231 158.775 620.951 158.775 622.039H154.807C154.999 620.855 155.703 620.231 156.855 620.231ZM164.226 626.775V622.519C164.226 621.239 164.962 620.407 166.162 620.407C167.17 620.407 167.826 621.047 167.826 622.375V626.775H169.778V621.911C169.778 619.863 168.754 618.631 166.77 618.631C165.698 618.631 164.738 619.095 164.242 619.895L164.082 618.871H162.274V626.775H164.226ZM174.384 626.775V620.503H175.92V618.871H174.384V616.407H172.432V618.871H170.912V620.503H172.432V626.775H174.384ZM179.438 626.983C180.67 626.983 181.742 626.423 182.078 625.607L182.222 626.775H183.934V621.975C183.934 619.783 182.622 618.631 180.494 618.631C178.35 618.631 176.942 619.751 176.942 621.463H178.606C178.606 620.631 179.246 620.151 180.398 620.151C181.39 620.151 182.03 620.583 182.03 621.655V621.831L179.662 622.007C177.79 622.151 176.734 623.063 176.734 624.519C176.734 626.007 177.758 626.983 179.438 626.983ZM180.078 625.511C179.198 625.511 178.718 625.159 178.718 624.439C178.718 623.799 179.182 623.399 180.398 623.287L182.046 623.159V623.575C182.046 624.791 181.278 625.511 180.078 625.511ZM188.43 626.775V620.503H189.966V618.871H188.43V616.407H186.478V618.871H184.958V620.503H186.478V626.775H188.43ZM192.156 617.287C192.796 617.287 193.324 616.759 193.324 616.103C193.324 615.447 192.796 614.935 192.156 614.935C191.484 614.935 190.956 615.447 190.956 616.103C190.956 616.759 191.484 617.287 192.156 617.287ZM191.18 626.775H193.132V618.871H191.18V626.775ZM194.685 622.807C194.685 625.271 196.461 626.967 198.909 626.967C201.357 626.967 203.133 625.271 203.133 622.807C203.133 620.343 201.357 618.647 198.909 618.647C196.461 618.647 194.685 620.343 194.685 622.807ZM196.637 622.807C196.637 621.367 197.565 620.391 198.909 620.391C200.253 620.391 201.181 621.367 201.181 622.807C201.181 624.247 200.253 625.223 198.909 625.223C197.565 625.223 196.637 624.247 196.637 622.807ZM206.632 626.775V622.519C206.632 621.239 207.368 620.407 208.568 620.407C209.576 620.407 210.232 621.047 210.232 622.375V626.775H212.184V621.911C212.184 619.863 211.16 618.631 209.176 618.631C208.104 618.631 207.144 619.095 206.648 619.895L206.488 618.871H204.68V626.775H206.632ZM218.03 618.343C218.03 620.135 219.07 621.271 221.054 621.703L222.91 622.119C223.87 622.327 224.27 622.791 224.27 623.575C224.27 624.551 223.406 625.143 222.046 625.143C220.734 625.143 219.934 624.551 219.918 623.559H217.87C217.918 625.655 219.55 626.983 222.046 626.983C224.622 626.983 226.318 625.575 226.318 623.399C226.318 621.655 225.342 620.631 223.342 620.199L221.502 619.799C220.526 619.575 220.078 619.111 220.078 618.279C220.078 617.303 220.894 616.695 222.158 616.695C223.31 616.695 224.03 617.287 224.078 618.295H226.126C226.062 616.183 224.558 614.871 222.19 614.871C219.726 614.871 218.03 616.295 218.03 618.343ZM233.243 618.871V623.015C233.243 624.519 232.651 625.239 231.419 625.239C230.331 625.239 229.739 624.631 229.739 623.127V618.871H227.787V623.815C227.787 625.751 228.859 626.983 230.683 626.983C231.739 626.983 232.763 626.471 233.243 625.719L233.387 626.775H235.195V618.871H233.243ZM237.211 630.439H239.163V625.719C239.659 626.519 240.683 626.983 241.867 626.983C244.219 626.983 245.563 625.191 245.563 622.727C245.563 620.247 244.091 618.631 241.867 618.631C240.667 618.631 239.627 619.159 239.147 620.071L239.019 618.871H237.211V630.439ZM239.179 622.823C239.179 621.399 240.059 620.407 241.403 620.407C242.779 620.407 243.595 621.415 243.595 622.823C243.595 624.231 242.779 625.223 241.403 625.223C240.059 625.223 239.179 624.247 239.179 622.823ZM247.117 630.439H249.069V625.719C249.565 626.519 250.589 626.983 251.773 626.983C254.125 626.983 255.469 625.191 255.469 622.727C255.469 620.247 253.997 618.631 251.773 618.631C250.573 618.631 249.533 619.159 249.053 620.071L248.925 618.871H247.117V630.439ZM249.085 622.823C249.085 621.399 249.965 620.407 251.309 620.407C252.685 620.407 253.501 621.415 253.501 622.823C253.501 624.231 252.685 625.223 251.309 625.223C249.965 625.223 249.085 624.247 249.085 622.823ZM256.56 622.807C256.56 625.271 258.336 626.967 260.784 626.967C263.232 626.967 265.008 625.271 265.008 622.807C265.008 620.343 263.232 618.647 260.784 618.647C258.336 618.647 256.56 620.343 256.56 622.807ZM258.512 622.807C258.512 621.367 259.44 620.391 260.784 620.391C262.128 620.391 263.056 621.367 263.056 622.807C263.056 624.247 262.128 625.223 260.784 625.223C259.44 625.223 258.512 624.247 258.512 622.807ZM271.515 618.839C271.195 618.759 270.923 618.727 270.651 618.727C269.595 618.727 268.843 619.255 268.507 620.039L268.395 618.887H266.555V626.775H268.507V622.935C268.507 621.399 269.387 620.647 270.795 620.647H271.515V618.839ZM275.837 626.775V620.503H277.373V618.871H275.837V616.407H273.885V618.871H272.365V620.503H273.885V626.775H275.837ZM31.504 690.775C34.896 690.775 37.232 688.391 37.232 684.951C37.232 681.463 34.848 679.079 31.392 679.079H27.296V690.775H31.504ZM31.2 680.967C33.616 680.967 35.072 682.471 35.072 684.951C35.072 687.383 33.648 688.887 31.312 688.887H29.344V680.967H31.2ZM42.3878 690.983C44.4518 690.983 45.8918 689.943 46.2278 688.215H44.4198C44.1958 688.967 43.4918 689.383 42.4198 689.383C41.1238 689.383 40.3878 688.679 40.2438 687.287L46.1958 687.271V686.679C46.1958 684.215 44.6918 682.631 42.3238 682.631C40.0038 682.631 38.3878 684.343 38.3878 686.823C38.3878 689.271 40.0358 690.983 42.3878 690.983ZM42.3398 684.231C43.5078 684.231 44.2598 684.951 44.2598 686.039H40.2918C40.4838 684.855 41.1878 684.231 42.3398 684.231ZM51.006 690.983C52.206 690.983 53.23 690.455 53.71 689.543L53.838 690.775H55.63V678.871H53.694V683.879C53.198 683.095 52.222 682.631 51.118 682.631C48.734 682.631 47.294 684.391 47.294 686.855C47.294 689.303 48.718 690.983 51.006 690.983ZM51.438 689.191C50.078 689.191 49.246 688.199 49.246 686.791C49.246 685.383 50.078 684.375 51.438 684.375C52.798 684.375 53.678 685.367 53.678 686.791C53.678 688.215 52.798 689.191 51.438 689.191ZM58.6403 681.287C59.2803 681.287 59.8083 680.759 59.8083 680.103C59.8083 679.447 59.2803 678.935 58.6403 678.935C57.9683 678.935 57.4403 679.447 57.4403 680.103C57.4403 680.759 57.9683 681.287 58.6403 681.287ZM57.6643 690.775H59.6163V682.871H57.6643V690.775ZM61.169 686.807C61.169 689.319 62.737 690.983 65.137 690.983C67.201 690.983 68.737 689.719 68.977 687.879H67.009C66.801 688.743 66.113 689.223 65.137 689.223C63.889 689.223 63.121 688.295 63.121 686.807C63.121 685.319 63.953 684.375 65.201 684.375C66.129 684.375 66.785 684.839 67.009 685.735H68.961C68.753 683.831 67.281 682.631 65.121 682.631C62.785 682.631 61.169 684.359 61.169 686.807ZM72.7819 690.983C74.0139 690.983 75.0859 690.423 75.4219 689.607L75.5659 690.775H77.2779V685.975C77.2779 683.783 75.9659 682.631 73.8379 682.631C71.6939 682.631 70.2859 683.751 70.2859 685.463H71.9499C71.9499 684.631 72.5899 684.151 73.7419 684.151C74.7339 684.151 75.3739 684.583 75.3739 685.655V685.831L73.0059 686.007C71.1339 686.151 70.0779 687.063 70.0779 688.519C70.0779 690.007 71.1019 690.983 72.7819 690.983ZM73.4219 689.511C72.5419 689.511 72.0619 689.159 72.0619 688.439C72.0619 687.799 72.5259 687.399 73.7419 687.287L75.3899 687.159V687.575C75.3899 688.791 74.6219 689.511 73.4219 689.511ZM81.7741 690.775V684.503H83.3101V682.871H81.7741V680.407H79.8221V682.871H78.3021V684.503H79.8221V690.775H81.7741ZM87.9815 690.983C90.0455 690.983 91.4855 689.943 91.8215 688.215H90.0135C89.7895 688.967 89.0855 689.383 88.0135 689.383C86.7175 689.383 85.9815 688.679 85.8375 687.287L91.7895 687.271V686.679C91.7895 684.215 90.2855 682.631 87.9175 682.631C85.5975 682.631 83.9815 684.343 83.9815 686.823C83.9815 689.271 85.6295 690.983 87.9815 690.983ZM87.9335 684.231C89.1015 684.231 89.8535 684.951 89.8535 686.039H85.8855C86.0775 684.855 86.7815 684.231 87.9335 684.231ZM96.5998 690.983C97.7998 690.983 98.8238 690.455 99.3038 689.543L99.4318 690.775H101.224V678.871H99.2878V683.879C98.7918 683.095 97.8158 682.631 96.7118 682.631C94.3278 682.631 92.8878 684.391 92.8878 686.855C92.8878 689.303 94.3118 690.983 96.5998 690.983ZM97.0318 689.191C95.6718 689.191 94.8398 688.199 94.8398 686.791C94.8398 685.383 95.6718 684.375 97.0318 684.375C98.3918 684.375 99.2718 685.367 99.2718 686.791C99.2718 688.215 98.3918 689.191 97.0318 689.191ZM108.867 690.775L109.811 688.071H114.179L115.123 690.775H117.283L113.059 679.079H110.963L106.739 690.775H108.867ZM111.747 682.567C111.859 682.247 111.955 681.895 112.003 681.671C112.035 681.911 112.147 682.263 112.243 682.567L113.587 686.343H110.419L111.747 682.567ZM117.638 686.807C117.638 689.319 119.206 690.983 121.606 690.983C123.67 690.983 125.206 689.719 125.446 687.879H123.478C123.27 688.743 122.582 689.223 121.606 689.223C120.358 689.223 119.59 688.295 119.59 686.807C119.59 685.319 120.422 684.375 121.67 684.375C122.598 684.375 123.254 684.839 123.478 685.735H125.43C125.222 683.831 123.75 682.631 121.59 682.631C119.254 682.631 117.638 684.359 117.638 686.807ZM126.435 686.807C126.435 689.319 128.003 690.983 130.403 690.983C132.467 690.983 134.003 689.719 134.243 687.879H132.275C132.067 688.743 131.379 689.223 130.403 689.223C129.155 689.223 128.387 688.295 128.387 686.807C128.387 685.319 129.219 684.375 130.467 684.375C131.395 684.375 132.051 684.839 132.275 685.735H134.227C134.019 683.831 132.547 682.631 130.387 682.631C128.051 682.631 126.435 684.359 126.435 686.807ZM135.232 686.807C135.232 689.271 137.008 690.967 139.456 690.967C141.904 690.967 143.68 689.271 143.68 686.807C143.68 684.343 141.904 682.647 139.456 682.647C137.008 682.647 135.232 684.343 135.232 686.807ZM137.184 686.807C137.184 685.367 138.112 684.391 139.456 684.391C140.8 684.391 141.728 685.367 141.728 686.807C141.728 688.247 140.8 689.223 139.456 689.223C138.112 689.223 137.184 688.247 137.184 686.807ZM150.399 682.871V687.015C150.399 688.519 149.807 689.239 148.575 689.239C147.487 689.239 146.895 688.631 146.895 687.127V682.871H144.943V687.815C144.943 689.751 146.015 690.983 147.839 690.983C148.895 690.983 149.919 690.471 150.399 689.719L150.543 690.775H152.351V682.871H150.399ZM156.319 690.775V686.519C156.319 685.239 157.055 684.407 158.255 684.407C159.263 684.407 159.919 685.047 159.919 686.375V690.775H161.871V685.911C161.871 683.863 160.847 682.631 158.863 682.631C157.791 682.631 156.831 683.095 156.335 683.895L156.175 682.871H154.367V690.775H156.319ZM166.477 690.775V684.503H168.013V682.871H166.477V680.407H164.525V682.871H163.005V684.503H164.525V690.775H166.477ZM175.811 690.775V686.583C175.811 685.127 175.795 684.023 175.683 683.319L178.643 690.775H180.531L183.507 683.303C183.395 684.135 183.395 684.823 183.395 687.175V690.775H185.379V679.079H183.363L179.587 688.391L175.811 679.079H173.827V690.775H175.811ZM190.032 690.983C191.264 690.983 192.336 690.423 192.672 689.607L192.816 690.775H194.528V685.975C194.528 683.783 193.216 682.631 191.088 682.631C188.944 682.631 187.536 683.751 187.536 685.463H189.2C189.2 684.631 189.84 684.151 190.992 684.151C191.984 684.151 192.624 684.583 192.624 685.655V685.831L190.256 686.007C188.384 686.151 187.328 687.063 187.328 688.519C187.328 690.007 188.352 690.983 190.032 690.983ZM190.672 689.511C189.792 689.511 189.312 689.159 189.312 688.439C189.312 687.799 189.776 687.399 190.992 687.287L192.64 687.159V687.575C192.64 688.791 191.872 689.511 190.672 689.511ZM198.398 690.775V686.519C198.398 685.239 199.134 684.407 200.334 684.407C201.342 684.407 201.998 685.047 201.998 686.375V690.775H203.95V685.911C203.95 683.863 202.926 682.631 200.942 682.631C199.87 682.631 198.91 683.095 198.414 683.895L198.254 682.871H196.446V690.775H198.398ZM208.219 690.983C209.451 690.983 210.523 690.423 210.859 689.607L211.003 690.775H212.715V685.975C212.715 683.783 211.403 682.631 209.275 682.631C207.131 682.631 205.723 683.751 205.723 685.463H207.387C207.387 684.631 208.027 684.151 209.179 684.151C210.171 684.151 210.811 684.583 210.811 685.655V685.831L208.443 686.007C206.571 686.151 205.515 687.063 205.515 688.519C205.515 690.007 206.539 690.983 208.219 690.983ZM208.859 689.511C207.979 689.511 207.499 689.159 207.499 688.439C207.499 687.799 207.963 687.399 209.179 687.287L210.827 687.159V687.575C210.827 688.791 210.059 689.511 208.859 689.511ZM214.185 686.647C214.185 688.935 215.657 690.615 217.897 690.615C219.033 690.615 220.009 690.151 220.505 689.415V690.727C220.505 692.039 219.641 692.887 218.297 692.887C217.097 692.887 216.313 692.279 216.185 691.255H214.233C214.473 693.367 216.025 694.663 218.297 694.663C220.857 694.663 222.441 693.015 222.441 690.375V682.871H220.633L220.521 683.959C220.057 683.111 219.129 682.615 217.945 682.615C215.689 682.615 214.185 684.343 214.185 686.647ZM216.153 686.599C216.153 685.303 216.985 684.327 218.281 684.327C219.641 684.327 220.457 685.255 220.457 686.599C220.457 687.975 219.625 688.919 218.281 688.919C217.001 688.919 216.153 687.927 216.153 686.599ZM227.997 690.983C230.061 690.983 231.501 689.943 231.837 688.215H230.029C229.805 688.967 229.101 689.383 228.029 689.383C226.733 689.383 225.997 688.679 225.853 687.287L231.805 687.271V686.679C231.805 684.215 230.301 682.631 227.933 682.631C225.613 682.631 223.997 684.343 223.997 686.823C223.997 689.271 225.645 690.983 227.997 690.983ZM227.949 684.231C229.117 684.231 229.869 684.951 229.869 686.039H225.901C226.093 684.855 226.797 684.231 227.949 684.231ZM238.327 682.839C238.007 682.759 237.735 682.727 237.463 682.727C236.407 682.727 235.655 683.255 235.319 684.039L235.207 682.887H233.367V690.775H235.319V686.935C235.319 685.399 236.199 684.647 237.607 684.647H238.327V682.839ZM31.92 749.743C34.256 749.743 35.792 748.159 35.792 745.903C35.792 743.615 34.272 742.079 31.92 742.079H27.296V753.775H29.344V749.743H31.92ZM31.52 743.903C32.88 743.903 33.648 744.607 33.648 745.887C33.648 747.167 32.896 747.919 31.488 747.919H29.344V743.903H31.52ZM42.1868 745.839C41.8668 745.759 41.5948 745.727 41.3228 745.727C40.2668 745.727 39.5148 746.255 39.1788 747.039L39.0668 745.887H37.2268V753.775H39.1788V749.935C39.1788 748.399 40.0588 747.647 41.4668 747.647H42.1868V745.839ZM44.484 744.287C45.124 744.287 45.652 743.759 45.652 743.103C45.652 742.447 45.124 741.935 44.484 741.935C43.812 741.935 43.284 742.447 43.284 743.103C43.284 743.759 43.812 744.287 44.484 744.287ZM43.508 753.775H45.46V745.871H43.508V753.775ZM47.0128 749.807C47.0128 752.271 48.7888 753.967 51.2368 753.967C53.6848 753.967 55.4608 752.271 55.4608 749.807C55.4608 747.343 53.6848 745.647 51.2368 745.647C48.7888 745.647 47.0128 747.343 47.0128 749.807ZM48.9648 749.807C48.9648 748.367 49.8928 747.391 51.2368 747.391C52.5808 747.391 53.5088 748.367 53.5088 749.807C53.5088 751.247 52.5808 752.223 51.2368 752.223C49.8928 752.223 48.9648 751.247 48.9648 749.807ZM61.968 745.839C61.648 745.759 61.376 745.727 61.104 745.727C60.048 745.727 59.296 746.255 58.96 747.039L58.848 745.887H57.008V753.775H58.96V749.935C58.96 748.399 59.84 747.647 61.248 747.647H61.968V745.839ZM64.2653 744.287C64.9053 744.287 65.4333 743.759 65.4333 743.103C65.4333 742.447 64.9053 741.935 64.2653 741.935C63.5933 741.935 63.0653 742.447 63.0653 743.103C63.0653 743.759 63.5933 744.287 64.2653 744.287ZM63.2893 753.775H65.2413V745.871H63.2893V753.775ZM69.946 753.775V747.503H71.482V745.871H69.946V743.407H67.994V745.871H66.474V747.503H67.994V753.775H69.946ZM72.0075 757.439C72.4395 757.551 72.9195 757.615 73.4635 757.615C74.7595 757.615 75.5915 757.007 76.1835 755.535L80.0555 745.871H78.0395L75.8955 751.631L73.8635 745.871H71.7995L74.9835 754.111L74.7595 754.703C74.4235 755.631 73.9435 755.807 73.1755 755.807H72.0075V757.439ZM85.0928 745.343C85.0928 747.135 86.1328 748.271 88.1168 748.703L89.9728 749.119C90.9328 749.327 91.3328 749.791 91.3328 750.575C91.3328 751.551 90.4688 752.143 89.1088 752.143C87.7968 752.143 86.9968 751.551 86.9808 750.559H84.9328C84.9808 752.655 86.6128 753.983 89.1088 753.983C91.6848 753.983 93.3808 752.575 93.3808 750.399C93.3808 748.655 92.4048 747.631 90.4048 747.199L88.5648 746.799C87.5888 746.575 87.1408 746.111 87.1408 745.279C87.1408 744.303 87.9568 743.695 89.2208 743.695C90.3728 743.695 91.0928 744.287 91.1408 745.295H93.1888C93.1248 743.183 91.6208 741.871 89.2528 741.871C86.7888 741.871 85.0928 743.295 85.0928 745.343ZM100.306 745.871V750.015C100.306 751.519 99.7135 752.239 98.4815 752.239C97.3935 752.239 96.8015 751.631 96.8015 750.127V745.871H94.8495V750.815C94.8495 752.751 95.9215 753.983 97.7455 753.983C98.8015 753.983 99.8255 753.471 100.306 752.719L100.45 753.775H102.258V745.871H100.306ZM104.274 757.439H106.226V752.719C106.722 753.519 107.746 753.983 108.93 753.983C111.282 753.983 112.626 752.191 112.626 749.727C112.626 747.247 111.154 745.631 108.93 745.631C107.73 745.631 106.69 746.159 106.21 747.071L106.082 745.871H104.274V757.439ZM106.242 749.823C106.242 748.399 107.122 747.407 108.466 747.407C109.842 747.407 110.658 748.415 110.658 749.823C110.658 751.231 109.842 752.223 108.466 752.223C107.122 752.223 106.242 751.247 106.242 749.823ZM114.18 757.439H116.132V752.719C116.628 753.519 117.652 753.983 118.836 753.983C121.188 753.983 122.532 752.191 122.532 749.727C122.532 747.247 121.06 745.631 118.836 745.631C117.636 745.631 116.596 746.159 116.116 747.071L115.988 745.871H114.18V757.439ZM116.148 749.823C116.148 748.399 117.028 747.407 118.372 747.407C119.748 747.407 120.564 748.415 120.564 749.823C120.564 751.231 119.748 752.223 118.372 752.223C117.028 752.223 116.148 751.247 116.148 749.823ZM123.622 749.807C123.622 752.271 125.398 753.967 127.846 753.967C130.294 753.967 132.07 752.271 132.07 749.807C132.07 747.343 130.294 745.647 127.846 745.647C125.398 745.647 123.622 747.343 123.622 749.807ZM125.574 749.807C125.574 748.367 126.502 747.391 127.846 747.391C129.19 747.391 130.118 748.367 130.118 749.807C130.118 751.247 129.19 752.223 127.846 752.223C126.502 752.223 125.574 751.247 125.574 749.807ZM138.577 745.839C138.257 745.759 137.985 745.727 137.713 745.727C136.657 745.727 135.905 746.255 135.569 747.039L135.457 745.887H133.617V753.775H135.569V749.935C135.569 748.399 136.449 747.647 137.857 747.647H138.577V745.839ZM142.899 753.775V747.503H144.435V745.871H142.899V743.407H140.947V745.871H139.427V747.503H140.947V753.775H142.899Z" fill="#043344"/>
<path d="M65.1638 183.967C65.8678 183.967 66.4598 183.391 66.4598 182.703C66.4598 181.999 65.8678 181.423 65.1638 181.423C64.4598 181.423 63.8678 181.999 63.8678 182.703C63.8678 183.391 64.4598 183.967 65.1638 183.967Z" fill="#1A938A"/>
<line x1="348.5" y1="79.6641" x2="348.5" y2="777.664" stroke="#5D728C"/>
<line x1="767.244" y1="79.6641" x2="767.244" y2="777.664" stroke="#5D728C"/>
</svg>
