<svg width="1144" height="588" viewBox="0 0 1144 588" fill="none" xmlns="http://www.w3.org/2000/svg">
<rect x="0.5" y="0.721191" width="1143" height="79" rx="39.5" stroke="#5D728C"/>
<path d="M92.428 34.2204V45.1104H94.588V34.2204H98.656V32.3664H88.342V34.2204H92.428ZM106.788 37.3344C106.014 36.2544 104.808 35.6064 103.386 35.6064C100.704 35.6064 98.7956 37.6764 98.7956 40.5384C98.7956 43.4004 100.704 45.4704 103.386 45.4704C104.808 45.4704 106.014 44.8224 106.788 43.7424V45.1104H108.75V35.9664H106.788V37.3344ZM103.764 43.7424C102.018 43.7424 100.74 42.3744 100.74 40.5384C100.74 38.6844 102.018 37.3344 103.764 37.3344C105.51 37.3344 106.77 38.6844 106.77 40.5384C106.77 42.3924 105.51 43.7424 103.764 43.7424ZM113.283 31.8264H111.339V45.1104H113.283V31.8264ZM120.339 43.8324C118.827 43.8324 117.675 42.7524 117.441 41.1324H125.145C125.163 40.9344 125.181 40.6644 125.181 40.4484C125.181 37.6224 123.165 35.6064 120.321 35.6064C117.477 35.6064 115.425 37.6224 115.425 40.4304C115.425 43.3644 117.495 45.4704 120.375 45.4704C122.355 45.4704 124.173 44.3904 124.713 42.8964L123.021 42.3384C122.607 43.1844 121.509 43.8324 120.339 43.8324ZM117.441 39.6924C117.711 38.2344 118.791 37.2444 120.267 37.2444C121.779 37.2444 122.931 38.2524 123.147 39.6924H117.441ZM132.231 35.6064C131.043 35.6064 129.909 36.1824 129.261 37.1364V35.9664H127.335V45.1104H129.297V39.8544C129.297 38.3964 130.431 37.3344 131.799 37.3344C133.167 37.3344 133.977 38.3244 133.977 39.6744V45.1104H135.921V39.5304C135.921 37.2624 134.463 35.6064 132.231 35.6064ZM139.131 42.5364C139.131 44.2824 140.193 45.4704 141.831 45.4704C142.335 45.4704 142.983 45.3804 143.433 45.2184L143.451 43.6524C143.109 43.7604 142.677 43.8144 142.425 43.8144C141.579 43.8144 141.075 43.2384 141.075 42.4104V37.4964H143.325V35.9664H141.075V33.7524H139.491L139.239 35.9664H137.727V37.4964H139.131V42.5364ZM153.655 45.1104V35.0664L157.831 45.1104H159.487L163.663 35.0484V45.1104H165.805V32.3664H162.763L158.659 42.3384L154.537 32.3664H151.513V45.1104H153.655ZM176.292 37.3344C175.518 36.2544 174.312 35.6064 172.89 35.6064C170.208 35.6064 168.3 37.6764 168.3 40.5384C168.3 43.4004 170.208 45.4704 172.89 45.4704C174.312 45.4704 175.518 44.8224 176.292 43.7424V45.1104H178.254V35.9664H176.292V37.3344ZM173.268 43.7424C171.522 43.7424 170.244 42.3744 170.244 40.5384C170.244 38.6844 171.522 37.3344 173.268 37.3344C175.014 37.3344 176.274 38.6844 176.274 40.5384C176.274 42.3924 175.014 43.7424 173.268 43.7424ZM185.739 35.6064C184.551 35.6064 183.417 36.1824 182.769 37.1364V35.9664H180.843V45.1104H182.805V39.8544C182.805 38.3964 183.939 37.3344 185.307 37.3344C186.675 37.3344 187.485 38.3244 187.485 39.6744V45.1104H189.429V39.5304C189.429 37.2624 187.971 35.6064 185.739 35.6064ZM199.407 37.3344C198.633 36.2544 197.427 35.6064 196.005 35.6064C193.323 35.6064 191.415 37.6764 191.415 40.5384C191.415 43.4004 193.323 45.4704 196.005 45.4704C197.427 45.4704 198.633 44.8224 199.407 43.7424V45.1104H201.369V35.9664H199.407V37.3344ZM196.383 43.7424C194.637 43.7424 193.359 42.3744 193.359 40.5384C193.359 38.6844 194.637 37.3344 196.383 37.3344C198.129 37.3344 199.389 38.6844 199.389 40.5384C199.389 42.3924 198.129 43.7424 196.383 43.7424ZM204.012 46.4604C204.516 48.3144 206.388 49.6104 208.602 49.6104C211.392 49.6104 213.39 47.9004 213.39 44.9484V35.9664H211.446V37.2084C210.69 36.2364 209.556 35.6424 208.134 35.6424C205.47 35.6424 203.526 37.6944 203.526 40.5384C203.526 43.3104 205.47 45.2904 208.134 45.2904C209.502 45.2904 210.654 44.7324 211.428 43.7604V44.9304C211.428 46.8744 210.222 47.9544 208.53 47.9544C207.306 47.9544 206.208 47.1804 205.794 46.0824L204.012 46.4604ZM208.494 43.6344C206.748 43.6344 205.47 42.3384 205.47 40.5384C205.47 38.6844 206.748 37.3344 208.494 37.3344C210.24 37.3344 211.5 38.6844 211.5 40.5384C211.5 42.3384 210.24 43.6344 208.494 43.6344ZM220.464 43.8324C218.952 43.8324 217.8 42.7524 217.566 41.1324H225.27C225.288 40.9344 225.306 40.6644 225.306 40.4484C225.306 37.6224 223.29 35.6064 220.446 35.6064C217.602 35.6064 215.55 37.6224 215.55 40.4304C215.55 43.3644 217.62 45.4704 220.5 45.4704C222.48 45.4704 224.298 44.3904 224.838 42.8964L223.146 42.3384C222.732 43.1844 221.634 43.8324 220.464 43.8324ZM217.566 39.6924C217.836 38.2344 218.916 37.2444 220.392 37.2444C221.904 37.2444 223.056 38.2524 223.272 39.6924H217.566ZM227.46 45.1104H229.422V39.7464C229.422 38.3064 230.286 37.3344 231.582 37.3344C232.842 37.3344 233.67 38.3064 233.67 39.7464V45.1104H235.614V39.7464C235.614 38.3424 236.532 37.3344 237.81 37.3344C239.052 37.3704 239.934 38.3604 239.934 39.7464V45.1104H241.878V39.5844C241.878 37.2624 240.366 35.6244 238.224 35.6244C236.91 35.6244 235.758 36.2904 235.128 37.3344C234.588 36.2904 233.382 35.6064 231.978 35.6064C230.88 35.6064 229.926 36.1284 229.35 37.0104V35.9664H227.46V45.1104ZM248.764 43.8324C247.252 43.8324 246.1 42.7524 245.866 41.1324H253.57C253.588 40.9344 253.606 40.6644 253.606 40.4484C253.606 37.6224 251.59 35.6064 248.746 35.6064C245.902 35.6064 243.85 37.6224 243.85 40.4304C243.85 43.3644 245.92 45.4704 248.8 45.4704C250.78 45.4704 252.598 44.3904 253.138 42.8964L251.446 42.3384C251.032 43.1844 249.934 43.8324 248.764 43.8324ZM245.866 39.6924C246.136 38.2344 247.216 37.2444 248.692 37.2444C250.204 37.2444 251.356 38.2524 251.572 39.6924H245.866ZM260.657 35.6064C259.469 35.6064 258.335 36.1824 257.687 37.1364V35.9664H255.761V45.1104H257.723V39.8544C257.723 38.3964 258.857 37.3344 260.225 37.3344C261.593 37.3344 262.403 38.3244 262.403 39.6744V45.1104H264.347V39.5304C264.347 37.2624 262.889 35.6064 260.657 35.6064ZM267.557 42.5364C267.557 44.2824 268.619 45.4704 270.257 45.4704C270.761 45.4704 271.409 45.3804 271.859 45.2184L271.877 43.6524C271.535 43.7604 271.103 43.8144 270.851 43.8144C270.005 43.8144 269.501 43.2384 269.501 42.4104V37.4964H271.751V35.9664H269.501V33.7524H267.917L267.665 35.9664H266.153V37.4964H267.557V42.5364Z" fill="#043344"/>
<path d="M60.2503 57.9763H36.5865C35.4691 57.9763 34.3954 57.4723 33.6724 56.6178C32.9493 55.7413 32.6645 54.6238 32.8617 53.5063C34.264 46.0563 40.7934 40.644 48.3965 40.644C55.9995 40.644 62.529 46.0563 63.9313 53.5063C64.1504 54.6238 63.8436 55.7413 63.1206 56.6178C62.4413 57.4723 61.3677 57.9763 60.2503 57.9763ZM48.4184 43.6898C42.2833 43.6898 37.0247 48.0502 35.8854 54.0541C35.8415 54.3389 35.9511 54.5362 36.0387 54.6457C36.1264 54.7334 36.3017 54.9087 36.5865 54.9087H60.2503C60.5351 54.9087 60.7104 54.7553 60.798 54.6457C60.8857 54.5581 60.9952 54.3389 60.9514 54.0541C59.812 48.0502 54.5534 43.6898 48.4184 43.6898Z" fill="#1A938A"/>
<path d="M56.8 29.2205C56.8 33.797 53.0473 37.4927 48.4 37.4927C43.7745 37.4927 40 33.797 40 29.2205C40 24.6439 43.7745 20.9482 48.4 20.9482C53.0473 20.9482 56.8 24.6439 56.8 29.2205Z" fill="#043344"/>
<rect y="143.221" width="1144" height="64" rx="32" fill="#E9EDEF"/>
<rect y="524.221" width="1144" height="63" rx="31.5" fill="#E9EDEF"/>
<rect y="270.221" width="1144" height="64" rx="32" fill="#E9EDEF"/>
<rect y="397.221" width="1144" height="64" rx="32" fill="#E9EDEF"/>
<rect opacity="0.5" y="207.221" width="1144" height="63" rx="31.5" fill="white"/>
<rect opacity="0.5" y="80.2212" width="1144" height="63" rx="31.5" fill="white"/>
<rect opacity="0.5" y="334.221" width="1144" height="63" rx="31.5" fill="white"/>
<rect opacity="0.5" y="461.221" width="1144" height="63" rx="31.5" fill="white"/>
<path d="M569.258 116.909L578.68 107.487C578.883 107.284 579.133 107.182 579.43 107.182C579.743 107.182 580.008 107.284 580.227 107.487C580.446 107.706 580.555 107.971 580.555 108.284C580.555 108.581 580.446 108.838 580.227 109.057L569.258 120.002L563.774 114.542C563.555 114.323 563.446 114.065 563.446 113.768C563.446 113.456 563.555 113.19 563.774 112.971C563.993 112.768 564.25 112.667 564.547 112.667C564.86 112.667 565.118 112.768 565.321 112.971L569.258 116.909Z" fill="#1A938A"/>
<path d="M569.258 179.909L578.68 170.487C578.883 170.284 579.133 170.182 579.43 170.182C579.743 170.182 580.008 170.284 580.227 170.487C580.446 170.706 580.555 170.971 580.555 171.284C580.555 171.581 580.446 171.838 580.227 172.057L569.258 183.002L563.774 177.542C563.555 177.323 563.446 177.065 563.446 176.768C563.446 176.456 563.555 176.19 563.774 175.971C563.993 175.768 564.25 175.667 564.547 175.667C564.86 175.667 565.118 175.768 565.321 175.971L569.258 179.909Z" fill="#1A938A"/>
<path d="M569.258 242.909L578.68 233.487C578.883 233.284 579.133 233.182 579.43 233.182C579.743 233.182 580.008 233.284 580.227 233.487C580.446 233.706 580.555 233.971 580.555 234.284C580.555 234.581 580.446 234.838 580.227 235.057L569.258 246.002L563.774 240.542C563.555 240.323 563.446 240.065 563.446 239.768C563.446 239.456 563.555 239.19 563.774 238.971C563.993 238.768 564.25 238.667 564.547 238.667C564.86 238.667 565.118 238.768 565.321 238.971L569.258 242.909Z" fill="#1A938A"/>
<path d="M569.258 305.909L578.68 296.487C578.883 296.284 579.133 296.182 579.43 296.182C579.743 296.182 580.008 296.284 580.227 296.487C580.446 296.706 580.555 296.971 580.555 297.284C580.555 297.581 580.446 297.838 580.227 298.057L569.258 309.002L563.774 303.542C563.555 303.323 563.446 303.065 563.446 302.768C563.446 302.456 563.555 302.19 563.774 301.971C563.993 301.768 564.25 301.667 564.547 301.667C564.86 301.667 565.118 301.768 565.321 301.971L569.258 305.909Z" fill="#1A938A"/>
<path d="M569.258 368.909L578.68 359.487C578.883 359.284 579.133 359.182 579.43 359.182C579.743 359.182 580.008 359.284 580.227 359.487C580.446 359.706 580.555 359.971 580.555 360.284C580.555 360.581 580.446 360.838 580.227 361.057L569.258 372.002L563.774 366.542C563.555 366.323 563.446 366.065 563.446 365.768C563.446 365.456 563.555 365.19 563.774 364.971C563.993 364.768 564.25 364.667 564.547 364.667C564.86 364.667 565.118 364.768 565.321 364.971L569.258 368.909Z" fill="#1A938A"/>
<path d="M569.258 431.909L578.68 422.487C578.883 422.284 579.133 422.182 579.43 422.182C579.743 422.182 580.008 422.284 580.227 422.487C580.446 422.706 580.555 422.971 580.555 423.284C580.555 423.581 580.446 423.838 580.227 424.057L569.258 435.002L563.774 429.542C563.555 429.323 563.446 429.065 563.446 428.768C563.446 428.456 563.555 428.19 563.774 427.971C563.993 427.768 564.25 427.667 564.547 427.667C564.86 427.667 565.118 427.768 565.321 427.971L569.258 431.909Z" fill="#1A938A"/>
<path d="M569.258 494.909L578.68 485.487C578.883 485.284 579.133 485.182 579.43 485.182C579.743 485.182 580.008 485.284 580.227 485.487C580.446 485.706 580.555 485.971 580.555 486.284C580.555 486.581 580.446 486.838 580.227 487.057L569.258 498.002L563.774 492.542C563.555 492.323 563.446 492.065 563.446 491.768C563.446 491.456 563.555 491.19 563.774 490.971C563.993 490.768 564.25 490.667 564.547 490.667C564.86 490.667 565.118 490.768 565.321 490.971L569.258 494.909Z" fill="#1A938A"/>
<path d="M573.407 555.721L579.079 561.37C579.266 561.573 579.36 561.815 579.36 562.096C579.36 562.362 579.266 562.596 579.079 562.799C578.875 562.987 578.633 563.081 578.352 563.081C578.086 563.081 577.852 562.987 577.649 562.799L572 557.127L566.352 562.799C566.149 562.987 565.907 563.081 565.625 563.081C565.36 563.081 565.125 562.987 564.922 562.799C564.735 562.596 564.641 562.362 564.641 562.096C564.641 561.815 564.735 561.573 564.922 561.37L570.594 555.721L564.922 550.073C564.735 549.87 564.641 549.635 564.641 549.37C564.641 549.088 564.735 548.846 564.922 548.643C565.125 548.456 565.36 548.362 565.625 548.362C565.907 548.362 566.149 548.456 566.352 548.643L572 554.315L577.649 548.643C577.852 548.456 578.086 548.362 578.352 548.362C578.633 548.362 578.875 548.456 579.079 548.643C579.266 548.846 579.36 549.088 579.36 549.37C579.36 549.635 579.266 549.87 579.079 550.073L573.407 555.721Z" fill="#F45147"/>
<path d="M960.627 116.909L970.049 107.487C970.252 107.284 970.502 107.182 970.799 107.182C971.112 107.182 971.377 107.284 971.596 107.487C971.815 107.706 971.924 107.971 971.924 108.284C971.924 108.581 971.815 108.838 971.596 109.057L960.627 120.002L955.143 114.542C954.924 114.323 954.815 114.065 954.815 113.768C954.815 113.456 954.924 113.19 955.143 112.971C955.362 112.768 955.62 112.667 955.916 112.667C956.229 112.667 956.487 112.768 956.69 112.971L960.627 116.909Z" fill="#1A938A"/>
<path d="M960.627 179.909L970.049 170.487C970.252 170.284 970.502 170.182 970.799 170.182C971.112 170.182 971.377 170.284 971.596 170.487C971.815 170.706 971.924 170.971 971.924 171.284C971.924 171.581 971.815 171.838 971.596 172.057L960.627 183.002L955.143 177.542C954.924 177.323 954.815 177.065 954.815 176.768C954.815 176.456 954.924 176.19 955.143 175.971C955.362 175.768 955.62 175.667 955.916 175.667C956.229 175.667 956.487 175.768 956.69 175.971L960.627 179.909Z" fill="#1A938A"/>
<path d="M960.627 242.909L970.049 233.487C970.252 233.284 970.502 233.182 970.799 233.182C971.112 233.182 971.377 233.284 971.596 233.487C971.815 233.706 971.924 233.971 971.924 234.284C971.924 234.581 971.815 234.838 971.596 235.057L960.627 246.002L955.143 240.542C954.924 240.323 954.815 240.065 954.815 239.768C954.815 239.456 954.924 239.19 955.143 238.971C955.362 238.768 955.62 238.667 955.916 238.667C956.229 238.667 956.487 238.768 956.69 238.971L960.627 242.909Z" fill="#1A938A"/>
<path d="M960.627 305.909L970.049 296.487C970.252 296.284 970.502 296.182 970.799 296.182C971.112 296.182 971.377 296.284 971.596 296.487C971.815 296.706 971.924 296.971 971.924 297.284C971.924 297.581 971.815 297.838 971.596 298.057L960.627 309.002L955.143 303.542C954.924 303.323 954.815 303.065 954.815 302.768C954.815 302.456 954.924 302.19 955.143 301.971C955.362 301.768 955.62 301.667 955.916 301.667C956.229 301.667 956.487 301.768 956.69 301.971L960.627 305.909Z" fill="#1A938A"/>
<path d="M960.627 368.909L970.049 359.487C970.252 359.284 970.502 359.182 970.799 359.182C971.112 359.182 971.377 359.284 971.596 359.487C971.815 359.706 971.924 359.971 971.924 360.284C971.924 360.581 971.815 360.838 971.596 361.057L960.627 372.002L955.143 366.542C954.924 366.323 954.815 366.065 954.815 365.768C954.815 365.456 954.924 365.19 955.143 364.971C955.362 364.768 955.62 364.667 955.916 364.667C956.229 364.667 956.487 364.768 956.69 364.971L960.627 368.909Z" fill="#1A938A"/>
<path d="M960.627 431.909L970.049 422.487C970.252 422.284 970.502 422.182 970.799 422.182C971.112 422.182 971.377 422.284 971.596 422.487C971.815 422.706 971.924 422.971 971.924 423.284C971.924 423.581 971.815 423.838 971.596 424.057L960.627 435.002L955.143 429.542C954.924 429.323 954.815 429.065 954.815 428.768C954.815 428.456 954.924 428.19 955.143 427.971C955.362 427.768 955.62 427.667 955.916 427.667C956.229 427.667 956.487 427.768 956.69 427.971L960.627 431.909Z" fill="#1A938A"/>
<path d="M960.627 494.909L970.049 485.487C970.252 485.284 970.502 485.182 970.799 485.182C971.112 485.182 971.377 485.284 971.596 485.487C971.815 485.706 971.924 485.971 971.924 486.284C971.924 486.581 971.815 486.838 971.596 487.057L960.627 498.002L955.143 492.542C954.924 492.323 954.815 492.065 954.815 491.768C954.815 491.456 954.924 491.19 955.143 490.971C955.362 490.768 955.62 490.667 955.916 490.667C956.229 490.667 956.487 490.768 956.69 490.971L960.627 494.909Z" fill="#1A938A"/>
<path d="M918.827 556.285C918.395 557.837 916.891 558.957 915.227 558.957C912.891 558.957 911.211 557.117 911.211 554.557C911.211 551.997 912.875 550.157 915.227 550.157C916.923 550.157 918.427 551.325 918.811 552.925L920.651 552.701C920.139 550.269 917.851 548.493 915.211 548.493C911.771 548.493 909.291 551.037 909.291 554.557C909.275 558.077 911.771 560.621 915.211 560.621C917.851 560.621 920.139 558.925 920.651 556.589L918.827 556.285ZM931.15 556.157C931.15 553.581 929.326 551.773 926.734 551.773C924.126 551.773 922.318 553.581 922.318 556.157C922.318 558.733 924.126 560.541 926.734 560.541C929.326 560.541 931.15 558.733 931.15 556.157ZM929.422 556.157C929.422 557.805 928.286 559.005 926.734 559.005C925.166 559.005 924.046 557.805 924.046 556.157C924.046 554.509 925.166 553.309 926.734 553.309C928.286 553.309 929.422 554.509 929.422 556.157ZM933.062 560.221H934.806V555.453C934.806 554.173 935.574 553.309 936.726 553.309C937.846 553.309 938.582 554.173 938.582 555.453V560.221H940.31V555.453C940.31 554.205 941.126 553.309 942.262 553.309C943.366 553.341 944.15 554.221 944.15 555.453V560.221H945.878V555.309C945.878 553.245 944.534 551.789 942.63 551.789C941.462 551.789 940.438 552.381 939.878 553.309C939.398 552.381 938.326 551.773 937.078 551.773C936.102 551.773 935.254 552.237 934.742 553.021V552.093H933.062V560.221ZM949.967 552.093H948.239V560.221H949.967V552.093ZM948.015 549.709C948.015 550.333 948.463 550.781 949.087 550.781C949.727 550.781 950.175 550.333 950.175 549.709C950.175 549.101 949.727 548.669 949.087 548.669C948.463 548.669 948.015 549.101 948.015 549.709ZM956.836 551.773C955.78 551.773 954.772 552.285 954.196 553.133V552.093H952.484V560.221H954.228V555.549C954.228 554.253 955.236 553.309 956.452 553.309C957.668 553.309 958.388 554.189 958.388 555.389V560.221H960.116V555.261C960.116 553.245 958.82 551.773 956.836 551.773ZM962.313 561.421C962.761 563.069 964.425 564.221 966.393 564.221C968.873 564.221 970.649 562.701 970.649 560.077V552.093H968.921V553.197C968.249 552.333 967.241 551.805 965.977 551.805C963.609 551.805 961.881 553.629 961.881 556.157C961.881 558.621 963.609 560.381 965.977 560.381C967.193 560.381 968.217 559.885 968.905 559.021V560.061C968.905 561.789 967.833 562.749 966.329 562.749C965.241 562.749 964.265 562.061 963.897 561.085L962.313 561.421ZM966.297 558.909C964.745 558.909 963.609 557.757 963.609 556.157C963.609 554.509 964.745 553.309 966.297 553.309C967.849 553.309 968.969 554.509 968.969 556.157C968.969 557.757 967.849 558.909 966.297 558.909ZM982.61 560.621C985.378 560.621 987.122 559.037 987.122 556.909C987.122 552.493 979.778 554.541 979.778 551.837C979.778 550.829 980.77 550.077 982.306 550.077C983.922 550.077 985.09 551.037 985.09 552.381H986.866C986.85 550.125 984.93 548.493 982.29 548.493C979.65 548.493 977.874 549.981 977.874 552.109C977.874 556.493 985.218 554.413 985.218 557.197C985.218 558.205 984.274 559.037 982.658 559.037C980.834 559.037 979.554 557.981 979.554 556.525H977.73C977.73 558.893 979.778 560.621 982.61 560.621ZM997.697 556.157C997.697 553.581 995.873 551.773 993.281 551.773C990.673 551.773 988.865 553.581 988.865 556.157C988.865 558.733 990.673 560.541 993.281 560.541C995.873 560.541 997.697 558.733 997.697 556.157ZM995.969 556.157C995.969 557.805 994.833 559.005 993.281 559.005C991.713 559.005 990.593 557.805 990.593 556.157C990.593 554.509 991.713 553.309 993.281 553.309C994.833 553.309 995.969 554.509 995.969 556.157ZM1008.04 556.157C1008.04 553.581 1006.22 551.773 1003.63 551.773C1001.02 551.773 999.209 553.581 999.209 556.157C999.209 558.733 1001.02 560.541 1003.63 560.541C1006.22 560.541 1008.04 558.733 1008.04 556.157ZM1006.31 556.157C1006.31 557.805 1005.18 559.005 1003.63 559.005C1002.06 559.005 1000.94 557.805 1000.94 556.157C1000.94 554.509 1002.06 553.309 1003.63 553.309C1005.18 553.309 1006.31 554.509 1006.31 556.157ZM1014.3 551.773C1013.25 551.773 1012.24 552.285 1011.66 553.133V552.093H1009.95V560.221H1011.7V555.549C1011.7 554.253 1012.7 553.309 1013.92 553.309C1015.14 553.309 1015.86 554.189 1015.86 555.389V560.221H1017.58V555.261C1017.58 553.245 1016.29 551.773 1014.3 551.773Z" fill="#5D728C"/>
<path d="M29.312 120.332V112.044L34.816 120.332H36.832V108.636H34.816V116.924L29.328 108.636H27.296V120.332H29.312ZM41.485 120.54C42.717 120.54 43.789 119.98 44.125 119.164L44.269 120.332H45.981V115.532C45.981 113.34 44.669 112.188 42.541 112.188C40.397 112.188 38.989 113.308 38.989 115.02H40.653C40.653 114.188 41.293 113.708 42.445 113.708C43.437 113.708 44.077 114.14 44.077 115.212V115.388L41.709 115.564C39.837 115.708 38.781 116.62 38.781 118.076C38.781 119.564 39.805 120.54 41.485 120.54ZM42.125 119.068C41.245 119.068 40.765 118.716 40.765 117.996C40.765 117.356 41.229 116.956 42.445 116.844L44.093 116.716V117.132C44.093 118.348 43.325 119.068 42.125 119.068ZM50.4773 120.332V114.06H52.0133V112.428H50.4773V109.964H48.5253V112.428H47.0053V114.06H48.5253V120.332H50.4773ZM54.2028 110.844C54.8428 110.844 55.3708 110.316 55.3708 109.66C55.3708 109.004 54.8428 108.492 54.2028 108.492C53.5308 108.492 53.0028 109.004 53.0028 109.66C53.0028 110.316 53.5308 110.844 54.2028 110.844ZM53.2268 120.332H55.1788V112.428H53.2268V120.332ZM59.4355 120.332H61.3555L64.6515 112.428H62.6355L61.1955 116.06C60.8595 116.924 60.5715 117.756 60.4595 118.252C60.3635 117.82 60.0915 117.004 59.7555 116.06L58.3795 112.428H56.2995L59.4355 120.332ZM68.919 120.54C70.983 120.54 72.423 119.5 72.759 117.772H70.951C70.727 118.524 70.023 118.94 68.951 118.94C67.655 118.94 66.919 118.236 66.775 116.844L72.727 116.828V116.236C72.727 113.772 71.223 112.188 68.855 112.188C66.535 112.188 64.919 113.9 64.919 116.38C64.919 118.828 66.567 120.54 68.919 120.54ZM68.871 113.788C70.039 113.788 70.791 114.508 70.791 115.596H66.823C67.015 114.412 67.719 113.788 68.871 113.788ZM79.5778 110.844C80.2178 110.844 80.7458 110.316 80.7458 109.66C80.7458 109.004 80.2178 108.492 79.5778 108.492C78.9058 108.492 78.3778 109.004 78.3778 109.66C78.3778 110.316 78.9058 110.844 79.5778 110.844ZM78.6018 120.332H80.5538V112.428H78.6018V120.332ZM93.5305 114.476C93.5305 110.908 91.1945 108.428 87.8505 108.428C84.5065 108.428 82.1865 110.924 82.1865 114.476C82.1865 118.044 84.4905 120.524 87.8345 120.524C91.1945 120.524 93.5305 118.028 93.5305 114.476ZM91.3705 114.476C91.3705 116.94 89.9945 118.556 87.8505 118.556C85.7065 118.556 84.3305 116.972 84.3305 114.476C84.3305 111.98 85.7065 110.396 87.8505 110.396C89.9945 110.396 91.3705 111.98 91.3705 114.476ZM94.7646 111.9C94.7646 113.692 95.8046 114.828 97.7886 115.26L99.6446 115.676C100.605 115.884 101.005 116.348 101.005 117.132C101.005 118.108 100.141 118.7 98.7806 118.7C97.4686 118.7 96.6686 118.108 96.6526 117.116H94.6046C94.6526 119.212 96.2846 120.54 98.7806 120.54C101.357 120.54 103.053 119.132 103.053 116.956C103.053 115.212 102.077 114.188 100.077 113.756L98.2366 113.356C97.2606 113.132 96.8126 112.668 96.8126 111.836C96.8126 110.86 97.6286 110.252 98.8926 110.252C100.045 110.252 100.765 110.844 100.813 111.852H102.861C102.797 109.74 101.293 108.428 98.9246 108.428C96.4606 108.428 94.7646 109.852 94.7646 111.9ZM111.282 120.54C112.514 120.54 113.586 119.98 113.922 119.164L114.066 120.332H115.778V115.532C115.778 113.34 114.466 112.188 112.338 112.188C110.194 112.188 108.786 113.308 108.786 115.02H110.45C110.45 114.188 111.09 113.708 112.242 113.708C113.234 113.708 113.874 114.14 113.874 115.212V115.388L111.506 115.564C109.634 115.708 108.578 116.62 108.578 118.076C108.578 119.564 109.602 120.54 111.282 120.54ZM111.922 119.068C111.042 119.068 110.562 118.716 110.562 117.996C110.562 117.356 111.026 116.956 112.242 116.844L113.89 116.716V117.132C113.89 118.348 113.122 119.068 111.922 119.068ZM119.648 120.332V116.076C119.648 114.796 120.384 113.964 121.584 113.964C122.592 113.964 123.248 114.604 123.248 115.932V120.332H125.2V115.468C125.2 113.42 124.176 112.188 122.192 112.188C121.12 112.188 120.16 112.652 119.664 113.452L119.504 112.428H117.696V120.332H119.648ZM130.365 120.54C131.565 120.54 132.589 120.012 133.069 119.1L133.197 120.332H134.989V108.428H133.053V113.436C132.557 112.652 131.581 112.188 130.477 112.188C128.093 112.188 126.653 113.948 126.653 116.412C126.653 118.86 128.077 120.54 130.365 120.54ZM130.797 118.748C129.437 118.748 128.605 117.756 128.605 116.348C128.605 114.94 129.437 113.932 130.797 113.932C132.157 113.932 133.037 114.924 133.037 116.348C133.037 117.772 132.157 118.748 130.797 118.748ZM142.632 120.332L143.576 117.628H147.944L148.888 120.332H151.048L146.824 108.636H144.728L140.504 120.332H142.632ZM145.512 112.124C145.624 111.804 145.72 111.452 145.768 111.228C145.8 111.468 145.912 111.82 146.008 112.124L147.352 115.9H144.184L145.512 112.124ZM154.179 120.332V116.076C154.179 114.796 154.915 113.964 156.115 113.964C157.123 113.964 157.779 114.604 157.779 115.932V120.332H159.731V115.468C159.731 113.42 158.707 112.188 156.723 112.188C155.651 112.188 154.691 112.652 154.195 113.452L154.035 112.428H152.227V120.332H154.179ZM164.897 120.54C166.097 120.54 167.121 120.012 167.601 119.1L167.729 120.332H169.521V108.428H167.585V113.436C167.089 112.652 166.113 112.188 165.009 112.188C162.625 112.188 161.185 113.948 161.185 116.412C161.185 118.86 162.609 120.54 164.897 120.54ZM165.329 118.748C163.969 118.748 163.137 117.756 163.137 116.348C163.137 114.94 163.969 113.932 165.329 113.932C166.689 113.932 167.569 114.924 167.569 116.348C167.569 117.772 166.689 118.748 165.329 118.748ZM176.515 112.396C176.195 112.316 175.923 112.284 175.651 112.284C174.595 112.284 173.843 112.812 173.507 113.596L173.395 112.444H171.555V120.332H173.507V116.492C173.507 114.956 174.387 114.204 175.795 114.204H176.515V112.396ZM177.107 116.364C177.107 118.828 178.883 120.524 181.331 120.524C183.779 120.524 185.555 118.828 185.555 116.364C185.555 113.9 183.779 112.204 181.331 112.204C178.883 112.204 177.107 113.9 177.107 116.364ZM179.059 116.364C179.059 114.924 179.987 113.948 181.331 113.948C182.675 113.948 183.603 114.924 183.603 116.364C183.603 117.804 182.675 118.78 181.331 118.78C179.987 118.78 179.059 117.804 179.059 116.364ZM188.078 110.844C188.718 110.844 189.246 110.316 189.246 109.66C189.246 109.004 188.718 108.492 188.078 108.492C187.406 108.492 186.878 109.004 186.878 109.66C186.878 110.316 187.406 110.844 188.078 110.844ZM187.102 120.332H189.054V112.428H187.102V120.332ZM194.319 120.54C195.519 120.54 196.543 120.012 197.023 119.1L197.151 120.332H198.943V108.428H197.007V113.436C196.511 112.652 195.535 112.188 194.431 112.188C192.047 112.188 190.607 113.948 190.607 116.412C190.607 118.86 192.031 120.54 194.319 120.54ZM194.751 118.748C193.391 118.748 192.559 117.756 192.559 116.348C192.559 114.94 193.391 113.932 194.751 113.932C196.111 113.932 196.991 114.924 196.991 116.348C196.991 117.772 196.111 118.748 194.751 118.748ZM206.585 120.332L207.529 117.628H211.897L212.841 120.332H215.001L210.777 108.636H208.681L204.457 120.332H206.585ZM209.465 112.124C209.577 111.804 209.673 111.452 209.721 111.228C209.753 111.468 209.865 111.82 209.961 112.124L211.305 115.9H208.137L209.465 112.124ZM216.18 123.996H218.132V119.276C218.628 120.076 219.652 120.54 220.836 120.54C223.188 120.54 224.532 118.748 224.532 116.284C224.532 113.804 223.06 112.188 220.836 112.188C219.636 112.188 218.596 112.716 218.116 113.628L217.988 112.428H216.18V123.996ZM218.148 116.38C218.148 114.956 219.028 113.964 220.372 113.964C221.748 113.964 222.564 114.972 222.564 116.38C222.564 117.788 221.748 118.78 220.372 118.78C219.028 118.78 218.148 117.804 218.148 116.38ZM226.086 123.996H228.038V119.276C228.534 120.076 229.558 120.54 230.742 120.54C233.094 120.54 234.438 118.748 234.438 116.284C234.438 113.804 232.966 112.188 230.742 112.188C229.542 112.188 228.502 112.716 228.022 113.628L227.894 112.428H226.086V123.996ZM228.054 116.38C228.054 114.956 228.934 113.964 230.278 113.964C231.654 113.964 232.47 114.972 232.47 116.38C232.47 117.788 231.654 118.78 230.278 118.78C228.934 118.78 228.054 117.804 228.054 116.38ZM235.384 117.932C235.384 119.484 236.632 120.54 238.6 120.54C240.552 120.54 241.912 119.548 241.912 117.948C241.912 116.732 241.24 116.124 239.912 115.82L238.488 115.484C237.816 115.324 237.464 115.036 237.464 114.588C237.464 113.996 237.912 113.644 238.68 113.644C239.432 113.644 239.88 114.076 239.896 114.748H241.752C241.736 113.212 240.536 112.188 238.76 112.188C236.936 112.188 235.624 113.116 235.624 114.668C235.624 115.932 236.312 116.604 237.736 116.924L239.16 117.26C239.864 117.42 240.072 117.708 240.072 118.108C240.072 118.684 239.576 119.052 238.664 119.052C237.768 119.052 237.256 118.62 237.24 117.932H235.384ZM32.24 183.524C35.008 183.524 37.152 181.892 37.6 179.428H35.472C35.088 180.724 33.872 181.556 32.288 181.556C30.144 181.556 28.768 179.956 28.768 177.476C28.768 174.98 30.128 173.412 32.288 173.412C33.84 173.412 35.008 174.212 35.408 175.572H37.568C37.168 173.06 35.104 171.444 32.336 171.444C28.912 171.444 26.624 173.86 26.624 177.492C26.624 181.156 28.832 183.524 32.24 183.524ZM38.6846 179.364C38.6846 181.828 40.4606 183.524 42.9086 183.524C45.3566 183.524 47.1326 181.828 47.1326 179.364C47.1326 176.9 45.3566 175.204 42.9086 175.204C40.4606 175.204 38.6846 176.9 38.6846 179.364ZM40.6366 179.364C40.6366 177.924 41.5646 176.948 42.9086 176.948C44.2526 176.948 45.1806 177.924 45.1806 179.364C45.1806 180.804 44.2526 181.78 42.9086 181.78C41.5646 181.78 40.6366 180.804 40.6366 179.364ZM50.6319 183.332V178.852C50.6319 177.572 51.3839 176.964 52.3119 176.964C53.2399 176.964 53.8319 177.556 53.8319 178.66V183.332H55.7839V178.852C55.7839 177.556 56.5039 176.948 57.4479 176.948C58.3759 176.948 58.9839 177.54 58.9839 178.676V183.332H60.9199V178.164C60.9199 176.34 59.8639 175.188 57.9439 175.188C56.7439 175.188 55.8159 175.78 55.4159 176.692C54.9999 175.78 54.1679 175.188 52.9679 175.188C51.8319 175.188 51.0319 175.7 50.6319 176.356L50.4719 175.428H48.6799V183.332H50.6319ZM62.8361 186.996H64.7881V182.276C65.2841 183.076 66.3081 183.54 67.4921 183.54C69.8441 183.54 71.1881 181.748 71.1881 179.284C71.1881 176.804 69.7161 175.188 67.4921 175.188C66.2921 175.188 65.2521 175.716 64.7721 176.628L64.6441 175.428H62.8361V186.996ZM64.8041 179.38C64.8041 177.956 65.6841 176.964 67.0281 176.964C68.4041 176.964 69.2201 177.972 69.2201 179.38C69.2201 180.788 68.4041 181.78 67.0281 181.78C65.6841 181.78 64.8041 180.804 64.8041 179.38ZM75.0944 183.54C76.3264 183.54 77.3984 182.98 77.7344 182.164L77.8784 183.332H79.5904V178.532C79.5904 176.34 78.2784 175.188 76.1504 175.188C74.0064 175.188 72.5984 176.308 72.5984 178.02H74.2624C74.2624 177.188 74.9024 176.708 76.0544 176.708C77.0464 176.708 77.6864 177.14 77.6864 178.212V178.388L75.3184 178.564C73.4464 178.708 72.3904 179.62 72.3904 181.076C72.3904 182.564 73.4144 183.54 75.0944 183.54ZM75.7344 182.068C74.8544 182.068 74.3744 181.716 74.3744 180.996C74.3744 180.356 74.8384 179.956 76.0544 179.844L77.7024 179.716V180.132C77.7024 181.348 76.9344 182.068 75.7344 182.068ZM83.46 183.332V179.076C83.46 177.796 84.196 176.964 85.396 176.964C86.404 176.964 87.06 177.604 87.06 178.932V183.332H89.012V178.468C89.012 176.42 87.988 175.188 86.004 175.188C84.932 175.188 83.972 175.652 83.476 176.452L83.316 175.428H81.508V183.332H83.46ZM90.0856 186.996C90.5176 187.108 90.9976 187.172 91.5416 187.172C92.8376 187.172 93.6696 186.564 94.2616 185.092L98.1336 175.428H96.1176L93.9736 181.188L91.9416 175.428H89.8776L93.0616 183.668L92.8376 184.26C92.5016 185.188 92.0216 185.364 91.2536 185.364H90.0856V186.996ZM104.851 183.332L105.795 180.628H110.163L111.107 183.332H113.267L109.043 171.636H106.947L102.723 183.332H104.851ZM107.731 175.124C107.843 174.804 107.939 174.452 107.987 174.228C108.019 174.468 108.131 174.82 108.227 175.124L109.571 178.9H106.403L107.731 175.124ZM116.398 183.332V179.076C116.398 177.796 117.134 176.964 118.334 176.964C119.342 176.964 119.998 177.604 119.998 178.932V183.332H121.95V178.468C121.95 176.42 120.926 175.188 118.942 175.188C117.87 175.188 116.91 175.652 116.414 176.452L116.254 175.428H114.446V183.332H116.398ZM125.819 183.332V179.076C125.819 177.796 126.555 176.964 127.755 176.964C128.763 176.964 129.419 177.604 129.419 178.932V183.332H131.371V178.468C131.371 176.42 130.347 175.188 128.363 175.188C127.291 175.188 126.331 175.652 125.835 176.452L125.675 175.428H123.867V183.332H125.819ZM132.825 179.364C132.825 181.828 134.601 183.524 137.049 183.524C139.497 183.524 141.273 181.828 141.273 179.364C141.273 176.9 139.497 175.204 137.049 175.204C134.601 175.204 132.825 176.9 132.825 179.364ZM134.777 179.364C134.777 177.924 135.705 176.948 137.049 176.948C138.393 176.948 139.321 177.924 139.321 179.364C139.321 180.804 138.393 181.78 137.049 181.78C135.705 181.78 134.777 180.804 134.777 179.364ZM147.993 175.428V179.572C147.993 181.076 147.401 181.796 146.169 181.796C145.081 181.796 144.489 181.188 144.489 179.684V175.428H142.537V180.372C142.537 182.308 143.609 183.54 145.433 183.54C146.489 183.54 147.513 183.028 147.993 182.276L148.137 183.332H149.945V175.428H147.993ZM153.913 183.332V179.076C153.913 177.796 154.649 176.964 155.849 176.964C156.857 176.964 157.513 177.604 157.513 178.932V183.332H159.465V178.468C159.465 176.42 158.441 175.188 156.457 175.188C155.385 175.188 154.425 175.652 153.929 176.452L153.769 175.428H151.961V183.332H153.913ZM160.919 179.364C160.919 181.876 162.487 183.54 164.887 183.54C166.951 183.54 168.487 182.276 168.727 180.436H166.759C166.551 181.3 165.863 181.78 164.887 181.78C163.639 181.78 162.871 180.852 162.871 179.364C162.871 177.876 163.703 176.932 164.951 176.932C165.879 176.932 166.535 177.396 166.759 178.292H168.711C168.503 176.388 167.031 175.188 164.871 175.188C162.535 175.188 160.919 176.916 160.919 179.364ZM173.716 183.54C175.78 183.54 177.22 182.5 177.556 180.772H175.748C175.524 181.524 174.82 181.94 173.748 181.94C172.452 181.94 171.716 181.236 171.572 179.844L177.524 179.828V179.236C177.524 176.772 176.02 175.188 173.652 175.188C171.332 175.188 169.716 176.9 169.716 179.38C169.716 181.828 171.364 183.54 173.716 183.54ZM173.668 176.788C174.836 176.788 175.588 177.508 175.588 178.596H171.62C171.812 177.412 172.516 176.788 173.668 176.788ZM181.038 183.332V178.852C181.038 177.572 181.79 176.964 182.718 176.964C183.646 176.964 184.238 177.556 184.238 178.66V183.332H186.19V178.852C186.19 177.556 186.91 176.948 187.854 176.948C188.782 176.948 189.39 177.54 189.39 178.676V183.332H191.326V178.164C191.326 176.34 190.27 175.188 188.35 175.188C187.15 175.188 186.222 175.78 185.822 176.692C185.406 175.78 184.574 175.188 183.374 175.188C182.238 175.188 181.438 175.7 181.038 176.356L180.878 175.428H179.086V183.332H181.038ZM196.778 183.54C198.842 183.54 200.282 182.5 200.618 180.772H198.81C198.586 181.524 197.882 181.94 196.81 181.94C195.514 181.94 194.778 181.236 194.634 179.844L200.586 179.828V179.236C200.586 176.772 199.082 175.188 196.714 175.188C194.394 175.188 192.778 176.9 192.778 179.38C192.778 181.828 194.426 183.54 196.778 183.54ZM196.73 176.788C197.898 176.788 198.65 177.508 198.65 178.596H194.682C194.874 177.412 195.578 176.788 196.73 176.788ZM204.101 183.332V179.076C204.101 177.796 204.837 176.964 206.037 176.964C207.045 176.964 207.701 177.604 207.701 178.932V183.332H209.653V178.468C209.653 176.42 208.629 175.188 206.645 175.188C205.573 175.188 204.613 175.652 204.117 176.452L203.957 175.428H202.149V183.332H204.101ZM214.259 183.332V177.06H215.795V175.428H214.259V172.964H212.307V175.428H210.787V177.06H212.307V183.332H214.259ZM216.4 180.932C216.4 182.484 217.648 183.54 219.616 183.54C221.568 183.54 222.928 182.548 222.928 180.948C222.928 179.732 222.256 179.124 220.928 178.82L219.504 178.484C218.832 178.324 218.48 178.036 218.48 177.588C218.48 176.996 218.928 176.644 219.696 176.644C220.448 176.644 220.896 177.076 220.912 177.748H222.768C222.752 176.212 221.552 175.188 219.776 175.188C217.952 175.188 216.64 176.116 216.64 177.668C216.64 178.932 217.328 179.604 218.752 179.924L220.176 180.26C220.88 180.42 221.088 180.708 221.088 181.108C221.088 181.684 220.592 182.052 219.68 182.052C218.784 182.052 218.272 181.62 218.256 180.932H216.4ZM29.312 246.332V238.044L34.816 246.332H36.832V234.636H34.816V242.924L29.328 234.636H27.296V246.332H29.312ZM38.669 242.364C38.669 244.828 40.445 246.524 42.893 246.524C45.341 246.524 47.117 244.828 47.117 242.364C47.117 239.9 45.341 238.204 42.893 238.204C40.445 238.204 38.669 239.9 38.669 242.364ZM40.621 242.364C40.621 240.924 41.549 239.948 42.893 239.948C44.237 239.948 45.165 240.924 45.165 242.364C45.165 243.804 44.237 244.78 42.893 244.78C41.549 244.78 40.621 243.804 40.621 242.364ZM51.2741 246.332V240.06H52.8101V238.428H51.2741V235.964H49.3221V238.428H47.8021V240.06H49.3221V246.332H51.2741ZM54.9996 236.844C55.6396 236.844 56.1676 236.316 56.1676 235.66C56.1676 235.004 55.6396 234.492 54.9996 234.492C54.3276 234.492 53.7996 235.004 53.7996 235.66C53.7996 236.316 54.3276 236.844 54.9996 236.844ZM54.0236 246.332H55.9756V238.428H54.0236V246.332ZM63.5124 246.332H65.4644V238.428H60.2804V237.468C60.2804 236.684 60.5044 236.172 61.3844 236.172H62.0724V234.508C61.7364 234.444 61.3684 234.428 61.0644 234.428C59.4644 234.428 58.3444 235.324 58.3444 237.468V238.428H57.2084V240.06H58.3444V246.332H60.2804V240.06H63.5124V246.332ZM64.4884 236.812C65.1284 236.812 65.6404 236.3 65.6404 235.644C65.6404 235.004 65.1284 234.492 64.4884 234.492C63.8324 234.492 63.3204 235.004 63.3204 235.644C63.3204 236.3 63.8324 236.812 64.4884 236.812ZM67.0128 242.364C67.0128 244.876 68.5807 246.54 70.9808 246.54C73.0448 246.54 74.5808 245.276 74.8208 243.436H72.8528C72.6448 244.3 71.9568 244.78 70.9808 244.78C69.7328 244.78 68.9648 243.852 68.9648 242.364C68.9648 240.876 69.7968 239.932 71.0448 239.932C71.9728 239.932 72.6288 240.396 72.8528 241.292H74.8048C74.5968 239.388 73.1248 238.188 70.9648 238.188C68.6288 238.188 67.0128 239.916 67.0128 242.364ZM78.6256 246.54C79.8576 246.54 80.9296 245.98 81.2656 245.164L81.4096 246.332H83.1216V241.532C83.1216 239.34 81.8096 238.188 79.6816 238.188C77.5376 238.188 76.1296 239.308 76.1296 241.02H77.7936C77.7936 240.188 78.4336 239.708 79.5856 239.708C80.5776 239.708 81.2176 240.14 81.2176 241.212V241.388L78.8496 241.564C76.9776 241.708 75.9216 242.62 75.9216 244.076C75.9216 245.564 76.9456 246.54 78.6256 246.54ZM79.2656 245.068C78.3856 245.068 77.9056 244.716 77.9056 243.996C77.9056 243.356 78.3696 242.956 79.5856 242.844L81.2336 242.716V243.132C81.2336 244.348 80.4656 245.068 79.2656 245.068ZM87.6179 246.332V240.06H89.1539V238.428H87.6179V235.964H85.6659V238.428H84.1459V240.06H85.6659V246.332H87.6179ZM91.3434 236.844C91.9834 236.844 92.5114 236.316 92.5114 235.66C92.5114 235.004 91.9834 234.492 91.3434 234.492C90.6714 234.492 90.1434 235.004 90.1434 235.66C90.1434 236.316 90.6714 236.844 91.3434 236.844ZM90.3674 246.332H92.3194V238.428H90.3674V246.332ZM93.8721 242.364C93.8721 244.828 95.6481 246.524 98.0961 246.524C100.544 246.524 102.32 244.828 102.32 242.364C102.32 239.9 100.544 238.204 98.0961 238.204C95.6481 238.204 93.8721 239.9 93.8721 242.364ZM95.8241 242.364C95.8241 240.924 96.7521 239.948 98.0961 239.948C99.4401 239.948 100.368 240.924 100.368 242.364C100.368 243.804 99.4401 244.78 98.0961 244.78C96.7521 244.78 95.8241 243.804 95.8241 242.364ZM105.819 246.332V242.076C105.819 240.796 106.555 239.964 107.755 239.964C108.763 239.964 109.419 240.604 109.419 241.932V246.332H111.371V241.468C111.371 239.42 110.347 238.188 108.363 238.188C107.291 238.188 106.331 238.652 105.835 239.452L105.675 238.428H103.867V246.332H105.819ZM112.588 243.932C112.588 245.484 113.836 246.54 115.804 246.54C117.756 246.54 119.116 245.548 119.116 243.948C119.116 242.732 118.444 242.124 117.116 241.82L115.692 241.484C115.02 241.324 114.668 241.036 114.668 240.588C114.668 239.996 115.116 239.644 115.884 239.644C116.636 239.644 117.084 240.076 117.1 240.748H118.956C118.94 239.212 117.74 238.188 115.964 238.188C114.14 238.188 112.828 239.116 112.828 240.668C112.828 241.932 113.516 242.604 114.94 242.924L116.364 243.26C117.068 243.42 117.276 243.708 117.276 244.108C117.276 244.684 116.78 245.052 115.868 245.052C114.972 245.052 114.46 244.62 114.444 243.932H112.588ZM34.56 310.332V308.444H29.344V305.34H34.016V303.532H29.344V300.524H34.56V298.636H27.296V310.332H34.56ZM38.4444 310.332V305.852C38.4444 304.572 39.1964 303.964 40.1244 303.964C41.0524 303.964 41.6444 304.556 41.6444 305.66V310.332H43.5964V305.852C43.5964 304.556 44.3164 303.948 45.2604 303.948C46.1884 303.948 46.7964 304.54 46.7964 305.676V310.332H48.7324V305.164C48.7324 303.34 47.6764 302.188 45.7564 302.188C44.5564 302.188 43.6284 302.78 43.2284 303.692C42.8124 302.78 41.9804 302.188 40.7804 302.188C39.6444 302.188 38.8444 302.7 38.4444 303.356L38.2844 302.428H36.4924V310.332H38.4444ZM50.6486 313.996H52.6006V309.276C53.0966 310.076 54.1206 310.54 55.3046 310.54C57.6566 310.54 59.0006 308.748 59.0006 306.284C59.0006 303.804 57.5286 302.188 55.3046 302.188C54.1046 302.188 53.0646 302.716 52.5846 303.628L52.4566 302.428H50.6486V313.996ZM52.6166 306.38C52.6166 304.956 53.4966 303.964 54.8406 303.964C56.2166 303.964 57.0326 304.972 57.0326 306.38C57.0326 307.788 56.2166 308.78 54.8406 308.78C53.4966 308.78 52.6166 307.804 52.6166 306.38ZM62.5229 310.332V298.428H60.5869V310.332H62.5229ZM64.1065 306.364C64.1065 308.828 65.8825 310.524 68.3305 310.524C70.7785 310.524 72.5545 308.828 72.5545 306.364C72.5545 303.9 70.7785 302.204 68.3305 302.204C65.8825 302.204 64.1065 303.9 64.1065 306.364ZM66.0585 306.364C66.0585 304.924 66.9865 303.948 68.3305 303.948C69.6745 303.948 70.6025 304.924 70.6025 306.364C70.6025 307.804 69.6745 308.78 68.3305 308.78C66.9865 308.78 66.0585 307.804 66.0585 306.364ZM73.1169 313.996C73.5489 314.108 74.0289 314.172 74.5729 314.172C75.8689 314.172 76.7009 313.564 77.2929 312.092L81.1649 302.428H79.1489L77.0049 308.188L74.9729 302.428H72.9089L76.0929 310.668L75.8689 311.26C75.5329 312.188 75.0529 312.364 74.2849 312.364H73.1169V313.996ZM85.4503 310.54C87.5143 310.54 88.9543 309.5 89.2903 307.772H87.4823C87.2583 308.524 86.5543 308.94 85.4823 308.94C84.1863 308.94 83.4503 308.236 83.3063 306.844L89.2583 306.828V306.236C89.2583 303.772 87.7543 302.188 85.3863 302.188C83.0663 302.188 81.4503 303.9 81.4503 306.38C81.4503 308.828 83.0983 310.54 85.4503 310.54ZM85.4023 303.788C86.5703 303.788 87.3223 304.508 87.3223 305.596H83.3543C83.5463 304.412 84.2503 303.788 85.4023 303.788ZM94.3565 310.54C96.4205 310.54 97.8605 309.5 98.1965 307.772H96.3885C96.1645 308.524 95.4605 308.94 94.3885 308.94C93.0925 308.94 92.3565 308.236 92.2125 306.844L98.1645 306.828V306.236C98.1645 303.772 96.6605 302.188 94.2925 302.188C91.9725 302.188 90.3565 303.9 90.3565 306.38C90.3565 308.828 92.0045 310.54 94.3565 310.54ZM94.3085 303.788C95.4765 303.788 96.2285 304.508 96.2285 305.596H92.2605C92.4525 304.412 93.1565 303.788 94.3085 303.788ZM103.655 301.9C103.655 303.692 104.695 304.828 106.679 305.26L108.535 305.676C109.495 305.884 109.895 306.348 109.895 307.132C109.895 308.108 109.031 308.7 107.671 308.7C106.359 308.7 105.559 308.108 105.543 307.116H103.495C103.543 309.212 105.175 310.54 107.671 310.54C110.247 310.54 111.943 309.132 111.943 306.956C111.943 305.212 110.967 304.188 108.967 303.756L107.127 303.356C106.151 303.132 105.703 302.668 105.703 301.836C105.703 300.86 106.519 300.252 107.783 300.252C108.935 300.252 109.655 300.844 109.703 301.852H111.751C111.687 299.74 110.183 298.428 107.815 298.428C105.351 298.428 103.655 299.852 103.655 301.9ZM117.044 310.54C119.108 310.54 120.548 309.5 120.884 307.772H119.076C118.852 308.524 118.148 308.94 117.076 308.94C115.78 308.94 115.044 308.236 114.9 306.844L120.852 306.828V306.236C120.852 303.772 119.348 302.188 116.98 302.188C114.66 302.188 113.044 303.9 113.044 306.38C113.044 308.828 114.692 310.54 117.044 310.54ZM116.996 303.788C118.164 303.788 118.916 304.508 118.916 305.596H114.948C115.14 304.412 115.844 303.788 116.996 303.788ZM124.382 310.332V298.428H122.446V310.332H124.382ZM125.646 302.428V304.06H126.782V310.332H128.718V304.06H130.606V302.428H128.718V301.468C128.718 300.684 128.958 300.172 129.95 300.172H130.638V298.508C130.302 298.444 129.934 298.428 129.63 298.428C127.918 298.428 126.782 299.324 126.782 301.468V302.428H125.646ZM135.78 301.9C135.78 303.692 136.82 304.828 138.804 305.26L140.66 305.676C141.62 305.884 142.02 306.348 142.02 307.132C142.02 308.108 141.156 308.7 139.796 308.7C138.484 308.7 137.684 308.108 137.668 307.116H135.62C135.668 309.212 137.3 310.54 139.796 310.54C142.372 310.54 144.068 309.132 144.068 306.956C144.068 305.212 143.092 304.188 141.092 303.756L139.252 303.356C138.276 303.132 137.828 302.668 137.828 301.836C137.828 300.86 138.644 300.252 139.908 300.252C141.06 300.252 141.78 300.844 141.828 301.852H143.876C143.812 299.74 142.308 298.428 139.94 298.428C137.476 298.428 135.78 299.852 135.78 301.9ZM149.169 310.54C151.233 310.54 152.673 309.5 153.009 307.772H151.201C150.977 308.524 150.273 308.94 149.201 308.94C147.905 308.94 147.169 308.236 147.025 306.844L152.977 306.828V306.236C152.977 303.772 151.473 302.188 149.105 302.188C146.785 302.188 145.169 303.9 145.169 306.38C145.169 308.828 146.817 310.54 149.169 310.54ZM149.121 303.788C150.289 303.788 151.041 304.508 151.041 305.596H147.073C147.265 304.412 147.969 303.788 149.121 303.788ZM159.499 302.396C159.179 302.316 158.907 302.284 158.635 302.284C157.579 302.284 156.827 302.812 156.491 303.596L156.379 302.444H154.539V310.332H156.491V306.492C156.491 304.956 157.371 304.204 158.779 304.204H159.499V302.396ZM163.295 310.332H165.215L168.511 302.428H166.495L165.055 306.06C164.719 306.924 164.431 307.756 164.319 308.252C164.223 307.82 163.951 307.004 163.615 306.06L162.239 302.428H160.159L163.295 310.332ZM170.609 300.844C171.249 300.844 171.777 300.316 171.777 299.66C171.777 299.004 171.249 298.492 170.609 298.492C169.937 298.492 169.409 299.004 169.409 299.66C169.409 300.316 169.937 300.844 170.609 300.844ZM169.633 310.332H171.585V302.428H169.633V310.332ZM173.138 306.364C173.138 308.876 174.706 310.54 177.106 310.54C179.17 310.54 180.706 309.276 180.946 307.436H178.978C178.77 308.3 178.082 308.78 177.106 308.78C175.858 308.78 175.09 307.852 175.09 306.364C175.09 304.876 175.922 303.932 177.17 303.932C178.098 303.932 178.754 304.396 178.978 305.292H180.93C180.722 303.388 179.25 302.188 177.09 302.188C174.754 302.188 173.138 303.916 173.138 306.364ZM185.935 310.54C187.999 310.54 189.439 309.5 189.775 307.772H187.967C187.743 308.524 187.039 308.94 185.967 308.94C184.671 308.94 183.935 308.236 183.791 306.844L189.743 306.828V306.236C189.743 303.772 188.239 302.188 185.871 302.188C183.551 302.188 181.935 303.9 181.935 306.38C181.935 308.828 183.583 310.54 185.935 310.54ZM185.887 303.788C187.055 303.788 187.807 304.508 187.807 305.596H183.839C184.031 304.412 184.735 303.788 185.887 303.788ZM29.344 373.332V368.372H34.528V373.332H36.576V361.636H34.528V366.468H29.344V361.636H27.296V373.332H29.344ZM41.219 373.332V368.964H43.731L45.715 373.332H47.955L45.731 368.532C47.107 367.972 47.843 366.852 47.843 365.284C47.843 362.98 46.291 361.636 43.635 361.636H39.171V373.332H41.219ZM41.219 363.46H43.635C44.931 363.46 45.699 364.116 45.699 365.284C45.699 366.468 44.931 367.156 43.635 367.156H41.219V363.46ZM56.2503 373.332V368.964H58.7623L60.7463 373.332H62.9863L60.7623 368.532C62.1383 367.972 62.8743 366.852 62.8743 365.284C62.8743 362.98 61.3223 361.636 58.6663 361.636H54.2023V373.332H56.2503ZM56.2503 363.46H58.6663C59.9623 363.46 60.7303 364.116 60.7303 365.284C60.7303 366.468 59.9623 367.156 58.6663 367.156H56.2503V363.46ZM67.6065 373.54C69.6705 373.54 71.1105 372.5 71.4465 370.772H69.6385C69.4145 371.524 68.7105 371.94 67.6385 371.94C66.3425 371.94 65.6065 371.236 65.4625 369.844L71.4145 369.828V369.236C71.4145 366.772 69.9105 365.188 67.5425 365.188C65.2225 365.188 63.6065 366.9 63.6065 369.38C63.6065 371.828 65.2545 373.54 67.6065 373.54ZM67.5585 366.788C68.7265 366.788 69.4785 367.508 69.4785 368.596H65.5105C65.7025 367.412 66.4065 366.788 67.5585 366.788ZM72.5128 369.284C72.5128 371.748 73.8568 373.54 76.2088 373.54C77.3768 373.54 78.4168 373.076 78.9128 372.276V376.996H80.8488V365.428H79.0568L78.9288 366.628C78.4488 365.716 77.4088 365.188 76.2088 365.188C73.9848 365.188 72.5128 366.804 72.5128 369.284ZM74.4648 369.38C74.4648 367.972 75.2968 366.964 76.6568 366.964C78.0168 366.964 78.8968 367.956 78.8968 369.38C78.8968 370.804 78.0168 371.78 76.6568 371.78C75.2968 371.78 74.4648 370.788 74.4648 369.38ZM88.243 365.428V369.572C88.243 371.076 87.651 371.796 86.419 371.796C85.331 371.796 84.739 371.188 84.739 369.684V365.428H82.787V370.372C82.787 372.308 83.859 373.54 85.683 373.54C86.739 373.54 87.763 373.028 88.243 372.276L88.387 373.332H90.195V365.428H88.243ZM95.5909 373.54C97.6549 373.54 99.0949 372.5 99.4309 370.772H97.6229C97.3989 371.524 96.6949 371.94 95.6229 371.94C94.3269 371.94 93.5909 371.236 93.4469 369.844L99.3989 369.828V369.236C99.3989 366.772 97.8949 365.188 95.5269 365.188C93.2069 365.188 91.5909 366.9 91.5909 369.38C91.5909 371.828 93.2389 373.54 95.5909 373.54ZM95.5429 366.788C96.7109 366.788 97.4629 367.508 97.4629 368.596H93.4949C93.6869 367.412 94.3909 366.788 95.5429 366.788ZM100.353 370.932C100.353 372.484 101.601 373.54 103.569 373.54C105.521 373.54 106.881 372.548 106.881 370.948C106.881 369.732 106.209 369.124 104.881 368.82L103.457 368.484C102.785 368.324 102.433 368.036 102.433 367.588C102.433 366.996 102.881 366.644 103.649 366.644C104.401 366.644 104.849 367.076 104.865 367.748H106.721C106.705 366.212 105.505 365.188 103.729 365.188C101.905 365.188 100.593 366.116 100.593 367.668C100.593 368.932 101.281 369.604 102.705 369.924L104.129 370.26C104.833 370.42 105.041 370.708 105.041 371.108C105.041 371.684 104.545 372.052 103.633 372.052C102.737 372.052 102.225 371.62 102.209 370.932H100.353ZM111.055 373.332V367.06H112.591V365.428H111.055V362.964H109.103V365.428H107.583V367.06H109.103V373.332H111.055ZM113.197 370.932C113.197 372.484 114.445 373.54 116.413 373.54C118.365 373.54 119.725 372.548 119.725 370.948C119.725 369.732 119.053 369.124 117.725 368.82L116.301 368.484C115.629 368.324 115.277 368.036 115.277 367.588C115.277 366.996 115.725 366.644 116.493 366.644C117.245 366.644 117.693 367.076 117.709 367.748H119.565C119.549 366.212 118.349 365.188 116.573 365.188C114.749 365.188 113.437 366.116 113.437 367.668C113.437 368.932 114.125 369.604 115.549 369.924L116.973 370.26C117.677 370.42 117.885 370.708 117.885 371.108C117.885 371.684 117.389 372.052 116.477 372.052C115.581 372.052 115.069 371.62 115.053 370.932H113.197ZM26.272 426.524H29.696V436.332H31.744V426.524H35.168V424.636H26.272V426.524ZM37.4215 426.844C38.0615 426.844 38.5895 426.316 38.5895 425.66C38.5895 425.004 38.0615 424.492 37.4215 424.492C36.7495 424.492 36.2215 425.004 36.2215 425.66C36.2215 426.316 36.7495 426.844 37.4215 426.844ZM36.4455 436.332H38.3975V428.428H36.4455V436.332ZM42.3663 436.332V431.852C42.3663 430.572 43.1183 429.964 44.0463 429.964C44.9743 429.964 45.5663 430.556 45.5663 431.66V436.332H47.5183V431.852C47.5183 430.556 48.2383 429.948 49.1823 429.948C50.1103 429.948 50.7183 430.54 50.7183 431.676V436.332H52.6543V431.164C52.6543 429.34 51.5983 428.188 49.6783 428.188C48.4783 428.188 47.5503 428.78 47.1503 429.692C46.7343 428.78 45.9023 428.188 44.7023 428.188C43.5663 428.188 42.7663 428.7 42.3663 429.356L42.2063 428.428H40.4143V436.332H42.3663ZM58.1065 436.54C60.1705 436.54 61.6105 435.5 61.9465 433.772H60.1385C59.9145 434.524 59.2105 434.94 58.1385 434.94C56.8425 434.94 56.1065 434.236 55.9625 432.844L61.9145 432.828V432.236C61.9145 429.772 60.4105 428.188 58.0425 428.188C55.7225 428.188 54.1065 429.9 54.1065 432.38C54.1065 434.828 55.7545 436.54 58.1065 436.54ZM58.0585 429.788C59.2265 429.788 59.9785 430.508 59.9785 431.596H56.0105C56.2025 430.412 56.9065 429.788 58.0585 429.788ZM70.1253 436.332V431.964H72.6373L74.6213 436.332H76.8613L74.6373 431.532C76.0133 430.972 76.7493 429.852 76.7493 428.284C76.7493 425.98 75.1973 424.636 72.5413 424.636H68.0773V436.332H70.1253ZM70.1253 426.46H72.5413C73.8373 426.46 74.6053 427.116 74.6053 428.284C74.6053 429.468 73.8373 430.156 72.5413 430.156H70.1253V426.46ZM81.4815 436.54C83.5455 436.54 84.9855 435.5 85.3215 433.772H83.5135C83.2895 434.524 82.5855 434.94 81.5135 434.94C80.2175 434.94 79.4815 434.236 79.3375 432.844L85.2895 432.828V432.236C85.2895 429.772 83.7855 428.188 81.4175 428.188C79.0975 428.188 77.4815 429.9 77.4815 432.38C77.4815 434.828 79.1295 436.54 81.4815 436.54ZM81.4335 429.788C82.6015 429.788 83.3535 430.508 83.3535 431.596H79.3855C79.5775 430.412 80.2815 429.788 81.4335 429.788ZM86.3878 432.284C86.3878 434.748 87.7318 436.54 90.0838 436.54C91.2518 436.54 92.2918 436.076 92.7878 435.276V439.996H94.7238V428.428H92.9318L92.8038 429.628C92.3238 428.716 91.2838 428.188 90.0838 428.188C87.8598 428.188 86.3878 429.804 86.3878 432.284ZM88.3398 432.38C88.3398 430.972 89.1718 429.964 90.5318 429.964C91.8918 429.964 92.7718 430.956 92.7718 432.38C92.7718 433.804 91.8918 434.78 90.5318 434.78C89.1718 434.78 88.3398 433.788 88.3398 432.38ZM102.118 428.428V432.572C102.118 434.076 101.526 434.796 100.294 434.796C99.206 434.796 98.614 434.188 98.614 432.684V428.428H96.662V433.372C96.662 435.308 97.734 436.54 99.558 436.54C100.614 436.54 101.638 436.028 102.118 435.276L102.262 436.332H104.07V428.428H102.118ZM109.466 436.54C111.53 436.54 112.97 435.5 113.306 433.772H111.498C111.274 434.524 110.57 434.94 109.498 434.94C108.202 434.94 107.466 434.236 107.322 432.844L113.274 432.828V432.236C113.274 429.772 111.77 428.188 109.402 428.188C107.082 428.188 105.466 429.9 105.466 432.38C105.466 434.828 107.114 436.54 109.466 436.54ZM109.418 429.788C110.586 429.788 111.338 430.508 111.338 431.596H107.37C107.562 430.412 108.266 429.788 109.418 429.788ZM114.228 433.932C114.228 435.484 115.476 436.54 117.444 436.54C119.396 436.54 120.756 435.548 120.756 433.948C120.756 432.732 120.084 432.124 118.756 431.82L117.332 431.484C116.66 431.324 116.308 431.036 116.308 430.588C116.308 429.996 116.756 429.644 117.524 429.644C118.276 429.644 118.724 430.076 118.74 430.748H120.596C120.58 429.212 119.38 428.188 117.604 428.188C115.78 428.188 114.468 429.116 114.468 430.668C114.468 431.932 115.156 432.604 116.58 432.924L118.004 433.26C118.708 433.42 118.916 433.708 118.916 434.108C118.916 434.684 118.42 435.052 117.508 435.052C116.612 435.052 116.1 434.62 116.084 433.932H114.228ZM124.93 436.332V430.06H126.466V428.428H124.93V425.964H122.978V428.428H121.458V430.06H122.978V436.332H124.93ZM127.072 433.932C127.072 435.484 128.32 436.54 130.288 436.54C132.24 436.54 133.6 435.548 133.6 433.948C133.6 432.732 132.928 432.124 131.6 431.82L130.176 431.484C129.504 431.324 129.152 431.036 129.152 430.588C129.152 429.996 129.6 429.644 130.368 429.644C131.12 429.644 131.568 430.076 131.584 430.748H133.44C133.424 429.212 132.224 428.188 130.448 428.188C128.624 428.188 127.312 429.116 127.312 430.668C127.312 431.932 128 432.604 129.424 432.924L130.848 433.26C131.552 433.42 131.76 433.708 131.76 434.108C131.76 434.684 131.264 435.052 130.352 435.052C129.456 435.052 128.944 434.62 128.928 433.932H127.072ZM32.24 500.524C35.008 500.524 37.152 498.892 37.6 496.428H35.472C35.088 497.724 33.872 498.556 32.288 498.556C30.144 498.556 28.768 496.956 28.768 494.476C28.768 491.98 30.128 490.412 32.288 490.412C33.84 490.412 35.008 491.212 35.408 492.572H37.568C37.168 490.06 35.104 488.444 32.336 488.444C28.912 488.444 26.624 490.86 26.624 494.492C26.624 498.156 28.832 500.524 32.24 500.524ZM44.5086 492.428V496.572C44.5086 498.076 43.9166 498.796 42.6846 498.796C41.5966 498.796 41.0046 498.188 41.0046 496.684V492.428H39.0526V497.372C39.0526 499.308 40.1246 500.54 41.9486 500.54C43.0046 500.54 44.0286 500.028 44.5086 499.276L44.6526 500.332H46.4606V492.428H44.5086ZM47.7125 497.932C47.7125 499.484 48.9605 500.54 50.9285 500.54C52.8805 500.54 54.2405 499.548 54.2405 497.948C54.2405 496.732 53.5685 496.124 52.2405 495.82L50.8165 495.484C50.1445 495.324 49.7925 495.036 49.7925 494.588C49.7925 493.996 50.2405 493.644 51.0085 493.644C51.7605 493.644 52.2085 494.076 52.2245 494.748H54.0805C54.0645 493.212 52.8645 492.188 51.0885 492.188C49.2645 492.188 47.9525 493.116 47.9525 494.668C47.9525 495.932 48.6405 496.604 50.0645 496.924L51.4885 497.26C52.1925 497.42 52.4005 497.708 52.4005 498.108C52.4005 498.684 51.9045 499.052 50.9925 499.052C50.0965 499.052 49.5845 498.62 49.5685 497.932H47.7125ZM58.4148 500.332V494.06H59.9508V492.428H58.4148V489.964H56.4628V492.428H54.9428V494.06H56.4628V500.332H58.4148ZM60.6221 496.364C60.6221 498.828 62.3981 500.524 64.8461 500.524C67.2941 500.524 69.0701 498.828 69.0701 496.364C69.0701 493.9 67.2941 492.204 64.8461 492.204C62.3981 492.204 60.6221 493.9 60.6221 496.364ZM62.5741 496.364C62.5741 494.924 63.5021 493.948 64.8461 493.948C66.1901 493.948 67.1181 494.924 67.1181 496.364C67.1181 497.804 66.1901 498.78 64.8461 498.78C63.5021 498.78 62.5741 497.804 62.5741 496.364ZM72.5694 500.332V495.852C72.5694 494.572 73.3214 493.964 74.2494 493.964C75.1774 493.964 75.7694 494.556 75.7694 495.66V500.332H77.7214V495.852C77.7214 494.556 78.4414 493.948 79.3854 493.948C80.3134 493.948 80.9214 494.54 80.9214 495.676V500.332H82.8574V495.164C82.8574 493.34 81.8014 492.188 79.8814 492.188C78.6814 492.188 77.7534 492.78 77.3534 493.692C76.9374 492.78 76.1054 492.188 74.9054 492.188C73.7694 492.188 72.9694 492.7 72.5694 493.356L72.4094 492.428H70.6174V500.332H72.5694ZM91.8061 500.332H93.8221L96.3661 491.82L98.8621 500.332H100.846L104.398 488.636H102.318L100.43 494.828C100.254 495.42 100.094 496.044 99.8701 497.132C99.6781 496.14 99.5021 495.468 99.3101 494.812L97.5021 488.636H95.2461L93.4061 494.812C93.1981 495.484 93.0221 496.092 92.8301 497.132C92.6541 496.108 92.4781 495.452 92.3021 494.812L90.4461 488.636H88.3181L91.8061 500.332ZM104.044 496.364C104.044 498.828 105.82 500.524 108.268 500.524C110.716 500.524 112.492 498.828 112.492 496.364C112.492 493.9 110.716 492.204 108.268 492.204C105.82 492.204 104.044 493.9 104.044 496.364ZM105.996 496.364C105.996 494.924 106.924 493.948 108.268 493.948C109.612 493.948 110.54 494.924 110.54 496.364C110.54 497.804 109.612 498.78 108.268 498.78C106.924 498.78 105.996 497.804 105.996 496.364ZM118.999 492.396C118.679 492.316 118.407 492.284 118.135 492.284C117.079 492.284 116.327 492.812 115.991 493.596L115.879 492.444H114.039V500.332H115.991V496.492C115.991 494.956 116.871 494.204 118.279 494.204H118.999V492.396ZM122.289 500.332V498.204L123.441 497.004L125.505 500.332H127.745L124.801 495.564L127.809 492.428H125.361L122.289 495.74V488.428H120.353V500.332H122.289ZM128.146 492.428V494.06H129.282V500.332H131.218V494.06H134.37V500.332H136.322V488.428H134.37V492.428H131.218V491.468C131.218 490.684 131.41 490.172 132.29 490.172H132.978V488.508C132.642 488.444 132.274 488.428 131.97 488.428C130.37 488.428 129.282 489.324 129.282 491.468V492.428H128.146ZM137.903 496.364C137.903 498.828 139.679 500.524 142.127 500.524C144.575 500.524 146.351 498.828 146.351 496.364C146.351 493.9 144.575 492.204 142.127 492.204C139.679 492.204 137.903 493.9 137.903 496.364ZM139.855 496.364C139.855 494.924 140.783 493.948 142.127 493.948C143.471 493.948 144.399 494.924 144.399 496.364C144.399 497.804 143.471 498.78 142.127 498.78C140.783 498.78 139.855 497.804 139.855 496.364ZM149.252 500.332H151.156L152.244 496.94C152.644 495.644 152.788 495.084 152.868 494.716C152.932 495.116 153.108 495.868 153.428 496.908L154.516 500.332H156.34L159.076 492.428H157.012L155.956 495.82C155.812 496.316 155.556 497.26 155.428 497.852C155.332 497.324 155.012 496.14 154.916 495.82L153.86 492.428H151.876L150.788 495.82C150.532 496.604 150.388 497.1 150.244 497.868C150.1 497.132 149.94 496.444 149.764 495.82L148.724 492.428H146.692L149.252 500.332ZM159.478 497.932C159.478 499.484 160.726 500.54 162.694 500.54C164.646 500.54 166.006 499.548 166.006 497.948C166.006 496.732 165.334 496.124 164.006 495.82L162.582 495.484C161.91 495.324 161.558 495.036 161.558 494.588C161.558 493.996 162.006 493.644 162.774 493.644C163.526 493.644 163.974 494.076 163.99 494.748H165.846C165.83 493.212 164.63 492.188 162.854 492.188C161.03 492.188 159.718 493.116 159.718 494.668C159.718 495.932 160.406 496.604 161.83 496.924L163.254 497.26C163.958 497.42 164.166 497.708 164.166 498.108C164.166 498.684 163.67 499.052 162.758 499.052C161.862 499.052 161.35 498.62 161.334 497.932H159.478ZM26.624 554.9C26.624 556.692 27.664 557.828 29.648 558.26L31.504 558.676C32.464 558.884 32.864 559.348 32.864 560.132C32.864 561.108 32 561.7 30.64 561.7C29.328 561.7 28.528 561.108 28.512 560.116H26.464C26.512 562.212 28.144 563.54 30.64 563.54C33.216 563.54 34.912 562.132 34.912 559.956C34.912 558.212 33.936 557.188 31.936 556.756L30.096 556.356C29.12 556.132 28.672 555.668 28.672 554.836C28.672 553.86 29.488 553.252 30.752 553.252C31.904 553.252 32.624 553.844 32.672 554.852H34.72C34.656 552.74 33.152 551.428 30.784 551.428C28.32 551.428 26.624 552.852 26.624 554.9ZM41.8368 555.428V559.572C41.8368 561.076 41.2448 561.796 40.0128 561.796C38.9248 561.796 38.3328 561.188 38.3328 559.684V555.428H36.3808V560.372C36.3808 562.308 37.4528 563.54 39.2768 563.54C40.3328 563.54 41.3568 563.028 41.8368 562.276L41.9808 563.332H43.7888V555.428H41.8368ZM50.7649 555.396C50.4449 555.316 50.1729 555.284 49.9009 555.284C48.8449 555.284 48.0929 555.812 47.7569 556.596L47.6449 555.444H45.8049V563.332H47.7569V559.492C47.7569 557.956 48.6369 557.204 50.0449 557.204H50.7649V555.396ZM54.5605 563.332H56.4805L59.7765 555.428H57.7605L56.3205 559.06C55.9845 559.924 55.6965 560.756 55.5845 561.252C55.4885 560.82 55.2165 560.004 54.8805 559.06L53.5045 555.428H51.4245L54.5605 563.332ZM64.044 563.54C66.108 563.54 67.548 562.5 67.884 560.772H66.076C65.852 561.524 65.148 561.94 64.076 561.94C62.78 561.94 62.044 561.236 61.9 559.844L67.852 559.828V559.236C67.852 556.772 66.348 555.188 63.98 555.188C61.66 555.188 60.044 556.9 60.044 559.38C60.044 561.828 61.692 563.54 64.044 563.54ZM63.996 556.788C65.164 556.788 65.916 557.508 65.916 558.596H61.948C62.14 557.412 62.844 556.788 63.996 556.788ZM68.4606 566.996C68.8926 567.108 69.3726 567.172 69.9166 567.172C71.2126 567.172 72.0446 566.564 72.6366 565.092L76.5086 555.428H74.4926L72.3486 561.188L70.3166 555.428H68.2526L71.4366 563.668L71.2126 564.26C70.8766 565.188 70.3966 565.364 69.6286 565.364H68.4606V566.996ZM76.8375 560.932C76.8375 562.484 78.0855 563.54 80.0535 563.54C82.0055 563.54 83.3655 562.548 83.3655 560.948C83.3655 559.732 82.6935 559.124 81.3655 558.82L79.9415 558.484C79.2695 558.324 78.9175 558.036 78.9175 557.588C78.9175 556.996 79.3655 556.644 80.1335 556.644C80.8855 556.644 81.3335 557.076 81.3495 557.748H83.2055C83.1895 556.212 81.9895 555.188 80.2135 555.188C78.3895 555.188 77.0775 556.116 77.0775 557.668C77.0775 558.932 77.7655 559.604 79.1895 559.924L80.6135 560.26C81.3175 560.42 81.5255 560.708 81.5255 561.108C81.5255 561.684 81.0295 562.052 80.1175 562.052C79.2215 562.052 78.7095 561.62 78.6935 560.932H76.8375ZM96.9679 563.332H99.2399L97.3359 561.188C97.9279 560.26 98.2479 559.092 98.2479 557.732H96.3439C96.3439 558.5 96.2319 559.172 96.0239 559.732L93.6719 557.092C95.1279 556.116 95.7519 555.188 95.7519 554.02C95.7519 552.5 94.5679 551.444 92.8559 551.444C91.1279 551.444 89.8639 552.564 89.8639 554.116C89.8639 554.996 90.2159 555.716 91.1279 556.772C89.3359 557.636 88.4079 558.804 88.4079 560.228C88.4079 562.196 90.1199 563.54 92.6639 563.54C94.0719 563.54 95.2559 563.156 96.1839 562.452L96.9679 563.332ZM91.7199 554.1C91.7199 553.412 92.1519 552.996 92.8559 552.996C93.5279 552.996 93.9439 553.396 93.9439 554.084C93.9439 554.884 93.5439 555.54 92.7279 556.02C91.9759 555.156 91.7199 554.676 91.7199 554.1ZM90.4719 560.036C90.4719 559.124 90.9679 558.452 92.0719 557.828L95.0479 561.172C94.4879 561.62 93.7679 561.86 92.8879 561.86C91.3839 561.86 90.4719 561.172 90.4719 560.036ZM110.821 558.548V556.708H106.469V553.524H111.653V551.636H104.421V563.332H106.469V558.548H110.821ZM116.138 563.54C118.202 563.54 119.642 562.5 119.978 560.772H118.17C117.946 561.524 117.242 561.94 116.17 561.94C114.874 561.94 114.138 561.236 113.994 559.844L119.946 559.828V559.236C119.946 556.772 118.442 555.188 116.074 555.188C113.754 555.188 112.138 556.9 112.138 559.38C112.138 561.828 113.786 563.54 116.138 563.54ZM116.09 556.788C117.258 556.788 118.01 557.508 118.01 558.596H114.042C114.234 557.412 114.938 556.788 116.09 556.788ZM125.044 563.54C127.108 563.54 128.548 562.5 128.884 560.772H127.076C126.852 561.524 126.148 561.94 125.076 561.94C123.78 561.94 123.044 561.236 122.9 559.844L128.852 559.828V559.236C128.852 556.772 127.348 555.188 124.98 555.188C122.66 555.188 121.044 556.9 121.044 559.38C121.044 561.828 122.692 563.54 125.044 563.54ZM124.996 556.788C126.164 556.788 126.916 557.508 126.916 558.596H122.948C123.14 557.412 123.844 556.788 124.996 556.788ZM133.662 563.54C134.862 563.54 135.886 563.012 136.366 562.1L136.494 563.332H138.286V551.428H136.35V556.436C135.854 555.652 134.878 555.188 133.774 555.188C131.39 555.188 129.95 556.948 129.95 559.412C129.95 561.86 131.374 563.54 133.662 563.54ZM134.094 561.748C132.734 561.748 131.902 560.756 131.902 559.348C131.902 557.94 132.734 556.932 134.094 556.932C135.454 556.932 136.334 557.924 136.334 559.348C136.334 560.772 135.454 561.748 134.094 561.748ZM142.129 563.332L142.257 562.1C142.721 563.012 143.729 563.54 144.913 563.54C147.185 563.54 148.673 561.86 148.673 559.428C148.673 556.932 147.297 555.172 145.041 555.172C143.841 555.172 142.785 555.7 142.273 556.58V551.428H140.321V563.332H142.129ZM142.289 559.348C142.289 557.924 143.169 556.932 144.513 556.932C145.889 556.932 146.705 557.94 146.705 559.348C146.705 560.756 145.889 561.748 144.513 561.748C143.169 561.748 142.289 560.772 142.289 559.348ZM152.579 563.54C153.811 563.54 154.883 562.98 155.219 562.164L155.363 563.332H157.075V558.532C157.075 556.34 155.763 555.188 153.635 555.188C151.491 555.188 150.083 556.308 150.083 558.02H151.747C151.747 557.188 152.387 556.708 153.539 556.708C154.531 556.708 155.171 557.14 155.171 558.212V558.388L152.803 558.564C150.931 558.708 149.875 559.62 149.875 561.076C149.875 562.564 150.899 563.54 152.579 563.54ZM153.219 562.068C152.339 562.068 151.859 561.716 151.859 560.996C151.859 560.356 152.323 559.956 153.539 559.844L155.187 559.716V560.132C155.187 561.348 154.419 562.068 153.219 562.068ZM158.528 559.364C158.528 561.876 160.096 563.54 162.496 563.54C164.56 563.54 166.096 562.276 166.336 560.436H164.368C164.16 561.3 163.472 561.78 162.496 561.78C161.248 561.78 160.48 560.852 160.48 559.364C160.48 557.876 161.312 556.932 162.56 556.932C163.488 556.932 164.144 557.396 164.368 558.292H166.32C166.112 556.388 164.64 555.188 162.48 555.188C160.144 555.188 158.528 556.916 158.528 559.364ZM169.757 563.332V561.204L170.909 560.004L172.973 563.332H175.213L172.269 558.564L175.277 555.428H172.829L169.757 558.74V551.428H167.821V563.332H169.757Z" fill="#043344"/>
<line x1="348.5" y1="79.2212" x2="348.5" y2="587.221" stroke="#5D728C"/>
<line x1="767.244" y1="79.2212" x2="767.244" y2="587.221" stroke="#5D728C"/>
</svg>
