<svg width="12" height="12" viewBox="0 0 12 12" fill="none" xmlns="http://www.w3.org/2000/svg">
<path fill-rule="evenodd" clip-rule="evenodd" d="M9.29289 4.00004C9.48816 3.80478 9.80474 3.80478 10 4.00004C10.1953 4.1953 10.1953 4.51188 10 4.70714L6 8.70715L2 4.70714C1.80474 4.51188 1.80474 4.1953 2 4.00004C2.19526 3.80478 2.51184 3.80478 2.70711 4.00004L6 7.29293L9.29289 4.00004Z" fill="#1A938A"/>
<mask id="mask0_1_1042" style="mask-type:luminance" maskUnits="userSpaceOnUse" x="1" y="3" width="10" height="6">
<path fill-rule="evenodd" clip-rule="evenodd" d="M9.29289 4.00004C9.48816 3.80478 9.80474 3.80478 10 4.00004C10.1953 4.1953 10.1953 4.51188 10 4.70714L6 8.70715L2 4.70714C1.80474 4.51188 1.80474 4.1953 2 4.00004C2.19526 3.80478 2.51184 3.80478 2.70711 4.00004L6 7.29293L9.29289 4.00004Z" fill="white"/>
</mask>
<g mask="url(#mask0_1_1042)">
</g>
</svg>
