<svg width="793" height="645" viewBox="0 0 793 645" fill="none" xmlns="http://www.w3.org/2000/svg">
<path d="M438.048 597.381H60.4139C42.5812 597.381 25.4478 589.25 13.909 575.463C2.37023 561.323 -2.17536 543.294 0.971632 525.265C23.3499 405.072 127.549 317.756 248.882 317.756C370.214 317.756 474.413 405.072 496.791 525.265C500.288 543.294 495.393 561.323 483.854 575.463C473.014 589.25 455.881 597.381 438.048 597.381ZM249.231 366.893C151.326 366.893 67.4072 437.242 49.2248 534.103C48.5255 538.699 50.2738 541.88 51.6724 543.648C53.0711 545.062 55.8683 547.89 60.4139 547.89H438.048C442.594 547.89 445.391 545.415 446.79 543.648C448.188 542.234 449.937 538.699 449.237 534.103C431.055 437.242 347.136 366.893 249.231 366.893Z" fill="#EC9A2B"/>
<path d="M752.745 298.262C784.459 346.936 809.922 410.971 776.302 468.755C751.347 511.688 701.917 508.693 660.641 513.237C649.262 515.514 642.21 523.621 636.45 533.366C616.243 566.118 607.131 601.146 577.061 625.549C550.12 646.903 513.952 647.449 482.254 639.35C471.278 636.527 460.624 632.493 450.378 627.479C399.165 602.413 358.165 552.905 334.713 502.69C328.691 490.383 322.977 478.294 317.161 466.949C313.026 458.172 308.907 449.234 305.011 440.161C285.532 394.782 271.575 345.949 288.794 296.352C293.808 281.128 302.78 266.635 314.672 255.551C326.563 244.467 341.363 236.795 358.027 235.238C376.877 233.498 394.991 241.506 409.511 252.776C417.701 259.239 425.463 266.245 433.197 273.204C440.934 280.167 448.641 287.089 456.725 293.392C464.556 300.672 473.386 306.314 482.791 310.316C495.856 315.937 510.319 318 524.423 316.535C538.526 315.069 552.298 310.059 564.143 301.499C606.24 267.787 665.763 232.701 717.95 263.683C730.489 272.54 742.14 283.893 752.755 298.257L752.745 298.262Z" fill="#E6E3DF"/>
<path d="M383 133.457C383 207.292 323.113 266.915 248.95 266.915C175.136 266.915 114.9 207.292 114.9 133.457C114.9 59.623 175.136 0 248.95 0C323.113 0 383 59.623 383 133.457Z" fill="#1A938A"/>
<g filter="url(#filter0_ddd_1_52)">
<path d="M713 76H173C159.193 76 148 87.1929 148 101V522C148 535.807 159.193 547 173 547H713C726.807 547 738 535.807 738 522V101C738 87.1929 726.807 76 713 76Z" fill="white"/>
</g>
<g filter="url(#filter1_ddd_1_52)">
<path d="M712 84H174C164.059 84 156 92.0589 156 102V521C156 530.941 164.059 539 174 539H712C721.941 539 730 530.941 730 521V102C730 92.0589 721.941 84 712 84Z" fill="white"/>
</g>
<g filter="url(#filter2_ddd_1_52)">
<path d="M712 254H174C164.059 254 156 262.059 156 272V521C156 530.941 164.059 539 174 539H712C721.941 539 730 530.941 730 521V272C730 262.059 721.941 254 712 254Z" fill="white"/>
</g>
<path d="M198.19 272.452C199.036 272.452 199.588 271.864 199.588 271.054C199.588 270.22 199.042 269.662 198.19 269.662H196.504V274H197.092V272.452H198.19ZM198.088 270.19C198.64 270.19 198.97 270.502 198.97 271.048C198.97 271.582 198.646 271.924 198.064 271.924H197.092V270.19H198.088ZM200.229 274L200.613 272.92H202.437L202.827 274H203.445L201.855 269.662H201.201L199.617 274H200.229ZM201.453 270.598C201.483 270.508 201.513 270.406 201.525 270.346C201.537 270.412 201.567 270.514 201.597 270.598L202.263 272.41H200.793L201.453 270.598ZM204.614 272.236V274H205.202V272.236L206.66 269.662H206.018L205.058 271.396C204.98 271.54 204.968 271.576 204.914 271.684C204.866 271.582 204.83 271.498 204.77 271.396L203.804 269.662H203.144L204.614 272.236ZM207.803 274V272.146C207.803 271.54 207.791 271.096 207.761 270.886L209.021 274H209.573L210.839 270.874C210.809 271.18 210.803 271.474 210.803 272.284V274H211.379V269.662H210.791L209.297 273.31L207.803 269.662H207.227V274H207.803ZM215.035 274V273.454H212.977V272.08H214.831V271.558H212.977V270.202H215.035V269.662H212.389V274H215.035ZM216.475 274V270.646L218.695 274H219.283V269.662H218.695V273.016L216.475 269.662H215.887V274H216.475ZM219.873 270.202H221.181V274H221.769V270.202H223.071V269.662H219.873V270.202ZM225.879 274V272.146C225.879 271.54 225.867 271.096 225.837 270.886L227.097 274H227.649L228.915 270.874C228.885 271.18 228.879 271.474 228.879 272.284V274H229.455V269.662H228.867L227.373 273.31L225.879 269.662H225.303V274H225.879ZM234.377 271.828C234.377 270.508 233.519 269.584 232.289 269.584C231.065 269.584 230.207 270.514 230.207 271.828C230.207 273.148 231.059 274.072 232.283 274.072C233.513 274.072 234.377 273.148 234.377 271.828ZM233.759 271.828C233.759 272.83 233.171 273.508 232.289 273.508C231.407 273.508 230.825 272.836 230.825 271.828C230.825 270.82 231.407 270.154 232.289 270.154C233.171 270.154 233.759 270.82 233.759 271.828ZM235.717 274V270.646L237.937 274H238.525V269.662H237.937V273.016L235.717 269.662H235.129V274H235.717ZM239.115 270.202H240.423V274H241.011V270.202H242.313V269.662H239.115V270.202ZM243.492 274V272.074H245.64V274H246.228V269.662H245.64V271.528H243.492V269.662H242.904V274H243.492ZM247.282 270.598C247.456 270.664 247.594 270.688 247.774 270.712C247.66 270.814 247.558 270.916 247.432 271.096L247.198 271.432L247.48 271.624L247.72 271.294C247.84 271.132 247.906 270.994 247.954 270.85C248.008 270.976 248.074 271.114 248.2 271.294L248.434 271.624L248.71 271.432L248.476 271.096C248.362 270.916 248.272 270.82 248.146 270.712C248.284 270.694 248.44 270.67 248.638 270.598L249.034 270.46L248.908 270.142L248.53 270.274C248.32 270.346 248.2 270.418 248.074 270.496C248.104 270.358 248.128 270.202 248.128 269.992V269.578H247.792V269.992C247.792 270.202 247.81 270.346 247.846 270.496C247.72 270.412 247.6 270.346 247.384 270.274L247.012 270.148L246.892 270.46L247.282 270.598Z" fill="#93A5B1"/>
<path d="M394.658 235V232.6H389.73V230.152H394.098V227.88H389.73V225.56H394.658V223.16H387.138V235H394.658ZM398.507 235L399.851 232.696L401.227 235H404.059L401.515 231.08L404.155 227H401.403L400.027 229.432L398.555 227H395.707L398.395 231.128L395.707 235H398.507ZM405.241 238.84H407.705V234.2C408.169 234.808 409.193 235.224 410.297 235.224C412.681 235.224 414.057 233.4 414.057 230.872C414.057 228.296 412.505 226.744 410.281 226.744C409.145 226.744 408.137 227.24 407.689 227.976L407.561 227H405.241V238.84ZM407.721 231C407.721 229.8 408.521 229 409.673 229C410.841 229 411.577 229.816 411.577 231C411.577 232.184 410.841 233 409.673 233C408.521 233 407.721 232.2 407.721 231ZM419.187 235.208C421.379 235.208 422.963 234.072 423.251 232.296H420.995C420.819 232.872 420.163 233.208 419.235 233.208C418.147 233.208 417.555 232.712 417.411 231.656L423.219 231.624V231C423.219 228.392 421.651 226.744 419.139 226.744C416.723 226.744 415.043 228.488 415.043 230.984C415.043 233.448 416.771 235.208 419.187 235.208ZM419.155 228.744C420.147 228.744 420.771 229.288 420.771 230.136H417.443C417.635 229.176 418.179 228.744 419.155 228.744ZM427.142 235V230.616C427.142 229.624 427.766 228.984 428.742 228.984C429.59 228.984 430.15 229.64 430.15 230.648V235H432.614V230.056C432.614 227.96 431.51 226.744 429.606 226.744C428.566 226.744 427.654 227.144 427.158 227.832L426.998 227H424.678V235H427.142ZM433.711 232.472C433.711 234.088 435.039 235.208 437.151 235.208C439.231 235.208 440.687 234.168 440.687 232.456C440.687 231.176 439.967 230.568 438.655 230.28L437.167 229.96C436.607 229.832 436.303 229.624 436.303 229.256C436.303 228.824 436.655 228.536 437.215 228.536C437.807 228.536 438.143 228.904 438.143 229.448H440.479C440.479 227.832 439.183 226.744 437.327 226.744C435.407 226.744 433.983 227.704 433.983 229.368C433.983 230.776 434.703 231.416 436.175 231.736L437.647 232.056C438.239 232.184 438.367 232.44 438.367 232.68C438.367 233.096 438.015 233.368 437.247 233.368C436.495 233.368 436.079 233.032 436.047 232.472H433.711ZM445.687 235.208C447.879 235.208 449.463 234.072 449.751 232.296H447.495C447.319 232.872 446.663 233.208 445.735 233.208C444.647 233.208 444.055 232.712 443.911 231.656L449.719 231.624V231C449.719 228.392 448.151 226.744 445.639 226.744C443.223 226.744 441.543 228.488 441.543 230.984C441.543 233.448 443.271 235.208 445.687 235.208ZM445.655 228.744C446.647 228.744 447.271 229.288 447.271 230.136H443.943C444.135 229.176 444.679 228.744 445.655 228.744ZM460.836 235.192C463.796 235.192 466.004 233.448 466.42 230.808H463.732C463.412 231.976 462.34 232.696 460.884 232.696C458.98 232.696 457.796 231.304 457.796 229.08C457.796 226.824 458.964 225.464 460.884 225.464C462.308 225.464 463.316 226.136 463.668 227.32H466.404C466.036 224.664 463.908 222.968 460.948 222.968C457.412 222.968 455.06 225.4 455.06 229.096C455.06 232.84 457.284 235.192 460.836 235.192ZM470.236 235V222.936H467.772V235H470.236ZM474.5 235.208C475.7 235.208 476.756 234.68 477.012 233.944L477.172 235H479.348V230.328C479.348 228.04 478.036 226.744 475.716 226.744C473.428 226.744 471.94 227.928 471.94 229.736H473.988C473.988 229.016 474.548 228.616 475.588 228.616C476.468 228.616 476.948 229.032 476.948 229.816V229.944L474.708 230.12C472.788 230.264 471.748 231.176 471.748 232.648C471.748 234.216 472.804 235.208 474.5 235.208ZM475.364 233.384C474.612 233.384 474.26 233.112 474.26 232.536C474.26 232.024 474.644 231.784 475.716 231.688L476.964 231.576V232.008C476.964 232.92 476.308 233.384 475.364 233.384ZM482.332 225.752C483.1 225.752 483.724 225.128 483.724 224.344C483.724 223.56 483.1 222.952 482.332 222.952C481.548 222.952 480.924 223.56 480.924 224.344C480.924 225.128 481.548 225.752 482.332 225.752ZM481.116 235H483.58V227H481.116V235ZM487.892 235V230.712C487.892 229.368 488.612 228.984 489.316 228.984C490.1 228.984 490.612 229.464 490.612 230.456V235H493.076V230.712C493.076 229.352 493.78 228.968 494.484 228.968C495.268 228.968 495.796 229.448 495.796 230.456V235H498.26V229.768C498.26 227.944 497.236 226.744 495.172 226.744C494.02 226.744 493.076 227.304 492.66 228.152C492.196 227.304 491.428 226.744 490.228 226.744C489.076 226.744 488.292 227.272 487.892 227.832L487.732 227H485.428V235H487.892Z" fill="#284B64"/>
<path d="M156 102C156 92.0589 164.059 84 174 84H712C721.941 84 730 92.0589 730 102V187H156V102Z" fill="url(#paint0_radial_1_52)"/>
<path d="M443 209C459.016 209 472 196.016 472 180C472 163.984 459.016 151 443 151C426.984 151 414 163.984 414 180C414 196.016 426.984 209 443 209Z" fill="#EC9A2B"/>
<path fill-rule="evenodd" clip-rule="evenodd" d="M435 174.667C435 173.93 435.597 173.333 436.333 173.333H447C447.736 173.333 448.333 173.93 448.333 174.667C448.333 175.403 447.736 176 447 176H436.333C435.597 176 435 175.403 435 174.667Z" fill="white"/>
<path fill-rule="evenodd" clip-rule="evenodd" d="M435 180C435 179.264 435.597 178.667 436.333 178.667H442.333C443.07 178.667 443.667 179.264 443.667 180C443.667 180.736 443.07 181.333 442.333 181.333H436.333C435.597 181.333 435 180.736 435 180Z" fill="white"/>
<path fill-rule="evenodd" clip-rule="evenodd" d="M435 185.333C435 184.597 435.597 184 436.333 184H442.333C443.07 184 443.667 184.597 443.667 185.333C443.667 186.07 443.07 186.667 442.333 186.667H436.333C435.597 186.667 435 186.07 435 185.333Z" fill="white"/>
<path d="M433.667 166.667C431.458 166.667 429.667 168.458 429.667 170.667V189.333C429.667 191.542 431.458 193.333 433.667 193.333H445.667L443 190.667H433.667C432.93 190.667 432.333 190.07 432.333 189.333V170.667C432.333 169.93 432.93 169.333 433.667 169.333H449.667C450.403 169.333 451 169.93 451 170.667V176.444L453.667 178.222V170.667C453.667 168.458 451.876 166.667 449.667 166.667H433.667Z" fill="white"/>
<path d="M449.667 174.667C445.2 174.667 441.667 177.042 441.667 180.033V189.302C441.667 192.319 445.173 194.667 449.667 194.667C454.16 194.667 457.667 192.305 457.667 189.301V180.139C457.64 177.042 454.133 174.667 449.667 174.667ZM455 189.555C455 190.722 452.733 192.023 449.667 192.023C446.6 192.023 444.333 190.682 444.333 189.555V189.274C444.333 189.248 444.338 189.222 444.35 189.201C444.363 189.179 444.38 189.159 444.402 189.145C444.423 189.132 444.448 189.124 444.473 189.123C444.499 189.121 444.523 189.127 444.546 189.139C446.135 189.905 447.854 190.266 449.64 190.266C451.412 190.266 453.197 189.906 454.786 189.139C454.809 189.127 454.833 189.121 454.859 189.123C454.884 189.124 454.909 189.132 454.93 189.145C454.941 189.152 454.951 189.16 454.959 189.169C454.977 189.188 454.985 189.213 454.991 189.239C454.996 189.262 454.999 189.286 454.999 189.31L455 189.555ZM455 184.942C455 186.108 452.733 187.41 449.667 187.41C446.6 187.41 444.333 186.068 444.333 184.942V184.66C444.333 184.634 444.338 184.609 444.35 184.587C444.363 184.564 444.38 184.545 444.402 184.532C444.423 184.518 444.448 184.51 444.473 184.509C444.499 184.508 444.523 184.513 444.546 184.525C446.135 185.291 447.854 185.653 449.64 185.653C451.412 185.653 453.197 185.292 454.786 184.525C454.809 184.513 454.833 184.508 454.859 184.509C454.884 184.51 454.909 184.518 454.93 184.532C454.947 184.542 454.961 184.555 454.972 184.571C454.979 184.581 454.983 184.593 454.986 184.605C454.995 184.642 454.999 184.679 454.999 184.716V184.942H455ZM449.667 182.667C446.627 182.667 444.333 181.267 444.333 180.033C444.333 178.799 446.6 177.334 449.667 177.334C452.733 177.334 455 178.785 455 180.033C455 181.28 452.706 182.667 449.667 182.667Z" fill="white"/>
<path d="M412.768 115.976C414.52 115.976 415.672 114.788 415.672 113.096C415.672 111.38 414.532 110.228 412.768 110.228H409.3V119H410.836V115.976H412.768ZM412.468 111.596C413.488 111.596 414.064 112.124 414.064 113.084C414.064 114.044 413.5 114.608 412.444 114.608H410.836V111.596H412.468ZM418.278 119.156C419.202 119.156 420.006 118.736 420.258 118.124L420.366 119H421.65V115.4C421.65 113.756 420.666 112.892 419.07 112.892C417.462 112.892 416.406 113.732 416.406 115.016H417.654C417.654 114.392 418.134 114.032 418.998 114.032C419.742 114.032 420.222 114.356 420.222 115.16V115.292L418.446 115.424C417.042 115.532 416.25 116.216 416.25 117.308C416.25 118.424 417.018 119.156 418.278 119.156ZM418.758 118.052C418.098 118.052 417.738 117.788 417.738 117.248C417.738 116.768 418.086 116.468 418.998 116.384L420.234 116.288V116.6C420.234 117.512 419.658 118.052 418.758 118.052ZM422.408 121.748C422.732 121.832 423.092 121.88 423.5 121.88C424.472 121.88 425.096 121.424 425.54 120.32L428.444 113.072H426.932L425.324 117.392L423.8 113.072H422.252L424.64 119.252L424.472 119.696C424.22 120.392 423.86 120.524 423.284 120.524H422.408V121.748ZM434.262 119V115.724H436.146L437.634 119H439.314L437.646 115.4C438.678 114.98 439.23 114.14 439.23 112.964C439.23 111.236 438.066 110.228 436.074 110.228H432.726V119H434.262ZM434.262 111.596H436.074C437.046 111.596 437.622 112.088 437.622 112.964C437.622 113.852 437.046 114.368 436.074 114.368H434.262V111.596ZM442.779 119.156C444.327 119.156 445.407 118.376 445.659 117.08H444.303C444.135 117.644 443.607 117.956 442.803 117.956C441.831 117.956 441.279 117.428 441.171 116.384L445.635 116.372V115.928C445.635 114.08 444.507 112.892 442.731 112.892C440.991 112.892 439.779 114.176 439.779 116.036C439.779 117.872 441.015 119.156 442.779 119.156ZM442.743 114.092C443.619 114.092 444.183 114.632 444.183 115.448H441.207C441.351 114.56 441.879 114.092 442.743 114.092ZM446.459 115.964C446.459 117.812 447.467 119.156 449.231 119.156C450.107 119.156 450.887 118.808 451.259 118.208V121.748H452.711V113.072H451.367L451.271 113.972C450.911 113.288 450.131 112.892 449.231 112.892C447.563 112.892 446.459 114.104 446.459 115.964ZM447.923 116.036C447.923 114.98 448.547 114.224 449.567 114.224C450.587 114.224 451.247 114.968 451.247 116.036C451.247 117.104 450.587 117.836 449.567 117.836C448.547 117.836 447.923 117.092 447.923 116.036ZM458.256 113.072V116.18C458.256 117.308 457.812 117.848 456.888 117.848C456.072 117.848 455.628 117.392 455.628 116.264V113.072H454.164V116.78C454.164 118.232 454.968 119.156 456.336 119.156C457.128 119.156 457.896 118.772 458.256 118.208L458.364 119H459.72V113.072H458.256ZM463.767 119.156C465.315 119.156 466.395 118.376 466.647 117.08H465.291C465.123 117.644 464.595 117.956 463.791 117.956C462.819 117.956 462.267 117.428 462.159 116.384L466.623 116.372V115.928C466.623 114.08 465.495 112.892 463.719 112.892C461.979 112.892 460.767 114.176 460.767 116.036C460.767 117.872 462.003 119.156 463.767 119.156ZM463.731 114.092C464.607 114.092 465.171 114.632 465.171 115.448H462.195C462.339 114.56 462.867 114.092 463.731 114.092ZM467.339 117.2C467.339 118.364 468.275 119.156 469.751 119.156C471.215 119.156 472.235 118.412 472.235 117.212C472.235 116.3 471.731 115.844 470.735 115.616L469.667 115.364C469.163 115.244 468.899 115.028 468.899 114.692C468.899 114.248 469.235 113.984 469.811 113.984C470.375 113.984 470.711 114.308 470.723 114.812H472.115C472.103 113.66 471.203 112.892 469.871 112.892C468.503 112.892 467.519 113.588 467.519 114.752C467.519 115.7 468.035 116.204 469.103 116.444L470.171 116.696C470.699 116.816 470.855 117.032 470.855 117.332C470.855 117.764 470.483 118.04 469.799 118.04C469.127 118.04 468.743 117.716 468.731 117.2H467.339ZM475.366 119V114.296H476.518V113.072H475.366V111.224H473.902V113.072H472.762V114.296H473.902V119H475.366Z" fill="#284B64"/>
<g filter="url(#filter3_ddd_1_52)">
<path d="M529 491H356C349.373 491 344 496.373 344 503V511C344 517.627 349.373 523 356 523H529C535.627 523 541 517.627 541 511V503C541 496.373 535.627 491 529 491Z" fill="#1A938A"/>
</g>
<path d="M404.753 504.676C404.753 506.02 405.533 506.872 407.021 507.196L408.413 507.508C409.133 507.664 409.433 508.012 409.433 508.6C409.433 509.332 408.785 509.776 407.765 509.776C406.781 509.776 406.181 509.332 406.169 508.588H404.633C404.669 510.16 405.893 511.156 407.765 511.156C409.697 511.156 410.969 510.1 410.969 508.468C410.969 507.16 410.237 506.392 408.737 506.068L407.357 505.768C406.625 505.6 406.289 505.252 406.289 504.628C406.289 503.896 406.901 503.44 407.849 503.44C408.713 503.44 409.253 503.884 409.289 504.64H410.825C410.777 503.056 409.649 502.072 407.873 502.072C406.025 502.072 404.753 503.14 404.753 504.676ZM414.795 511.156C416.343 511.156 417.423 510.376 417.675 509.08H416.319C416.151 509.644 415.623 509.956 414.819 509.956C413.847 509.956 413.295 509.428 413.187 508.384L417.651 508.372V507.928C417.651 506.08 416.523 504.892 414.747 504.892C413.007 504.892 411.795 506.176 411.795 508.036C411.795 509.872 413.031 511.156 414.795 511.156ZM414.759 506.092C415.635 506.092 416.199 506.632 416.199 507.448H413.223C413.367 506.56 413.895 506.092 414.759 506.092ZM420.286 511V507.808C420.286 506.848 420.838 506.224 421.738 506.224C422.494 506.224 422.986 506.704 422.986 507.7V511H424.45V507.352C424.45 505.816 423.682 504.892 422.194 504.892C421.39 504.892 420.67 505.24 420.298 505.84L420.178 505.072H418.822V511H420.286ZM428.325 511.156C429.225 511.156 429.993 510.76 430.353 510.076L430.449 511H431.793V502.072H430.341V505.828C429.969 505.24 429.237 504.892 428.409 504.892C426.621 504.892 425.541 506.212 425.541 508.06C425.541 509.896 426.609 511.156 428.325 511.156ZM428.649 509.812C427.629 509.812 427.005 509.068 427.005 508.012C427.005 506.956 427.629 506.2 428.649 506.2C429.669 506.2 430.329 506.944 430.329 508.012C430.329 509.08 429.669 509.812 428.649 509.812ZM438.305 511V507.724H440.189L441.677 511H443.357L441.689 507.4C442.721 506.98 443.273 506.14 443.273 504.964C443.273 503.236 442.109 502.228 440.117 502.228H436.769V511H438.305ZM438.305 503.596H440.117C441.089 503.596 441.665 504.088 441.665 504.964C441.665 505.852 441.089 506.368 440.117 506.368H438.305V503.596ZM446.822 511.156C448.37 511.156 449.45 510.376 449.702 509.08H448.346C448.178 509.644 447.65 509.956 446.846 509.956C445.874 509.956 445.322 509.428 445.214 508.384L449.678 508.372V507.928C449.678 506.08 448.55 504.892 446.774 504.892C445.034 504.892 443.822 506.176 443.822 508.036C443.822 509.872 445.058 511.156 446.822 511.156ZM446.786 506.092C447.662 506.092 448.226 506.632 448.226 507.448H445.25C445.394 506.56 445.922 506.092 446.786 506.092ZM450.502 507.964C450.502 509.812 451.51 511.156 453.274 511.156C454.15 511.156 454.93 510.808 455.302 510.208V513.748H456.754V505.072H455.41L455.314 505.972C454.954 505.288 454.174 504.892 453.274 504.892C451.606 504.892 450.502 506.104 450.502 507.964ZM451.966 508.036C451.966 506.98 452.59 506.224 453.61 506.224C454.63 506.224 455.29 506.968 455.29 508.036C455.29 509.104 454.63 509.836 453.61 509.836C452.59 509.836 451.966 509.092 451.966 508.036ZM462.299 505.072V508.18C462.299 509.308 461.855 509.848 460.931 509.848C460.115 509.848 459.671 509.392 459.671 508.264V505.072H458.207V508.78C458.207 510.232 459.011 511.156 460.379 511.156C461.171 511.156 461.939 510.772 462.299 510.208L462.407 511H463.763V505.072H462.299ZM467.81 511.156C469.358 511.156 470.438 510.376 470.69 509.08H469.334C469.166 509.644 468.638 509.956 467.834 509.956C466.862 509.956 466.31 509.428 466.202 508.384L470.666 508.372V507.928C470.666 506.08 469.538 504.892 467.762 504.892C466.022 504.892 464.81 506.176 464.81 508.036C464.81 509.872 466.046 511.156 467.81 511.156ZM467.774 506.092C468.65 506.092 469.214 506.632 469.214 507.448H466.238C466.382 506.56 466.91 506.092 467.774 506.092ZM471.382 509.2C471.382 510.364 472.318 511.156 473.794 511.156C475.258 511.156 476.278 510.412 476.278 509.212C476.278 508.3 475.774 507.844 474.778 507.616L473.71 507.364C473.206 507.244 472.942 507.028 472.942 506.692C472.942 506.248 473.278 505.984 473.854 505.984C474.418 505.984 474.754 506.308 474.766 506.812H476.158C476.146 505.66 475.246 504.892 473.914 504.892C472.546 504.892 471.562 505.588 471.562 506.752C471.562 507.7 472.078 508.204 473.146 508.444L474.214 508.696C474.742 508.816 474.898 509.032 474.898 509.332C474.898 509.764 474.526 510.04 473.842 510.04C473.17 510.04 472.786 509.716 472.774 509.2H471.382ZM479.409 511V506.296H480.561V505.072H479.409V503.224H477.945V505.072H476.805V506.296H477.945V511H479.409Z" fill="white"/>
<path fill-rule="evenodd" clip-rule="evenodd" d="M177.333 286.333C177.333 286.702 177.035 287 176.667 287C176.299 287 176 286.702 176 286.333H174.667V288.333H185.333V286.333H184C184 286.702 183.701 287 183.333 287C182.965 287 182.667 286.702 182.667 286.333H177.333ZM174.667 296.333V289.667H185.333V296.333H174.667ZM182.667 285H177.333C177.333 284.632 177.035 284.333 176.667 284.333C176.299 284.333 176 284.632 176 285H174.667C173.93 285 173.333 285.597 173.333 286.333V296.333C173.333 297.07 173.93 297.667 174.667 297.667H185.333C186.07 297.667 186.667 297.07 186.667 296.333V286.333C186.667 285.597 186.07 285 185.333 285H184C184 284.632 183.701 284.333 183.333 284.333C182.965 284.333 182.667 284.632 182.667 285ZM181.724 291L179.333 293.391L178.276 292.333C178.016 292.073 177.594 292.073 177.333 292.333C177.073 292.594 177.073 293.016 177.333 293.276L179.333 295.276L182.667 291.943C182.927 291.682 182.927 291.26 182.667 291C182.406 290.74 181.984 290.74 181.724 291Z" fill="#93A5B1"/>
<path d="M207.81 293.01V291.86H205.09V289.87H208.33V288.69H203.81V296H205.09V293.01H207.81ZM211.133 296.13C212.423 296.13 213.323 295.48 213.533 294.4H212.403C212.263 294.87 211.823 295.13 211.153 295.13C210.343 295.13 209.883 294.69 209.793 293.82L213.513 293.81V293.44C213.513 291.9 212.573 290.91 211.093 290.91C209.643 290.91 208.633 291.98 208.633 293.53C208.633 295.06 209.663 296.13 211.133 296.13ZM211.103 291.91C211.833 291.91 212.303 292.36 212.303 293.04H209.823C209.943 292.3 210.383 291.91 211.103 291.91ZM215.619 296L215.699 295.23C215.989 295.8 216.619 296.13 217.359 296.13C218.779 296.13 219.709 295.08 219.709 293.56C219.709 292 218.849 290.9 217.439 290.9C216.689 290.9 216.029 291.23 215.709 291.78V288.56H214.489V296H215.619ZM215.719 293.51C215.719 292.62 216.269 292 217.109 292C217.969 292 218.479 292.63 218.479 293.51C218.479 294.39 217.969 295.01 217.109 295.01C216.269 295.01 215.719 294.4 215.719 293.51ZM222.008 295.56C222.008 294.94 221.648 294.53 221.148 294.53C220.698 294.53 220.388 294.85 220.388 295.33C220.388 295.73 220.708 296.02 221.098 296.02C221.218 296.02 221.308 296 221.388 295.96C221.388 296.31 221.048 296.58 220.598 296.66V297.15C221.408 297.05 222.008 296.39 222.008 295.56ZM228.188 295.99V294.8H225.148L226.468 293.67C227.578 292.72 228.138 291.95 228.138 290.93C228.138 289.45 227.168 288.56 225.608 288.56C224.058 288.56 223.038 289.6 223.028 291.2H224.298C224.308 290.26 224.808 289.7 225.608 289.7C226.378 289.7 226.828 290.17 226.828 291C226.828 291.7 226.498 292.18 225.508 293.02L223.118 295.04V296L228.188 295.99ZM228.977 292.36C228.977 294.62 230.127 296.13 232.067 296.13C234.007 296.13 235.167 294.62 235.167 292.36C235.167 290.09 233.937 288.55 232.067 288.55C230.197 288.55 228.977 290.09 228.977 292.36ZM230.237 292.36C230.237 290.63 230.917 289.68 232.067 289.68C233.227 289.68 233.907 290.63 233.907 292.36C233.907 294.05 233.227 295 232.067 295C230.917 295 230.237 294.05 230.237 292.36ZM241.128 295.99V294.8H238.088L239.408 293.67C240.518 292.72 241.078 291.95 241.078 290.93C241.078 289.45 240.108 288.56 238.548 288.56C236.998 288.56 235.978 289.6 235.968 291.2H237.238C237.248 290.26 237.748 289.7 238.548 289.7C239.318 289.7 239.768 290.17 239.768 291C239.768 291.7 239.438 292.18 238.448 293.02L236.058 295.04V296L241.128 295.99ZM244.145 292.38C245.165 292.38 245.645 292.92 245.645 293.66C245.645 294.47 245.115 294.99 244.315 294.99C243.535 294.99 243.015 294.51 243.015 293.67H241.755C241.755 295.25 242.865 296.13 244.295 296.13C245.775 296.13 246.945 295.18 246.945 293.68C246.945 292.39 246.075 291.57 244.955 291.35L246.735 289.71V288.69H242.095V289.82H245.135L243.255 291.55V292.38H244.145Z" fill="#043344"/>
<path fill-rule="evenodd" clip-rule="evenodd" d="M678.195 290.667C678.325 290.536 678.536 290.536 678.667 290.667C678.797 290.797 678.797 291.008 678.667 291.138L676 293.805L673.333 291.138C673.203 291.008 673.203 290.797 673.333 290.667C673.464 290.536 673.675 290.536 673.805 290.667L676 292.862L678.195 290.667Z" fill="#93A5B1"/>
<path d="M685 280.5H198C196.619 280.5 195.5 281.619 195.5 283V301C195.5 302.381 196.619 303.5 198 303.5H685C686.381 303.5 687.5 302.381 687.5 301V283C687.5 281.619 686.381 280.5 685 280.5Z" stroke="#32C69A"/>
<path fill-rule="evenodd" clip-rule="evenodd" d="M185.201 323.27C184.467 322.897 183.512 322.691 182.513 322.691C182.217 322.691 181.924 322.71 181.64 322.745V319.267C181.64 318.456 181.106 317.72 180.174 317.246C179.441 316.872 178.486 316.667 177.487 316.667C176.488 316.667 175.533 316.872 174.799 317.246C173.867 317.719 173.333 318.456 173.333 319.267V326.367C173.333 327.178 173.867 327.914 174.799 328.388C175.533 328.761 176.487 328.967 177.487 328.967C177.787 328.967 178.083 328.948 178.37 328.911C178.442 329.651 178.963 330.315 179.826 330.754C180.559 331.128 181.514 331.333 182.513 331.333C183.512 331.333 184.467 331.128 185.201 330.754C186.132 330.281 186.667 329.544 186.667 328.733V325.292C186.667 324.481 186.132 323.744 185.201 323.27ZM185.655 325.292C185.655 325.857 184.46 326.646 182.513 326.646C180.567 326.646 179.372 325.857 179.372 325.292C179.372 324.726 180.567 323.937 182.513 323.937C184.46 323.937 185.655 324.726 185.655 325.292ZM185.655 327.134C185.655 327.699 184.46 328.488 182.513 328.488C180.567 328.488 179.372 327.699 179.372 327.134C179.372 327.05 179.399 326.962 179.45 326.872C180.189 327.337 181.27 327.621 182.513 327.621C183.757 327.621 184.837 327.337 185.577 326.872C185.627 326.962 185.655 327.05 185.655 327.134ZM177.487 317.913C179.433 317.913 180.628 318.702 180.628 319.267C180.628 319.832 179.433 320.622 177.487 320.622C175.54 320.622 174.345 319.833 174.345 319.267C174.345 318.702 175.54 317.913 177.487 317.913ZM174.423 320.847C175.163 321.313 176.243 321.597 177.487 321.597C178.73 321.597 179.811 321.313 180.55 320.847C180.601 320.937 180.628 321.026 180.628 321.109C180.628 321.674 179.433 322.463 177.487 322.463C175.54 322.463 174.345 321.674 174.345 321.109C174.345 321.026 174.373 320.937 174.423 320.847ZM174.423 322.689C175.163 323.155 176.243 323.438 177.487 323.438C178.73 323.438 179.811 323.155 180.55 322.689C180.601 322.779 180.628 322.868 180.628 322.951L180.628 322.954C180.341 323.04 180.071 323.146 179.826 323.27C179.345 323.515 178.971 323.83 178.721 324.189C178.354 324.262 177.941 324.305 177.487 324.305C175.541 324.305 174.345 323.517 174.345 322.951C174.345 322.868 174.373 322.779 174.423 322.689ZM174.423 324.531C175.163 324.997 176.243 325.28 177.487 325.28C177.79 325.28 178.082 325.262 178.363 325.23C178.362 325.251 178.36 325.271 178.36 325.292V326.09C178.089 326.126 177.798 326.147 177.487 326.147C175.54 326.147 174.345 325.358 174.345 324.793C174.345 324.71 174.373 324.621 174.423 324.531ZM174.292 326.367V326.286C175.031 326.803 176.167 327.122 177.487 327.122C177.789 327.122 178.08 327.105 178.36 327.073V327.929C178.082 327.969 177.79 327.992 177.487 327.992C175.722 327.992 174.292 327.264 174.292 326.367ZM185.708 328.733C185.708 329.631 184.278 330.358 182.513 330.358C180.749 330.358 179.319 329.63 179.319 328.733V328.72V328.627C180.058 329.144 181.194 329.463 182.513 329.463C183.833 329.463 184.969 329.144 185.708 328.627V328.733Z" fill="#93A5B1"/>
<path d="M511 312H198C196.343 312 195 313.343 195 315V333C195 334.657 196.343 336 198 336H511C512.657 336 514 334.657 514 333V315C514 313.343 512.657 312 511 312Z" fill="#F4F6F7"/>
<path d="M203.39 322.73C203.39 323.85 204.04 324.56 205.28 324.83L206.44 325.09C207.04 325.22 207.29 325.51 207.29 326C207.29 326.61 206.75 326.98 205.9 326.98C205.08 326.98 204.58 326.61 204.57 325.99H203.29C203.32 327.3 204.34 328.13 205.9 328.13C207.51 328.13 208.57 327.25 208.57 325.89C208.57 324.8 207.96 324.16 206.71 323.89L205.56 323.64C204.95 323.5 204.67 323.21 204.67 322.69C204.67 322.08 205.18 321.7 205.97 321.7C206.69 321.7 207.14 322.07 207.17 322.7H208.45C208.41 321.38 207.47 320.56 205.99 320.56C204.45 320.56 203.39 321.45 203.39 322.73ZM211.758 328.13C213.048 328.13 213.948 327.48 214.158 326.4H213.028C212.888 326.87 212.448 327.13 211.778 327.13C210.968 327.13 210.508 326.69 210.418 325.82L214.138 325.81V325.44C214.138 323.9 213.198 322.91 211.718 322.91C210.268 322.91 209.258 323.98 209.258 325.53C209.258 327.06 210.288 328.13 211.758 328.13ZM211.728 323.91C212.458 323.91 212.928 324.36 212.928 325.04H210.448C210.568 324.3 211.008 323.91 211.728 323.91ZM218.214 323.04C218.014 322.99 217.844 322.97 217.674 322.97C217.014 322.97 216.544 323.3 216.334 323.79L216.264 323.07H215.114V328H216.334V325.6C216.334 324.64 216.884 324.17 217.764 324.17H218.214V323.04ZM220.587 328H221.787L223.847 323.06H222.587L221.687 325.33C221.477 325.87 221.297 326.39 221.227 326.7C221.167 326.43 220.997 325.92 220.787 325.33L219.927 323.06H218.627L220.587 328ZM225.158 322.07C225.558 322.07 225.888 321.74 225.888 321.33C225.888 320.92 225.558 320.6 225.158 320.6C224.738 320.6 224.408 320.92 224.408 321.33C224.408 321.74 224.738 322.07 225.158 322.07ZM224.548 328H225.768V323.06H224.548V328ZM226.738 325.52C226.738 327.09 227.718 328.13 229.218 328.13C230.508 328.13 231.468 327.34 231.618 326.19H230.388C230.258 326.73 229.828 327.03 229.218 327.03C228.438 327.03 227.958 326.45 227.958 325.52C227.958 324.59 228.478 324 229.258 324C229.838 324 230.248 324.29 230.388 324.85H231.608C231.478 323.66 230.558 322.91 229.208 322.91C227.748 322.91 226.738 323.99 226.738 325.52ZM234.736 328.13C236.026 328.13 236.926 327.48 237.136 326.4H236.006C235.866 326.87 235.426 327.13 234.756 327.13C233.946 327.13 233.486 326.69 233.396 325.82L237.116 325.81V325.44C237.116 323.9 236.176 322.91 234.696 322.91C233.246 322.91 232.236 323.98 232.236 325.53C232.236 327.06 233.266 328.13 234.736 328.13ZM234.706 323.91C235.436 323.91 235.906 324.36 235.906 325.04H233.426C233.546 324.3 233.986 323.91 234.706 323.91Z" fill="#043344"/>
<path d="M685 312H525C523.343 312 522 313.343 522 315V333C522 334.657 523.343 336 525 336H685C686.657 336 688 334.657 688 333V315C688 313.343 686.657 312 685 312Z" fill="#F4F6F7"/>
<path d="M531.44 328L532.03 326.31H534.76L535.35 328H536.7L534.06 320.69H532.75L530.11 328H531.44ZM533.24 322.87C533.31 322.67 533.37 322.45 533.4 322.31C533.42 322.46 533.49 322.68 533.55 322.87L534.39 325.23H532.41L533.24 322.87ZM538.657 328V325.2C538.657 324.4 539.127 324.02 539.707 324.02C540.287 324.02 540.657 324.39 540.657 325.08V328H541.877V325.2C541.877 324.39 542.327 324.01 542.917 324.01C543.497 324.01 543.877 324.38 543.877 325.09V328H545.087V324.77C545.087 323.63 544.427 322.91 543.227 322.91C542.477 322.91 541.897 323.28 541.647 323.85C541.387 323.28 540.867 322.91 540.117 322.91C539.407 322.91 538.907 323.23 538.657 323.64L538.557 323.06H537.437V328H538.657ZM545.994 325.52C545.994 327.06 547.104 328.12 548.634 328.12C550.164 328.12 551.274 327.06 551.274 325.52C551.274 323.98 550.164 322.92 548.634 322.92C547.104 322.92 545.994 323.98 545.994 325.52ZM547.214 325.52C547.214 324.62 547.794 324.01 548.634 324.01C549.474 324.01 550.054 324.62 550.054 325.52C550.054 326.42 549.474 327.03 548.634 327.03C547.794 327.03 547.214 326.42 547.214 325.52ZM555.474 323.06V325.65C555.474 326.59 555.104 327.04 554.334 327.04C553.654 327.04 553.284 326.66 553.284 325.72V323.06H552.064V326.15C552.064 327.36 552.734 328.13 553.874 328.13C554.534 328.13 555.174 327.81 555.474 327.34L555.564 328H556.694V323.06H555.474ZM559.174 328V325.34C559.174 324.54 559.634 324.02 560.384 324.02C561.014 324.02 561.424 324.42 561.424 325.25V328H562.644V324.96C562.644 323.68 562.004 322.91 560.764 322.91C560.094 322.91 559.494 323.2 559.184 323.7L559.084 323.06H557.954V328H559.174ZM565.523 328V324.08H566.483V323.06H565.523V321.52H564.303V323.06H563.353V324.08H564.303V328H565.523Z" fill="#043344"/>
<path d="M206.23 360C208.37 360 209.81 358.54 209.81 356.39C209.81 354.23 208.35 352.77 206.19 352.77H203.84V360H206.23ZM206.12 353.67C207.77 353.67 208.79 354.71 208.79 356.39C208.79 358.05 207.77 359.09 206.16 359.09H204.82V353.67H206.12ZM213.007 360.12C214.217 360.12 215.037 359.53 215.277 358.48H214.397C214.237 359.04 213.757 359.34 213.027 359.34C212.097 359.34 211.557 358.77 211.487 357.74L215.267 357.73V357.38C215.267 355.93 214.357 354.97 212.967 354.97C211.547 354.97 210.577 356.03 210.577 357.56C210.577 359.08 211.567 360.12 213.007 360.12ZM212.967 355.76C213.797 355.76 214.327 356.3 214.327 357.11H211.507C211.627 356.25 212.147 355.76 212.967 355.76ZM215.917 358.58C215.917 359.51 216.647 360.12 217.797 360.12C218.957 360.12 219.757 359.53 219.757 358.6C219.757 357.87 219.347 357.49 218.517 357.29L217.657 357.08C217.177 356.96 216.937 356.74 216.937 356.41C216.937 355.96 217.267 355.7 217.857 355.7C218.427 355.7 218.757 356.01 218.777 356.5H219.677C219.657 355.57 218.957 354.97 217.887 354.97C216.807 354.97 216.047 355.54 216.047 356.44C216.047 357.16 216.457 357.59 217.327 357.8L218.187 358C218.697 358.13 218.857 358.33 218.857 358.66C218.857 359.11 218.477 359.38 217.817 359.38C217.197 359.38 216.817 359.08 216.817 358.58H215.917ZM220.479 357.56C220.479 359.1 221.429 360.12 222.869 360.12C224.049 360.12 224.959 359.41 225.149 358.35H224.209C224.039 358.93 223.539 359.28 222.869 359.28C221.979 359.28 221.409 358.6 221.409 357.55C221.409 356.49 222.019 355.81 222.909 355.81C223.539 355.81 224.039 356.14 224.199 356.76H225.139C224.969 355.67 224.109 354.97 222.879 354.97C221.449 354.97 220.479 356.03 220.479 357.56ZM228.941 355.07C228.751 355.03 228.611 355.01 228.441 355.01C227.771 355.01 227.281 355.35 227.081 355.86L227.021 355.12H226.141V360H227.081V357.41C227.081 356.47 227.631 355.93 228.521 355.93H228.941V355.07ZM230.283 353.95C230.623 353.95 230.903 353.67 230.903 353.33C230.903 352.98 230.623 352.71 230.283 352.71C229.943 352.71 229.663 352.98 229.663 353.33C229.663 353.67 229.943 353.95 230.283 353.95ZM229.823 360H230.763V355.11H229.823V360ZM232.127 362.19H233.067V359.2C233.387 359.8 234.037 360.13 234.817 360.13C236.267 360.13 237.087 359.01 237.087 357.52C237.087 356.02 236.217 354.97 234.817 354.97C234.037 354.97 233.377 355.32 233.047 355.99L232.977 355.11H232.127V362.19ZM233.077 357.56C233.077 356.54 233.657 355.83 234.617 355.83C235.577 355.83 236.147 356.55 236.147 357.56C236.147 358.56 235.577 359.28 234.617 359.28C233.657 359.28 233.077 358.56 233.077 357.56ZM239.455 360V355.9H240.415V355.11H239.455V353.58H238.515V355.11H237.555V355.9H238.515V360H239.455ZM241.718 353.95C242.058 353.95 242.338 353.67 242.338 353.33C242.338 352.98 242.058 352.71 241.718 352.71C241.378 352.71 241.098 352.98 241.098 353.33C241.098 353.67 241.378 353.95 241.718 353.95ZM241.258 360H242.198V355.11H241.258V360ZM243.243 357.55C243.243 359.06 244.323 360.12 245.793 360.12C247.253 360.12 248.333 359.06 248.333 357.55C248.333 356.04 247.253 354.98 245.793 354.98C244.323 354.98 243.243 356.04 243.243 357.55ZM244.193 357.55C244.193 356.53 244.843 355.82 245.793 355.82C246.733 355.82 247.393 356.53 247.393 357.55C247.393 358.57 246.733 359.28 245.793 359.28C244.843 359.28 244.193 358.57 244.193 357.55ZM250.313 360V357.41C250.313 356.46 250.823 355.83 251.703 355.83C252.423 355.83 252.883 356.23 252.883 357.22V360H253.823V357.01C253.823 355.76 253.233 354.97 251.943 354.97C251.253 354.97 250.633 355.3 250.323 355.86L250.223 355.11H249.373V360H250.313Z" fill="#A7B5BF"/>
<path d="M511 344.25H198C196.481 344.25 195.25 345.481 195.25 347V365C195.25 366.519 196.481 367.75 198 367.75H511C512.519 367.75 513.75 366.519 513.75 365V347C513.75 345.481 512.519 344.25 511 344.25Z" stroke="#D4DBE0" stroke-width="0.5"/>
<path d="M195.8 396.23V397.03H197.9V399.14H198.7V397.03H200.8V396.23H198.7V394.13H197.9V396.23H195.8ZM205.476 400L206.116 398.2H209.156L209.806 400H210.836L208.186 392.77H207.096L204.456 400H205.476ZM207.516 394.33C207.566 394.18 207.616 394.01 207.636 393.91C207.656 394.02 207.706 394.19 207.756 394.33L208.866 397.35H206.416L207.516 394.33ZM213.411 400.12C214.191 400.12 214.851 399.78 215.171 399.11L215.251 400H216.091V392.64H215.161V395.9C214.831 395.3 214.201 394.97 213.451 394.97C212.001 394.97 211.131 396.07 211.131 397.57C211.131 399.06 211.991 400.12 213.411 400.12ZM213.601 399.27C212.641 399.27 212.081 398.55 212.081 397.54C212.081 396.54 212.641 395.82 213.601 395.82C214.561 395.82 215.151 396.54 215.151 397.54C215.151 398.56 214.561 399.27 213.601 399.27ZM219.408 400.12C220.188 400.12 220.848 399.78 221.168 399.11L221.248 400H222.088V392.64H221.158V395.9C220.828 395.3 220.198 394.97 219.448 394.97C217.998 394.97 217.128 396.07 217.128 397.57C217.128 399.06 217.988 400.12 219.408 400.12ZM219.598 399.27C218.638 399.27 218.078 398.55 218.078 397.54C218.078 396.54 218.638 395.82 219.598 395.82C220.558 395.82 221.148 396.54 221.148 397.54C221.148 398.56 220.558 399.27 219.598 399.27ZM227.608 400.12C228.398 400.12 229.068 399.77 229.318 399.21L229.418 400H230.218V396.93C230.218 395.61 229.398 394.97 228.188 394.97C226.928 394.97 226.088 395.64 226.088 396.66H226.908C226.908 396.07 227.358 395.72 228.148 395.72C228.808 395.72 229.298 396.01 229.298 396.83V396.97L227.758 397.09C226.608 397.18 225.938 397.74 225.938 398.64C225.938 399.53 226.558 400.12 227.608 400.12ZM227.878 399.39C227.268 399.39 226.888 399.13 226.888 398.61C226.888 398.13 227.228 397.81 228.058 397.73L229.308 397.63V397.89C229.308 398.81 228.768 399.39 227.878 399.39ZM233.854 398.58C233.854 399.51 234.584 400.12 235.734 400.12C236.894 400.12 237.694 399.53 237.694 398.6C237.694 397.87 237.284 397.49 236.454 397.29L235.594 397.08C235.114 396.96 234.874 396.74 234.874 396.41C234.874 395.96 235.204 395.7 235.794 395.7C236.364 395.7 236.694 396.01 236.714 396.5H237.614C237.594 395.57 236.894 394.97 235.824 394.97C234.744 394.97 233.984 395.54 233.984 396.44C233.984 397.16 234.394 397.59 235.264 397.8L236.124 398C236.634 398.13 236.794 398.33 236.794 398.66C236.794 399.11 236.414 399.38 235.754 399.38C235.134 399.38 234.754 399.08 234.754 398.58H233.854ZM240.847 400.12C242.057 400.12 242.877 399.53 243.117 398.48H242.237C242.077 399.04 241.597 399.34 240.867 399.34C239.937 399.34 239.397 398.77 239.327 397.74L243.107 397.73V397.38C243.107 395.93 242.197 394.97 240.807 394.97C239.387 394.97 238.417 396.03 238.417 397.56C238.417 399.08 239.407 400.12 240.847 400.12ZM240.807 395.76C241.637 395.76 242.167 396.3 242.167 397.11H239.347C239.467 396.25 239.987 395.76 240.807 395.76ZM246.957 395.07C246.767 395.03 246.627 395.01 246.457 395.01C245.787 395.01 245.297 395.35 245.097 395.86L245.037 395.12H244.157V400H245.097V397.41C245.097 396.47 245.647 395.93 246.537 395.93H246.957V395.07ZM249.355 400H250.285L252.325 395.11H251.345L250.255 397.84C250.085 398.27 249.925 398.69 249.845 399.01C249.765 398.71 249.625 398.3 249.455 397.84L248.385 395.11H247.385L249.355 400ZM253.533 393.95C253.873 393.95 254.153 393.67 254.153 393.33C254.153 392.98 253.873 392.71 253.533 392.71C253.193 392.71 252.913 392.98 252.913 393.33C252.913 393.67 253.193 393.95 253.533 393.95ZM253.073 400H254.013V395.11H253.073V400ZM255.057 397.56C255.057 399.1 256.007 400.12 257.447 400.12C258.627 400.12 259.537 399.41 259.727 398.35H258.787C258.617 398.93 258.117 399.28 257.447 399.28C256.557 399.28 255.987 398.6 255.987 397.55C255.987 396.49 256.597 395.81 257.487 395.81C258.117 395.81 258.617 396.14 258.777 396.76H259.717C259.547 395.67 258.687 394.97 257.457 394.97C256.027 394.97 255.057 396.03 255.057 397.56ZM262.829 400.12C264.039 400.12 264.859 399.53 265.099 398.48H264.219C264.059 399.04 263.579 399.34 262.849 399.34C261.919 399.34 261.379 398.77 261.309 397.74L265.089 397.73V397.38C265.089 395.93 264.179 394.97 262.789 394.97C261.369 394.97 260.399 396.03 260.399 397.56C260.399 399.08 261.389 400.12 262.829 400.12ZM262.789 395.76C263.619 395.76 264.149 396.3 264.149 397.11H261.329C261.449 396.25 261.969 395.76 262.789 395.76Z" fill="#32C69A"/>
<path fill-rule="evenodd" clip-rule="evenodd" d="M680.428 352.837C680.686 352.575 681.108 352.572 681.37 352.83C681.633 353.088 681.636 353.511 681.378 353.773L677.633 357.575C677.422 357.791 677.422 358.138 677.633 358.354C677.834 358.558 678.169 358.558 678.367 358.353L683.002 353.645C683.678 352.954 683.678 351.846 683.002 351.155C682.356 350.496 681.214 350.511 680.581 351.156L675.523 356.291C674.381 357.456 674.381 359.327 675.523 360.492C676.632 361.623 678.537 361.605 679.629 360.491L685.06 354.974C685.319 354.712 685.741 354.709 686.003 354.967C686.265 355.225 686.269 355.647 686.01 355.91L680.58 361.425C678.971 363.067 676.207 363.094 674.571 361.425C672.921 359.742 672.921 357.041 674.572 355.357L679.63 350.222C680.779 349.05 682.78 349.024 683.954 350.222C685.138 351.431 685.138 353.369 683.953 354.579L679.321 359.284C678.605 360.024 677.406 360.027 676.681 359.287C675.962 358.553 675.962 357.376 676.682 356.641L680.428 352.837Z" fill="#93A5B1"/>
<path d="M530.49 356.39C530.49 358.64 531.6 360.13 533.47 360.13C535.33 360.13 536.44 358.64 536.44 356.39C536.44 354.15 535.28 352.63 533.47 352.63C531.65 352.63 530.49 354.15 530.49 356.39ZM531.46 356.39C531.46 354.59 532.2 353.51 533.47 353.51C534.74 353.51 535.47 354.59 535.47 356.39C535.47 358.17 534.74 359.25 533.47 359.25C532.2 359.25 531.46 358.17 531.46 356.39ZM537.903 360.12C538.283 360.12 538.613 359.8 538.613 359.42C538.613 359.03 538.283 358.71 537.903 358.71C537.513 358.71 537.183 359.03 537.183 359.42C537.183 359.8 537.513 360.12 537.903 360.12ZM539.367 356.39C539.367 358.64 540.477 360.13 542.347 360.13C544.207 360.13 545.317 358.64 545.317 356.39C545.317 354.15 544.157 352.63 542.347 352.63C540.527 352.63 539.367 354.15 539.367 356.39ZM540.337 356.39C540.337 354.59 541.077 353.51 542.347 353.51C543.617 353.51 544.347 354.59 544.347 356.39C544.347 358.17 543.617 359.25 542.347 359.25C541.077 359.25 540.337 358.17 540.337 356.39ZM546.301 356.39C546.301 358.64 547.411 360.13 549.281 360.13C551.141 360.13 552.251 358.64 552.251 356.39C552.251 354.15 551.091 352.63 549.281 352.63C547.461 352.63 546.301 354.15 546.301 356.39ZM547.271 356.39C547.271 354.59 548.011 353.51 549.281 353.51C550.551 353.51 551.281 354.59 551.281 356.39C551.281 358.17 550.551 359.25 549.281 359.25C548.011 359.25 547.271 358.17 547.271 356.39Z" fill="#A7B5BF"/>
<path d="M616.338 360.87H617.088V352.09H616.338V360.87ZM621.484 354.72C621.484 355.76 622.094 356.44 623.274 356.71L624.464 356.98C625.154 357.14 625.464 357.5 625.464 358.07C625.464 358.79 624.854 359.24 623.894 359.24C622.984 359.24 622.404 358.8 622.384 358.11H621.384C621.444 359.35 622.424 360.12 623.894 360.12C625.434 360.12 626.444 359.29 626.444 357.99C626.444 356.97 625.844 356.33 624.664 356.06L623.474 355.78C622.794 355.62 622.464 355.27 622.464 354.69C622.464 353.98 623.054 353.52 623.964 353.52C624.774 353.52 625.284 353.94 625.334 354.66H626.324C626.244 353.41 625.354 352.64 623.974 352.64C622.484 352.64 621.484 353.48 621.484 354.72ZM627.976 360L628.616 358.2H631.656L632.306 360H633.336L630.686 352.77H629.596L626.956 360H627.976ZM630.016 354.33C630.066 354.18 630.116 354.01 630.136 353.91C630.156 354.02 630.206 354.19 630.256 354.33L631.366 357.35H628.916L630.016 354.33ZM635.277 360V357.14H637.127L638.477 360H639.567L638.097 356.95C638.997 356.66 639.497 355.94 639.497 354.94C639.497 353.59 638.577 352.77 637.027 352.77H634.297V360H635.277ZM635.277 353.65H637.027C637.927 353.65 638.467 354.11 638.467 354.95C638.467 355.78 637.947 356.27 637.037 356.27H635.277V353.65Z" fill="#A7B5BF"/>
<path d="M661 344.25H525C523.481 344.25 522.25 345.481 522.25 347V365C522.25 366.519 523.481 367.75 525 367.75H661C662.519 367.75 663.75 366.519 663.75 365V347C663.75 345.481 662.519 344.25 661 344.25Z" stroke="#D4DBE0" stroke-width="0.5"/>
<path fill-rule="evenodd" clip-rule="evenodd" d="M654.195 354.667C654.325 354.536 654.536 354.536 654.667 354.667C654.797 354.797 654.797 355.008 654.667 355.138L652 357.805L649.333 355.138C649.203 355.008 649.203 354.797 649.333 354.667C649.464 354.536 649.675 354.536 649.805 354.667L652 356.862L654.195 354.667Z" fill="#93A5B1"/>
<path fill-rule="evenodd" clip-rule="evenodd" d="M186.667 420C186.667 419.632 186.368 419.333 186 419.333H174C173.632 419.333 173.333 419.632 173.333 420C173.333 420.368 173.632 420.667 174 420.667H186C186.368 420.667 186.667 420.368 186.667 420ZM182 422C182.368 422 182.667 422.298 182.667 422.667C182.667 423.035 182.368 423.333 182 423.333H174C173.632 423.333 173.333 423.035 173.333 422.667C173.333 422.298 173.632 422 174 422H182ZM186.667 425.333C186.667 424.965 186.368 424.667 186 424.667H174C173.632 424.667 173.333 424.965 173.333 425.333C173.333 425.702 173.632 426 174 426H186C186.368 426 186.667 425.702 186.667 425.333ZM182.667 428C182.667 427.632 182.368 427.333 182 427.333H174C173.632 427.333 173.333 427.632 173.333 428C173.333 428.368 173.632 428.667 174 428.667H182C182.368 428.667 182.667 428.368 182.667 428Z" fill="#93A5B1"/>
<path d="M203.17 421.87H205.31V428H206.59V421.87H208.73V420.69H203.17V421.87ZM208.659 430.29C208.929 430.36 209.229 430.4 209.569 430.4C210.379 430.4 210.899 430.02 211.269 429.1L213.689 423.06H212.429L211.089 426.66L209.819 423.06H208.529L210.519 428.21L210.379 428.58C210.169 429.16 209.869 429.27 209.389 429.27H208.659V430.29ZM214.382 430.29H215.602V427.34C215.912 427.84 216.552 428.13 217.292 428.13C218.762 428.13 219.602 427.01 219.602 425.47C219.602 423.92 218.682 422.91 217.292 422.91C216.542 422.91 215.892 423.24 215.592 423.81L215.512 423.06H214.382V430.29ZM215.612 425.53C215.612 424.64 216.162 424.02 217.002 424.02C217.862 424.02 218.372 424.65 218.372 425.53C218.372 426.41 217.862 427.03 217.002 427.03C216.162 427.03 215.612 426.42 215.612 425.53ZM222.783 428.13C224.073 428.13 224.973 427.48 225.183 426.4H224.053C223.913 426.87 223.473 427.13 222.803 427.13C221.993 427.13 221.533 426.69 221.443 425.82L225.163 425.81V425.44C225.163 423.9 224.223 422.91 222.743 422.91C221.293 422.91 220.283 423.98 220.283 425.53C220.283 427.06 221.313 428.13 222.783 428.13ZM222.753 423.91C223.483 423.91 223.953 424.36 223.953 425.04H221.473C221.593 424.3 222.033 423.91 222.753 423.91ZM230.305 428.13C231.075 428.13 231.745 427.78 231.955 427.27L232.045 428H233.115V425C233.115 423.63 232.295 422.91 230.965 422.91C229.625 422.91 228.745 423.61 228.745 424.68H229.785C229.785 424.16 230.185 423.86 230.905 423.86C231.525 423.86 231.925 424.13 231.925 424.8V424.91L230.445 425.02C229.275 425.11 228.615 425.68 228.615 426.59C228.615 427.52 229.255 428.13 230.305 428.13ZM230.705 427.21C230.155 427.21 229.855 426.99 229.855 426.54C229.855 426.14 230.145 425.89 230.905 425.82L231.935 425.74V426C231.935 426.76 231.455 427.21 230.705 427.21ZM238.429 428V425.38C238.429 424.47 238.419 423.78 238.349 423.34L240.199 428H241.379L243.239 423.33C243.169 423.85 243.169 424.28 243.169 425.75V428H244.409V420.69H243.149L240.789 426.51L238.429 420.69H237.189V428H238.429ZM248.057 428.13C249.347 428.13 250.247 427.48 250.457 426.4H249.327C249.187 426.87 248.747 427.13 248.077 427.13C247.267 427.13 246.807 426.69 246.717 425.82L250.437 425.81V425.44C250.437 423.9 249.497 422.91 248.017 422.91C246.567 422.91 245.557 423.98 245.557 425.53C245.557 427.06 246.587 428.13 248.057 428.13ZM248.027 423.91C248.757 423.91 249.227 424.36 249.227 425.04H246.747C246.867 424.3 247.307 423.91 248.027 423.91ZM251.033 426.5C251.033 427.47 251.813 428.13 253.043 428.13C254.263 428.13 255.113 427.51 255.113 426.51C255.113 425.75 254.693 425.37 253.863 425.18L252.973 424.97C252.553 424.87 252.333 424.69 252.333 424.41C252.333 424.04 252.613 423.82 253.093 423.82C253.563 423.82 253.843 424.09 253.853 424.51H255.013C255.003 423.55 254.253 422.91 253.143 422.91C252.003 422.91 251.183 423.49 251.183 424.46C251.183 425.25 251.613 425.67 252.503 425.87L253.393 426.08C253.833 426.18 253.963 426.36 253.963 426.61C253.963 426.97 253.653 427.2 253.083 427.2C252.523 427.2 252.203 426.93 252.193 426.5H251.033ZM255.662 426.5C255.662 427.47 256.442 428.13 257.672 428.13C258.892 428.13 259.742 427.51 259.742 426.51C259.742 425.75 259.322 425.37 258.492 425.18L257.602 424.97C257.182 424.87 256.962 424.69 256.962 424.41C256.962 424.04 257.242 423.82 257.722 423.82C258.192 423.82 258.472 424.09 258.482 424.51H259.642C259.632 423.55 258.882 422.91 257.772 422.91C256.632 422.91 255.812 423.49 255.812 424.46C255.812 425.25 256.242 425.67 257.132 425.87L258.022 426.08C258.462 426.18 258.592 426.36 258.592 426.61C258.592 426.97 258.282 427.2 257.712 427.2C257.152 427.2 256.832 426.93 256.822 426.5H255.662ZM262.141 428.13C262.911 428.13 263.581 427.78 263.791 427.27L263.881 428H264.951V425C264.951 423.63 264.131 422.91 262.801 422.91C261.461 422.91 260.581 423.61 260.581 424.68H261.621C261.621 424.16 262.021 423.86 262.741 423.86C263.361 423.86 263.761 424.13 263.761 424.8V424.91L262.281 425.02C261.111 425.11 260.451 425.68 260.451 426.59C260.451 427.52 261.091 428.13 262.141 428.13ZM262.541 427.21C261.991 427.21 261.691 426.99 261.691 426.54C261.691 426.14 261.981 425.89 262.741 425.82L263.771 425.74V426C263.771 426.76 263.291 427.21 262.541 427.21ZM265.87 425.42C265.87 426.85 266.79 427.9 268.19 427.9C268.9 427.9 269.51 427.61 269.82 427.15V427.97C269.82 428.79 269.28 429.32 268.44 429.32C267.69 429.32 267.2 428.94 267.12 428.3H265.9C266.05 429.62 267.02 430.43 268.44 430.43C270.04 430.43 271.03 429.4 271.03 427.75V423.06H269.9L269.83 423.74C269.54 423.21 268.96 422.9 268.22 422.9C266.81 422.9 265.87 423.98 265.87 425.42ZM267.1 425.39C267.1 424.58 267.62 423.97 268.43 423.97C269.28 423.97 269.79 424.55 269.79 425.39C269.79 426.25 269.27 426.84 268.43 426.84C267.63 426.84 267.1 426.22 267.1 425.39ZM274.502 428.13C275.792 428.13 276.692 427.48 276.902 426.4H275.772C275.632 426.87 275.192 427.13 274.522 427.13C273.712 427.13 273.252 426.69 273.162 425.82L276.882 425.81V425.44C276.882 423.9 275.942 422.91 274.462 422.91C273.012 422.91 272.002 423.98 272.002 425.53C272.002 427.06 273.032 428.13 274.502 428.13ZM274.472 423.91C275.202 423.91 275.672 424.36 275.672 425.04H273.192C273.312 424.3 273.752 423.91 274.472 423.91ZM280.264 425.52C280.264 427.06 281.374 428.12 282.904 428.12C284.434 428.12 285.544 427.06 285.544 425.52C285.544 423.98 284.434 422.92 282.904 422.92C281.374 422.92 280.264 423.98 280.264 425.52ZM281.484 425.52C281.484 424.62 282.064 424.01 282.904 424.01C283.744 424.01 284.324 424.62 284.324 425.52C284.324 426.42 283.744 427.03 282.904 427.03C282.064 427.03 281.484 426.42 281.484 425.52ZM289.611 423.04C289.411 422.99 289.241 422.97 289.071 422.97C288.411 422.97 287.941 423.3 287.731 423.79L287.661 423.07H286.511V428H287.731V425.6C287.731 424.64 288.281 424.17 289.161 424.17H289.611V423.04ZM294.812 428V424.08H295.772V423.06H294.812V421.52H293.592V423.06H292.642V424.08H293.592V428H294.812ZM296.1 430.29C296.37 430.36 296.67 430.4 297.01 430.4C297.82 430.4 298.34 430.02 298.71 429.1L301.13 423.06H299.87L298.53 426.66L297.26 423.06H295.97L297.96 428.21L297.82 428.58C297.61 429.16 297.31 429.27 296.83 429.27H296.1V430.29ZM301.823 430.29H303.043V427.34C303.353 427.84 303.993 428.13 304.733 428.13C306.203 428.13 307.043 427.01 307.043 425.47C307.043 423.92 306.123 422.91 304.733 422.91C303.983 422.91 303.333 423.24 303.033 423.81L302.953 423.06H301.823V430.29ZM303.053 425.53C303.053 424.64 303.603 424.02 304.443 424.02C305.303 424.02 305.813 424.65 305.813 425.53C305.813 426.41 305.303 427.03 304.443 427.03C303.603 427.03 303.053 426.42 303.053 425.53ZM310.225 428.13C311.515 428.13 312.415 427.48 312.625 426.4H311.495C311.355 426.87 310.915 427.13 310.245 427.13C309.435 427.13 308.975 426.69 308.885 425.82L312.605 425.81V425.44C312.605 423.9 311.665 422.91 310.185 422.91C308.735 422.91 307.725 423.98 307.725 425.53C307.725 427.06 308.755 428.13 310.225 428.13ZM310.195 423.91C310.925 423.91 311.395 424.36 311.395 425.04H308.915C309.035 424.3 309.475 423.91 310.195 423.91ZM317.826 422.37C317.826 421.94 317.546 421.68 317.186 421.68C317.076 421.68 316.986 421.7 316.906 421.73C316.906 421.38 317.206 421.11 317.636 421.03V420.55C316.836 420.65 316.276 421.3 316.276 422.14C316.276 422.74 316.616 423.12 317.086 423.12C317.526 423.12 317.826 422.81 317.826 422.37ZM319.806 422.37C319.806 421.94 319.516 421.68 319.156 421.68C319.046 421.68 318.956 421.7 318.876 421.74C318.876 421.38 319.186 421.11 319.616 421.03V420.55C318.816 420.65 318.256 421.3 318.256 422.14C318.256 422.74 318.596 423.12 319.066 423.12C319.506 423.12 319.806 422.81 319.806 422.37ZM323.052 425.75C323.052 426.62 323.662 427.15 324.672 427.15C325.392 427.15 326.042 426.8 326.242 426.3C326.382 426.85 326.822 427.15 327.512 427.15C328.662 427.15 329.402 426.14 329.402 424.6C329.402 422.26 327.632 420.56 325.192 420.56C322.742 420.56 320.902 422.39 320.902 424.84C320.902 427.3 322.732 429.13 325.192 429.13C326.082 429.13 326.922 428.87 327.622 428.37L327.272 427.69C326.642 428.13 325.912 428.38 325.192 428.38C323.192 428.38 321.712 426.87 321.712 424.84C321.712 422.82 323.192 421.31 325.192 421.31C327.182 421.31 328.592 422.68 328.592 424.6C328.592 425.68 328.222 426.41 327.672 426.41C327.332 426.41 327.162 426.23 327.162 425.85V424.3C327.162 423.09 326.452 422.4 325.202 422.4C323.972 422.4 323.182 423.04 323.182 424.01H324.122C324.122 423.53 324.492 423.26 325.152 423.26C325.762 423.26 326.082 423.55 326.082 424.12V424.22L324.732 424.33C323.632 424.41 323.052 424.95 323.052 425.75ZM324.182 425.71C324.182 425.32 324.462 425.12 325.142 425.06L326.092 424.98V425.22C326.092 425.9 325.662 426.31 324.962 426.31C324.442 426.31 324.182 426.11 324.182 425.71ZM332.055 421.53C332.055 420.93 331.715 420.55 331.245 420.55C330.805 420.55 330.505 420.86 330.505 421.3C330.505 421.74 330.795 421.99 331.155 421.99C331.265 421.99 331.355 421.97 331.435 421.94C331.435 422.29 331.125 422.56 330.695 422.64V423.12C331.495 423.02 332.055 422.37 332.055 421.53ZM334.035 421.53C334.035 420.93 333.695 420.55 333.225 420.55C332.785 420.55 332.485 420.86 332.485 421.3C332.485 421.74 332.765 421.99 333.125 421.99C333.235 421.99 333.325 421.97 333.405 421.94C333.405 422.29 333.105 422.56 332.675 422.64V423.12C333.475 423.02 334.035 422.37 334.035 421.53ZM335.173 428.12C335.613 428.12 335.983 427.76 335.983 427.33C335.983 426.89 335.613 426.53 335.173 426.53C334.733 426.53 334.363 426.89 334.363 427.33C334.363 427.76 334.733 428.12 335.173 428.12ZM338.083 428.12C338.523 428.12 338.893 427.76 338.893 427.33C338.893 426.89 338.523 426.53 338.083 426.53C337.643 426.53 337.273 426.89 337.273 427.33C337.273 427.76 337.643 428.12 338.083 428.12ZM340.993 428.12C341.433 428.12 341.803 427.76 341.803 427.33C341.803 426.89 341.433 426.53 340.993 426.53C340.553 426.53 340.183 426.89 340.183 427.33C340.183 427.76 340.553 428.12 340.993 428.12Z" fill="#BEC9D0"/>
<path d="M687 412.25H198C196.481 412.25 195.25 413.481 195.25 415V474C195.25 475.519 196.481 476.75 198 476.75H687C688.519 476.75 689.75 475.519 689.75 474V415C689.75 413.481 688.519 412.25 687 412.25Z" stroke="#D4DBE0" stroke-width="0.5"/>
<path d="M196 377.75H690" stroke="#BEC9D0" stroke-width="0.5"/>
<defs>
<filter id="filter0_ddd_1_52" x="102" y="39" width="682" height="570" filterUnits="userSpaceOnUse" color-interpolation-filters="sRGB">
<feFlood flood-opacity="0" result="BackgroundImageFix"/>
<feColorMatrix in="SourceAlpha" type="matrix" values="0 0 0 0 0 0 0 0 0 0 0 0 0 0 0 0 0 0 127 0" result="hardAlpha"/>
<feOffset dy="11"/>
<feGaussianBlur stdDeviation="7.5"/>
<feColorMatrix type="matrix" values="0 0 0 0 0.364706 0 0 0 0 0.447059 0 0 0 0 0.54902 0 0 0 0.16 0"/>
<feBlend mode="normal" in2="BackgroundImageFix" result="effect1_dropShadow_1_52"/>
<feColorMatrix in="SourceAlpha" type="matrix" values="0 0 0 0 0 0 0 0 0 0 0 0 0 0 0 0 0 0 127 0" result="hardAlpha"/>
<feOffset dy="9"/>
<feGaussianBlur stdDeviation="23"/>
<feColorMatrix type="matrix" values="0 0 0 0 0.364706 0 0 0 0 0.447059 0 0 0 0 0.54902 0 0 0 0.08 0"/>
<feBlend mode="normal" in2="effect1_dropShadow_1_52" result="effect2_dropShadow_1_52"/>
<feColorMatrix in="SourceAlpha" type="matrix" values="0 0 0 0 0 0 0 0 0 0 0 0 0 0 0 0 0 0 127 0" result="hardAlpha"/>
<feOffset dy="24"/>
<feGaussianBlur stdDeviation="19"/>
<feColorMatrix type="matrix" values="0 0 0 0 0.364706 0 0 0 0 0.447059 0 0 0 0 0.54902 0 0 0 0.1 0"/>
<feBlend mode="normal" in2="effect2_dropShadow_1_52" result="effect3_dropShadow_1_52"/>
<feBlend mode="normal" in="SourceGraphic" in2="effect3_dropShadow_1_52" result="shape"/>
</filter>
<filter id="filter1_ddd_1_52" x="110" y="47" width="666" height="554" filterUnits="userSpaceOnUse" color-interpolation-filters="sRGB">
<feFlood flood-opacity="0" result="BackgroundImageFix"/>
<feColorMatrix in="SourceAlpha" type="matrix" values="0 0 0 0 0 0 0 0 0 0 0 0 0 0 0 0 0 0 127 0" result="hardAlpha"/>
<feOffset dy="11"/>
<feGaussianBlur stdDeviation="7.5"/>
<feColorMatrix type="matrix" values="0 0 0 0 0.364706 0 0 0 0 0.447059 0 0 0 0 0.54902 0 0 0 0.16 0"/>
<feBlend mode="normal" in2="BackgroundImageFix" result="effect1_dropShadow_1_52"/>
<feColorMatrix in="SourceAlpha" type="matrix" values="0 0 0 0 0 0 0 0 0 0 0 0 0 0 0 0 0 0 127 0" result="hardAlpha"/>
<feOffset dy="9"/>
<feGaussianBlur stdDeviation="23"/>
<feColorMatrix type="matrix" values="0 0 0 0 0.364706 0 0 0 0 0.447059 0 0 0 0 0.54902 0 0 0 0.08 0"/>
<feBlend mode="normal" in2="effect1_dropShadow_1_52" result="effect2_dropShadow_1_52"/>
<feColorMatrix in="SourceAlpha" type="matrix" values="0 0 0 0 0 0 0 0 0 0 0 0 0 0 0 0 0 0 127 0" result="hardAlpha"/>
<feOffset dy="24"/>
<feGaussianBlur stdDeviation="19"/>
<feColorMatrix type="matrix" values="0 0 0 0 0.364706 0 0 0 0 0.447059 0 0 0 0 0.54902 0 0 0 0.1 0"/>
<feBlend mode="normal" in2="effect2_dropShadow_1_52" result="effect3_dropShadow_1_52"/>
<feBlend mode="normal" in="SourceGraphic" in2="effect3_dropShadow_1_52" result="shape"/>
</filter>
<filter id="filter2_ddd_1_52" x="110" y="217" width="666" height="384" filterUnits="userSpaceOnUse" color-interpolation-filters="sRGB">
<feFlood flood-opacity="0" result="BackgroundImageFix"/>
<feColorMatrix in="SourceAlpha" type="matrix" values="0 0 0 0 0 0 0 0 0 0 0 0 0 0 0 0 0 0 127 0" result="hardAlpha"/>
<feOffset dy="11"/>
<feGaussianBlur stdDeviation="7.5"/>
<feColorMatrix type="matrix" values="0 0 0 0 0.364706 0 0 0 0 0.447059 0 0 0 0 0.54902 0 0 0 0.16 0"/>
<feBlend mode="normal" in2="BackgroundImageFix" result="effect1_dropShadow_1_52"/>
<feColorMatrix in="SourceAlpha" type="matrix" values="0 0 0 0 0 0 0 0 0 0 0 0 0 0 0 0 0 0 127 0" result="hardAlpha"/>
<feOffset dy="9"/>
<feGaussianBlur stdDeviation="23"/>
<feColorMatrix type="matrix" values="0 0 0 0 0.364706 0 0 0 0 0.447059 0 0 0 0 0.54902 0 0 0 0.08 0"/>
<feBlend mode="normal" in2="effect1_dropShadow_1_52" result="effect2_dropShadow_1_52"/>
<feColorMatrix in="SourceAlpha" type="matrix" values="0 0 0 0 0 0 0 0 0 0 0 0 0 0 0 0 0 0 127 0" result="hardAlpha"/>
<feOffset dy="24"/>
<feGaussianBlur stdDeviation="19"/>
<feColorMatrix type="matrix" values="0 0 0 0 0.364706 0 0 0 0 0.447059 0 0 0 0 0.54902 0 0 0 0.1 0"/>
<feBlend mode="normal" in2="effect2_dropShadow_1_52" result="effect3_dropShadow_1_52"/>
<feBlend mode="normal" in="SourceGraphic" in2="effect3_dropShadow_1_52" result="shape"/>
</filter>
<filter id="filter3_ddd_1_52" x="298" y="454" width="289" height="131" filterUnits="userSpaceOnUse" color-interpolation-filters="sRGB">
<feFlood flood-opacity="0" result="BackgroundImageFix"/>
<feColorMatrix in="SourceAlpha" type="matrix" values="0 0 0 0 0 0 0 0 0 0 0 0 0 0 0 0 0 0 127 0" result="hardAlpha"/>
<feOffset dy="11"/>
<feGaussianBlur stdDeviation="7.5"/>
<feColorMatrix type="matrix" values="0 0 0 0 0.364706 0 0 0 0 0.447059 0 0 0 0 0.54902 0 0 0 0.16 0"/>
<feBlend mode="normal" in2="BackgroundImageFix" result="effect1_dropShadow_1_52"/>
<feColorMatrix in="SourceAlpha" type="matrix" values="0 0 0 0 0 0 0 0 0 0 0 0 0 0 0 0 0 0 127 0" result="hardAlpha"/>
<feOffset dy="9"/>
<feGaussianBlur stdDeviation="23"/>
<feColorMatrix type="matrix" values="0 0 0 0 0.364706 0 0 0 0 0.447059 0 0 0 0 0.54902 0 0 0 0.08 0"/>
<feBlend mode="normal" in2="effect1_dropShadow_1_52" result="effect2_dropShadow_1_52"/>
<feColorMatrix in="SourceAlpha" type="matrix" values="0 0 0 0 0 0 0 0 0 0 0 0 0 0 0 0 0 0 127 0" result="hardAlpha"/>
<feOffset dy="24"/>
<feGaussianBlur stdDeviation="19"/>
<feColorMatrix type="matrix" values="0 0 0 0 0.364706 0 0 0 0 0.447059 0 0 0 0 0.54902 0 0 0 0.1 0"/>
<feBlend mode="normal" in2="effect2_dropShadow_1_52" result="effect3_dropShadow_1_52"/>
<feBlend mode="normal" in="SourceGraphic" in2="effect3_dropShadow_1_52" result="shape"/>
</filter>
<radialGradient id="paint0_radial_1_52" cx="0" cy="0" r="1" gradientUnits="userSpaceOnUse" gradientTransform="translate(443 282.5) rotate(-90) scale(222 222)">
<stop stop-color="#8479FF"/>
<stop offset="1" stop-color="white" stop-opacity="0"/>
</radialGradient>
</defs>
</svg>
