<svg width="357" height="285" viewBox="0 0 357 285" fill="none" xmlns="http://www.w3.org/2000/svg">
<path d="M182.997 240H25.2382C17.7885 240 10.631 236.743 5.81058 231.221C0.990185 225.558 -0.908757 218.336 0.405895 211.115C9.75453 162.973 53.2841 128 103.971 128C154.658 128 198.188 162.973 207.537 211.115C208.997 218.336 206.952 225.558 202.132 231.221C197.604 236.743 190.446 240 182.997 240ZM104.117 147.681C63.2171 147.681 28.1597 175.858 20.5639 214.655C20.2718 216.496 21.0021 217.77 21.5864 218.478C22.1707 219.044 23.3393 220.177 25.2382 220.177H182.997C184.895 220.177 186.064 219.186 186.648 218.478C187.233 217.911 187.963 216.496 187.671 214.655C180.075 175.858 145.018 147.681 104.117 147.681Z" fill="#EC9A2B"/>
<path d="M160 53.5C160 83.0987 134.982 107 104 107C73.1636 107 48 83.0987 48 53.5C48 23.9013 73.1636 0 104 0C134.982 0 160 23.9013 160 53.5Z" fill="#1A938A"/>
<path d="M316.372 117.64C329.626 137.982 340.268 164.744 326.217 188.893C315.788 206.836 295.13 205.585 277.879 207.484C273.123 208.436 270.176 211.824 267.769 215.897C259.324 229.585 255.516 244.224 242.949 254.422C231.689 263.347 216.573 263.575 203.326 260.19C198.739 259.011 194.286 257.325 190.004 255.229C168.601 244.754 151.466 224.063 141.664 203.076C139.147 197.933 136.759 192.88 134.329 188.139C132.601 184.471 130.879 180.736 129.251 176.944C121.11 157.979 115.277 137.57 122.473 116.842C124.569 110.479 128.319 104.422 133.288 99.7898C138.258 95.1574 144.443 91.9512 151.408 91.3002C159.286 90.5731 166.856 93.92 172.925 98.6298C176.348 101.331 179.591 104.259 182.824 107.167C186.057 110.077 189.278 112.97 192.657 115.605C195.93 118.647 199.62 121.005 203.55 122.677C209.011 125.027 215.055 125.889 220.949 125.276C226.844 124.664 232.599 122.57 237.55 118.993C255.143 104.903 280.02 90.24 301.83 103.188C307.071 106.89 311.94 111.635 316.376 117.638L316.372 117.64Z" fill="#E6E3DF"/>
<g filter="url(#filter0_ddd_1_2502)">
<rect x="66.2689" y="21.5835" width="246.578" height="196.844" rx="10.4482" fill="white"/>
</g>
<g filter="url(#filter1_ddd_1_2502)">
<rect x="69.6122" y="24.927" width="239.891" height="190.158" rx="7.52272" fill="white"/>
</g>
<g filter="url(#filter2_ddd_1_2502)">
<rect x="69.6122" y="95.9747" width="239.891" height="119.11" rx="7.52272" fill="white"/>
</g>
<path d="M87.2448 103.761C87.5984 103.761 87.8291 103.515 87.8291 103.177C87.8291 102.828 87.6009 102.595 87.2448 102.595H86.5402V104.408H86.7859V103.761H87.2448ZM87.2022 102.816C87.4329 102.816 87.5708 102.946 87.5708 103.174C87.5708 103.397 87.4354 103.54 87.1921 103.54H86.7859V102.816H87.2022ZM88.0969 104.408L88.2574 103.956H89.0197L89.1827 104.408H89.441L88.7765 102.595H88.5031L87.8411 104.408H88.0969ZM88.6085 102.986C88.621 102.948 88.6335 102.906 88.6386 102.881C88.6436 102.908 88.6561 102.951 88.6686 102.986L88.947 103.743H88.3326L88.6085 102.986ZM89.9296 103.671V104.408H90.1753V103.671L90.7846 102.595H90.5163L90.1151 103.32C90.0825 103.38 90.0775 103.395 90.0549 103.44C90.0349 103.397 90.0198 103.362 89.9948 103.32L89.591 102.595H89.3152L89.9296 103.671ZM91.2622 104.408V103.633C91.2622 103.38 91.2572 103.194 91.2446 103.106L91.7712 104.408H92.0019L92.531 103.101C92.5185 103.229 92.516 103.352 92.516 103.691V104.408H92.7567V102.595H92.511L91.8866 104.119L91.2622 102.595H91.0215V104.408H91.2622ZM94.2847 104.408V104.18H93.4246V103.605H94.1994V103.387H93.4246V102.821H94.2847V102.595H93.1789V104.408H94.2847ZM94.8865 104.408V103.006L95.8143 104.408H96.0601V102.595H95.8143V103.997L94.8865 102.595H94.6408V104.408H94.8865ZM96.3068 102.821H96.8534V104.408H97.0992V102.821H97.6433V102.595H96.3068V102.821ZM98.8167 104.408V103.633C98.8167 103.38 98.8117 103.194 98.7992 103.106L99.3258 104.408H99.5565L100.086 103.101C100.073 103.229 100.071 103.352 100.071 103.691V104.408H100.311V102.595H100.066L99.4411 104.119L98.8167 102.595H98.576V104.408H98.8167ZM102.368 103.5C102.368 102.948 102.01 102.562 101.496 102.562C100.984 102.562 100.626 102.951 100.626 103.5C100.626 104.052 100.982 104.438 101.493 104.438C102.007 104.438 102.368 104.052 102.368 103.5ZM102.11 103.5C102.11 103.919 101.864 104.202 101.496 104.202C101.127 104.202 100.884 103.921 100.884 103.5C100.884 103.079 101.127 102.8 101.496 102.8C101.864 102.8 102.11 103.079 102.11 103.5ZM102.928 104.408V103.006L103.856 104.408H104.102V102.595H103.856V103.997L102.928 102.595H102.683V104.408H102.928ZM104.349 102.821H104.895V104.408H105.141V102.821H105.685V102.595H104.349V102.821ZM106.178 104.408V103.603H107.076V104.408H107.321V102.595H107.076V103.375H106.178V102.595H105.932V104.408H106.178ZM107.762 102.986C107.835 103.014 107.892 103.024 107.968 103.034C107.92 103.076 107.877 103.119 107.825 103.194L107.727 103.335L107.845 103.415L107.945 103.277C107.995 103.209 108.023 103.152 108.043 103.091C108.065 103.144 108.093 103.202 108.146 103.277L108.243 103.415L108.359 103.335L108.261 103.194C108.213 103.119 108.176 103.079 108.123 103.034C108.181 103.026 108.246 103.016 108.329 102.986L108.494 102.928L108.441 102.795L108.284 102.851C108.196 102.881 108.146 102.911 108.093 102.943C108.105 102.886 108.116 102.821 108.116 102.733V102.56H107.975V102.733C107.975 102.821 107.983 102.881 107.998 102.943C107.945 102.908 107.895 102.881 107.805 102.851L107.649 102.798L107.599 102.928L107.762 102.986Z" fill="#93A5B1"/>
<path d="M169.355 88.5115V87.5085H167.295V86.4854H169.121V85.5359H167.295V84.5663H169.355V83.5633H166.212V88.5115H169.355ZM170.963 88.5115L171.525 87.5486L172.1 88.5115H173.283L172.22 86.8733L173.324 85.1681H172.173L171.598 86.1845L170.983 85.1681H169.793L170.916 86.8933L169.793 88.5115H170.963ZM173.777 90.1164H174.807V88.1772C175.001 88.4313 175.429 88.6052 175.89 88.6052C176.887 88.6052 177.462 87.8428 177.462 86.7863C177.462 85.7097 176.813 85.0611 175.884 85.0611C175.409 85.0611 174.988 85.2684 174.8 85.576L174.747 85.1681H173.777V90.1164ZM174.814 86.8398C174.814 86.3383 175.148 86.004 175.629 86.004C176.118 86.004 176.425 86.345 176.425 86.8398C176.425 87.3346 176.118 87.6757 175.629 87.6757C175.148 87.6757 174.814 87.3413 174.814 86.8398ZM179.606 88.5985C180.522 88.5985 181.184 88.1237 181.304 87.3815H180.361C180.288 87.6222 180.014 87.7626 179.626 87.7626C179.171 87.7626 178.924 87.5553 178.864 87.114L181.291 87.1006V86.8398C181.291 85.7499 180.636 85.0611 179.586 85.0611C178.576 85.0611 177.874 85.79 177.874 86.8331C177.874 87.8629 178.596 88.5985 179.606 88.5985ZM179.592 85.897C180.007 85.897 180.268 86.1243 180.268 86.4787H178.877C178.957 86.0775 179.185 85.897 179.592 85.897ZM182.93 88.5115V86.6793C182.93 86.2648 183.191 85.9973 183.599 85.9973C183.954 85.9973 184.188 86.2714 184.188 86.6927V88.5115H185.217V86.4453C185.217 85.5693 184.756 85.0611 183.96 85.0611C183.526 85.0611 183.144 85.2283 182.937 85.5158L182.87 85.1681H181.901V88.5115H182.93ZM185.676 87.455C185.676 88.1304 186.231 88.5985 187.114 88.5985C187.983 88.5985 188.591 88.1638 188.591 87.4483C188.591 86.9134 188.291 86.6593 187.742 86.5389L187.12 86.4052C186.886 86.3517 186.759 86.2648 186.759 86.111C186.759 85.9304 186.906 85.81 187.14 85.81C187.388 85.81 187.528 85.9638 187.528 86.1912H188.505C188.505 85.5158 187.963 85.0611 187.187 85.0611C186.385 85.0611 185.79 85.4623 185.79 86.1578C185.79 86.7462 186.091 87.0137 186.706 87.1474L187.321 87.2812C187.568 87.3346 187.622 87.4416 187.622 87.5419C187.622 87.7158 187.475 87.8295 187.154 87.8295C186.84 87.8295 186.666 87.6891 186.652 87.455H185.676ZM190.681 88.5985C191.597 88.5985 192.259 88.1237 192.379 87.3815H191.437C191.363 87.6222 191.089 87.7626 190.701 87.7626C190.246 87.7626 189.999 87.5553 189.939 87.114L192.366 87.1006V86.8398C192.366 85.7499 191.711 85.0611 190.661 85.0611C189.651 85.0611 188.949 85.79 188.949 86.8331C188.949 87.8629 189.671 88.5985 190.681 88.5985ZM190.668 85.897C191.082 85.897 191.343 86.1243 191.343 86.4787H189.952C190.032 86.0775 190.26 85.897 190.668 85.897ZM197.012 88.5918C198.249 88.5918 199.172 87.8629 199.346 86.7596H198.223C198.089 87.2477 197.641 87.5486 197.032 87.5486C196.237 87.5486 195.742 86.9669 195.742 86.0374C195.742 85.0946 196.23 84.5262 197.032 84.5262C197.628 84.5262 198.049 84.807 198.196 85.3018H199.339C199.186 84.1918 198.296 83.483 197.059 83.483C195.581 83.483 194.598 84.4994 194.598 86.0441C194.598 87.6088 195.528 88.5918 197.012 88.5918ZM200.941 88.5115V83.4696H199.911V88.5115H200.941ZM202.723 88.5985C203.224 88.5985 203.666 88.3778 203.773 88.0702L203.84 88.5115H204.749V86.559C204.749 85.6028 204.201 85.0611 203.231 85.0611C202.275 85.0611 201.653 85.5559 201.653 86.3116H202.509C202.509 86.0107 202.743 85.8435 203.178 85.8435C203.545 85.8435 203.746 86.0173 203.746 86.345V86.3985L202.81 86.472C202.007 86.5322 201.573 86.9134 201.573 87.5286C201.573 88.1839 202.014 88.5985 202.723 88.5985ZM203.084 87.8362C202.77 87.8362 202.623 87.7225 202.623 87.4818C202.623 87.2678 202.783 87.1675 203.231 87.1274L203.753 87.0805V87.2611C203.753 87.6422 203.478 87.8362 203.084 87.8362ZM205.996 84.6465C206.317 84.6465 206.578 84.3857 206.578 84.0581C206.578 83.7304 206.317 83.4763 205.996 83.4763C205.668 83.4763 205.407 83.7304 205.407 84.0581C205.407 84.3857 205.668 84.6465 205.996 84.6465ZM205.488 88.5115H206.517V85.1681H205.488V88.5115ZM208.32 88.5115V86.7195C208.32 86.1578 208.621 85.9973 208.915 85.9973C209.242 85.9973 209.456 86.1979 209.456 86.6125V88.5115H210.486V86.7195C210.486 86.1511 210.78 85.9906 211.075 85.9906C211.402 85.9906 211.623 86.1912 211.623 86.6125V88.5115H212.653V86.3249C212.653 85.5626 212.225 85.0611 211.362 85.0611C210.881 85.0611 210.486 85.2952 210.312 85.6496C210.118 85.2952 209.797 85.0611 209.296 85.0611C208.814 85.0611 208.487 85.2818 208.32 85.5158L208.253 85.1681H207.29V88.5115H208.32Z" fill="#284B64"/>
<path d="M69.6122 32.4497C69.6122 28.295 72.9802 24.927 77.1349 24.927H301.981C306.135 24.927 309.503 28.295 309.503 32.4497V67.9737H69.6122V32.4497Z" fill="url(#paint0_radial_1_2502)"/>
<circle cx="189.559" cy="65.048" r="12.1199" fill="#8479FF"/>
<path fill-rule="evenodd" clip-rule="evenodd" d="M186.217 62.8191C186.217 62.5114 186.466 62.2619 186.774 62.2619L191.232 62.2619C191.54 62.2619 191.789 62.5114 191.789 62.8191C191.789 63.1269 191.54 63.3764 191.232 63.3764L186.774 63.3764C186.466 63.3764 186.217 63.1269 186.217 62.8191Z" fill="white"/>
<path fill-rule="evenodd" clip-rule="evenodd" d="M186.217 65.0481C186.217 64.7403 186.466 64.4909 186.774 64.4909L189.281 64.4909C189.589 64.4909 189.839 64.7403 189.839 65.0481C189.839 65.3558 189.589 65.6053 189.281 65.6053L186.774 65.6053C186.466 65.6053 186.217 65.3558 186.217 65.0481Z" fill="white"/>
<path fill-rule="evenodd" clip-rule="evenodd" d="M186.217 67.277C186.217 66.9693 186.466 66.7198 186.774 66.7198L189.281 66.7198C189.589 66.7198 189.839 66.9693 189.839 67.277C189.839 67.5848 189.589 67.8343 189.281 67.8343L186.774 67.8343C186.466 67.8343 186.217 67.5848 186.217 67.277Z" fill="white"/>
<path d="M185.659 59.4757C184.736 59.4757 183.988 60.2242 183.988 61.1474V68.9488C183.988 69.872 184.736 70.6205 185.659 70.6205H190.675L189.56 69.506H185.659C185.352 69.506 185.102 69.2565 185.102 68.9488V61.1474C185.102 60.8397 185.352 60.5902 185.659 60.5902H192.346C192.654 60.5902 192.903 60.8397 192.903 61.1474V63.5621L194.018 64.3051V61.1474C194.018 60.2242 193.27 59.4757 192.346 59.4757H185.659Z" fill="white"/>
<path d="M192.346 62.8191C190.48 62.8191 189.003 63.8117 189.003 65.0618V68.9356C189.003 70.1964 190.468 71.1777 192.346 71.1777C194.224 71.1777 195.69 70.1908 195.69 68.935V65.1063C195.678 63.8117 194.213 62.8191 192.346 62.8191ZM194.575 69.0416C194.575 69.5291 193.628 70.073 192.346 70.073C191.065 70.073 190.117 69.5122 190.117 69.0416V68.9238C190.117 68.9131 190.119 68.9024 190.124 68.8933C190.13 68.8843 190.137 68.8759 190.146 68.8702C190.155 68.8646 190.165 68.8612 190.176 68.8606C190.186 68.8601 190.197 68.8623 190.206 68.8674C190.87 69.1875 191.589 69.3386 192.335 69.3386C193.076 69.3386 193.822 69.1881 194.486 68.8674C194.495 68.8623 194.505 68.8601 194.516 68.8606C194.527 68.8612 194.537 68.8646 194.546 68.8702C194.551 68.873 194.555 68.8763 194.558 68.8801C194.565 68.888 194.569 68.8987 194.571 68.9092C194.574 68.9189 194.575 68.9288 194.575 68.9388L194.575 69.0416ZM194.575 67.1134C194.575 67.6009 193.628 68.1448 192.346 68.1448C191.065 68.1448 190.117 67.584 190.117 67.1134V66.9956C190.117 66.9849 190.119 66.9742 190.124 66.9652C190.13 66.9556 190.137 66.9477 190.146 66.9421C190.155 66.9364 190.165 66.933 190.176 66.9325C190.186 66.9319 190.197 66.9342 190.206 66.9392C190.87 67.2594 191.589 67.4104 192.335 67.4104C193.076 67.4104 193.822 67.2599 194.486 66.9392C194.495 66.9342 194.505 66.9319 194.516 66.9325C194.527 66.933 194.537 66.9364 194.546 66.9421C194.553 66.9463 194.559 66.9519 194.563 66.9585C194.566 66.9628 194.568 66.9677 194.569 66.9727C194.573 66.9879 194.575 67.0035 194.575 67.0191V67.1134H194.575ZM192.346 66.1626C191.076 66.1626 190.117 65.5775 190.117 65.0618C190.117 64.5461 191.065 63.934 192.346 63.934C193.628 63.934 194.575 64.5405 194.575 65.0618C194.575 65.5832 193.617 66.1626 192.346 66.1626Z" fill="white"/>
<path d="M176.923 37.8575C177.655 37.8575 178.137 37.361 178.137 36.6538C178.137 35.9367 177.66 35.4552 176.923 35.4552H175.474V39.1213H176.116V37.8575H176.923ZM176.798 36.0269C177.224 36.0269 177.465 36.2476 177.465 36.6488C177.465 37.05 177.229 37.2857 176.788 37.2857H176.116V36.0269H176.798ZM179.226 39.1865C179.612 39.1865 179.948 39.0109 180.053 38.7552L180.099 39.1213H180.635V37.6167C180.635 36.9297 180.224 36.5686 179.557 36.5686C178.885 36.5686 178.444 36.9196 178.444 37.4562H178.965C178.965 37.1955 179.166 37.045 179.527 37.045C179.838 37.045 180.038 37.1804 180.038 37.5164V37.5716L179.296 37.6268C178.709 37.6719 178.378 37.9578 178.378 38.4141C178.378 38.8805 178.699 39.1865 179.226 39.1865ZM179.427 38.7251C179.151 38.7251 179 38.6147 179 38.3891C179 38.1885 179.146 38.0631 179.527 38.028L180.043 37.9879V38.1182C180.043 38.4994 179.803 38.7251 179.427 38.7251ZM180.952 40.2697C181.087 40.3049 181.238 40.3249 181.408 40.3249C181.815 40.3249 182.075 40.1343 182.261 39.6729L183.475 36.6438H182.843L182.171 38.4492L181.534 36.6438H180.887L181.885 39.2266L181.815 39.4122C181.709 39.703 181.559 39.7582 181.318 39.7582H180.952V40.2697ZM185.906 39.1213V37.7521H186.694L187.315 39.1213H188.018L187.32 37.6167C187.752 37.4412 187.982 37.0901 187.982 36.5987C187.982 35.8765 187.496 35.4552 186.663 35.4552H185.264V39.1213H185.906ZM185.906 36.0269H186.663C187.07 36.0269 187.31 36.2326 187.31 36.5987C187.31 36.9698 187.07 37.1854 186.663 37.1854H185.906V36.0269ZM189.466 39.1865C190.113 39.1865 190.564 38.8605 190.669 38.3189H190.103C190.032 38.5546 189.812 38.685 189.476 38.685C189.07 38.685 188.839 38.4643 188.794 38.028L190.659 38.023V37.8374C190.659 37.0651 190.188 36.5686 189.446 36.5686C188.718 36.5686 188.212 37.1052 188.212 37.8825C188.212 38.6499 188.728 39.1865 189.466 39.1865ZM189.451 37.0701C189.817 37.0701 190.052 37.2958 190.052 37.6368H188.809C188.869 37.2657 189.09 37.0701 189.451 37.0701ZM191.004 37.8524C191.004 38.6248 191.425 39.1865 192.162 39.1865C192.528 39.1865 192.854 39.041 193.01 38.7903V40.2697H193.616V36.6438H193.055L193.015 37.0199C192.864 36.7341 192.538 36.5686 192.162 36.5686C191.465 36.5686 191.004 37.0751 191.004 37.8524ZM191.615 37.8825C191.615 37.4412 191.876 37.1252 192.302 37.1252C192.729 37.1252 193.005 37.4362 193.005 37.8825C193.005 38.3289 192.729 38.6348 192.302 38.6348C191.876 38.6348 191.615 38.3239 191.615 37.8825ZM195.934 36.6438V37.9427C195.934 38.4141 195.749 38.6398 195.362 38.6398C195.021 38.6398 194.836 38.4492 194.836 37.9778V36.6438H194.224V38.1935C194.224 38.8003 194.56 39.1865 195.132 39.1865C195.463 39.1865 195.784 39.026 195.934 38.7903L195.979 39.1213H196.546V36.6438H195.934ZM198.237 39.1865C198.884 39.1865 199.336 38.8605 199.441 38.3189H198.874C198.804 38.5546 198.583 38.685 198.247 38.685C197.841 38.685 197.61 38.4643 197.565 38.028L199.431 38.023V37.8374C199.431 37.0651 198.96 36.5686 198.217 36.5686C197.49 36.5686 196.984 37.1052 196.984 37.8825C196.984 38.6499 197.5 39.1865 198.237 39.1865ZM198.222 37.0701C198.588 37.0701 198.824 37.2958 198.824 37.6368H197.58C197.641 37.2657 197.861 37.0701 198.222 37.0701ZM199.73 38.369C199.73 38.8555 200.121 39.1865 200.738 39.1865C201.35 39.1865 201.776 38.8755 201.776 38.374C201.776 37.9929 201.566 37.8023 201.149 37.707L200.703 37.6017C200.492 37.5515 200.382 37.4613 200.382 37.3208C200.382 37.1353 200.522 37.0249 200.763 37.0249C200.999 37.0249 201.139 37.1604 201.144 37.371H201.726C201.721 36.8895 201.345 36.5686 200.788 36.5686C200.217 36.5686 199.805 36.8594 199.805 37.3459C199.805 37.7421 200.021 37.9527 200.467 38.0531L200.914 38.1584C201.134 38.2085 201.199 38.2988 201.199 38.4242C201.199 38.6047 201.044 38.7201 200.758 38.7201C200.477 38.7201 200.317 38.5847 200.312 38.369H199.73ZM203.085 39.1213V37.1553H203.566V36.6438H203.085V35.8715H202.473V36.6438H201.996V37.1553H202.473V39.1213H203.085Z" fill="#284B64"/>
<g filter="url(#filter3_ddd_1_2502)">
<rect x="148.182" y="195.024" width="82.3319" height="13.3737" rx="5.01514" fill="#1A938A"/>
</g>
<path d="M173.572 200.306C173.572 200.868 173.898 201.224 174.52 201.36L175.102 201.49C175.403 201.555 175.528 201.701 175.528 201.946C175.528 202.252 175.257 202.438 174.831 202.438C174.42 202.438 174.169 202.252 174.164 201.941H173.522C173.537 202.598 174.049 203.015 174.831 203.015C175.639 203.015 176.17 202.573 176.17 201.891C176.17 201.345 175.864 201.024 175.237 200.888L174.661 200.763C174.355 200.693 174.214 200.547 174.214 200.286C174.214 199.98 174.47 199.79 174.866 199.79C175.227 199.79 175.453 199.975 175.468 200.291H176.11C176.09 199.629 175.619 199.218 174.876 199.218C174.104 199.218 173.572 199.665 173.572 200.306ZM177.769 203.015C178.416 203.015 178.867 202.689 178.973 202.147H178.406C178.336 202.383 178.115 202.513 177.779 202.513C177.373 202.513 177.142 202.292 177.097 201.856L178.963 201.851V201.666C178.963 200.893 178.491 200.397 177.749 200.397C177.022 200.397 176.515 200.933 176.515 201.711C176.515 202.478 177.032 203.015 177.769 203.015ZM177.754 200.898C178.12 200.898 178.356 201.124 178.356 201.465H177.112C177.172 201.094 177.393 200.898 177.754 200.898ZM180.064 202.949V201.615C180.064 201.214 180.295 200.953 180.671 200.953C180.987 200.953 181.193 201.154 181.193 201.57V202.949H181.804V201.425C181.804 200.783 181.483 200.397 180.862 200.397C180.526 200.397 180.225 200.542 180.069 200.793L180.019 200.472H179.452V202.949H180.064ZM183.424 203.015C183.8 203.015 184.121 202.849 184.271 202.563L184.311 202.949H184.873V199.218H184.266V200.788C184.111 200.542 183.805 200.397 183.459 200.397C182.711 200.397 182.26 200.948 182.26 201.721C182.26 202.488 182.706 203.015 183.424 203.015ZM183.559 202.453C183.133 202.453 182.872 202.142 182.872 201.701C182.872 201.259 183.133 200.943 183.559 200.943C183.985 200.943 184.261 201.254 184.261 201.701C184.261 202.147 183.985 202.453 183.559 202.453ZM187.595 202.949V201.58H188.382L189.004 202.949H189.706L189.009 201.445C189.44 201.269 189.671 200.918 189.671 200.427C189.671 199.705 189.184 199.283 188.352 199.283H186.953V202.949H187.595ZM187.595 199.855H188.352C188.758 199.855 188.999 200.061 188.999 200.427C188.999 200.798 188.758 201.014 188.352 201.014H187.595V199.855ZM191.154 203.015C191.801 203.015 192.252 202.689 192.358 202.147H191.791C191.721 202.383 191.5 202.513 191.164 202.513C190.758 202.513 190.527 202.292 190.482 201.856L192.348 201.851V201.666C192.348 200.893 191.876 200.397 191.134 200.397C190.407 200.397 189.9 200.933 189.9 201.711C189.9 202.478 190.417 203.015 191.154 203.015ZM191.139 200.898C191.505 200.898 191.741 201.124 191.741 201.465H190.497C190.557 201.094 190.778 200.898 191.139 200.898ZM192.692 201.681C192.692 202.453 193.113 203.015 193.851 203.015C194.217 203.015 194.543 202.869 194.698 202.618V204.098H195.305V200.472H194.743L194.703 200.848C194.553 200.562 194.227 200.397 193.851 200.397C193.153 200.397 192.692 200.903 192.692 201.681ZM193.304 201.711C193.304 201.269 193.565 200.953 193.991 200.953C194.417 200.953 194.693 201.264 194.693 201.711C194.693 202.157 194.417 202.463 193.991 202.463C193.565 202.463 193.304 202.152 193.304 201.711ZM197.623 200.472V201.771C197.623 202.242 197.437 202.468 197.051 202.468C196.71 202.468 196.524 202.277 196.524 201.806V200.472H195.912V202.022C195.912 202.628 196.248 203.015 196.82 203.015C197.151 203.015 197.472 202.854 197.623 202.618L197.668 202.949H198.234V200.472H197.623ZM199.926 203.015C200.573 203.015 201.024 202.689 201.129 202.147H200.563C200.492 202.383 200.272 202.513 199.936 202.513C199.53 202.513 199.299 202.292 199.254 201.856L201.119 201.851V201.666C201.119 200.893 200.648 200.397 199.906 200.397C199.179 200.397 198.672 200.933 198.672 201.711C198.672 202.478 199.189 203.015 199.926 203.015ZM199.911 200.898C200.277 200.898 200.513 201.124 200.513 201.465H199.269C199.329 201.094 199.55 200.898 199.911 200.898ZM201.418 202.197C201.418 202.684 201.81 203.015 202.427 203.015C203.038 203.015 203.465 202.704 203.465 202.202C203.465 201.821 203.254 201.63 202.838 201.535L202.391 201.43C202.181 201.38 202.07 201.289 202.07 201.149C202.07 200.963 202.211 200.853 202.452 200.853C202.687 200.853 202.828 200.989 202.833 201.199H203.415C203.409 200.718 203.033 200.397 202.477 200.397C201.905 200.397 201.494 200.688 201.494 201.174C201.494 201.57 201.709 201.781 202.156 201.881L202.602 201.987C202.823 202.037 202.888 202.127 202.888 202.252C202.888 202.433 202.732 202.548 202.447 202.548C202.166 202.548 202.005 202.413 202 202.197H201.418ZM204.773 202.949V200.984H205.255V200.472H204.773V199.7H204.161V200.472H203.685V200.984H204.161V202.949H204.773Z" fill="white"/>
<path fill-rule="evenodd" clip-rule="evenodd" d="M77.1347 110.881V110.324H82.1498V110.881H77.1347ZM80.3627 111.438L79.3637 112.437L78.9218 111.995C78.813 111.887 78.6366 111.887 78.5278 111.995C78.419 112.104 78.419 112.281 78.5278 112.389L79.3637 113.225L80.7568 111.832C80.8656 111.723 80.8656 111.547 80.7568 111.438C80.6479 111.329 80.4715 111.329 80.3627 111.438Z" fill="#93A5B1"/>
<path d="M91.2627 112.681V112.201H90.126V111.369H91.4801V110.876H89.591V113.931H90.126V112.681H91.2627ZM92.6515 113.985C93.1906 113.985 93.5668 113.713 93.6545 113.262H93.1823C93.1238 113.459 92.9399 113.567 92.6599 113.567C92.3213 113.567 92.1291 113.383 92.0915 113.02L93.6462 113.016V112.861C93.6462 112.217 93.2533 111.804 92.6348 111.804C92.0288 111.804 91.6067 112.251 91.6067 112.899C91.6067 113.538 92.0371 113.985 92.6515 113.985ZM92.639 112.221C92.9441 112.221 93.1405 112.41 93.1405 112.694H92.104C92.1542 112.384 92.3381 112.221 92.639 112.221ZM94.5265 113.931L94.5599 113.609C94.6811 113.847 94.9444 113.985 95.2537 113.985C95.8472 113.985 96.2358 113.546 96.2358 112.911C96.2358 112.259 95.8764 111.799 95.2871 111.799C94.9737 111.799 94.6979 111.937 94.5641 112.167V110.821H94.0542V113.931H94.5265ZM94.5683 112.89C94.5683 112.518 94.7982 112.259 95.1492 112.259C95.5086 112.259 95.7218 112.522 95.7218 112.89C95.7218 113.258 95.5086 113.517 95.1492 113.517C94.7982 113.517 94.5683 113.262 94.5683 112.89ZM97.1965 113.747C97.1965 113.488 97.0461 113.316 96.8371 113.316C96.649 113.316 96.5195 113.45 96.5195 113.651C96.5195 113.818 96.6532 113.939 96.8162 113.939C96.8663 113.939 96.904 113.931 96.9374 113.914C96.9374 114.06 96.7953 114.173 96.6072 114.207V114.411C96.9458 114.37 97.1965 114.094 97.1965 113.747ZM99.7794 113.927V113.429H98.5089L99.0605 112.957C99.5244 112.56 99.7585 112.238 99.7585 111.812C99.7585 111.193 99.3531 110.821 98.7011 110.821C98.0533 110.821 97.627 111.256 97.6229 111.925H98.1536C98.1578 111.532 98.3668 111.298 98.7011 111.298C99.0229 111.298 99.211 111.494 99.211 111.841C99.211 112.134 99.0731 112.334 98.6593 112.685L97.6605 113.53V113.931L99.7794 113.927ZM100.109 112.41C100.109 113.354 100.59 113.985 101.4 113.985C102.211 113.985 102.696 113.354 102.696 112.41C102.696 111.461 102.182 110.817 101.4 110.817C100.619 110.817 100.109 111.461 100.109 112.41ZM100.636 112.41C100.636 111.687 100.92 111.289 101.4 111.289C101.885 111.289 102.169 111.687 102.169 112.41C102.169 113.116 101.885 113.513 101.4 113.513C100.92 113.513 100.636 113.116 100.636 112.41ZM105.187 113.927V113.429H103.917L104.468 112.957C104.932 112.56 105.166 112.238 105.166 111.812C105.166 111.193 104.761 110.821 104.109 110.821C103.461 110.821 103.035 111.256 103.031 111.925H103.561C103.566 111.532 103.775 111.298 104.109 111.298C104.431 111.298 104.619 111.494 104.619 111.841C104.619 112.134 104.481 112.334 104.067 112.685L103.068 113.53V113.931L105.187 113.927ZM106.448 112.418C106.874 112.418 107.075 112.644 107.075 112.953C107.075 113.291 106.853 113.509 106.519 113.509C106.193 113.509 105.976 113.308 105.976 112.957H105.449C105.449 113.617 105.913 113.985 106.511 113.985C107.129 113.985 107.618 113.588 107.618 112.961C107.618 112.422 107.255 112.079 106.787 111.987L107.53 111.302V110.876H105.591V111.348H106.862L106.076 112.071V112.418H106.448Z" fill="#043344"/>
<path fill-rule="evenodd" clip-rule="evenodd" d="M287.851 111.299C287.905 111.245 287.993 111.245 288.048 111.299C288.102 111.353 288.102 111.442 288.048 111.496L286.933 112.611L285.819 111.496C285.764 111.442 285.764 111.353 285.819 111.299C285.873 111.245 285.961 111.245 286.016 111.299L286.933 112.217L287.851 111.299Z" fill="#93A5B1"/>
<mask id="mask0_1_2502" style="mask-type:luminance" maskUnits="userSpaceOnUse" x="285" y="111" width="4" height="2">
<path fill-rule="evenodd" clip-rule="evenodd" d="M287.851 111.299C287.905 111.245 287.993 111.245 288.048 111.299C288.102 111.353 288.102 111.442 288.048 111.496L286.933 112.611L285.819 111.496C285.764 111.442 285.764 111.353 285.819 111.299C285.873 111.245 285.961 111.245 286.016 111.299L286.933 112.217L287.851 111.299Z" fill="white"/>
</mask>
<g mask="url(#mask0_1_2502)">
</g>
<rect x="86.1181" y="107.05" width="205.621" height="9.61236" rx="1.04482" stroke="#32C69A" stroke-width="0.417929"/>
<path fill-rule="evenodd" clip-rule="evenodd" d="M81.8161 124.925C81.5094 124.769 81.1104 124.683 80.6929 124.683C80.5689 124.683 80.4465 124.691 80.3278 124.705V123.252C80.3278 122.913 80.1045 122.605 79.7153 122.407C79.4086 122.251 79.0096 122.165 78.592 122.165C78.1745 122.165 77.7755 122.251 77.4687 122.407C77.0795 122.605 76.8563 122.913 76.8563 123.252V126.219C76.8563 126.558 77.0795 126.866 77.4687 127.064C77.7755 127.22 78.1744 127.306 78.592 127.306C78.7175 127.306 78.8411 127.298 78.9611 127.282C78.9914 127.592 79.2091 127.869 79.5696 128.053C79.8763 128.209 80.2752 128.295 80.6929 128.295C81.1104 128.295 81.5094 128.209 81.8161 128.053C82.2054 127.855 82.4286 127.547 82.4286 127.208V125.77C82.4286 125.431 82.2054 125.123 81.8161 124.925ZM82.0058 125.77C82.0058 126.006 81.5063 126.336 80.6928 126.336C79.8794 126.336 79.3799 126.006 79.3799 125.77C79.3799 125.533 79.8794 125.204 80.6928 125.204C81.5063 125.204 82.0058 125.533 82.0058 125.77ZM82.0058 126.539C82.0058 126.776 81.5063 127.105 80.6928 127.105C79.8794 127.105 79.3799 126.776 79.3799 126.539C79.3799 126.505 79.3914 126.468 79.4126 126.43C79.7216 126.625 80.1731 126.743 80.6928 126.743C81.2125 126.743 81.6641 126.625 81.9731 126.43C81.9942 126.468 82.0058 126.505 82.0058 126.539ZM78.592 122.686C79.4055 122.686 79.905 123.015 79.905 123.252C79.905 123.488 79.4055 123.818 78.592 123.818C77.7786 123.818 77.2791 123.488 77.2791 123.252C77.2791 123.015 77.7785 122.686 78.592 122.686ZM77.3118 123.912C77.6208 124.107 78.0723 124.225 78.592 124.225C79.1118 124.225 79.5633 124.107 79.8723 123.912C79.8934 123.95 79.905 123.987 79.905 124.022C79.905 124.258 79.4055 124.588 78.592 124.588C77.7786 124.588 77.2791 124.258 77.2791 124.022C77.2791 123.987 77.2906 123.95 77.3118 123.912ZM77.3118 124.682C77.6208 124.877 78.0722 124.995 78.592 124.995C79.1118 124.995 79.5633 124.877 79.8723 124.682C79.8934 124.72 79.905 124.757 79.905 124.791C79.905 124.792 79.905 124.792 79.9049 124.793C79.7848 124.829 79.6719 124.873 79.5696 124.925C79.3686 125.027 79.2123 125.159 79.1077 125.309C78.9545 125.339 78.782 125.357 78.5921 125.357C77.7787 125.357 77.2792 125.028 77.2792 124.791C77.2791 124.757 77.2906 124.72 77.3118 124.682ZM77.3118 125.452C77.6208 125.646 78.0722 125.765 78.592 125.765C78.7186 125.765 78.8408 125.757 78.9581 125.744C78.9579 125.752 78.957 125.761 78.957 125.77V126.103C78.8437 126.118 78.7222 126.127 78.5919 126.127C77.7785 126.127 77.279 125.797 77.279 125.561C77.2791 125.526 77.2906 125.489 77.3118 125.452ZM77.2568 126.219V126.185C77.5659 126.401 78.0406 126.535 78.5919 126.535C78.7182 126.535 78.8399 126.527 78.957 126.514V126.872C78.8409 126.889 78.7187 126.898 78.5919 126.898C77.8546 126.898 77.2568 126.594 77.2568 126.219ZM82.0281 127.208C82.0281 127.583 81.4303 127.887 80.6929 127.887C79.9555 127.887 79.3577 127.583 79.3577 127.208V127.202V127.164C79.6668 127.379 80.1415 127.513 80.6929 127.513C81.2442 127.513 81.7191 127.38 82.0281 127.164V127.208Z" fill="#93A5B1"/>
<rect x="85.9105" y="120.214" width="133.319" height="10.0303" rx="1.25379" fill="#F4F6F7"/>
<path d="M89.4168 125.102C89.4168 125.57 89.6885 125.867 90.2067 125.979L90.6915 126.088C90.9423 126.142 91.0468 126.264 91.0468 126.468C91.0468 126.723 90.8211 126.878 90.4658 126.878C90.1231 126.878 89.9142 126.723 89.91 126.464H89.375C89.3876 127.012 89.8139 127.359 90.4658 127.359C91.1387 127.359 91.5817 126.991 91.5817 126.422C91.5817 125.967 91.3268 125.699 90.8044 125.587L90.3237 125.482C90.0688 125.424 89.9518 125.302 89.9518 125.085C89.9518 124.83 90.1649 124.671 90.4951 124.671C90.796 124.671 90.9841 124.826 90.9966 125.089H91.5316C91.5148 124.538 91.122 124.195 90.5035 124.195C89.8598 124.195 89.4168 124.567 89.4168 125.102ZM92.9141 127.359C93.4532 127.359 93.8293 127.087 93.9171 126.636H93.4448C93.3863 126.832 93.2024 126.941 92.9224 126.941C92.5839 126.941 92.3916 126.757 92.354 126.393L93.9087 126.389V126.234C93.9087 125.591 93.5159 125.177 92.8973 125.177C92.2913 125.177 91.8692 125.624 91.8692 126.272C91.8692 126.911 92.2997 127.359 92.9141 127.359ZM92.9015 125.595C93.2066 125.595 93.403 125.783 93.403 126.067H92.3666C92.4167 125.758 92.6006 125.595 92.9015 125.595ZM95.6124 125.231C95.5288 125.21 95.4577 125.202 95.3867 125.202C95.1109 125.202 94.9144 125.34 94.8267 125.545L94.7974 125.244H94.3168V127.304H94.8267V126.301C94.8267 125.9 95.0565 125.704 95.4243 125.704H95.6124V125.231ZM96.6038 127.304H97.1053L97.9663 125.24H97.4397L97.0635 126.188C96.9758 126.414 96.9005 126.631 96.8713 126.761C96.8462 126.648 96.7752 126.435 96.6874 126.188L96.328 125.24H95.7847L96.6038 127.304ZM98.5143 124.826C98.6815 124.826 98.8194 124.688 98.8194 124.517C98.8194 124.345 98.6815 124.212 98.5143 124.212C98.3388 124.212 98.2009 124.345 98.2009 124.517C98.2009 124.688 98.3388 124.826 98.5143 124.826ZM98.2594 127.304H98.7692V125.24H98.2594V127.304ZM99.1748 126.268C99.1748 126.924 99.5844 127.359 100.211 127.359C100.75 127.359 101.152 127.028 101.214 126.548H100.7C100.646 126.773 100.466 126.899 100.211 126.899C99.8853 126.899 99.6847 126.656 99.6847 126.268C99.6847 125.879 99.902 125.632 100.228 125.632C100.47 125.632 100.642 125.754 100.7 125.988H101.21C101.156 125.49 100.771 125.177 100.207 125.177C99.5969 125.177 99.1748 125.628 99.1748 126.268ZM102.517 127.359C103.057 127.359 103.433 127.087 103.52 126.636H103.048C102.99 126.832 102.806 126.941 102.526 126.941C102.187 126.941 101.995 126.757 101.957 126.393L103.512 126.389V126.234C103.512 125.591 103.119 125.177 102.501 125.177C101.895 125.177 101.473 125.624 101.473 126.272C101.473 126.911 101.903 127.359 102.517 127.359ZM102.505 125.595C102.81 125.595 103.006 125.783 103.006 126.067H101.97C102.02 125.758 102.204 125.595 102.505 125.595Z" fill="#043344"/>
<rect x="222.574" y="120.214" width="69.3762" height="10.0303" rx="1.25379" fill="#F4F6F7"/>
<path d="M226.521 127.304L226.767 126.598H227.908L228.155 127.304H228.719L227.616 124.249H227.068L225.965 127.304H226.521ZM227.273 125.16C227.302 125.077 227.327 124.985 227.34 124.926C227.348 124.989 227.377 125.081 227.403 125.16L227.754 126.146H226.926L227.273 125.16ZM229.537 127.304V126.134C229.537 125.8 229.733 125.641 229.976 125.641C230.218 125.641 230.373 125.795 230.373 126.084V127.304H230.882V126.134C230.882 125.795 231.071 125.637 231.317 125.637C231.56 125.637 231.718 125.791 231.718 126.088V127.304H232.224V125.954C232.224 125.478 231.948 125.177 231.447 125.177C231.133 125.177 230.891 125.331 230.786 125.57C230.678 125.331 230.46 125.177 230.147 125.177C229.85 125.177 229.641 125.311 229.537 125.482L229.495 125.24H229.027V127.304H229.537ZM232.603 126.268C232.603 126.911 233.067 127.354 233.707 127.354C234.346 127.354 234.81 126.911 234.81 126.268C234.81 125.624 234.346 125.181 233.707 125.181C233.067 125.181 232.603 125.624 232.603 126.268ZM233.113 126.268C233.113 125.891 233.356 125.637 233.707 125.637C234.058 125.637 234.3 125.891 234.3 126.268C234.3 126.644 234.058 126.899 233.707 126.899C233.356 126.899 233.113 126.644 233.113 126.268ZM236.565 125.24V126.322C236.565 126.715 236.411 126.903 236.089 126.903C235.805 126.903 235.65 126.744 235.65 126.351V125.24H235.14V126.531C235.14 127.037 235.42 127.358 235.897 127.358C236.172 127.358 236.44 127.225 236.565 127.028L236.603 127.304H237.075V125.24H236.565ZM238.112 127.304V126.192C238.112 125.858 238.304 125.641 238.617 125.641C238.881 125.641 239.052 125.808 239.052 126.155V127.304H239.562V126.034C239.562 125.499 239.294 125.177 238.776 125.177C238.496 125.177 238.245 125.298 238.116 125.507L238.074 125.24H237.602V127.304H238.112ZM240.765 127.304V125.666H241.166V125.24H240.765V124.596H240.255V125.24H239.858V125.666H240.255V127.304H240.765Z" fill="#043344"/>
<path d="M90.6038 140.678C91.4981 140.678 92.0999 140.068 92.0999 139.169C92.0999 138.266 91.4898 137.656 90.587 137.656H89.6049V140.678H90.6038ZM90.5578 138.032C91.2474 138.032 91.6737 138.467 91.6737 139.169C91.6737 139.863 91.2474 140.298 90.5745 140.298H90.0145V138.032H90.5578ZM93.436 140.728C93.9417 140.728 94.2844 140.481 94.3847 140.043H94.0169C93.95 140.277 93.7494 140.402 93.4443 140.402C93.0557 140.402 92.83 140.164 92.8007 139.733L94.3805 139.729V139.583C94.3805 138.977 94.0002 138.576 93.4193 138.576C92.8258 138.576 92.4204 139.019 92.4204 139.658C92.4204 140.293 92.8342 140.728 93.436 140.728ZM93.4193 138.906C93.7661 138.906 93.9876 139.132 93.9876 139.47H92.8091C92.8592 139.111 93.0766 138.906 93.4193 138.906ZM94.6521 140.084C94.6521 140.473 94.9572 140.728 95.4378 140.728C95.9226 140.728 96.257 140.481 96.257 140.093C96.257 139.788 96.0856 139.629 95.7387 139.545L95.3793 139.458C95.1787 139.407 95.0784 139.315 95.0784 139.177C95.0784 138.989 95.2163 138.881 95.4629 138.881C95.7011 138.881 95.839 139.01 95.8474 139.215H96.2235C96.2152 138.826 95.9226 138.576 95.4754 138.576C95.0241 138.576 94.7064 138.814 94.7064 139.19C94.7064 139.491 94.8778 139.671 95.2414 139.758L95.6008 139.842C95.814 139.896 95.8808 139.98 95.8808 140.118C95.8808 140.306 95.722 140.419 95.4462 140.419C95.1871 140.419 95.0282 140.293 95.0282 140.084H94.6521ZM96.5589 139.658C96.5589 140.302 96.9559 140.728 97.5577 140.728C98.0509 140.728 98.4312 140.431 98.5106 139.988H98.1178C98.0467 140.231 97.8377 140.377 97.5577 140.377C97.1858 140.377 96.9476 140.093 96.9476 139.654C96.9476 139.211 97.2025 138.927 97.5744 138.927C97.8377 138.927 98.0467 139.065 98.1136 139.324H98.5064C98.4354 138.868 98.076 138.576 97.5619 138.576C96.9643 138.576 96.5589 139.019 96.5589 139.658ZM100.095 138.617C100.016 138.601 99.9574 138.592 99.8863 138.592C99.6063 138.592 99.4015 138.734 99.318 138.948L99.2929 138.638H98.9251V140.678H99.318V139.595C99.318 139.203 99.5478 138.977 99.9198 138.977H100.095V138.617ZM100.656 138.149C100.798 138.149 100.915 138.032 100.915 137.89C100.915 137.744 100.798 137.631 100.656 137.631C100.514 137.631 100.397 137.744 100.397 137.89C100.397 138.032 100.514 138.149 100.656 138.149ZM100.464 140.678H100.857V138.634H100.464V140.678ZM101.427 141.593H101.82V140.344C101.954 140.594 102.225 140.732 102.551 140.732C103.157 140.732 103.5 140.264 103.5 139.641C103.5 139.015 103.136 138.576 102.551 138.576C102.225 138.576 101.949 138.722 101.811 139.002L101.782 138.634H101.427V141.593ZM101.824 139.658C101.824 139.232 102.066 138.935 102.468 138.935C102.869 138.935 103.107 139.236 103.107 139.658C103.107 140.076 102.869 140.377 102.468 140.377C102.066 140.377 101.824 140.076 101.824 139.658ZM104.489 140.678V138.964H104.89V138.634H104.489V137.995H104.096V138.634H103.695V138.964H104.096V140.678H104.489ZM105.435 138.149C105.577 138.149 105.694 138.032 105.694 137.89C105.694 137.744 105.577 137.631 105.435 137.631C105.293 137.631 105.176 137.744 105.176 137.89C105.176 138.032 105.293 138.149 105.435 138.149ZM105.243 140.678H105.636V138.634H105.243V140.678ZM106.072 139.654C106.072 140.285 106.524 140.728 107.138 140.728C107.748 140.728 108.2 140.285 108.2 139.654C108.2 139.023 107.748 138.58 107.138 138.58C106.524 138.58 106.072 139.023 106.072 139.654ZM106.47 139.654C106.47 139.228 106.741 138.931 107.138 138.931C107.531 138.931 107.807 139.228 107.807 139.654C107.807 140.08 107.531 140.377 107.138 140.377C106.741 140.377 106.47 140.08 106.47 139.654ZM109.027 140.678V139.595C109.027 139.198 109.241 138.935 109.608 138.935C109.909 138.935 110.102 139.102 110.102 139.516V140.678H110.494V139.428C110.494 138.906 110.248 138.576 109.709 138.576C109.42 138.576 109.161 138.714 109.032 138.948L108.99 138.634H108.635V140.678H109.027Z" fill="#A7B5BF"/>
<rect x="86.015" y="133.693" width="133.11" height="9.82132" rx="1.1493" stroke="#D4DBE0" stroke-width="0.208964"/>
<path d="M86.2462 155.819V156.154H87.1239V157.036H87.4582V156.154H88.3359V155.819H87.4582V154.942H87.1239V155.819H86.2462ZM90.2901 157.395L90.5575 156.643H91.828L92.0997 157.395H92.5302L91.4226 154.373H90.9671L89.8638 157.395H90.2901ZM91.1426 155.025C91.1635 154.963 91.1844 154.892 91.1928 154.85C91.2011 154.896 91.222 154.967 91.2429 155.025L91.7068 156.288H90.6829L91.1426 155.025ZM93.6066 157.445C93.9325 157.445 94.2084 157.303 94.3421 157.023L94.3755 157.395H94.7266V154.319H94.3379V155.682C94.2 155.431 93.9367 155.293 93.6233 155.293C93.0173 155.293 92.6537 155.753 92.6537 156.379C92.6537 157.002 93.0131 157.445 93.6066 157.445ZM93.686 157.09C93.2847 157.09 93.0507 156.789 93.0507 156.367C93.0507 155.949 93.2847 155.648 93.686 155.648C94.0872 155.648 94.3337 155.949 94.3337 156.367C94.3337 156.793 94.0872 157.09 93.686 157.09ZM96.1125 157.445C96.4385 157.445 96.7143 157.303 96.848 157.023L96.8815 157.395H97.2325V154.319H96.8439V155.682C96.706 155.431 96.4427 155.293 96.1292 155.293C95.5232 155.293 95.1596 155.753 95.1596 156.379C95.1596 157.002 95.519 157.445 96.1125 157.445ZM96.1919 157.09C95.7907 157.09 95.5566 156.789 95.5566 156.367C95.5566 155.949 95.7907 155.648 96.1919 155.648C96.5931 155.648 96.8397 155.949 96.8397 156.367C96.8397 156.793 96.5931 157.09 96.1919 157.09ZM99.5397 157.445C99.8699 157.445 100.15 157.299 100.254 157.065L100.296 157.395H100.63V156.112C100.63 155.56 100.288 155.293 99.7821 155.293C99.2555 155.293 98.9045 155.573 98.9045 155.999H99.2472C99.2472 155.753 99.4352 155.606 99.7654 155.606C100.041 155.606 100.246 155.727 100.246 156.07V156.129L99.6024 156.179C99.1218 156.216 98.8418 156.451 98.8418 156.827C98.8418 157.199 99.1009 157.445 99.5397 157.445ZM99.6525 157.14C99.3976 157.14 99.2388 157.031 99.2388 156.814C99.2388 156.613 99.3809 156.48 99.7278 156.446L100.25 156.405V156.513C100.25 156.898 100.025 157.14 99.6525 157.14ZM102.15 156.802C102.15 157.19 102.455 157.445 102.936 157.445C103.421 157.445 103.755 157.199 103.755 156.81C103.755 156.505 103.584 156.346 103.237 156.262L102.877 156.175C102.677 156.125 102.576 156.033 102.576 155.895C102.576 155.707 102.714 155.598 102.961 155.598C103.199 155.598 103.337 155.727 103.345 155.932H103.722C103.713 155.544 103.421 155.293 102.973 155.293C102.522 155.293 102.204 155.531 102.204 155.907C102.204 156.208 102.376 156.388 102.739 156.476L103.099 156.559C103.312 156.613 103.379 156.697 103.379 156.835C103.379 157.023 103.22 157.136 102.944 157.136C102.685 157.136 102.526 157.011 102.526 156.802H102.15ZM105.072 157.445C105.578 157.445 105.921 157.199 106.021 156.76H105.653C105.587 156.994 105.386 157.119 105.081 157.119C104.692 157.119 104.466 156.881 104.437 156.451L106.017 156.446V156.3C106.017 155.694 105.637 155.293 105.056 155.293C104.462 155.293 104.057 155.736 104.057 156.375C104.057 157.011 104.471 157.445 105.072 157.445ZM105.056 155.623C105.403 155.623 105.624 155.849 105.624 156.187H104.446C104.496 155.828 104.713 155.623 105.056 155.623ZM107.626 155.335C107.547 155.318 107.488 155.31 107.417 155.31C107.137 155.31 106.932 155.452 106.849 155.665L106.824 155.356H106.456V157.395H106.849V156.313C106.849 155.92 107.079 155.694 107.45 155.694H107.626V155.335ZM108.628 157.395H109.017L109.869 155.351H109.46L109.004 156.492C108.933 156.672 108.866 156.848 108.833 156.981C108.8 156.856 108.741 156.685 108.67 156.492L108.223 155.351H107.805L108.628 157.395ZM110.374 154.867C110.516 154.867 110.633 154.75 110.633 154.607C110.633 154.461 110.516 154.348 110.374 154.348C110.232 154.348 110.115 154.461 110.115 154.607C110.115 154.75 110.232 154.867 110.374 154.867ZM110.182 157.395H110.575V155.351H110.182V157.395ZM111.012 156.375C111.012 157.019 111.409 157.445 112.01 157.445C112.504 157.445 112.884 157.148 112.963 156.705H112.57C112.499 156.948 112.29 157.094 112.01 157.094C111.638 157.094 111.4 156.81 111.4 156.371C111.4 155.928 111.655 155.644 112.027 155.644C112.29 155.644 112.499 155.782 112.566 156.041H112.959C112.888 155.585 112.529 155.293 112.015 155.293C111.417 155.293 111.012 155.736 111.012 156.375ZM114.26 157.445C114.765 157.445 115.108 157.199 115.208 156.76H114.84C114.774 156.994 114.573 157.119 114.268 157.119C113.879 157.119 113.654 156.881 113.624 156.451L115.204 156.446V156.3C115.204 155.694 114.824 155.293 114.243 155.293C113.649 155.293 113.244 155.736 113.244 156.375C113.244 157.011 113.658 157.445 114.26 157.445ZM114.243 155.623C114.59 155.623 114.811 155.849 114.811 156.187H113.633C113.683 155.828 113.9 155.623 114.243 155.623Z" fill="#32C69A"/>
<path fill-rule="evenodd" clip-rule="evenodd" d="M288.786 137.282C288.894 137.172 289.071 137.171 289.18 137.279C289.29 137.387 289.291 137.563 289.183 137.673L287.618 139.262C287.53 139.352 287.53 139.497 287.618 139.587C287.702 139.673 287.842 139.672 287.925 139.587L289.862 137.619C290.145 137.331 290.145 136.867 289.862 136.579C289.592 136.303 289.115 136.309 288.851 136.579L286.737 138.725C286.259 139.212 286.259 139.994 286.737 140.481C287.2 140.953 287.996 140.946 288.452 140.48L290.722 138.175C290.83 138.065 291.007 138.064 291.116 138.172C291.226 138.28 291.227 138.456 291.12 138.566L288.85 140.871C288.177 141.557 287.022 141.568 286.339 140.871C285.649 140.167 285.649 139.039 286.339 138.335L288.453 136.189C288.933 135.699 289.77 135.688 290.26 136.189C290.755 136.694 290.755 137.504 290.26 138.01L288.324 139.976C288.025 140.285 287.524 140.287 287.22 139.977C286.92 139.67 286.92 139.179 287.221 138.871L288.786 137.282Z" fill="#93A5B1"/>
<mask id="mask1_1_2502" style="mask-type:luminance" maskUnits="userSpaceOnUse" x="285" y="135" width="7" height="7">
<path fill-rule="evenodd" clip-rule="evenodd" d="M288.786 137.282C288.894 137.172 289.071 137.171 289.18 137.279C289.29 137.387 289.291 137.563 289.183 137.673L287.618 139.262C287.53 139.352 287.53 139.497 287.618 139.587C287.702 139.673 287.842 139.672 287.925 139.587L289.862 137.619C290.145 137.331 290.145 136.867 289.862 136.579C289.592 136.303 289.115 136.309 288.851 136.579L286.737 138.725C286.259 139.212 286.259 139.994 286.737 140.481C287.2 140.953 287.996 140.946 288.452 140.48L290.722 138.175C290.83 138.065 291.007 138.064 291.116 138.172C291.226 138.28 291.227 138.456 291.12 138.566L288.85 140.871C288.177 141.557 287.022 141.568 286.339 140.871C285.649 140.167 285.649 139.039 286.339 138.335L288.453 136.189C288.933 135.699 289.77 135.688 290.26 136.189C290.755 136.694 290.755 137.504 290.26 138.01L288.324 139.976C288.025 140.285 287.524 140.287 287.22 139.977C286.92 139.67 286.92 139.179 287.221 138.871L288.786 137.282Z" fill="white"/>
</mask>
<g mask="url(#mask1_1_2502)">
</g>
<path d="M226.124 139.169C226.124 140.11 226.588 140.732 227.37 140.732C228.147 140.732 228.611 140.11 228.611 139.169C228.611 138.233 228.126 137.598 227.37 137.598C226.609 137.598 226.124 138.233 226.124 139.169ZM226.53 139.169C226.53 138.417 226.839 137.966 227.37 137.966C227.9 137.966 228.206 138.417 228.206 139.169C228.206 139.913 227.9 140.364 227.37 140.364C226.839 140.364 226.53 139.913 226.53 139.169ZM229.223 140.728C229.381 140.728 229.519 140.594 229.519 140.436C229.519 140.273 229.381 140.139 229.223 140.139C229.06 140.139 228.922 140.273 228.922 140.436C228.922 140.594 229.06 140.728 229.223 140.728ZM229.834 139.169C229.834 140.11 230.298 140.732 231.08 140.732C231.857 140.732 232.321 140.11 232.321 139.169C232.321 138.233 231.836 137.598 231.08 137.598C230.319 137.598 229.834 138.233 229.834 139.169ZM230.24 139.169C230.24 138.417 230.549 137.966 231.08 137.966C231.61 137.966 231.915 138.417 231.915 139.169C231.915 139.913 231.61 140.364 231.08 140.364C230.549 140.364 230.24 139.913 230.24 139.169ZM232.732 139.169C232.732 140.11 233.196 140.732 233.977 140.732C234.755 140.732 235.219 140.11 235.219 139.169C235.219 138.233 234.734 137.598 233.977 137.598C233.217 137.598 232.732 138.233 232.732 139.169ZM233.137 139.169C233.137 138.417 233.447 137.966 233.977 137.966C234.508 137.966 234.813 138.417 234.813 139.169C234.813 139.913 234.508 140.364 233.977 140.364C233.447 140.364 233.137 139.913 233.137 139.169Z" fill="#A7B5BF"/>
<path d="M260.646 141.042H260.96V137.372H260.646V141.042ZM262.797 138.471C262.797 138.906 263.052 139.19 263.545 139.303L264.043 139.416C264.331 139.483 264.461 139.633 264.461 139.871C264.461 140.172 264.206 140.36 263.804 140.36C263.424 140.36 263.182 140.176 263.173 139.888H262.755C262.78 140.406 263.19 140.728 263.804 140.728C264.448 140.728 264.87 140.381 264.87 139.838C264.87 139.412 264.619 139.144 264.126 139.031L263.629 138.914C263.345 138.847 263.207 138.701 263.207 138.459C263.207 138.162 263.453 137.97 263.834 137.97C264.172 137.97 264.385 138.145 264.406 138.446H264.82C264.787 137.924 264.415 137.602 263.838 137.602C263.215 137.602 262.797 137.953 262.797 138.471ZM265.51 140.678L265.778 139.926H267.048L267.32 140.678H267.75L266.643 137.656H266.187L265.084 140.678H265.51ZM266.363 138.308C266.384 138.246 266.405 138.175 266.413 138.133C266.421 138.179 266.442 138.25 266.463 138.308L266.927 139.57H265.903L266.363 138.308ZM268.561 140.678V139.483H269.335L269.899 140.678H270.354L269.74 139.403C270.116 139.282 270.325 138.981 270.325 138.563C270.325 137.999 269.941 137.656 269.293 137.656H268.152V140.678H268.561ZM268.561 138.024H269.293C269.669 138.024 269.895 138.216 269.895 138.567C269.895 138.914 269.677 139.119 269.297 139.119H268.561V138.024Z" fill="#A7B5BF"/>
<rect x="222.68" y="133.693" width="59.1369" height="9.82132" rx="1.1493" stroke="#D4DBE0" stroke-width="0.208964"/>
<path fill-rule="evenodd" clip-rule="evenodd" d="M277.824 138.046C277.878 137.992 277.966 137.992 278.021 138.046C278.075 138.101 278.075 138.189 278.021 138.243L276.906 139.358L275.792 138.243C275.737 138.189 275.737 138.101 275.792 138.046C275.846 137.992 275.934 137.992 275.989 138.046L276.906 138.964L277.824 138.046Z" fill="#93A5B1"/>
<mask id="mask2_1_2502" style="mask-type:luminance" maskUnits="userSpaceOnUse" x="275" y="138" width="4" height="2">
<path fill-rule="evenodd" clip-rule="evenodd" d="M277.824 138.046C277.878 137.992 277.966 137.992 278.021 138.046C278.075 138.101 278.075 138.189 278.021 138.243L276.906 139.358L275.792 138.243C275.737 138.189 275.737 138.101 275.792 138.046C275.846 137.992 275.934 137.992 275.989 138.046L276.906 138.964L277.824 138.046Z" fill="white"/>
</mask>
<g mask="url(#mask2_1_2502)">
</g>
<path fill-rule="evenodd" clip-rule="evenodd" d="M82.4285 165.351C82.4285 165.197 82.3038 165.072 82.1499 165.072H77.1348C76.9809 165.072 76.8562 165.197 76.8562 165.351C76.8562 165.505 76.9809 165.63 77.1348 165.63H82.1499C82.3038 165.63 82.4285 165.505 82.4285 165.351ZM80.4782 166.187C80.6321 166.187 80.7568 166.312 80.7568 166.465C80.7568 166.619 80.6321 166.744 80.4782 166.744H77.1348C76.9809 166.744 76.8561 166.619 76.8561 166.465C76.8561 166.312 76.9809 166.187 77.1348 166.187H80.4782ZM82.4285 167.58C82.4285 167.426 82.3038 167.301 82.1499 167.301H77.1348C76.9809 167.301 76.8561 167.426 76.8561 167.58C76.8561 167.734 76.9809 167.859 77.1348 167.859H82.1499C82.3038 167.859 82.4285 167.734 82.4285 167.58ZM80.7568 168.694C80.7568 168.541 80.6321 168.416 80.4782 168.416H77.1348C76.9809 168.416 76.8561 168.541 76.8561 168.694C76.8561 168.848 76.9809 168.973 77.1348 168.973H80.4782C80.6321 168.973 80.7568 168.848 80.7568 168.694Z" fill="#93A5B1"/>
<path d="M89.3259 166.535H90.2203V169.097H90.7552V166.535H91.6496V166.042H89.3259V166.535ZM91.6199 170.054C91.7328 170.083 91.8582 170.1 92.0002 170.1C92.3388 170.1 92.5561 169.941 92.7107 169.557L93.7221 167.033H93.1955L92.6355 168.537L92.1047 167.033H91.5656L92.3973 169.185L92.3388 169.34C92.251 169.582 92.1256 169.628 91.925 169.628H91.6199V170.054ZM94.0117 170.054H94.5216V168.821C94.6512 169.03 94.9186 169.151 95.2279 169.151C95.8423 169.151 96.1933 168.683 96.1933 168.04C96.1933 167.392 95.8088 166.97 95.2279 166.97C94.9145 166.97 94.6428 167.108 94.5174 167.346L94.484 167.033H94.0117V170.054ZM94.5258 168.065C94.5258 167.693 94.7556 167.434 95.1067 167.434C95.4661 167.434 95.6793 167.697 95.6793 168.065C95.6793 168.433 95.4661 168.692 95.1067 168.692C94.7556 168.692 94.5258 168.437 94.5258 168.065ZM97.5229 169.151C98.062 169.151 98.4382 168.88 98.5259 168.428H98.0537C97.9952 168.625 97.8113 168.734 97.5313 168.734C97.1928 168.734 97.0005 168.55 96.9629 168.186L98.5176 168.182V168.027C98.5176 167.384 98.1247 166.97 97.5062 166.97C96.9002 166.97 96.4781 167.417 96.4781 168.065C96.4781 168.704 96.9086 169.151 97.5229 169.151ZM97.5104 167.388C97.8155 167.388 98.0119 167.576 98.0119 167.86H96.9754C97.0256 167.551 97.2095 167.388 97.5104 167.388ZM100.666 169.151C100.988 169.151 101.268 169.005 101.356 168.792L101.394 169.097H101.841V167.843C101.841 167.271 101.498 166.97 100.942 166.97C100.382 166.97 100.014 167.262 100.014 167.71H100.449C100.449 167.492 100.616 167.367 100.917 167.367C101.176 167.367 101.344 167.48 101.344 167.76V167.806L100.725 167.852C100.236 167.889 99.9602 168.128 99.9602 168.508C99.9602 168.897 100.228 169.151 100.666 169.151ZM100.834 168.767C100.604 168.767 100.478 168.675 100.478 168.487C100.478 168.32 100.6 168.215 100.917 168.186L101.348 168.153V168.261C101.348 168.579 101.147 168.767 100.834 168.767ZM104.062 169.097V168.002C104.062 167.622 104.057 167.333 104.028 167.15L104.801 169.097H105.295L106.072 167.145C106.043 167.363 106.043 167.542 106.043 168.157V169.097H106.561V166.042H106.034L105.048 168.474L104.062 166.042H103.543V169.097H104.062ZM108.085 169.151C108.625 169.151 109.001 168.88 109.088 168.428H108.616C108.558 168.625 108.374 168.734 108.094 168.734C107.755 168.734 107.563 168.55 107.525 168.186L109.08 168.182V168.027C109.08 167.384 108.687 166.97 108.069 166.97C107.463 166.97 107.041 167.417 107.041 168.065C107.041 168.704 107.471 169.151 108.085 169.151ZM108.073 167.388C108.378 167.388 108.574 167.576 108.574 167.86H107.538C107.588 167.551 107.772 167.388 108.073 167.388ZM109.329 168.47C109.329 168.876 109.655 169.151 110.169 169.151C110.679 169.151 111.034 168.892 111.034 168.474C111.034 168.157 110.859 167.998 110.512 167.919L110.14 167.831C109.965 167.789 109.873 167.714 109.873 167.597C109.873 167.442 109.99 167.35 110.19 167.35C110.387 167.35 110.504 167.463 110.508 167.639H110.993C110.989 167.237 110.675 166.97 110.211 166.97C109.735 166.97 109.392 167.212 109.392 167.618C109.392 167.948 109.572 168.123 109.944 168.207L110.316 168.295C110.5 168.336 110.554 168.412 110.554 168.516C110.554 168.667 110.424 168.763 110.186 168.763C109.952 168.763 109.818 168.65 109.814 168.47H109.329ZM111.264 168.47C111.264 168.876 111.59 169.151 112.104 169.151C112.614 169.151 112.969 168.892 112.969 168.474C112.969 168.157 112.794 167.998 112.447 167.919L112.075 167.831C111.899 167.789 111.807 167.714 111.807 167.597C111.807 167.442 111.924 167.35 112.125 167.35C112.321 167.35 112.438 167.463 112.442 167.639H112.927C112.923 167.237 112.61 166.97 112.146 166.97C111.669 166.97 111.327 167.212 111.327 167.618C111.327 167.948 111.506 168.123 111.878 168.207L112.25 168.295C112.434 168.336 112.488 168.412 112.488 168.516C112.488 168.667 112.359 168.763 112.121 168.763C111.887 168.763 111.753 168.65 111.749 168.47H111.264ZM113.972 169.151C114.293 169.151 114.573 169.005 114.661 168.792L114.699 169.097H115.146V167.843C115.146 167.271 114.803 166.97 114.247 166.97C113.687 166.97 113.32 167.262 113.32 167.71H113.754C113.754 167.492 113.921 167.367 114.222 167.367C114.481 167.367 114.649 167.48 114.649 167.76V167.806L114.03 167.852C113.541 167.889 113.265 168.128 113.265 168.508C113.265 168.897 113.533 169.151 113.972 169.151ZM114.139 168.767C113.909 168.767 113.784 168.675 113.784 168.487C113.784 168.32 113.905 168.215 114.222 168.186L114.653 168.153V168.261C114.653 168.579 114.452 168.767 114.139 168.767ZM115.53 168.019C115.53 168.616 115.914 169.055 116.499 169.055C116.796 169.055 117.051 168.934 117.181 168.742V169.085C117.181 169.427 116.955 169.649 116.604 169.649C116.29 169.649 116.086 169.49 116.052 169.222H115.542C115.605 169.774 116.01 170.113 116.604 170.113C117.273 170.113 117.686 169.682 117.686 168.993V167.033H117.214L117.185 167.317C117.064 167.095 116.821 166.966 116.512 166.966C115.923 166.966 115.53 167.417 115.53 168.019ZM116.044 168.006C116.044 167.668 116.261 167.413 116.6 167.413C116.955 167.413 117.168 167.655 117.168 168.006C117.168 168.366 116.951 168.612 116.6 168.612C116.265 168.612 116.044 168.353 116.044 168.006ZM119.138 169.151C119.677 169.151 120.053 168.88 120.141 168.428H119.668C119.61 168.625 119.426 168.734 119.146 168.734C118.808 168.734 118.615 168.55 118.578 168.186L120.132 168.182V168.027C120.132 167.384 119.739 166.97 119.121 166.97C118.515 166.97 118.093 167.417 118.093 168.065C118.093 168.704 118.523 169.151 119.138 169.151ZM119.125 167.388C119.43 167.388 119.627 167.576 119.627 167.86H118.59C118.64 167.551 118.824 167.388 119.125 167.388ZM121.546 168.061C121.546 168.704 122.01 169.147 122.649 169.147C123.288 169.147 123.752 168.704 123.752 168.061C123.752 167.417 123.288 166.974 122.649 166.974C122.01 166.974 121.546 167.417 121.546 168.061ZM122.056 168.061C122.056 167.685 122.298 167.43 122.649 167.43C123 167.43 123.242 167.685 123.242 168.061C123.242 168.437 123 168.692 122.649 168.692C122.298 168.692 122.056 168.437 122.056 168.061ZM125.452 167.024C125.368 167.003 125.297 166.995 125.226 166.995C124.951 166.995 124.754 167.133 124.666 167.338L124.637 167.037H124.156V169.097H124.666V168.094C124.666 167.693 124.896 167.496 125.264 167.496H125.452V167.024ZM127.626 169.097V167.459H128.027V167.033H127.626V166.389H127.116V167.033H126.719V167.459H127.116V169.097H127.626ZM128.164 170.054C128.277 170.083 128.402 170.1 128.545 170.1C128.883 170.1 129.1 169.941 129.255 169.557L130.266 167.033H129.74L129.18 168.537L128.649 167.033H128.11L128.942 169.185L128.883 169.34C128.795 169.582 128.67 169.628 128.469 169.628H128.164V170.054ZM130.556 170.054H131.066V168.821C131.195 169.03 131.463 169.151 131.772 169.151C132.387 169.151 132.738 168.683 132.738 168.04C132.738 167.392 132.353 166.97 131.772 166.97C131.459 166.97 131.187 167.108 131.062 167.346L131.028 167.033H130.556V170.054ZM131.07 168.065C131.07 167.693 131.3 167.434 131.651 167.434C132.01 167.434 132.224 167.697 132.224 168.065C132.224 168.433 132.01 168.692 131.651 168.692C131.3 168.692 131.07 168.437 131.07 168.065ZM134.067 169.151C134.606 169.151 134.982 168.88 135.07 168.428H134.598C134.539 168.625 134.356 168.734 134.076 168.734C133.737 168.734 133.545 168.55 133.507 168.186L135.062 168.182V168.027C135.062 167.384 134.669 166.97 134.05 166.97C133.444 166.97 133.022 167.417 133.022 168.065C133.022 168.704 133.453 169.151 134.067 169.151ZM134.055 167.388C134.36 167.388 134.556 167.576 134.556 167.86H133.52C133.57 167.551 133.754 167.388 134.055 167.388ZM137.244 166.744C137.244 166.564 137.127 166.456 136.977 166.456C136.931 166.456 136.893 166.464 136.86 166.477C136.86 166.33 136.985 166.218 137.165 166.184V165.984C136.83 166.025 136.596 166.297 136.596 166.648C136.596 166.899 136.738 167.058 136.935 167.058C137.119 167.058 137.244 166.928 137.244 166.744ZM138.072 166.744C138.072 166.564 137.95 166.456 137.8 166.456C137.754 166.456 137.716 166.464 137.683 166.481C137.683 166.33 137.813 166.218 137.992 166.184V165.984C137.658 166.025 137.424 166.297 137.424 166.648C137.424 166.899 137.566 167.058 137.762 167.058C137.946 167.058 138.072 166.928 138.072 166.744ZM139.428 168.157C139.428 168.52 139.683 168.742 140.105 168.742C140.406 168.742 140.678 168.596 140.761 168.387C140.82 168.616 141.003 168.742 141.292 168.742C141.772 168.742 142.082 168.32 142.082 167.676C142.082 166.698 141.342 165.988 140.322 165.988C139.298 165.988 138.529 166.753 138.529 167.776C138.529 168.805 139.294 169.569 140.322 169.569C140.694 169.569 141.045 169.461 141.338 169.252L141.192 168.968C140.928 169.151 140.623 169.256 140.322 169.256C139.486 169.256 138.868 168.625 138.868 167.776C138.868 166.932 139.486 166.301 140.322 166.301C141.154 166.301 141.743 166.874 141.743 167.676C141.743 168.128 141.589 168.433 141.359 168.433C141.217 168.433 141.146 168.357 141.146 168.199V167.551C141.146 167.045 140.849 166.757 140.326 166.757C139.812 166.757 139.482 167.024 139.482 167.43H139.875C139.875 167.229 140.03 167.116 140.306 167.116C140.56 167.116 140.694 167.237 140.694 167.476V167.517L140.13 167.563C139.67 167.597 139.428 167.822 139.428 168.157ZM139.9 168.14C139.9 167.977 140.017 167.893 140.301 167.868L140.698 167.835V167.935C140.698 168.219 140.519 168.391 140.226 168.391C140.009 168.391 139.9 168.307 139.9 168.14ZM143.191 166.393C143.191 166.142 143.049 165.984 142.852 165.984C142.668 165.984 142.543 166.113 142.543 166.297C142.543 166.481 142.664 166.585 142.815 166.585C142.861 166.585 142.898 166.577 142.932 166.564C142.932 166.711 142.802 166.824 142.622 166.857V167.058C142.957 167.016 143.191 166.744 143.191 166.393ZM144.018 166.393C144.018 166.142 143.876 165.984 143.68 165.984C143.496 165.984 143.37 166.113 143.37 166.297C143.37 166.481 143.487 166.585 143.638 166.585C143.684 166.585 143.721 166.577 143.755 166.564C143.755 166.711 143.629 166.824 143.45 166.857V167.058C143.784 167.016 144.018 166.744 144.018 166.393ZM144.494 169.147C144.678 169.147 144.832 168.997 144.832 168.817C144.832 168.633 144.678 168.483 144.494 168.483C144.31 168.483 144.155 168.633 144.155 168.817C144.155 168.997 144.31 169.147 144.494 169.147ZM145.71 169.147C145.894 169.147 146.048 168.997 146.048 168.817C146.048 168.633 145.894 168.483 145.71 168.483C145.526 168.483 145.371 168.633 145.371 168.817C145.371 168.997 145.526 169.147 145.71 169.147ZM146.926 169.147C147.11 169.147 147.265 168.997 147.265 168.817C147.265 168.633 147.11 168.483 146.926 168.483C146.742 168.483 146.588 168.633 146.588 168.817C146.588 168.997 146.742 169.147 146.926 169.147Z" fill="#BEC9D0"/>
<rect x="86.0153" y="162.112" width="206.666" height="26.9564" rx="1.1493" stroke="#D4DBE0" stroke-width="0.208964"/>
<line x1="86.3298" y1="147.693" x2="292.787" y2="147.693" stroke="#BEC9D0" stroke-width="0.208964"/>
<defs>
<filter id="filter0_ddd_1_2502" x="43.7007" y="2.7767" width="291.714" height="242.817" filterUnits="userSpaceOnUse" color-interpolation-filters="sRGB">
<feFlood flood-opacity="0" result="BackgroundImageFix"/>
<feColorMatrix in="SourceAlpha" type="matrix" values="0 0 0 0 0 0 0 0 0 0 0 0 0 0 0 0 0 0 127 0" result="hardAlpha"/>
<feMorphology radius="2.9255" operator="erode" in="SourceAlpha" result="effect1_dropShadow_1_2502"/>
<feOffset dy="4.59722"/>
<feGaussianBlur stdDeviation="3.13447"/>
<feColorMatrix type="matrix" values="0 0 0 0 0.364706 0 0 0 0 0.447059 0 0 0 0 0.54902 0 0 0 0.16 0"/>
<feBlend mode="normal" in2="BackgroundImageFix" result="effect1_dropShadow_1_2502"/>
<feColorMatrix in="SourceAlpha" type="matrix" values="0 0 0 0 0 0 0 0 0 0 0 0 0 0 0 0 0 0 127 0" result="hardAlpha"/>
<feMorphology radius="3.34343" operator="dilate" in="SourceAlpha" result="effect2_dropShadow_1_2502"/>
<feOffset dy="3.76136"/>
<feGaussianBlur stdDeviation="9.61236"/>
<feColorMatrix type="matrix" values="0 0 0 0 0.364706 0 0 0 0 0.447059 0 0 0 0 0.54902 0 0 0 0.08 0"/>
<feBlend mode="normal" in2="effect1_dropShadow_1_2502" result="effect2_dropShadow_1_2502"/>
<feColorMatrix in="SourceAlpha" type="matrix" values="0 0 0 0 0 0 0 0 0 0 0 0 0 0 0 0 0 0 127 0" result="hardAlpha"/>
<feMorphology radius="1.25379" operator="dilate" in="SourceAlpha" result="effect3_dropShadow_1_2502"/>
<feOffset dy="10.0303"/>
<feGaussianBlur stdDeviation="7.94065"/>
<feColorMatrix type="matrix" values="0 0 0 0 0.364706 0 0 0 0 0.447059 0 0 0 0 0.54902 0 0 0 0.1 0"/>
<feBlend mode="normal" in2="effect2_dropShadow_1_2502" result="effect3_dropShadow_1_2502"/>
<feBlend mode="normal" in="SourceGraphic" in2="effect3_dropShadow_1_2502" result="shape"/>
</filter>
<filter id="filter1_ddd_1_2502" x="47.044" y="6.12021" width="285.027" height="236.13" filterUnits="userSpaceOnUse" color-interpolation-filters="sRGB">
<feFlood flood-opacity="0" result="BackgroundImageFix"/>
<feColorMatrix in="SourceAlpha" type="matrix" values="0 0 0 0 0 0 0 0 0 0 0 0 0 0 0 0 0 0 127 0" result="hardAlpha"/>
<feMorphology radius="2.9255" operator="erode" in="SourceAlpha" result="effect1_dropShadow_1_2502"/>
<feOffset dy="4.59722"/>
<feGaussianBlur stdDeviation="3.13447"/>
<feColorMatrix type="matrix" values="0 0 0 0 0.364706 0 0 0 0 0.447059 0 0 0 0 0.54902 0 0 0 0.16 0"/>
<feBlend mode="normal" in2="BackgroundImageFix" result="effect1_dropShadow_1_2502"/>
<feColorMatrix in="SourceAlpha" type="matrix" values="0 0 0 0 0 0 0 0 0 0 0 0 0 0 0 0 0 0 127 0" result="hardAlpha"/>
<feMorphology radius="3.34343" operator="dilate" in="SourceAlpha" result="effect2_dropShadow_1_2502"/>
<feOffset dy="3.76136"/>
<feGaussianBlur stdDeviation="9.61236"/>
<feColorMatrix type="matrix" values="0 0 0 0 0.364706 0 0 0 0 0.447059 0 0 0 0 0.54902 0 0 0 0.08 0"/>
<feBlend mode="normal" in2="effect1_dropShadow_1_2502" result="effect2_dropShadow_1_2502"/>
<feColorMatrix in="SourceAlpha" type="matrix" values="0 0 0 0 0 0 0 0 0 0 0 0 0 0 0 0 0 0 127 0" result="hardAlpha"/>
<feMorphology radius="1.25379" operator="dilate" in="SourceAlpha" result="effect3_dropShadow_1_2502"/>
<feOffset dy="10.0303"/>
<feGaussianBlur stdDeviation="7.94065"/>
<feColorMatrix type="matrix" values="0 0 0 0 0.364706 0 0 0 0 0.447059 0 0 0 0 0.54902 0 0 0 0.1 0"/>
<feBlend mode="normal" in2="effect2_dropShadow_1_2502" result="effect3_dropShadow_1_2502"/>
<feBlend mode="normal" in="SourceGraphic" in2="effect3_dropShadow_1_2502" result="shape"/>
</filter>
<filter id="filter2_ddd_1_2502" x="47.044" y="77.1679" width="285.027" height="165.082" filterUnits="userSpaceOnUse" color-interpolation-filters="sRGB">
<feFlood flood-opacity="0" result="BackgroundImageFix"/>
<feColorMatrix in="SourceAlpha" type="matrix" values="0 0 0 0 0 0 0 0 0 0 0 0 0 0 0 0 0 0 127 0" result="hardAlpha"/>
<feMorphology radius="2.9255" operator="erode" in="SourceAlpha" result="effect1_dropShadow_1_2502"/>
<feOffset dy="4.59722"/>
<feGaussianBlur stdDeviation="3.13447"/>
<feColorMatrix type="matrix" values="0 0 0 0 0.364706 0 0 0 0 0.447059 0 0 0 0 0.54902 0 0 0 0.16 0"/>
<feBlend mode="normal" in2="BackgroundImageFix" result="effect1_dropShadow_1_2502"/>
<feColorMatrix in="SourceAlpha" type="matrix" values="0 0 0 0 0 0 0 0 0 0 0 0 0 0 0 0 0 0 127 0" result="hardAlpha"/>
<feMorphology radius="3.34343" operator="dilate" in="SourceAlpha" result="effect2_dropShadow_1_2502"/>
<feOffset dy="3.76136"/>
<feGaussianBlur stdDeviation="9.61236"/>
<feColorMatrix type="matrix" values="0 0 0 0 0.364706 0 0 0 0 0.447059 0 0 0 0 0.54902 0 0 0 0.08 0"/>
<feBlend mode="normal" in2="effect1_dropShadow_1_2502" result="effect2_dropShadow_1_2502"/>
<feColorMatrix in="SourceAlpha" type="matrix" values="0 0 0 0 0 0 0 0 0 0 0 0 0 0 0 0 0 0 127 0" result="hardAlpha"/>
<feMorphology radius="1.25379" operator="dilate" in="SourceAlpha" result="effect3_dropShadow_1_2502"/>
<feOffset dy="10.0303"/>
<feGaussianBlur stdDeviation="7.94065"/>
<feColorMatrix type="matrix" values="0 0 0 0 0.364706 0 0 0 0 0.447059 0 0 0 0 0.54902 0 0 0 0.1 0"/>
<feBlend mode="normal" in2="effect2_dropShadow_1_2502" result="effect3_dropShadow_1_2502"/>
<feBlend mode="normal" in="SourceGraphic" in2="effect3_dropShadow_1_2502" result="shape"/>
</filter>
<filter id="filter3_ddd_1_2502" x="125.613" y="176.217" width="127.468" height="59.3459" filterUnits="userSpaceOnUse" color-interpolation-filters="sRGB">
<feFlood flood-opacity="0" result="BackgroundImageFix"/>
<feColorMatrix in="SourceAlpha" type="matrix" values="0 0 0 0 0 0 0 0 0 0 0 0 0 0 0 0 0 0 127 0" result="hardAlpha"/>
<feMorphology radius="2.9255" operator="erode" in="SourceAlpha" result="effect1_dropShadow_1_2502"/>
<feOffset dy="4.59722"/>
<feGaussianBlur stdDeviation="3.13447"/>
<feColorMatrix type="matrix" values="0 0 0 0 0.364706 0 0 0 0 0.447059 0 0 0 0 0.54902 0 0 0 0.16 0"/>
<feBlend mode="normal" in2="BackgroundImageFix" result="effect1_dropShadow_1_2502"/>
<feColorMatrix in="SourceAlpha" type="matrix" values="0 0 0 0 0 0 0 0 0 0 0 0 0 0 0 0 0 0 127 0" result="hardAlpha"/>
<feMorphology radius="3.34343" operator="dilate" in="SourceAlpha" result="effect2_dropShadow_1_2502"/>
<feOffset dy="3.76136"/>
<feGaussianBlur stdDeviation="9.61236"/>
<feColorMatrix type="matrix" values="0 0 0 0 0.364706 0 0 0 0 0.447059 0 0 0 0 0.54902 0 0 0 0.08 0"/>
<feBlend mode="normal" in2="effect1_dropShadow_1_2502" result="effect2_dropShadow_1_2502"/>
<feColorMatrix in="SourceAlpha" type="matrix" values="0 0 0 0 0 0 0 0 0 0 0 0 0 0 0 0 0 0 127 0" result="hardAlpha"/>
<feMorphology radius="1.25379" operator="dilate" in="SourceAlpha" result="effect3_dropShadow_1_2502"/>
<feOffset dy="10.0303"/>
<feGaussianBlur stdDeviation="7.94065"/>
<feColorMatrix type="matrix" values="0 0 0 0 0.364706 0 0 0 0 0.447059 0 0 0 0 0.54902 0 0 0 0.1 0"/>
<feBlend mode="normal" in2="effect2_dropShadow_1_2502" result="effect3_dropShadow_1_2502"/>
<feBlend mode="normal" in="SourceGraphic" in2="effect3_dropShadow_1_2502" result="shape"/>
</filter>
<radialGradient id="paint0_radial_1_2502" cx="0" cy="0" r="1" gradientUnits="userSpaceOnUse" gradientTransform="translate(189.558 107.886) rotate(-90) scale(92.7802 92.7802)">
<stop stop-color="#8479FF"/>
<stop offset="1" stop-color="white" stop-opacity="0"/>
</radialGradient>
</defs>
</svg>
