<svg width="320" height="235" viewBox="0 0 320 235" fill="none" xmlns="http://www.w3.org/2000/svg">
<g filter="url(#filter0_ddd_819_8843)">
<rect x="23" y="19.3354" width="274" height="187.63" rx="10.2112" fill="white"/>
</g>
<g filter="url(#filter1_ddd_819_8843)">
<rect x="28.1055" y="24.441" width="91.4751" height="94.8789" rx="8.08385" fill="white"/>
</g>
<g filter="url(#filter2_ddd_819_8843)">
<rect x="33.2109" y="47.8417" width="81.2639" height="66.3727" rx="5.10559" fill="white"/>
</g>
<path d="M105.015 89.3467C101.775 81.9722 94.4124 80.3239 93.7358 80.1871C88.2213 78.7871 82.8245 79.802 78.1275 83.1228C76.9992 83.9203 76.0427 84.758 75.2569 85.5338C75.4865 84.4497 75.8271 83.21 76.3441 81.9169C78.3786 76.8259 82.0107 73.3888 87.1406 71.7012C87.1472 71.6994 87.1537 71.6965 87.1612 71.6947C87.2172 71.675 92.4759 69.9002 98.2498 72.9475L94.5467 76.6657C94.0913 77.123 94.0913 77.8651 94.5467 78.3224C95.0022 78.7796 95.7413 78.7796 96.1967 78.3224L100.968 73.5313C101.217 73.2811 101.341 72.9306 101.303 72.5792C101.266 72.2269 101.072 71.9111 100.776 71.719C93.662 67.1022 86.8355 69.3296 86.4053 69.4767C80.6454 71.3742 76.4057 75.4025 74.1445 81.1279C73.9513 81.617 73.7815 82.0977 73.6303 82.5672C73.4791 82.0977 73.3093 81.617 73.1161 81.1279C70.8549 75.4025 66.6143 71.3733 60.8553 69.4767C60.4251 69.3286 53.5985 67.1022 46.4845 71.719C46.1887 71.9111 45.9946 72.2269 45.9573 72.5792C45.9199 72.9316 46.0431 73.2811 46.2923 73.5313L51.0415 78.2999C51.4969 78.7572 52.236 78.7572 52.6914 78.2999C53.1469 77.8426 53.1469 77.1005 52.6914 76.6432L49.0098 72.9466C54.7324 69.9162 59.8717 71.616 60.0994 71.6947C60.1059 71.6975 60.1125 71.6994 60.1199 71.7012C65.2499 73.3888 68.882 76.8259 70.9165 81.9169C71.4335 83.21 71.7741 84.4497 72.0037 85.5338C71.2179 84.758 70.2613 83.9203 69.1331 83.1228C64.4361 79.802 59.0402 78.7871 53.5248 80.1871C52.8482 80.3239 45.485 81.9712 42.2458 89.3467C42.0862 89.7093 42.1208 90.1272 42.3363 90.4589C42.5519 90.7907 42.9196 90.9912 43.3134 90.9912H68.5078C69.1527 90.9912 69.6743 90.4664 69.6743 89.8199C69.6743 89.1733 69.1517 88.6486 68.5078 88.6486H45.2499C48.3818 83.6345 53.9401 82.4941 53.9989 82.4828C54.0222 82.4782 54.0465 82.4735 54.0698 82.4669C58.9562 81.2188 63.5496 82.0687 67.723 84.9922C70.8987 87.2168 72.6336 89.8714 72.6513 89.8977C72.6523 89.8995 72.6541 89.9005 72.6551 89.9023C72.6579 89.9061 72.6597 89.9098 72.6625 89.9145C72.6831 89.9445 72.7083 89.9717 72.7316 89.9998C72.7428 90.0138 72.754 90.0288 72.7661 90.042C72.7801 90.0579 72.7923 90.0748 72.8072 90.0897C72.8081 90.0907 72.8091 90.0926 72.8109 90.0935C72.8314 90.1141 72.8557 90.13 72.8781 90.1488C72.88 90.1507 72.8828 90.1525 72.8846 90.1544C72.9136 90.1788 72.9406 90.2059 72.9724 90.2275C72.9752 90.2294 72.9789 90.2312 72.9817 90.2331C72.9845 90.235 72.9873 90.2359 72.9892 90.2378C72.9929 90.2397 72.9957 90.2434 72.9985 90.2453C73.0209 90.2594 73.0442 90.2678 73.0666 90.28C73.0694 90.2818 73.0722 90.2828 73.075 90.2847C73.1068 90.3025 73.1366 90.3231 73.1702 90.3371C73.173 90.3381 73.1749 90.339 73.1777 90.3399C73.1823 90.3418 73.187 90.3427 73.1907 90.3446C73.2253 90.3587 73.2617 90.368 73.2971 90.3784C73.3027 90.3802 73.3083 90.3821 73.3139 90.384C73.341 90.3915 73.3671 90.4027 73.3961 90.4083C73.3998 90.4083 73.4045 90.4083 73.4082 90.4102C73.4455 90.4177 73.4838 90.4196 73.522 90.4233C73.5528 90.4261 73.5836 90.4327 73.6154 90.4327C73.6172 90.4327 73.6191 90.4327 73.6219 90.4327C73.6256 90.4327 73.6284 90.4327 73.6322 90.4327C73.6359 90.4327 73.6396 90.4318 73.6434 90.4318C73.677 90.4318 73.7096 90.4261 73.7432 90.4224C73.7787 90.4186 73.8141 90.4177 73.8496 90.4112C73.8571 90.4093 73.8655 90.4093 73.8729 90.4074C73.9056 90.4008 73.9355 90.3877 73.9672 90.3784C74.0008 90.368 74.0344 90.3606 74.067 90.3474C74.0736 90.3446 74.081 90.3427 74.0876 90.3399C74.1221 90.3249 74.1548 90.3034 74.1884 90.2856C74.1912 90.2837 74.1949 90.2818 74.1986 90.28C74.2201 90.2678 74.2425 90.2603 74.264 90.2462C74.2668 90.2444 74.2686 90.2425 74.2714 90.2406C74.2752 90.2378 74.2798 90.2359 74.2845 90.2331C74.3153 90.2125 74.3414 90.1863 74.3703 90.1628C74.3797 90.1553 74.3899 90.1478 74.3993 90.1394C74.4161 90.1244 74.4366 90.1113 74.4525 90.0954C74.4543 90.0935 74.4562 90.0907 74.459 90.0888C74.4805 90.0673 74.4973 90.042 74.5169 90.0185C74.5281 90.0054 74.5383 89.9932 74.5486 89.9801C74.5663 89.9567 74.5869 89.9361 74.6027 89.9117C74.6037 89.9098 74.6046 89.908 74.6055 89.9061C74.6074 89.9023 74.6111 89.9005 74.613 89.8967C74.6298 89.8705 76.318 87.2702 79.4732 85.04C83.6634 82.078 88.2801 81.2122 93.1936 82.4669C93.2169 82.4725 93.2402 82.4782 93.2645 82.4828C93.3261 82.4941 98.8741 83.6045 102.015 88.6486H78.7547C78.1098 88.6486 77.5881 89.1733 77.5881 89.8199C77.5881 90.4664 78.1107 90.9912 78.7547 90.9912H103.949C104.344 90.9912 104.711 90.7907 104.926 90.4589C105.142 90.1272 105.175 89.7084 105.016 89.3467H105.015Z" stroke="#16938A" stroke-width="0.425466" stroke-miterlimit="10"/>
<path d="M105.015 89.3467C101.775 81.9722 94.4124 80.3239 93.7358 80.1871C88.2213 78.7871 82.8245 79.802 78.1275 83.1228C76.9992 83.9203 76.0427 84.758 75.2569 85.5338C75.4865 84.4497 75.8271 83.21 76.3441 81.9169C78.3786 76.8259 82.0107 73.3888 87.1406 71.7012C87.1472 71.6994 87.1537 71.6965 87.1612 71.6947C87.2172 71.675 92.4759 69.9002 98.2498 72.9475L94.5467 76.6657C94.0913 77.123 94.0913 77.8651 94.5467 78.3224C95.0022 78.7796 95.7413 78.7796 96.1967 78.3224L100.968 73.5313C101.217 73.2811 101.341 72.9306 101.303 72.5792C101.266 72.2269 101.072 71.9111 100.776 71.719C93.662 67.1022 86.8355 69.3296 86.4053 69.4767C80.6454 71.3742 76.4057 75.4025 74.1445 81.1279C73.9513 81.617 73.7815 82.0977 73.6303 82.5672C73.4791 82.0977 73.3093 81.617 73.1161 81.1279C70.8549 75.4025 66.6143 71.3733 60.8553 69.4767C60.4251 69.3286 53.5985 67.1022 46.4845 71.719C46.1887 71.9111 45.9946 72.2269 45.9573 72.5792C45.9199 72.9316 46.0431 73.2811 46.2923 73.5313L51.0415 78.2999C51.4969 78.7572 52.236 78.7572 52.6914 78.2999C53.1469 77.8426 53.1469 77.1005 52.6914 76.6432L49.0099 72.9466C54.7324 69.9162 59.8717 71.616 60.0994 71.6947C60.1059 71.6975 60.1125 71.6994 60.1199 71.7012C65.2499 73.3888 68.882 76.8259 70.9165 81.9169C71.4335 83.21 71.7741 84.4497 72.0037 85.5338C71.2179 84.758 70.2613 83.9203 69.1331 83.1228C64.4361 79.802 59.0402 78.7871 53.5248 80.1871C52.8482 80.3239 45.485 81.9712 42.2458 89.3467C42.0862 89.7093 42.1208 90.1272 42.3363 90.4589C42.5519 90.7907 42.9196 90.9912 43.3134 90.9912H68.5078C69.1527 90.9912 69.6743 90.4664 69.6743 89.8199C69.6743 89.1733 69.1517 88.6486 68.5078 88.6486H45.2499C48.3818 83.6345 53.9401 82.4941 53.9989 82.4828C54.0222 82.4782 54.0465 82.4735 54.0698 82.4669C58.9562 81.2188 63.5496 82.0687 67.723 84.9922C70.8987 87.2168 72.6336 89.8714 72.6513 89.8977C72.6523 89.8995 72.6541 89.9005 72.6551 89.9023C72.6579 89.9061 72.6597 89.9098 72.6625 89.9145C72.6831 89.9445 72.7083 89.9717 72.7316 89.9998C72.7428 90.0138 72.754 90.0288 72.7661 90.042C72.7801 90.0579 72.7923 90.0748 72.8072 90.0897C72.8081 90.0907 72.809 90.0926 72.8109 90.0935C72.8314 90.1141 72.8557 90.13 72.8781 90.1488C72.88 90.1507 72.8828 90.1525 72.8846 90.1544C72.9136 90.1788 72.9406 90.2059 72.9724 90.2275C72.9752 90.2294 72.9789 90.2312 72.9817 90.2331C72.9845 90.235 72.9873 90.2359 72.9892 90.2378C72.9929 90.2397 72.9957 90.2434 72.9985 90.2453C73.0209 90.2594 73.0442 90.2678 73.0666 90.28C73.0694 90.2818 73.0722 90.2828 73.075 90.2847C73.1068 90.3025 73.1366 90.3231 73.1702 90.3371C73.173 90.3381 73.1749 90.339 73.1777 90.3399C73.1823 90.3418 73.187 90.3427 73.1907 90.3446C73.2253 90.3587 73.2617 90.368 73.2971 90.3784C73.3027 90.3802 73.3083 90.3821 73.3139 90.384C73.341 90.3915 73.3671 90.4027 73.3961 90.4083C73.3998 90.4083 73.4045 90.4083 73.4082 90.4102C73.4455 90.4177 73.4838 90.4196 73.522 90.4233C73.5528 90.4261 73.5836 90.4327 73.6154 90.4327C73.6172 90.4327 73.6191 90.4327 73.6219 90.4327C73.6256 90.4327 73.6284 90.4327 73.6322 90.4327C73.6359 90.4327 73.6396 90.4318 73.6434 90.4318C73.677 90.4318 73.7096 90.4261 73.7432 90.4224C73.7787 90.4186 73.8141 90.4177 73.8496 90.4112C73.8571 90.4093 73.8655 90.4093 73.8729 90.4074C73.9056 90.4008 73.9355 90.3877 73.9672 90.3784C74.0008 90.368 74.0344 90.3606 74.067 90.3474C74.0736 90.3446 74.081 90.3427 74.0876 90.3399C74.1221 90.3249 74.1548 90.3034 74.1884 90.2856C74.1912 90.2837 74.1949 90.2818 74.1986 90.28C74.2201 90.2678 74.2425 90.2603 74.264 90.2462C74.2668 90.2444 74.2686 90.2425 74.2714 90.2406C74.2752 90.2378 74.2798 90.2359 74.2845 90.2331C74.3153 90.2125 74.3414 90.1863 74.3703 90.1628C74.3797 90.1553 74.3899 90.1478 74.3993 90.1394C74.4161 90.1244 74.4366 90.1113 74.4525 90.0954C74.4543 90.0935 74.4562 90.0907 74.459 90.0888C74.4805 90.0673 74.4973 90.042 74.5169 90.0185C74.5281 90.0054 74.5383 89.9932 74.5486 89.9801C74.5663 89.9567 74.5869 89.9361 74.6027 89.9117C74.6036 89.9098 74.6046 89.908 74.6055 89.9061C74.6074 89.9023 74.6111 89.9005 74.613 89.8967C74.6298 89.8705 76.318 87.2702 79.4732 85.04C83.6634 82.078 88.2801 81.2122 93.1936 82.4669C93.2169 82.4725 93.2402 82.4782 93.2645 82.4828C93.3261 82.4941 98.8741 83.6045 102.015 88.6486H78.7547C78.1098 88.6486 77.5881 89.1733 77.5881 89.8199C77.5881 90.4664 78.1107 90.9912 78.7547 90.9912H103.949C104.344 90.9912 104.711 90.7907 104.926 90.4589C105.142 90.1272 105.175 89.7084 105.016 89.3467H105.015Z" fill="url(#paint0_linear_819_8843)"/>
<path d="M51.2229 39.3302C52.4005 39.3302 53.3127 38.6359 53.5034 37.5875H52.598C52.4346 38.1389 51.9172 38.4929 51.2433 38.4929C50.3311 38.4929 49.7456 37.8122 49.7456 36.757C49.7456 35.695 50.3243 35.0279 51.2433 35.0279C51.9036 35.0279 52.4005 35.3683 52.5707 35.9469H53.4897C53.3196 34.8782 52.4414 34.1906 51.2637 34.1906C49.8069 34.1906 48.8334 35.2185 48.8334 36.7638C48.8334 38.3227 49.7729 39.3302 51.2229 39.3302ZM53.9648 37.5603C53.9648 38.6086 54.7204 39.3302 55.762 39.3302C56.8035 39.3302 57.5592 38.6086 57.5592 37.5603C57.5592 36.5119 56.8035 35.7903 55.762 35.7903C54.7204 35.7903 53.9648 36.5119 53.9648 37.5603ZM54.7953 37.5603C54.7953 36.9476 55.1902 36.5324 55.762 36.5324C56.3338 36.5324 56.7286 36.9476 56.7286 37.5603C56.7286 38.173 56.3338 38.5882 55.762 38.5882C55.1902 38.5882 54.7953 38.173 54.7953 37.5603ZM59.048 39.2485V37.4378C59.048 36.8932 59.3611 36.5392 59.8717 36.5392C60.3005 36.5392 60.5796 36.8115 60.5796 37.3765V39.2485H61.4102V37.1791C61.4102 36.3077 60.9745 35.7835 60.1304 35.7835C59.6743 35.7835 59.2658 35.981 59.0548 36.3213L58.9867 35.8857H58.2175V39.2485H59.048ZM63.3698 39.2485V36.58H64.0233V35.8857H63.3698V34.8373H62.5393V35.8857H61.8926V36.58H62.5393V39.2485H63.3698ZM66.6499 35.872C66.5138 35.838 66.398 35.8244 66.2823 35.8244C65.833 35.8244 65.5131 36.049 65.3701 36.3826L65.3225 35.8925H64.5396V39.2485H65.3701V37.6147C65.3701 36.9612 65.7445 36.6413 66.3436 36.6413H66.6499V35.872ZM68.0798 39.337C68.604 39.337 69.0601 39.0988 69.203 38.7516L69.2643 39.2485H69.9927V37.2063C69.9927 36.2737 69.4345 35.7835 68.5291 35.7835C67.6169 35.7835 67.0178 36.2601 67.0178 36.9885H67.7258C67.7258 36.6345 67.9981 36.4303 68.4883 36.4303C68.9103 36.4303 69.1826 36.6141 69.1826 37.0702V37.145L68.1751 37.2199C67.3786 37.2812 66.9293 37.6692 66.9293 38.2887C66.9293 38.9218 67.365 39.337 68.0798 39.337ZM68.3521 38.7107C67.9777 38.7107 67.7735 38.561 67.7735 38.2546C67.7735 37.9823 67.9709 37.8122 68.4883 37.7645L69.1894 37.7101V37.887C69.1894 38.4044 68.8627 38.7107 68.3521 38.7107ZM70.6112 37.5603C70.6112 38.6291 71.2783 39.337 72.2994 39.337C73.1776 39.337 73.8311 38.7992 73.9332 38.0164H73.0959C73.0074 38.384 72.7147 38.5882 72.2994 38.5882C71.7684 38.5882 71.4417 38.1934 71.4417 37.5603C71.4417 36.9272 71.7957 36.5256 72.3266 36.5256C72.7215 36.5256 73.0006 36.723 73.0959 37.1042H73.9264C73.8379 36.2941 73.2116 35.7835 72.2926 35.7835C71.2987 35.7835 70.6112 36.5187 70.6112 37.5603ZM75.695 39.2485V36.58H76.3485V35.8857H75.695V34.8373H74.8645V35.8857H74.2178V36.58H74.8645V39.2485H75.695ZM80.6125 39.2485C82.0557 39.2485 83.0496 38.2342 83.0496 36.7706C83.0496 35.2866 82.0353 34.2723 80.5649 34.2723H78.8222V39.2485H80.6125ZM80.4832 35.0756C81.5111 35.0756 82.1306 35.7155 82.1306 36.7706C82.1306 37.8054 81.5247 38.4453 80.5308 38.4453H79.6935V35.0756H80.4832ZM85.2432 39.337C86.1214 39.337 86.734 38.8945 86.877 38.1593H86.1077C86.0124 38.4793 85.7129 38.6563 85.2568 38.6563C84.7054 38.6563 84.3923 38.3568 84.331 37.7645L86.8634 37.7577V37.5058C86.8634 36.4575 86.2235 35.7835 85.216 35.7835C84.2289 35.7835 83.5413 36.5119 83.5413 37.5671C83.5413 38.6086 84.2425 39.337 85.2432 39.337ZM85.2228 36.4643C85.7197 36.4643 86.0397 36.7706 86.0397 37.2335H84.3514C84.4331 36.7298 84.7326 36.4643 85.2228 36.4643ZM88.6385 39.2485V36.58H89.292V35.8857H88.6385V34.8373H87.808V35.8857H87.1613V36.58H87.808V39.2485H88.6385ZM90.789 39.337C91.3132 39.337 91.7693 39.0988 91.9123 38.7516L91.9735 39.2485H92.7019V37.2063C92.7019 36.2737 92.1437 35.7835 91.2383 35.7835C90.3261 35.7835 89.7271 36.2601 89.7271 36.9885H90.4351C90.4351 36.6345 90.7073 36.4303 91.1975 36.4303C91.6195 36.4303 91.8918 36.6141 91.8918 37.0702V37.145L90.8843 37.2199C90.0879 37.2812 89.6386 37.6692 89.6386 38.2887C89.6386 38.9218 90.0743 39.337 90.789 39.337ZM91.0613 38.7107C90.6869 38.7107 90.4827 38.561 90.4827 38.2546C90.4827 37.9823 90.6801 37.8122 91.1975 37.7645L91.8987 37.7101V37.887C91.8987 38.4044 91.5719 38.7107 91.0613 38.7107ZM93.9331 35.2117C94.2054 35.2117 94.43 34.9871 94.43 34.708C94.43 34.4289 94.2054 34.211 93.9331 34.211C93.6472 34.211 93.4225 34.4289 93.4225 34.708C93.4225 34.9871 93.6472 35.2117 93.9331 35.2117ZM93.5178 39.2485H94.3483V35.8857H93.5178V39.2485ZM96.0437 39.2485V34.1838H95.22V39.2485H96.0437ZM96.6562 38.2274C96.6562 38.8877 97.1872 39.337 98.0245 39.337C98.855 39.337 99.4336 38.915 99.4336 38.2342C99.4336 37.7169 99.1477 37.4582 98.5827 37.3288L97.9769 37.1859C97.6909 37.1178 97.5412 36.9953 97.5412 36.8047C97.5412 36.5528 97.7318 36.403 98.0585 36.403C98.3785 36.403 98.5691 36.5868 98.5759 36.8727H99.3656C99.3588 36.2192 98.8482 35.7835 98.0926 35.7835C97.3165 35.7835 96.7583 36.1784 96.7583 36.8387C96.7583 37.3765 97.051 37.6624 97.6569 37.7985L98.2628 37.9415C98.5623 38.0096 98.6508 38.1321 98.6508 38.3023C98.6508 38.5474 98.4398 38.7039 98.0517 38.7039C97.6705 38.7039 97.4527 38.5201 97.4459 38.2274H96.6562Z" fill="#284B64"/>
<g filter="url(#filter3_ddd_819_8843)">
<rect x="124.687" y="24.441" width="167.208" height="95.3043" rx="6.38199" fill="white"/>
</g>
<path d="M132.903 37.5466V34.0204L135.245 37.5466H136.103V32.5704H135.245V36.0966L132.91 32.5704H132.046V37.5466H132.903ZM136.884 35.8584C136.884 36.9067 137.64 37.6283 138.682 37.6283C139.723 37.6283 140.479 36.9067 140.479 35.8584C140.479 34.81 139.723 34.0884 138.682 34.0884C137.64 34.0884 136.884 34.81 136.884 35.8584ZM137.715 35.8584C137.715 35.2457 138.11 34.8305 138.682 34.8305C139.253 34.8305 139.648 35.2457 139.648 35.8584C139.648 36.4711 139.253 36.8863 138.682 36.8863C138.11 36.8863 137.715 36.4711 137.715 35.8584ZM142.247 37.5466V34.8781H142.901V34.1837H142.247V33.1354H141.417V34.1837H140.77V34.8781H141.417V37.5466H142.247ZM143.832 33.5098C144.105 33.5098 144.329 33.2852 144.329 33.0061C144.329 32.727 144.105 32.5091 143.832 32.5091C143.547 32.5091 143.322 32.727 143.322 33.0061C143.322 33.2852 143.547 33.5098 143.832 33.5098ZM143.417 37.5466H144.248V34.1837H143.417V37.5466ZM144.908 35.8584C144.908 36.9272 145.576 37.6351 146.597 37.6351C147.475 37.6351 148.128 37.0973 148.23 36.3145H147.393C147.305 36.6821 147.012 36.8863 146.597 36.8863C146.066 36.8863 145.739 36.4915 145.739 35.8584C145.739 35.2253 146.093 34.8237 146.624 34.8237C147.019 34.8237 147.298 35.0211 147.393 35.4023H148.224C148.135 34.5922 147.509 34.0816 146.59 34.0816C145.596 34.0816 144.908 34.8168 144.908 35.8584ZM150.353 37.6351C151.231 37.6351 151.844 37.1926 151.987 36.4574H151.218C151.122 36.7774 150.823 36.9544 150.367 36.9544C149.815 36.9544 149.502 36.6549 149.441 36.0626L151.973 36.0558V35.8039C151.973 34.7556 151.333 34.0816 150.326 34.0816C149.339 34.0816 148.651 34.81 148.651 35.8652C148.651 36.9067 149.352 37.6351 150.353 37.6351ZM150.333 34.7624C150.83 34.7624 151.149 35.0687 151.149 35.5316H149.461C149.543 35.0279 149.842 34.7624 150.333 34.7624ZM156.563 35.8312C157.556 35.8312 158.21 35.1572 158.21 34.1974C158.21 33.2239 157.563 32.5704 156.563 32.5704H154.595V37.5466H155.467V35.8312H156.563ZM156.392 33.3464C156.971 33.3464 157.298 33.646 157.298 34.1906C157.298 34.7352 156.978 35.0551 156.379 35.0551H155.467V33.3464H156.392ZM160.159 37.6351C161.037 37.6351 161.65 37.1926 161.792 36.4574H161.023C160.928 36.7774 160.628 36.9544 160.172 36.9544C159.621 36.9544 159.308 36.6549 159.246 36.0626L161.779 36.0558V35.8039C161.779 34.7556 161.139 34.0816 160.131 34.0816C159.144 34.0816 158.457 34.81 158.457 35.8652C158.457 36.9067 159.158 37.6351 160.159 37.6351ZM160.138 34.7624C160.635 34.7624 160.955 35.0687 160.955 35.5316H159.267C159.349 35.0279 159.648 34.7624 160.138 34.7624ZM164.554 34.1701C164.418 34.1361 164.302 34.1225 164.186 34.1225C163.737 34.1225 163.417 34.3471 163.274 34.6807L163.226 34.1906H162.444V37.5466H163.274V35.9128C163.274 35.2593 163.648 34.9394 164.248 34.9394H164.554V34.1701ZM165.531 33.5098C165.804 33.5098 166.028 33.2852 166.028 33.0061C166.028 32.727 165.804 32.5091 165.531 32.5091C165.245 32.5091 165.021 32.727 165.021 33.0061C165.021 33.2852 165.245 33.5098 165.531 33.5098ZM165.116 37.5466H165.946V34.1837H165.116V37.5466ZM166.607 35.8584C166.607 36.9067 167.363 37.6283 168.404 37.6283C169.446 37.6283 170.201 36.9067 170.201 35.8584C170.201 34.81 169.446 34.0884 168.404 34.0884C167.363 34.0884 166.607 34.81 166.607 35.8584ZM167.438 35.8584C167.438 35.2457 167.832 34.8305 168.404 34.8305C168.976 34.8305 169.371 35.2457 169.371 35.8584C169.371 36.4711 168.976 36.8863 168.404 36.8863C167.832 36.8863 167.438 36.4711 167.438 35.8584ZM172.242 37.6351C172.752 37.6351 173.188 37.4105 173.392 37.0225L173.447 37.5466H174.209V32.4819H173.385V34.6126C173.174 34.2791 172.759 34.0816 172.289 34.0816C171.275 34.0816 170.662 34.8305 170.662 35.8788C170.662 36.9203 171.268 37.6351 172.242 37.6351ZM172.425 36.8727C171.847 36.8727 171.493 36.4506 171.493 35.8516C171.493 35.2525 171.847 34.8237 172.425 34.8237C173.004 34.8237 173.379 35.2457 173.379 35.8516C173.379 36.4574 173.004 36.8727 172.425 36.8727Z" fill="#043344"/>
<path d="M134.713 58.2073C135.271 57.4517 135.469 57.016 135.469 56.4169C135.469 55.3958 134.665 54.6062 133.59 54.6062C132.528 54.6062 131.738 55.3482 131.738 56.4101C131.738 57.4176 132.433 58.1392 133.461 58.1392C133.583 58.1392 133.712 58.1188 133.835 58.0848L132.644 59.6709H133.638L134.713 58.2073ZM134.577 56.4101C134.577 57.0092 134.182 57.4244 133.59 57.4244C133.018 57.4244 132.616 57.0092 132.616 56.4101C132.616 55.8043 133.018 55.3822 133.59 55.3822C134.175 55.3822 134.577 55.8043 134.577 56.4101ZM136.007 57.193C136.007 58.7315 136.79 59.7594 138.111 59.7594C139.431 59.7594 140.221 58.7315 140.221 57.193C140.221 55.6477 139.384 54.5993 138.111 54.5993C136.838 54.5993 136.007 55.6477 136.007 57.193ZM136.865 57.193C136.865 56.0153 137.328 55.3686 138.111 55.3686C138.9 55.3686 139.363 56.0153 139.363 57.193C139.363 58.3434 138.9 58.9902 138.111 58.9902C137.328 58.9902 136.865 58.3434 136.865 57.193ZM144.16 59.7594C144.671 59.7594 145.106 59.5347 145.31 59.1467L145.365 59.6709H146.127V54.6062H145.304V56.7369C145.093 56.4033 144.677 56.2059 144.208 56.2059C143.193 56.2059 142.581 56.9547 142.581 58.0031C142.581 59.0446 143.187 59.7594 144.16 59.7594ZM144.344 58.997C143.765 58.997 143.411 58.5749 143.411 57.9758C143.411 57.3768 143.765 56.9479 144.344 56.9479C144.922 56.9479 145.297 57.37 145.297 57.9758C145.297 58.5817 144.922 58.997 144.344 58.997ZM147.994 59.7594C148.518 59.7594 148.974 59.5211 149.117 59.174L149.178 59.6709H149.906V57.6287C149.906 56.696 149.348 56.2059 148.443 56.2059C147.531 56.2059 146.932 56.6824 146.932 57.4108H147.64C147.64 57.0568 147.912 56.8526 148.402 56.8526C148.824 56.8526 149.096 57.0364 149.096 57.4925V57.5674L148.089 57.6423C147.292 57.7035 146.843 58.0916 146.843 58.711C146.843 59.3441 147.279 59.7594 147.994 59.7594ZM148.266 59.1331C147.891 59.1331 147.687 58.9833 147.687 58.677C147.687 58.4047 147.885 58.2345 148.402 58.1869L149.103 58.1324V58.3094C149.103 58.8268 148.776 59.1331 148.266 59.1331ZM150.337 61.2298C150.52 61.2775 150.725 61.3047 150.956 61.3047C151.507 61.3047 151.861 61.046 152.113 60.4197L153.761 56.308H152.903L151.991 58.7587L151.126 56.308H150.248L151.603 59.8139L151.507 60.0657C151.364 60.4606 151.16 60.5354 150.833 60.5354H150.337V61.2298Z" fill="#284B64"/>
<path d="M157.735 60.9711C157.116 60.127 156.782 58.8744 156.782 57.6695C156.782 56.3489 157.17 55.1439 157.735 54.3747H157.075C156.326 55.2256 155.945 56.4782 155.945 57.6695C155.945 58.9765 156.394 60.1951 157.075 60.9711H157.735ZM161.497 59.6641V58.854H159.427L160.326 58.0848C161.082 57.4381 161.463 56.9139 161.463 56.2195C161.463 55.212 160.803 54.6062 159.741 54.6062C158.685 54.6062 157.991 55.3141 157.984 56.4033H158.849C158.856 55.7634 159.196 55.3822 159.741 55.3822C160.265 55.3822 160.571 55.7022 160.571 56.2672C160.571 56.7437 160.346 57.0705 159.673 57.6423L158.046 59.0174V59.6709L161.497 59.6641ZM163.108 55.4775V59.6709H163.946V54.6947H162.019V55.4775H163.108ZM167.332 55.9064C167.332 55.1439 166.787 54.5993 166.032 54.5993C165.276 54.5993 164.731 55.1439 164.731 55.9064C164.731 56.6756 165.276 57.2134 166.032 57.2134C166.787 57.2134 167.332 56.6756 167.332 55.9064ZM170.062 54.7015H169.231L165.453 59.6709H166.284L170.062 54.7015ZM166.672 55.9064C166.672 56.3012 166.413 56.5735 166.032 56.5735C165.657 56.5735 165.399 56.3012 165.399 55.9064C165.399 55.5115 165.65 55.2392 166.032 55.2392C166.413 55.2392 166.672 55.5115 166.672 55.9064ZM170.79 58.4524C170.79 57.6899 170.252 57.1453 169.497 57.1453C168.734 57.1453 168.196 57.6899 168.196 58.4524C168.196 59.2148 168.734 59.7594 169.497 59.7594C170.252 59.7594 170.79 59.2148 170.79 58.4524ZM170.13 58.4524C170.13 58.8472 169.871 59.1195 169.497 59.1195C169.115 59.1195 168.857 58.8472 168.857 58.4524C168.857 58.0575 169.115 57.7852 169.497 57.7852C169.871 57.7852 170.13 58.0575 170.13 58.4524ZM171.689 60.9711C172.369 60.1951 172.825 58.9765 172.825 57.6695C172.825 56.4782 172.437 55.2256 171.689 54.3747H171.028C171.593 55.1439 171.981 56.3489 171.981 57.6695C171.981 58.8744 171.655 60.127 171.028 60.9711H171.689Z" fill="#BEC9D0"/>
<path d="M281.748 58.7247V57.9622H281.142V54.6947H280.046L277.793 57.9622V58.7247H280.318V59.6709H281.142V58.7247H281.748ZM278.718 57.9622L280.318 55.6341V57.9622H278.718Z" fill="#284B64"/>
<path d="M132.494 97.003C131.936 97.7586 131.738 98.1943 131.738 98.7933C131.738 99.8145 132.542 100.604 133.617 100.604C134.679 100.604 135.469 99.8621 135.469 98.8001C135.469 97.7926 134.774 97.0711 133.746 97.0711C133.624 97.0711 133.495 97.0915 133.372 97.1255L134.563 95.5394H133.569L132.494 97.003ZM132.63 98.8001C132.63 98.2011 133.025 97.7858 133.617 97.7858C134.189 97.7858 134.591 98.2011 134.591 98.8001C134.591 99.406 134.182 99.8281 133.617 99.8281C133.032 99.8281 132.63 99.406 132.63 98.8001ZM136.007 98.0377C136.007 99.5762 136.79 100.604 138.111 100.604C139.431 100.604 140.221 99.5762 140.221 98.0377C140.221 96.4924 139.384 95.4441 138.111 95.4441C136.838 95.4441 136.007 96.4924 136.007 98.0377ZM136.865 98.0377C136.865 96.86 137.328 96.2133 138.111 96.2133C138.9 96.2133 139.363 96.86 139.363 98.0377C139.363 99.1882 138.9 99.8349 138.111 99.8349C137.328 99.8349 136.865 99.1882 136.865 98.0377ZM144.16 100.604C144.671 100.604 145.106 100.379 145.31 99.9915L145.365 100.516H146.127V95.4509H145.304V97.5816C145.093 97.248 144.677 97.0506 144.208 97.0506C143.193 97.0506 142.581 97.7995 142.581 98.8478C142.581 99.8893 143.187 100.604 144.16 100.604ZM144.344 99.8417C143.765 99.8417 143.411 99.4196 143.411 98.8206C143.411 98.2215 143.765 97.7926 144.344 97.7926C144.922 97.7926 145.297 98.2147 145.297 98.8206C145.297 99.4264 144.922 99.8417 144.344 99.8417ZM147.994 100.604C148.518 100.604 148.974 100.366 149.117 100.019L149.178 100.516H149.906V98.4734C149.906 97.5408 149.348 97.0506 148.443 97.0506C147.531 97.0506 146.932 97.5272 146.932 98.2556H147.64C147.64 97.9016 147.912 97.6973 148.402 97.6973C148.824 97.6973 149.096 97.8811 149.096 98.3372V98.4121L148.089 98.487C147.292 98.5483 146.843 98.9363 146.843 99.5558C146.843 100.189 147.279 100.604 147.994 100.604ZM148.266 99.9778C147.891 99.9778 147.687 99.8281 147.687 99.5217C147.687 99.2494 147.885 99.0793 148.402 99.0316L149.103 98.9771V99.1541C149.103 99.6715 148.776 99.9778 148.266 99.9778ZM150.337 102.075C150.52 102.122 150.725 102.149 150.956 102.149C151.507 102.149 151.861 101.891 152.113 101.264L153.761 97.1527H152.903L151.991 99.6034L151.126 97.1527H150.248L151.603 100.659L151.507 100.91C151.364 101.305 151.16 101.38 150.833 101.38H150.337V102.075Z" fill="#284B64"/>
<path d="M157.735 101.816C157.116 100.972 156.782 99.7192 156.782 98.5142C156.782 97.1936 157.17 95.9887 157.735 95.2194H157.075C156.326 96.0704 155.945 97.3229 155.945 98.5142C155.945 99.8213 156.394 101.04 157.075 101.816H157.735ZM161.497 100.509V99.6987H159.427L160.326 98.9295C161.082 98.2828 161.463 97.7586 161.463 97.0642C161.463 96.0567 160.803 95.4509 159.741 95.4509C158.685 95.4509 157.991 96.1589 157.984 97.248H158.849C158.856 96.6081 159.196 96.2269 159.741 96.2269C160.265 96.2269 160.571 96.5469 160.571 97.1119C160.571 97.5884 160.346 97.9152 159.673 98.487L158.046 99.8621V100.516L161.497 100.509ZM162.742 97.003C162.184 97.7586 161.986 98.1943 161.986 98.7933C161.986 99.8145 162.789 100.604 163.865 100.604C164.927 100.604 165.717 99.8621 165.717 98.8001C165.717 97.7926 165.022 97.0711 163.994 97.0711C163.872 97.0711 163.743 97.0915 163.62 97.1255L164.811 95.5394H163.817L162.742 97.003ZM162.878 98.8001C162.878 98.2011 163.273 97.7858 163.865 97.7858C164.437 97.7858 164.839 98.2011 164.839 98.8001C164.839 99.406 164.43 99.8281 163.865 99.8281C163.28 99.8281 162.878 99.406 162.878 98.8001ZM168.794 96.7511C168.794 95.9887 168.25 95.4441 167.494 95.4441C166.739 95.4441 166.194 95.9887 166.194 96.7511C166.194 97.5203 166.739 98.0581 167.494 98.0581C168.25 98.0581 168.794 97.5203 168.794 96.7511ZM171.524 95.5462H170.694L166.916 100.516H167.746L171.524 95.5462ZM168.134 96.7511C168.134 97.1459 167.875 97.4182 167.494 97.4182C167.12 97.4182 166.861 97.1459 166.861 96.7511C166.861 96.3563 167.113 96.084 167.494 96.084C167.875 96.084 168.134 96.3563 168.134 96.7511ZM172.253 99.2971C172.253 98.5347 171.715 97.9901 170.959 97.9901C170.197 97.9901 169.659 98.5347 169.659 99.2971C169.659 100.06 170.197 100.604 170.959 100.604C171.715 100.604 172.253 100.06 172.253 99.2971ZM171.592 99.2971C171.592 99.6919 171.334 99.9642 170.959 99.9642C170.578 99.9642 170.319 99.6919 170.319 99.2971C170.319 98.9023 170.578 98.63 170.959 98.63C171.334 98.63 171.592 98.9023 171.592 99.2971ZM173.151 101.816C173.832 101.04 174.288 99.8213 174.288 98.5142C174.288 97.3229 173.9 96.0704 173.151 95.2194H172.491C173.056 95.9887 173.444 97.1936 173.444 98.5142C173.444 99.7192 173.117 100.972 172.491 101.816H173.151Z" fill="#BEC9D0"/>
<path d="M280.354 100.597C281.464 100.597 282.219 99.8621 282.219 98.7865C282.219 97.8063 281.559 97.1323 280.565 97.1323C280.225 97.1323 279.925 97.2208 279.687 97.3774L279.952 96.3427H281.92V95.5394H279.326L278.714 98.1466L279.483 98.31C279.66 98.0513 280.007 97.8607 280.388 97.8607C280.987 97.8607 281.334 98.2556 281.334 98.8342C281.334 99.44 280.96 99.8213 280.375 99.8213C279.823 99.8213 279.49 99.4877 279.49 98.9227H278.625C278.625 99.9302 279.313 100.597 280.354 100.597Z" fill="#284B64"/>
<path d="M133.256 77.629C133.951 77.629 134.277 77.9966 134.277 78.5003C134.277 79.0517 133.917 79.4057 133.372 79.4057C132.841 79.4057 132.487 79.079 132.487 78.5071H131.629C131.629 79.5827 132.385 80.1818 133.358 80.1818C134.366 80.1818 135.162 79.5351 135.162 78.5139C135.162 77.6358 134.57 77.0776 133.808 76.9278L135.019 75.8114V75.117H131.861V75.8863H133.93L132.65 77.0639V77.629H133.256ZM135.662 77.6153C135.662 79.1538 136.444 80.1818 137.765 80.1818C139.086 80.1818 139.875 79.1538 139.875 77.6153C139.875 76.0701 139.038 75.0217 137.765 75.0217C136.492 75.0217 135.662 76.0701 135.662 77.6153ZM136.519 77.6153C136.519 76.4377 136.982 75.791 137.765 75.791C138.555 75.791 139.018 76.4377 139.018 77.6153C139.018 78.7658 138.555 79.4125 137.765 79.4125C136.982 79.4125 136.519 78.7658 136.519 77.6153ZM143.814 80.1818C144.325 80.1818 144.761 79.9571 144.965 79.5691L145.019 80.0933H145.782V75.0285H144.958V77.1593C144.747 76.8257 144.332 76.6283 143.862 76.6283C142.848 76.6283 142.235 77.3771 142.235 78.4254C142.235 79.467 142.841 80.1818 143.814 80.1818ZM143.998 79.4193C143.419 79.4193 143.065 78.9973 143.065 78.3982C143.065 77.7992 143.419 77.3703 143.998 77.3703C144.577 77.3703 144.951 77.7923 144.951 78.3982C144.951 79.0041 144.577 79.4193 143.998 79.4193ZM147.648 80.1818C148.172 80.1818 148.628 79.9435 148.771 79.5963L148.832 80.0933H149.561V78.051C149.561 77.1184 149.003 76.6283 148.097 76.6283C147.185 76.6283 146.586 77.1048 146.586 77.8332H147.294C147.294 77.4792 147.566 77.275 148.056 77.275C148.478 77.275 148.751 77.4588 148.751 77.9149V77.9898L147.743 78.0646C146.947 78.1259 146.497 78.5139 146.497 79.1334C146.497 79.7665 146.933 80.1818 147.648 80.1818ZM147.92 79.5555C147.546 79.5555 147.341 79.4057 147.341 79.0994C147.341 78.8271 147.539 78.6569 148.056 78.6092L148.757 78.5548V78.7318C148.757 79.2491 148.431 79.5555 147.92 79.5555ZM149.991 81.6522C150.175 81.6998 150.379 81.7271 150.61 81.7271C151.162 81.7271 151.516 81.4684 151.768 80.8421L153.415 76.7304H152.557L151.645 79.1811L150.78 76.7304H149.902L151.257 80.2362L151.162 80.4881C151.019 80.8829 150.815 80.9578 150.488 80.9578H149.991V81.6522Z" fill="#284B64"/>
<path d="M157.389 81.3935C156.77 80.5494 156.436 79.2968 156.436 78.0919C156.436 76.7712 156.824 75.5663 157.389 74.7971H156.729C155.98 75.648 155.599 76.9006 155.599 78.0919C155.599 79.3989 156.048 80.6174 156.729 81.3935H157.389ZM159.395 80.175C160.505 80.175 161.26 79.4397 161.26 78.3642C161.26 77.3839 160.6 76.71 159.606 76.71C159.266 76.71 158.966 76.7985 158.728 76.955L158.993 75.9203H160.961V75.117H158.367L157.754 77.7243L158.524 77.8876C158.701 77.629 159.048 77.4384 159.429 77.4384C160.028 77.4384 160.375 77.8332 160.375 78.4118C160.375 79.0177 160.001 79.3989 159.415 79.3989C158.864 79.3989 158.53 79.0653 158.53 78.5003H157.666C157.666 79.5078 158.353 80.175 159.395 80.175ZM163.278 77.629C163.973 77.629 164.299 77.9966 164.299 78.5003C164.299 79.0517 163.939 79.4057 163.394 79.4057C162.863 79.4057 162.509 79.079 162.509 78.5071H161.651C161.651 79.5827 162.407 80.1818 163.38 80.1818C164.388 80.1818 165.184 79.5351 165.184 78.5139C165.184 77.6358 164.592 77.0776 163.83 76.9278L165.041 75.8114V75.117H161.883V75.8863H163.952L162.672 77.0639V77.629H163.278ZM168.223 76.3287C168.223 75.5663 167.678 75.0217 166.922 75.0217C166.167 75.0217 165.622 75.5663 165.622 76.3287C165.622 77.098 166.167 77.6358 166.922 77.6358C167.678 77.6358 168.223 77.098 168.223 76.3287ZM170.953 75.1238H170.122L166.344 80.0933H167.174L170.953 75.1238ZM167.562 76.3287C167.562 76.7236 167.304 76.9959 166.922 76.9959C166.548 76.9959 166.289 76.7236 166.289 76.3287C166.289 75.9339 166.541 75.6616 166.922 75.6616C167.304 75.6616 167.562 75.9339 167.562 76.3287ZM171.681 78.8747C171.681 78.1123 171.143 77.5677 170.387 77.5677C169.625 77.5677 169.087 78.1123 169.087 78.8747C169.087 79.6372 169.625 80.1818 170.387 80.1818C171.143 80.1818 171.681 79.6372 171.681 78.8747ZM171.021 78.8747C171.021 79.2696 170.762 79.5419 170.387 79.5419C170.006 79.5419 169.748 79.2696 169.748 78.8747C169.748 78.4799 170.006 78.2076 170.387 78.2076C170.762 78.2076 171.021 78.4799 171.021 78.8747ZM172.579 81.3935C173.26 80.6174 173.716 79.3989 173.716 78.0919C173.716 76.9006 173.328 75.648 172.579 74.7971H171.919C172.484 75.5663 172.872 76.7712 172.872 78.0919C172.872 79.2968 172.545 80.5494 171.919 81.3935H172.579Z" fill="#BEC9D0"/>
<path d="M274.833 75.8999V80.0933H275.67V75.117H273.744V75.8999H274.833ZM276.517 77.6153C276.517 79.1538 277.3 80.1818 278.621 80.1818C279.941 80.1818 280.731 79.1538 280.731 77.6153C280.731 76.0701 279.894 75.0217 278.621 75.0217C277.348 75.0217 276.517 76.0701 276.517 77.6153ZM277.375 77.6153C277.375 76.4377 277.838 75.791 278.621 75.791C279.411 75.791 279.873 76.4377 279.873 77.6153C279.873 78.7658 279.411 79.4125 278.621 79.4125C277.838 79.4125 277.375 78.7658 277.375 77.6153Z" fill="#284B64"/>
<rect x="131.493" y="64.8604" width="150.189" height="3.82919" rx="1.9146" fill="#E9EDEF"/>
<rect x="131.493" y="64.8604" width="43.823" height="3.82919" rx="1.9146" fill="#62D26F"/>
<rect x="131.493" y="85.2827" width="150.189" height="3.82919" rx="1.9146" fill="#E9EDEF"/>
<rect x="131.493" y="85.2827" width="85.944" height="3.82919" rx="1.9146" fill="#FFA150"/>
<rect x="131.493" y="105.705" width="150.189" height="3.82919" rx="1.9146" fill="#E9EDEF"/>
<rect x="131.493" y="105.705" width="54.4596" height="3.82919" rx="1.9146" fill="#11BBD1"/>
<g filter="url(#filter4_ddd_819_8843)">
<rect x="28.1055" y="124.851" width="167.208" height="77.0093" rx="6.38199" fill="white"/>
</g>
<path d="M66.6108 135.311C50.9844 135.311 38.3174 148.09 38.3174 163.855C38.3174 179.619 50.9844 192.398 66.6108 192.398C82.2373 192.398 94.9043 179.619 94.9043 163.855C94.9043 148.09 82.2362 135.311 66.6108 135.311ZM66.6108 179.251C58.1818 179.251 51.3482 172.357 51.3482 163.854C51.3482 155.35 58.1818 148.456 66.6108 148.456C75.0399 148.456 81.8735 155.35 81.8735 163.854C81.8735 172.357 75.0399 179.251 66.6108 179.251Z" fill="#FFA150"/>
<path d="M81.0187 158.766L93.4781 154.889C89.7511 143.517 79.1323 135.311 66.6113 135.311V148.457C73.2727 148.457 78.9362 152.763 81.0187 158.766Z" fill="#4EB1F9"/>
<path d="M94.9034 163.855C94.9034 160.722 94.4016 157.709 93.4779 154.889L81.0184 158.766C81.5716 160.359 81.8726 162.071 81.8726 163.855C81.8726 169.727 78.6144 174.831 73.821 177.427L79.7708 189.126C88.7678 184.348 94.9023 174.825 94.9023 163.855H94.9034Z" fill="#62D26F"/>
<path d="M109.942 138.086H109.071V143.062H109.942V138.086ZM111.753 143.062V141.251C111.753 140.707 112.066 140.353 112.577 140.353C113.006 140.353 113.285 140.625 113.285 141.19V143.062H114.116V140.993C114.116 140.121 113.68 139.597 112.836 139.597C112.38 139.597 111.971 139.795 111.76 140.135L111.692 139.699H110.923V143.062H111.753ZM116.075 143.062V140.394H116.729V139.699H116.075V138.651H115.245V139.699H114.598V140.394H115.245V143.062H116.075ZM118.716 143.151C119.594 143.151 120.207 142.708 120.35 141.973H119.581C119.485 142.293 119.186 142.47 118.73 142.47C118.178 142.47 117.865 142.17 117.804 141.578L120.336 141.571V141.32C120.336 140.271 119.696 139.597 118.689 139.597C117.702 139.597 117.014 140.326 117.014 141.381C117.014 142.422 117.715 143.151 118.716 143.151ZM118.696 140.278C119.193 140.278 119.513 140.584 119.513 141.047H117.824C117.906 140.543 118.206 140.278 118.696 140.278ZM123.111 139.686C122.975 139.652 122.859 139.638 122.744 139.638C122.294 139.638 121.975 139.863 121.832 140.196L121.784 139.706H121.001V143.062H121.832V141.428C121.832 140.775 122.206 140.455 122.805 140.455H123.111V139.686ZM124.504 143.062V141.251C124.504 140.707 124.817 140.353 125.328 140.353C125.757 140.353 126.036 140.625 126.036 141.19V143.062H126.866V140.993C126.866 140.121 126.431 139.597 125.586 139.597C125.13 139.597 124.722 139.795 124.511 140.135L124.443 139.699H123.674V143.062H124.504Z" fill="#284B64"/>
<path d="M131.185 144.362C130.565 143.518 130.232 142.266 130.232 141.061C130.232 139.74 130.62 138.535 131.185 137.766H130.525C129.776 138.617 129.394 139.87 129.394 141.061C129.394 142.368 129.844 143.586 130.525 144.362H131.185ZM132.543 138.869V143.062H133.38V138.086H131.454V138.869H132.543ZM135.698 140.598C136.392 140.598 136.719 140.966 136.719 141.469C136.719 142.021 136.358 142.375 135.813 142.375C135.282 142.375 134.928 142.048 134.928 141.476H134.071C134.071 142.552 134.826 143.151 135.8 143.151C136.807 143.151 137.604 142.504 137.604 141.483C137.604 140.605 137.011 140.047 136.249 139.897L137.461 138.78V138.086H134.302V138.855H136.372L135.092 140.033V140.598H135.698ZM140.642 139.298C140.642 138.535 140.097 137.991 139.342 137.991C138.586 137.991 138.042 138.535 138.042 139.298C138.042 140.067 138.586 140.605 139.342 140.605C140.097 140.605 140.642 140.067 140.642 139.298ZM143.372 138.093H142.541L138.763 143.062H139.594L143.372 138.093ZM139.982 139.298C139.982 139.693 139.723 139.965 139.342 139.965C138.967 139.965 138.709 139.693 138.709 139.298C138.709 138.903 138.961 138.631 139.342 138.631C139.723 138.631 139.982 138.903 139.982 139.298ZM144.1 141.844C144.1 141.081 143.562 140.537 142.807 140.537C142.044 140.537 141.507 141.081 141.507 141.844C141.507 142.606 142.044 143.151 142.807 143.151C143.562 143.151 144.1 142.606 144.1 141.844ZM143.44 141.844C143.44 142.239 143.181 142.511 142.807 142.511C142.426 142.511 142.167 142.239 142.167 141.844C142.167 141.449 142.426 141.177 142.807 141.177C143.181 141.177 143.44 141.449 143.44 141.844ZM144.999 144.362C145.679 143.586 146.136 142.368 146.136 141.061C146.136 139.87 145.748 138.617 144.999 137.766H144.338C144.903 138.535 145.291 139.74 145.291 141.061C145.291 142.266 144.965 143.518 144.338 144.362H144.999Z" fill="#BEC9D0"/>
<path d="M179.028 138.869V143.062H179.866V138.086H177.939V138.869H179.028ZM182.183 140.598C182.878 140.598 183.204 140.966 183.204 141.469C183.204 142.021 182.844 142.375 182.299 142.375C181.768 142.375 181.414 142.048 181.414 141.476H180.556C180.556 142.552 181.312 143.151 182.285 143.151C183.293 143.151 184.089 142.504 184.089 141.483C184.089 140.605 183.497 140.047 182.735 139.897L183.946 138.78V138.086H180.788V138.855H182.857L181.577 140.033V140.598H182.183Z" fill="#284B64"/>
<ellipse cx="103.414" cy="140.593" rx="1.70186" ry="1.70186" fill="#4EB1F9"/>
<path d="M111.794 187.828V187.045H109.942V185.691H112.148V184.887H109.071V189.864H109.942V187.828H111.794ZM114.885 186.501V188.264C114.885 188.904 114.633 189.21 114.109 189.21C113.646 189.21 113.394 188.951 113.394 188.311V186.501H112.564V188.604C112.564 189.428 113.02 189.952 113.796 189.952C114.245 189.952 114.681 189.734 114.885 189.414L114.947 189.864H115.716V186.501H114.885ZM117.411 189.864V184.799H116.587V189.864H117.411ZM119.119 189.864V184.799H118.296V189.864H119.119ZM121.512 185.691H122.969V189.864H123.84V185.691H125.297V184.887H121.512V185.691ZM126.256 185.827C126.528 185.827 126.753 185.602 126.753 185.323C126.753 185.044 126.528 184.826 126.256 184.826C125.97 184.826 125.745 185.044 125.745 185.323C125.745 185.602 125.97 185.827 126.256 185.827ZM125.841 189.864H126.671V186.501H125.841V189.864ZM128.36 189.864V187.957C128.36 187.413 128.68 187.154 129.075 187.154C129.469 187.154 129.721 187.406 129.721 187.876V189.864H130.552V187.957C130.552 187.406 130.858 187.147 131.26 187.147C131.655 187.147 131.913 187.399 131.913 187.883V189.864H132.737V187.665C132.737 186.889 132.288 186.399 131.471 186.399C130.96 186.399 130.565 186.65 130.395 187.038C130.218 186.65 129.864 186.399 129.354 186.399C128.87 186.399 128.53 186.616 128.36 186.895L128.292 186.501H127.529V189.864H128.36ZM135.057 189.952C135.935 189.952 136.548 189.51 136.691 188.774H135.921C135.826 189.094 135.526 189.271 135.07 189.271C134.519 189.271 134.206 188.972 134.145 188.38L136.677 188.373V188.121C136.677 187.072 136.037 186.399 135.03 186.399C134.042 186.399 133.355 187.127 133.355 188.182C133.355 189.224 134.056 189.952 135.057 189.952ZM135.036 187.079C135.533 187.079 135.853 187.386 135.853 187.849H134.165C134.247 187.345 134.546 187.079 135.036 187.079Z" fill="#284B64"/>
<path d="M140.844 191.164C140.225 190.32 139.891 189.067 139.891 187.862C139.891 186.541 140.279 185.337 140.844 184.567H140.184C139.435 185.418 139.054 186.671 139.054 187.862C139.054 189.169 139.503 190.388 140.184 191.164H140.844ZM141.842 186.351C141.284 187.107 141.087 187.542 141.087 188.141C141.087 189.162 141.89 189.952 142.966 189.952C144.028 189.952 144.817 189.21 144.817 188.148C144.817 187.141 144.123 186.419 143.095 186.419C142.972 186.419 142.843 186.439 142.72 186.473L143.912 184.887H142.918L141.842 186.351ZM141.978 188.148C141.978 187.549 142.373 187.134 142.966 187.134C143.537 187.134 143.939 187.549 143.939 188.148C143.939 188.754 143.531 189.176 142.966 189.176C142.38 189.176 141.978 188.754 141.978 188.148ZM145.349 188.454C145.349 189.36 146.091 189.945 147.241 189.945C148.399 189.945 149.141 189.353 149.141 188.454C149.141 187.855 148.8 187.372 148.276 187.188C148.719 187.004 148.964 186.63 148.964 186.147C148.964 185.337 148.276 184.799 147.255 184.799C146.227 184.799 145.526 185.343 145.526 186.133C145.526 186.616 145.764 186.991 146.2 187.188C145.683 187.386 145.349 187.862 145.349 188.454ZM146.316 186.208C146.316 185.799 146.676 185.541 147.241 185.541C147.8 185.541 148.154 185.799 148.154 186.215C148.154 186.63 147.8 186.889 147.241 186.889C146.676 186.889 146.316 186.623 146.316 186.208ZM146.2 188.393C146.2 187.91 146.602 187.61 147.241 187.61C147.881 187.61 148.283 187.91 148.283 188.393C148.283 188.876 147.881 189.176 147.248 189.176C146.602 189.176 146.2 188.876 146.2 188.393ZM152.256 186.099C152.256 185.337 151.711 184.792 150.956 184.792C150.2 184.792 149.656 185.337 149.656 186.099C149.656 186.868 150.2 187.406 150.956 187.406C151.711 187.406 152.256 186.868 152.256 186.099ZM154.986 184.894H154.155L150.377 189.864H151.208L154.986 184.894ZM151.596 186.099C151.596 186.494 151.337 186.766 150.956 186.766C150.581 186.766 150.323 186.494 150.323 186.099C150.323 185.704 150.575 185.432 150.956 185.432C151.337 185.432 151.596 185.704 151.596 186.099ZM155.714 188.645C155.714 187.883 155.176 187.338 154.421 187.338C153.658 187.338 153.121 187.883 153.121 188.645C153.121 189.407 153.658 189.952 154.421 189.952C155.176 189.952 155.714 189.407 155.714 188.645ZM155.054 188.645C155.054 189.04 154.795 189.312 154.421 189.312C154.04 189.312 153.781 189.04 153.781 188.645C153.781 188.25 154.04 187.978 154.421 187.978C154.795 187.978 155.054 188.25 155.054 188.645ZM156.613 191.164C157.293 190.388 157.749 189.169 157.749 187.862C157.749 186.671 157.361 185.418 156.613 184.567H155.952C156.517 185.337 156.905 186.541 156.905 187.862C156.905 189.067 156.579 190.32 155.952 191.164H156.613Z" fill="#BEC9D0"/>
<path d="M176.586 186.351C176.028 187.107 175.831 187.542 175.831 188.141C175.831 189.162 176.634 189.952 177.709 189.952C178.771 189.952 179.561 189.21 179.561 188.148C179.561 187.141 178.867 186.419 177.839 186.419C177.716 186.419 177.587 186.439 177.464 186.473L178.656 184.887H177.662L176.586 186.351ZM176.722 188.148C176.722 187.549 177.117 187.134 177.709 187.134C178.281 187.134 178.683 187.549 178.683 188.148C178.683 188.754 178.274 189.176 177.709 189.176C177.124 189.176 176.722 188.754 176.722 188.148ZM180.093 188.454C180.093 189.36 180.835 189.945 181.985 189.945C183.143 189.945 183.885 189.353 183.885 188.454C183.885 187.855 183.544 187.372 183.02 187.188C183.463 187.004 183.708 186.63 183.708 186.147C183.708 185.337 183.02 184.799 181.999 184.799C180.971 184.799 180.27 185.343 180.27 186.133C180.27 186.616 180.508 186.991 180.944 187.188C180.426 187.386 180.093 187.862 180.093 188.454ZM181.06 186.208C181.06 185.799 181.42 185.541 181.985 185.541C182.544 185.541 182.898 185.799 182.898 186.215C182.898 186.63 182.544 186.889 181.985 186.889C181.42 186.889 181.06 186.623 181.06 186.208ZM180.944 188.393C180.944 187.91 181.345 187.61 181.985 187.61C182.625 187.61 183.027 187.91 183.027 188.393C183.027 188.876 182.625 189.176 181.992 189.176C181.345 189.176 180.944 188.876 180.944 188.393Z" fill="#284B64"/>
<ellipse cx="103.414" cy="187.395" rx="1.70186" ry="1.70186" fill="#FFA150"/>
<path d="M111.038 164.747C112.032 164.747 112.686 164.073 112.686 163.114C112.686 162.14 112.039 161.487 111.038 161.487H109.071V166.463H109.942V164.747H111.038ZM110.868 162.263C111.447 162.263 111.773 162.562 111.773 163.107C111.773 163.651 111.454 163.971 110.854 163.971H109.942V162.263H110.868ZM114.164 166.551C114.688 166.551 115.144 166.313 115.287 165.966L115.348 166.463H116.077V164.421C116.077 163.488 115.519 162.998 114.613 162.998C113.701 162.998 113.102 163.474 113.102 164.203H113.81C113.81 163.849 114.082 163.645 114.572 163.645C114.994 163.645 115.267 163.828 115.267 164.285V164.359L114.259 164.434C113.463 164.496 113.013 164.884 113.013 165.503C113.013 166.136 113.449 166.551 114.164 166.551ZM114.436 165.925C114.062 165.925 113.858 165.775 113.858 165.469C113.858 165.197 114.055 165.027 114.572 164.979L115.273 164.924V165.101C115.273 165.619 114.947 165.925 114.436 165.925ZM119.003 163.086C118.867 163.052 118.751 163.039 118.635 163.039C118.186 163.039 117.866 163.263 117.723 163.597L117.676 163.107H116.893V166.463H117.723V164.829C117.723 164.176 118.098 163.856 118.697 163.856H119.003V163.086ZM120.842 166.463V163.794H121.495V163.1H120.842V162.052H120.011V163.1H119.364V163.794H120.011V166.463H120.842ZM123.533 162.29H124.99V166.463H125.861V162.29H127.318V161.487H123.533V162.29ZM128.277 162.426C128.549 162.426 128.774 162.201 128.774 161.922C128.774 161.643 128.549 161.425 128.277 161.425C127.991 161.425 127.766 161.643 127.766 161.922C127.766 162.201 127.991 162.426 128.277 162.426ZM127.862 166.463H128.692V163.1H127.862V166.463ZM130.381 166.463V164.557C130.381 164.012 130.701 163.754 131.096 163.754C131.49 163.754 131.742 164.005 131.742 164.475V166.463H132.573V164.557C132.573 164.005 132.879 163.747 133.281 163.747C133.676 163.747 133.934 163.999 133.934 164.482V166.463H134.758V164.264C134.758 163.488 134.309 162.998 133.492 162.998C132.981 162.998 132.586 163.25 132.416 163.638C132.239 163.25 131.885 162.998 131.375 162.998C130.891 162.998 130.551 163.216 130.381 163.495L130.313 163.1H129.55V166.463H130.381ZM137.078 166.551C137.956 166.551 138.569 166.109 138.711 165.374H137.942C137.847 165.694 137.547 165.871 137.091 165.871C136.54 165.871 136.227 165.571 136.165 164.979L138.698 164.972V164.72C138.698 163.672 138.058 162.998 137.05 162.998C136.063 162.998 135.376 163.726 135.376 164.781C135.376 165.823 136.077 166.551 137.078 166.551ZM137.057 163.679C137.554 163.679 137.874 163.985 137.874 164.448H136.186C136.268 163.944 136.567 163.679 137.057 163.679Z" fill="#284B64"/>
<path d="M142.865 167.763C142.246 166.919 141.912 165.666 141.912 164.461C141.912 163.141 142.3 161.936 142.865 161.167H142.205C141.456 162.018 141.075 163.27 141.075 164.461C141.075 165.769 141.524 166.987 142.205 167.763H142.865ZM144.223 162.27V166.463H145.06V161.487H143.134V162.27H144.223ZM148.835 164.999C149.393 164.244 149.59 163.808 149.59 163.209C149.59 162.188 148.787 161.398 147.712 161.398C146.65 161.398 145.86 162.14 145.86 163.202C145.86 164.21 146.554 164.931 147.582 164.931C147.705 164.931 147.834 164.911 147.957 164.877L146.765 166.463H147.759L148.835 164.999ZM148.699 163.202C148.699 163.801 148.304 164.216 147.712 164.216C147.14 164.216 146.738 163.801 146.738 163.202C146.738 162.596 147.14 162.174 147.712 162.174C148.297 162.174 148.699 162.596 148.699 163.202ZM152.668 162.698C152.668 161.936 152.124 161.391 151.368 161.391C150.612 161.391 150.068 161.936 150.068 162.698C150.068 163.468 150.612 164.005 151.368 164.005C152.124 164.005 152.668 163.468 152.668 162.698ZM155.398 161.493H154.567L150.789 166.463H151.62L155.398 161.493ZM152.008 162.698C152.008 163.093 151.749 163.366 151.368 163.366C150.994 163.366 150.735 163.093 150.735 162.698C150.735 162.304 150.987 162.031 151.368 162.031C151.749 162.031 152.008 162.304 152.008 162.698ZM156.126 165.244C156.126 164.482 155.589 163.937 154.833 163.937C154.07 163.937 153.533 164.482 153.533 165.244C153.533 166.007 154.07 166.551 154.833 166.551C155.589 166.551 156.126 166.007 156.126 165.244ZM155.466 165.244C155.466 165.639 155.207 165.911 154.833 165.911C154.452 165.911 154.193 165.639 154.193 165.244C154.193 164.85 154.452 164.577 154.833 164.577C155.207 164.577 155.466 164.85 155.466 165.244ZM157.025 167.763C157.706 166.987 158.162 165.769 158.162 164.461C158.162 163.27 157.774 162.018 157.025 161.167H156.364C156.929 161.936 157.318 163.141 157.318 164.461C157.318 165.666 156.991 166.919 156.364 167.763H157.025Z" fill="#BEC9D0"/>
<path d="M178.257 162.27V166.463H179.094V161.487H177.168V162.27H178.257ZM182.869 164.999C183.427 164.244 183.624 163.808 183.624 163.209C183.624 162.188 182.821 161.398 181.745 161.398C180.683 161.398 179.894 162.14 179.894 163.202C179.894 164.21 180.588 164.931 181.616 164.931C181.739 164.931 181.868 164.911 181.99 164.877L180.799 166.463H181.793L182.869 164.999ZM182.732 163.202C182.732 163.801 182.338 164.216 181.745 164.216C181.174 164.216 180.772 163.801 180.772 163.202C180.772 162.596 181.174 162.174 181.745 162.174C182.331 162.174 182.732 162.596 182.732 163.202Z" fill="#284B64"/>
<ellipse cx="103.414" cy="163.994" rx="1.70186" ry="1.70186" fill="#62D26F"/>
<line x1="101.712" y1="151.443" x2="184.678" y2="151.443" stroke="#D4DBE0" stroke-width="0.425466"/>
<line x1="101.712" y1="174.843" x2="184.678" y2="174.843" stroke="#D4DBE0" stroke-width="0.425466"/>
<g filter="url(#filter5_ddd_819_8843)">
<rect x="200.42" y="124.851" width="91.4751" height="77.0093" rx="6.38199" fill="white"/>
</g>
<rect x="205.738" y="142.082" width="80.8385" height="54.4596" rx="3.19099" stroke="#D4DBE0" stroke-width="0.425466"/>
<path d="M210.13 135.921V135.138H208.279V133.784H210.484V132.98H207.407V137.957H208.279V135.921H210.13ZM211.563 133.92C211.835 133.92 212.059 133.695 212.059 133.416C212.059 133.137 211.835 132.919 211.563 132.919C211.277 132.919 211.052 133.137 211.052 133.416C211.052 133.695 211.277 133.92 211.563 133.92ZM211.147 137.957H211.978V134.594H211.147V137.957ZM213.421 137.957L214.129 136.847L214.844 137.957H215.797L214.687 136.296L215.831 134.594H214.898L214.184 135.737L213.442 134.594H212.475L213.632 136.309L212.475 137.957H213.421ZM217.678 138.045C218.556 138.045 219.168 137.603 219.311 136.867H218.542C218.447 137.187 218.147 137.364 217.691 137.364C217.14 137.364 216.827 137.065 216.765 136.473L219.298 136.466V136.214C219.298 135.165 218.658 134.492 217.65 134.492C216.663 134.492 215.976 135.22 215.976 136.275C215.976 137.317 216.677 138.045 217.678 138.045ZM217.657 135.172C218.154 135.172 218.474 135.479 218.474 135.942H216.786C216.867 135.438 217.167 135.172 217.657 135.172ZM221.344 138.045C221.855 138.045 222.291 137.82 222.495 137.432L222.549 137.957H223.312V132.892H222.488V135.023C222.277 134.689 221.862 134.492 221.392 134.492C220.378 134.492 219.765 135.24 219.765 136.289C219.765 137.33 220.371 138.045 221.344 138.045ZM221.528 137.283C220.949 137.283 220.595 136.861 220.595 136.261C220.595 135.662 220.949 135.234 221.528 135.234C222.107 135.234 222.481 135.656 222.481 136.261C222.481 136.867 222.107 137.283 221.528 137.283ZM226.965 137.957H227.782L229.184 134.594H228.327L227.714 136.139C227.571 136.507 227.448 136.861 227.401 137.072C227.36 136.888 227.244 136.541 227.101 136.139L226.516 134.594H225.631L226.965 137.957ZM229.33 136.935C229.33 137.596 229.861 138.045 230.698 138.045C231.529 138.045 232.107 137.623 232.107 136.942C232.107 136.425 231.821 136.166 231.256 136.037L230.651 135.894C230.365 135.826 230.215 135.703 230.215 135.513C230.215 135.261 230.405 135.111 230.732 135.111C231.052 135.111 231.243 135.295 231.25 135.581H232.039C232.032 134.927 231.522 134.492 230.766 134.492C229.99 134.492 229.432 134.886 229.432 135.547C229.432 136.084 229.725 136.37 230.331 136.507L230.936 136.65C231.236 136.718 231.324 136.84 231.324 137.01C231.324 137.255 231.113 137.412 230.725 137.412C230.344 137.412 230.126 137.228 230.12 136.935H229.33ZM233.278 138.038C233.577 138.038 233.829 137.793 233.829 137.5C233.829 137.201 233.577 136.956 233.278 136.956C232.978 136.956 232.727 137.201 232.727 137.5C232.727 137.793 232.978 138.038 233.278 138.038ZM237.529 132.98H236.658V137.957H237.529V132.98ZM239.341 137.957V136.146C239.341 135.601 239.654 135.247 240.164 135.247C240.593 135.247 240.872 135.519 240.872 136.084V137.957H241.703V135.887C241.703 135.016 241.267 134.492 240.423 134.492C239.967 134.492 239.558 134.689 239.347 135.029L239.279 134.594H238.51V137.957H239.341ZM243.901 138.045C244.411 138.045 244.847 137.82 245.051 137.432L245.106 137.957H245.868V132.892H245.044V135.023C244.833 134.689 244.418 134.492 243.948 134.492C242.934 134.492 242.321 135.24 242.321 136.289C242.321 137.33 242.927 138.045 243.901 138.045ZM244.084 137.283C243.506 137.283 243.152 136.861 243.152 136.261C243.152 135.662 243.506 135.234 244.084 135.234C244.663 135.234 245.037 135.656 245.037 136.261C245.037 136.867 244.663 137.283 244.084 137.283ZM248.238 138.045C249.116 138.045 249.729 137.603 249.872 136.867H249.102C249.007 137.187 248.708 137.364 248.252 137.364C247.7 137.364 247.387 137.065 247.326 136.473L249.858 136.466V136.214C249.858 135.165 249.218 134.492 248.211 134.492C247.224 134.492 246.536 135.22 246.536 136.275C246.536 137.317 247.237 138.045 248.238 138.045ZM248.218 135.172C248.714 135.172 249.034 135.479 249.034 135.942H247.346C247.428 135.438 247.727 135.172 248.218 135.172ZM252.871 137.957H253.702V134.594H251.496V134.185C251.496 133.852 251.592 133.634 251.966 133.634H252.259V132.926C252.116 132.899 251.959 132.892 251.83 132.892C251.149 132.892 250.673 133.273 250.673 134.185V134.594H250.189V135.288H250.673V137.957H251.496V135.288H252.871V137.957ZM253.287 133.906C253.559 133.906 253.777 133.688 253.777 133.409C253.777 133.137 253.559 132.919 253.287 132.919C253.008 132.919 252.79 133.137 252.79 133.409C252.79 133.688 253.008 133.906 253.287 133.906ZM255.389 137.957V136.146C255.389 135.601 255.702 135.247 256.212 135.247C256.641 135.247 256.92 135.519 256.92 136.084V137.957H257.751V135.887C257.751 135.016 257.315 134.492 256.471 134.492C256.015 134.492 255.606 134.689 255.395 135.029L255.327 134.594H254.558V137.957H255.389ZM258.982 133.92C259.254 133.92 259.479 133.695 259.479 133.416C259.479 133.137 259.254 132.919 258.982 132.919C258.696 132.919 258.471 133.137 258.471 133.416C258.471 133.695 258.696 133.92 258.982 133.92ZM258.567 137.957H259.397V134.594H258.567V137.957ZM261.399 137.957V135.288H262.052V134.594H261.399V133.545H260.568V134.594H259.922V135.288H260.568V137.957H261.399ZM264.04 138.045C264.918 138.045 265.531 137.603 265.674 136.867H264.905C264.809 137.187 264.51 137.364 264.054 137.364C263.502 137.364 263.189 137.065 263.128 136.473L265.66 136.466V136.214C265.66 135.165 265.02 134.492 264.013 134.492C263.026 134.492 262.338 135.22 262.338 136.275C262.338 137.317 263.039 138.045 264.04 138.045ZM264.02 135.172C264.517 135.172 264.836 135.479 264.836 135.942H263.148C263.23 135.438 263.529 135.172 264.02 135.172Z" fill="#043344"/>
<path d="M223.565 174.325V178.376H224.62V173.338H222.421V174.325H223.565ZM226.403 174.325V178.376H227.459V173.338H225.26V174.325H226.403Z" fill="#043344"/>
<path d="M216.3 188.727V191.969H216.78V188.278H215.524V188.727H216.3ZM219.931 191.964V191.499H218.226L218.992 190.836C219.646 190.269 219.906 189.896 219.906 189.37C219.906 188.661 219.431 188.211 218.691 188.211C217.94 188.211 217.44 188.727 217.425 189.518H217.925C217.935 188.992 218.231 188.661 218.686 188.661C219.13 188.661 219.395 188.936 219.395 189.401C219.395 189.794 219.227 190.044 218.63 190.56L217.44 191.586V191.969L219.931 191.964ZM222.22 189.151C222.22 188.599 221.832 188.206 221.285 188.206C220.744 188.206 220.356 188.599 220.356 189.151C220.356 189.697 220.744 190.09 221.285 190.09C221.832 190.09 222.22 189.697 222.22 189.151ZM224.165 188.283H223.675L220.872 191.969H221.362L224.165 188.283ZM221.827 189.151C221.827 189.477 221.602 189.707 221.285 189.707C220.969 189.707 220.749 189.477 220.749 189.151C220.749 188.819 220.969 188.589 221.285 188.589C221.607 188.589 221.827 188.819 221.827 189.151ZM224.691 191.096C224.691 190.545 224.298 190.157 223.757 190.157C223.215 190.157 222.822 190.545 222.822 191.096C222.822 191.642 223.215 192.035 223.757 192.035C224.298 192.035 224.691 191.642 224.691 191.096ZM224.293 191.096C224.293 191.423 224.073 191.652 223.757 191.652C223.44 191.652 223.22 191.423 223.22 191.096C223.22 190.764 223.44 190.534 223.757 190.534C224.078 190.534 224.293 190.764 224.293 191.096ZM228.674 190.402V189.947H227.224V188.737H228.949V188.278H226.723V191.969H227.224V190.402H228.674ZM229.708 188.88C229.882 188.88 230.025 188.737 230.025 188.564C230.025 188.385 229.882 188.247 229.708 188.247C229.535 188.247 229.392 188.385 229.392 188.564C229.392 188.737 229.535 188.88 229.708 188.88ZM229.474 191.969H229.954V189.472H229.474V191.969ZM230.906 191.969L231.518 191.055L232.141 191.969H232.698L231.845 190.733L232.713 189.472H232.167L231.549 190.402L230.916 189.472H230.359L231.227 190.733L230.354 191.969H230.906ZM234.096 192.03C234.714 192.03 235.132 191.729 235.255 191.193H234.806C234.724 191.479 234.479 191.632 234.106 191.632C233.631 191.632 233.356 191.341 233.32 190.815L235.25 190.81V190.631C235.25 189.891 234.785 189.401 234.075 189.401C233.35 189.401 232.855 189.942 232.855 190.723C232.855 191.499 233.361 192.03 234.096 192.03ZM234.075 189.804C234.499 189.804 234.77 190.08 234.77 190.493H233.33C233.391 190.054 233.657 189.804 234.075 189.804ZM236.787 192.03C237.185 192.03 237.522 191.857 237.685 191.515L237.726 191.969H238.155V188.211H237.68V189.876C237.512 189.569 237.19 189.401 236.807 189.401C236.067 189.401 235.622 189.962 235.622 190.728C235.622 191.489 236.062 192.03 236.787 192.03ZM236.884 191.596C236.393 191.596 236.107 191.229 236.107 190.713C236.107 190.202 236.393 189.835 236.884 189.835C237.374 189.835 237.675 190.202 237.675 190.713C237.675 191.234 237.374 191.596 236.884 191.596Z" fill="#BEC9D0"/>
<path fill-rule="evenodd" clip-rule="evenodd" d="M230.618 148.393C230.342 148.67 230.342 149.119 230.618 149.396L232.098 150.875C232.374 151.152 232.823 151.152 233.1 150.875C233.377 150.598 233.377 150.149 233.1 149.873L231.621 148.393C231.344 148.117 230.895 148.117 230.618 148.393ZM226.009 162.576C222.093 162.576 218.918 159.401 218.918 155.485C218.918 151.568 222.093 148.393 226.009 148.393C229.926 148.393 233.1 151.568 233.1 155.485C233.1 159.401 229.926 162.576 226.009 162.576ZM226.009 161.157C229.142 161.157 231.682 158.618 231.682 155.485C231.682 152.351 229.142 149.812 226.009 149.812C222.876 149.812 220.337 152.351 220.337 155.485C220.337 158.618 222.876 161.157 226.009 161.157ZM220.397 148.393C220.674 148.117 221.123 148.117 221.4 148.393C221.677 148.67 221.677 149.119 221.4 149.396L219.921 150.875C219.644 151.152 219.195 151.152 218.918 150.875C218.641 150.598 218.641 150.149 218.918 149.873L220.397 148.393ZM221.755 155.485C221.755 153.13 223.66 151.23 226.009 151.23V155.485H221.755Z" fill="#FFA150"/>
<path d="M261.257 173.338V174.359H263.885L262.115 178.376H263.259L264.994 174.359V173.338H261.257ZM265.934 174.693C265.322 175.53 265.097 175.986 265.097 176.606C265.097 177.661 265.921 178.464 267.051 178.464C268.167 178.464 268.977 177.716 268.977 176.613C268.977 175.578 268.269 174.863 267.235 174.863C267.166 174.863 267.098 174.87 267.03 174.884L268.181 173.338H266.921L265.934 174.693ZM266.227 176.62C266.227 176.102 266.554 175.755 267.051 175.755C267.534 175.755 267.861 176.102 267.861 176.62C267.861 177.137 267.527 177.491 267.051 177.491C266.561 177.491 266.227 177.137 266.227 176.62Z" fill="#043344"/>
<path d="M250.167 190.943C250.167 191.596 250.703 192.03 251.525 192.03C252.342 192.03 252.883 191.596 252.883 190.948C252.883 190.493 252.618 190.126 252.204 189.993C252.551 189.855 252.745 189.564 252.745 189.186C252.745 188.604 252.255 188.211 251.53 188.211C250.795 188.211 250.3 188.604 250.3 189.181C250.3 189.554 250.489 189.845 250.836 189.993C250.427 190.141 250.167 190.499 250.167 190.943ZM250.759 189.212C250.759 188.87 251.06 188.645 251.52 188.645C251.984 188.645 252.276 188.87 252.276 189.222C252.276 189.58 251.984 189.809 251.52 189.809C251.06 189.809 250.759 189.574 250.759 189.212ZM250.657 190.907C250.657 190.499 250.994 190.238 251.52 190.238C252.051 190.238 252.388 190.499 252.388 190.907C252.388 191.321 252.046 191.586 251.525 191.586C250.999 191.586 250.657 191.321 250.657 190.907ZM253.983 188.727V191.969H254.463V188.278H253.207V188.727H253.983ZM256.966 189.151C256.966 188.599 256.578 188.206 256.032 188.206C255.49 188.206 255.102 188.599 255.102 189.151C255.102 189.697 255.49 190.09 256.032 190.09C256.578 190.09 256.966 189.697 256.966 189.151ZM258.911 188.283H258.421L255.618 191.969H256.108L258.911 188.283ZM256.573 189.151C256.573 189.477 256.348 189.707 256.032 189.707C255.715 189.707 255.496 189.477 255.496 189.151C255.496 188.819 255.715 188.589 256.032 188.589C256.353 188.589 256.573 188.819 256.573 189.151ZM259.437 191.096C259.437 190.545 259.044 190.157 258.503 190.157C257.962 190.157 257.568 190.545 257.568 191.096C257.568 191.642 257.962 192.035 258.503 192.035C259.044 192.035 259.437 191.642 259.437 191.096ZM259.039 191.096C259.039 191.423 258.819 191.652 258.503 191.652C258.186 191.652 257.967 191.423 257.967 191.096C257.967 190.764 258.186 190.534 258.503 190.534C258.824 190.534 259.039 190.764 259.039 191.096ZM261.97 188.278H261.469V191.969H261.97V188.278ZM263.229 191.969V190.647C263.229 190.162 263.489 189.84 263.939 189.84C264.306 189.84 264.541 190.044 264.541 190.55V191.969H265.021V190.442C265.021 189.804 264.72 189.401 264.061 189.401C263.709 189.401 263.392 189.569 263.234 189.855L263.183 189.472H262.749V191.969H263.229ZM266.686 192.03C267.085 192.03 267.422 191.857 267.585 191.515L267.626 191.969H268.055V188.211H267.58V189.876C267.411 189.569 267.09 189.401 266.707 189.401C265.966 189.401 265.522 189.962 265.522 190.728C265.522 191.489 265.961 192.03 266.686 192.03ZM266.783 191.596C266.293 191.596 266.007 191.229 266.007 190.713C266.007 190.202 266.293 189.835 266.783 189.835C267.273 189.835 267.575 190.202 267.575 190.713C267.575 191.234 267.273 191.596 266.783 191.596ZM269.824 192.03C270.442 192.03 270.861 191.729 270.983 191.193H270.534C270.452 191.479 270.207 191.632 269.834 191.632C269.36 191.632 269.084 191.341 269.048 190.815L270.978 190.81V190.631C270.978 189.891 270.514 189.401 269.804 189.401C269.079 189.401 268.584 189.942 268.584 190.723C268.584 191.499 269.089 192.03 269.824 192.03ZM269.804 189.804C270.228 189.804 270.498 190.08 270.498 190.493H269.058C269.12 190.054 269.385 189.804 269.804 189.804ZM273.204 191.969H273.684V189.472H272.096V189.074C272.096 188.804 272.173 188.645 272.464 188.645H272.678V188.232C272.586 188.216 272.474 188.211 272.382 188.211C271.948 188.211 271.616 188.461 271.616 189.074V189.472H271.249V189.876H271.616V191.969H272.096V189.876H273.204V191.969ZM273.444 188.86C273.613 188.86 273.745 188.727 273.745 188.553C273.745 188.38 273.613 188.247 273.444 188.247C273.27 188.247 273.138 188.38 273.138 188.553C273.138 188.727 273.27 188.86 273.444 188.86ZM274.846 191.969V190.647C274.846 190.162 275.106 189.84 275.556 189.84C275.923 189.84 276.158 190.044 276.158 190.55V191.969H276.638V190.442C276.638 189.804 276.337 189.401 275.678 189.401C275.326 189.401 275.009 189.569 274.851 189.855L274.8 189.472H274.366V191.969H274.846ZM277.538 188.88C277.711 188.88 277.854 188.737 277.854 188.564C277.854 188.385 277.711 188.247 277.538 188.247C277.364 188.247 277.221 188.385 277.221 188.564C277.221 188.737 277.364 188.88 277.538 188.88ZM277.303 191.969H277.783V189.472H277.303V191.969ZM279.184 191.969V189.876H279.674V189.472H279.184V188.691H278.704V189.472H278.214V189.876H278.704V191.969H279.184ZM281.157 192.03C281.775 192.03 282.194 191.729 282.316 191.193H281.867C281.785 191.479 281.54 191.632 281.167 191.632C280.693 191.632 280.417 191.341 280.381 190.815L282.311 190.81V190.631C282.311 189.891 281.847 189.401 281.137 189.401C280.412 189.401 279.917 189.942 279.917 190.723C279.917 191.499 280.422 192.03 281.157 192.03ZM281.137 189.804C281.561 189.804 281.831 190.08 281.831 190.493H280.391C280.453 190.054 280.718 189.804 281.137 189.804Z" fill="#BEC9D0"/>
<path fill-rule="evenodd" clip-rule="evenodd" d="M267.353 153.708C267.09 153.219 266.834 152.813 266.568 152.48C266.658 152.387 266.735 152.31 266.781 152.266C267.546 151.537 268.3 151.23 269.555 151.23C271.835 151.23 273.81 153.072 273.81 155.485C273.81 157.897 271.835 159.739 269.555 159.739C267.532 159.739 266.673 158.687 265.363 155.776C264.28 153.369 263.691 152.648 262.464 152.648C260.868 152.648 259.627 153.973 259.627 155.485C259.627 157.003 260.858 158.321 262.464 158.321C263.204 158.321 264.088 158.027 264.86 157.61C265.135 158.082 265.406 158.465 265.695 158.769C264.701 159.336 263.535 159.739 262.464 159.739C260.052 159.739 258.209 157.765 258.209 155.485C258.209 153.21 260.063 151.23 262.464 151.23C264.487 151.23 265.346 152.282 266.656 155.194C267.739 157.6 268.328 158.321 269.555 158.321C271.073 158.321 272.391 157.091 272.391 155.485C272.391 153.878 271.073 152.648 269.555 152.648C268.668 152.648 268.263 152.813 267.759 153.293C267.693 153.356 267.527 153.528 267.353 153.708V153.708Z" fill="#4EB1F9"/>
<mask id="mask0_819_8843" style="mask-type:luminance" maskUnits="userSpaceOnUse" x="258" y="151" width="16" height="9">
<path fill-rule="evenodd" clip-rule="evenodd" d="M267.353 153.708C267.09 153.219 266.834 152.813 266.568 152.48C266.658 152.387 266.735 152.31 266.781 152.266C267.546 151.537 268.3 151.23 269.555 151.23C271.835 151.23 273.81 153.072 273.81 155.485C273.81 157.897 271.835 159.739 269.555 159.739C267.532 159.739 266.673 158.687 265.363 155.776C264.28 153.369 263.691 152.648 262.464 152.648C260.868 152.648 259.627 153.973 259.627 155.485C259.627 157.003 260.858 158.321 262.464 158.321C263.204 158.321 264.088 158.027 264.86 157.61C265.135 158.082 265.406 158.465 265.695 158.769C264.701 159.336 263.535 159.739 262.464 159.739C260.052 159.739 258.209 157.765 258.209 155.485C258.209 153.21 260.063 151.23 262.464 151.23C264.487 151.23 265.346 152.282 266.656 155.194C267.739 157.6 268.328 158.321 269.555 158.321C271.073 158.321 272.391 157.091 272.391 155.485C272.391 153.878 271.073 152.648 269.555 152.648C268.668 152.648 268.263 152.813 267.759 153.293C267.693 153.356 267.527 153.528 267.353 153.708V153.708Z" fill="white"/>
</mask>
<g mask="url(#mask0_819_8843)">
</g>
<line x1="245.731" y1="196.753" x2="246.156" y2="141.868" stroke="#D4DBE0" stroke-width="0.425466"/>
<path d="M251.262 169.312C251.262 172.132 248.976 174.418 246.156 174.418C243.336 174.418 241.051 172.132 241.051 169.312C241.051 166.492 243.336 164.207 246.156 164.207C248.976 164.207 251.262 166.492 251.262 169.312Z" fill="white" stroke="#D4DBE0" stroke-width="0.425466"/>
<path d="M245.14 171.121H245.701L246.858 168.011H246.293L245.62 169.802C245.561 169.96 245.497 170.151 245.42 170.423C245.352 170.172 245.293 169.989 245.225 169.802L244.544 168.011H243.965L245.14 171.121ZM247.039 168.879C247.039 169.356 247.315 169.658 247.843 169.772L248.336 169.883C248.592 169.938 248.698 170.062 248.698 170.27C248.698 170.53 248.468 170.687 248.107 170.687C247.758 170.687 247.545 170.53 247.541 170.266H246.996C247.009 170.823 247.443 171.177 248.107 171.177C248.792 171.177 249.243 170.802 249.243 170.223C249.243 169.76 248.983 169.487 248.451 169.373L247.962 169.266C247.702 169.207 247.583 169.083 247.583 168.862C247.583 168.602 247.8 168.441 248.136 168.441C248.443 168.441 248.634 168.598 248.647 168.866H249.192C249.175 168.305 248.775 167.956 248.145 167.956C247.49 167.956 247.039 168.334 247.039 168.879Z" fill="#043344"/>
<defs>
<filter id="filter0_ddd_819_8843" x="0.0248537" y="0.189494" width="319.95" height="234.432" filterUnits="userSpaceOnUse" color-interpolation-filters="sRGB">
<feFlood flood-opacity="0" result="BackgroundImageFix"/>
<feColorMatrix in="SourceAlpha" type="matrix" values="0 0 0 0 0 0 0 0 0 0 0 0 0 0 0 0 0 0 127 0" result="hardAlpha"/>
<feMorphology radius="2.97826" operator="erode" in="SourceAlpha" result="effect1_dropShadow_819_8843"/>
<feOffset dy="4.68012"/>
<feGaussianBlur stdDeviation="3.19099"/>
<feColorMatrix type="matrix" values="0 0 0 0 0.364706 0 0 0 0 0.447059 0 0 0 0 0.54902 0 0 0 0.16 0"/>
<feBlend mode="normal" in2="BackgroundImageFix" result="effect1_dropShadow_819_8843"/>
<feColorMatrix in="SourceAlpha" type="matrix" values="0 0 0 0 0 0 0 0 0 0 0 0 0 0 0 0 0 0 127 0" result="hardAlpha"/>
<feMorphology radius="3.40373" operator="dilate" in="SourceAlpha" result="effect2_dropShadow_819_8843"/>
<feOffset dy="3.82919"/>
<feGaussianBlur stdDeviation="9.78571"/>
<feColorMatrix type="matrix" values="0 0 0 0 0.364706 0 0 0 0 0.447059 0 0 0 0 0.54902 0 0 0 0.08 0"/>
<feBlend mode="normal" in2="effect1_dropShadow_819_8843" result="effect2_dropShadow_819_8843"/>
<feColorMatrix in="SourceAlpha" type="matrix" values="0 0 0 0 0 0 0 0 0 0 0 0 0 0 0 0 0 0 127 0" result="hardAlpha"/>
<feMorphology radius="1.2764" operator="dilate" in="SourceAlpha" result="effect3_dropShadow_819_8843"/>
<feOffset dy="10.2112"/>
<feGaussianBlur stdDeviation="8.08385"/>
<feColorMatrix type="matrix" values="0 0 0 0 0.364706 0 0 0 0 0.447059 0 0 0 0 0.54902 0 0 0 0.1 0"/>
<feBlend mode="normal" in2="effect2_dropShadow_819_8843" result="effect3_dropShadow_819_8843"/>
<feBlend mode="normal" in="SourceGraphic" in2="effect3_dropShadow_819_8843" result="shape"/>
</filter>
<filter id="filter1_ddd_819_8843" x="5.13032" y="5.29508" width="137.425" height="141.68" filterUnits="userSpaceOnUse" color-interpolation-filters="sRGB">
<feFlood flood-opacity="0" result="BackgroundImageFix"/>
<feColorMatrix in="SourceAlpha" type="matrix" values="0 0 0 0 0 0 0 0 0 0 0 0 0 0 0 0 0 0 127 0" result="hardAlpha"/>
<feMorphology radius="2.97826" operator="erode" in="SourceAlpha" result="effect1_dropShadow_819_8843"/>
<feOffset dy="4.68012"/>
<feGaussianBlur stdDeviation="3.19099"/>
<feColorMatrix type="matrix" values="0 0 0 0 0.364706 0 0 0 0 0.447059 0 0 0 0 0.54902 0 0 0 0.16 0"/>
<feBlend mode="normal" in2="BackgroundImageFix" result="effect1_dropShadow_819_8843"/>
<feColorMatrix in="SourceAlpha" type="matrix" values="0 0 0 0 0 0 0 0 0 0 0 0 0 0 0 0 0 0 127 0" result="hardAlpha"/>
<feMorphology radius="3.40373" operator="dilate" in="SourceAlpha" result="effect2_dropShadow_819_8843"/>
<feOffset dy="3.82919"/>
<feGaussianBlur stdDeviation="9.78571"/>
<feColorMatrix type="matrix" values="0 0 0 0 0.364706 0 0 0 0 0.447059 0 0 0 0 0.54902 0 0 0 0.08 0"/>
<feBlend mode="normal" in2="effect1_dropShadow_819_8843" result="effect2_dropShadow_819_8843"/>
<feColorMatrix in="SourceAlpha" type="matrix" values="0 0 0 0 0 0 0 0 0 0 0 0 0 0 0 0 0 0 127 0" result="hardAlpha"/>
<feMorphology radius="1.2764" operator="dilate" in="SourceAlpha" result="effect3_dropShadow_819_8843"/>
<feOffset dy="10.2112"/>
<feGaussianBlur stdDeviation="8.08385"/>
<feColorMatrix type="matrix" values="0 0 0 0 0.364706 0 0 0 0 0.447059 0 0 0 0 0.54902 0 0 0 0.1 0"/>
<feBlend mode="normal" in2="effect2_dropShadow_819_8843" result="effect3_dropShadow_819_8843"/>
<feBlend mode="normal" in="SourceGraphic" in2="effect3_dropShadow_819_8843" result="shape"/>
</filter>
<filter id="filter2_ddd_819_8843" x="18.3196" y="35.5032" width="111.047" height="96.5807" filterUnits="userSpaceOnUse" color-interpolation-filters="sRGB">
<feFlood flood-opacity="0" result="BackgroundImageFix"/>
<feColorMatrix in="SourceAlpha" type="matrix" values="0 0 0 0 0 0 0 0 0 0 0 0 0 0 0 0 0 0 127 0" result="hardAlpha"/>
<feMorphology radius="2.12733" operator="erode" in="SourceAlpha" result="effect1_dropShadow_819_8843"/>
<feOffset dy="3.40373"/>
<feGaussianBlur stdDeviation="2.12733"/>
<feColorMatrix type="matrix" values="0 0 0 0 0.364706 0 0 0 0 0.447059 0 0 0 0 0.54902 0 0 0 0.16 0"/>
<feBlend mode="normal" in2="BackgroundImageFix" result="effect1_dropShadow_819_8843"/>
<feColorMatrix in="SourceAlpha" type="matrix" values="0 0 0 0 0 0 0 0 0 0 0 0 0 0 0 0 0 0 127 0" result="hardAlpha"/>
<feMorphology radius="2.12733" operator="dilate" in="SourceAlpha" result="effect2_dropShadow_819_8843"/>
<feOffset dy="2.55279"/>
<feGaussianBlur stdDeviation="6.38199"/>
<feColorMatrix type="matrix" values="0 0 0 0 0.364706 0 0 0 0 0.447059 0 0 0 0 0.54902 0 0 0 0.08 0"/>
<feBlend mode="normal" in2="effect1_dropShadow_819_8843" result="effect2_dropShadow_819_8843"/>
<feColorMatrix in="SourceAlpha" type="matrix" values="0 0 0 0 0 0 0 0 0 0 0 0 0 0 0 0 0 0 127 0" result="hardAlpha"/>
<feMorphology radius="0.850931" operator="dilate" in="SourceAlpha" result="effect3_dropShadow_819_8843"/>
<feOffset dy="6.80745"/>
<feGaussianBlur stdDeviation="5.10559"/>
<feColorMatrix type="matrix" values="0 0 0 0 0.364706 0 0 0 0 0.447059 0 0 0 0 0.54902 0 0 0 0.1 0"/>
<feBlend mode="normal" in2="effect2_dropShadow_819_8843" result="effect3_dropShadow_819_8843"/>
<feBlend mode="normal" in="SourceGraphic" in2="effect3_dropShadow_819_8843" result="shape"/>
</filter>
<filter id="filter3_ddd_819_8843" x="101.711" y="5.29508" width="213.158" height="142.106" filterUnits="userSpaceOnUse" color-interpolation-filters="sRGB">
<feFlood flood-opacity="0" result="BackgroundImageFix"/>
<feColorMatrix in="SourceAlpha" type="matrix" values="0 0 0 0 0 0 0 0 0 0 0 0 0 0 0 0 0 0 127 0" result="hardAlpha"/>
<feMorphology radius="2.97826" operator="erode" in="SourceAlpha" result="effect1_dropShadow_819_8843"/>
<feOffset dy="4.68012"/>
<feGaussianBlur stdDeviation="3.19099"/>
<feColorMatrix type="matrix" values="0 0 0 0 0.364706 0 0 0 0 0.447059 0 0 0 0 0.54902 0 0 0 0.16 0"/>
<feBlend mode="normal" in2="BackgroundImageFix" result="effect1_dropShadow_819_8843"/>
<feColorMatrix in="SourceAlpha" type="matrix" values="0 0 0 0 0 0 0 0 0 0 0 0 0 0 0 0 0 0 127 0" result="hardAlpha"/>
<feMorphology radius="3.40373" operator="dilate" in="SourceAlpha" result="effect2_dropShadow_819_8843"/>
<feOffset dy="3.82919"/>
<feGaussianBlur stdDeviation="9.78571"/>
<feColorMatrix type="matrix" values="0 0 0 0 0.364706 0 0 0 0 0.447059 0 0 0 0 0.54902 0 0 0 0.08 0"/>
<feBlend mode="normal" in2="effect1_dropShadow_819_8843" result="effect2_dropShadow_819_8843"/>
<feColorMatrix in="SourceAlpha" type="matrix" values="0 0 0 0 0 0 0 0 0 0 0 0 0 0 0 0 0 0 127 0" result="hardAlpha"/>
<feMorphology radius="1.2764" operator="dilate" in="SourceAlpha" result="effect3_dropShadow_819_8843"/>
<feOffset dy="10.2112"/>
<feGaussianBlur stdDeviation="8.08385"/>
<feColorMatrix type="matrix" values="0 0 0 0 0.364706 0 0 0 0 0.447059 0 0 0 0 0.54902 0 0 0 0.1 0"/>
<feBlend mode="normal" in2="effect2_dropShadow_819_8843" result="effect3_dropShadow_819_8843"/>
<feBlend mode="normal" in="SourceGraphic" in2="effect3_dropShadow_819_8843" result="shape"/>
</filter>
<filter id="filter4_ddd_819_8843" x="5.13032" y="105.705" width="213.158" height="123.811" filterUnits="userSpaceOnUse" color-interpolation-filters="sRGB">
<feFlood flood-opacity="0" result="BackgroundImageFix"/>
<feColorMatrix in="SourceAlpha" type="matrix" values="0 0 0 0 0 0 0 0 0 0 0 0 0 0 0 0 0 0 127 0" result="hardAlpha"/>
<feMorphology radius="2.97826" operator="erode" in="SourceAlpha" result="effect1_dropShadow_819_8843"/>
<feOffset dy="4.68012"/>
<feGaussianBlur stdDeviation="3.19099"/>
<feColorMatrix type="matrix" values="0 0 0 0 0.364706 0 0 0 0 0.447059 0 0 0 0 0.54902 0 0 0 0.16 0"/>
<feBlend mode="normal" in2="BackgroundImageFix" result="effect1_dropShadow_819_8843"/>
<feColorMatrix in="SourceAlpha" type="matrix" values="0 0 0 0 0 0 0 0 0 0 0 0 0 0 0 0 0 0 127 0" result="hardAlpha"/>
<feMorphology radius="3.40373" operator="dilate" in="SourceAlpha" result="effect2_dropShadow_819_8843"/>
<feOffset dy="3.82919"/>
<feGaussianBlur stdDeviation="9.78571"/>
<feColorMatrix type="matrix" values="0 0 0 0 0.364706 0 0 0 0 0.447059 0 0 0 0 0.54902 0 0 0 0.08 0"/>
<feBlend mode="normal" in2="effect1_dropShadow_819_8843" result="effect2_dropShadow_819_8843"/>
<feColorMatrix in="SourceAlpha" type="matrix" values="0 0 0 0 0 0 0 0 0 0 0 0 0 0 0 0 0 0 127 0" result="hardAlpha"/>
<feMorphology radius="1.2764" operator="dilate" in="SourceAlpha" result="effect3_dropShadow_819_8843"/>
<feOffset dy="10.2112"/>
<feGaussianBlur stdDeviation="8.08385"/>
<feColorMatrix type="matrix" values="0 0 0 0 0.364706 0 0 0 0 0.447059 0 0 0 0 0.54902 0 0 0 0.1 0"/>
<feBlend mode="normal" in2="effect2_dropShadow_819_8843" result="effect3_dropShadow_819_8843"/>
<feBlend mode="normal" in="SourceGraphic" in2="effect3_dropShadow_819_8843" result="shape"/>
</filter>
<filter id="filter5_ddd_819_8843" x="177.445" y="105.705" width="137.425" height="123.811" filterUnits="userSpaceOnUse" color-interpolation-filters="sRGB">
<feFlood flood-opacity="0" result="BackgroundImageFix"/>
<feColorMatrix in="SourceAlpha" type="matrix" values="0 0 0 0 0 0 0 0 0 0 0 0 0 0 0 0 0 0 127 0" result="hardAlpha"/>
<feMorphology radius="2.97826" operator="erode" in="SourceAlpha" result="effect1_dropShadow_819_8843"/>
<feOffset dy="4.68012"/>
<feGaussianBlur stdDeviation="3.19099"/>
<feColorMatrix type="matrix" values="0 0 0 0 0.364706 0 0 0 0 0.447059 0 0 0 0 0.54902 0 0 0 0.16 0"/>
<feBlend mode="normal" in2="BackgroundImageFix" result="effect1_dropShadow_819_8843"/>
<feColorMatrix in="SourceAlpha" type="matrix" values="0 0 0 0 0 0 0 0 0 0 0 0 0 0 0 0 0 0 127 0" result="hardAlpha"/>
<feMorphology radius="3.40373" operator="dilate" in="SourceAlpha" result="effect2_dropShadow_819_8843"/>
<feOffset dy="3.82919"/>
<feGaussianBlur stdDeviation="9.78571"/>
<feColorMatrix type="matrix" values="0 0 0 0 0.364706 0 0 0 0 0.447059 0 0 0 0 0.54902 0 0 0 0.08 0"/>
<feBlend mode="normal" in2="effect1_dropShadow_819_8843" result="effect2_dropShadow_819_8843"/>
<feColorMatrix in="SourceAlpha" type="matrix" values="0 0 0 0 0 0 0 0 0 0 0 0 0 0 0 0 0 0 127 0" result="hardAlpha"/>
<feMorphology radius="1.2764" operator="dilate" in="SourceAlpha" result="effect3_dropShadow_819_8843"/>
<feOffset dy="10.2112"/>
<feGaussianBlur stdDeviation="8.08385"/>
<feColorMatrix type="matrix" values="0 0 0 0 0.364706 0 0 0 0 0.447059 0 0 0 0 0.54902 0 0 0 0.1 0"/>
<feBlend mode="normal" in2="effect2_dropShadow_819_8843" result="effect3_dropShadow_819_8843"/>
<feBlend mode="normal" in="SourceGraphic" in2="effect3_dropShadow_819_8843" result="shape"/>
</filter>
<linearGradient id="paint0_linear_819_8843" x1="73.6303" y1="95.2219" x2="73.6303" y2="77.5484" gradientUnits="userSpaceOnUse">
<stop stop-color="#18938A"/>
<stop offset="1" stop-color="#18938A" stop-opacity="0"/>
</linearGradient>
</defs>
</svg>
