<svg width="730" height="483" viewBox="0 0 730 483" fill="none" xmlns="http://www.w3.org/2000/svg">
<path d="M240.499 479C107.643 479 0 371.43 0 239.741C0 107.57 108.128 0 240.499 0C373.356 0 480.998 107.57 480.998 239.741C481.483 371.43 373.356 479 240.499 479ZM240.499 67.5327C144.978 67.5327 67.8828 144.713 67.8828 239.741C67.8828 334.769 145.463 411.467 240.499 411.467C336.02 411.467 413.116 334.287 413.116 239.741C413.6 144.713 336.02 67.5327 240.499 67.5327Z" fill="#1A938A"/>
<g filter="url(#filter0_ddd_901_4690)">
<rect x="136" y="52.0488" width="548" height="375.261" rx="20.4224" fill="white"/>
</g>
<g filter="url(#filter1_ddd_901_4690)">
<rect x="146.211" y="62.26" width="182.95" height="189.758" rx="16.1677" fill="white"/>
</g>
<g filter="url(#filter2_ddd_901_4690)">
<rect x="156.422" y="109.061" width="162.528" height="132.745" rx="10.2112" fill="white"/>
</g>
<path d="M300.03 192.071C293.55 177.322 278.825 174.026 277.472 173.752C266.443 170.952 255.649 172.982 246.255 179.624C243.999 181.218 242.086 182.894 240.514 184.446C240.973 182.277 241.655 179.798 242.689 177.212C246.757 167.03 254.022 160.156 264.282 156.78C264.295 156.777 264.308 156.771 264.323 156.767C264.435 156.728 274.952 153.178 286.5 159.273L279.094 166.709C278.183 167.624 278.183 169.108 279.094 170.023C280.005 170.937 281.483 170.937 282.394 170.023L291.937 160.44C292.435 159.94 292.682 159.239 292.607 158.536C292.532 157.832 292.144 157.2 291.552 156.816C277.324 147.582 263.671 152.037 262.811 152.331C251.291 156.126 242.812 164.183 238.289 175.634C237.903 176.612 237.563 177.573 237.261 178.512C236.959 177.573 236.619 176.612 236.232 175.634C231.71 164.183 223.229 156.124 211.711 152.331C210.85 152.035 197.197 147.582 182.969 156.816C182.378 157.2 181.989 157.832 181.915 158.536C181.84 159.241 182.086 159.94 182.585 160.44L192.083 169.978C192.994 170.892 194.472 170.892 195.383 169.978C196.294 169.063 196.294 167.579 195.383 166.664L188.02 159.271C199.465 153.21 209.744 156.61 210.199 156.767C210.212 156.773 210.225 156.777 210.24 156.78C220.5 160.156 227.764 167.03 231.833 177.212C232.867 179.798 233.548 182.277 234.008 184.446C232.436 182.894 230.523 181.218 228.266 179.624C218.873 172.982 208.081 170.952 197.05 173.752C195.697 174.026 180.97 177.32 174.492 192.071C174.173 192.797 174.242 193.632 174.673 194.296C175.104 194.959 175.839 195.36 176.627 195.36H227.016C228.306 195.36 229.349 194.311 229.349 193.018C229.349 191.725 228.304 190.675 227.016 190.675H180.5C186.764 180.647 197.88 178.366 197.998 178.344C198.045 178.334 198.093 178.325 198.14 178.312C207.913 175.815 217.099 177.515 225.446 183.362C231.798 187.811 235.267 193.121 235.303 193.173C235.305 193.177 235.309 193.179 235.31 193.183C235.316 193.19 235.32 193.198 235.325 193.207C235.366 193.267 235.417 193.321 235.463 193.378C235.486 193.406 235.508 193.436 235.533 193.462C235.561 193.494 235.585 193.527 235.615 193.557C235.617 193.559 235.618 193.563 235.622 193.565C235.663 193.606 235.712 193.638 235.757 193.675C235.76 193.679 235.766 193.683 235.77 193.687C235.827 193.735 235.882 193.79 235.945 193.833C235.951 193.837 235.958 193.84 235.964 193.844C235.969 193.848 235.975 193.85 235.979 193.854C235.986 193.857 235.992 193.865 235.997 193.869C236.042 193.897 236.089 193.914 236.134 193.938C236.139 193.942 236.145 193.943 236.15 193.947C236.214 193.983 236.274 194.024 236.341 194.052C236.346 194.054 236.35 194.056 236.356 194.058C236.365 194.062 236.374 194.063 236.382 194.067C236.451 194.095 236.524 194.114 236.595 194.135C236.606 194.138 236.617 194.142 236.628 194.146C236.682 194.161 236.735 194.183 236.792 194.195C236.8 194.195 236.809 194.195 236.817 194.198C236.891 194.213 236.968 194.217 237.044 194.225C237.106 194.23 237.168 194.243 237.231 194.243C237.235 194.243 237.238 194.243 237.244 194.243C237.252 194.243 237.257 194.243 237.265 194.243C237.272 194.243 237.28 194.241 237.287 194.241C237.354 194.241 237.42 194.23 237.487 194.223C237.558 194.215 237.629 194.213 237.699 194.2C237.714 194.196 237.731 194.196 237.746 194.193C237.811 194.18 237.871 194.153 237.935 194.135C238.002 194.114 238.069 194.099 238.134 194.073C238.147 194.067 238.162 194.063 238.175 194.058C238.245 194.028 238.31 193.985 238.377 193.949C238.383 193.945 238.39 193.942 238.398 193.938C238.44 193.914 238.485 193.899 238.528 193.87C238.534 193.867 238.538 193.863 238.543 193.859C238.551 193.854 238.56 193.85 238.569 193.844C238.631 193.803 238.683 193.75 238.741 193.704C238.76 193.689 238.78 193.674 238.799 193.657C238.832 193.627 238.873 193.601 238.905 193.569C238.909 193.565 238.913 193.559 238.918 193.556C238.961 193.512 238.995 193.462 239.034 193.415C239.056 193.389 239.077 193.364 239.097 193.338C239.133 193.291 239.174 193.25 239.206 193.201C239.208 193.198 239.209 193.194 239.211 193.19C239.215 193.183 239.223 193.179 239.226 193.171C239.26 193.119 242.636 187.918 248.947 183.458C257.327 177.534 266.561 175.802 276.387 178.312C276.434 178.323 276.481 178.334 276.529 178.344C276.652 178.366 287.749 180.587 294.031 190.675H247.51C246.22 190.675 245.177 191.725 245.177 193.018C245.177 194.311 246.222 195.36 247.51 195.36H297.898C298.688 195.36 299.423 194.959 299.853 194.296C300.284 193.632 300.351 192.795 300.032 192.071H300.03Z" stroke="#16938A" stroke-width="0.850932" stroke-miterlimit="10"/>
<path d="M300.03 192.071C293.55 177.322 278.825 174.026 277.472 173.752C266.443 170.952 255.649 172.982 246.255 179.624C243.999 181.218 242.086 182.894 240.514 184.446C240.973 182.277 241.655 179.798 242.689 177.212C246.757 167.03 254.022 160.156 264.282 156.78C264.295 156.777 264.308 156.771 264.323 156.767C264.435 156.728 274.952 153.178 286.5 159.273L279.094 166.709C278.183 167.624 278.183 169.108 279.094 170.023C280.005 170.937 281.483 170.937 282.394 170.023L291.937 160.44C292.435 159.94 292.682 159.239 292.607 158.536C292.532 157.832 292.144 157.2 291.552 156.816C277.324 147.582 263.671 152.037 262.811 152.331C251.291 156.126 242.812 164.183 238.289 175.634C237.903 176.612 237.563 177.573 237.261 178.512C236.959 177.573 236.619 176.612 236.232 175.634C231.71 164.183 223.229 156.124 211.711 152.331C210.85 152.035 197.197 147.582 182.969 156.816C182.378 157.2 181.989 157.832 181.915 158.536C181.84 159.241 182.086 159.94 182.585 160.44L192.083 169.978C192.994 170.892 194.472 170.892 195.383 169.978C196.294 169.063 196.294 167.579 195.383 166.664L188.02 159.271C199.465 153.21 209.744 156.61 210.199 156.767C210.212 156.773 210.225 156.777 210.24 156.78C220.5 160.156 227.764 167.03 231.833 177.212C232.867 179.798 233.548 182.277 234.008 184.446C232.436 182.894 230.523 181.218 228.266 179.624C218.873 172.982 208.081 170.952 197.05 173.752C195.697 174.026 180.97 177.32 174.492 192.071C174.173 192.797 174.242 193.632 174.673 194.296C175.104 194.959 175.839 195.36 176.627 195.36H227.016C228.306 195.36 229.349 194.311 229.349 193.018C229.349 191.725 228.304 190.675 227.016 190.675H180.5C186.764 180.647 197.88 178.366 197.998 178.344C198.045 178.334 198.093 178.325 198.14 178.312C207.913 175.815 217.099 177.515 225.446 183.362C231.798 187.811 235.267 193.121 235.303 193.173C235.305 193.177 235.309 193.179 235.31 193.183C235.316 193.19 235.32 193.198 235.325 193.207C235.366 193.267 235.417 193.321 235.463 193.378C235.486 193.406 235.508 193.436 235.533 193.462C235.561 193.494 235.585 193.527 235.615 193.557C235.617 193.559 235.618 193.563 235.622 193.565C235.663 193.606 235.712 193.638 235.757 193.675C235.76 193.679 235.766 193.683 235.77 193.687C235.827 193.735 235.882 193.79 235.945 193.833C235.951 193.837 235.958 193.84 235.964 193.844C235.969 193.848 235.975 193.85 235.979 193.854C235.986 193.857 235.992 193.865 235.997 193.869C236.042 193.897 236.089 193.914 236.134 193.938C236.139 193.942 236.145 193.943 236.15 193.947C236.214 193.983 236.274 194.024 236.341 194.052C236.346 194.054 236.35 194.056 236.356 194.058C236.365 194.062 236.374 194.063 236.382 194.067C236.451 194.095 236.524 194.114 236.595 194.135C236.606 194.138 236.617 194.142 236.628 194.146C236.682 194.161 236.735 194.183 236.792 194.195C236.8 194.195 236.809 194.195 236.817 194.198C236.891 194.213 236.968 194.217 237.044 194.225C237.106 194.23 237.168 194.243 237.231 194.243C237.235 194.243 237.238 194.243 237.244 194.243C237.252 194.243 237.257 194.243 237.265 194.243C237.272 194.243 237.28 194.241 237.287 194.241C237.354 194.241 237.42 194.23 237.487 194.223C237.558 194.215 237.629 194.213 237.699 194.2C237.714 194.196 237.731 194.196 237.746 194.193C237.811 194.18 237.871 194.153 237.935 194.135C238.002 194.114 238.069 194.099 238.134 194.073C238.147 194.067 238.162 194.063 238.175 194.058C238.244 194.028 238.31 193.985 238.377 193.949C238.383 193.945 238.39 193.942 238.398 193.938C238.44 193.914 238.485 193.899 238.528 193.87C238.534 193.867 238.538 193.863 238.543 193.859C238.551 193.854 238.56 193.85 238.569 193.844C238.631 193.803 238.683 193.75 238.741 193.704C238.76 193.689 238.78 193.674 238.799 193.657C238.832 193.627 238.873 193.601 238.905 193.569C238.909 193.565 238.913 193.559 238.918 193.556C238.961 193.512 238.995 193.462 239.034 193.415C239.056 193.389 239.077 193.364 239.097 193.338C239.133 193.291 239.174 193.25 239.206 193.201C239.208 193.198 239.209 193.194 239.211 193.19C239.215 193.183 239.223 193.179 239.226 193.171C239.26 193.119 242.636 187.918 248.947 183.458C257.327 177.534 266.561 175.802 276.387 178.312C276.434 178.323 276.481 178.334 276.529 178.344C276.652 178.366 287.749 180.587 294.031 190.675H247.51C246.22 190.675 245.177 191.725 245.177 193.018C245.177 194.311 246.222 195.36 247.51 195.36H297.898C298.688 195.36 299.423 194.959 299.853 194.296C300.284 193.632 300.351 192.795 300.032 192.071H300.03Z" fill="url(#paint0_linear_901_4690)"/>
<path d="M191.946 91.0384C194.301 91.0384 196.126 89.6497 196.507 87.553H194.696C194.369 88.6558 193.335 89.3637 191.987 89.3637C190.162 89.3637 188.992 88.0023 188.992 85.8919C188.992 83.768 190.149 82.4338 191.987 82.4338C193.307 82.4338 194.301 83.1145 194.642 84.2718H196.48C196.139 82.1342 194.383 80.7591 192.028 80.7591C189.114 80.7591 187.167 82.815 187.167 85.9056C187.167 89.0234 189.046 91.0384 191.946 91.0384ZM197.43 87.4985C197.43 89.5952 198.941 91.0384 201.024 91.0384C203.107 91.0384 204.619 89.5952 204.619 87.4985C204.619 85.4018 203.107 83.9586 201.024 83.9586C198.941 83.9586 197.43 85.4018 197.43 87.4985ZM199.091 87.4985C199.091 86.2732 199.881 85.4427 201.024 85.4427C202.168 85.4427 202.958 86.2732 202.958 87.4985C202.958 88.7238 202.168 89.5544 201.024 89.5544C199.881 89.5544 199.091 88.7238 199.091 87.4985ZM207.596 90.875V87.2534C207.596 86.1642 208.222 85.4563 209.244 85.4563C210.101 85.4563 210.66 86.0009 210.66 87.1309V90.875H212.321V86.7361C212.321 84.9934 211.449 83.945 209.761 83.945C208.849 83.945 208.032 84.3398 207.61 85.0206L207.474 84.1492H205.935V90.875H207.596ZM216.24 90.875V85.538H217.547V84.1492H216.24V82.0525H214.579V84.1492H213.285V85.538H214.579V90.875H216.24ZM222.8 84.122C222.528 84.0539 222.296 84.0267 222.065 84.0267C221.166 84.0267 220.526 84.476 220.24 85.1431L220.145 84.1629H218.579V90.875H220.24V87.6074C220.24 86.3004 220.989 85.6605 222.187 85.6605H222.8V84.122ZM225.66 91.052C226.708 91.052 227.62 90.5755 227.906 89.8811L228.029 90.875H229.486V86.7905C229.486 84.9253 228.369 83.945 226.558 83.945C224.734 83.945 223.536 84.8981 223.536 86.3549H224.952C224.952 85.6469 225.496 85.2384 226.477 85.2384C227.321 85.2384 227.865 85.606 227.865 86.5182V86.668L225.85 86.8178C224.258 86.9403 223.359 87.7163 223.359 88.9553C223.359 90.2215 224.23 91.052 225.66 91.052ZM226.204 89.7994C225.456 89.7994 225.047 89.4999 225.047 88.8872C225.047 88.3426 225.442 88.0023 226.477 87.907L227.879 87.798V88.152C227.879 89.1868 227.226 89.7994 226.204 89.7994ZM230.723 87.4985C230.723 89.636 232.057 91.052 234.099 91.052C235.855 91.052 237.162 89.9764 237.367 88.4107H235.692C235.515 89.1459 234.93 89.5544 234.099 89.5544C233.037 89.5544 232.384 88.7647 232.384 87.4985C232.384 86.2323 233.092 85.429 234.154 85.429C234.943 85.429 235.501 85.8239 235.692 86.5863H237.353C237.176 84.9661 235.923 83.945 234.085 83.945C232.098 83.945 230.723 85.4154 230.723 87.4985ZM240.89 90.875V85.538H242.197V84.1492H240.89V82.0525H239.229V84.1492H237.936V85.538H239.229V90.875H240.89ZM250.725 90.875C253.612 90.875 255.599 88.8464 255.599 85.9192C255.599 82.9511 253.571 80.9225 250.63 80.9225H247.145V90.875H250.725ZM250.467 82.5291C252.522 82.5291 253.761 83.8089 253.761 85.9192C253.761 87.9886 252.55 89.2684 250.562 89.2684H248.887V82.5291H250.467ZM259.987 91.052C261.743 91.052 262.968 90.167 263.254 88.6966H261.716C261.525 89.3365 260.926 89.6905 260.014 89.6905C258.911 89.6905 258.285 89.0914 258.162 87.907L263.227 87.8933V87.3896C263.227 85.2929 261.947 83.945 259.932 83.945C257.958 83.945 256.583 85.4018 256.583 87.5121C256.583 89.5952 257.985 91.052 259.987 91.052ZM259.946 85.3065C260.94 85.3065 261.58 85.9192 261.58 86.845H258.203C258.366 85.8375 258.966 85.3065 259.946 85.3065ZM266.777 90.875V85.538H268.084V84.1492H266.777V82.0525H265.116V84.1492H263.823V85.538H265.116V90.875H266.777ZM271.078 91.052C272.127 91.052 273.039 90.5755 273.325 89.8811L273.447 90.875H274.904V86.7905C274.904 84.9253 273.788 83.945 271.977 83.945C270.153 83.945 268.954 84.8981 268.954 86.3549H270.37C270.37 85.6469 270.915 85.2384 271.895 85.2384C272.739 85.2384 273.284 85.606 273.284 86.5182V86.668L271.269 86.8178C269.676 86.9403 268.777 87.7163 268.777 88.9553C268.777 90.2215 269.649 91.052 271.078 91.052ZM271.623 89.7994C270.874 89.7994 270.466 89.4999 270.466 88.8872C270.466 88.3426 270.86 88.0023 271.895 87.907L273.298 87.798V88.152C273.298 89.1868 272.644 89.7994 271.623 89.7994ZM277.366 82.8014C277.911 82.8014 278.36 82.3521 278.36 81.7939C278.36 81.2356 277.911 80.8 277.366 80.8C276.795 80.8 276.345 81.2356 276.345 81.7939C276.345 82.3521 276.795 82.8014 277.366 82.8014ZM276.536 90.875H278.197V84.1492H276.536V90.875ZM281.588 90.875V80.7455H279.94V90.875H281.588ZM282.813 88.8328C282.813 90.1534 283.875 91.052 285.549 91.052C287.21 91.052 288.368 90.2079 288.368 88.8464C288.368 87.8116 287.796 87.2943 286.666 87.0356L285.454 86.7497C284.882 86.6135 284.583 86.3685 284.583 85.9872C284.583 85.4835 284.964 85.184 285.617 85.184C286.257 85.184 286.638 85.5516 286.652 86.1234H288.231C288.218 84.8164 287.197 83.945 285.685 83.945C284.133 83.945 283.017 84.7347 283.017 86.0553C283.017 87.1309 283.602 87.7027 284.814 87.975L286.026 88.2609C286.625 88.3971 286.802 88.6422 286.802 88.9825C286.802 89.4727 286.38 89.7858 285.604 89.7858C284.841 89.7858 284.406 89.4182 284.392 88.8328H282.813Z" fill="#284B64"/>
<g filter="url(#filter3_ddd_901_4690)">
<rect x="339.373" y="62.26" width="334.416" height="190.609" rx="12.764" fill="white"/>
</g>
<path d="M355.807 87.4712V80.4187L360.49 87.4712H362.206V77.5187H360.49V84.5712L355.82 77.5187H354.091V87.4712H355.807ZM363.769 84.0947C363.769 86.1914 365.28 87.6346 367.363 87.6346C369.446 87.6346 370.958 86.1914 370.958 84.0947C370.958 81.998 369.446 80.5548 367.363 80.5548C365.28 80.5548 363.769 81.998 363.769 84.0947ZM365.43 84.0947C365.43 82.8694 366.22 82.0388 367.363 82.0388C368.507 82.0388 369.297 82.8694 369.297 84.0947C369.297 85.32 368.507 86.1505 367.363 86.1505C366.22 86.1505 365.43 85.32 365.43 84.0947ZM374.495 87.4712V82.1341H375.802V80.7454H374.495V78.6487H372.834V80.7454H371.541V82.1341H372.834V87.4712H374.495ZM377.665 79.3976C378.21 79.3976 378.659 78.9483 378.659 78.39C378.659 77.8318 378.21 77.3962 377.665 77.3962C377.093 77.3962 376.644 77.8318 376.644 78.39C376.644 78.9483 377.093 79.3976 377.665 79.3976ZM376.835 87.4712H378.496V80.7454H376.835V87.4712ZM379.817 84.0947C379.817 86.2322 381.151 87.6482 383.194 87.6482C384.95 87.6482 386.257 86.5726 386.461 85.0069H384.786C384.609 85.7421 384.024 86.1505 383.194 86.1505C382.132 86.1505 381.478 85.3609 381.478 84.0947C381.478 82.8285 382.186 82.0252 383.248 82.0252C384.038 82.0252 384.596 82.4201 384.786 83.1825H386.447C386.27 81.5623 385.018 80.5412 383.18 80.5412C381.192 80.5412 379.817 82.0116 379.817 84.0947ZM390.706 87.6482C392.463 87.6482 393.688 86.7632 393.974 85.2928H392.435C392.245 85.9327 391.646 86.2867 390.734 86.2867C389.631 86.2867 389.004 85.6876 388.882 84.5031L393.947 84.4895V83.9858C393.947 81.8891 392.667 80.5412 390.652 80.5412C388.678 80.5412 387.303 81.998 387.303 84.1083C387.303 86.1914 388.705 87.6482 390.706 87.6482ZM390.665 81.9027C391.659 81.9027 392.299 82.5154 392.299 83.4412H388.923C389.086 82.4337 389.685 81.9027 390.665 81.9027ZM403.125 84.0402C405.113 84.0402 406.42 82.6924 406.42 80.7727C406.42 78.8257 405.127 77.5187 403.125 77.5187H399.191V87.4712H400.933V84.0402H403.125ZM402.785 79.0708C403.942 79.0708 404.596 79.6698 404.596 80.759C404.596 81.8482 403.956 82.4881 402.758 82.4881H400.933V79.0708H402.785ZM410.318 87.6482C412.074 87.6482 413.299 86.7632 413.585 85.2928H412.047C411.856 85.9327 411.257 86.2867 410.345 86.2867C409.242 86.2867 408.616 85.6876 408.493 84.5031L413.558 84.4895V83.9858C413.558 81.8891 412.278 80.5412 410.263 80.5412C408.289 80.5412 406.914 81.998 406.914 84.1083C406.914 86.1914 408.316 87.6482 410.318 87.6482ZM410.277 81.9027C411.271 81.9027 411.911 82.5154 411.911 83.4412H408.534C408.697 82.4337 409.296 81.9027 410.277 81.9027ZM419.108 80.7182C418.836 80.6501 418.604 80.6229 418.373 80.6229C417.474 80.6229 416.834 81.0722 416.548 81.7393L416.453 80.759H414.887V87.4712H416.548V84.2036C416.548 82.8966 417.297 82.2567 418.495 82.2567H419.108V80.7182ZM421.063 79.3976C421.607 79.3976 422.057 78.9483 422.057 78.39C422.057 77.8318 421.607 77.3962 421.063 77.3962C420.491 77.3962 420.042 77.8318 420.042 78.39C420.042 78.9483 420.491 79.3976 421.063 79.3976ZM420.232 87.4712H421.893V80.7454H420.232V87.4712ZM423.215 84.0947C423.215 86.1914 424.726 87.6346 426.809 87.6346C428.892 87.6346 430.403 86.1914 430.403 84.0947C430.403 81.998 428.892 80.5548 426.809 80.5548C424.726 80.5548 423.215 81.998 423.215 84.0947ZM424.876 84.0947C424.876 82.8694 425.665 82.0388 426.809 82.0388C427.953 82.0388 428.742 82.8694 428.742 84.0947C428.742 85.32 427.953 86.1505 426.809 86.1505C425.665 86.1505 424.876 85.32 424.876 84.0947ZM434.484 87.6482C435.505 87.6482 436.376 87.1989 436.785 86.4228L436.893 87.4712H438.418V77.3417H436.771V81.6032C436.349 80.936 435.518 80.5412 434.579 80.5412C432.55 80.5412 431.325 82.0388 431.325 84.1355C431.325 86.2186 432.537 87.6482 434.484 87.6482ZM434.851 86.1233C433.694 86.1233 432.986 85.2792 432.986 84.0811C432.986 82.883 433.694 82.0252 434.851 82.0252C436.009 82.0252 436.757 82.8694 436.757 84.0811C436.757 85.2928 436.009 86.1233 434.851 86.1233Z" fill="#043344"/>
<path d="M359.427 128.793C360.543 127.281 360.938 126.41 360.938 125.212C360.938 123.17 359.331 121.59 357.18 121.59C355.056 121.59 353.477 123.074 353.477 125.198C353.477 127.213 354.866 128.656 356.922 128.656C357.167 128.656 357.425 128.616 357.67 128.547L355.288 131.72H357.276L359.427 128.793ZM359.154 125.198C359.154 126.396 358.365 127.227 357.18 127.227C356.037 127.227 355.233 126.396 355.233 125.198C355.233 123.986 356.037 123.142 357.18 123.142C358.351 123.142 359.154 123.986 359.154 125.198ZM362.015 126.764C362.015 129.841 363.581 131.897 366.222 131.897C368.863 131.897 370.443 129.841 370.443 126.764C370.443 123.673 368.768 121.577 366.222 121.577C363.676 121.577 362.015 123.673 362.015 126.764ZM363.731 126.764C363.731 124.409 364.656 123.115 366.222 123.115C367.801 123.115 368.727 124.409 368.727 126.764C368.727 129.065 367.801 130.358 366.222 130.358C364.656 130.358 363.731 129.065 363.731 126.764ZM378.32 131.897C379.342 131.897 380.213 131.447 380.621 130.671L380.73 131.72H382.255V121.59H380.608V125.852C380.186 125.185 379.355 124.79 378.416 124.79C376.387 124.79 375.162 126.287 375.162 128.384C375.162 130.467 376.374 131.897 378.32 131.897ZM378.688 130.372C377.531 130.372 376.823 129.528 376.823 128.33C376.823 127.132 377.531 126.274 378.688 126.274C379.845 126.274 380.594 127.118 380.594 128.33C380.594 129.541 379.845 130.372 378.688 130.372ZM385.988 131.897C387.036 131.897 387.948 131.42 388.234 130.726L388.357 131.72H389.813V127.635C389.813 125.77 388.697 124.79 386.886 124.79C385.062 124.79 383.864 125.743 383.864 127.2H385.28C385.28 126.492 385.824 126.083 386.804 126.083C387.649 126.083 388.193 126.451 388.193 127.363V127.513L386.178 127.662C384.585 127.785 383.687 128.561 383.687 129.8C383.687 131.066 384.558 131.897 385.988 131.897ZM386.532 130.644C385.783 130.644 385.375 130.345 385.375 129.732C385.375 129.187 385.77 128.847 386.804 128.752L388.207 128.643V128.997C388.207 130.031 387.553 130.644 386.532 130.644ZM390.674 134.838C391.041 134.933 391.45 134.987 391.912 134.987C393.015 134.987 393.723 134.47 394.227 133.217L397.522 124.994H395.806L393.982 129.895L392.253 124.994H390.497L393.206 132.006L393.015 132.509C392.729 133.299 392.321 133.449 391.667 133.449H390.674V134.838Z" fill="#284B64"/>
<path d="M405.471 134.32C404.232 132.632 403.564 130.127 403.564 127.717C403.564 125.076 404.341 122.666 405.471 121.127H404.15C402.652 122.829 401.89 125.334 401.89 127.717C401.89 130.331 402.788 132.768 404.15 134.32H405.471ZM412.994 131.706V130.086H408.855L410.653 128.547C412.164 127.254 412.926 126.206 412.926 124.817C412.926 122.802 411.606 121.59 409.482 121.59C407.371 121.59 405.983 123.006 405.969 125.185H407.698C407.712 123.905 408.393 123.142 409.482 123.142C410.53 123.142 411.143 123.782 411.143 124.912C411.143 125.865 410.693 126.519 409.346 127.662L406.092 130.413V131.72L412.994 131.706ZM416.217 123.333V131.72H417.892V121.767H414.039V123.333H416.217ZM424.664 124.191C424.664 122.666 423.575 121.577 422.064 121.577C420.553 121.577 419.463 122.666 419.463 124.191C419.463 125.729 420.553 126.805 422.064 126.805C423.575 126.805 424.664 125.729 424.664 124.191ZM430.124 121.781H428.463L420.907 131.72H422.568L430.124 121.781ZM423.344 124.191C423.344 124.98 422.826 125.525 422.064 125.525C421.315 125.525 420.798 124.98 420.798 124.191C420.798 123.401 421.301 122.856 422.064 122.856C422.826 122.856 423.344 123.401 423.344 124.191ZM431.581 129.283C431.581 127.758 430.505 126.669 428.994 126.669C427.469 126.669 426.393 127.758 426.393 129.283C426.393 130.808 427.469 131.897 428.994 131.897C430.505 131.897 431.581 130.808 431.581 129.283ZM430.26 129.283C430.26 130.072 429.743 130.617 428.994 130.617C428.231 130.617 427.714 130.072 427.714 129.283C427.714 128.493 428.231 127.948 428.994 127.948C429.743 127.948 430.26 128.493 430.26 129.283ZM433.378 134.32C434.739 132.768 435.651 130.331 435.651 127.717C435.651 125.334 434.875 122.829 433.378 121.127H432.057C433.187 122.666 433.963 125.076 433.963 127.717C433.963 130.127 433.31 132.632 432.057 134.32H433.378Z" fill="#BEC9D0"/>
<path d="M652.496 129.827V128.302H651.284V121.767H649.092L644.586 128.302V129.827H649.637V131.72H651.284V129.827H652.496ZM646.437 128.302L649.637 123.646V128.302H646.437Z" fill="#284B64"/>
<path d="M354.988 206.384C353.872 207.895 353.477 208.766 353.477 209.965C353.477 212.007 355.084 213.586 357.235 213.586C359.359 213.586 360.938 212.102 360.938 209.978C360.938 207.963 359.549 206.52 357.493 206.52C357.248 206.52 356.99 206.561 356.745 206.629L359.127 203.457H357.139L354.988 206.384ZM355.261 209.978C355.261 208.78 356.05 207.95 357.235 207.95C358.378 207.95 359.182 208.78 359.182 209.978C359.182 211.19 358.365 212.034 357.235 212.034C356.064 212.034 355.261 211.19 355.261 209.978ZM362.015 208.453C362.015 211.53 363.581 213.586 366.222 213.586C368.863 213.586 370.443 211.53 370.443 208.453C370.443 205.363 368.768 203.266 366.222 203.266C363.676 203.266 362.015 205.363 362.015 208.453ZM363.731 208.453C363.731 206.098 364.656 204.805 366.222 204.805C367.801 204.805 368.727 206.098 368.727 208.453C368.727 210.754 367.801 212.048 366.222 212.048C364.656 212.048 363.731 210.754 363.731 208.453ZM378.32 213.586C379.342 213.586 380.213 213.137 380.621 212.361L380.73 213.409H382.255V203.28H380.608V207.541C380.186 206.874 379.355 206.479 378.416 206.479C376.387 206.479 375.162 207.977 375.162 210.074C375.162 212.157 376.374 213.586 378.32 213.586ZM378.688 212.061C377.531 212.061 376.823 211.217 376.823 210.019C376.823 208.821 377.531 207.963 378.688 207.963C379.845 207.963 380.594 208.807 380.594 210.019C380.594 211.231 379.845 212.061 378.688 212.061ZM385.988 213.586C387.036 213.586 387.948 213.11 388.234 212.415L388.357 213.409H389.813V209.325C389.813 207.459 388.697 206.479 386.886 206.479C385.062 206.479 383.864 207.432 383.864 208.889H385.28C385.28 208.181 385.824 207.773 386.804 207.773C387.649 207.773 388.193 208.14 388.193 209.052V209.202L386.178 209.352C384.585 209.474 383.687 210.251 383.687 211.489C383.687 212.756 384.558 213.586 385.988 213.586ZM386.532 212.334C385.783 212.334 385.375 212.034 385.375 211.421C385.375 210.877 385.77 210.536 386.804 210.441L388.207 210.332V210.686C388.207 211.721 387.553 212.334 386.532 212.334ZM390.674 216.527C391.041 216.622 391.45 216.677 391.912 216.677C393.015 216.677 393.723 216.159 394.227 214.907L397.522 206.683H395.806L393.982 211.585L392.253 206.683H390.497L393.206 213.695L393.015 214.199C392.729 214.989 392.321 215.138 391.667 215.138H390.674V216.527Z" fill="#284B64"/>
<path d="M405.471 216.01C404.232 214.321 403.564 211.816 403.564 209.406C403.564 206.765 404.341 204.355 405.471 202.817H404.15C402.652 204.519 401.89 207.024 401.89 209.406C401.89 212.02 402.788 214.458 404.15 216.01H405.471ZM412.994 213.396V211.775H408.855L410.653 210.237C412.164 208.943 412.926 207.895 412.926 206.506C412.926 204.491 411.606 203.28 409.482 203.28C407.371 203.28 405.983 204.696 405.969 206.874H407.698C407.712 205.594 408.393 204.832 409.482 204.832C410.53 204.832 411.143 205.472 411.143 206.602C411.143 207.555 410.693 208.208 409.346 209.352L406.092 212.102V213.409L412.994 213.396ZM415.484 206.384C414.368 207.895 413.973 208.766 413.973 209.965C413.973 212.007 415.579 213.586 417.731 213.586C419.855 213.586 421.434 212.102 421.434 209.978C421.434 207.963 420.045 206.52 417.989 206.52C417.744 206.52 417.486 206.561 417.24 206.629L419.623 203.457H417.635L415.484 206.384ZM415.756 209.978C415.756 208.78 416.546 207.95 417.731 207.95C418.874 207.95 419.678 208.78 419.678 209.978C419.678 211.19 418.861 212.034 417.731 212.034C416.56 212.034 415.756 211.19 415.756 209.978ZM427.589 205.88C427.589 204.355 426.5 203.266 424.989 203.266C423.478 203.266 422.388 204.355 422.388 205.88C422.388 207.419 423.478 208.494 424.989 208.494C426.5 208.494 427.589 207.419 427.589 205.88ZM433.049 203.47H431.388L423.832 213.409H425.493L433.049 203.47ZM426.269 205.88C426.269 206.67 425.751 207.214 424.989 207.214C424.24 207.214 423.723 206.67 423.723 205.88C423.723 205.09 424.227 204.546 424.989 204.546C425.751 204.546 426.269 205.09 426.269 205.88ZM434.506 210.972C434.506 209.447 433.43 208.358 431.919 208.358C430.394 208.358 429.318 209.447 429.318 210.972C429.318 212.497 430.394 213.586 431.919 213.586C433.43 213.586 434.506 212.497 434.506 210.972ZM433.185 210.972C433.185 211.762 432.668 212.306 431.919 212.306C431.156 212.306 430.639 211.762 430.639 210.972C430.639 210.182 431.156 209.638 431.919 209.638C432.668 209.638 433.185 210.182 433.185 210.972ZM436.303 216.01C437.664 214.458 438.576 212.02 438.576 209.406C438.576 207.024 437.8 204.519 436.303 202.817H434.982C436.112 204.355 436.888 206.765 436.888 209.406C436.888 211.816 436.235 214.321 434.982 216.01H436.303Z" fill="#BEC9D0"/>
<path d="M649.709 213.573C651.928 213.573 653.439 212.102 653.439 209.951C653.439 207.99 652.119 206.643 650.131 206.643C649.45 206.643 648.851 206.82 648.374 207.133L648.905 205.063H652.84V203.457H647.653L646.428 208.671L647.966 208.998C648.32 208.481 649.014 208.099 649.777 208.099C650.975 208.099 651.669 208.889 651.669 210.046C651.669 211.258 650.92 212.02 649.75 212.02C648.647 212.02 647.98 211.353 647.98 210.223H646.251C646.251 212.238 647.626 213.573 649.709 213.573Z" fill="#284B64"/>
<path d="M356.513 167.636C357.902 167.636 358.555 168.371 358.555 169.379C358.555 170.481 357.834 171.189 356.745 171.189C355.683 171.189 354.975 170.536 354.975 169.392H353.259C353.259 171.543 354.77 172.741 356.717 172.741C358.732 172.741 360.325 171.448 360.325 169.406C360.325 167.649 359.141 166.533 357.616 166.234L360.039 164.001V162.612H353.722V164.15H357.861L355.301 166.506V167.636H356.513ZM361.324 167.609C361.324 170.686 362.889 172.741 365.531 172.741C368.172 172.741 369.751 170.686 369.751 167.609C369.751 164.518 368.077 162.421 365.531 162.421C362.985 162.421 361.324 164.518 361.324 167.609ZM363.039 167.609C363.039 165.253 363.965 163.96 365.531 163.96C367.11 163.96 368.036 165.253 368.036 167.609C368.036 169.91 367.11 171.203 365.531 171.203C363.965 171.203 363.039 169.91 363.039 167.609ZM377.629 172.741C378.65 172.741 379.522 172.292 379.93 171.516L380.039 172.564H381.564V162.435H379.916V166.696C379.494 166.029 378.664 165.634 377.724 165.634C375.696 165.634 374.47 167.132 374.47 169.229C374.47 171.312 375.682 172.741 377.629 172.741ZM377.997 171.217C376.839 171.217 376.131 170.372 376.131 169.174C376.131 167.976 376.839 167.118 377.997 167.118C379.154 167.118 379.903 167.963 379.903 169.174C379.903 170.386 379.154 171.217 377.997 171.217ZM385.296 172.741C386.345 172.741 387.257 172.265 387.543 171.571L387.665 172.564H389.122V168.48C389.122 166.615 388.006 165.634 386.195 165.634C384.37 165.634 383.172 166.588 383.172 168.044H384.588C384.588 167.336 385.133 166.928 386.113 166.928C386.957 166.928 387.502 167.295 387.502 168.208V168.357L385.487 168.507C383.894 168.63 382.995 169.406 382.995 170.645C382.995 171.911 383.867 172.741 385.296 172.741ZM385.841 171.489C385.092 171.489 384.683 171.189 384.683 170.577C384.683 170.032 385.078 169.692 386.113 169.596L387.515 169.487V169.841C387.515 170.876 386.862 171.489 385.841 171.489ZM389.982 175.682C390.35 175.778 390.758 175.832 391.221 175.832C392.324 175.832 393.032 175.315 393.536 174.062L396.83 165.839H395.115L393.291 170.74L391.561 165.839H389.805L392.515 172.85L392.324 173.354C392.038 174.144 391.63 174.294 390.976 174.294H389.982V175.682Z" fill="#284B64"/>
<path d="M404.779 175.165C403.54 173.477 402.873 170.972 402.873 168.562C402.873 165.92 403.649 163.511 404.779 161.972H403.459C401.961 163.674 401.198 166.179 401.198 168.562C401.198 171.176 402.097 173.613 403.459 175.165H404.779ZM408.79 172.728C411.01 172.728 412.521 171.257 412.521 169.106C412.521 167.146 411.2 165.798 409.212 165.798C408.532 165.798 407.933 165.975 407.456 166.288L407.987 164.219H411.922V162.612H406.735L405.509 167.826L407.048 168.153C407.402 167.636 408.096 167.255 408.858 167.255C410.057 167.255 410.751 168.044 410.751 169.202C410.751 170.413 410.002 171.176 408.831 171.176C407.728 171.176 407.061 170.509 407.061 169.379H405.332C405.332 171.394 406.707 172.728 408.79 172.728ZM416.557 167.636C417.946 167.636 418.599 168.371 418.599 169.379C418.599 170.481 417.878 171.189 416.788 171.189C415.726 171.189 415.018 170.536 415.018 169.392H413.303C413.303 171.543 414.814 172.741 416.761 172.741C418.776 172.741 420.369 171.448 420.369 169.406C420.369 167.649 419.185 166.533 417.66 166.234L420.083 164.001V162.612H413.766V164.15H417.905L415.345 166.506V167.636H416.557ZM426.446 165.035C426.446 163.511 425.357 162.421 423.845 162.421C422.334 162.421 421.245 163.511 421.245 165.035C421.245 166.574 422.334 167.649 423.845 167.649C425.357 167.649 426.446 166.574 426.446 165.035ZM431.906 162.626H430.245L422.688 172.564H424.349L431.906 162.626ZM425.125 165.035C425.125 165.825 424.608 166.37 423.845 166.37C423.097 166.37 422.579 165.825 422.579 165.035C422.579 164.246 423.083 163.701 423.845 163.701C424.608 163.701 425.125 164.246 425.125 165.035ZM433.362 170.127C433.362 168.603 432.287 167.513 430.775 167.513C429.251 167.513 428.175 168.603 428.175 170.127C428.175 171.652 429.251 172.741 430.775 172.741C432.287 172.741 433.362 171.652 433.362 170.127ZM432.042 170.127C432.042 170.917 431.524 171.462 430.775 171.462C430.013 171.462 429.496 170.917 429.496 170.127C429.496 169.338 430.013 168.793 430.775 168.793C431.524 168.793 432.042 169.338 432.042 170.127ZM435.159 175.165C436.521 173.613 437.433 171.176 437.433 168.562C437.433 166.179 436.657 163.674 435.159 161.972H433.839C434.969 163.511 435.745 165.92 435.745 168.562C435.745 170.972 435.091 173.477 433.839 175.165H435.159Z" fill="#BEC9D0"/>
<path d="M641.666 164.178V172.564H643.341V162.612H639.488V164.178H641.666ZM645.035 167.609C645.035 170.686 646.601 172.741 649.242 172.741C651.883 172.741 653.463 170.686 653.463 167.609C653.463 164.518 651.788 162.421 649.242 162.421C646.696 162.421 645.035 164.518 645.035 167.609ZM646.751 167.609C646.751 165.253 647.676 163.96 649.242 163.96C650.822 163.96 651.747 165.253 651.747 167.609C651.747 169.91 650.822 171.203 649.242 171.203C647.676 171.203 646.751 169.91 646.751 167.609Z" fill="#284B64"/>
<rect x="352.987" y="143.099" width="300.379" height="7.65839" rx="3.82919" fill="#E9EDEF"/>
<rect x="352.987" y="143.099" width="87.646" height="7.65839" rx="3.82919" fill="#62D26F"/>
<rect x="352.987" y="183.943" width="300.379" height="7.65839" rx="3.82919" fill="#E9EDEF"/>
<rect x="352.987" y="183.943" width="171.888" height="7.65839" rx="3.82919" fill="#FFA150"/>
<rect x="352.987" y="224.788" width="300.379" height="7.65839" rx="3.82919" fill="#E9EDEF"/>
<rect x="352.987" y="224.788" width="108.919" height="7.65839" rx="3.82919" fill="#11BBD1"/>
<g filter="url(#filter4_ddd_901_4690)">
<rect x="146.211" y="263.08" width="334.416" height="154.019" rx="12.764" fill="white"/>
</g>
<path d="M223.222 284C191.97 284 166.635 309.558 166.635 341.087C166.635 372.616 191.97 398.174 223.222 398.174C254.475 398.174 279.809 372.616 279.809 341.087C279.809 309.558 254.473 284 223.222 284ZM223.222 371.88C206.364 371.88 192.697 358.092 192.697 341.085C192.697 324.078 206.364 310.29 223.222 310.29C240.081 310.29 253.748 324.078 253.748 341.085C253.748 358.092 240.081 371.88 223.222 371.88Z" fill="#FFA150"/>
<path d="M252.038 330.909L276.957 323.155C269.503 300.411 248.265 284 223.223 284V310.292C236.546 310.292 247.873 318.903 252.038 330.909Z" fill="#4EB1F9"/>
<path d="M279.808 341.087C279.808 334.821 278.805 328.795 276.957 323.155L252.038 330.909C253.144 334.096 253.746 337.52 253.746 341.087C253.746 352.832 247.23 363.039 237.643 368.233L249.543 391.63C267.537 382.073 279.806 363.028 279.806 341.087H279.808Z" fill="#62D26F"/>
<path d="M309.885 288.55H308.143V298.502H309.885V288.55ZM313.507 298.502V294.881C313.507 293.791 314.134 293.083 315.155 293.083C316.013 293.083 316.571 293.628 316.571 294.758V298.502H318.232V294.363C318.232 292.621 317.36 291.572 315.672 291.572C314.76 291.572 313.943 291.967 313.521 292.648L313.385 291.776H311.846V298.502H313.507ZM322.151 298.502V293.165H323.458V291.776H322.151V289.68H320.49V291.776H319.197V293.165H320.49V298.502H322.151ZM327.433 298.679C329.189 298.679 330.415 297.794 330.701 296.324H329.162C328.972 296.964 328.373 297.318 327.46 297.318C326.358 297.318 325.731 296.719 325.609 295.534L330.673 295.521V295.017C330.673 292.92 329.394 291.572 327.379 291.572C325.404 291.572 324.029 293.029 324.029 295.139C324.029 297.222 325.432 298.679 327.433 298.679ZM327.392 292.934C328.386 292.934 329.026 293.546 329.026 294.472H325.65C325.813 293.465 326.412 292.934 327.392 292.934ZM336.223 291.749C335.951 291.681 335.72 291.654 335.488 291.654C334.59 291.654 333.95 292.103 333.664 292.77L333.569 291.79H332.003V298.502H333.664V295.235C333.664 293.928 334.413 293.288 335.611 293.288H336.223V291.749ZM339.009 298.502V294.881C339.009 293.791 339.635 293.083 340.656 293.083C341.514 293.083 342.072 293.628 342.072 294.758V298.502H343.733V294.363C343.733 292.621 342.862 291.572 341.174 291.572C340.261 291.572 339.444 291.967 339.022 292.648L338.886 291.776H337.348V298.502H339.009Z" fill="#284B64"/>
<path d="M352.37 301.103C351.131 299.414 350.464 296.909 350.464 294.499C350.464 291.858 351.24 289.448 352.37 287.91H351.05C349.552 289.612 348.79 292.117 348.79 294.499C348.79 297.113 349.688 299.551 351.05 301.103H352.37ZM355.086 290.115V298.502H356.761V288.55H352.908V290.115H355.086ZM361.396 293.574C362.785 293.574 363.438 294.309 363.438 295.316C363.438 296.419 362.717 297.127 361.627 297.127C360.565 297.127 359.857 296.474 359.857 295.33H358.142C358.142 297.481 359.653 298.679 361.6 298.679C363.615 298.679 365.208 297.386 365.208 295.344C365.208 293.587 364.024 292.471 362.499 292.171L364.922 289.938V288.55H358.605V290.088H362.744L360.184 292.444V293.574H361.396ZM371.285 290.973C371.285 289.448 370.196 288.359 368.684 288.359C367.173 288.359 366.084 289.448 366.084 290.973C366.084 292.512 367.173 293.587 368.684 293.587C370.196 293.587 371.285 292.512 371.285 290.973ZM376.745 288.563H375.083L367.527 298.502H369.188L376.745 288.563ZM369.964 290.973C369.964 291.763 369.447 292.307 368.684 292.307C367.936 292.307 367.418 291.763 367.418 290.973C367.418 290.183 367.922 289.639 368.684 289.639C369.447 289.639 369.964 290.183 369.964 290.973ZM378.201 296.065C378.201 294.54 377.126 293.451 375.614 293.451C374.09 293.451 373.014 294.54 373.014 296.065C373.014 297.59 374.09 298.679 375.614 298.679C377.126 298.679 378.201 297.59 378.201 296.065ZM376.881 296.065C376.881 296.855 376.363 297.399 375.614 297.399C374.852 297.399 374.335 296.855 374.335 296.065C374.335 295.275 374.852 294.731 375.614 294.731C376.363 294.731 376.881 295.275 376.881 296.065ZM379.998 301.103C381.36 299.551 382.272 297.113 382.272 294.499C382.272 292.117 381.496 289.612 379.998 287.91H378.678C379.808 289.448 380.584 291.858 380.584 294.499C380.584 296.909 379.93 299.414 378.678 301.103H379.998Z" fill="#BEC9D0"/>
<path d="M450.058 290.115V298.502H451.732V288.55H447.879V290.115H450.058ZM456.367 293.574C457.756 293.574 458.41 294.309 458.41 295.316C458.41 296.419 457.688 297.127 456.599 297.127C455.537 297.127 454.829 296.474 454.829 295.33H453.113C453.113 297.481 454.625 298.679 456.572 298.679C458.587 298.679 460.18 297.386 460.18 295.344C460.18 293.587 458.995 292.471 457.47 292.171L459.894 289.938V288.55H453.576V290.088H457.715L455.156 292.444V293.574H456.367Z" fill="#284B64"/>
<circle cx="296.828" cy="294.564" r="3.40373" fill="#4EB1F9"/>
<path d="M313.589 388.034V386.468H309.885V383.759H314.297V382.152H308.143V392.105H309.885V388.034H313.589ZM319.771 385.379V388.905C319.771 390.185 319.267 390.798 318.219 390.798C317.293 390.798 316.79 390.28 316.79 389.001V385.379H315.129V389.586C315.129 391.233 316.041 392.282 317.593 392.282C318.491 392.282 319.363 391.846 319.771 391.206L319.894 392.105H321.432V385.379H319.771ZM324.822 392.105V381.975H323.175V392.105H324.822ZM328.239 392.105V381.975H326.592V392.105H328.239ZM333.025 383.759H335.939V392.105H337.682V383.759H340.595V382.152H333.025V383.759ZM342.513 384.031C343.057 384.031 343.507 383.582 343.507 383.024C343.507 382.465 343.057 382.03 342.513 382.03C341.941 382.03 341.492 382.465 341.492 383.024C341.492 383.582 341.941 384.031 342.513 384.031ZM341.682 392.105H343.343V385.379H341.682V392.105ZM346.72 392.105V388.293C346.72 387.203 347.36 386.686 348.15 386.686C348.94 386.686 349.443 387.19 349.443 388.129V392.105H351.104V388.293C351.104 387.19 351.717 386.672 352.52 386.672C353.31 386.672 353.827 387.176 353.827 388.143V392.105H355.475V387.707C355.475 386.155 354.576 385.175 352.942 385.175C351.921 385.175 351.132 385.678 350.791 386.455C350.437 385.678 349.729 385.175 348.708 385.175C347.741 385.175 347.061 385.61 346.72 386.169L346.584 385.379H345.059V392.105H346.72ZM360.114 392.282C361.871 392.282 363.096 391.397 363.382 389.926H361.843C361.653 390.566 361.054 390.92 360.141 390.92C359.039 390.92 358.412 390.321 358.29 389.137L363.355 389.123V388.619C363.355 386.523 362.075 385.175 360.06 385.175C358.086 385.175 356.71 386.632 356.71 388.742C356.71 390.825 358.113 392.282 360.114 392.282ZM360.073 386.536C361.067 386.536 361.707 387.149 361.707 388.075H358.331C358.494 387.067 359.093 386.536 360.073 386.536Z" fill="#284B64"/>
<path d="M371.689 394.705C370.45 393.017 369.783 390.512 369.783 388.102C369.783 385.461 370.559 383.051 371.689 381.512H370.369C368.871 383.214 368.109 385.719 368.109 388.102C368.109 390.716 369.007 393.153 370.369 394.705H371.689ZM373.685 385.079C372.569 386.591 372.174 387.462 372.174 388.66C372.174 390.702 373.781 392.282 375.932 392.282C378.056 392.282 379.635 390.798 379.635 388.674C379.635 386.659 378.246 385.216 376.191 385.216C375.945 385.216 375.687 385.256 375.442 385.325L377.824 382.152H375.837L373.685 385.079ZM373.958 388.674C373.958 387.476 374.747 386.645 375.932 386.645C377.076 386.645 377.879 387.476 377.879 388.674C377.879 389.886 377.062 390.73 375.932 390.73C374.761 390.73 373.958 389.886 373.958 388.674ZM380.699 389.286C380.699 391.097 382.183 392.268 384.484 392.268C386.798 392.268 388.282 391.084 388.282 389.286C388.282 388.088 387.601 387.122 386.553 386.754C387.438 386.386 387.928 385.638 387.928 384.671C387.928 383.051 386.553 381.975 384.511 381.975C382.455 381.975 381.053 383.064 381.053 384.644C381.053 385.61 381.529 386.359 382.401 386.754C381.366 387.149 380.699 388.102 380.699 389.286ZM382.632 384.794C382.632 383.977 383.354 383.459 384.484 383.459C385.6 383.459 386.308 383.977 386.308 384.807C386.308 385.638 385.6 386.155 384.484 386.155C383.354 386.155 382.632 385.624 382.632 384.794ZM382.401 389.164C382.401 388.197 383.204 387.598 384.484 387.598C385.763 387.598 386.567 388.197 386.567 389.164C386.567 390.131 385.763 390.73 384.497 390.73C383.204 390.73 382.401 390.131 382.401 389.164ZM394.513 384.576C394.513 383.051 393.424 381.962 391.912 381.962C390.401 381.962 389.312 383.051 389.312 384.576C389.312 386.114 390.401 387.19 391.912 387.19C393.424 387.19 394.513 386.114 394.513 384.576ZM399.972 382.166H398.311L390.755 392.105H392.416L399.972 382.166ZM393.192 384.576C393.192 385.365 392.675 385.91 391.912 385.91C391.163 385.91 390.646 385.365 390.646 384.576C390.646 383.786 391.15 383.241 391.912 383.241C392.675 383.241 393.192 383.786 393.192 384.576ZM401.429 389.668C401.429 388.143 400.353 387.054 398.842 387.054C397.317 387.054 396.242 388.143 396.242 389.668C396.242 391.193 397.317 392.282 398.842 392.282C400.353 392.282 401.429 391.193 401.429 389.668ZM400.108 389.668C400.108 390.457 399.591 391.002 398.842 391.002C398.08 391.002 397.562 390.457 397.562 389.668C397.562 388.878 398.08 388.333 398.842 388.333C399.591 388.333 400.108 388.878 400.108 389.668ZM403.226 394.705C404.588 393.153 405.5 390.716 405.5 388.102C405.5 385.719 404.724 383.214 403.226 381.512H401.905C403.035 383.051 403.811 385.461 403.811 388.102C403.811 390.512 403.158 393.017 401.905 394.705H403.226Z" fill="#BEC9D0"/>
<path d="M445.173 385.079C444.057 386.591 443.662 387.462 443.662 388.66C443.662 390.702 445.268 392.282 447.42 392.282C449.544 392.282 451.123 390.798 451.123 388.674C451.123 386.659 449.734 385.216 447.678 385.216C447.433 385.216 447.175 385.256 446.929 385.325L449.312 382.152H447.324L445.173 385.079ZM445.445 388.674C445.445 387.476 446.235 386.645 447.42 386.645C448.563 386.645 449.367 387.476 449.367 388.674C449.367 389.886 448.55 390.73 447.42 390.73C446.249 390.73 445.445 389.886 445.445 388.674ZM452.186 389.286C452.186 391.097 453.67 392.268 455.971 392.268C458.286 392.268 459.77 391.084 459.77 389.286C459.77 388.088 459.089 387.122 458.041 386.754C458.926 386.386 459.416 385.638 459.416 384.671C459.416 383.051 458.041 381.975 455.999 381.975C453.943 381.975 452.54 383.064 452.54 384.644C452.54 385.61 453.017 386.359 453.888 386.754C452.854 387.149 452.186 388.102 452.186 389.286ZM454.12 384.794C454.12 383.977 454.841 383.459 455.971 383.459C457.088 383.459 457.796 383.977 457.796 384.807C457.796 385.638 457.088 386.155 455.971 386.155C454.841 386.155 454.12 385.624 454.12 384.794ZM453.888 389.164C453.888 388.197 454.692 387.598 455.971 387.598C457.251 387.598 458.054 388.197 458.054 389.164C458.054 390.131 457.251 390.73 455.985 390.73C454.692 390.73 453.888 390.131 453.888 389.164Z" fill="#284B64"/>
<circle cx="296.828" cy="388.167" r="3.40373" fill="#FFA150"/>
<path d="M312.077 341.873C314.065 341.873 315.372 340.525 315.372 338.605C315.372 336.658 314.079 335.351 312.077 335.351H308.143V345.303H309.885V341.873H312.077ZM311.737 336.903C312.894 336.903 313.548 337.502 313.548 338.591C313.548 339.681 312.908 340.32 311.71 340.32H309.885V336.903H311.737ZM318.328 345.48C319.377 345.48 320.289 345.004 320.575 344.31L320.697 345.303H322.154V341.219C322.154 339.354 321.038 338.373 319.227 338.373C317.403 338.373 316.205 339.327 316.205 340.783H317.62C317.62 340.075 318.165 339.667 319.145 339.667C319.989 339.667 320.534 340.034 320.534 340.947V341.096L318.519 341.246C316.926 341.369 316.028 342.145 316.028 343.384C316.028 344.65 316.899 345.48 318.328 345.48ZM318.873 344.228C318.124 344.228 317.716 343.928 317.716 343.316C317.716 342.771 318.111 342.431 319.145 342.335L320.548 342.226V342.58C320.548 343.615 319.894 344.228 318.873 344.228ZM328.007 338.55C327.734 338.482 327.503 338.455 327.271 338.455C326.373 338.455 325.733 338.904 325.447 339.572L325.352 338.591H323.786V345.303H325.447V342.036C325.447 340.729 326.196 340.089 327.394 340.089H328.007V338.55ZM331.684 345.303V339.966H332.991V338.578H331.684V336.481H330.023V338.578H328.73V339.966H330.023V345.303H331.684ZM337.067 336.958H339.981V345.303H341.723V336.958H344.637V335.351H337.067V336.958ZM346.555 337.23C347.099 337.23 347.549 336.781 347.549 336.222C347.549 335.664 347.099 335.228 346.555 335.228C345.983 335.228 345.533 335.664 345.533 336.222C345.533 336.781 345.983 337.23 346.555 337.23ZM345.724 345.303H347.385V338.578H345.724V345.303ZM350.762 345.303V341.491C350.762 340.402 351.402 339.885 352.192 339.885C352.981 339.885 353.485 340.388 353.485 341.328V345.303H355.146V341.491C355.146 340.388 355.759 339.871 356.562 339.871C357.352 339.871 357.869 340.375 357.869 341.342V345.303H359.517V340.906C359.517 339.354 358.618 338.373 356.984 338.373C355.963 338.373 355.173 338.877 354.833 339.653C354.479 338.877 353.771 338.373 352.75 338.373C351.783 338.373 351.103 338.809 350.762 339.367L350.626 338.578H349.101V345.303H350.762ZM364.156 345.48C365.912 345.48 367.138 344.595 367.424 343.125H365.885C365.695 343.765 365.096 344.119 364.183 344.119C363.081 344.119 362.454 343.52 362.332 342.335L367.396 342.322V341.818C367.396 339.721 366.117 338.373 364.102 338.373C362.128 338.373 360.752 339.83 360.752 341.941C360.752 344.024 362.155 345.48 364.156 345.48ZM364.115 339.735C365.109 339.735 365.749 340.348 365.749 341.273H362.373C362.536 340.266 363.135 339.735 364.115 339.735Z" fill="#284B64"/>
<path d="M375.731 347.904C374.492 346.216 373.825 343.711 373.825 341.301C373.825 338.659 374.601 336.25 375.731 334.711H374.411C372.913 336.413 372.15 338.918 372.15 341.301C372.15 343.915 373.049 346.352 374.411 347.904H375.731ZM378.447 336.917V345.303H380.122V335.351H376.269V336.917H378.447ZM387.67 342.376C388.787 340.865 389.182 339.994 389.182 338.796C389.182 336.753 387.575 335.174 385.424 335.174C383.3 335.174 381.721 336.658 381.721 338.782C381.721 340.797 383.109 342.24 385.165 342.24C385.41 342.24 385.669 342.199 385.914 342.131L383.531 345.303H385.519L387.67 342.376ZM387.398 338.782C387.398 339.98 386.608 340.811 385.424 340.811C384.28 340.811 383.477 339.98 383.477 338.782C383.477 337.57 384.28 336.726 385.424 336.726C386.595 336.726 387.398 337.57 387.398 338.782ZM395.337 337.774C395.337 336.25 394.248 335.16 392.737 335.16C391.225 335.16 390.136 336.25 390.136 337.774C390.136 339.313 391.225 340.388 392.737 340.388C394.248 340.388 395.337 339.313 395.337 337.774ZM400.797 335.365H399.136L391.579 345.303H393.24L400.797 335.365ZM394.016 337.774C394.016 338.564 393.499 339.109 392.737 339.109C391.988 339.109 391.47 338.564 391.47 337.774C391.47 336.985 391.974 336.44 392.737 336.44C393.499 336.44 394.016 336.985 394.016 337.774ZM402.253 342.866C402.253 341.342 401.178 340.252 399.667 340.252C398.142 340.252 397.066 341.342 397.066 342.866C397.066 344.391 398.142 345.48 399.667 345.48C401.178 345.48 402.253 344.391 402.253 342.866ZM400.933 342.866C400.933 343.656 400.415 344.201 399.667 344.201C398.904 344.201 398.387 343.656 398.387 342.866C398.387 342.077 398.904 341.532 399.667 341.532C400.415 341.532 400.933 342.077 400.933 342.866ZM404.05 347.904C405.412 346.352 406.324 343.915 406.324 341.301C406.324 338.918 405.548 336.413 404.05 334.711H402.73C403.86 336.25 404.636 338.659 404.636 341.301C404.636 343.711 403.982 346.216 402.73 347.904H404.05Z" fill="#BEC9D0"/>
<path d="M448.515 336.917V345.303H450.189V335.351H446.336V336.917H448.515ZM457.738 342.376C458.854 340.865 459.249 339.994 459.249 338.796C459.249 336.753 457.643 335.174 455.492 335.174C453.368 335.174 451.788 336.658 451.788 338.782C451.788 340.797 453.177 342.24 455.233 342.24C455.478 342.24 455.737 342.199 455.982 342.131L453.599 345.303H455.587L457.738 342.376ZM457.466 338.782C457.466 339.98 456.676 340.811 455.492 340.811C454.348 340.811 453.545 339.98 453.545 338.782C453.545 337.57 454.348 336.726 455.492 336.726C456.662 336.726 457.466 337.57 457.466 338.782Z" fill="#284B64"/>
<circle cx="296.828" cy="341.366" r="3.40373" fill="#62D26F"/>
<line x1="293.425" y1="316.263" x2="459.356" y2="316.263" stroke="#D4DBE0" stroke-width="0.850932"/>
<line x1="293.425" y1="363.064" x2="459.356" y2="363.064" stroke="#D4DBE0" stroke-width="0.850932"/>
<g filter="url(#filter5_ddd_901_4690)">
<rect x="490.84" y="263.08" width="182.95" height="154.019" rx="12.764" fill="white"/>
</g>
<rect x="501.477" y="297.543" width="161.677" height="108.919" rx="6.38199" stroke="#D4DBE0" stroke-width="0.850932"/>
<path d="M509.761 284.22V282.654H506.058V279.945H510.469V278.339H504.315V288.291H506.058V284.22H509.761ZM512.625 280.217C513.17 280.217 513.619 279.768 513.619 279.21C513.619 278.652 513.17 278.216 512.625 278.216C512.053 278.216 511.604 278.652 511.604 279.21C511.604 279.768 512.053 280.217 512.625 280.217ZM511.795 288.291H513.456V281.565H511.795V288.291ZM516.343 288.291L517.759 286.072L519.188 288.291H521.094L518.875 284.969L521.162 281.565H519.297L517.868 283.853L516.384 281.565H514.45L516.765 284.996L514.45 288.291H516.343ZM524.855 288.468C526.612 288.468 527.837 287.583 528.123 286.113H526.584C526.394 286.753 525.795 287.107 524.883 287.107C523.78 287.107 523.153 286.507 523.031 285.323L528.096 285.309V284.806C528.096 282.709 526.816 281.361 524.801 281.361C522.827 281.361 521.452 282.818 521.452 284.928C521.452 287.011 522.854 288.468 524.855 288.468ZM524.814 282.723C525.808 282.723 526.448 283.335 526.448 284.261H523.072C523.235 283.253 523.834 282.723 524.814 282.723ZM532.189 288.468C533.21 288.468 534.081 288.019 534.49 287.243L534.599 288.291H536.124V278.162H534.476V282.423C534.054 281.756 533.224 281.361 532.284 281.361C530.256 281.361 529.03 282.859 529.03 284.955C529.03 287.038 530.242 288.468 532.189 288.468ZM532.556 286.943C531.399 286.943 530.691 286.099 530.691 284.901C530.691 283.703 531.399 282.845 532.556 282.845C533.714 282.845 534.463 283.689 534.463 284.901C534.463 286.113 533.714 286.943 532.556 286.943ZM543.43 288.291H545.064L547.869 281.565H546.153L544.928 284.656C544.642 285.391 544.397 286.099 544.302 286.521C544.22 286.153 543.988 285.459 543.703 284.656L542.532 281.565H540.762L543.43 288.291ZM548.16 286.249C548.16 287.569 549.222 288.468 550.897 288.468C552.558 288.468 553.715 287.624 553.715 286.262C553.715 285.228 553.143 284.71 552.013 284.452L550.801 284.166C550.229 284.03 549.93 283.784 549.93 283.403C549.93 282.9 550.311 282.6 550.965 282.6C551.605 282.6 551.986 282.968 551.999 283.539H553.579C553.565 282.232 552.544 281.361 551.033 281.361C549.481 281.361 548.364 282.151 548.364 283.471C548.364 284.547 548.95 285.119 550.161 285.391L551.373 285.677C551.972 285.813 552.149 286.058 552.149 286.399C552.149 286.889 551.727 287.202 550.951 287.202C550.189 287.202 549.753 286.834 549.739 286.249H548.16ZM556.056 288.454C556.655 288.454 557.159 287.964 557.159 287.379C557.159 286.78 556.655 286.29 556.056 286.29C555.457 286.29 554.953 286.78 554.953 287.379C554.953 287.964 555.457 288.454 556.056 288.454ZM564.559 278.339H562.817V288.291H564.559V278.339ZM568.181 288.291V284.669C568.181 283.58 568.808 282.872 569.829 282.872C570.686 282.872 571.245 283.417 571.245 284.547V288.291H572.906V284.152C572.906 282.409 572.034 281.361 570.346 281.361C569.434 281.361 568.617 281.756 568.195 282.437L568.059 281.565H566.52V288.291H568.181ZM577.302 288.468C578.323 288.468 579.194 288.019 579.602 287.243L579.711 288.291H581.236V278.162H579.589V282.423C579.167 281.756 578.336 281.361 577.397 281.361C575.368 281.361 574.143 282.859 574.143 284.955C574.143 287.038 575.355 288.468 577.302 288.468ZM577.669 286.943C576.512 286.943 575.804 286.099 575.804 284.901C575.804 283.703 576.512 282.845 577.669 282.845C578.826 282.845 579.575 283.689 579.575 284.901C579.575 286.113 578.826 286.943 577.669 286.943ZM585.976 288.468C587.732 288.468 588.958 287.583 589.244 286.113H587.705C587.515 286.753 586.916 287.107 586.003 287.107C584.901 287.107 584.274 286.507 584.152 285.323L589.216 285.309V284.806C589.216 282.709 587.937 281.361 585.922 281.361C583.947 281.361 582.572 282.818 582.572 284.928C582.572 287.011 583.975 288.468 585.976 288.468ZM585.935 282.723C586.929 282.723 587.569 283.335 587.569 284.261H584.193C584.356 283.253 584.955 282.723 585.935 282.723ZM595.243 288.291H596.904V281.565H592.493V280.748C592.493 280.081 592.683 279.646 593.432 279.646H594.018V278.23C593.732 278.175 593.419 278.162 593.16 278.162C591.798 278.162 590.845 278.924 590.845 280.748V281.565H589.879V282.954H590.845V288.291H592.493V282.954H595.243V288.291ZM596.073 280.19C596.618 280.19 597.054 279.754 597.054 279.196C597.054 278.652 596.618 278.216 596.073 278.216C595.515 278.216 595.08 278.652 595.08 279.196C595.08 279.754 595.515 280.19 596.073 280.19ZM600.277 288.291V284.669C600.277 283.58 600.904 282.872 601.925 282.872C602.783 282.872 603.341 283.417 603.341 284.547V288.291H605.002V284.152C605.002 282.409 604.13 281.361 602.442 281.361C601.53 281.361 600.713 281.756 600.291 282.437L600.155 281.565H598.616V288.291H600.277ZM607.464 280.217C608.009 280.217 608.458 279.768 608.458 279.21C608.458 278.652 608.009 278.216 607.464 278.216C606.892 278.216 606.443 278.652 606.443 279.21C606.443 279.768 606.892 280.217 607.464 280.217ZM606.634 288.291H608.295V281.565H606.634V288.291ZM612.298 288.291V282.954H613.605V281.565H612.298V279.469H610.637V281.565H609.344V282.954H610.637V288.291H612.298ZM617.58 288.468C619.337 288.468 620.562 287.583 620.848 286.113H619.309C619.119 286.753 618.52 287.107 617.607 287.107C616.505 287.107 615.878 286.507 615.756 285.323L620.821 285.309V284.806C620.821 282.709 619.541 281.361 617.526 281.361C615.552 281.361 614.177 282.818 614.177 284.928C614.177 287.011 615.579 288.468 617.58 288.468ZM617.539 282.723C618.533 282.723 619.173 283.335 619.173 284.261H615.797C615.96 283.253 616.559 282.723 617.539 282.723Z" fill="#043344"/>
<path d="M539.13 361.029V369.13H541.24V359.055H536.843V361.029H539.13ZM544.807 361.029V369.13H546.918V359.055H542.52V361.029H544.807Z" fill="#043344"/>
<path d="M521.6 391.832V398.316H522.56V390.933H520.048V391.832H521.6ZM528.863 398.306V397.376H525.453L526.984 396.049C528.291 394.916 528.812 394.17 528.812 393.118C528.812 391.699 527.863 390.8 526.382 390.8C524.881 390.8 523.88 391.832 523.85 393.415H524.85C524.871 392.363 525.463 391.699 526.372 391.699C527.26 391.699 527.791 392.25 527.791 393.18C527.791 393.966 527.454 394.466 526.259 395.498L523.88 397.55V398.316L528.863 398.306ZM533.44 392.679C533.44 391.577 532.664 390.79 531.571 390.79C530.489 390.79 529.713 391.577 529.713 392.679C529.713 393.772 530.489 394.558 531.571 394.558C532.664 394.558 533.44 393.772 533.44 392.679ZM537.33 390.943H536.35L530.744 398.316H531.724L537.33 390.943ZM532.654 392.679C532.654 393.333 532.204 393.792 531.571 393.792C530.938 393.792 530.499 393.333 530.499 392.679C530.499 392.016 530.938 391.556 531.571 391.556C532.214 391.556 532.654 392.016 532.654 392.679ZM538.382 396.57C538.382 395.467 537.596 394.691 536.513 394.691C535.431 394.691 534.645 395.467 534.645 396.57C534.645 397.662 535.431 398.449 536.513 398.449C537.596 398.449 538.382 397.662 538.382 396.57ZM537.586 396.57C537.586 397.223 537.146 397.683 536.513 397.683C535.88 397.683 535.441 397.223 535.441 396.57C535.441 395.906 535.88 395.447 536.513 395.447C537.157 395.447 537.586 395.906 537.586 396.57ZM546.348 395.181V394.272H543.448V391.852H546.899V390.933H542.447V398.316H543.448V395.181H546.348ZM548.417 392.138C548.764 392.138 549.05 391.852 549.05 391.505C549.05 391.148 548.764 390.872 548.417 390.872C548.07 390.872 547.784 391.148 547.784 391.505C547.784 391.852 548.07 392.138 548.417 392.138ZM547.948 398.316H548.907V393.323H547.948V398.316ZM550.811 398.316L552.037 396.488L553.283 398.316H554.396L552.69 395.845L554.426 393.323H553.334L552.098 395.181L550.832 393.323H549.719L551.455 395.845L549.709 398.316H550.811ZM557.192 398.438C558.428 398.438 559.265 397.836 559.51 396.764H558.611C558.448 397.336 557.958 397.642 557.212 397.642C556.263 397.642 555.711 397.06 555.64 396.008L559.5 395.998V395.641C559.5 394.16 558.571 393.18 557.151 393.18C555.701 393.18 554.711 394.262 554.711 395.824C554.711 397.376 555.722 398.438 557.192 398.438ZM557.151 393.986C557.999 393.986 558.54 394.538 558.54 395.365H555.66C555.783 394.487 556.314 393.986 557.151 393.986ZM562.573 398.438C563.37 398.438 564.044 398.091 564.37 397.407L564.452 398.316H565.31V390.8H564.36V394.129C564.023 393.517 563.38 393.18 562.614 393.18C561.134 393.18 560.245 394.303 560.245 395.835C560.245 397.356 561.123 398.438 562.573 398.438ZM562.767 397.571C561.787 397.571 561.215 396.835 561.215 395.804C561.215 394.783 561.787 394.048 562.767 394.048C563.748 394.048 564.35 394.783 564.35 395.804C564.35 396.846 563.748 397.571 562.767 397.571Z" fill="#BEC9D0"/>
<path fill-rule="evenodd" clip-rule="evenodd" d="M551.237 310.165C550.684 310.719 550.684 311.617 551.237 312.171L554.195 315.129C554.749 315.683 555.647 315.683 556.201 315.129C556.755 314.575 556.755 313.677 556.201 313.123L553.243 310.165C552.689 309.611 551.791 309.611 551.237 310.165ZM542.019 338.529C534.186 338.529 527.837 332.18 527.837 324.347C527.837 316.514 534.186 310.165 542.019 310.165C549.852 310.165 556.201 316.514 556.201 324.347C556.201 332.18 549.852 338.529 542.019 338.529ZM542.019 335.693C548.285 335.693 553.365 330.613 553.365 324.347C553.365 318.081 548.285 313.001 542.019 313.001C535.753 313.001 530.673 318.081 530.673 324.347C530.673 330.613 535.753 335.693 542.019 335.693ZM530.795 310.165C531.349 309.611 532.247 309.611 532.801 310.165C533.354 310.719 533.354 311.617 532.801 312.171L529.842 315.129C529.289 315.683 528.391 315.683 527.837 315.129C527.283 314.575 527.283 313.677 527.837 313.123L530.795 310.165ZM533.51 324.347C533.51 319.638 537.321 315.838 542.019 315.838V324.347H533.51Z" fill="#FFA150"/>
<path d="M614.515 359.055V361.097H619.77L616.23 369.13H618.517L621.989 361.097V359.055H614.515ZM623.869 361.764C622.644 363.439 622.194 364.351 622.194 365.59C622.194 367.7 623.842 369.307 626.102 369.307C628.335 369.307 629.955 367.809 629.955 365.603C629.955 363.534 628.539 362.104 626.469 362.104C626.333 362.104 626.197 362.118 626.061 362.145L628.362 359.055H625.843L623.869 361.764ZM624.454 365.617C624.454 364.582 625.108 363.888 626.102 363.888C627.068 363.888 627.722 364.582 627.722 365.617C627.722 366.652 627.055 367.36 626.102 367.36C625.121 367.36 624.454 366.652 624.454 365.617Z" fill="#043344"/>
<path d="M590.334 396.263C590.334 397.571 591.406 398.438 593.05 398.438C594.684 398.438 595.766 397.571 595.766 396.274C595.766 395.365 595.235 394.63 594.408 394.364C595.103 394.088 595.491 393.506 595.491 392.751C595.491 391.587 594.51 390.8 593.06 390.8C591.59 390.8 590.6 391.587 590.6 392.741C590.6 393.486 590.977 394.068 591.672 394.364C590.855 394.66 590.334 395.375 590.334 396.263ZM591.519 392.802C591.519 392.118 592.121 391.668 593.04 391.668C593.969 391.668 594.551 392.118 594.551 392.822C594.551 393.537 593.969 393.997 593.04 393.997C592.121 393.997 591.519 393.527 591.519 392.802ZM591.314 396.192C591.314 395.375 591.988 394.854 593.04 394.854C594.102 394.854 594.776 395.375 594.776 396.192C594.776 397.019 594.092 397.55 593.05 397.55C591.998 397.55 591.314 397.019 591.314 396.192ZM597.966 391.832V398.316H598.926V390.933H596.414V391.832H597.966ZM603.932 392.679C603.932 391.577 603.156 390.79 602.063 390.79C600.981 390.79 600.205 391.577 600.205 392.679C600.205 393.772 600.981 394.558 602.063 394.558C603.156 394.558 603.932 393.772 603.932 392.679ZM607.823 390.943H606.842L601.236 398.316H602.217L607.823 390.943ZM603.146 392.679C603.146 393.333 602.697 393.792 602.063 393.792C601.43 393.792 600.991 393.333 600.991 392.679C600.991 392.016 601.43 391.556 602.063 391.556C602.707 391.556 603.146 392.016 603.146 392.679ZM608.874 396.57C608.874 395.467 608.088 394.691 607.006 394.691C605.923 394.691 605.137 395.467 605.137 396.57C605.137 397.662 605.923 398.449 607.006 398.449C608.088 398.449 608.874 397.662 608.874 396.57ZM608.078 396.57C608.078 397.223 607.639 397.683 607.006 397.683C606.373 397.683 605.933 397.223 605.933 396.57C605.933 395.906 606.373 395.447 607.006 395.447C607.649 395.447 608.078 395.906 608.078 396.57ZM613.94 390.933H612.939V398.316H613.94V390.933ZM616.458 398.316V395.671C616.458 394.701 616.979 394.058 617.877 394.058C618.612 394.058 619.082 394.466 619.082 395.477V398.316H620.042V395.263C620.042 393.986 619.44 393.18 618.122 393.18C617.418 393.18 616.785 393.517 616.468 394.088L616.366 393.323H615.498V398.316H616.458ZM623.373 398.438C624.169 398.438 624.843 398.091 625.17 397.407L625.252 398.316H626.109V390.8H625.16V394.129C624.823 393.517 624.18 393.18 623.414 393.18C621.933 393.18 621.045 394.303 621.045 395.835C621.045 397.356 621.923 398.438 623.373 398.438ZM623.567 397.571C622.587 397.571 622.015 396.835 622.015 395.804C622.015 394.783 622.587 394.048 623.567 394.048C624.547 394.048 625.15 394.783 625.15 395.804C625.15 396.846 624.547 397.571 623.567 397.571ZM629.649 398.438C630.884 398.438 631.722 397.836 631.967 396.764H631.068C630.905 397.336 630.415 397.642 629.669 397.642C628.72 397.642 628.168 397.06 628.097 396.008L631.956 395.998V395.641C631.956 394.16 631.027 393.18 629.608 393.18C628.158 393.18 627.167 394.262 627.167 395.824C627.167 397.376 628.178 398.438 629.649 398.438ZM629.608 393.986C630.455 393.986 630.997 394.538 630.997 395.365H628.117C628.24 394.487 628.771 393.986 629.608 393.986ZM636.408 398.316H637.368V393.323H634.193V392.526C634.193 391.985 634.346 391.668 634.928 391.668H635.357V390.841C635.173 390.811 634.948 390.8 634.764 390.8C633.897 390.8 633.233 391.301 633.233 392.526V393.323H632.498V394.129H633.233V398.316H634.193V394.129H636.408V398.316ZM636.888 392.097C637.225 392.097 637.491 391.832 637.491 391.485C637.491 391.137 637.225 390.872 636.888 390.872C636.541 390.872 636.276 391.137 636.276 391.485C636.276 391.832 636.541 392.097 636.888 392.097ZM639.692 398.316V395.671C639.692 394.701 640.213 394.058 641.112 394.058C641.847 394.058 642.317 394.466 642.317 395.477V398.316H643.276V395.263C643.276 393.986 642.674 393.18 641.357 393.18C640.652 393.18 640.019 393.517 639.703 394.088L639.6 393.323H638.732V398.316H639.692ZM645.076 392.138C645.423 392.138 645.709 391.852 645.709 391.505C645.709 391.148 645.423 390.872 645.076 390.872C644.728 390.872 644.443 391.148 644.443 391.505C644.443 391.852 644.728 392.138 645.076 392.138ZM644.606 398.316H645.566V393.323H644.606V398.316ZM648.368 398.316V394.129H649.349V393.323H648.368V391.76H647.409V393.323H646.428V394.129H647.409V398.316H648.368ZM652.315 398.438C653.55 398.438 654.388 397.836 654.633 396.764H653.734C653.571 397.336 653.081 397.642 652.335 397.642C651.386 397.642 650.834 397.06 650.763 396.008L654.623 395.998V395.641C654.623 394.16 653.693 393.18 652.274 393.18C650.824 393.18 649.833 394.262 649.833 395.824C649.833 397.376 650.844 398.438 652.315 398.438ZM652.274 393.986C653.121 393.986 653.663 394.538 653.663 395.365H650.783C650.906 394.487 651.437 393.986 652.274 393.986Z" fill="#BEC9D0"/>
<path fill-rule="evenodd" clip-rule="evenodd" d="M624.707 320.793C624.181 319.816 623.669 319.004 623.135 318.338C623.316 318.153 623.47 317.998 623.562 317.91C625.093 316.452 626.601 315.838 629.11 315.838C633.671 315.838 637.619 319.523 637.619 324.347C637.619 329.171 633.671 332.856 629.11 332.856C625.064 332.856 623.346 330.752 620.726 324.929C618.559 320.115 617.382 318.674 614.928 318.674C611.735 318.674 609.255 321.323 609.255 324.347C609.255 327.384 611.715 330.02 614.928 330.02C616.407 330.02 618.176 329.431 619.72 328.598C620.269 329.542 620.812 330.308 621.39 330.916C619.401 332.049 617.071 332.856 614.928 332.856C610.104 332.856 606.418 328.908 606.418 324.347C606.418 319.797 610.126 315.838 614.928 315.838C618.973 315.838 620.692 317.942 623.312 323.765C625.478 328.579 626.655 330.02 629.11 330.02C632.147 330.02 634.783 327.559 634.783 324.347C634.783 321.135 632.147 318.674 629.11 318.674C627.336 318.674 626.526 319.004 625.518 319.964C625.385 320.091 625.053 320.433 624.707 320.793V320.793Z" fill="#4EB1F9"/>
<mask id="mask0_901_4690" style="mask-type:luminance" maskUnits="userSpaceOnUse" x="606" y="315" width="32" height="18">
<path fill-rule="evenodd" clip-rule="evenodd" d="M624.707 320.793C624.181 319.816 623.669 319.004 623.135 318.338C623.316 318.153 623.47 317.998 623.562 317.91C625.093 316.452 626.601 315.838 629.11 315.838C633.671 315.838 637.619 319.523 637.619 324.347C637.619 329.171 633.671 332.856 629.11 332.856C625.064 332.856 623.346 330.752 620.726 324.929C618.559 320.115 617.382 318.674 614.928 318.674C611.735 318.674 609.255 321.323 609.255 324.347C609.255 327.384 611.715 330.02 614.928 330.02C616.407 330.02 618.176 329.431 619.72 328.598C620.269 329.542 620.812 330.308 621.39 330.916C619.401 332.049 617.071 332.856 614.928 332.856C610.104 332.856 606.418 328.908 606.418 324.347C606.418 319.797 610.126 315.838 614.928 315.838C618.973 315.838 620.692 317.942 623.312 323.765C625.478 328.579 626.655 330.02 629.11 330.02C632.147 330.02 634.783 327.559 634.783 324.347C634.783 321.135 632.147 318.674 629.11 318.674C627.336 318.674 626.526 319.004 625.518 319.964C625.385 320.091 625.053 320.433 624.707 320.793V320.793Z" fill="white"/>
</mask>
<g mask="url(#mask0_901_4690)">
</g>
<line x1="581.462" y1="406.884" x2="582.312" y2="297.114" stroke="#D4DBE0" stroke-width="0.850932"/>
<circle cx="582.313" cy="352.002" r="10.2112" fill="white" stroke="#D4DBE0" stroke-width="0.850932"/>
<path d="M579.279 354.62H580.403L582.717 348.4H581.585L580.241 351.982C580.122 352.297 579.994 352.68 579.841 353.225C579.705 352.723 579.586 352.357 579.45 351.982L578.088 348.4H576.931L579.279 354.62ZM583.078 350.136C583.078 351.089 583.631 351.693 584.686 351.923L585.673 352.144C586.183 352.255 586.396 352.502 586.396 352.918C586.396 353.438 585.937 353.752 585.213 353.752C584.516 353.752 584.09 353.438 584.082 352.91H582.992C583.018 354.025 583.886 354.731 585.213 354.731C586.583 354.731 587.485 353.982 587.485 352.825C587.485 351.897 586.966 351.353 585.903 351.123L584.924 350.91C584.405 350.791 584.167 350.544 584.167 350.102C584.167 349.583 584.601 349.259 585.273 349.259C585.886 349.259 586.269 349.574 586.294 350.11H587.383C587.349 348.987 586.549 348.289 585.29 348.289C583.98 348.289 583.078 349.047 583.078 350.136Z" fill="#043344"/>
<defs>
<filter id="filter0_ddd_901_4690" x="90.0497" y="13.7569" width="639.901" height="468.863" filterUnits="userSpaceOnUse" color-interpolation-filters="sRGB">
<feFlood flood-opacity="0" result="BackgroundImageFix"/>
<feColorMatrix in="SourceAlpha" type="matrix" values="0 0 0 0 0 0 0 0 0 0 0 0 0 0 0 0 0 0 127 0" result="hardAlpha"/>
<feMorphology radius="5.95652" operator="erode" in="SourceAlpha" result="effect1_dropShadow_901_4690"/>
<feOffset dy="9.36025"/>
<feGaussianBlur stdDeviation="6.38199"/>
<feColorMatrix type="matrix" values="0 0 0 0 0.364706 0 0 0 0 0.447059 0 0 0 0 0.54902 0 0 0 0.16 0"/>
<feBlend mode="normal" in2="BackgroundImageFix" result="effect1_dropShadow_901_4690"/>
<feColorMatrix in="SourceAlpha" type="matrix" values="0 0 0 0 0 0 0 0 0 0 0 0 0 0 0 0 0 0 127 0" result="hardAlpha"/>
<feMorphology radius="6.80745" operator="dilate" in="SourceAlpha" result="effect2_dropShadow_901_4690"/>
<feOffset dy="7.65839"/>
<feGaussianBlur stdDeviation="19.5714"/>
<feColorMatrix type="matrix" values="0 0 0 0 0.364706 0 0 0 0 0.447059 0 0 0 0 0.54902 0 0 0 0.08 0"/>
<feBlend mode="normal" in2="effect1_dropShadow_901_4690" result="effect2_dropShadow_901_4690"/>
<feColorMatrix in="SourceAlpha" type="matrix" values="0 0 0 0 0 0 0 0 0 0 0 0 0 0 0 0 0 0 127 0" result="hardAlpha"/>
<feMorphology radius="2.5528" operator="dilate" in="SourceAlpha" result="effect3_dropShadow_901_4690"/>
<feOffset dy="20.4224"/>
<feGaussianBlur stdDeviation="16.1677"/>
<feColorMatrix type="matrix" values="0 0 0 0 0.364706 0 0 0 0 0.447059 0 0 0 0 0.54902 0 0 0 0.1 0"/>
<feBlend mode="normal" in2="effect2_dropShadow_901_4690" result="effect3_dropShadow_901_4690"/>
<feBlend mode="normal" in="SourceGraphic" in2="effect3_dropShadow_901_4690" result="shape"/>
</filter>
<filter id="filter1_ddd_901_4690" x="100.261" y="23.9681" width="274.851" height="283.36" filterUnits="userSpaceOnUse" color-interpolation-filters="sRGB">
<feFlood flood-opacity="0" result="BackgroundImageFix"/>
<feColorMatrix in="SourceAlpha" type="matrix" values="0 0 0 0 0 0 0 0 0 0 0 0 0 0 0 0 0 0 127 0" result="hardAlpha"/>
<feMorphology radius="5.95652" operator="erode" in="SourceAlpha" result="effect1_dropShadow_901_4690"/>
<feOffset dy="9.36025"/>
<feGaussianBlur stdDeviation="6.38199"/>
<feColorMatrix type="matrix" values="0 0 0 0 0.364706 0 0 0 0 0.447059 0 0 0 0 0.54902 0 0 0 0.16 0"/>
<feBlend mode="normal" in2="BackgroundImageFix" result="effect1_dropShadow_901_4690"/>
<feColorMatrix in="SourceAlpha" type="matrix" values="0 0 0 0 0 0 0 0 0 0 0 0 0 0 0 0 0 0 127 0" result="hardAlpha"/>
<feMorphology radius="6.80745" operator="dilate" in="SourceAlpha" result="effect2_dropShadow_901_4690"/>
<feOffset dy="7.65839"/>
<feGaussianBlur stdDeviation="19.5714"/>
<feColorMatrix type="matrix" values="0 0 0 0 0.364706 0 0 0 0 0.447059 0 0 0 0 0.54902 0 0 0 0.08 0"/>
<feBlend mode="normal" in2="effect1_dropShadow_901_4690" result="effect2_dropShadow_901_4690"/>
<feColorMatrix in="SourceAlpha" type="matrix" values="0 0 0 0 0 0 0 0 0 0 0 0 0 0 0 0 0 0 127 0" result="hardAlpha"/>
<feMorphology radius="2.5528" operator="dilate" in="SourceAlpha" result="effect3_dropShadow_901_4690"/>
<feOffset dy="20.4224"/>
<feGaussianBlur stdDeviation="16.1677"/>
<feColorMatrix type="matrix" values="0 0 0 0 0.364706 0 0 0 0 0.447059 0 0 0 0 0.54902 0 0 0 0.1 0"/>
<feBlend mode="normal" in2="effect2_dropShadow_901_4690" result="effect3_dropShadow_901_4690"/>
<feBlend mode="normal" in="SourceGraphic" in2="effect3_dropShadow_901_4690" result="shape"/>
</filter>
<filter id="filter2_ddd_901_4690" x="126.64" y="84.3843" width="222.093" height="193.162" filterUnits="userSpaceOnUse" color-interpolation-filters="sRGB">
<feFlood flood-opacity="0" result="BackgroundImageFix"/>
<feColorMatrix in="SourceAlpha" type="matrix" values="0 0 0 0 0 0 0 0 0 0 0 0 0 0 0 0 0 0 127 0" result="hardAlpha"/>
<feMorphology radius="4.25466" operator="erode" in="SourceAlpha" result="effect1_dropShadow_901_4690"/>
<feOffset dy="6.80745"/>
<feGaussianBlur stdDeviation="4.25466"/>
<feColorMatrix type="matrix" values="0 0 0 0 0.364706 0 0 0 0 0.447059 0 0 0 0 0.54902 0 0 0 0.16 0"/>
<feBlend mode="normal" in2="BackgroundImageFix" result="effect1_dropShadow_901_4690"/>
<feColorMatrix in="SourceAlpha" type="matrix" values="0 0 0 0 0 0 0 0 0 0 0 0 0 0 0 0 0 0 127 0" result="hardAlpha"/>
<feMorphology radius="4.25466" operator="dilate" in="SourceAlpha" result="effect2_dropShadow_901_4690"/>
<feOffset dy="5.10559"/>
<feGaussianBlur stdDeviation="12.764"/>
<feColorMatrix type="matrix" values="0 0 0 0 0.364706 0 0 0 0 0.447059 0 0 0 0 0.54902 0 0 0 0.08 0"/>
<feBlend mode="normal" in2="effect1_dropShadow_901_4690" result="effect2_dropShadow_901_4690"/>
<feColorMatrix in="SourceAlpha" type="matrix" values="0 0 0 0 0 0 0 0 0 0 0 0 0 0 0 0 0 0 127 0" result="hardAlpha"/>
<feMorphology radius="1.70186" operator="dilate" in="SourceAlpha" result="effect3_dropShadow_901_4690"/>
<feOffset dy="13.6149"/>
<feGaussianBlur stdDeviation="10.2112"/>
<feColorMatrix type="matrix" values="0 0 0 0 0.364706 0 0 0 0 0.447059 0 0 0 0 0.54902 0 0 0 0.1 0"/>
<feBlend mode="normal" in2="effect2_dropShadow_901_4690" result="effect3_dropShadow_901_4690"/>
<feBlend mode="normal" in="SourceGraphic" in2="effect3_dropShadow_901_4690" result="shape"/>
</filter>
<filter id="filter3_ddd_901_4690" x="293.423" y="23.9681" width="426.317" height="284.211" filterUnits="userSpaceOnUse" color-interpolation-filters="sRGB">
<feFlood flood-opacity="0" result="BackgroundImageFix"/>
<feColorMatrix in="SourceAlpha" type="matrix" values="0 0 0 0 0 0 0 0 0 0 0 0 0 0 0 0 0 0 127 0" result="hardAlpha"/>
<feMorphology radius="5.95652" operator="erode" in="SourceAlpha" result="effect1_dropShadow_901_4690"/>
<feOffset dy="9.36025"/>
<feGaussianBlur stdDeviation="6.38199"/>
<feColorMatrix type="matrix" values="0 0 0 0 0.364706 0 0 0 0 0.447059 0 0 0 0 0.54902 0 0 0 0.16 0"/>
<feBlend mode="normal" in2="BackgroundImageFix" result="effect1_dropShadow_901_4690"/>
<feColorMatrix in="SourceAlpha" type="matrix" values="0 0 0 0 0 0 0 0 0 0 0 0 0 0 0 0 0 0 127 0" result="hardAlpha"/>
<feMorphology radius="6.80745" operator="dilate" in="SourceAlpha" result="effect2_dropShadow_901_4690"/>
<feOffset dy="7.65839"/>
<feGaussianBlur stdDeviation="19.5714"/>
<feColorMatrix type="matrix" values="0 0 0 0 0.364706 0 0 0 0 0.447059 0 0 0 0 0.54902 0 0 0 0.08 0"/>
<feBlend mode="normal" in2="effect1_dropShadow_901_4690" result="effect2_dropShadow_901_4690"/>
<feColorMatrix in="SourceAlpha" type="matrix" values="0 0 0 0 0 0 0 0 0 0 0 0 0 0 0 0 0 0 127 0" result="hardAlpha"/>
<feMorphology radius="2.5528" operator="dilate" in="SourceAlpha" result="effect3_dropShadow_901_4690"/>
<feOffset dy="20.4224"/>
<feGaussianBlur stdDeviation="16.1677"/>
<feColorMatrix type="matrix" values="0 0 0 0 0.364706 0 0 0 0 0.447059 0 0 0 0 0.54902 0 0 0 0.1 0"/>
<feBlend mode="normal" in2="effect2_dropShadow_901_4690" result="effect3_dropShadow_901_4690"/>
<feBlend mode="normal" in="SourceGraphic" in2="effect3_dropShadow_901_4690" result="shape"/>
</filter>
<filter id="filter4_ddd_901_4690" x="100.261" y="224.788" width="426.317" height="247.621" filterUnits="userSpaceOnUse" color-interpolation-filters="sRGB">
<feFlood flood-opacity="0" result="BackgroundImageFix"/>
<feColorMatrix in="SourceAlpha" type="matrix" values="0 0 0 0 0 0 0 0 0 0 0 0 0 0 0 0 0 0 127 0" result="hardAlpha"/>
<feMorphology radius="5.95652" operator="erode" in="SourceAlpha" result="effect1_dropShadow_901_4690"/>
<feOffset dy="9.36025"/>
<feGaussianBlur stdDeviation="6.38199"/>
<feColorMatrix type="matrix" values="0 0 0 0 0.364706 0 0 0 0 0.447059 0 0 0 0 0.54902 0 0 0 0.16 0"/>
<feBlend mode="normal" in2="BackgroundImageFix" result="effect1_dropShadow_901_4690"/>
<feColorMatrix in="SourceAlpha" type="matrix" values="0 0 0 0 0 0 0 0 0 0 0 0 0 0 0 0 0 0 127 0" result="hardAlpha"/>
<feMorphology radius="6.80745" operator="dilate" in="SourceAlpha" result="effect2_dropShadow_901_4690"/>
<feOffset dy="7.65839"/>
<feGaussianBlur stdDeviation="19.5714"/>
<feColorMatrix type="matrix" values="0 0 0 0 0.364706 0 0 0 0 0.447059 0 0 0 0 0.54902 0 0 0 0.08 0"/>
<feBlend mode="normal" in2="effect1_dropShadow_901_4690" result="effect2_dropShadow_901_4690"/>
<feColorMatrix in="SourceAlpha" type="matrix" values="0 0 0 0 0 0 0 0 0 0 0 0 0 0 0 0 0 0 127 0" result="hardAlpha"/>
<feMorphology radius="2.5528" operator="dilate" in="SourceAlpha" result="effect3_dropShadow_901_4690"/>
<feOffset dy="20.4224"/>
<feGaussianBlur stdDeviation="16.1677"/>
<feColorMatrix type="matrix" values="0 0 0 0 0.364706 0 0 0 0 0.447059 0 0 0 0 0.54902 0 0 0 0.1 0"/>
<feBlend mode="normal" in2="effect2_dropShadow_901_4690" result="effect3_dropShadow_901_4690"/>
<feBlend mode="normal" in="SourceGraphic" in2="effect3_dropShadow_901_4690" result="shape"/>
</filter>
<filter id="filter5_ddd_901_4690" x="444.89" y="224.788" width="274.851" height="247.621" filterUnits="userSpaceOnUse" color-interpolation-filters="sRGB">
<feFlood flood-opacity="0" result="BackgroundImageFix"/>
<feColorMatrix in="SourceAlpha" type="matrix" values="0 0 0 0 0 0 0 0 0 0 0 0 0 0 0 0 0 0 127 0" result="hardAlpha"/>
<feMorphology radius="5.95652" operator="erode" in="SourceAlpha" result="effect1_dropShadow_901_4690"/>
<feOffset dy="9.36025"/>
<feGaussianBlur stdDeviation="6.38199"/>
<feColorMatrix type="matrix" values="0 0 0 0 0.364706 0 0 0 0 0.447059 0 0 0 0 0.54902 0 0 0 0.16 0"/>
<feBlend mode="normal" in2="BackgroundImageFix" result="effect1_dropShadow_901_4690"/>
<feColorMatrix in="SourceAlpha" type="matrix" values="0 0 0 0 0 0 0 0 0 0 0 0 0 0 0 0 0 0 127 0" result="hardAlpha"/>
<feMorphology radius="6.80745" operator="dilate" in="SourceAlpha" result="effect2_dropShadow_901_4690"/>
<feOffset dy="7.65839"/>
<feGaussianBlur stdDeviation="19.5714"/>
<feColorMatrix type="matrix" values="0 0 0 0 0.364706 0 0 0 0 0.447059 0 0 0 0 0.54902 0 0 0 0.08 0"/>
<feBlend mode="normal" in2="effect1_dropShadow_901_4690" result="effect2_dropShadow_901_4690"/>
<feColorMatrix in="SourceAlpha" type="matrix" values="0 0 0 0 0 0 0 0 0 0 0 0 0 0 0 0 0 0 127 0" result="hardAlpha"/>
<feMorphology radius="2.5528" operator="dilate" in="SourceAlpha" result="effect3_dropShadow_901_4690"/>
<feOffset dy="20.4224"/>
<feGaussianBlur stdDeviation="16.1677"/>
<feColorMatrix type="matrix" values="0 0 0 0 0.364706 0 0 0 0 0.447059 0 0 0 0 0.54902 0 0 0 0.1 0"/>
<feBlend mode="normal" in2="effect2_dropShadow_901_4690" result="effect3_dropShadow_901_4690"/>
<feBlend mode="normal" in="SourceGraphic" in2="effect3_dropShadow_901_4690" result="shape"/>
</filter>
<linearGradient id="paint0_linear_901_4690" x1="237.261" y1="203.822" x2="237.261" y2="168.475" gradientUnits="userSpaceOnUse">
<stop stop-color="#18938A"/>
<stop offset="1" stop-color="#18938A" stop-opacity="0"/>
</linearGradient>
</defs>
</svg>
