<svg width="375" height="336" viewBox="0 0 375 336" fill="none" xmlns="http://www.w3.org/2000/svg">
<g filter="url(#filter0_ddd_965_9820)">
<rect x="17" y="26.21" width="340" height="271.424" rx="14.4068" fill="white"/>
</g>
<g filter="url(#filter1_ddd_965_9820)">
<rect x="21.6104" y="30.8203" width="330.78" height="262.203" rx="10.3729" fill="white"/>
</g>
<g filter="url(#filter2_ddd_965_9820)">
<rect x="21.6104" y="128.786" width="330.78" height="164.237" rx="10.3729" fill="white"/>
</g>
<path d="M45.9232 139.386C46.4107 139.386 46.7288 139.047 46.7288 138.58C46.7288 138.1 46.4141 137.778 45.9232 137.778H44.9516V140.278H45.2904V139.386H45.9232ZM45.8644 138.082C46.1825 138.082 46.3727 138.262 46.3727 138.577C46.3727 138.884 46.1859 139.081 45.8506 139.081H45.2904V138.082H45.8644ZM47.0981 140.278L47.3194 139.655H48.3705L48.5953 140.278H48.9514L48.0352 137.778H47.6583L46.7455 140.278H47.0981ZM47.8035 138.317C47.8208 138.265 47.8381 138.207 47.845 138.172C47.8519 138.21 47.8692 138.269 47.8865 138.317L48.2703 139.362H47.4232L47.8035 138.317ZM49.6251 139.261V140.278H49.964V139.261L50.8042 137.778H50.4342L49.881 138.777C49.836 138.86 49.8291 138.881 49.798 138.943C49.7703 138.884 49.7496 138.836 49.715 138.777L49.1583 137.778H48.778L49.6251 139.261ZM51.4627 140.278V139.209C51.4627 138.86 51.4557 138.604 51.4385 138.483L52.1646 140.278H52.4827L53.2122 138.476C53.1949 138.653 53.1915 138.822 53.1915 139.289V140.278H53.5234V137.778H53.1846L52.3236 139.88L51.4627 137.778H51.1307V140.278H51.4627ZM55.6303 140.278V139.963H54.4444V139.171H55.5128V138.871H54.4444V138.089H55.6303V137.778H54.1055V140.278H55.6303ZM56.4602 140.278V138.345L57.7395 140.278H58.0783V137.778H57.7395V139.711L56.4602 137.778H56.1213V140.278H56.4602ZM58.4185 138.089H59.1723V140.278H59.5111V138.089H60.2614V137.778H58.4185V138.089ZM61.8794 140.278V139.209C61.8794 138.86 61.8725 138.604 61.8552 138.483L62.5813 140.278H62.8994L63.629 138.476C63.6117 138.653 63.6083 138.822 63.6083 139.289V140.278H63.9402V137.778H63.6013L62.7404 139.88L61.8794 137.778H61.5475V140.278H61.8794ZM66.7767 139.026C66.7767 138.265 66.2822 137.733 65.5734 137.733C64.868 137.733 64.3736 138.269 64.3736 139.026C64.3736 139.787 64.8646 140.319 65.5699 140.319C66.2788 140.319 66.7767 139.787 66.7767 139.026ZM66.4205 139.026C66.4205 139.604 66.0817 139.994 65.5734 139.994C65.0651 139.994 64.7297 139.607 64.7297 139.026C64.7297 138.445 65.0651 138.061 65.5734 138.061C66.0817 138.061 66.4205 138.445 66.4205 139.026ZM67.5489 140.278V138.345L68.8282 140.278H69.1671V137.778H68.8282V139.711L67.5489 137.778H67.21V140.278H67.5489ZM69.5072 138.089H70.261V140.278H70.5998V138.089H71.3501V137.778H69.5072V138.089ZM72.0296 140.278V139.168H73.2675V140.278H73.6063V137.778H73.2675V138.853H72.0296V137.778H71.6908V140.278H72.0296ZM74.2137 138.317C74.314 138.355 74.3935 138.369 74.4973 138.383C74.4316 138.442 74.3728 138.501 74.3002 138.604L74.1653 138.798L74.3278 138.909L74.4661 138.718C74.5353 138.625 74.5733 138.546 74.601 138.463C74.6321 138.535 74.6701 138.615 74.7428 138.718L74.8776 138.909L75.0367 138.798L74.9018 138.604C74.8361 138.501 74.7842 138.445 74.7116 138.383C74.7912 138.373 74.8811 138.359 74.9952 138.317L75.2234 138.238L75.1508 138.055L74.9329 138.131C74.8119 138.172 74.7428 138.214 74.6701 138.259C74.6874 138.179 74.7013 138.089 74.7013 137.968V137.73H74.5076V137.968C74.5076 138.089 74.518 138.172 74.5388 138.259C74.4661 138.21 74.397 138.172 74.2725 138.131L74.0581 138.058L73.989 138.238L74.2137 138.317Z" fill="#93A5B1"/>
<path d="M159.142 117.464V116.081H156.302V114.671H158.82V113.361H156.302V112.024H159.142V110.641H154.809V117.464H159.142ZM161.36 117.464L162.135 116.137L162.928 117.464H164.56L163.094 115.205L164.615 112.854H163.029L162.236 114.256L161.388 112.854H159.747L161.296 115.233L159.747 117.464H161.36ZM165.241 119.677H166.66V117.003C166.928 117.354 167.518 117.593 168.154 117.593C169.528 117.593 170.321 116.542 170.321 115.086C170.321 113.601 169.427 112.707 168.145 112.707C167.49 112.707 166.909 112.992 166.651 113.417L166.577 112.854H165.241V119.677ZM166.67 115.159C166.67 114.468 167.131 114.007 167.795 114.007C168.468 114.007 168.892 114.477 168.892 115.159C168.892 115.842 168.468 116.312 167.795 116.312C167.131 116.312 166.67 115.851 166.67 115.159ZM173.277 117.584C174.541 117.584 175.453 116.93 175.619 115.906H174.319C174.218 116.238 173.84 116.432 173.305 116.432C172.678 116.432 172.337 116.146 172.254 115.537L175.601 115.519V115.159C175.601 113.656 174.697 112.707 173.25 112.707C171.858 112.707 170.889 113.712 170.889 115.15C170.889 116.57 171.885 117.584 173.277 117.584ZM173.259 113.859C173.831 113.859 174.19 114.173 174.19 114.661H172.272C172.383 114.108 172.697 113.859 173.259 113.859ZM177.862 117.464V114.938C177.862 114.366 178.221 113.998 178.784 113.998C179.272 113.998 179.595 114.376 179.595 114.956V117.464H181.015V114.615C181.015 113.407 180.379 112.707 179.282 112.707C178.682 112.707 178.157 112.937 177.871 113.334L177.779 112.854H176.442V117.464H177.862ZM181.647 116.008C181.647 116.939 182.413 117.584 183.63 117.584C184.828 117.584 185.668 116.985 185.668 115.998C185.668 115.261 185.253 114.91 184.497 114.744L183.639 114.56C183.316 114.486 183.141 114.366 183.141 114.154C183.141 113.905 183.344 113.739 183.667 113.739C184.008 113.739 184.202 113.951 184.202 114.265H185.548C185.548 113.334 184.801 112.707 183.731 112.707C182.625 112.707 181.804 113.26 181.804 114.219C181.804 115.03 182.219 115.399 183.067 115.583L183.916 115.768C184.257 115.842 184.331 115.989 184.331 116.127C184.331 116.367 184.128 116.524 183.685 116.524C183.252 116.524 183.012 116.33 182.994 116.008H181.647ZM188.549 117.584C189.812 117.584 190.725 116.93 190.891 115.906H189.591C189.489 116.238 189.111 116.432 188.576 116.432C187.949 116.432 187.608 116.146 187.525 115.537L190.872 115.519V115.159C190.872 113.656 189.969 112.707 188.521 112.707C187.129 112.707 186.161 113.712 186.161 115.15C186.161 116.57 187.156 117.584 188.549 117.584ZM188.53 113.859C189.102 113.859 189.461 114.173 189.461 114.661H187.544C187.654 114.108 187.968 113.859 188.53 113.859ZM197.279 117.575C198.985 117.575 200.257 116.57 200.497 115.049H198.948C198.763 115.722 198.146 116.137 197.306 116.137C196.209 116.137 195.527 115.334 195.527 114.053C195.527 112.753 196.2 111.969 197.306 111.969C198.127 111.969 198.708 112.356 198.911 113.039H200.488C200.275 111.508 199.049 110.531 197.343 110.531C195.306 110.531 193.95 111.932 193.95 114.062C193.95 116.22 195.232 117.575 197.279 117.575ZM202.695 117.464V110.512H201.275V117.464H202.695ZM205.153 117.584C205.844 117.584 206.453 117.28 206.601 116.856L206.693 117.464H207.947V114.772C207.947 113.454 207.191 112.707 205.854 112.707C204.535 112.707 203.678 113.389 203.678 114.431H204.858C204.858 114.016 205.181 113.785 205.78 113.785C206.287 113.785 206.564 114.025 206.564 114.477V114.551L205.273 114.652C204.166 114.735 203.567 115.261 203.567 116.109C203.567 117.013 204.176 117.584 205.153 117.584ZM205.651 116.533C205.217 116.533 205.015 116.376 205.015 116.044C205.015 115.749 205.236 115.611 205.854 115.556L206.573 115.491V115.74C206.573 116.266 206.195 116.533 205.651 116.533ZM209.666 112.135C210.108 112.135 210.468 111.775 210.468 111.324C210.468 110.872 210.108 110.521 209.666 110.521C209.214 110.521 208.854 110.872 208.854 111.324C208.854 111.775 209.214 112.135 209.666 112.135ZM208.965 117.464H210.385V112.854H208.965V117.464ZM212.87 117.464V114.993C212.87 114.219 213.285 113.998 213.691 113.998C214.143 113.998 214.438 114.274 214.438 114.846V117.464H215.858V114.993C215.858 114.21 216.263 113.988 216.669 113.988C217.121 113.988 217.425 114.265 217.425 114.846V117.464H218.845V114.449C218.845 113.398 218.255 112.707 217.065 112.707C216.402 112.707 215.858 113.029 215.618 113.518C215.35 113.029 214.908 112.707 214.216 112.707C213.553 112.707 213.101 113.011 212.87 113.334L212.778 112.854H211.45V117.464H212.87Z" fill="#284B64"/>
<path d="M21.6104 41.1932C21.6104 35.4644 26.2544 30.8203 31.9832 30.8203H342.017C347.746 30.8203 352.39 35.4644 352.39 41.1932V90.1762H21.6104V41.1932Z" fill="url(#paint0_radial_965_9820)"/>
<circle cx="187" cy="86.1425" r="16.7119" fill="#8479FF"/>
<path fill-rule="evenodd" clip-rule="evenodd" d="M182.39 83.0692C182.39 82.6448 182.734 82.3008 183.158 82.3008L189.305 82.3008C189.729 82.3008 190.073 82.6448 190.073 83.0692C190.073 83.4935 189.729 83.8375 189.305 83.8375L183.158 83.8375C182.734 83.8375 182.39 83.4935 182.39 83.0692Z" fill="white"/>
<path fill-rule="evenodd" clip-rule="evenodd" d="M182.39 86.1426C182.39 85.7182 182.734 85.3742 183.158 85.3742L186.616 85.3742C187.04 85.3742 187.384 85.7182 187.384 86.1426C187.384 86.567 187.04 86.911 186.616 86.911L183.158 86.911C182.734 86.911 182.39 86.567 182.39 86.1426Z" fill="white"/>
<path fill-rule="evenodd" clip-rule="evenodd" d="M182.39 89.216C182.39 88.7917 182.734 88.4477 183.158 88.4477L186.616 88.4477C187.04 88.4477 187.384 88.7917 187.384 89.216C187.384 89.6404 187.04 89.9844 186.616 89.9844L183.158 89.9844C182.734 89.9844 182.39 89.6404 182.39 89.216Z" fill="white"/>
<path d="M181.621 78.459C180.348 78.459 179.316 79.491 179.316 80.7641V91.5211C179.316 92.7942 180.348 93.8262 181.621 93.8262H188.537L187 92.2895H181.621C181.197 92.2895 180.853 91.9455 180.853 91.5211V80.7641C180.853 80.3397 181.197 79.9957 181.621 79.9957H190.842C191.266 79.9957 191.61 80.3397 191.61 80.7641V84.0936L193.147 85.1181V80.7641C193.147 79.491 192.115 78.459 190.842 78.459H181.621Z" fill="white"/>
<path d="M190.842 83.0692C188.268 83.0692 186.232 84.4377 186.232 86.1615V91.503C186.232 93.2415 188.252 94.5946 190.842 94.5946C193.431 94.5946 195.452 93.2338 195.452 91.5022V86.2229C195.436 84.4377 193.416 83.0692 190.842 83.0692ZM193.916 91.6491C193.916 92.3214 192.609 93.0713 190.842 93.0713C189.075 93.0713 187.768 92.298 187.768 91.6491V91.4867C187.768 91.4719 187.771 91.4571 187.778 91.4447C187.785 91.4323 187.795 91.4206 187.808 91.4128C187.82 91.4051 187.834 91.4004 187.849 91.3996C187.864 91.3989 187.878 91.402 187.891 91.409C188.806 91.8504 189.797 92.0587 190.826 92.0587C191.847 92.0587 192.876 91.8512 193.792 91.409C193.805 91.402 193.819 91.3989 193.834 91.3996C193.849 91.4004 193.863 91.4051 193.875 91.4128C193.881 91.4167 193.887 91.4212 193.892 91.4265C193.902 91.4374 193.906 91.452 193.91 91.4665C193.913 91.4799 193.915 91.4936 193.915 91.5074L193.916 91.6491ZM193.916 88.9904C193.916 89.6627 192.609 90.4126 190.842 90.4126C189.075 90.4126 187.768 89.6393 187.768 88.9904V88.828C187.768 88.8132 187.771 88.7984 187.778 88.786C187.785 88.7728 187.795 88.7619 187.808 88.7541C187.82 88.7464 187.834 88.7417 187.849 88.7409C187.864 88.7402 187.878 88.7433 187.891 88.7503C188.806 89.1917 189.797 89.4 190.826 89.4C191.847 89.4 192.876 89.1925 193.792 88.7503C193.805 88.7433 193.819 88.7402 193.834 88.7409C193.849 88.7417 193.863 88.7464 193.875 88.7541C193.885 88.76 193.893 88.7677 193.899 88.7769C193.903 88.7827 193.905 88.7895 193.907 88.7965C193.912 88.8174 193.915 88.8389 193.915 88.8604V88.9904H193.916ZM190.842 87.6793C189.09 87.6793 187.768 86.8726 187.768 86.1615C187.768 85.4504 189.075 84.6064 190.842 84.6064C192.609 84.6064 193.916 85.4426 193.916 86.1615C193.916 86.8804 192.594 87.6793 190.842 87.6793Z" fill="white"/>
<path d="M169.578 49.7554C170.588 49.7554 171.252 49.0708 171.252 48.0957C171.252 47.1069 170.595 46.443 169.578 46.443H167.58V51.498H168.465V49.7554H169.578ZM169.406 47.2313C169.993 47.2313 170.325 47.5356 170.325 48.0888C170.325 48.642 170 48.9671 169.392 48.9671H168.465V47.2313H169.406ZM172.754 51.5879C173.286 51.5879 173.749 51.3459 173.895 50.9932L173.957 51.498H174.697V49.4235C174.697 48.4761 174.13 47.9782 173.21 47.9782C172.283 47.9782 171.675 48.4623 171.675 49.2022H172.394C172.394 48.8426 172.671 48.6351 173.168 48.6351C173.597 48.6351 173.874 48.8218 173.874 49.2852V49.3612L172.85 49.4373C172.041 49.4995 171.585 49.8937 171.585 50.523C171.585 51.1661 172.027 51.5879 172.754 51.5879ZM173.03 50.9517C172.65 50.9517 172.442 50.7996 172.442 50.4884C172.442 50.2118 172.643 50.0389 173.168 49.9905L173.881 49.9352V50.115C173.881 50.6406 173.549 50.9517 173.03 50.9517ZM175.134 53.0816C175.32 53.13 175.528 53.1577 175.763 53.1577C176.323 53.1577 176.683 52.8949 176.938 52.2587L178.612 48.0819H177.741L176.814 50.5714L175.936 48.0819H175.044L176.42 51.6433L176.323 51.8991C176.178 52.3002 175.97 52.3763 175.638 52.3763H175.134V53.0816ZM181.965 51.498V49.6102H183.05L183.908 51.498H184.876L183.915 49.4235C184.509 49.1814 184.828 48.6974 184.828 48.0197C184.828 47.0239 184.157 46.443 183.009 46.443H181.08V51.498H181.965ZM181.965 47.2313H183.009C183.569 47.2313 183.901 47.5149 183.901 48.0197C183.901 48.5314 183.569 48.8288 183.009 48.8288H181.965V47.2313ZM186.873 51.5879C187.765 51.5879 188.387 51.1385 188.533 50.3916H187.751C187.654 50.7166 187.35 50.8964 186.887 50.8964C186.327 50.8964 186.008 50.5921 185.946 49.9905L188.519 49.9836V49.7277C188.519 48.6628 187.869 47.9782 186.845 47.9782C185.843 47.9782 185.144 48.7181 185.144 49.79C185.144 50.848 185.856 51.5879 186.873 51.5879ZM186.852 48.6697C187.357 48.6697 187.682 48.9809 187.682 49.4511H185.967C186.05 48.9394 186.354 48.6697 186.852 48.6697ZM188.993 49.7485C188.993 50.8134 189.574 51.5879 190.591 51.5879C191.096 51.5879 191.545 51.3874 191.759 51.0416V53.0816H192.596V48.0819H191.822L191.766 48.6006C191.559 48.2064 191.109 47.9782 190.591 47.9782C189.63 47.9782 188.993 48.6766 188.993 49.7485ZM189.837 49.79C189.837 49.1814 190.197 48.7458 190.784 48.7458C191.372 48.7458 191.753 49.1745 191.753 49.79C191.753 50.4054 191.372 50.8273 190.784 50.8273C190.197 50.8273 189.837 50.3985 189.837 49.79ZM195.792 48.0819V49.873C195.792 50.523 195.536 50.8342 195.004 50.8342C194.533 50.8342 194.278 50.5714 194.278 49.9214V48.0819H193.434V50.2187C193.434 51.0555 193.897 51.5879 194.686 51.5879C195.142 51.5879 195.585 51.3667 195.792 51.0416L195.854 51.498H196.636V48.0819H195.792ZM198.968 51.5879C199.86 51.5879 200.482 51.1385 200.627 50.3916H199.846C199.749 50.7166 199.445 50.8964 198.982 50.8964C198.422 50.8964 198.103 50.5921 198.041 49.9905L200.614 49.9836V49.7277C200.614 48.6628 199.964 47.9782 198.94 47.9782C197.937 47.9782 197.239 48.7181 197.239 49.79C197.239 50.848 197.951 51.5879 198.968 51.5879ZM198.947 48.6697C199.452 48.6697 199.777 48.9809 199.777 49.4511H198.062C198.145 48.9394 198.449 48.6697 198.947 48.6697ZM201.026 50.4608C201.026 51.1315 201.565 51.5879 202.416 51.5879C203.26 51.5879 203.848 51.1592 203.848 50.4677C203.848 49.9421 203.557 49.6793 202.983 49.5479L202.368 49.4027C202.077 49.3336 201.925 49.2091 201.925 49.0155C201.925 48.7596 202.119 48.6075 202.451 48.6075C202.776 48.6075 202.969 48.7942 202.976 49.0846H203.778C203.771 48.4208 203.253 47.9782 202.485 47.9782C201.697 47.9782 201.13 48.3793 201.13 49.05C201.13 49.5964 201.427 49.8868 202.043 50.0251L202.658 50.1703C202.962 50.2395 203.052 50.3639 203.052 50.5368C203.052 50.7858 202.838 50.9448 202.444 50.9448C202.056 50.9448 201.835 50.7581 201.828 50.4608H201.026ZM205.652 51.498V48.7873H206.316V48.0819H205.652V47.017H204.808V48.0819H204.151V48.7873H204.808V51.498H205.652Z" fill="#284B64"/>
<g filter="url(#filter3_ddd_965_9820)">
<rect x="129.949" y="265.362" width="113.525" height="18.4407" rx="6.91525" fill="#1A938A"/>
</g>
<path d="M164.96 273.752C164.96 274.527 165.409 275.018 166.267 275.204L167.069 275.384C167.484 275.474 167.657 275.675 167.657 276.013C167.657 276.435 167.283 276.691 166.695 276.691C166.128 276.691 165.783 276.435 165.776 276.007H164.89C164.911 276.912 165.617 277.486 166.695 277.486C167.809 277.486 168.542 276.878 168.542 275.937C168.542 275.184 168.12 274.741 167.256 274.554L166.46 274.381C166.038 274.285 165.845 274.084 165.845 273.724C165.845 273.303 166.197 273.04 166.744 273.04C167.242 273.04 167.553 273.296 167.574 273.731H168.459C168.431 272.819 167.781 272.252 166.758 272.252C165.693 272.252 164.96 272.867 164.96 273.752ZM170.746 277.486C171.638 277.486 172.261 277.037 172.406 276.29H171.625C171.528 276.615 171.223 276.795 170.76 276.795C170.2 276.795 169.882 276.491 169.82 275.889L172.392 275.882V275.626C172.392 274.561 171.742 273.877 170.719 273.877C169.716 273.877 169.017 274.617 169.017 275.688C169.017 276.746 169.73 277.486 170.746 277.486ZM170.726 274.568C171.23 274.568 171.555 274.879 171.555 275.35H169.84C169.923 274.838 170.228 274.568 170.726 274.568ZM173.911 277.396V275.557C173.911 275.004 174.229 274.644 174.748 274.644C175.183 274.644 175.467 274.921 175.467 275.495V277.396H176.311V275.294C176.311 274.409 175.868 273.877 175.011 273.877C174.547 273.877 174.132 274.077 173.918 274.423L173.849 273.98H173.067V277.396H173.911ZM178.543 277.486C179.062 277.486 179.505 277.258 179.712 276.864L179.767 277.396H180.542V272.252H179.705V274.416C179.491 274.077 179.069 273.877 178.592 273.877C177.561 273.877 176.939 274.637 176.939 275.702C176.939 276.76 177.554 277.486 178.543 277.486ZM178.73 276.712C178.142 276.712 177.783 276.283 177.783 275.675C177.783 275.066 178.142 274.63 178.73 274.63C179.318 274.63 179.698 275.059 179.698 275.675C179.698 276.29 179.318 276.712 178.73 276.712ZM184.295 277.396V275.509H185.38L186.238 277.396H187.206L186.245 275.322C186.839 275.08 187.157 274.596 187.157 273.918C187.157 272.922 186.487 272.341 185.339 272.341H183.409V277.396H184.295ZM184.295 273.13H185.339C185.899 273.13 186.231 273.413 186.231 273.918C186.231 274.43 185.899 274.727 185.339 274.727H184.295V273.13ZM189.203 277.486C190.095 277.486 190.717 277.037 190.862 276.29H190.081C189.984 276.615 189.68 276.795 189.217 276.795C188.656 276.795 188.338 276.491 188.276 275.889L190.849 275.882V275.626C190.849 274.561 190.199 273.877 189.175 273.877C188.172 273.877 187.474 274.617 187.474 275.688C187.474 276.746 188.186 277.486 189.203 277.486ZM189.182 274.568C189.687 274.568 190.012 274.879 190.012 275.35H188.297C188.38 274.838 188.684 274.568 189.182 274.568ZM191.323 275.647C191.323 276.712 191.904 277.486 192.921 277.486C193.425 277.486 193.875 277.286 194.089 276.94V278.98H194.926V273.98H194.152L194.096 274.499C193.889 274.105 193.439 273.877 192.921 273.877C191.959 273.877 191.323 274.575 191.323 275.647ZM192.167 275.688C192.167 275.08 192.526 274.644 193.114 274.644C193.702 274.644 194.082 275.073 194.082 275.688C194.082 276.304 193.702 276.726 193.114 276.726C192.526 276.726 192.167 276.297 192.167 275.688ZM198.122 273.98V275.771C198.122 276.421 197.866 276.733 197.334 276.733C196.863 276.733 196.607 276.47 196.607 275.82V273.98H195.764V276.117C195.764 276.954 196.227 277.486 197.015 277.486C197.472 277.486 197.914 277.265 198.122 276.94L198.184 277.396H198.966V273.98H198.122ZM201.298 277.486C202.19 277.486 202.812 277.037 202.957 276.29H202.176C202.079 276.615 201.775 276.795 201.312 276.795C200.751 276.795 200.433 276.491 200.371 275.889L202.944 275.882V275.626C202.944 274.561 202.293 273.877 201.27 273.877C200.267 273.877 199.569 274.617 199.569 275.688C199.569 276.746 200.281 277.486 201.298 277.486ZM201.277 274.568C201.782 274.568 202.107 274.879 202.107 275.35H200.392C200.475 274.838 200.779 274.568 201.277 274.568ZM203.356 276.359C203.356 277.03 203.895 277.486 204.746 277.486C205.59 277.486 206.177 277.058 206.177 276.366C206.177 275.841 205.887 275.578 205.313 275.446L204.698 275.301C204.407 275.232 204.255 275.108 204.255 274.914C204.255 274.658 204.449 274.506 204.78 274.506C205.106 274.506 205.299 274.693 205.306 274.983H206.108C206.101 274.319 205.583 273.877 204.815 273.877C204.027 273.877 203.46 274.278 203.46 274.948C203.46 275.495 203.757 275.785 204.372 275.924L204.988 276.069C205.292 276.138 205.382 276.262 205.382 276.435C205.382 276.684 205.168 276.843 204.774 276.843C204.386 276.843 204.165 276.657 204.158 276.359H203.356ZM207.981 277.396V274.686H208.645V273.98H207.981V272.915H207.138V273.98H206.481V274.686H207.138V277.396H207.981Z" fill="white"/>
<path fill-rule="evenodd" clip-rule="evenodd" d="M33.9037 147.419C33.9037 147.631 33.7317 147.803 33.5195 147.803C33.3073 147.803 33.1353 147.631 33.1353 147.419V147.419H32.3674V148.572H38.5143V147.419H37.7451V147.419C37.7451 147.631 37.5731 147.803 37.361 147.803C37.1488 147.803 36.9768 147.631 36.9768 147.419V147.419H33.9037V147.419ZM32.3674 153.182V149.34H38.5143V153.182H32.3674ZM36.9768 146.65H33.9037C33.9036 146.438 33.7316 146.267 33.5195 146.267C33.3074 146.267 33.1355 146.438 33.1353 146.65H32.367C31.9426 146.65 31.5986 146.995 31.5986 147.419V153.182C31.5986 153.606 31.9426 153.95 32.367 153.95H38.5139C38.9382 153.95 39.2822 153.606 39.2822 153.182V147.419C39.2822 146.995 38.9382 146.65 38.5139 146.65H37.7451C37.745 146.438 37.573 146.267 37.361 146.267C37.1489 146.267 36.9769 146.438 36.9768 146.65ZM36.4335 150.108L35.0559 151.486L34.4467 150.877C34.2966 150.727 34.0534 150.727 33.9034 150.877C33.7533 151.027 33.7533 151.27 33.9034 151.42L35.0559 152.573L36.9768 150.652C37.1268 150.502 37.1268 150.258 36.9768 150.108C36.8268 149.958 36.5835 149.958 36.4335 150.108Z" fill="#93A5B1"/>
<path d="M51.4662 150.927V150.265H49.8987V149.118H51.7659V148.438H49.1611V152.65H49.8987V150.927H51.4662ZM53.3811 152.725C54.1245 152.725 54.6432 152.351 54.7642 151.728H54.113C54.0323 151.999 53.7788 152.149 53.3927 152.149C52.9259 152.149 52.6608 151.895 52.6089 151.394L54.7527 151.388V151.175C54.7527 150.288 54.211 149.717 53.3581 149.717C52.5225 149.717 51.9405 150.334 51.9405 151.227C51.9405 152.109 52.534 152.725 53.3811 152.725ZM53.3638 150.293C53.7845 150.293 54.0554 150.553 54.0554 150.945H52.6262C52.6954 150.518 52.9489 150.293 53.3638 150.293ZM55.9665 152.65L56.0126 152.207C56.1797 152.535 56.5428 152.725 56.9692 152.725C57.7875 152.725 58.3235 152.12 58.3235 151.244C58.3235 150.345 57.8279 149.711 57.0153 149.711C56.5831 149.711 56.2028 149.902 56.0184 150.219V148.363H55.3153V152.65H55.9665ZM56.0241 151.215C56.0241 150.703 56.3411 150.345 56.8252 150.345C57.3208 150.345 57.6147 150.708 57.6147 151.215C57.6147 151.723 57.3208 152.08 56.8252 152.08C56.3411 152.08 56.0241 151.728 56.0241 151.215ZM59.6481 152.397C59.6481 152.04 59.4407 151.803 59.1525 151.803C58.8932 151.803 58.7146 151.988 58.7146 152.264C58.7146 152.495 58.899 152.662 59.1237 152.662C59.1929 152.662 59.2447 152.65 59.2908 152.627C59.2908 152.829 59.0949 152.985 58.8356 153.031V153.313C59.3024 153.255 59.6481 152.875 59.6481 152.397ZM63.2096 152.645V151.959H61.4577L62.2184 151.308C62.858 150.76 63.1808 150.316 63.1808 149.729C63.1808 148.876 62.6218 148.363 61.7228 148.363C60.8296 148.363 60.2418 148.962 60.236 149.884H60.9679C60.9736 149.343 61.2618 149.02 61.7228 149.02C62.1665 149.02 62.4258 149.291 62.4258 149.769C62.4258 150.172 62.2357 150.449 61.6652 150.933L60.2879 152.097V152.65L63.2096 152.645ZM63.6641 150.553C63.6641 151.855 64.3268 152.725 65.4447 152.725C66.5627 152.725 67.2312 151.855 67.2312 150.553C67.2312 149.245 66.5224 148.357 65.4447 148.357C64.3671 148.357 63.6641 149.245 63.6641 150.553ZM64.3902 150.553C64.3902 149.556 64.782 149.008 65.4447 149.008C66.1132 149.008 66.5051 149.556 66.5051 150.553C66.5051 151.527 66.1132 152.074 65.4447 152.074C64.782 152.074 64.3902 151.527 64.3902 150.553ZM70.6662 152.645V151.959H68.9143L69.675 151.308C70.3147 150.76 70.6374 150.316 70.6374 149.729C70.6374 148.876 70.0784 148.363 69.1794 148.363C68.2862 148.363 67.6984 148.962 67.6926 149.884H68.4245C68.4303 149.343 68.7184 149.02 69.1794 149.02C69.6232 149.02 69.8825 149.291 69.8825 149.769C69.8825 150.172 69.6923 150.449 69.1218 150.933L67.7445 152.097V152.65L70.6662 152.645ZM72.4048 150.564C72.9926 150.564 73.2692 150.875 73.2692 151.302C73.2692 151.769 72.9638 152.068 72.5028 152.068C72.0533 152.068 71.7536 151.792 71.7536 151.308H71.0275C71.0275 152.218 71.6672 152.725 72.4913 152.725C73.3442 152.725 74.0184 152.178 74.0184 151.313C74.0184 150.57 73.517 150.098 72.8716 149.971L73.8974 149.026V148.438H71.2235V149.089H72.9753L71.8919 150.086V150.564H72.4048Z" fill="#043344"/>
<path fill-rule="evenodd" clip-rule="evenodd" d="M322.535 149.916C322.61 149.841 322.732 149.841 322.807 149.916C322.882 149.991 322.882 150.113 322.807 150.188L321.27 151.724L319.733 150.188C319.658 150.113 319.658 149.991 319.733 149.916C319.809 149.841 319.93 149.841 320.005 149.916L321.27 151.181L322.535 149.916Z" fill="#93A5B1"/>
<mask id="mask0_965_9820" style="mask-type:luminance" maskUnits="userSpaceOnUse" x="319" y="149" width="4" height="3">
<path fill-rule="evenodd" clip-rule="evenodd" d="M322.535 149.916C322.61 149.841 322.732 149.841 322.807 149.916C322.882 149.991 322.882 150.113 322.807 150.188L321.27 151.724L319.733 150.188C319.658 150.113 319.658 149.991 319.733 149.916C319.809 149.841 319.93 149.841 320.005 149.916L321.27 151.181L322.535 149.916Z" fill="white"/>
</mask>
<g mask="url(#mask0_965_9820)">
</g>
<rect x="44.3731" y="144.057" width="283.525" height="13.2542" rx="1.44068" stroke="#32C69A" stroke-width="0.576271"/>
<path fill-rule="evenodd" clip-rule="evenodd" d="M38.4366 168.704C38.0138 168.489 37.4636 168.371 36.8878 168.371C36.7169 168.371 36.5482 168.381 36.3844 168.402V166.397C36.3844 165.93 36.0765 165.506 35.5399 165.233C35.117 165.017 34.5669 164.899 33.9911 164.899C33.4153 164.899 32.8651 165.017 32.4422 165.233C31.9054 165.506 31.5977 165.93 31.5977 166.397V170.489C31.5977 170.956 31.9054 171.381 32.4422 171.654C32.8651 171.869 33.4152 171.987 33.9911 171.987C34.1641 171.987 34.3345 171.976 34.5 171.955C34.5418 172.381 34.842 172.764 35.339 173.017C35.7619 173.232 36.3119 173.351 36.8878 173.351C37.4636 173.351 38.0138 173.232 38.4366 173.017C38.9734 172.744 39.2813 172.32 39.2813 171.852V169.869C39.2813 169.402 38.9734 168.977 38.4366 168.704ZM38.698 169.869C38.698 170.195 38.0093 170.65 36.8876 170.65C35.7659 170.65 35.0772 170.195 35.0772 169.869C35.0772 169.543 35.7659 169.089 36.8876 169.089C38.0093 169.089 38.698 169.543 38.698 169.869ZM38.698 170.931C38.698 171.257 38.0093 171.711 36.8876 171.711C35.7659 171.711 35.0772 171.257 35.0772 170.931C35.0772 170.883 35.0931 170.832 35.1223 170.78C35.5484 171.048 36.1709 171.212 36.8876 171.212C37.6042 171.212 38.2268 171.048 38.6529 170.78C38.6821 170.832 38.698 170.883 38.698 170.931ZM33.991 165.617C35.1127 165.617 35.8015 166.072 35.8015 166.397C35.8015 166.723 35.1127 167.178 33.991 167.178C32.8695 167.178 32.1807 166.723 32.1807 166.397C32.1807 166.072 32.8694 165.617 33.991 165.617ZM32.2257 167.308C32.6518 167.576 33.2744 167.74 33.991 167.74C34.7078 167.74 35.3303 167.576 35.7563 167.308C35.7855 167.36 35.8015 167.411 35.8015 167.459C35.8015 167.785 35.1127 168.239 33.991 168.239C32.8695 168.239 32.1807 167.785 32.1807 167.459C32.1807 167.411 32.1966 167.36 32.2257 167.308ZM32.2256 168.369C32.6517 168.638 33.2742 168.801 33.9909 168.801C34.7077 168.801 35.3302 168.638 35.7562 168.369C35.7854 168.421 35.8014 168.472 35.8014 168.52C35.8014 168.521 35.8013 168.522 35.8012 168.522C35.6356 168.572 35.48 168.632 35.3389 168.704C35.0618 168.845 34.8463 169.027 34.702 169.234C34.4907 169.276 34.2528 169.301 33.991 169.301C32.8695 169.301 32.1807 168.846 32.1807 168.52C32.1806 168.472 32.1965 168.421 32.2256 168.369ZM32.2259 169.431C32.6519 169.699 33.2744 169.863 33.9911 169.863C34.1657 169.863 34.3341 169.852 34.4959 169.834C34.4956 169.846 34.4945 169.857 34.4945 169.869V170.329C34.3382 170.35 34.1706 170.362 33.991 170.362C32.8695 170.362 32.1807 169.908 32.1807 169.582C32.1808 169.534 32.1967 169.483 32.2259 169.431ZM32.1497 170.489V170.442C32.5759 170.74 33.2305 170.924 33.9907 170.924C34.1648 170.924 34.3327 170.914 34.4941 170.896V171.389C34.334 171.412 34.1655 171.425 33.9907 171.425C32.974 171.425 32.1497 171.006 32.1497 170.489ZM38.7289 171.852C38.7289 172.37 37.9047 172.789 36.8879 172.789C35.8711 172.789 35.0468 172.37 35.0468 171.852V171.845V171.791C35.473 172.089 36.1276 172.273 36.8879 172.273C37.6482 172.273 38.3029 172.089 38.7289 171.791V171.852Z" fill="#93A5B1"/>
<rect x="44.085" y="162.21" width="183.831" height="13.8305" rx="1.72881" fill="#F4F6F7"/>
<path d="M48.9191 168.054C48.9191 168.7 49.2937 169.109 50.0082 169.265L50.6767 169.414C51.0225 169.489 51.1665 169.656 51.1665 169.939C51.1665 170.29 50.8554 170.504 50.3655 170.504C49.893 170.504 49.6048 170.29 49.5991 169.933H48.8615C48.8787 170.688 49.4665 171.166 50.3655 171.166C51.2933 171.166 51.9042 170.659 51.9042 169.875C51.9042 169.247 51.5526 168.878 50.8323 168.723L50.1696 168.579C49.8181 168.498 49.6567 168.331 49.6567 168.031C49.6567 167.68 49.9506 167.461 50.4059 167.461C50.8208 167.461 51.0801 167.674 51.0974 168.037H51.835C51.812 167.276 51.2703 166.804 50.4174 166.804C49.5299 166.804 48.9191 167.317 48.9191 168.054ZM53.7413 171.166C54.4847 171.166 55.0033 170.792 55.1244 170.169H54.4732C54.3925 170.44 54.1389 170.59 53.7528 170.59C53.286 170.59 53.021 170.336 52.9691 169.835L55.1128 169.829V169.616C55.1128 168.729 54.5711 168.158 53.7182 168.158C52.8827 168.158 52.3006 168.775 52.3006 169.668C52.3006 170.55 52.8942 171.166 53.7413 171.166ZM53.724 168.734C54.1447 168.734 54.4155 168.994 54.4155 169.386H52.9864C53.0555 168.959 53.3091 168.734 53.724 168.734ZM57.4619 168.233C57.3467 168.204 57.2487 168.193 57.1508 168.193C56.7704 168.193 56.4996 168.383 56.3786 168.665L56.3382 168.25H55.6755V171.091H56.3786V169.708C56.3786 169.155 56.6955 168.884 57.2026 168.884H57.4619V168.233ZM58.829 171.091H59.5205L60.7077 168.245H59.9816L59.4629 169.553C59.3419 169.864 59.2382 170.164 59.1978 170.342C59.1632 170.187 59.0653 169.893 58.9443 169.553L58.4487 168.245H57.6995L58.829 171.091ZM61.4633 167.674C61.6938 167.674 61.884 167.484 61.884 167.248C61.884 167.011 61.6938 166.827 61.4633 166.827C61.2213 166.827 61.0311 167.011 61.0311 167.248C61.0311 167.484 61.2213 167.674 61.4633 167.674ZM61.1118 171.091H61.8149V168.245H61.1118V171.091ZM62.3741 169.662C62.3741 170.567 62.9389 171.166 63.8033 171.166C64.5467 171.166 65.0999 170.711 65.1863 170.048H64.4775C64.4026 170.359 64.1548 170.532 63.8033 170.532C63.3538 170.532 63.0772 170.198 63.0772 169.662C63.0772 169.126 63.3768 168.786 63.8263 168.786C64.1606 168.786 64.3968 168.953 64.4775 169.276H65.1806C65.1056 168.59 64.5755 168.158 63.7975 168.158C62.9561 168.158 62.3741 168.78 62.3741 169.662ZM66.9832 171.166C67.7265 171.166 68.2452 170.792 68.3662 170.169H67.715C67.6343 170.44 67.3808 170.59 66.9947 170.59C66.5279 170.59 66.2628 170.336 66.211 169.835L68.3547 169.829V169.616C68.3547 168.729 67.813 168.158 66.9601 168.158C66.1245 168.158 65.5425 168.775 65.5425 169.668C65.5425 170.55 66.136 171.166 66.9832 171.166ZM66.9659 168.734C67.3865 168.734 67.6574 168.994 67.6574 169.386H66.2282C66.2974 168.959 66.551 168.734 66.9659 168.734Z" fill="#043344"/>
<rect x="232.525" y="162.21" width="95.661" height="13.8305" rx="1.72881" fill="#F4F6F7"/>
<path d="M237.966 171.091L238.306 170.117H239.879L240.219 171.091H240.997L239.475 166.879H238.72L237.199 171.091H237.966ZM239.003 168.135C239.043 168.02 239.078 167.893 239.095 167.812C239.107 167.899 239.147 168.026 239.182 168.135L239.666 169.495H238.525L239.003 168.135ZM242.124 171.091V169.478C242.124 169.017 242.395 168.798 242.729 168.798C243.064 168.798 243.277 169.011 243.277 169.409V171.091H243.98V169.478C243.98 169.011 244.239 168.792 244.579 168.792C244.913 168.792 245.132 169.005 245.132 169.414V171.091H245.83V169.23C245.83 168.573 245.449 168.158 244.758 168.158C244.326 168.158 243.991 168.371 243.847 168.7C243.698 168.371 243.398 168.158 242.966 168.158C242.557 168.158 242.268 168.342 242.124 168.579L242.067 168.245H241.421V171.091H242.124ZM246.353 169.662C246.353 170.55 246.992 171.16 247.874 171.16C248.756 171.16 249.396 170.55 249.396 169.662C249.396 168.775 248.756 168.164 247.874 168.164C246.992 168.164 246.353 168.775 246.353 169.662ZM247.056 169.662C247.056 169.144 247.39 168.792 247.874 168.792C248.358 168.792 248.692 169.144 248.692 169.662C248.692 170.181 248.358 170.532 247.874 170.532C247.39 170.532 247.056 170.181 247.056 169.662ZM251.816 168.245V169.737C251.816 170.279 251.603 170.538 251.159 170.538C250.767 170.538 250.554 170.319 250.554 169.777V168.245H249.851V170.025C249.851 170.722 250.237 171.166 250.894 171.166C251.274 171.166 251.643 170.982 251.816 170.711L251.868 171.091H252.519V168.245H251.816ZM253.948 171.091V169.558C253.948 169.097 254.213 168.798 254.645 168.798C255.008 168.798 255.245 169.028 255.245 169.507V171.091H255.948V169.339C255.948 168.602 255.579 168.158 254.864 168.158C254.478 168.158 254.132 168.325 253.954 168.613L253.896 168.245H253.245V171.091H253.948ZM257.607 171.091V168.832H258.16V168.245H257.607V167.357H256.904V168.245H256.356V168.832H256.904V171.091H257.607Z" fill="#043344"/>
<path d="M50.5557 189.532C51.7889 189.532 52.6187 188.691 52.6187 187.452C52.6187 186.207 51.7774 185.366 50.5326 185.366H49.1784V189.532H50.5557ZM50.4923 185.884C51.4431 185.884 52.0309 186.484 52.0309 187.452C52.0309 188.408 51.4431 189.008 50.5154 189.008H49.7431V185.884H50.4923ZM54.461 189.601C55.1583 189.601 55.6308 189.261 55.7691 188.656H55.262C55.1698 188.979 54.8932 189.152 54.4725 189.152C53.9366 189.152 53.6254 188.823 53.585 188.23L55.7633 188.224V188.022C55.7633 187.187 55.2389 186.634 54.4379 186.634C53.6196 186.634 53.0606 187.244 53.0606 188.126C53.0606 189.002 53.6311 189.601 54.461 189.601ZM54.4379 187.089C54.9162 187.089 55.2216 187.4 55.2216 187.867H53.5966C53.6657 187.371 53.9654 187.089 54.4379 187.089ZM56.1379 188.714C56.1379 189.25 56.5585 189.601 57.2213 189.601C57.8897 189.601 58.3507 189.261 58.3507 188.725C58.3507 188.305 58.1145 188.086 57.6362 187.971L57.1406 187.85C56.864 187.78 56.7257 187.654 56.7257 187.463C56.7257 187.204 56.9158 187.054 57.2558 187.054C57.5843 187.054 57.7745 187.233 57.786 187.515H58.3046C58.2931 186.979 57.8897 186.634 57.2731 186.634C56.6507 186.634 56.2128 186.962 56.2128 187.481C56.2128 187.896 56.4491 188.143 56.9504 188.264L57.446 188.38C57.7399 188.455 57.8321 188.57 57.8321 188.76C57.8321 189.019 57.6131 189.175 57.2328 189.175C56.8755 189.175 56.6565 189.002 56.6565 188.714H56.1379ZM58.7671 188.126C58.7671 189.014 59.3145 189.601 60.1443 189.601C60.8243 189.601 61.3488 189.192 61.4582 188.581H60.9166C60.8186 188.916 60.5304 189.117 60.1443 189.117C59.6315 189.117 59.303 188.725 59.303 188.12C59.303 187.51 59.6545 187.118 60.1674 187.118C60.5304 187.118 60.8186 187.308 60.9108 187.665H61.4525C61.3545 187.037 60.8589 186.634 60.1501 186.634C59.326 186.634 58.7671 187.244 58.7671 188.126ZM63.6433 186.691C63.5339 186.668 63.4532 186.657 63.3552 186.657C62.9691 186.657 62.6867 186.853 62.5715 187.146L62.5369 186.72H62.0298V189.532H62.5715V188.04C62.5715 187.498 62.8884 187.187 63.4013 187.187H63.6433V186.691ZM64.4165 186.046C64.6124 186.046 64.7738 185.884 64.7738 185.688C64.7738 185.487 64.6124 185.331 64.4165 185.331C64.2206 185.331 64.0592 185.487 64.0592 185.688C64.0592 185.884 64.2206 186.046 64.4165 186.046ZM64.1514 189.532H64.6931V186.714H64.1514V189.532ZM65.4795 190.794H66.0212V189.071C66.2056 189.417 66.5802 189.607 67.0297 189.607C67.8653 189.607 68.3378 188.962 68.3378 188.103C68.3378 187.239 67.8365 186.634 67.0297 186.634C66.5802 186.634 66.1999 186.835 66.0097 187.221L65.9694 186.714H65.4795V190.794ZM66.027 188.126C66.027 187.538 66.3612 187.129 66.9145 187.129C67.4677 187.129 67.7961 187.544 67.7961 188.126C67.7961 188.702 67.4677 189.117 66.9145 189.117C66.3612 189.117 66.027 188.702 66.027 188.126ZM69.702 189.532V187.17H70.2552V186.714H69.702V185.833H69.1603V186.714H68.6071V187.17H69.1603V189.532H69.702ZM71.0065 186.046C71.2024 186.046 71.3638 185.884 71.3638 185.688C71.3638 185.487 71.2024 185.331 71.0065 185.331C70.8105 185.331 70.6492 185.487 70.6492 185.688C70.6492 185.884 70.8105 186.046 71.0065 186.046ZM70.7414 189.532H71.2831V186.714H70.7414V189.532ZM71.8851 188.12C71.8851 188.991 72.5075 189.601 73.3546 189.601C74.196 189.601 74.8183 188.991 74.8183 188.12C74.8183 187.25 74.196 186.639 73.3546 186.639C72.5075 186.639 71.8851 187.25 71.8851 188.12ZM72.4326 188.12C72.4326 187.533 72.8071 187.123 73.3546 187.123C73.8963 187.123 74.2766 187.533 74.2766 188.12C74.2766 188.708 73.8963 189.117 73.3546 189.117C72.8071 189.117 72.4326 188.708 72.4326 188.12ZM75.9597 189.532V188.04C75.9597 187.492 76.2536 187.129 76.7607 187.129C77.1756 187.129 77.4407 187.36 77.4407 187.93V189.532H77.9824V187.809C77.9824 187.089 77.6424 186.634 76.899 186.634C76.5014 186.634 76.1441 186.824 75.9654 187.146L75.9078 186.714H75.418V189.532H75.9597Z" fill="#A7B5BF"/>
<rect x="44.229" y="180.795" width="183.542" height="13.5424" rx="1.58475" stroke="#D4DBE0" stroke-width="0.288136"/>
<path d="M44.546 210.41V210.871H45.7561V212.087H46.2172V210.871H47.4273V210.41H46.2172V209.2H45.7561V210.41H44.546ZM50.1219 212.583L50.4908 211.546H52.2426L52.6172 212.583H53.2108L51.6836 208.417H51.0555L49.5341 212.583H50.1219ZM51.2975 209.316C51.3263 209.229 51.3552 209.131 51.3667 209.074C51.3782 209.137 51.407 209.235 51.4358 209.316L52.0755 211.056H50.6636L51.2975 209.316ZM54.695 212.652C55.1445 212.652 55.5248 212.456 55.7092 212.07L55.7553 212.583H56.2394V208.342H55.7034V210.22C55.5133 209.875 55.1502 209.684 54.718 209.684C53.8824 209.684 53.3811 210.318 53.3811 211.183C53.3811 212.041 53.8767 212.652 54.695 212.652ZM54.8045 212.162C54.2512 212.162 53.9285 211.747 53.9285 211.165C53.9285 210.589 54.2512 210.174 54.8045 210.174C55.3577 210.174 55.6977 210.589 55.6977 211.165C55.6977 211.753 55.3577 212.162 54.8045 212.162ZM58.1503 212.652C58.5998 212.652 58.9802 212.456 59.1646 212.07L59.2107 212.583H59.6947V208.342H59.1588V210.22C58.9686 209.875 58.6056 209.684 58.1734 209.684C57.3378 209.684 56.8364 210.318 56.8364 211.183C56.8364 212.041 57.332 212.652 58.1503 212.652ZM58.2598 212.162C57.7066 212.162 57.3839 211.747 57.3839 211.165C57.3839 210.589 57.7066 210.174 58.2598 210.174C58.8131 210.174 59.1531 210.589 59.1531 211.165C59.1531 211.753 58.8131 212.162 58.2598 212.162ZM62.876 212.652C63.3313 212.652 63.7174 212.45 63.8615 212.128L63.9191 212.583H64.3801V210.814C64.3801 210.053 63.9076 209.684 63.2103 209.684C62.4842 209.684 62.0001 210.07 62.0001 210.658H62.4726C62.4726 210.318 62.732 210.117 63.1872 210.117C63.5676 210.117 63.8499 210.284 63.8499 210.756V210.837L62.9625 210.906C62.2998 210.958 61.9137 211.281 61.9137 211.799C61.9137 212.312 62.271 212.652 62.876 212.652ZM63.0316 212.231C62.6801 212.231 62.4611 212.082 62.4611 211.782C62.4611 211.505 62.6571 211.321 63.1354 211.275L63.8557 211.217V211.367C63.8557 211.897 63.5445 212.231 63.0316 212.231ZM66.4755 211.765C66.4755 212.301 66.8962 212.652 67.5589 212.652C68.2274 212.652 68.6884 212.312 68.6884 211.776C68.6884 211.356 68.4521 211.137 67.9738 211.021L67.4782 210.9C67.2016 210.831 67.0633 210.704 67.0633 210.514C67.0633 210.255 67.2535 210.105 67.5935 210.105C67.922 210.105 68.1121 210.284 68.1237 210.566H68.6423C68.6308 210.03 68.2274 209.684 67.6108 209.684C66.9884 209.684 66.5504 210.013 66.5504 210.531C66.5504 210.946 66.7867 211.194 67.2881 211.315L67.7837 211.43C68.0776 211.505 68.1698 211.621 68.1698 211.811C68.1698 212.07 67.9508 212.226 67.5704 212.226C67.2132 212.226 66.9942 212.053 66.9942 211.765H66.4755ZM70.5051 212.652C71.2023 212.652 71.6749 212.312 71.8132 211.707H71.3061C71.2139 212.03 70.9373 212.203 70.5166 212.203C69.9806 212.203 69.6695 211.874 69.6291 211.281L71.8074 211.275V211.073C71.8074 210.238 71.283 209.684 70.482 209.684C69.6637 209.684 69.1047 210.295 69.1047 211.177C69.1047 212.053 69.6752 212.652 70.5051 212.652ZM70.482 210.14C70.9603 210.14 71.2657 210.451 71.2657 210.918H69.6406C69.7098 210.422 70.0095 210.14 70.482 210.14ZM74.026 209.742C73.9165 209.719 73.8359 209.707 73.7379 209.707C73.3518 209.707 73.0694 209.903 72.9542 210.197L72.9196 209.771H72.4125V212.583H72.9542V211.09C72.9542 210.549 73.2711 210.238 73.784 210.238H74.026V209.742ZM75.408 212.583H75.9439L77.1195 209.765H76.5548L75.9266 211.338C75.8287 211.586 75.7365 211.828 75.6904 212.012C75.6443 211.84 75.5636 211.603 75.4656 211.338L74.849 209.765H74.2727L75.408 212.583ZM77.8156 209.097C78.0115 209.097 78.1729 208.935 78.1729 208.739C78.1729 208.538 78.0115 208.382 77.8156 208.382C77.6197 208.382 77.4583 208.538 77.4583 208.739C77.4583 208.935 77.6197 209.097 77.8156 209.097ZM77.5505 212.583H78.0922V209.765H77.5505V212.583ZM78.6942 211.177C78.6942 212.064 79.2417 212.652 80.0715 212.652C80.7515 212.652 81.2759 212.243 81.3854 211.632H80.8437C80.7458 211.966 80.4576 212.168 80.0715 212.168C79.5586 212.168 79.2302 211.776 79.2302 211.171C79.2302 210.56 79.5817 210.168 80.0946 210.168C80.4576 210.168 80.7458 210.359 80.838 210.716H81.3797C81.2817 210.088 80.7861 209.684 80.0773 209.684C79.2532 209.684 78.6942 210.295 78.6942 211.177ZM83.1729 212.652C83.8702 212.652 84.3427 212.312 84.481 211.707H83.9739C83.8817 212.03 83.6051 212.203 83.1844 212.203C82.6485 212.203 82.3373 211.874 82.297 211.281L84.4753 211.275V211.073C84.4753 210.238 83.9509 209.684 83.1498 209.684C82.3315 209.684 81.7726 210.295 81.7726 211.177C81.7726 212.053 82.3431 212.652 83.1729 212.652ZM83.1498 210.14C83.6281 210.14 83.9336 210.451 83.9336 210.918H82.3085C82.3776 210.422 82.6773 210.14 83.1498 210.14Z" fill="#32C69A"/>
<path fill-rule="evenodd" clip-rule="evenodd" d="M323.823 185.743C323.971 185.592 324.215 185.59 324.366 185.739C324.517 185.888 324.519 186.131 324.37 186.283L322.212 188.474C322.09 188.598 322.09 188.798 322.212 188.922C322.328 189.04 322.521 189.04 322.635 188.922L325.306 186.209C325.696 185.811 325.696 185.172 325.306 184.774C324.934 184.394 324.276 184.403 323.911 184.775L320.996 187.734C320.338 188.405 320.338 189.483 320.996 190.154C321.635 190.806 322.733 190.796 323.362 190.154L326.492 186.975C326.641 186.824 326.884 186.822 327.036 186.971C327.187 187.12 327.189 187.363 327.04 187.514L323.91 190.692C322.983 191.639 321.39 191.654 320.448 190.692C319.497 189.722 319.497 188.166 320.448 187.195L323.363 184.236C324.025 183.561 325.178 183.546 325.855 184.236C326.537 184.933 326.537 186.05 325.854 186.747L323.185 189.458C322.772 189.885 322.081 189.887 321.663 189.46C321.249 189.037 321.249 188.359 321.664 187.935L323.823 185.743Z" fill="#93A5B1"/>
<mask id="mask1_965_9820" style="mask-type:luminance" maskUnits="userSpaceOnUse" x="319" y="183" width="9" height="9">
<path fill-rule="evenodd" clip-rule="evenodd" d="M323.823 185.743C323.971 185.592 324.215 185.59 324.366 185.739C324.517 185.888 324.519 186.131 324.37 186.283L322.212 188.474C322.09 188.598 322.09 188.798 322.212 188.922C322.328 189.04 322.521 189.04 322.635 188.922L325.306 186.209C325.696 185.811 325.696 185.172 325.306 184.774C324.934 184.394 324.276 184.403 323.911 184.775L320.996 187.734C320.338 188.405 320.338 189.483 320.996 190.154C321.635 190.806 322.733 190.796 323.362 190.154L326.492 186.975C326.641 186.824 326.884 186.822 327.036 186.971C327.187 187.12 327.189 187.363 327.04 187.514L323.91 190.692C322.983 191.639 321.39 191.654 320.448 190.692C319.497 189.722 319.497 188.166 320.448 187.195L323.363 184.236C324.025 183.561 325.178 183.546 325.855 184.236C326.537 184.933 326.537 186.05 325.854 186.747L323.185 189.458C322.772 189.885 322.081 189.887 321.663 189.46C321.249 189.037 321.249 188.359 321.664 187.935L323.823 185.743Z" fill="white"/>
</mask>
<g mask="url(#mask1_965_9820)">
</g>
<path d="M237.418 187.452C237.418 188.748 238.058 189.607 239.135 189.607C240.207 189.607 240.847 188.748 240.847 187.452C240.847 186.161 240.178 185.285 239.135 185.285C238.087 185.285 237.418 186.161 237.418 187.452ZM237.977 187.452C237.977 186.415 238.404 185.792 239.135 185.792C239.867 185.792 240.288 186.415 240.288 187.452C240.288 188.478 239.867 189.1 239.135 189.1C238.404 189.1 237.977 188.478 237.977 187.452ZM241.69 189.601C241.909 189.601 242.099 189.417 242.099 189.198C242.099 188.973 241.909 188.789 241.69 188.789C241.466 188.789 241.275 188.973 241.275 189.198C241.275 189.417 241.466 189.601 241.69 189.601ZM242.534 187.452C242.534 188.748 243.173 189.607 244.251 189.607C245.323 189.607 245.962 188.748 245.962 187.452C245.962 186.161 245.294 185.285 244.251 185.285C243.202 185.285 242.534 186.161 242.534 187.452ZM243.093 187.452C243.093 186.415 243.519 185.792 244.251 185.792C244.983 185.792 245.403 186.415 245.403 187.452C245.403 188.478 244.983 189.1 244.251 189.1C243.519 189.1 243.093 188.478 243.093 187.452ZM246.529 187.452C246.529 188.748 247.169 189.607 248.247 189.607C249.318 189.607 249.958 188.748 249.958 187.452C249.958 186.161 249.29 185.285 248.247 185.285C247.198 185.285 246.529 186.161 246.529 187.452ZM247.088 187.452C247.088 186.415 247.515 185.792 248.247 185.792C248.978 185.792 249.399 186.415 249.399 187.452C249.399 188.478 248.978 189.1 248.247 189.1C247.515 189.1 247.088 188.478 247.088 187.452Z" fill="#A7B5BF"/>
<path d="M287.483 190.034H287.915V184.974H287.483V190.034ZM290.449 186.49C290.449 187.089 290.801 187.481 291.481 187.636L292.166 187.792C292.564 187.884 292.743 188.092 292.743 188.42C292.743 188.835 292.391 189.094 291.838 189.094C291.314 189.094 290.979 188.841 290.968 188.443H290.392C290.426 189.158 290.991 189.601 291.838 189.601C292.725 189.601 293.307 189.123 293.307 188.374C293.307 187.786 292.962 187.417 292.282 187.262L291.596 187.1C291.204 187.008 291.014 186.806 291.014 186.472C291.014 186.063 291.354 185.798 291.878 185.798C292.345 185.798 292.639 186.04 292.668 186.455H293.238C293.192 185.735 292.679 185.291 291.884 185.291C291.025 185.291 290.449 185.775 290.449 186.49ZM294.19 189.532L294.559 188.495H296.311L296.685 189.532H297.279L295.752 185.366H295.124L293.602 189.532H294.19ZM295.366 186.265C295.394 186.178 295.423 186.08 295.435 186.023C295.446 186.086 295.475 186.184 295.504 186.265L296.144 188.005H294.732L295.366 186.265ZM298.397 189.532V187.884H299.464L300.241 189.532H300.87L300.023 187.775C300.541 187.607 300.829 187.193 300.829 186.616C300.829 185.838 300.299 185.366 299.406 185.366H297.833V189.532H298.397ZM298.397 185.873H299.406C299.925 185.873 300.236 186.138 300.236 186.622C300.236 187.1 299.936 187.383 299.412 187.383H298.397V185.873Z" fill="#A7B5BF"/>
<rect x="232.669" y="180.795" width="81.5424" height="13.5424" rx="1.58475" stroke="#D4DBE0" stroke-width="0.288136"/>
<path fill-rule="evenodd" clip-rule="evenodd" d="M308.705 186.797C308.78 186.722 308.902 186.722 308.977 186.797C309.052 186.872 309.052 186.994 308.977 187.069L307.44 188.606L305.903 187.069C305.828 186.994 305.828 186.872 305.903 186.797C305.978 186.722 306.1 186.722 306.175 186.797L307.44 188.063L308.705 186.797Z" fill="#93A5B1"/>
<mask id="mask2_965_9820" style="mask-type:luminance" maskUnits="userSpaceOnUse" x="305" y="186" width="5" height="3">
<path fill-rule="evenodd" clip-rule="evenodd" d="M308.705 186.797C308.78 186.722 308.902 186.722 308.977 186.797C309.052 186.872 309.052 186.994 308.977 187.069L307.44 188.606L305.903 187.069C305.828 186.994 305.828 186.872 305.903 186.797C305.978 186.722 306.1 186.722 306.175 186.797L307.44 188.063L308.705 186.797Z" fill="white"/>
</mask>
<g mask="url(#mask2_965_9820)">
</g>
<path fill-rule="evenodd" clip-rule="evenodd" d="M39.2813 224.447C39.2813 224.235 39.1093 224.063 38.8971 224.063H31.9818C31.7697 224.063 31.5977 224.235 31.5977 224.447C31.5977 224.659 31.7697 224.831 31.9818 224.831H38.8971C39.1093 224.831 39.2813 224.659 39.2813 224.447ZM36.592 225.6C36.8042 225.6 36.9762 225.772 36.9762 225.984C36.9762 226.196 36.8042 226.368 36.592 226.368H31.9818C31.7697 226.368 31.5977 226.196 31.5977 225.984C31.5977 225.772 31.7697 225.6 31.9818 225.6H36.592ZM39.2813 227.521C39.2813 227.309 39.1093 227.137 38.8971 227.137H31.9818C31.7697 227.137 31.5977 227.309 31.5977 227.521C31.5977 227.733 31.7697 227.905 31.9818 227.905H38.8971C39.1093 227.905 39.2813 227.733 39.2813 227.521ZM36.9762 229.057C36.9762 228.845 36.8042 228.673 36.592 228.673H31.9818C31.7697 228.673 31.5977 228.845 31.5977 229.057C31.5977 229.27 31.7697 229.442 31.9818 229.442H36.592C36.8042 229.442 36.9762 229.27 36.9762 229.057Z" fill="#93A5B1"/>
<path d="M48.7923 225.186H50.0255V228.718H50.7631V225.186H51.9964V224.506H48.7923V225.186ZM51.9554 230.038C52.111 230.078 52.2839 230.101 52.4799 230.101C52.9466 230.101 53.2463 229.882 53.4595 229.352L54.8541 225.871H54.128L53.3558 227.946L52.6239 225.871H51.8805L53.0273 228.839L52.9466 229.052C52.8256 229.387 52.6527 229.45 52.3761 229.45H51.9554V230.038ZM55.2534 230.038H55.9565V228.338C56.1351 228.626 56.5039 228.793 56.9304 228.793C57.7775 228.793 58.2616 228.148 58.2616 227.26C58.2616 226.367 57.7314 225.785 56.9304 225.785C56.4982 225.785 56.1236 225.975 55.9507 226.304L55.9046 225.871H55.2534V230.038ZM55.9622 227.295C55.9622 226.782 56.2792 226.425 56.7633 226.425C57.2589 226.425 57.5527 226.788 57.5527 227.295C57.5527 227.802 57.2589 228.159 56.7633 228.159C56.2792 228.159 55.9622 227.808 55.9622 227.295ZM60.0949 228.793C60.8383 228.793 61.3569 228.419 61.478 227.796H60.8268C60.7461 228.067 60.4925 228.217 60.1064 228.217C59.6397 228.217 59.3746 227.963 59.3227 227.462L61.4664 227.456V227.243C61.4664 226.356 60.9247 225.785 60.0719 225.785C59.2363 225.785 58.6542 226.402 58.6542 227.295C58.6542 228.177 59.2478 228.793 60.0949 228.793ZM60.0776 226.361C60.4983 226.361 60.7692 226.621 60.7692 227.012H59.34C59.4092 226.586 59.6627 226.361 60.0776 226.361ZM64.4295 228.793C64.8732 228.793 65.2593 228.591 65.3803 228.298L65.4322 228.718H66.0488V226.989C66.0488 226.2 65.5762 225.785 64.8098 225.785C64.0376 225.785 63.5305 226.188 63.5305 226.805H64.1298C64.1298 226.505 64.3603 226.332 64.7752 226.332C65.1325 226.332 65.363 226.488 65.363 226.874V226.938L64.5101 227.001C63.8359 227.053 63.4556 227.381 63.4556 227.906C63.4556 228.442 63.8244 228.793 64.4295 228.793ZM64.66 228.263C64.343 228.263 64.1701 228.136 64.1701 227.877C64.1701 227.646 64.3373 227.502 64.7752 227.462L65.3688 227.416V227.566C65.3688 228.004 65.0922 228.263 64.66 228.263ZM69.111 228.718V227.208C69.111 226.684 69.1052 226.286 69.0649 226.033L70.131 228.718H70.811L71.8829 226.027C71.8425 226.327 71.8425 226.575 71.8425 227.422V228.718H72.5571V224.506H71.831L70.471 227.86L69.111 224.506H68.3964V228.718H69.111ZM74.6593 228.793C75.4027 228.793 75.9213 228.419 76.0423 227.796H75.3911C75.3105 228.067 75.0569 228.217 74.6708 228.217C74.204 228.217 73.9389 227.963 73.8871 227.462L76.0308 227.456V227.243C76.0308 226.356 75.4891 225.785 74.6362 225.785C73.8006 225.785 73.2186 226.402 73.2186 227.295C73.2186 228.177 73.8121 228.793 74.6593 228.793ZM74.642 226.361C75.0627 226.361 75.3335 226.621 75.3335 227.012H73.9044C73.9735 226.586 74.2271 226.361 74.642 226.361ZM76.3745 227.854C76.3745 228.413 76.824 228.793 77.5328 228.793C78.2358 228.793 78.7257 228.436 78.7257 227.86C78.7257 227.422 78.4836 227.203 78.0053 227.093L77.4924 226.972C77.2504 226.915 77.1236 226.811 77.1236 226.649C77.1236 226.436 77.285 226.309 77.5616 226.309C77.8324 226.309 77.9938 226.465 77.9996 226.707H78.668C78.6623 226.154 78.2301 225.785 77.5904 225.785C76.9335 225.785 76.4609 226.119 76.4609 226.678C76.4609 227.134 76.7087 227.376 77.2216 227.491L77.7345 227.612C77.988 227.669 78.063 227.773 78.063 227.917C78.063 228.125 77.8843 228.257 77.5558 228.257C77.2331 228.257 77.0487 228.102 77.043 227.854H76.3745ZM79.042 227.854C79.042 228.413 79.4915 228.793 80.2003 228.793C80.9033 228.793 81.3932 228.436 81.3932 227.86C81.3932 227.422 81.1511 227.203 80.6728 227.093L80.16 226.972C79.9179 226.915 79.7911 226.811 79.7911 226.649C79.7911 226.436 79.9525 226.309 80.2291 226.309C80.5 226.309 80.6613 226.465 80.6671 226.707H81.3355C81.3298 226.154 80.8976 225.785 80.2579 225.785C79.601 225.785 79.1284 226.119 79.1284 226.678C79.1284 227.134 79.3762 227.376 79.8891 227.491L80.402 227.612C80.6555 227.669 80.7305 227.773 80.7305 227.917C80.7305 228.125 80.5518 228.257 80.2233 228.257C79.9006 228.257 79.7162 228.102 79.7105 227.854H79.042ZM82.7756 228.793C83.2193 228.793 83.6054 228.591 83.7264 228.298L83.7783 228.718H84.3949V226.989C84.3949 226.2 83.9224 225.785 83.1559 225.785C82.3837 225.785 81.8766 226.188 81.8766 226.805H82.4759C82.4759 226.505 82.7064 226.332 83.1214 226.332C83.4786 226.332 83.7092 226.488 83.7092 226.874V226.938L82.8563 227.001C82.182 227.053 81.8017 227.381 81.8017 227.906C81.8017 228.442 82.1705 228.793 82.7756 228.793ZM83.0061 228.263C82.6892 228.263 82.5163 228.136 82.5163 227.877C82.5163 227.646 82.6834 227.502 83.1214 227.462L83.7149 227.416V227.566C83.7149 228.004 83.4383 228.263 83.0061 228.263ZM84.9242 227.231C84.9242 228.056 85.4544 228.661 86.2612 228.661C86.6703 228.661 87.0219 228.494 87.2005 228.228V228.701C87.2005 229.174 86.8893 229.479 86.4052 229.479C85.973 229.479 85.6907 229.26 85.6446 228.891H84.9415C85.028 229.652 85.5869 230.119 86.4052 230.119C87.3273 230.119 87.8978 229.525 87.8978 228.574V225.871H87.2466L87.2063 226.263C87.0391 225.958 86.7049 225.779 86.2785 225.779C85.4659 225.779 84.9242 226.402 84.9242 227.231ZM85.633 227.214C85.633 226.747 85.9327 226.396 86.3995 226.396C86.8893 226.396 87.1832 226.73 87.1832 227.214C87.1832 227.71 86.8836 228.05 86.3995 228.05C85.9385 228.05 85.633 227.692 85.633 227.214ZM89.8989 228.793C90.6423 228.793 91.161 228.419 91.282 227.796H90.6308C90.5501 228.067 90.2966 228.217 89.9105 228.217C89.4437 228.217 89.1786 227.963 89.1267 227.462L91.2705 227.456V227.243C91.2705 226.356 90.7288 225.785 89.8759 225.785C89.0403 225.785 88.4583 226.402 88.4583 227.295C88.4583 228.177 89.0518 228.793 89.8989 228.793ZM89.8816 226.361C90.3023 226.361 90.5732 226.621 90.5732 227.012H89.144C89.2132 226.586 89.4667 226.361 89.8816 226.361ZM93.2192 227.289C93.2192 228.177 93.8589 228.787 94.7406 228.787C95.6223 228.787 96.262 228.177 96.262 227.289C96.262 226.402 95.6223 225.791 94.7406 225.791C93.8589 225.791 93.2192 226.402 93.2192 227.289ZM93.9223 227.289C93.9223 226.77 94.2565 226.419 94.7406 226.419C95.2247 226.419 95.5589 226.77 95.5589 227.289C95.5589 227.808 95.2247 228.159 94.7406 228.159C94.2565 228.159 93.9223 227.808 93.9223 227.289ZM98.6057 225.86C98.4904 225.831 98.3925 225.82 98.2945 225.82C97.9141 225.82 97.6433 226.01 97.5223 226.292L97.4819 225.877H96.8192V228.718H97.5223V227.335C97.5223 226.782 97.8392 226.511 98.3463 226.511H98.6057V225.86ZM101.603 228.718V226.459H102.156V225.871H101.603V224.984H100.9V225.871H100.352V226.459H100.9V228.718H101.603ZM102.345 230.038C102.501 230.078 102.674 230.101 102.87 230.101C103.337 230.101 103.636 229.882 103.849 229.352L105.244 225.871H104.518L103.746 227.946L103.014 225.871H102.27L103.417 228.839L103.337 229.052C103.216 229.387 103.043 229.45 102.766 229.45H102.345V230.038ZM105.643 230.038H106.346V228.338C106.525 228.626 106.894 228.793 107.32 228.793C108.167 228.793 108.652 228.148 108.652 227.26C108.652 226.367 108.121 225.785 107.32 225.785C106.888 225.785 106.514 225.975 106.341 226.304L106.295 225.871H105.643V230.038ZM106.352 227.295C106.352 226.782 106.669 226.425 107.153 226.425C107.649 226.425 107.943 226.788 107.943 227.295C107.943 227.802 107.649 228.159 107.153 228.159C106.669 228.159 106.352 227.808 106.352 227.295ZM110.485 228.793C111.228 228.793 111.747 228.419 111.868 227.796H111.217C111.136 228.067 110.882 228.217 110.496 228.217C110.03 228.217 109.765 227.963 109.713 227.462L111.856 227.456V227.243C111.856 226.356 111.315 225.785 110.462 225.785C109.626 225.785 109.044 226.402 109.044 227.295C109.044 228.177 109.638 228.793 110.485 228.793ZM110.468 226.361C110.888 226.361 111.159 226.621 111.159 227.012H109.73C109.799 226.586 110.053 226.361 110.468 226.361ZM114.866 225.474C114.866 225.226 114.704 225.076 114.497 225.076C114.433 225.076 114.381 225.088 114.335 225.105C114.335 224.903 114.508 224.748 114.756 224.702V224.425C114.295 224.483 113.972 224.857 113.972 225.341C113.972 225.687 114.168 225.906 114.439 225.906C114.693 225.906 114.866 225.727 114.866 225.474ZM116.007 225.474C116.007 225.226 115.839 225.076 115.632 225.076C115.569 225.076 115.517 225.088 115.471 225.111C115.471 224.903 115.649 224.748 115.897 224.702V224.425C115.436 224.483 115.113 224.857 115.113 225.341C115.113 225.687 115.309 225.906 115.58 225.906C115.834 225.906 116.007 225.727 116.007 225.474ZM117.877 227.422C117.877 227.923 118.228 228.228 118.81 228.228C119.225 228.228 119.6 228.027 119.715 227.739C119.796 228.056 120.049 228.228 120.447 228.228C121.11 228.228 121.536 227.646 121.536 226.759C121.536 225.41 120.516 224.431 119.11 224.431C117.698 224.431 116.638 225.485 116.638 226.897C116.638 228.315 117.692 229.369 119.11 229.369C119.623 229.369 120.107 229.22 120.51 228.931L120.308 228.54C119.945 228.793 119.525 228.937 119.11 228.937C117.957 228.937 117.104 228.067 117.104 226.897C117.104 225.733 117.957 224.863 119.11 224.863C120.257 224.863 121.069 225.652 121.069 226.759C121.069 227.381 120.856 227.802 120.539 227.802C120.343 227.802 120.245 227.698 120.245 227.479V226.586C120.245 225.889 119.836 225.491 119.116 225.491C118.407 225.491 117.952 225.86 117.952 226.419H118.493C118.493 226.142 118.706 225.987 119.087 225.987C119.438 225.987 119.623 226.154 119.623 226.482V226.54L118.845 226.603C118.211 226.649 117.877 226.961 117.877 227.422ZM118.528 227.399C118.528 227.174 118.689 227.059 119.081 227.024L119.628 226.978V227.116C119.628 227.508 119.381 227.744 118.977 227.744C118.678 227.744 118.528 227.629 118.528 227.399ZM123.065 224.99C123.065 224.644 122.869 224.425 122.598 224.425C122.345 224.425 122.172 224.604 122.172 224.857C122.172 225.111 122.339 225.255 122.546 225.255C122.61 225.255 122.662 225.243 122.708 225.226C122.708 225.428 122.529 225.583 122.281 225.629V225.906C122.742 225.848 123.065 225.474 123.065 224.99ZM124.206 224.99C124.206 224.644 124.01 224.425 123.739 224.425C123.486 224.425 123.313 224.604 123.313 224.857C123.313 225.111 123.474 225.255 123.682 225.255C123.745 225.255 123.797 225.243 123.843 225.226C123.843 225.428 123.67 225.583 123.422 225.629V225.906C123.883 225.848 124.206 225.474 124.206 224.99ZM124.862 228.787C125.115 228.787 125.328 228.58 125.328 228.332C125.328 228.079 125.115 227.871 124.862 227.871C124.608 227.871 124.395 228.079 124.395 228.332C124.395 228.58 124.608 228.787 124.862 228.787ZM126.539 228.787C126.792 228.787 127.005 228.58 127.005 228.332C127.005 228.079 126.792 227.871 126.539 227.871C126.285 227.871 126.072 228.079 126.072 228.332C126.072 228.58 126.285 228.787 126.539 228.787ZM128.216 228.787C128.469 228.787 128.682 228.58 128.682 228.332C128.682 228.079 128.469 227.871 128.216 227.871C127.962 227.871 127.749 228.079 127.749 228.332C127.749 228.58 127.962 228.787 128.216 228.787Z" fill="#BEC9D0"/>
<rect x="44.229" y="219.981" width="284.966" height="37.1695" rx="1.58475" stroke="#D4DBE0" stroke-width="0.288136"/>
<line x1="44.6611" y1="200.1" x2="329.339" y2="200.1" stroke="#BEC9D0" stroke-width="0.288136"/>
<defs>
<filter id="filter0_ddd_965_9820" x="-14.1186" y="0.27776" width="402.237" height="334.814" filterUnits="userSpaceOnUse" color-interpolation-filters="sRGB">
<feFlood flood-opacity="0" result="BackgroundImageFix"/>
<feColorMatrix in="SourceAlpha" type="matrix" values="0 0 0 0 0 0 0 0 0 0 0 0 0 0 0 0 0 0 127 0" result="hardAlpha"/>
<feMorphology radius="4.0339" operator="erode" in="SourceAlpha" result="effect1_dropShadow_965_9820"/>
<feOffset dy="6.33898"/>
<feGaussianBlur stdDeviation="4.32203"/>
<feColorMatrix type="matrix" values="0 0 0 0 0.364706 0 0 0 0 0.447059 0 0 0 0 0.54902 0 0 0 0.16 0"/>
<feBlend mode="normal" in2="BackgroundImageFix" result="effect1_dropShadow_965_9820"/>
<feColorMatrix in="SourceAlpha" type="matrix" values="0 0 0 0 0 0 0 0 0 0 0 0 0 0 0 0 0 0 127 0" result="hardAlpha"/>
<feMorphology radius="4.61017" operator="dilate" in="SourceAlpha" result="effect2_dropShadow_965_9820"/>
<feOffset dy="5.18644"/>
<feGaussianBlur stdDeviation="13.2542"/>
<feColorMatrix type="matrix" values="0 0 0 0 0.364706 0 0 0 0 0.447059 0 0 0 0 0.54902 0 0 0 0.08 0"/>
<feBlend mode="normal" in2="effect1_dropShadow_965_9820" result="effect2_dropShadow_965_9820"/>
<feColorMatrix in="SourceAlpha" type="matrix" values="0 0 0 0 0 0 0 0 0 0 0 0 0 0 0 0 0 0 127 0" result="hardAlpha"/>
<feMorphology radius="1.72881" operator="dilate" in="SourceAlpha" result="effect3_dropShadow_965_9820"/>
<feOffset dy="13.8305"/>
<feGaussianBlur stdDeviation="10.9492"/>
<feColorMatrix type="matrix" values="0 0 0 0 0.364706 0 0 0 0 0.447059 0 0 0 0 0.54902 0 0 0 0.1 0"/>
<feBlend mode="normal" in2="effect2_dropShadow_965_9820" result="effect3_dropShadow_965_9820"/>
<feBlend mode="normal" in="SourceGraphic" in2="effect3_dropShadow_965_9820" result="shape"/>
</filter>
<filter id="filter1_ddd_965_9820" x="-9.50829" y="4.88811" width="393.017" height="325.593" filterUnits="userSpaceOnUse" color-interpolation-filters="sRGB">
<feFlood flood-opacity="0" result="BackgroundImageFix"/>
<feColorMatrix in="SourceAlpha" type="matrix" values="0 0 0 0 0 0 0 0 0 0 0 0 0 0 0 0 0 0 127 0" result="hardAlpha"/>
<feMorphology radius="4.0339" operator="erode" in="SourceAlpha" result="effect1_dropShadow_965_9820"/>
<feOffset dy="6.33898"/>
<feGaussianBlur stdDeviation="4.32203"/>
<feColorMatrix type="matrix" values="0 0 0 0 0.364706 0 0 0 0 0.447059 0 0 0 0 0.54902 0 0 0 0.16 0"/>
<feBlend mode="normal" in2="BackgroundImageFix" result="effect1_dropShadow_965_9820"/>
<feColorMatrix in="SourceAlpha" type="matrix" values="0 0 0 0 0 0 0 0 0 0 0 0 0 0 0 0 0 0 127 0" result="hardAlpha"/>
<feMorphology radius="4.61017" operator="dilate" in="SourceAlpha" result="effect2_dropShadow_965_9820"/>
<feOffset dy="5.18644"/>
<feGaussianBlur stdDeviation="13.2542"/>
<feColorMatrix type="matrix" values="0 0 0 0 0.364706 0 0 0 0 0.447059 0 0 0 0 0.54902 0 0 0 0.08 0"/>
<feBlend mode="normal" in2="effect1_dropShadow_965_9820" result="effect2_dropShadow_965_9820"/>
<feColorMatrix in="SourceAlpha" type="matrix" values="0 0 0 0 0 0 0 0 0 0 0 0 0 0 0 0 0 0 127 0" result="hardAlpha"/>
<feMorphology radius="1.72881" operator="dilate" in="SourceAlpha" result="effect3_dropShadow_965_9820"/>
<feOffset dy="13.8305"/>
<feGaussianBlur stdDeviation="10.9492"/>
<feColorMatrix type="matrix" values="0 0 0 0 0.364706 0 0 0 0 0.447059 0 0 0 0 0.54902 0 0 0 0.1 0"/>
<feBlend mode="normal" in2="effect2_dropShadow_965_9820" result="effect3_dropShadow_965_9820"/>
<feBlend mode="normal" in="SourceGraphic" in2="effect3_dropShadow_965_9820" result="shape"/>
</filter>
<filter id="filter2_ddd_965_9820" x="-9.50829" y="102.854" width="393.017" height="227.627" filterUnits="userSpaceOnUse" color-interpolation-filters="sRGB">
<feFlood flood-opacity="0" result="BackgroundImageFix"/>
<feColorMatrix in="SourceAlpha" type="matrix" values="0 0 0 0 0 0 0 0 0 0 0 0 0 0 0 0 0 0 127 0" result="hardAlpha"/>
<feMorphology radius="4.0339" operator="erode" in="SourceAlpha" result="effect1_dropShadow_965_9820"/>
<feOffset dy="6.33898"/>
<feGaussianBlur stdDeviation="4.32203"/>
<feColorMatrix type="matrix" values="0 0 0 0 0.364706 0 0 0 0 0.447059 0 0 0 0 0.54902 0 0 0 0.16 0"/>
<feBlend mode="normal" in2="BackgroundImageFix" result="effect1_dropShadow_965_9820"/>
<feColorMatrix in="SourceAlpha" type="matrix" values="0 0 0 0 0 0 0 0 0 0 0 0 0 0 0 0 0 0 127 0" result="hardAlpha"/>
<feMorphology radius="4.61017" operator="dilate" in="SourceAlpha" result="effect2_dropShadow_965_9820"/>
<feOffset dy="5.18644"/>
<feGaussianBlur stdDeviation="13.2542"/>
<feColorMatrix type="matrix" values="0 0 0 0 0.364706 0 0 0 0 0.447059 0 0 0 0 0.54902 0 0 0 0.08 0"/>
<feBlend mode="normal" in2="effect1_dropShadow_965_9820" result="effect2_dropShadow_965_9820"/>
<feColorMatrix in="SourceAlpha" type="matrix" values="0 0 0 0 0 0 0 0 0 0 0 0 0 0 0 0 0 0 127 0" result="hardAlpha"/>
<feMorphology radius="1.72881" operator="dilate" in="SourceAlpha" result="effect3_dropShadow_965_9820"/>
<feOffset dy="13.8305"/>
<feGaussianBlur stdDeviation="10.9492"/>
<feColorMatrix type="matrix" values="0 0 0 0 0.364706 0 0 0 0 0.447059 0 0 0 0 0.54902 0 0 0 0.1 0"/>
<feBlend mode="normal" in2="effect2_dropShadow_965_9820" result="effect3_dropShadow_965_9820"/>
<feBlend mode="normal" in="SourceGraphic" in2="effect3_dropShadow_965_9820" result="shape"/>
</filter>
<filter id="filter3_ddd_965_9820" x="98.8306" y="239.43" width="175.763" height="81.8307" filterUnits="userSpaceOnUse" color-interpolation-filters="sRGB">
<feFlood flood-opacity="0" result="BackgroundImageFix"/>
<feColorMatrix in="SourceAlpha" type="matrix" values="0 0 0 0 0 0 0 0 0 0 0 0 0 0 0 0 0 0 127 0" result="hardAlpha"/>
<feMorphology radius="4.0339" operator="erode" in="SourceAlpha" result="effect1_dropShadow_965_9820"/>
<feOffset dy="6.33898"/>
<feGaussianBlur stdDeviation="4.32203"/>
<feColorMatrix type="matrix" values="0 0 0 0 0.364706 0 0 0 0 0.447059 0 0 0 0 0.54902 0 0 0 0.16 0"/>
<feBlend mode="normal" in2="BackgroundImageFix" result="effect1_dropShadow_965_9820"/>
<feColorMatrix in="SourceAlpha" type="matrix" values="0 0 0 0 0 0 0 0 0 0 0 0 0 0 0 0 0 0 127 0" result="hardAlpha"/>
<feMorphology radius="4.61017" operator="dilate" in="SourceAlpha" result="effect2_dropShadow_965_9820"/>
<feOffset dy="5.18644"/>
<feGaussianBlur stdDeviation="13.2542"/>
<feColorMatrix type="matrix" values="0 0 0 0 0.364706 0 0 0 0 0.447059 0 0 0 0 0.54902 0 0 0 0.08 0"/>
<feBlend mode="normal" in2="effect1_dropShadow_965_9820" result="effect2_dropShadow_965_9820"/>
<feColorMatrix in="SourceAlpha" type="matrix" values="0 0 0 0 0 0 0 0 0 0 0 0 0 0 0 0 0 0 127 0" result="hardAlpha"/>
<feMorphology radius="1.72881" operator="dilate" in="SourceAlpha" result="effect3_dropShadow_965_9820"/>
<feOffset dy="13.8305"/>
<feGaussianBlur stdDeviation="10.9492"/>
<feColorMatrix type="matrix" values="0 0 0 0 0.364706 0 0 0 0 0.447059 0 0 0 0 0.54902 0 0 0 0.1 0"/>
<feBlend mode="normal" in2="effect2_dropShadow_965_9820" result="effect3_dropShadow_965_9820"/>
<feBlend mode="normal" in="SourceGraphic" in2="effect3_dropShadow_965_9820" result="shape"/>
</filter>
<radialGradient id="paint0_radial_965_9820" cx="0" cy="0" r="1" gradientUnits="userSpaceOnUse" gradientTransform="translate(187 145.21) rotate(-90) scale(127.932 127.932)">
<stop stop-color="#8479FF"/>
<stop offset="1" stop-color="white" stop-opacity="0"/>
</radialGradient>
</defs>
</svg>
