<svg width="326" height="221" viewBox="0 0 326 221" fill="none" xmlns="http://www.w3.org/2000/svg">
<g filter="url(#filter0_ddd_965_9723)">
<rect x="7" y="6" width="312" height="207" rx="4.93316" fill="white"/>
</g>
<g filter="url(#filter1_ddd_965_9723)">
<rect x="13" y="12" width="96" height="94.5" rx="2.87767" fill="white"/>
</g>
<path d="M27.5294 68.675C28.7964 68.675 29.6434 67.968 29.6434 66.974C29.6434 64.979 26.5424 65.854 26.5424 64.839C26.5424 64.489 26.9134 64.23 27.4664 64.23C28.0684 64.23 28.5094 64.58 28.5024 65.07H29.5244C29.5244 64.069 28.6494 63.341 27.4384 63.341C26.2344 63.341 25.4014 64.013 25.4014 64.993C25.4014 66.974 28.4954 66.085 28.4954 67.142C28.4954 67.499 28.1454 67.786 27.5644 67.786C26.8924 67.786 26.4094 67.401 26.4094 66.862H25.3524C25.3524 67.912 26.2624 68.675 27.5294 68.675ZM30.5971 67.338C30.5971 68.101 31.0591 68.64 31.7731 68.64C31.9971 68.64 32.2771 68.598 32.4871 68.528L32.4941 67.688C32.3751 67.716 32.2211 67.737 32.1231 67.737C31.8291 67.737 31.6471 67.534 31.6471 67.233V65.714H32.4591V64.916H31.6471V64.013H30.7651L30.6461 64.916H30.0931V65.714H30.5971V67.338ZM36.0151 65.413C35.7351 65.014 35.3081 64.776 34.7971 64.776C33.7891 64.776 33.0821 65.574 33.0821 66.708C33.0821 67.842 33.7891 68.64 34.7971 68.64C35.3081 68.64 35.7351 68.402 36.0151 68.003V68.5H37.0651V64.916H36.0151V65.413ZM35.0701 67.716C34.5241 67.716 34.1321 67.289 34.1321 66.708C34.1321 66.127 34.5241 65.7 35.0701 65.7C35.6161 65.7 36.0081 66.127 36.0081 66.708C36.0081 67.289 35.6161 67.716 35.0701 67.716ZM40.1296 64.776C39.6676 64.776 39.2476 65.014 38.9956 65.399V64.916H37.9736V68.5H39.0236V66.484C39.0236 66.029 39.3596 65.7 39.7726 65.7C40.1856 65.7 40.4376 66.008 40.4376 66.442V68.5H41.4876V66.26C41.4876 65.399 40.9416 64.776 40.1296 64.776ZM45.051 65.35C44.771 64.986 44.358 64.776 43.868 64.776C42.874 64.776 42.167 65.574 42.167 66.708C42.167 67.842 42.874 68.64 43.868 68.64C44.372 68.64 44.785 68.423 45.065 68.066V68.5H46.101V63.306H45.051V65.35ZM43.217 66.708C43.217 66.141 43.609 65.721 44.155 65.721C44.701 65.721 45.093 66.141 45.093 66.708C45.093 67.275 44.701 67.695 44.155 67.695C43.616 67.695 43.217 67.282 43.217 66.708ZM49.7827 65.413C49.5027 65.014 49.0757 64.776 48.5647 64.776C47.5567 64.776 46.8497 65.574 46.8497 66.708C46.8497 67.842 47.5567 68.64 48.5647 68.64C49.0757 68.64 49.5027 68.402 49.7827 68.003V68.5H50.8327V64.916H49.7827V65.413ZM48.8377 67.716C48.2917 67.716 47.8997 67.289 47.8997 66.708C47.8997 66.127 48.2917 65.7 48.8377 65.7C49.3837 65.7 49.7757 66.127 49.7757 66.708C49.7757 67.289 49.3837 67.716 48.8377 67.716ZM53.7081 64.783C53.3091 64.783 52.9591 65.014 52.7491 65.371V64.916H51.7411V68.5H52.7911V66.596C52.7911 66.057 53.0921 65.672 53.5471 65.672C53.7011 65.672 53.9321 65.721 54.1351 65.805V64.874C53.9951 64.818 53.8481 64.783 53.7081 64.783ZM57.4651 65.35C57.1851 64.986 56.7721 64.776 56.2821 64.776C55.2881 64.776 54.5811 65.574 54.5811 66.708C54.5811 67.842 55.2881 68.64 56.2821 68.64C56.7861 68.64 57.1991 68.423 57.4791 68.066V68.5H58.5151V63.306H57.4651V65.35ZM55.6311 66.708C55.6311 66.141 56.0231 65.721 56.5691 65.721C57.1151 65.721 57.5071 66.141 57.5071 66.708C57.5071 67.275 57.1151 67.695 56.5691 67.695C56.0301 67.695 55.6311 67.282 55.6311 66.708ZM62.8524 63.516H61.6764V68.5H62.8524V63.516ZM66.0241 64.776C65.5621 64.776 65.1421 65.014 64.8901 65.399V64.916H63.8681V68.5H64.9181V66.484C64.9181 66.029 65.2541 65.7 65.6671 65.7C66.0801 65.7 66.3321 66.008 66.3321 66.442V68.5H67.3821V66.26C67.3821 65.399 66.8361 64.776 66.0241 64.776ZM69.7486 68.654C70.7426 68.654 71.4356 68.115 71.4356 67.373C71.4286 66.022 69.0626 66.589 69.0696 65.903C69.0696 65.672 69.3286 65.504 69.6576 65.504C70.0776 65.504 70.3856 65.707 70.3926 66.001H71.3166C71.3096 65.28 70.6166 64.762 69.6576 64.762C68.7826 64.762 68.1246 65.266 68.1176 65.966C68.1176 67.478 70.4206 66.764 70.4276 67.485C70.4276 67.73 70.1476 67.912 69.7626 67.912C69.3076 67.912 68.9716 67.66 68.9716 67.303H68.0826C68.0826 68.087 68.7756 68.654 69.7486 68.654ZM73.4548 68.64C73.9238 68.64 74.3438 68.402 74.5958 68.017V68.5H75.6178V64.916H74.5678V66.932C74.5678 67.387 74.2318 67.716 73.8188 67.716C73.4058 67.716 73.1538 67.408 73.1538 66.974V64.916H72.1038V67.156C72.1038 68.017 72.6498 68.64 73.4548 68.64ZM78.4952 64.783C78.0962 64.783 77.7462 65.014 77.5362 65.371V64.916H76.5282V68.5H77.5782V66.596C77.5782 66.057 77.8792 65.672 78.3342 65.672C78.4882 65.672 78.7192 65.721 78.9222 65.805V64.874C78.7822 64.818 78.6352 64.783 78.4952 64.783ZM82.3012 65.413C82.0212 65.014 81.5942 64.776 81.0832 64.776C80.0752 64.776 79.3682 65.574 79.3682 66.708C79.3682 67.842 80.0752 68.64 81.0832 68.64C81.5942 68.64 82.0212 68.402 82.3012 68.003V68.5H83.3512V64.916H82.3012V65.413ZM81.3562 67.716C80.8102 67.716 80.4182 67.289 80.4182 66.708C80.4182 66.127 80.8102 65.7 81.3562 65.7C81.9022 65.7 82.2942 66.127 82.2942 66.708C82.2942 67.289 81.9022 67.716 81.3562 67.716ZM86.4157 64.776C85.9537 64.776 85.5337 65.014 85.2817 65.399V64.916H84.2597V68.5H85.3097V66.484C85.3097 66.029 85.6457 65.7 86.0587 65.7C86.4717 65.7 86.7237 66.008 86.7237 66.442V68.5H87.7737V66.26C87.7737 65.399 87.2277 64.776 86.4157 64.776ZM92.2402 66.197C92.1282 65.371 91.3442 64.776 90.4062 64.776C89.2722 64.776 88.4532 65.588 88.4532 66.708C88.4532 67.828 89.2792 68.64 90.4062 68.64C91.3302 68.64 92.1142 68.045 92.2472 67.219L91.2672 67.093C91.1692 67.478 90.8262 67.758 90.4132 67.758C89.8952 67.758 89.5032 67.317 89.5032 66.708C89.5032 66.099 89.9022 65.658 90.4132 65.658C90.8122 65.658 91.1692 65.938 91.2602 66.323L92.2402 66.197ZM94.8233 67.835C94.3473 67.835 93.9973 67.506 93.9063 67.002L96.7133 67.009C96.7273 66.932 96.7273 66.785 96.7273 66.694C96.7273 65.56 95.9433 64.776 94.7953 64.776C93.6403 64.776 92.8213 65.56 92.8213 66.68C92.8213 67.835 93.6403 68.64 94.7953 68.64C95.6423 68.64 96.3773 68.185 96.5663 67.562L95.6493 67.359C95.5233 67.632 95.2013 67.835 94.8233 67.835ZM93.8993 66.372C93.9903 65.896 94.3123 65.581 94.7743 65.581C95.2503 65.581 95.6003 65.917 95.6633 66.372H93.8993Z" fill="#284B64"/>
<path d="M49.4492 76.0893C49.0151 76.0893 48.6467 76.4149 48.5777 76.8655L48.946 76.9378C48.9822 76.6386 49.196 76.4248 49.4492 76.4248C49.7156 76.4248 49.9063 76.609 49.9063 76.8589C49.9063 77.0661 49.7715 77.2141 49.5709 77.3654L48.6007 78.0922V78.5H50.2451V78.1744H49.0184L49.8143 77.5923C50.0938 77.3884 50.2878 77.1417 50.2878 76.8293C50.2878 76.4051 49.9261 76.0893 49.4492 76.0893ZM50.993 76.1716L50.8746 77.3193H51.5225C51.8678 77.3193 52.0717 77.5199 52.0717 77.7962C52.0717 78.056 51.8645 78.2468 51.5784 78.2468C51.2989 78.2468 51.0818 78.0166 51.0555 77.6975L50.7102 77.7534C50.7463 78.2336 51.1081 78.5822 51.5916 78.5822C52.0914 78.5822 52.4499 78.2533 52.4499 77.7962C52.4499 77.3424 52.1145 77.0102 51.5916 77.0102H51.2462L51.2989 76.4971H52.2625V76.1716H50.993ZM54.3474 78.1645V77.4509H55.4459V77.1483H54.3474V76.507H55.5774V76.1716H53.9659V78.5H55.6103V78.1645H54.3474ZM56.0328 78.5H56.3913V77.5199C56.3913 77.2568 56.5491 77.0793 56.7859 77.0793C57.0161 77.0793 57.1674 77.2568 57.1674 77.5199V78.5H57.5226V77.5199C57.5226 77.2634 57.6903 77.0793 57.9238 77.0793C58.1507 77.0858 58.3119 77.2667 58.3119 77.5199V78.5H58.6671V77.4903C58.6671 77.0661 58.3908 76.7668 57.9995 76.7668C57.7594 76.7668 57.5489 76.8885 57.4338 77.0793C57.3351 76.8885 57.1148 76.7635 56.8583 76.7635C56.6576 76.7635 56.4833 76.8589 56.3781 77.0201V76.8293H56.0328V78.5ZM59.4648 78.2731C59.6063 78.4572 59.82 78.5658 60.07 78.5658C60.5567 78.5658 60.9086 78.1876 60.9086 77.6647C60.9086 77.1417 60.5534 76.7635 60.07 76.7635C59.8135 76.7635 59.5964 76.8753 59.455 77.0628V76.8293H59.1064V79.2564H59.4648V78.2731ZM60.5534 77.6647C60.5534 77.9935 60.3199 78.2303 60.0009 78.2303C59.6819 78.2303 59.4517 77.9935 59.4517 77.6647C59.4517 77.3358 59.6819 77.099 60.0009 77.099C60.3166 77.099 60.5534 77.3325 60.5534 77.6647ZM61.6584 76.0729H61.3032V78.5H61.6584V76.0729ZM63.8618 77.6647C63.8618 77.1352 63.4868 76.7635 62.954 76.7635C62.418 76.7635 62.0463 77.1352 62.0463 77.6647C62.0463 78.1941 62.418 78.5658 62.954 78.5658C63.4868 78.5658 63.8618 78.1941 63.8618 77.6647ZM63.5066 77.6647C63.5066 78.0034 63.2731 78.2501 62.954 78.2501C62.6318 78.2501 62.4015 78.0034 62.4015 77.6647C62.4015 77.3259 62.6318 77.0793 62.954 77.0793C63.2731 77.0793 63.5066 77.3259 63.5066 77.6647ZM64.1712 79.1874C64.2567 79.2202 64.3685 79.2433 64.4639 79.2433C64.8191 79.2433 64.9638 78.9243 65.1118 78.5395L65.763 76.8293H65.3913L64.9375 78.0626L64.4146 76.8293H64.0232L64.7763 78.5066C64.6908 78.7138 64.6218 78.944 64.3915 78.944C64.3258 78.944 64.2436 78.9243 64.1712 78.8979V79.1874ZM66.824 78.2665C66.5477 78.2665 66.3372 78.0692 66.2945 77.7732H67.7021C67.7054 77.737 67.7087 77.6877 67.7087 77.6482C67.7087 77.1319 67.3403 76.7635 66.8207 76.7635C66.3011 76.7635 65.9261 77.1319 65.9261 77.6449C65.9261 78.181 66.3044 78.5658 66.8306 78.5658C67.1923 78.5658 67.5245 78.3684 67.6232 78.0955L67.314 77.9935C67.2384 78.1481 67.0378 78.2665 66.824 78.2665ZM66.2945 77.5101C66.3438 77.2437 66.5411 77.0628 66.8108 77.0628C67.0871 77.0628 67.2976 77.247 67.337 77.5101H66.2945ZM68.9212 78.2665C68.645 78.2665 68.4345 78.0692 68.3917 77.7732H69.7993C69.8026 77.737 69.8059 77.6877 69.8059 77.6482C69.8059 77.1319 69.4375 76.7635 68.9179 76.7635C68.3983 76.7635 68.0234 77.1319 68.0234 77.6449C68.0234 78.181 68.4016 78.5658 68.9278 78.5658C69.2896 78.5658 69.6217 78.3684 69.7204 78.0955L69.4112 77.9935C69.3356 78.1481 69.135 78.2665 68.9212 78.2665ZM68.3917 77.5101C68.4411 77.2437 68.6384 77.0628 68.9081 77.0628C69.1843 77.0628 69.3948 77.247 69.4343 77.5101H68.3917ZM70.8935 78.5691C71.3177 78.5691 71.6203 78.329 71.6203 78.0034C71.617 77.3851 70.4922 77.6515 70.4955 77.2864C70.4955 77.1516 70.6468 77.0529 70.8277 77.0529C71.0678 77.0529 71.2421 77.168 71.2454 77.3325H71.5775C71.5775 77.0003 71.2618 76.7602 70.831 76.7602C70.4528 76.7602 70.1601 76.9839 70.1601 77.2897C70.1601 77.9771 71.275 77.6581 71.2783 78.033C71.2783 78.1744 71.1171 78.2797 70.8935 78.2797C70.6435 78.2797 70.4626 78.1349 70.4626 77.9343H70.1338C70.1338 78.3027 70.4528 78.5691 70.8935 78.5691Z" fill="#93A5B1"/>
<circle opacity="0.2" cx="61" cy="40" r="16" fill="#4EB1F9"/>
<path fill-rule="evenodd" clip-rule="evenodd" d="M55.6726 35.4737C55.4041 35.7834 55.1885 36.1519 55.0274 36.5792C54.8766 37.0174 54.8015 37.4877 54.8015 37.9895C54.8015 38.3956 54.8607 38.8064 54.9792 39.2234C55.108 39.6288 55.2911 40.0431 55.528 40.4649C55.7642 40.8867 56.0659 41.3064 56.4315 41.7228C56.7869 42.15 57.2062 42.5773 57.6904 43.0046C58.2068 43.464 58.7722 43.9076 59.3858 44.3349C59.9994 44.7622 60.5372 45.0985 61 45.3439C61.4627 45.0985 62.0006 44.7622 62.6141 44.3349C63.227 43.9076 63.7924 43.464 64.3089 43.0046C64.793 42.5773 65.2124 42.15 65.5677 41.7228C65.9334 41.3064 66.2343 40.8867 66.4712 40.4649C66.7081 40.0431 66.8913 39.6288 67.0201 39.2234C67.1385 38.8064 67.1977 38.3956 67.1977 37.9895C67.1977 37.4877 67.122 37.0222 66.9719 36.5949C66.81 36.1683 66.5924 35.7998 66.3184 35.4895C66.0436 35.1798 65.7179 34.9344 65.3419 34.7525C64.9755 34.5816 64.572 34.4962 64.1312 34.4962C63.7332 34.4962 63.4047 34.5201 63.1465 34.5686C62.8882 34.6165 62.63 34.7047 62.3717 34.8325C62.2106 34.9077 62.057 34.9979 61.9117 35.1053C61.7664 35.2119 61.6294 35.335 61.4999 35.4737L61 36.0022L60.4993 35.4737C60.3706 35.3452 60.2349 35.2276 60.0958 35.121C59.956 35.0143 59.8052 34.9234 59.644 34.8489C59.3741 34.7101 59.1083 34.6165 58.8452 34.5686C58.5808 34.5201 58.255 34.4962 57.868 34.4962C57.4266 34.4962 57.0182 34.5816 56.6416 34.7525C56.2649 34.9234 55.9419 35.1641 55.6726 35.4737ZM55.3179 42.5397C54.9089 42.0489 54.5618 41.5519 54.2767 41.0501C53.9916 40.5476 53.7795 40.0458 53.639 39.5434C53.4992 39.0306 53.4297 38.5131 53.4297 37.9895C53.4297 37.3059 53.5371 36.6646 53.752 36.0664C53.9785 35.4792 54.2877 34.9665 54.6803 34.5283C55.0728 34.0901 55.5438 33.7483 56.0927 33.5029C56.6305 33.2465 57.2227 33.1187 57.868 33.1187C58.3521 33.1187 58.777 33.1556 59.144 33.2308C59.509 33.3053 59.8802 33.4331 60.2576 33.615C60.3863 33.6792 60.5131 33.751 60.637 33.831C60.7596 33.9117 60.8808 33.9944 60.9999 34.0798C61.1184 33.9834 61.2396 33.8953 61.3628 33.8153C61.4868 33.7353 61.6183 33.6628 61.7581 33.5992C62.1245 33.4174 62.4874 33.2916 62.8476 33.2226C63.2084 33.1528 63.636 33.1187 64.1312 33.1187C64.7764 33.1289 65.3687 33.2574 65.9065 33.5029C66.4443 33.7592 66.9126 34.1065 67.3106 34.544C67.7087 34.9822 68.0206 35.4949 68.2465 36.0822C68.462 36.6701 68.5695 37.3059 68.5695 37.9895C68.5695 38.5131 68.4992 39.0306 68.3594 39.5434C68.2196 40.0458 68.0075 40.5476 67.7224 41.0501C67.4373 41.5519 67.0903 42.0489 66.6812 42.5397C66.2611 43.0422 65.777 43.533 65.2282 44.0136C64.658 44.527 64.0396 45.0158 63.3723 45.4807C62.705 45.9448 62.1135 46.3106 61.597 46.5779L60.9999 46.8821L60.4029 46.5779C59.8864 46.3106 59.2935 45.9448 58.6276 45.4807C57.9596 45.0158 57.3405 44.527 56.7703 44.0136C56.2214 43.533 55.7373 43.0422 55.3179 42.5397ZM59.092 40.3715H57.2582C56.8774 40.3715 56.5695 40.0653 56.5695 39.6879C56.5695 39.3105 56.8774 39.0043 57.2582 39.0043H58.6603L59.5279 37.2289C59.6498 36.978 59.917 36.8249 60.1939 36.8447C60.4741 36.8638 60.7152 37.0498 60.8019 37.3143L61.7853 40.3025L62.2488 39.3823C62.3652 39.1506 62.6041 39.0043 62.8651 39.0043H64.7885C65.1686 39.0043 65.4771 39.3105 65.4771 39.6879C65.4771 40.0653 65.1686 40.3715 64.7885 40.3715H63.2907L62.2681 42.4026C62.151 42.6357 61.912 42.7806 61.6524 42.7806C61.6352 42.7806 61.6187 42.7799 61.6021 42.7786C61.3225 42.7581 61.085 42.5728 60.9982 42.3089L60.0231 39.3488L59.7118 39.986C59.5968 40.2218 59.3558 40.3715 59.092 40.3715Z" fill="#4EB1F9"/>
<path d="M53.2462 89.652H52.2702L51.3142 92.5H52.0222L52.1822 91.984H53.3262L53.4942 92.5H54.1982L53.2462 89.652ZM52.7582 90.228L53.1902 91.5H52.3262L52.7582 90.228ZM56.5234 91.184C56.4594 90.712 56.0114 90.372 55.4754 90.372C54.8274 90.372 54.3594 90.836 54.3594 91.476C54.3594 92.116 54.8314 92.58 55.4754 92.58C56.0034 92.58 56.4514 92.24 56.5274 91.768L55.9674 91.696C55.9114 91.916 55.7154 92.076 55.4794 92.076C55.1834 92.076 54.9594 91.824 54.9594 91.476C54.9594 91.128 55.1874 90.876 55.4794 90.876C55.7074 90.876 55.9114 91.036 55.9634 91.256L56.5234 91.184ZM57.0254 91.836C57.0254 92.272 57.2894 92.58 57.6974 92.58C57.8254 92.58 57.9854 92.556 58.1054 92.516L58.1094 92.036C58.0414 92.052 57.9534 92.064 57.8974 92.064C57.7294 92.064 57.6254 91.948 57.6254 91.776V90.908H58.0894V90.452H57.6254V89.936H57.1214L57.0534 90.452H56.7374V90.908H57.0254V91.836ZM59.1853 90.452H58.5853V92.5H59.1853V90.452ZM58.5373 89.84C58.5373 90.04 58.6813 90.18 58.8853 90.18C59.0893 90.18 59.2333 90.04 59.2333 89.84C59.2333 89.644 59.0893 89.504 58.8853 89.504C58.6813 89.504 58.5373 89.644 58.5373 89.84ZM60.2802 92.5H61.1362L61.8522 90.452H61.2082L60.7082 92.044L60.2042 90.452H59.5642L60.2802 92.5ZM63.6643 90.736C63.5043 90.508 63.2603 90.372 62.9683 90.372C62.3923 90.372 61.9883 90.828 61.9883 91.476C61.9883 92.124 62.3923 92.58 62.9683 92.58C63.2603 92.58 63.5043 92.444 63.6643 92.216V92.5H64.2643V90.452H63.6643V90.736ZM63.1243 92.052C62.8123 92.052 62.5883 91.808 62.5883 91.476C62.5883 91.144 62.8123 90.9 63.1243 90.9C63.4363 90.9 63.6603 91.144 63.6603 91.476C63.6603 91.808 63.4363 92.052 63.1243 92.052ZM64.9394 91.836C64.9394 92.272 65.2034 92.58 65.6114 92.58C65.7394 92.58 65.8994 92.556 66.0194 92.516L66.0234 92.036C65.9554 92.052 65.8674 92.064 65.8114 92.064C65.6434 92.064 65.5394 91.948 65.5394 91.776V90.908H66.0034V90.452H65.5394V89.936H65.0354L64.9674 90.452H64.6514V90.908H64.9394V91.836ZM67.5034 92.12C67.2314 92.12 67.0314 91.932 66.9794 91.644L68.5834 91.648C68.5914 91.604 68.5914 91.52 68.5914 91.468C68.5914 90.82 68.1434 90.372 67.4874 90.372C66.8274 90.372 66.3594 90.82 66.3594 91.46C66.3594 92.12 66.8274 92.58 67.4874 92.58C67.9714 92.58 68.3914 92.32 68.4994 91.964L67.9754 91.848C67.9034 92.004 67.7194 92.12 67.5034 92.12ZM66.9754 91.284C67.0274 91.012 67.2114 90.832 67.4754 90.832C67.7474 90.832 67.9474 91.024 67.9834 91.284H66.9754Z" fill="#A7B5BF"/>
<rect x="39.75" y="84.75" width="40.5" height="13.5" rx="6.75" stroke="#BEC9D0" stroke-width="0.5"/>
<g filter="url(#filter2_ddd_965_9723)">
<rect x="13" y="112.5" width="96" height="94.5" rx="2.87767" fill="white"/>
</g>
<path d="M40.36 167.215V166.319H38.554V165.024H40.773V164.016H37.378V169H38.554V167.215H40.36ZM42.4926 163.806H41.4426V169H42.4926V163.806ZM44.5319 165.416H43.4819V169H44.5319V165.416ZM43.3979 164.345C43.3979 164.695 43.6499 164.94 44.0069 164.94C44.3639 164.94 44.6159 164.695 44.6159 164.345C44.6159 164.002 44.3639 163.757 44.0069 163.757C43.6499 163.757 43.3979 164.002 43.3979 164.345ZM45.5308 169.441C45.6848 170.204 46.4478 170.75 47.3788 170.75C48.5128 170.75 49.2968 170.071 49.2968 168.958V165.416H48.2538V165.843C47.9738 165.493 47.5678 165.283 47.0638 165.283C46.0768 165.283 45.3628 166.081 45.3628 167.208C45.3628 168.293 46.0768 169.049 47.0638 169.049C47.5608 169.049 47.9668 168.846 48.2468 168.503V168.93C48.2468 169.553 47.8688 169.917 47.3368 169.917C46.9378 169.917 46.5808 169.658 46.4688 169.294L45.5308 169.441ZM47.3508 168.188C46.8048 168.188 46.4128 167.775 46.4128 167.208C46.4128 166.627 46.8048 166.2 47.3508 166.2C47.8968 166.2 48.2888 166.627 48.2888 167.208C48.2888 167.775 47.8968 168.188 47.3508 168.188ZM52.3555 165.276C51.9215 165.276 51.4945 165.472 51.2565 165.822V163.806H50.2065V169H51.2565V166.984C51.2565 166.529 51.5925 166.2 51.9985 166.2C52.4185 166.2 52.6705 166.508 52.6705 166.942V169H53.7205V166.732C53.7205 165.878 53.1745 165.276 52.3555 165.276ZM54.834 167.838C54.834 168.601 55.296 169.14 56.01 169.14C56.234 169.14 56.514 169.098 56.724 169.028L56.731 168.188C56.612 168.216 56.458 168.237 56.36 168.237C56.066 168.237 55.884 168.034 55.884 167.733V166.214H56.696V165.416H55.884V164.513H55.002L54.883 165.416H54.33V166.214H54.834V167.838ZM60.7746 164.996V169H61.9506V164.996H63.4486V164.016H59.2766V164.996H60.7746ZM65.1559 165.416H64.1059V169H65.1559V165.416ZM64.0219 164.345C64.0219 164.695 64.2739 164.94 64.6309 164.94C64.9879 164.94 65.2399 164.695 65.2399 164.345C65.2399 164.002 64.9879 163.757 64.6309 163.757C64.2739 163.757 64.0219 164.002 64.0219 164.345ZM69.7739 166.697C69.6619 165.871 68.8779 165.276 67.9399 165.276C66.8059 165.276 65.9869 166.088 65.9869 167.208C65.9869 168.328 66.8129 169.14 67.9399 169.14C68.8639 169.14 69.6479 168.545 69.7809 167.719L68.8009 167.593C68.7029 167.978 68.3599 168.258 67.9469 168.258C67.4289 168.258 67.0369 167.817 67.0369 167.208C67.0369 166.599 67.4359 166.158 67.9469 166.158C68.3459 166.158 68.7029 166.438 68.7939 166.823L69.7739 166.697ZM70.516 163.806V169H71.566V167.46L72.819 169H74.093L72.497 167.096L74.051 165.416H72.777L71.566 166.739V163.806H70.516ZM76.2604 168.335C75.7844 168.335 75.4344 168.006 75.3434 167.502L78.1504 167.509C78.1644 167.432 78.1644 167.285 78.1644 167.194C78.1644 166.06 77.3804 165.276 76.2324 165.276C75.0774 165.276 74.2584 166.06 74.2584 167.18C74.2584 168.335 75.0774 169.14 76.2324 169.14C77.0794 169.14 77.8144 168.685 78.0034 168.062L77.0864 167.859C76.9604 168.132 76.6384 168.335 76.2604 168.335ZM75.3364 166.872C75.4274 166.396 75.7494 166.081 76.2114 166.081C76.6874 166.081 77.0374 166.417 77.1004 166.872H75.3364ZM79.0468 167.838C79.0468 168.601 79.5088 169.14 80.2228 169.14C80.4468 169.14 80.7268 169.098 80.9368 169.028L80.9438 168.188C80.8248 168.216 80.6708 168.237 80.5728 168.237C80.2788 168.237 80.0968 168.034 80.0968 167.733V166.214H80.9088V165.416H80.0968V164.513H79.2148L79.0958 165.416H78.5428V166.214H79.0468V167.838ZM83.2188 169.154C84.2128 169.154 84.9058 168.615 84.9058 167.873C84.8988 166.522 82.5328 167.089 82.5398 166.403C82.5398 166.172 82.7988 166.004 83.1278 166.004C83.5478 166.004 83.8558 166.207 83.8628 166.501H84.7868C84.7798 165.78 84.0868 165.262 83.1278 165.262C82.2528 165.262 81.5948 165.766 81.5878 166.466C81.5878 167.978 83.8908 167.264 83.8978 167.985C83.8978 168.23 83.6178 168.412 83.2328 168.412C82.7778 168.412 82.4418 168.16 82.4418 167.803H81.5528C81.5528 168.587 82.2458 169.154 83.2188 169.154Z" fill="#284B64"/>
<path d="M49.4492 176.589C49.0151 176.589 48.6467 176.915 48.5777 177.365L48.946 177.438C48.9822 177.139 49.196 176.925 49.4492 176.925C49.7156 176.925 49.9063 177.109 49.9063 177.359C49.9063 177.566 49.7715 177.714 49.5709 177.865L48.6007 178.592V179H50.2451V178.674H49.0184L49.8143 178.092C50.0938 177.888 50.2878 177.642 50.2878 177.329C50.2878 176.905 49.9261 176.589 49.4492 176.589ZM50.993 176.672L50.8746 177.819H51.5225C51.8678 177.819 52.0717 178.02 52.0717 178.296C52.0717 178.556 51.8645 178.747 51.5784 178.747C51.2989 178.747 51.0818 178.517 51.0555 178.198L50.7102 178.253C50.7463 178.734 51.1081 179.082 51.5916 179.082C52.0914 179.082 52.4499 178.753 52.4499 178.296C52.4499 177.842 52.1145 177.51 51.5916 177.51H51.2462L51.2989 176.997H52.2625V176.672H50.993ZM54.3474 178.665V177.951H55.4459V177.648H54.3474V177.007H55.5774V176.672H53.9659V179H55.6103V178.665H54.3474ZM56.0328 179H56.3913V178.02C56.3913 177.757 56.5491 177.579 56.7859 177.579C57.0161 177.579 57.1674 177.757 57.1674 178.02V179H57.5226V178.02C57.5226 177.763 57.6903 177.579 57.9238 177.579C58.1507 177.586 58.3119 177.767 58.3119 178.02V179H58.6671V177.99C58.6671 177.566 58.3908 177.267 57.9995 177.267C57.7594 177.267 57.5489 177.389 57.4338 177.579C57.3351 177.389 57.1148 177.264 56.8583 177.264C56.6576 177.264 56.4833 177.359 56.3781 177.52V177.329H56.0328V179ZM59.4648 178.773C59.6063 178.957 59.82 179.066 60.07 179.066C60.5567 179.066 60.9086 178.688 60.9086 178.165C60.9086 177.642 60.5534 177.264 60.07 177.264C59.8135 177.264 59.5964 177.375 59.455 177.563V177.329H59.1064V179.756H59.4648V178.773ZM60.5534 178.165C60.5534 178.494 60.3199 178.73 60.0009 178.73C59.6819 178.73 59.4517 178.494 59.4517 178.165C59.4517 177.836 59.6819 177.599 60.0009 177.599C60.3166 177.599 60.5534 177.832 60.5534 178.165ZM61.6584 176.573H61.3032V179H61.6584V176.573ZM63.8618 178.165C63.8618 177.635 63.4868 177.264 62.954 177.264C62.418 177.264 62.0463 177.635 62.0463 178.165C62.0463 178.694 62.418 179.066 62.954 179.066C63.4868 179.066 63.8618 178.694 63.8618 178.165ZM63.5066 178.165C63.5066 178.503 63.2731 178.75 62.954 178.75C62.6318 178.75 62.4015 178.503 62.4015 178.165C62.4015 177.826 62.6318 177.579 62.954 177.579C63.2731 177.579 63.5066 177.826 63.5066 178.165ZM64.1712 179.687C64.2567 179.72 64.3685 179.743 64.4639 179.743C64.8191 179.743 64.9638 179.424 65.1118 179.039L65.763 177.329H65.3913L64.9375 178.563L64.4146 177.329H64.0232L64.7763 179.007C64.6908 179.214 64.6218 179.444 64.3915 179.444C64.3258 179.444 64.2436 179.424 64.1712 179.398V179.687ZM66.824 178.766C66.5477 178.766 66.3372 178.569 66.2945 178.273H67.7021C67.7054 178.237 67.7087 178.188 67.7087 178.148C67.7087 177.632 67.3403 177.264 66.8207 177.264C66.3011 177.264 65.9261 177.632 65.9261 178.145C65.9261 178.681 66.3044 179.066 66.8306 179.066C67.1923 179.066 67.5245 178.868 67.6232 178.595L67.314 178.494C67.2384 178.648 67.0378 178.766 66.824 178.766ZM66.2945 178.01C66.3438 177.744 66.5411 177.563 66.8108 177.563C67.0871 177.563 67.2976 177.747 67.337 178.01H66.2945ZM68.9212 178.766C68.645 178.766 68.4345 178.569 68.3917 178.273H69.7993C69.8026 178.237 69.8059 178.188 69.8059 178.148C69.8059 177.632 69.4375 177.264 68.9179 177.264C68.3983 177.264 68.0234 177.632 68.0234 178.145C68.0234 178.681 68.4016 179.066 68.9278 179.066C69.2896 179.066 69.6217 178.868 69.7204 178.595L69.4112 178.494C69.3356 178.648 69.135 178.766 68.9212 178.766ZM68.3917 178.01C68.4411 177.744 68.6384 177.563 68.9081 177.563C69.1843 177.563 69.3948 177.747 69.4343 178.01H68.3917ZM70.8935 179.069C71.3177 179.069 71.6203 178.829 71.6203 178.503C71.617 177.885 70.4922 178.151 70.4955 177.786C70.4955 177.652 70.6468 177.553 70.8277 177.553C71.0678 177.553 71.2421 177.668 71.2454 177.832H71.5775C71.5775 177.5 71.2618 177.26 70.831 177.26C70.4528 177.26 70.1601 177.484 70.1601 177.79C70.1601 178.477 71.275 178.158 71.2783 178.533C71.2783 178.674 71.1171 178.78 70.8935 178.78C70.6435 178.78 70.4626 178.635 70.4626 178.434H70.1338C70.1338 178.803 70.4528 179.069 70.8935 179.069Z" fill="#93A5B1"/>
<circle opacity="0.2" cx="61" cy="140.5" r="16" fill="#FFA150"/>
<path fill-rule="evenodd" clip-rule="evenodd" d="M66.5049 141.68V134.503C66.5049 133.612 65.8167 132.93 64.9168 132.93H57.0822C56.1823 132.93 55.4941 133.612 55.4941 134.503V141.68V143.253C55.8696 143.253 56.1748 143.553 56.1821 143.927V143.955C56.1748 144.328 55.8696 144.629 55.4941 144.629V144.826V146.497C55.4941 147.388 56.1823 148.07 57.0822 148.07H64.9168C65.8167 148.07 66.5049 147.388 66.5049 146.497V144.826V144.629C66.1249 144.629 65.8168 144.321 65.8168 143.941C65.8168 143.561 66.1249 143.253 66.5049 143.253V141.68ZM56.8682 144.629V146.196C56.8682 146.494 57.0647 146.694 57.3594 146.694H64.6351C64.9298 146.694 65.1263 146.494 65.1263 146.196V144.629H64.4402V143.253H65.1263V134.805C65.1263 134.506 64.9298 134.306 64.6351 134.306H57.3594C57.0647 134.306 56.8682 134.506 56.8682 134.805V143.253H57.5585V144.629H56.8682ZM58.2468 144.629H59.6232V143.253H58.2468V144.629ZM60.3112 144.629H61.6875V143.253H60.3112V144.629ZM63.7522 144.629H62.3759V143.253H63.7522V144.629ZM63.3545 137.014C63.6066 136.762 63.7561 136.459 63.7521 136.208C63.7498 136.061 63.7013 135.923 63.6076 135.828C63.5123 135.734 63.3737 135.685 63.2268 135.683C62.9771 135.679 62.6745 135.828 62.4226 136.079C62.046 136.418 61.9132 136.559 61.556 136.943L58.7677 136.388L58.2468 136.908L60.4851 138.027L59.3008 139.421C59.1232 139.365 58.904 139.316 58.7479 139.348C58.6699 139.363 58.6061 139.397 58.562 139.452C58.5231 139.501 58.4982 139.568 58.4982 139.658C58.4982 139.743 58.5192 139.832 58.5909 139.932L59.5027 140.844C59.6034 140.916 59.6917 140.937 59.777 140.937C59.8675 140.937 59.9338 140.912 59.9825 140.873C60.0376 140.829 60.0719 140.765 60.0875 140.687C60.1187 140.531 60.0695 140.312 60.0144 140.134L61.4076 138.95L62.5267 141.188L63.0475 140.667L62.4919 137.879C62.8752 137.522 63.016 137.39 63.3545 137.014Z" fill="#FFA150"/>
<rect x="39.5" y="185" width="41" height="14" rx="7" fill="#62D26F"/>
<path d="M53.2462 190.152H52.2702L51.3142 193H52.0222L52.1822 192.484H53.3262L53.4942 193H54.1982L53.2462 190.152ZM52.7582 190.728L53.1902 192H52.3262L52.7582 190.728ZM56.5234 191.684C56.4594 191.212 56.0114 190.872 55.4754 190.872C54.8274 190.872 54.3594 191.336 54.3594 191.976C54.3594 192.616 54.8314 193.08 55.4754 193.08C56.0034 193.08 56.4514 192.74 56.5274 192.268L55.9674 192.196C55.9114 192.416 55.7154 192.576 55.4794 192.576C55.1834 192.576 54.9594 192.324 54.9594 191.976C54.9594 191.628 55.1874 191.376 55.4794 191.376C55.7074 191.376 55.9114 191.536 55.9634 191.756L56.5234 191.684ZM57.0254 192.336C57.0254 192.772 57.2894 193.08 57.6974 193.08C57.8254 193.08 57.9854 193.056 58.1054 193.016L58.1094 192.536C58.0414 192.552 57.9534 192.564 57.8974 192.564C57.7294 192.564 57.6254 192.448 57.6254 192.276V191.408H58.0894V190.952H57.6254V190.436H57.1214L57.0534 190.952H56.7374V191.408H57.0254V192.336ZM59.1853 190.952H58.5853V193H59.1853V190.952ZM58.5373 190.34C58.5373 190.54 58.6813 190.68 58.8853 190.68C59.0893 190.68 59.2333 190.54 59.2333 190.34C59.2333 190.144 59.0893 190.004 58.8853 190.004C58.6813 190.004 58.5373 190.144 58.5373 190.34ZM60.2802 193H61.1362L61.8522 190.952H61.2082L60.7082 192.544L60.2042 190.952H59.5642L60.2802 193ZM63.6643 191.236C63.5043 191.008 63.2603 190.872 62.9683 190.872C62.3923 190.872 61.9883 191.328 61.9883 191.976C61.9883 192.624 62.3923 193.08 62.9683 193.08C63.2603 193.08 63.5043 192.944 63.6643 192.716V193H64.2643V190.952H63.6643V191.236ZM63.1243 192.552C62.8123 192.552 62.5883 192.308 62.5883 191.976C62.5883 191.644 62.8123 191.4 63.1243 191.4C63.4363 191.4 63.6603 191.644 63.6603 191.976C63.6603 192.308 63.4363 192.552 63.1243 192.552ZM64.9394 192.336C64.9394 192.772 65.2034 193.08 65.6114 193.08C65.7394 193.08 65.8994 193.056 66.0194 193.016L66.0234 192.536C65.9554 192.552 65.8674 192.564 65.8114 192.564C65.6434 192.564 65.5394 192.448 65.5394 192.276V191.408H66.0034V190.952H65.5394V190.436H65.0354L64.9674 190.952H64.6514V191.408H64.9394V192.336ZM67.5034 192.62C67.2314 192.62 67.0314 192.432 66.9794 192.144L68.5834 192.148C68.5914 192.104 68.5914 192.02 68.5914 191.968C68.5914 191.32 68.1434 190.872 67.4874 190.872C66.8274 190.872 66.3594 191.32 66.3594 191.96C66.3594 192.62 66.8274 193.08 67.4874 193.08C67.9714 193.08 68.3914 192.82 68.4994 192.464L67.9754 192.348C67.9034 192.504 67.7194 192.62 67.5034 192.62ZM66.9754 191.784C67.0274 191.512 67.2114 191.332 67.4754 191.332C67.7474 191.332 67.9474 191.524 67.9834 191.784H66.9754Z" fill="white"/>
<g filter="url(#filter3_ddd_965_9723)">
<rect x="217" y="12" width="96" height="94.5" rx="2.87767" fill="white"/>
</g>
<path d="M233.11 68.5V64.937L234.482 68.5H235.364L236.743 64.937V68.5H237.891V63.516H236.316L234.923 67.163L233.516 63.516H231.962V68.5H233.11ZM240.752 67.835C240.276 67.835 239.926 67.506 239.835 67.002L242.642 67.009C242.656 66.932 242.656 66.785 242.656 66.694C242.656 65.56 241.872 64.776 240.724 64.776C239.569 64.776 238.75 65.56 238.75 66.68C238.75 67.835 239.569 68.64 240.724 68.64C241.571 68.64 242.306 68.185 242.495 67.562L241.578 67.359C241.452 67.632 241.13 67.835 240.752 67.835ZM239.828 66.372C239.919 65.896 240.241 65.581 240.703 65.581C241.179 65.581 241.529 65.917 241.592 66.372H239.828ZM246.125 65.35C245.845 64.986 245.432 64.776 244.942 64.776C243.948 64.776 243.241 65.574 243.241 66.708C243.241 67.842 243.948 68.64 244.942 68.64C245.446 68.64 245.859 68.423 246.139 68.066V68.5H247.175V63.306H246.125V65.35ZM244.291 66.708C244.291 66.141 244.683 65.721 245.229 65.721C245.775 65.721 246.167 66.141 246.167 66.708C246.167 67.275 245.775 67.695 245.229 67.695C244.69 67.695 244.291 67.282 244.291 66.708ZM249.219 64.916H248.169V68.5H249.219V64.916ZM248.085 63.845C248.085 64.195 248.337 64.44 248.694 64.44C249.051 64.44 249.303 64.195 249.303 63.845C249.303 63.502 249.051 63.257 248.694 63.257C248.337 63.257 248.085 63.502 248.085 63.845ZM253.837 66.197C253.725 65.371 252.941 64.776 252.003 64.776C250.869 64.776 250.05 65.588 250.05 66.708C250.05 67.828 250.876 68.64 252.003 68.64C252.927 68.64 253.711 68.045 253.844 67.219L252.864 67.093C252.766 67.478 252.423 67.758 252.01 67.758C251.492 67.758 251.1 67.317 251.1 66.708C251.1 66.099 251.499 65.658 252.01 65.658C252.409 65.658 252.766 65.938 252.857 66.323L253.837 66.197ZM257.351 65.413C257.071 65.014 256.644 64.776 256.133 64.776C255.125 64.776 254.418 65.574 254.418 66.708C254.418 67.842 255.125 68.64 256.133 68.64C256.644 68.64 257.071 68.402 257.351 68.003V68.5H258.401V64.916H257.351V65.413ZM256.406 67.716C255.86 67.716 255.468 67.289 255.468 66.708C255.468 66.127 255.86 65.7 256.406 65.7C256.952 65.7 257.344 66.127 257.344 66.708C257.344 67.289 256.952 67.716 256.406 67.716ZM260.352 63.306H259.302V68.5H260.352V63.306ZM267.317 66.645C267.163 67.233 266.596 67.667 265.966 67.667C265.084 67.667 264.454 66.981 264.454 66.008C264.454 65.035 265.077 64.349 265.966 64.349C266.61 64.349 267.17 64.79 267.31 65.406L268.409 65.28C268.234 64.153 267.198 63.341 265.938 63.341C264.398 63.341 263.278 64.461 263.278 66.008C263.278 67.555 264.398 68.675 265.938 68.675C267.212 68.675 268.248 67.884 268.416 66.785L267.317 66.645ZM273.023 66.708C273.023 65.567 272.211 64.776 271.028 64.776C269.852 64.776 269.04 65.567 269.04 66.708C269.04 67.849 269.852 68.64 271.028 68.64C272.211 68.64 273.023 67.849 273.023 66.708ZM271.973 66.708C271.973 67.296 271.581 67.716 271.028 67.716C270.482 67.716 270.09 67.296 270.09 66.708C270.09 66.12 270.482 65.7 271.028 65.7C271.581 65.7 271.973 66.12 271.973 66.708ZM274.514 68.5H276.012L277.265 64.916H276.138L275.263 67.702L274.381 64.916H273.261L274.514 68.5ZM279.505 67.835C279.029 67.835 278.679 67.506 278.588 67.002L281.395 67.009C281.409 66.932 281.409 66.785 281.409 66.694C281.409 65.56 280.625 64.776 279.477 64.776C278.322 64.776 277.503 65.56 277.503 66.68C277.503 67.835 278.322 68.64 279.477 68.64C280.324 68.64 281.059 68.185 281.248 67.562L280.331 67.359C280.205 67.632 279.883 67.835 279.505 67.835ZM278.581 66.372C278.672 65.896 278.994 65.581 279.456 65.581C279.932 65.581 280.282 65.917 280.345 66.372H278.581ZM284.122 64.783C283.723 64.783 283.373 65.014 283.163 65.371V64.916H282.155V68.5H283.205V66.596C283.205 66.057 283.506 65.672 283.961 65.672C284.115 65.672 284.346 65.721 284.549 65.805V64.874C284.409 64.818 284.262 64.783 284.122 64.783ZM287.928 65.413C287.648 65.014 287.221 64.776 286.71 64.776C285.702 64.776 284.995 65.574 284.995 66.708C284.995 67.842 285.702 68.64 286.71 68.64C287.221 68.64 287.648 68.402 287.928 68.003V68.5H288.978V64.916H287.928V65.413ZM286.983 67.716C286.437 67.716 286.045 67.289 286.045 66.708C286.045 66.127 286.437 65.7 286.983 65.7C287.529 65.7 287.921 66.127 287.921 66.708C287.921 67.289 287.529 67.716 286.983 67.716ZM289.894 68.941C290.048 69.704 290.811 70.25 291.742 70.25C292.876 70.25 293.66 69.571 293.66 68.458V64.916H292.617V65.343C292.337 64.993 291.931 64.783 291.427 64.783C290.44 64.783 289.726 65.581 289.726 66.708C289.726 67.793 290.44 68.549 291.427 68.549C291.924 68.549 292.33 68.346 292.61 68.003V68.43C292.61 69.053 292.232 69.417 291.7 69.417C291.301 69.417 290.944 69.158 290.832 68.794L289.894 68.941ZM291.714 67.688C291.168 67.688 290.776 67.275 290.776 66.708C290.776 66.127 291.168 65.7 291.714 65.7C292.26 65.7 292.652 66.127 292.652 66.708C292.652 67.275 292.26 67.688 291.714 67.688ZM296.41 67.835C295.934 67.835 295.584 67.506 295.493 67.002L298.3 67.009C298.314 66.932 298.314 66.785 298.314 66.694C298.314 65.56 297.53 64.776 296.382 64.776C295.227 64.776 294.408 65.56 294.408 66.68C294.408 67.835 295.227 68.64 296.382 68.64C297.229 68.64 297.964 68.185 298.153 67.562L297.236 67.359C297.11 67.632 296.788 67.835 296.41 67.835ZM295.486 66.372C295.577 65.896 295.899 65.581 296.361 65.581C296.837 65.581 297.187 65.917 297.25 66.372H295.486Z" fill="#284B64"/>
<path d="M253.449 76.0893C253.015 76.0893 252.647 76.4149 252.578 76.8655L252.946 76.9378C252.982 76.6386 253.196 76.4248 253.449 76.4248C253.716 76.4248 253.906 76.609 253.906 76.8589C253.906 77.0661 253.772 77.2141 253.571 77.3654L252.601 78.0922V78.5H254.245V78.1744H253.018L253.814 77.5923C254.094 77.3884 254.288 77.1417 254.288 76.8293C254.288 76.4051 253.926 76.0893 253.449 76.0893ZM254.993 76.1716L254.875 77.3193H255.522C255.868 77.3193 256.072 77.5199 256.072 77.7962C256.072 78.056 255.865 78.2468 255.578 78.2468C255.299 78.2468 255.082 78.0166 255.055 77.6975L254.71 77.7534C254.746 78.2336 255.108 78.5822 255.592 78.5822C256.091 78.5822 256.45 78.2533 256.45 77.7962C256.45 77.3424 256.114 77.0102 255.592 77.0102H255.246L255.299 76.4971H256.262V76.1716H254.993ZM258.347 78.1645V77.4509H259.446V77.1483H258.347V76.507H259.577V76.1716H257.966V78.5H259.61V78.1645H258.347ZM260.033 78.5H260.391V77.5199C260.391 77.2568 260.549 77.0793 260.786 77.0793C261.016 77.0793 261.167 77.2568 261.167 77.5199V78.5H261.523V77.5199C261.523 77.2634 261.69 77.0793 261.924 77.0793C262.151 77.0858 262.312 77.2667 262.312 77.5199V78.5H262.667V77.4903C262.667 77.0661 262.391 76.7668 261.999 76.7668C261.759 76.7668 261.549 76.8885 261.434 77.0793C261.335 76.8885 261.115 76.7635 260.858 76.7635C260.658 76.7635 260.483 76.8589 260.378 77.0201V76.8293H260.033V78.5ZM263.465 78.2731C263.606 78.4572 263.82 78.5658 264.07 78.5658C264.557 78.5658 264.909 78.1876 264.909 77.6647C264.909 77.1417 264.553 76.7635 264.07 76.7635C263.813 76.7635 263.596 76.8753 263.455 77.0628V76.8293H263.106V79.2564H263.465V78.2731ZM264.553 77.6647C264.553 77.9935 264.32 78.2303 264.001 78.2303C263.682 78.2303 263.452 77.9935 263.452 77.6647C263.452 77.3358 263.682 77.099 264.001 77.099C264.317 77.099 264.553 77.3325 264.553 77.6647ZM265.658 76.0729H265.303V78.5H265.658V76.0729ZM267.862 77.6647C267.862 77.1352 267.487 76.7635 266.954 76.7635C266.418 76.7635 266.046 77.1352 266.046 77.6647C266.046 78.1941 266.418 78.5658 266.954 78.5658C267.487 78.5658 267.862 78.1941 267.862 77.6647ZM267.507 77.6647C267.507 78.0034 267.273 78.2501 266.954 78.2501C266.632 78.2501 266.402 78.0034 266.402 77.6647C266.402 77.3259 266.632 77.0793 266.954 77.0793C267.273 77.0793 267.507 77.3259 267.507 77.6647ZM268.171 79.1874C268.257 79.2202 268.369 79.2433 268.464 79.2433C268.819 79.2433 268.964 78.9243 269.112 78.5395L269.763 76.8293H269.391L268.937 78.0626L268.415 76.8293H268.023L268.776 78.5066C268.691 78.7138 268.622 78.944 268.392 78.944C268.326 78.944 268.244 78.9243 268.171 78.8979V79.1874ZM270.824 78.2665C270.548 78.2665 270.337 78.0692 270.294 77.7732H271.702C271.705 77.737 271.709 77.6877 271.709 77.6482C271.709 77.1319 271.34 76.7635 270.821 76.7635C270.301 76.7635 269.926 77.1319 269.926 77.6449C269.926 78.181 270.304 78.5658 270.831 78.5658C271.192 78.5658 271.524 78.3684 271.623 78.0955L271.314 77.9935C271.238 78.1481 271.038 78.2665 270.824 78.2665ZM270.294 77.5101C270.344 77.2437 270.541 77.0628 270.811 77.0628C271.087 77.0628 271.298 77.247 271.337 77.5101H270.294ZM272.921 78.2665C272.645 78.2665 272.434 78.0692 272.392 77.7732H273.799C273.803 77.737 273.806 77.6877 273.806 77.6482C273.806 77.1319 273.438 76.7635 272.918 76.7635C272.398 76.7635 272.023 77.1319 272.023 77.6449C272.023 78.181 272.402 78.5658 272.928 78.5658C273.29 78.5658 273.622 78.3684 273.72 78.0955L273.411 77.9935C273.336 78.1481 273.135 78.2665 272.921 78.2665ZM272.392 77.5101C272.441 77.2437 272.638 77.0628 272.908 77.0628C273.184 77.0628 273.395 77.247 273.434 77.5101H272.392ZM274.893 78.5691C275.318 78.5691 275.62 78.329 275.62 78.0034C275.617 77.3851 274.492 77.6515 274.496 77.2864C274.496 77.1516 274.647 77.0529 274.828 77.0529C275.068 77.0529 275.242 77.168 275.245 77.3325H275.578C275.578 77.0003 275.262 76.7602 274.831 76.7602C274.453 76.7602 274.16 76.9839 274.16 77.2897C274.16 77.9771 275.275 77.6581 275.278 78.033C275.278 78.1744 275.117 78.2797 274.893 78.2797C274.644 78.2797 274.463 78.1349 274.463 77.9343H274.134C274.134 78.3027 274.453 78.5691 274.893 78.5691Z" fill="#93A5B1"/>
<circle opacity="0.2" cx="265" cy="40" r="16" fill="#4EB1F9"/>
<path fill-rule="evenodd" clip-rule="evenodd" d="M259.674 35.4737C259.406 35.7834 259.19 36.1519 259.029 36.5792C258.878 37.0174 258.803 37.4877 258.803 37.9895C258.803 38.3956 258.862 38.8064 258.981 39.2234C259.109 39.6288 259.293 40.0431 259.53 40.4649C259.766 40.8867 260.067 41.3064 260.433 41.7228C260.788 42.15 261.208 42.5773 261.692 43.0046C262.208 43.464 262.774 43.9076 263.387 44.3349C264.001 44.7622 264.539 45.0985 265.001 45.3439C265.464 45.0985 266.002 44.7622 266.616 44.3349C267.229 43.9076 267.794 43.464 268.31 43.0046C268.795 42.5773 269.214 42.15 269.569 41.7228C269.935 41.3064 270.236 40.8867 270.473 40.4649C270.71 40.0431 270.893 39.6288 271.022 39.2234C271.14 38.8064 271.199 38.3956 271.199 37.9895C271.199 37.4877 271.124 37.0222 270.973 36.5949C270.812 36.1683 270.594 35.7998 270.32 35.4895C270.045 35.1798 269.719 34.9344 269.343 34.7525C268.977 34.5816 268.573 34.4962 268.133 34.4962C267.735 34.4962 267.406 34.5201 267.148 34.5686C266.89 34.6165 266.632 34.7047 266.373 34.8325C266.212 34.9077 266.059 34.9979 265.913 35.1053C265.768 35.2119 265.631 35.335 265.501 35.4737L265.001 36.0022L264.501 35.4737C264.372 35.3452 264.236 35.2276 264.097 35.121C263.958 35.0143 263.807 34.9234 263.646 34.8489C263.376 34.7101 263.11 34.6165 262.847 34.5686C262.582 34.5201 262.257 34.4962 261.87 34.4962C261.428 34.4962 261.02 34.5816 260.643 34.7525C260.266 34.9234 259.943 35.1641 259.674 35.4737ZM259.32 42.5397C258.911 42.0489 258.564 41.5519 258.279 41.0501C257.994 40.5476 257.781 40.0458 257.641 39.5434C257.501 39.0306 257.432 38.5131 257.432 37.9895C257.432 37.3059 257.539 36.6646 257.754 36.0664C257.98 35.4792 258.29 34.9665 258.682 34.5283C259.075 34.0901 259.546 33.7483 260.095 33.5029C260.632 33.2465 261.225 33.1187 261.87 33.1187C262.354 33.1187 262.779 33.1556 263.146 33.2308C263.511 33.3053 263.882 33.4331 264.26 33.615C264.388 33.6792 264.515 33.751 264.639 33.831C264.762 33.9117 264.883 33.9944 265.002 34.0798C265.12 33.9834 265.242 33.8953 265.365 33.8153C265.489 33.7353 265.62 33.6628 265.76 33.5992C266.126 33.4174 266.489 33.2916 266.85 33.2226C267.21 33.1528 267.638 33.1187 268.133 33.1187C268.778 33.1289 269.371 33.2574 269.908 33.5029C270.446 33.7592 270.915 34.1065 271.313 34.544C271.711 34.9822 272.023 35.4949 272.248 36.0822C272.464 36.6701 272.571 37.3059 272.571 37.9895C272.571 38.5131 272.501 39.0306 272.361 39.5434C272.222 40.0458 272.009 40.5476 271.724 41.0501C271.439 41.5519 271.092 42.0489 270.683 42.5397C270.263 43.0422 269.779 43.533 269.23 44.0136C268.66 44.527 268.042 45.0158 267.374 45.4807C266.707 45.9448 266.115 46.3106 265.599 46.5779L265.002 46.8821L264.405 46.5779C263.888 46.3106 263.295 45.9448 262.63 45.4807C261.962 45.0158 261.342 44.527 260.772 44.0136C260.223 43.533 259.739 43.0422 259.32 42.5397ZM263.093 40.3715H261.259C260.878 40.3715 260.57 40.0652 260.57 39.6879C260.57 39.3105 260.878 39.0043 261.259 39.0043H262.661L263.529 37.2289C263.651 36.978 263.918 36.8249 264.195 36.8447C264.475 36.8638 264.716 37.0498 264.803 37.3143L265.786 40.3025L266.25 39.3823C266.366 39.1506 266.605 39.0043 266.866 39.0043H268.789C269.17 39.0043 269.478 39.3105 269.478 39.6879C269.478 40.0652 269.17 40.3715 268.789 40.3715H267.292L266.269 42.4026C266.152 42.6357 265.913 42.7806 265.653 42.7806C265.636 42.7806 265.62 42.7799 265.603 42.7786C265.323 42.758 265.086 42.5728 264.999 42.3089L264.024 39.3488L263.713 39.9859C263.598 40.2218 263.357 40.3715 263.093 40.3715Z" fill="#4EB1F9"/>
<rect x="243.5" y="84.5" width="41" height="14" rx="7" fill="#62D26F"/>
<path d="M257.246 89.652H256.27L255.314 92.5H256.022L256.182 91.984H257.326L257.494 92.5H258.198L257.246 89.652ZM256.758 90.228L257.19 91.5H256.326L256.758 90.228ZM260.523 91.184C260.459 90.712 260.011 90.372 259.475 90.372C258.827 90.372 258.359 90.836 258.359 91.476C258.359 92.116 258.831 92.58 259.475 92.58C260.003 92.58 260.451 92.24 260.527 91.768L259.967 91.696C259.911 91.916 259.715 92.076 259.479 92.076C259.183 92.076 258.959 91.824 258.959 91.476C258.959 91.128 259.187 90.876 259.479 90.876C259.707 90.876 259.911 91.036 259.963 91.256L260.523 91.184ZM261.025 91.836C261.025 92.272 261.289 92.58 261.697 92.58C261.825 92.58 261.985 92.556 262.105 92.516L262.109 92.036C262.041 92.052 261.953 92.064 261.897 92.064C261.729 92.064 261.625 91.948 261.625 91.776V90.908H262.089V90.452H261.625V89.936H261.121L261.053 90.452H260.737V90.908H261.025V91.836ZM263.185 90.452H262.585V92.5H263.185V90.452ZM262.537 89.84C262.537 90.04 262.681 90.18 262.885 90.18C263.089 90.18 263.233 90.04 263.233 89.84C263.233 89.644 263.089 89.504 262.885 89.504C262.681 89.504 262.537 89.644 262.537 89.84ZM264.28 92.5H265.136L265.852 90.452H265.208L264.708 92.044L264.204 90.452H263.564L264.28 92.5ZM267.664 90.736C267.504 90.508 267.26 90.372 266.968 90.372C266.392 90.372 265.988 90.828 265.988 91.476C265.988 92.124 266.392 92.58 266.968 92.58C267.26 92.58 267.504 92.444 267.664 92.216V92.5H268.264V90.452H267.664V90.736ZM267.124 92.052C266.812 92.052 266.588 91.808 266.588 91.476C266.588 91.144 266.812 90.9 267.124 90.9C267.436 90.9 267.66 91.144 267.66 91.476C267.66 91.808 267.436 92.052 267.124 92.052ZM268.939 91.836C268.939 92.272 269.203 92.58 269.611 92.58C269.739 92.58 269.899 92.556 270.019 92.516L270.023 92.036C269.955 92.052 269.867 92.064 269.811 92.064C269.643 92.064 269.539 91.948 269.539 91.776V90.908H270.003V90.452H269.539V89.936H269.035L268.967 90.452H268.651V90.908H268.939V91.836ZM271.503 92.12C271.231 92.12 271.031 91.932 270.979 91.644L272.583 91.648C272.591 91.604 272.591 91.52 272.591 91.468C272.591 90.82 272.143 90.372 271.487 90.372C270.827 90.372 270.359 90.82 270.359 91.46C270.359 92.12 270.827 92.58 271.487 92.58C271.971 92.58 272.391 92.32 272.499 91.964L271.975 91.848C271.903 92.004 271.719 92.12 271.503 92.12ZM270.975 91.284C271.027 91.012 271.211 90.832 271.475 90.832C271.747 90.832 271.947 91.024 271.983 91.284H270.975Z" fill="white"/>
<g filter="url(#filter4_ddd_965_9723)">
<rect x="115" y="112.5" width="96" height="94.5" rx="2.87767" fill="white"/>
</g>
<path d="M140.342 169C141.413 169 142.162 168.454 142.162 167.635C142.162 167.047 141.812 166.578 141.301 166.452C141.728 166.333 142.022 165.913 142.022 165.388C142.022 164.597 141.294 164.016 140.258 164.016H137.843V169H140.342ZM140.104 166.858C140.601 166.858 140.958 167.117 140.958 167.495C140.958 167.852 140.601 168.111 140.104 168.111H139.019V166.858H140.104ZM140.048 164.905C140.496 164.905 140.818 165.143 140.818 165.486C140.818 165.822 140.496 166.06 140.048 166.06H139.019V164.905H140.048ZM144.15 165.416H143.1V169H144.15V165.416ZM143.016 164.345C143.016 164.695 143.268 164.94 143.625 164.94C143.982 164.94 144.234 164.695 144.234 164.345C144.234 164.002 143.982 163.757 143.625 163.757C143.268 163.757 143.016 164.002 143.016 164.345ZM147.109 165.283C146.71 165.283 146.36 165.514 146.15 165.871V165.416H145.142V169H146.192V167.096C146.192 166.557 146.493 166.172 146.948 166.172C147.102 166.172 147.333 166.221 147.536 166.305V165.374C147.396 165.318 147.249 165.283 147.109 165.283ZM148.416 167.838C148.416 168.601 148.878 169.14 149.592 169.14C149.816 169.14 150.096 169.098 150.306 169.028L150.313 168.188C150.194 168.216 150.04 168.237 149.942 168.237C149.648 168.237 149.466 168.034 149.466 167.733V166.214H150.278V165.416H149.466V164.513H148.584L148.465 165.416H147.912V166.214H148.416V167.838ZM153.21 165.276C152.776 165.276 152.349 165.472 152.111 165.822V163.806H151.061V169H152.111V166.984C152.111 166.529 152.447 166.2 152.853 166.2C153.273 166.2 153.525 166.508 153.525 166.942V169H154.575V166.732C154.575 165.878 154.029 165.276 153.21 165.276ZM158.139 165.85C157.859 165.486 157.446 165.276 156.956 165.276C155.962 165.276 155.255 166.074 155.255 167.208C155.255 168.342 155.962 169.14 156.956 169.14C157.46 169.14 157.873 168.923 158.153 168.566V169H159.189V163.806H158.139V165.85ZM156.305 167.208C156.305 166.641 156.697 166.221 157.243 166.221C157.789 166.221 158.181 166.641 158.181 167.208C158.181 167.775 157.789 168.195 157.243 168.195C156.704 168.195 156.305 167.782 156.305 167.208ZM162.871 165.913C162.591 165.514 162.164 165.276 161.653 165.276C160.645 165.276 159.938 166.074 159.938 167.208C159.938 168.342 160.645 169.14 161.653 169.14C162.164 169.14 162.591 168.902 162.871 168.503V169H163.921V165.416H162.871V165.913ZM161.926 168.216C161.38 168.216 160.988 167.789 160.988 167.208C160.988 166.627 161.38 166.2 161.926 166.2C162.472 166.2 162.864 166.627 162.864 167.208C162.864 167.789 162.472 168.216 161.926 168.216ZM164.983 170.491C165.179 170.568 165.452 170.617 165.676 170.617C166.404 170.617 166.789 170.043 167.125 169.126L168.511 165.416H167.419L166.621 167.726L165.648 165.416H164.5L166.194 169.035C166.033 169.469 165.858 169.791 165.41 169.791C165.284 169.791 165.102 169.756 164.983 169.714V170.491ZM175.364 166.942C175.322 167.635 174.685 168.167 173.894 168.167C172.956 168.167 172.284 167.467 172.284 166.508C172.284 165.542 172.942 164.849 173.859 164.849C174.447 164.849 174.979 165.185 175.14 165.647L176.218 165.409C175.973 164.492 175.007 163.841 173.866 163.841C172.263 163.841 171.108 164.961 171.108 166.508C171.108 168.055 172.263 169.175 173.866 169.175C175.546 169.175 176.659 167.915 176.498 166.172H173.824V166.942H175.364ZM178.439 165.416H177.389V169H178.439V165.416ZM177.305 164.345C177.305 164.695 177.557 164.94 177.914 164.94C178.271 164.94 178.523 164.695 178.523 164.345C178.523 164.002 178.271 163.757 177.914 163.757C177.557 163.757 177.305 164.002 177.305 164.345ZM181.629 163.778C181.419 163.708 181.174 163.666 180.929 163.666C180.236 163.666 179.774 164.184 179.774 164.968V165.416H179.27V166.214H179.774V169H180.824V166.214H181.629V165.416H180.824V165.031C180.824 164.772 181.006 164.59 181.279 164.59C181.398 164.59 181.517 164.611 181.629 164.639V163.778ZM182.582 167.838C182.582 168.601 183.044 169.14 183.758 169.14C183.982 169.14 184.262 169.098 184.472 169.028L184.479 168.188C184.36 168.216 184.206 168.237 184.108 168.237C183.814 168.237 183.632 168.034 183.632 167.733V166.214H184.444V165.416H183.632V164.513H182.75L182.631 165.416H182.078V166.214H182.582V167.838ZM186.753 169.154C187.747 169.154 188.44 168.615 188.44 167.873C188.433 166.522 186.067 167.089 186.074 166.403C186.074 166.172 186.333 166.004 186.662 166.004C187.082 166.004 187.39 166.207 187.397 166.501H188.321C188.314 165.78 187.621 165.262 186.662 165.262C185.787 165.262 185.129 165.766 185.122 166.466C185.122 167.978 187.425 167.264 187.432 167.985C187.432 168.23 187.152 168.412 186.767 168.412C186.312 168.412 185.976 168.16 185.976 167.803H185.087C185.087 168.587 185.78 169.154 186.753 169.154Z" fill="#284B64"/>
<path d="M151.449 176.589C151.015 176.589 150.647 176.915 150.578 177.365L150.946 177.438C150.982 177.139 151.196 176.925 151.449 176.925C151.716 176.925 151.906 177.109 151.906 177.359C151.906 177.566 151.772 177.714 151.571 177.865L150.601 178.592V179H152.245V178.674H151.018L151.814 178.092C152.094 177.888 152.288 177.642 152.288 177.329C152.288 176.905 151.926 176.589 151.449 176.589ZM152.993 176.672L152.875 177.819H153.522C153.868 177.819 154.072 178.02 154.072 178.296C154.072 178.556 153.865 178.747 153.578 178.747C153.299 178.747 153.082 178.517 153.055 178.198L152.71 178.253C152.746 178.734 153.108 179.082 153.592 179.082C154.091 179.082 154.45 178.753 154.45 178.296C154.45 177.842 154.114 177.51 153.592 177.51H153.246L153.299 176.997H154.262V176.672H152.993ZM156.347 178.665V177.951H157.446V177.648H156.347V177.007H157.577V176.672H155.966V179H157.61V178.665H156.347ZM158.033 179H158.391V178.02C158.391 177.757 158.549 177.579 158.786 177.579C159.016 177.579 159.167 177.757 159.167 178.02V179H159.523V178.02C159.523 177.763 159.69 177.579 159.924 177.579C160.151 177.586 160.312 177.767 160.312 178.02V179H160.667V177.99C160.667 177.566 160.391 177.267 159.999 177.267C159.759 177.267 159.549 177.389 159.434 177.579C159.335 177.389 159.115 177.264 158.858 177.264C158.658 177.264 158.483 177.359 158.378 177.52V177.329H158.033V179ZM161.465 178.773C161.606 178.957 161.82 179.066 162.07 179.066C162.557 179.066 162.909 178.688 162.909 178.165C162.909 177.642 162.553 177.264 162.07 177.264C161.813 177.264 161.596 177.375 161.455 177.563V177.329H161.106V179.756H161.465V178.773ZM162.553 178.165C162.553 178.494 162.32 178.73 162.001 178.73C161.682 178.73 161.452 178.494 161.452 178.165C161.452 177.836 161.682 177.599 162.001 177.599C162.317 177.599 162.553 177.832 162.553 178.165ZM163.658 176.573H163.303V179H163.658V176.573ZM165.862 178.165C165.862 177.635 165.487 177.264 164.954 177.264C164.418 177.264 164.046 177.635 164.046 178.165C164.046 178.694 164.418 179.066 164.954 179.066C165.487 179.066 165.862 178.694 165.862 178.165ZM165.507 178.165C165.507 178.503 165.273 178.75 164.954 178.75C164.632 178.75 164.402 178.503 164.402 178.165C164.402 177.826 164.632 177.579 164.954 177.579C165.273 177.579 165.507 177.826 165.507 178.165ZM166.171 179.687C166.257 179.72 166.369 179.743 166.464 179.743C166.819 179.743 166.964 179.424 167.112 179.039L167.763 177.329H167.391L166.937 178.563L166.415 177.329H166.023L166.776 179.007C166.691 179.214 166.622 179.444 166.392 179.444C166.326 179.444 166.244 179.424 166.171 179.398V179.687ZM168.824 178.766C168.548 178.766 168.337 178.569 168.294 178.273H169.702C169.705 178.237 169.709 178.188 169.709 178.148C169.709 177.632 169.34 177.264 168.821 177.264C168.301 177.264 167.926 177.632 167.926 178.145C167.926 178.681 168.304 179.066 168.831 179.066C169.192 179.066 169.524 178.868 169.623 178.595L169.314 178.494C169.238 178.648 169.038 178.766 168.824 178.766ZM168.294 178.01C168.344 177.744 168.541 177.563 168.811 177.563C169.087 177.563 169.298 177.747 169.337 178.01H168.294ZM170.921 178.766C170.645 178.766 170.434 178.569 170.392 178.273H171.799C171.803 178.237 171.806 178.188 171.806 178.148C171.806 177.632 171.438 177.264 170.918 177.264C170.398 177.264 170.023 177.632 170.023 178.145C170.023 178.681 170.402 179.066 170.928 179.066C171.29 179.066 171.622 178.868 171.72 178.595L171.411 178.494C171.336 178.648 171.135 178.766 170.921 178.766ZM170.392 178.01C170.441 177.744 170.638 177.563 170.908 177.563C171.184 177.563 171.395 177.747 171.434 178.01H170.392ZM172.893 179.069C173.318 179.069 173.62 178.829 173.62 178.503C173.617 177.885 172.492 178.151 172.496 177.786C172.496 177.652 172.647 177.553 172.828 177.553C173.068 177.553 173.242 177.668 173.245 177.832H173.578C173.578 177.5 173.262 177.26 172.831 177.26C172.453 177.26 172.16 177.484 172.16 177.79C172.16 178.477 173.275 178.158 173.278 178.533C173.278 178.674 173.117 178.78 172.893 178.78C172.644 178.78 172.463 178.635 172.463 178.434H172.134C172.134 178.803 172.453 179.069 172.893 179.069Z" fill="#93A5B1"/>
<circle opacity="0.2" cx="163" cy="140.5" r="16" fill="#FF8BCD"/>
<path fill-rule="evenodd" clip-rule="evenodd" d="M158.524 137.059C158.298 136.69 158.182 136.235 158.182 135.683C158.182 134.593 159.001 133.618 160.246 133.618C161.493 133.618 162.499 134.453 162.999 135.761C163.499 134.453 164.505 133.618 165.752 133.618C166.997 133.618 167.816 134.593 167.816 135.683C167.816 136.235 167.7 136.69 167.474 137.059H168.504C169.264 137.059 169.881 137.675 169.881 138.435V139.812C169.881 140.572 169.264 141.188 168.504 141.188V146.005C168.504 146.766 167.888 147.382 167.128 147.382H158.87C158.11 147.382 157.494 146.766 157.494 146.005V141.188C156.733 141.188 156.117 140.572 156.117 139.812V138.435C156.117 137.675 156.733 137.059 157.494 137.059H158.524ZM162.311 138.435H157.494V139.812H162.311V138.435ZM168.505 139.812H163.687V138.435H168.505V139.812ZM162.311 146.005V141.188H158.87V146.005H162.311ZM167.128 146.005H163.687V141.188H167.128V146.005ZM160.247 134.995C159.82 134.995 159.558 135.306 159.558 135.683C159.558 136.545 160.258 136.955 161.918 137.042C161.734 135.76 161.046 134.995 160.247 134.995ZM164.031 137.042C164.216 135.76 164.904 134.995 165.703 134.995C166.13 134.995 166.391 135.306 166.391 135.683C166.391 136.545 165.692 136.955 164.031 137.042Z" fill="#FF8BCD"/>
<rect x="141.5" y="185" width="41" height="14" rx="7" fill="#62D26F"/>
<path d="M155.246 190.152H154.27L153.314 193H154.022L154.182 192.484H155.326L155.494 193H156.198L155.246 190.152ZM154.758 190.728L155.19 192H154.326L154.758 190.728ZM158.523 191.684C158.459 191.212 158.011 190.872 157.475 190.872C156.827 190.872 156.359 191.336 156.359 191.976C156.359 192.616 156.831 193.08 157.475 193.08C158.003 193.08 158.451 192.74 158.527 192.268L157.967 192.196C157.911 192.416 157.715 192.576 157.479 192.576C157.183 192.576 156.959 192.324 156.959 191.976C156.959 191.628 157.187 191.376 157.479 191.376C157.707 191.376 157.911 191.536 157.963 191.756L158.523 191.684ZM159.025 192.336C159.025 192.772 159.289 193.08 159.697 193.08C159.825 193.08 159.985 193.056 160.105 193.016L160.109 192.536C160.041 192.552 159.953 192.564 159.897 192.564C159.729 192.564 159.625 192.448 159.625 192.276V191.408H160.089V190.952H159.625V190.436H159.121L159.053 190.952H158.737V191.408H159.025V192.336ZM161.185 190.952H160.585V193H161.185V190.952ZM160.537 190.34C160.537 190.54 160.681 190.68 160.885 190.68C161.089 190.68 161.233 190.54 161.233 190.34C161.233 190.144 161.089 190.004 160.885 190.004C160.681 190.004 160.537 190.144 160.537 190.34ZM162.28 193H163.136L163.852 190.952H163.208L162.708 192.544L162.204 190.952H161.564L162.28 193ZM165.664 191.236C165.504 191.008 165.26 190.872 164.968 190.872C164.392 190.872 163.988 191.328 163.988 191.976C163.988 192.624 164.392 193.08 164.968 193.08C165.26 193.08 165.504 192.944 165.664 192.716V193H166.264V190.952H165.664V191.236ZM165.124 192.552C164.812 192.552 164.588 192.308 164.588 191.976C164.588 191.644 164.812 191.4 165.124 191.4C165.436 191.4 165.66 191.644 165.66 191.976C165.66 192.308 165.436 192.552 165.124 192.552ZM166.939 192.336C166.939 192.772 167.203 193.08 167.611 193.08C167.739 193.08 167.899 193.056 168.019 193.016L168.023 192.536C167.955 192.552 167.867 192.564 167.811 192.564C167.643 192.564 167.539 192.448 167.539 192.276V191.408H168.003V190.952H167.539V190.436H167.035L166.967 190.952H166.651V191.408H166.939V192.336ZM169.503 192.62C169.231 192.62 169.031 192.432 168.979 192.144L170.583 192.148C170.591 192.104 170.591 192.02 170.591 191.968C170.591 191.32 170.143 190.872 169.487 190.872C168.827 190.872 168.359 191.32 168.359 191.96C168.359 192.62 168.827 193.08 169.487 193.08C169.971 193.08 170.391 192.82 170.499 192.464L169.975 192.348C169.903 192.504 169.719 192.62 169.503 192.62ZM168.975 191.784C169.027 191.512 169.211 191.332 169.475 191.332C169.747 191.332 169.947 191.524 169.983 191.784H168.975Z" fill="white"/>
<g filter="url(#filter5_ddd_965_9723)">
<rect x="115" y="12" width="96" height="94.5" rx="2.87767" fill="white"/>
</g>
<path d="M130.642 63.516H128.934L127.261 68.5H128.5L128.78 67.597H130.782L131.076 68.5H132.308L130.642 63.516ZM129.788 64.524L130.544 66.75H129.032L129.788 64.524ZM135.474 65.35C135.194 64.986 134.781 64.776 134.291 64.776C133.297 64.776 132.59 65.574 132.59 66.708C132.59 67.842 133.297 68.64 134.291 68.64C134.795 68.64 135.208 68.423 135.488 68.066V68.5H136.524V63.306H135.474V65.35ZM133.64 66.708C133.64 66.141 134.032 65.721 134.578 65.721C135.124 65.721 135.516 66.141 135.516 66.708C135.516 67.275 135.124 67.695 134.578 67.695C134.039 67.695 133.64 67.282 133.64 66.708ZM141.249 66.708C141.249 65.567 140.437 64.776 139.254 64.776C138.078 64.776 137.266 65.567 137.266 66.708C137.266 67.849 138.078 68.64 139.254 68.64C140.437 68.64 141.249 67.849 141.249 66.708ZM140.199 66.708C140.199 67.296 139.807 67.716 139.254 67.716C138.708 67.716 138.316 67.296 138.316 66.708C138.316 66.12 138.708 65.7 139.254 65.7C139.807 65.7 140.199 66.12 140.199 66.708ZM141.994 63.306V68.5H143.03V68.066C143.31 68.423 143.73 68.64 144.227 68.64C145.221 68.64 145.928 67.842 145.928 66.708C145.928 65.574 145.228 64.776 144.227 64.776C143.737 64.776 143.324 64.986 143.044 65.35V63.306H141.994ZM144.878 66.708C144.878 67.282 144.479 67.695 143.94 67.695C143.394 67.695 143.002 67.275 143.002 66.708C143.002 66.141 143.394 65.721 143.94 65.721C144.486 65.721 144.878 66.141 144.878 66.708ZM148.517 67.835C148.041 67.835 147.691 67.506 147.6 67.002L150.407 67.009C150.421 66.932 150.421 66.785 150.421 66.694C150.421 65.56 149.637 64.776 148.489 64.776C147.334 64.776 146.515 65.56 146.515 66.68C146.515 67.835 147.334 68.64 148.489 68.64C149.336 68.64 150.071 68.185 150.26 67.562L149.343 67.359C149.217 67.632 148.895 67.835 148.517 67.835ZM147.593 66.372C147.684 65.896 148.006 65.581 148.468 65.581C148.944 65.581 149.294 65.917 149.357 66.372H147.593ZM155.4 68.675C156.667 68.675 157.514 67.968 157.514 66.974C157.514 64.979 154.413 65.854 154.413 64.839C154.413 64.489 154.784 64.23 155.337 64.23C155.939 64.23 156.38 64.58 156.373 65.07H157.395C157.395 64.069 156.52 63.341 155.309 63.341C154.105 63.341 153.272 64.013 153.272 64.993C153.272 66.974 156.366 66.085 156.366 67.142C156.366 67.499 156.016 67.786 155.435 67.786C154.763 67.786 154.28 67.401 154.28 66.862H153.223C153.223 67.912 154.133 68.675 155.4 68.675ZM159.612 68.64C160.081 68.64 160.501 68.402 160.753 68.017V68.5H161.775V64.916H160.725V66.932C160.725 67.387 160.389 67.716 159.976 67.716C159.563 67.716 159.311 67.408 159.311 66.974V64.916H158.261V67.156C158.261 68.017 158.807 68.64 159.612 68.64ZM162.686 63.306V68.5H163.722V68.066C164.002 68.423 164.422 68.64 164.919 68.64C165.913 68.64 166.62 67.842 166.62 66.708C166.62 65.574 165.92 64.776 164.919 64.776C164.429 64.776 164.016 64.986 163.736 65.35V63.306H162.686ZM165.57 66.708C165.57 67.282 165.171 67.695 164.632 67.695C164.086 67.695 163.694 67.275 163.694 66.708C163.694 66.141 164.086 65.721 164.632 65.721C165.178 65.721 165.57 66.141 165.57 66.708ZM168.895 68.654C169.889 68.654 170.582 68.115 170.582 67.373C170.575 66.022 168.209 66.589 168.216 65.903C168.216 65.672 168.475 65.504 168.804 65.504C169.224 65.504 169.532 65.707 169.539 66.001H170.463C170.456 65.28 169.763 64.762 168.804 64.762C167.929 64.762 167.271 65.266 167.264 65.966C167.264 67.478 169.567 66.764 169.574 67.485C169.574 67.73 169.294 67.912 168.909 67.912C168.454 67.912 168.118 67.66 168.118 67.303H167.229C167.229 68.087 167.922 68.654 168.895 68.654ZM174.946 66.197C174.834 65.371 174.05 64.776 173.112 64.776C171.978 64.776 171.159 65.588 171.159 66.708C171.159 67.828 171.985 68.64 173.112 68.64C174.036 68.64 174.82 68.045 174.953 67.219L173.973 67.093C173.875 67.478 173.532 67.758 173.119 67.758C172.601 67.758 172.209 67.317 172.209 66.708C172.209 66.099 172.608 65.658 173.119 65.658C173.518 65.658 173.875 65.938 173.966 66.323L174.946 66.197ZM177.655 64.783C177.256 64.783 176.906 65.014 176.696 65.371V64.916H175.688V68.5H176.738V66.596C176.738 66.057 177.039 65.672 177.494 65.672C177.648 65.672 177.879 65.721 178.082 65.805V64.874C177.942 64.818 177.795 64.783 177.655 64.783ZM179.823 64.916H178.773V68.5H179.823V64.916ZM178.689 63.845C178.689 64.195 178.941 64.44 179.298 64.44C179.655 64.44 179.907 64.195 179.907 63.845C179.907 63.502 179.655 63.257 179.298 63.257C178.941 63.257 178.689 63.502 178.689 63.845ZM181.865 68.066C182.145 68.43 182.558 68.64 183.048 68.64C184.049 68.64 184.749 67.842 184.749 66.708C184.749 65.574 184.042 64.776 183.048 64.776C182.551 64.776 182.131 64.993 181.851 65.35V64.916H180.815V70.11H181.865V68.066ZM183.699 66.708C183.699 67.275 183.307 67.695 182.761 67.695C182.215 67.695 181.823 67.275 181.823 66.708C181.823 66.141 182.215 65.721 182.761 65.721C183.3 65.721 183.699 66.134 183.699 66.708ZM185.634 67.338C185.634 68.101 186.096 68.64 186.81 68.64C187.034 68.64 187.314 68.598 187.524 68.528L187.531 67.688C187.412 67.716 187.258 67.737 187.16 67.737C186.866 67.737 186.684 67.534 186.684 67.233V65.714H187.496V64.916H186.684V64.013H185.802L185.683 64.916H185.13V65.714H185.634V67.338ZM189.414 64.916H188.364V68.5H189.414V64.916ZM188.28 63.845C188.28 64.195 188.532 64.44 188.889 64.44C189.246 64.44 189.498 64.195 189.498 63.845C189.498 63.502 189.246 63.257 188.889 63.257C188.532 63.257 188.28 63.502 188.28 63.845ZM194.221 66.708C194.221 65.567 193.409 64.776 192.226 64.776C191.05 64.776 190.238 65.567 190.238 66.708C190.238 67.849 191.05 68.64 192.226 68.64C193.409 68.64 194.221 67.849 194.221 66.708ZM193.171 66.708C193.171 67.296 192.779 67.716 192.226 67.716C191.68 67.716 191.288 67.296 191.288 66.708C191.288 66.12 191.68 65.7 192.226 65.7C192.779 65.7 193.171 66.12 193.171 66.708ZM197.121 64.776C196.659 64.776 196.239 65.014 195.987 65.399V64.916H194.965V68.5H196.015V66.484C196.015 66.029 196.351 65.7 196.764 65.7C197.177 65.7 197.429 66.008 197.429 66.442V68.5H198.479V66.26C198.479 65.399 197.933 64.776 197.121 64.776Z" fill="#284B64"/>
<path d="M151.449 76.0893C151.015 76.0893 150.647 76.4149 150.578 76.8655L150.946 76.9378C150.982 76.6386 151.196 76.4248 151.449 76.4248C151.716 76.4248 151.906 76.609 151.906 76.8589C151.906 77.0661 151.772 77.2141 151.571 77.3654L150.601 78.0922V78.5H152.245V78.1744H151.018L151.814 77.5923C152.094 77.3884 152.288 77.1417 152.288 76.8293C152.288 76.4051 151.926 76.0893 151.449 76.0893ZM152.993 76.1716L152.875 77.3193H153.522C153.868 77.3193 154.072 77.5199 154.072 77.7962C154.072 78.056 153.865 78.2468 153.578 78.2468C153.299 78.2468 153.082 78.0166 153.055 77.6975L152.71 77.7534C152.746 78.2336 153.108 78.5822 153.592 78.5822C154.091 78.5822 154.45 78.2533 154.45 77.7962C154.45 77.3424 154.114 77.0102 153.592 77.0102H153.246L153.299 76.4971H154.262V76.1716H152.993ZM156.347 78.1645V77.4509H157.446V77.1483H156.347V76.507H157.577V76.1716H155.966V78.5H157.61V78.1645H156.347ZM158.033 78.5H158.391V77.5199C158.391 77.2568 158.549 77.0793 158.786 77.0793C159.016 77.0793 159.167 77.2568 159.167 77.5199V78.5H159.523V77.5199C159.523 77.2634 159.69 77.0793 159.924 77.0793C160.151 77.0858 160.312 77.2667 160.312 77.5199V78.5H160.667V77.4903C160.667 77.0661 160.391 76.7668 159.999 76.7668C159.759 76.7668 159.549 76.8885 159.434 77.0793C159.335 76.8885 159.115 76.7635 158.858 76.7635C158.658 76.7635 158.483 76.8589 158.378 77.0201V76.8293H158.033V78.5ZM161.465 78.2731C161.606 78.4572 161.82 78.5658 162.07 78.5658C162.557 78.5658 162.909 78.1876 162.909 77.6647C162.909 77.1417 162.553 76.7635 162.07 76.7635C161.813 76.7635 161.596 76.8753 161.455 77.0628V76.8293H161.106V79.2564H161.465V78.2731ZM162.553 77.6647C162.553 77.9935 162.32 78.2303 162.001 78.2303C161.682 78.2303 161.452 77.9935 161.452 77.6647C161.452 77.3358 161.682 77.099 162.001 77.099C162.317 77.099 162.553 77.3325 162.553 77.6647ZM163.658 76.0729H163.303V78.5H163.658V76.0729ZM165.862 77.6647C165.862 77.1352 165.487 76.7635 164.954 76.7635C164.418 76.7635 164.046 77.1352 164.046 77.6647C164.046 78.1941 164.418 78.5658 164.954 78.5658C165.487 78.5658 165.862 78.1941 165.862 77.6647ZM165.507 77.6647C165.507 78.0034 165.273 78.2501 164.954 78.2501C164.632 78.2501 164.402 78.0034 164.402 77.6647C164.402 77.3259 164.632 77.0793 164.954 77.0793C165.273 77.0793 165.507 77.3259 165.507 77.6647ZM166.171 79.1874C166.257 79.2202 166.369 79.2433 166.464 79.2433C166.819 79.2433 166.964 78.9243 167.112 78.5395L167.763 76.8293H167.391L166.937 78.0626L166.415 76.8293H166.023L166.776 78.5066C166.691 78.7138 166.622 78.944 166.392 78.944C166.326 78.944 166.244 78.9243 166.171 78.8979V79.1874ZM168.824 78.2665C168.548 78.2665 168.337 78.0692 168.294 77.7732H169.702C169.705 77.737 169.709 77.6877 169.709 77.6482C169.709 77.1319 169.34 76.7635 168.821 76.7635C168.301 76.7635 167.926 77.1319 167.926 77.6449C167.926 78.181 168.304 78.5658 168.831 78.5658C169.192 78.5658 169.524 78.3684 169.623 78.0955L169.314 77.9935C169.238 78.1481 169.038 78.2665 168.824 78.2665ZM168.294 77.5101C168.344 77.2437 168.541 77.0628 168.811 77.0628C169.087 77.0628 169.298 77.247 169.337 77.5101H168.294ZM170.921 78.2665C170.645 78.2665 170.434 78.0692 170.392 77.7732H171.799C171.803 77.737 171.806 77.6877 171.806 77.6482C171.806 77.1319 171.438 76.7635 170.918 76.7635C170.398 76.7635 170.023 77.1319 170.023 77.6449C170.023 78.181 170.402 78.5658 170.928 78.5658C171.29 78.5658 171.622 78.3684 171.72 78.0955L171.411 77.9935C171.336 78.1481 171.135 78.2665 170.921 78.2665ZM170.392 77.5101C170.441 77.2437 170.638 77.0628 170.908 77.0628C171.184 77.0628 171.395 77.247 171.434 77.5101H170.392ZM172.893 78.5691C173.318 78.5691 173.62 78.329 173.62 78.0034C173.617 77.3851 172.492 77.6515 172.496 77.2864C172.496 77.1516 172.647 77.0529 172.828 77.0529C173.068 77.0529 173.242 77.168 173.245 77.3325H173.578C173.578 77.0003 173.262 76.7602 172.831 76.7602C172.453 76.7602 172.16 76.9839 172.16 77.2897C172.16 77.9771 173.275 77.6581 173.278 78.033C173.278 78.1744 173.117 78.2797 172.893 78.2797C172.644 78.2797 172.463 78.1349 172.463 77.9343H172.134C172.134 78.3027 172.453 78.5691 172.893 78.5691Z" fill="#93A5B1"/>
<circle opacity="0.2" cx="163" cy="40" r="16" fill="#62D26F"/>
<path fill-rule="evenodd" clip-rule="evenodd" d="M157.494 40.6882V33.1183C157.494 32.7382 157.802 32.4301 158.182 32.4301H167.817C168.197 32.4301 168.505 32.7382 168.505 33.1183V40.6842C168.511 41.7318 167.926 42.0634 166.297 42.5517C165.342 42.8379 165.064 42.9951 165.064 43.0968C165.064 43.625 165.112 43.9797 165.216 44.3922C165.196 44.3125 165.313 44.767 165.339 44.8881C165.385 45.1011 165.408 45.2949 165.408 45.5054C165.408 46.6483 164.333 47.5699 163 47.5699C161.666 47.5699 160.591 46.6483 160.591 45.5054C160.591 45.2949 160.614 45.1011 160.66 44.8881C160.686 44.767 160.803 44.3125 160.784 44.3922C160.887 43.9797 160.935 43.625 160.935 43.0968C160.935 42.9945 160.658 42.8376 159.705 42.5516C158.078 42.0634 157.494 41.7328 157.494 40.6882ZM158.87 40.6882C158.87 40.7905 159.147 40.9474 160.1 41.2333C161.728 41.7216 162.311 42.0522 162.311 43.0968C162.311 43.7442 162.248 44.2095 162.119 44.7261C162.131 44.6768 162.024 45.0885 162.006 45.1765C161.979 45.3002 161.967 45.3994 161.967 45.5054C161.967 45.8371 162.383 46.1936 162.999 46.1936C163.616 46.1936 164.032 45.8371 164.032 45.5054C164.032 45.3994 164.02 45.3002 163.993 45.1765C163.974 45.0885 163.868 44.6768 163.88 44.7261C163.751 44.2095 163.687 43.7442 163.687 43.0968C163.687 42.0526 164.272 41.7216 165.899 41.2342L165.901 41.2333C166.853 40.948 167.129 40.7917 167.128 40.6882V39.3118H158.87V40.6882ZM158.87 33.8065V37.9355H167.128V33.8065H164.376V35.1828C164.376 35.5629 164.068 35.871 163.687 35.871C163.307 35.871 162.999 35.5629 162.999 35.1828V33.8065H161.623V35.871C161.623 36.251 161.315 36.5591 160.935 36.5591C160.555 36.5591 160.247 36.251 160.247 35.871V33.8065H158.87Z" fill="#62D26F"/>
<rect x="141.5" y="84.5" width="41" height="14" rx="7" fill="#62D26F"/>
<path d="M157.932 89.652H156.956L156 92.5H156.708L156.868 91.984H158.012L158.18 92.5H158.884L157.932 89.652ZM157.444 90.228L157.876 91.5H157.012L157.444 90.228ZM161.209 91.184C161.145 90.712 160.697 90.372 160.161 90.372C159.513 90.372 159.045 90.836 159.045 91.476C159.045 92.116 159.517 92.58 160.161 92.58C160.689 92.58 161.137 92.24 161.213 91.768L160.653 91.696C160.597 91.916 160.401 92.076 160.165 92.076C159.869 92.076 159.645 91.824 159.645 91.476C159.645 91.128 159.873 90.876 160.165 90.876C160.393 90.876 160.597 91.036 160.649 91.256L161.209 91.184ZM161.711 91.836C161.711 92.272 161.975 92.58 162.383 92.58C162.511 92.58 162.671 92.556 162.791 92.516L162.795 92.036C162.727 92.052 162.639 92.064 162.583 92.064C162.415 92.064 162.311 91.948 162.311 91.776V90.908H162.775V90.452H162.311V89.936H161.807L161.739 90.452H161.423V90.908H161.711V91.836ZM163.871 90.452H163.271V92.5H163.871V90.452ZM163.223 89.84C163.223 90.04 163.367 90.18 163.571 90.18C163.775 90.18 163.919 90.04 163.919 89.84C163.919 89.644 163.775 89.504 163.571 89.504C163.367 89.504 163.223 89.644 163.223 89.84ZM164.966 92.5H165.822L166.538 90.452H165.894L165.394 92.044L164.89 90.452H164.25L164.966 92.5ZM167.818 92.12C167.546 92.12 167.346 91.932 167.294 91.644L168.898 91.648C168.906 91.604 168.906 91.52 168.906 91.468C168.906 90.82 168.458 90.372 167.802 90.372C167.142 90.372 166.674 90.82 166.674 91.46C166.674 92.12 167.142 92.58 167.802 92.58C168.286 92.58 168.706 92.32 168.814 91.964L168.29 91.848C168.218 92.004 168.034 92.12 167.818 92.12ZM167.29 91.284C167.342 91.012 167.526 90.832 167.79 90.832C168.062 90.832 168.262 91.024 168.298 91.284H167.29Z" fill="white"/>
<g filter="url(#filter6_ddd_965_9723)">
<rect x="217" y="112.5" width="96" height="94.5" rx="2.87767" fill="white"/>
</g>
<path d="M237.296 166.942C237.254 167.635 236.617 168.167 235.826 168.167C234.888 168.167 234.216 167.467 234.216 166.508C234.216 165.542 234.874 164.849 235.791 164.849C236.379 164.849 236.911 165.185 237.072 165.647L238.15 165.409C237.905 164.492 236.939 163.841 235.798 163.841C234.195 163.841 233.04 164.961 233.04 166.508C233.04 168.055 234.195 169.175 235.798 169.175C237.478 169.175 238.591 167.915 238.43 166.172H235.756V166.942H237.296ZM239.39 170.491C239.586 170.568 239.859 170.617 240.083 170.617C240.811 170.617 241.196 170.043 241.532 169.126L242.918 165.416H241.826L241.028 167.726L240.055 165.416H238.907L240.601 169.035C240.44 169.469 240.265 169.791 239.817 169.791C239.691 169.791 239.509 169.756 239.39 169.714V170.491ZM243.495 169H244.545V166.956C244.545 166.501 244.804 166.2 245.203 166.2C245.595 166.2 245.847 166.501 245.847 166.956V169H246.897V166.956C246.897 166.515 247.17 166.2 247.576 166.2C247.975 166.214 248.241 166.529 248.241 166.956V169H249.291V166.746C249.291 165.885 248.724 165.283 247.912 165.283C247.415 165.283 246.939 165.521 246.708 165.913C246.505 165.521 246.071 165.276 245.553 165.276C245.112 165.276 244.727 165.479 244.503 165.843V165.416H243.495V169ZM253.532 169V165.437L254.904 169H255.786L257.165 165.437V169H258.313V164.016H256.738L255.345 167.663L253.938 164.016H252.384V169H253.532ZM261.174 168.335C260.698 168.335 260.348 168.006 260.257 167.502L263.064 167.509C263.078 167.432 263.078 167.285 263.078 167.194C263.078 166.06 262.294 165.276 261.146 165.276C259.991 165.276 259.172 166.06 259.172 167.18C259.172 168.335 259.991 169.14 261.146 169.14C261.993 169.14 262.728 168.685 262.917 168.062L262 167.859C261.874 168.132 261.552 168.335 261.174 168.335ZM260.25 166.872C260.341 166.396 260.663 166.081 261.125 166.081C261.601 166.081 261.951 166.417 262.014 166.872H260.25ZM263.825 169H264.875V166.956C264.875 166.501 265.134 166.2 265.533 166.2C265.925 166.2 266.177 166.501 266.177 166.956V169H267.227V166.956C267.227 166.515 267.5 166.2 267.906 166.2C268.305 166.214 268.571 166.529 268.571 166.956V169H269.621V166.746C269.621 165.885 269.054 165.283 268.242 165.283C267.745 165.283 267.269 165.521 267.038 165.913C266.835 165.521 266.401 165.276 265.883 165.276C265.442 165.276 265.057 165.479 264.833 165.843V165.416H263.825V169ZM270.462 163.806V169H271.498V168.566C271.778 168.923 272.198 169.14 272.695 169.14C273.689 169.14 274.396 168.342 274.396 167.208C274.396 166.074 273.696 165.276 272.695 165.276C272.205 165.276 271.792 165.486 271.512 165.85V163.806H270.462ZM273.346 167.208C273.346 167.782 272.947 168.195 272.408 168.195C271.862 168.195 271.47 167.775 271.47 167.208C271.47 166.641 271.862 166.221 272.408 166.221C272.954 166.221 273.346 166.641 273.346 167.208ZM276.986 168.335C276.51 168.335 276.16 168.006 276.069 167.502L278.876 167.509C278.89 167.432 278.89 167.285 278.89 167.194C278.89 166.06 278.106 165.276 276.958 165.276C275.803 165.276 274.984 166.06 274.984 167.18C274.984 168.335 275.803 169.14 276.958 169.14C277.805 169.14 278.54 168.685 278.729 168.062L277.812 167.859C277.686 168.132 277.364 168.335 276.986 168.335ZM276.062 166.872C276.153 166.396 276.475 166.081 276.937 166.081C277.413 166.081 277.763 166.417 277.826 166.872H276.062ZM281.603 165.283C281.204 165.283 280.854 165.514 280.644 165.871V165.416H279.636V169H280.686V167.096C280.686 166.557 280.987 166.172 281.442 166.172C281.596 166.172 281.827 166.221 282.03 166.305V165.374C281.89 165.318 281.743 165.283 281.603 165.283ZM284.163 169.154C285.157 169.154 285.85 168.615 285.85 167.873C285.843 166.522 283.477 167.089 283.484 166.403C283.484 166.172 283.743 166.004 284.072 166.004C284.492 166.004 284.8 166.207 284.807 166.501H285.731C285.724 165.78 285.031 165.262 284.072 165.262C283.197 165.262 282.539 165.766 282.532 166.466C282.532 167.978 284.835 167.264 284.842 167.985C284.842 168.23 284.562 168.412 284.177 168.412C283.722 168.412 283.386 168.16 283.386 167.803H282.497C282.497 168.587 283.19 169.154 284.163 169.154ZM288.737 165.276C288.303 165.276 287.876 165.472 287.638 165.822V163.806H286.588V169H287.638V166.984C287.638 166.529 287.974 166.2 288.38 166.2C288.8 166.2 289.052 166.508 289.052 166.942V169H290.102V166.732C290.102 165.878 289.556 165.276 288.737 165.276ZM292.077 165.416H291.027V169H292.077V165.416ZM290.943 164.345C290.943 164.695 291.195 164.94 291.552 164.94C291.909 164.94 292.161 164.695 292.161 164.345C292.161 164.002 291.909 163.757 291.552 163.757C291.195 163.757 290.943 164.002 290.943 164.345ZM294.119 168.566C294.399 168.93 294.812 169.14 295.302 169.14C296.303 169.14 297.003 168.342 297.003 167.208C297.003 166.074 296.296 165.276 295.302 165.276C294.805 165.276 294.385 165.493 294.105 165.85V165.416H293.069V170.61H294.119V168.566ZM295.953 167.208C295.953 167.775 295.561 168.195 295.015 168.195C294.469 168.195 294.077 167.775 294.077 167.208C294.077 166.641 294.469 166.221 295.015 166.221C295.554 166.221 295.953 166.634 295.953 167.208Z" fill="#284B64"/>
<path d="M253.449 176.589C253.015 176.589 252.647 176.915 252.578 177.365L252.946 177.438C252.982 177.139 253.196 176.925 253.449 176.925C253.716 176.925 253.906 177.109 253.906 177.359C253.906 177.566 253.772 177.714 253.571 177.865L252.601 178.592V179H254.245V178.674H253.018L253.814 178.092C254.094 177.888 254.288 177.642 254.288 177.329C254.288 176.905 253.926 176.589 253.449 176.589ZM254.993 176.672L254.875 177.819H255.522C255.868 177.819 256.072 178.02 256.072 178.296C256.072 178.556 255.865 178.747 255.578 178.747C255.299 178.747 255.082 178.517 255.055 178.198L254.71 178.253C254.746 178.734 255.108 179.082 255.592 179.082C256.091 179.082 256.45 178.753 256.45 178.296C256.45 177.842 256.114 177.51 255.592 177.51H255.246L255.299 176.997H256.262V176.672H254.993ZM258.347 178.665V177.951H259.446V177.648H258.347V177.007H259.577V176.672H257.966V179H259.61V178.665H258.347ZM260.033 179H260.391V178.02C260.391 177.757 260.549 177.579 260.786 177.579C261.016 177.579 261.167 177.757 261.167 178.02V179H261.523V178.02C261.523 177.763 261.69 177.579 261.924 177.579C262.151 177.586 262.312 177.767 262.312 178.02V179H262.667V177.99C262.667 177.566 262.391 177.267 261.999 177.267C261.759 177.267 261.549 177.389 261.434 177.579C261.335 177.389 261.115 177.264 260.858 177.264C260.658 177.264 260.483 177.359 260.378 177.52V177.329H260.033V179ZM263.465 178.773C263.606 178.957 263.82 179.066 264.07 179.066C264.557 179.066 264.909 178.688 264.909 178.165C264.909 177.642 264.553 177.264 264.07 177.264C263.813 177.264 263.596 177.375 263.455 177.563V177.329H263.106V179.756H263.465V178.773ZM264.553 178.165C264.553 178.494 264.32 178.73 264.001 178.73C263.682 178.73 263.452 178.494 263.452 178.165C263.452 177.836 263.682 177.599 264.001 177.599C264.317 177.599 264.553 177.832 264.553 178.165ZM265.658 176.573H265.303V179H265.658V176.573ZM267.862 178.165C267.862 177.635 267.487 177.264 266.954 177.264C266.418 177.264 266.046 177.635 266.046 178.165C266.046 178.694 266.418 179.066 266.954 179.066C267.487 179.066 267.862 178.694 267.862 178.165ZM267.507 178.165C267.507 178.503 267.273 178.75 266.954 178.75C266.632 178.75 266.402 178.503 266.402 178.165C266.402 177.826 266.632 177.579 266.954 177.579C267.273 177.579 267.507 177.826 267.507 178.165ZM268.171 179.687C268.257 179.72 268.369 179.743 268.464 179.743C268.819 179.743 268.964 179.424 269.112 179.039L269.763 177.329H269.391L268.937 178.563L268.415 177.329H268.023L268.776 179.007C268.691 179.214 268.622 179.444 268.392 179.444C268.326 179.444 268.244 179.424 268.171 179.398V179.687ZM270.824 178.766C270.548 178.766 270.337 178.569 270.294 178.273H271.702C271.705 178.237 271.709 178.188 271.709 178.148C271.709 177.632 271.34 177.264 270.821 177.264C270.301 177.264 269.926 177.632 269.926 178.145C269.926 178.681 270.304 179.066 270.831 179.066C271.192 179.066 271.524 178.868 271.623 178.595L271.314 178.494C271.238 178.648 271.038 178.766 270.824 178.766ZM270.294 178.01C270.344 177.744 270.541 177.563 270.811 177.563C271.087 177.563 271.298 177.747 271.337 178.01H270.294ZM272.921 178.766C272.645 178.766 272.434 178.569 272.392 178.273H273.799C273.803 178.237 273.806 178.188 273.806 178.148C273.806 177.632 273.438 177.264 272.918 177.264C272.398 177.264 272.023 177.632 272.023 178.145C272.023 178.681 272.402 179.066 272.928 179.066C273.29 179.066 273.622 178.868 273.72 178.595L273.411 178.494C273.336 178.648 273.135 178.766 272.921 178.766ZM272.392 178.01C272.441 177.744 272.638 177.563 272.908 177.563C273.184 177.563 273.395 177.747 273.434 178.01H272.392ZM274.893 179.069C275.318 179.069 275.62 178.829 275.62 178.503C275.617 177.885 274.492 178.151 274.496 177.786C274.496 177.652 274.647 177.553 274.828 177.553C275.068 177.553 275.242 177.668 275.245 177.832H275.578C275.578 177.5 275.262 177.26 274.831 177.26C274.453 177.26 274.16 177.484 274.16 177.79C274.16 178.477 275.275 178.158 275.278 178.533C275.278 178.674 275.117 178.78 274.893 178.78C274.644 178.78 274.463 178.635 274.463 178.434H274.134C274.134 178.803 274.453 179.069 274.893 179.069Z" fill="#93A5B1"/>
<circle opacity="0.2" cx="265" cy="140.5" r="16" fill="#8479FF"/>
<path fill-rule="evenodd" clip-rule="evenodd" d="M265.687 145.317V144.58C267.052 144.385 268.232 143.618 268.977 142.529C270.845 142.271 271.88 140.653 271.88 138.435V136.371C271.88 135.611 271.264 134.995 270.504 134.995H269.632C269.394 134.583 268.949 134.306 268.44 134.306H261.558C261.048 134.306 260.604 134.583 260.366 134.995H259.494C258.733 134.995 258.117 135.611 258.117 136.371V138.435C258.117 140.653 259.153 142.271 261.02 142.529C261.765 143.618 262.946 144.385 264.311 144.58V145.317H263.622C262.862 145.317 262.246 145.933 262.246 146.694H267.751C267.751 145.933 267.135 145.317 266.375 145.317H265.687ZM259.494 136.371H260.182V139.812C260.182 140.127 260.212 140.435 260.269 140.733C259.762 140.276 259.494 139.489 259.494 138.435V136.371ZM269.816 136.371V139.812C269.816 140.127 269.786 140.435 269.728 140.733C270.235 140.276 270.504 139.489 270.504 138.435V136.371H269.816ZM261.558 139.812V135.683H268.44V139.812C268.44 141.712 266.899 143.253 264.999 143.253C263.098 143.253 261.558 141.712 261.558 139.812Z" fill="#8479FF"/>
<rect x="243.75" y="185.25" width="40.5" height="13.5" rx="6.75" stroke="#BEC9D0" stroke-width="0.5"/>
<path d="M255.061 190.152H254.085L253.129 193H253.837L253.997 192.484H255.141L255.309 193H256.013L255.061 190.152ZM254.573 190.728L255.005 192H254.141L254.573 190.728ZM258.338 191.684C258.274 191.212 257.826 190.872 257.29 190.872C256.642 190.872 256.174 191.336 256.174 191.976C256.174 192.616 256.646 193.08 257.29 193.08C257.818 193.08 258.266 192.74 258.342 192.268L257.782 192.196C257.726 192.416 257.53 192.576 257.294 192.576C256.998 192.576 256.774 192.324 256.774 191.976C256.774 191.628 257.002 191.376 257.294 191.376C257.522 191.376 257.726 191.536 257.778 191.756L258.338 191.684ZM258.84 192.336C258.84 192.772 259.104 193.08 259.512 193.08C259.64 193.08 259.8 193.056 259.92 193.016L259.924 192.536C259.856 192.552 259.768 192.564 259.712 192.564C259.544 192.564 259.44 192.448 259.44 192.276V191.408H259.904V190.952H259.44V190.436H258.936L258.868 190.952H258.552V191.408H258.84V192.336ZM261 190.952H260.4V193H261V190.952ZM260.352 190.34C260.352 190.54 260.496 190.68 260.7 190.68C260.904 190.68 261.048 190.54 261.048 190.34C261.048 190.144 260.904 190.004 260.7 190.004C260.496 190.004 260.352 190.144 260.352 190.34ZM262.095 193H262.951L263.667 190.952H263.023L262.523 192.544L262.019 190.952H261.379L262.095 193ZM265.479 191.236C265.319 191.008 265.075 190.872 264.783 190.872C264.207 190.872 263.803 191.328 263.803 191.976C263.803 192.624 264.207 193.08 264.783 193.08C265.075 193.08 265.319 192.944 265.479 192.716V193H266.079V190.952H265.479V191.236ZM264.939 192.552C264.627 192.552 264.403 192.308 264.403 191.976C264.403 191.644 264.627 191.4 264.939 191.4C265.251 191.4 265.475 191.644 265.475 191.976C265.475 192.308 265.251 192.552 264.939 192.552ZM266.754 192.336C266.754 192.772 267.018 193.08 267.426 193.08C267.554 193.08 267.714 193.056 267.834 193.016L267.838 192.536C267.77 192.552 267.682 192.564 267.626 192.564C267.458 192.564 267.354 192.448 267.354 192.276V191.408H267.818V190.952H267.354V190.436H266.85L266.782 190.952H266.466V191.408H266.754V192.336ZM269.85 191.236C269.69 191.008 269.446 190.872 269.154 190.872C268.578 190.872 268.174 191.328 268.174 191.976C268.174 192.624 268.578 193.08 269.154 193.08C269.446 193.08 269.69 192.944 269.85 192.716V193H270.45V190.952H269.85V191.236ZM269.31 192.552C268.998 192.552 268.774 192.308 268.774 191.976C268.774 191.644 268.998 191.4 269.31 191.4C269.622 191.4 269.846 191.644 269.846 191.976C269.846 192.308 269.622 192.552 269.31 192.552ZM271.125 192.336C271.125 192.772 271.389 193.08 271.797 193.08C271.925 193.08 272.085 193.056 272.205 193.016L272.209 192.536C272.141 192.552 272.053 192.564 271.997 192.564C271.829 192.564 271.725 192.448 271.725 192.276V191.408H272.189V190.952H271.725V190.436H271.221L271.153 190.952H270.837V191.408H271.125V192.336ZM273.689 192.62C273.417 192.62 273.217 192.432 273.165 192.144L274.769 192.148C274.777 192.104 274.777 192.02 274.777 191.968C274.777 191.32 274.329 190.872 273.673 190.872C273.013 190.872 272.545 191.32 272.545 191.96C272.545 192.62 273.013 193.08 273.673 193.08C274.157 193.08 274.577 192.82 274.685 192.464L274.161 192.348C274.089 192.504 273.905 192.62 273.689 192.62ZM273.161 191.784C273.213 191.512 273.397 191.332 273.661 191.332C273.933 191.332 274.133 191.524 274.169 191.784H273.161Z" fill="#BEC9D0"/>
<defs>
<filter id="filter0_ddd_965_9723" x="0.42246" y="0.655749" width="325.155" height="220.155" filterUnits="userSpaceOnUse" color-interpolation-filters="sRGB">
<feFlood flood-opacity="0" result="BackgroundImageFix"/>
<feColorMatrix in="SourceAlpha" type="matrix" values="0 0 0 0 0 0 0 0 0 0 0 0 0 0 0 0 0 0 127 0" result="hardAlpha"/>
<feMorphology radius="1.23329" operator="erode" in="SourceAlpha" result="effect1_dropShadow_965_9723"/>
<feOffset dy="2.05548"/>
<feGaussianBlur stdDeviation="1.02774"/>
<feColorMatrix type="matrix" values="0 0 0 0 0.364706 0 0 0 0 0.447059 0 0 0 0 0.54902 0 0 0 0.16 0"/>
<feBlend mode="normal" in2="BackgroundImageFix" result="effect1_dropShadow_965_9723"/>
<feColorMatrix in="SourceAlpha" type="matrix" values="0 0 0 0 0 0 0 0 0 0 0 0 0 0 0 0 0 0 127 0" result="hardAlpha"/>
<feMorphology radius="0.822192" operator="dilate" in="SourceAlpha" result="effect2_dropShadow_965_9723"/>
<feOffset dy="1.23329"/>
<feGaussianBlur stdDeviation="2.87767"/>
<feColorMatrix type="matrix" values="0 0 0 0 0.364706 0 0 0 0 0.447059 0 0 0 0 0.54902 0 0 0 0.08 0"/>
<feBlend mode="normal" in2="effect1_dropShadow_965_9723" result="effect2_dropShadow_965_9723"/>
<feColorMatrix in="SourceAlpha" type="matrix" values="0 0 0 0 0 0 0 0 0 0 0 0 0 0 0 0 0 0 127 0" result="hardAlpha"/>
<feMorphology radius="0.411096" operator="dilate" in="SourceAlpha" result="effect3_dropShadow_965_9723"/>
<feOffset dy="3.28877"/>
<feGaussianBlur stdDeviation="2.05548"/>
<feColorMatrix type="matrix" values="0 0 0 0 0.364706 0 0 0 0 0.447059 0 0 0 0 0.54902 0 0 0 0.1 0"/>
<feBlend mode="normal" in2="effect2_dropShadow_965_9723" result="effect3_dropShadow_965_9723"/>
<feBlend mode="normal" in="SourceGraphic" in2="effect3_dropShadow_965_9723" result="shape"/>
</filter>
<filter id="filter1_ddd_965_9723" x="6.42246" y="6.65575" width="109.155" height="107.655" filterUnits="userSpaceOnUse" color-interpolation-filters="sRGB">
<feFlood flood-opacity="0" result="BackgroundImageFix"/>
<feColorMatrix in="SourceAlpha" type="matrix" values="0 0 0 0 0 0 0 0 0 0 0 0 0 0 0 0 0 0 127 0" result="hardAlpha"/>
<feMorphology radius="1.23329" operator="erode" in="SourceAlpha" result="effect1_dropShadow_965_9723"/>
<feOffset dy="2.05548"/>
<feGaussianBlur stdDeviation="1.02774"/>
<feColorMatrix type="matrix" values="0 0 0 0 0.364706 0 0 0 0 0.447059 0 0 0 0 0.54902 0 0 0 0.16 0"/>
<feBlend mode="normal" in2="BackgroundImageFix" result="effect1_dropShadow_965_9723"/>
<feColorMatrix in="SourceAlpha" type="matrix" values="0 0 0 0 0 0 0 0 0 0 0 0 0 0 0 0 0 0 127 0" result="hardAlpha"/>
<feMorphology radius="0.822192" operator="dilate" in="SourceAlpha" result="effect2_dropShadow_965_9723"/>
<feOffset dy="1.23329"/>
<feGaussianBlur stdDeviation="2.87767"/>
<feColorMatrix type="matrix" values="0 0 0 0 0.364706 0 0 0 0 0.447059 0 0 0 0 0.54902 0 0 0 0.08 0"/>
<feBlend mode="normal" in2="effect1_dropShadow_965_9723" result="effect2_dropShadow_965_9723"/>
<feColorMatrix in="SourceAlpha" type="matrix" values="0 0 0 0 0 0 0 0 0 0 0 0 0 0 0 0 0 0 127 0" result="hardAlpha"/>
<feMorphology radius="0.411096" operator="dilate" in="SourceAlpha" result="effect3_dropShadow_965_9723"/>
<feOffset dy="3.28877"/>
<feGaussianBlur stdDeviation="2.05548"/>
<feColorMatrix type="matrix" values="0 0 0 0 0.364706 0 0 0 0 0.447059 0 0 0 0 0.54902 0 0 0 0.1 0"/>
<feBlend mode="normal" in2="effect2_dropShadow_965_9723" result="effect3_dropShadow_965_9723"/>
<feBlend mode="normal" in="SourceGraphic" in2="effect3_dropShadow_965_9723" result="shape"/>
</filter>
<filter id="filter2_ddd_965_9723" x="6.42246" y="107.156" width="109.155" height="107.655" filterUnits="userSpaceOnUse" color-interpolation-filters="sRGB">
<feFlood flood-opacity="0" result="BackgroundImageFix"/>
<feColorMatrix in="SourceAlpha" type="matrix" values="0 0 0 0 0 0 0 0 0 0 0 0 0 0 0 0 0 0 127 0" result="hardAlpha"/>
<feMorphology radius="1.23329" operator="erode" in="SourceAlpha" result="effect1_dropShadow_965_9723"/>
<feOffset dy="2.05548"/>
<feGaussianBlur stdDeviation="1.02774"/>
<feColorMatrix type="matrix" values="0 0 0 0 0.364706 0 0 0 0 0.447059 0 0 0 0 0.54902 0 0 0 0.16 0"/>
<feBlend mode="normal" in2="BackgroundImageFix" result="effect1_dropShadow_965_9723"/>
<feColorMatrix in="SourceAlpha" type="matrix" values="0 0 0 0 0 0 0 0 0 0 0 0 0 0 0 0 0 0 127 0" result="hardAlpha"/>
<feMorphology radius="0.822192" operator="dilate" in="SourceAlpha" result="effect2_dropShadow_965_9723"/>
<feOffset dy="1.23329"/>
<feGaussianBlur stdDeviation="2.87767"/>
<feColorMatrix type="matrix" values="0 0 0 0 0.364706 0 0 0 0 0.447059 0 0 0 0 0.54902 0 0 0 0.08 0"/>
<feBlend mode="normal" in2="effect1_dropShadow_965_9723" result="effect2_dropShadow_965_9723"/>
<feColorMatrix in="SourceAlpha" type="matrix" values="0 0 0 0 0 0 0 0 0 0 0 0 0 0 0 0 0 0 127 0" result="hardAlpha"/>
<feMorphology radius="0.411096" operator="dilate" in="SourceAlpha" result="effect3_dropShadow_965_9723"/>
<feOffset dy="3.28877"/>
<feGaussianBlur stdDeviation="2.05548"/>
<feColorMatrix type="matrix" values="0 0 0 0 0.364706 0 0 0 0 0.447059 0 0 0 0 0.54902 0 0 0 0.1 0"/>
<feBlend mode="normal" in2="effect2_dropShadow_965_9723" result="effect3_dropShadow_965_9723"/>
<feBlend mode="normal" in="SourceGraphic" in2="effect3_dropShadow_965_9723" result="shape"/>
</filter>
<filter id="filter3_ddd_965_9723" x="210.422" y="6.65575" width="109.155" height="107.655" filterUnits="userSpaceOnUse" color-interpolation-filters="sRGB">
<feFlood flood-opacity="0" result="BackgroundImageFix"/>
<feColorMatrix in="SourceAlpha" type="matrix" values="0 0 0 0 0 0 0 0 0 0 0 0 0 0 0 0 0 0 127 0" result="hardAlpha"/>
<feMorphology radius="1.23329" operator="erode" in="SourceAlpha" result="effect1_dropShadow_965_9723"/>
<feOffset dy="2.05548"/>
<feGaussianBlur stdDeviation="1.02774"/>
<feColorMatrix type="matrix" values="0 0 0 0 0.364706 0 0 0 0 0.447059 0 0 0 0 0.54902 0 0 0 0.16 0"/>
<feBlend mode="normal" in2="BackgroundImageFix" result="effect1_dropShadow_965_9723"/>
<feColorMatrix in="SourceAlpha" type="matrix" values="0 0 0 0 0 0 0 0 0 0 0 0 0 0 0 0 0 0 127 0" result="hardAlpha"/>
<feMorphology radius="0.822192" operator="dilate" in="SourceAlpha" result="effect2_dropShadow_965_9723"/>
<feOffset dy="1.23329"/>
<feGaussianBlur stdDeviation="2.87767"/>
<feColorMatrix type="matrix" values="0 0 0 0 0.364706 0 0 0 0 0.447059 0 0 0 0 0.54902 0 0 0 0.08 0"/>
<feBlend mode="normal" in2="effect1_dropShadow_965_9723" result="effect2_dropShadow_965_9723"/>
<feColorMatrix in="SourceAlpha" type="matrix" values="0 0 0 0 0 0 0 0 0 0 0 0 0 0 0 0 0 0 127 0" result="hardAlpha"/>
<feMorphology radius="0.411096" operator="dilate" in="SourceAlpha" result="effect3_dropShadow_965_9723"/>
<feOffset dy="3.28877"/>
<feGaussianBlur stdDeviation="2.05548"/>
<feColorMatrix type="matrix" values="0 0 0 0 0.364706 0 0 0 0 0.447059 0 0 0 0 0.54902 0 0 0 0.1 0"/>
<feBlend mode="normal" in2="effect2_dropShadow_965_9723" result="effect3_dropShadow_965_9723"/>
<feBlend mode="normal" in="SourceGraphic" in2="effect3_dropShadow_965_9723" result="shape"/>
</filter>
<filter id="filter4_ddd_965_9723" x="108.422" y="107.156" width="109.155" height="107.655" filterUnits="userSpaceOnUse" color-interpolation-filters="sRGB">
<feFlood flood-opacity="0" result="BackgroundImageFix"/>
<feColorMatrix in="SourceAlpha" type="matrix" values="0 0 0 0 0 0 0 0 0 0 0 0 0 0 0 0 0 0 127 0" result="hardAlpha"/>
<feMorphology radius="1.23329" operator="erode" in="SourceAlpha" result="effect1_dropShadow_965_9723"/>
<feOffset dy="2.05548"/>
<feGaussianBlur stdDeviation="1.02774"/>
<feColorMatrix type="matrix" values="0 0 0 0 0.364706 0 0 0 0 0.447059 0 0 0 0 0.54902 0 0 0 0.16 0"/>
<feBlend mode="normal" in2="BackgroundImageFix" result="effect1_dropShadow_965_9723"/>
<feColorMatrix in="SourceAlpha" type="matrix" values="0 0 0 0 0 0 0 0 0 0 0 0 0 0 0 0 0 0 127 0" result="hardAlpha"/>
<feMorphology radius="0.822192" operator="dilate" in="SourceAlpha" result="effect2_dropShadow_965_9723"/>
<feOffset dy="1.23329"/>
<feGaussianBlur stdDeviation="2.87767"/>
<feColorMatrix type="matrix" values="0 0 0 0 0.364706 0 0 0 0 0.447059 0 0 0 0 0.54902 0 0 0 0.08 0"/>
<feBlend mode="normal" in2="effect1_dropShadow_965_9723" result="effect2_dropShadow_965_9723"/>
<feColorMatrix in="SourceAlpha" type="matrix" values="0 0 0 0 0 0 0 0 0 0 0 0 0 0 0 0 0 0 127 0" result="hardAlpha"/>
<feMorphology radius="0.411096" operator="dilate" in="SourceAlpha" result="effect3_dropShadow_965_9723"/>
<feOffset dy="3.28877"/>
<feGaussianBlur stdDeviation="2.05548"/>
<feColorMatrix type="matrix" values="0 0 0 0 0.364706 0 0 0 0 0.447059 0 0 0 0 0.54902 0 0 0 0.1 0"/>
<feBlend mode="normal" in2="effect2_dropShadow_965_9723" result="effect3_dropShadow_965_9723"/>
<feBlend mode="normal" in="SourceGraphic" in2="effect3_dropShadow_965_9723" result="shape"/>
</filter>
<filter id="filter5_ddd_965_9723" x="108.422" y="6.65575" width="109.155" height="107.655" filterUnits="userSpaceOnUse" color-interpolation-filters="sRGB">
<feFlood flood-opacity="0" result="BackgroundImageFix"/>
<feColorMatrix in="SourceAlpha" type="matrix" values="0 0 0 0 0 0 0 0 0 0 0 0 0 0 0 0 0 0 127 0" result="hardAlpha"/>
<feMorphology radius="1.23329" operator="erode" in="SourceAlpha" result="effect1_dropShadow_965_9723"/>
<feOffset dy="2.05548"/>
<feGaussianBlur stdDeviation="1.02774"/>
<feColorMatrix type="matrix" values="0 0 0 0 0.364706 0 0 0 0 0.447059 0 0 0 0 0.54902 0 0 0 0.16 0"/>
<feBlend mode="normal" in2="BackgroundImageFix" result="effect1_dropShadow_965_9723"/>
<feColorMatrix in="SourceAlpha" type="matrix" values="0 0 0 0 0 0 0 0 0 0 0 0 0 0 0 0 0 0 127 0" result="hardAlpha"/>
<feMorphology radius="0.822192" operator="dilate" in="SourceAlpha" result="effect2_dropShadow_965_9723"/>
<feOffset dy="1.23329"/>
<feGaussianBlur stdDeviation="2.87767"/>
<feColorMatrix type="matrix" values="0 0 0 0 0.364706 0 0 0 0 0.447059 0 0 0 0 0.54902 0 0 0 0.08 0"/>
<feBlend mode="normal" in2="effect1_dropShadow_965_9723" result="effect2_dropShadow_965_9723"/>
<feColorMatrix in="SourceAlpha" type="matrix" values="0 0 0 0 0 0 0 0 0 0 0 0 0 0 0 0 0 0 127 0" result="hardAlpha"/>
<feMorphology radius="0.411096" operator="dilate" in="SourceAlpha" result="effect3_dropShadow_965_9723"/>
<feOffset dy="3.28877"/>
<feGaussianBlur stdDeviation="2.05548"/>
<feColorMatrix type="matrix" values="0 0 0 0 0.364706 0 0 0 0 0.447059 0 0 0 0 0.54902 0 0 0 0.1 0"/>
<feBlend mode="normal" in2="effect2_dropShadow_965_9723" result="effect3_dropShadow_965_9723"/>
<feBlend mode="normal" in="SourceGraphic" in2="effect3_dropShadow_965_9723" result="shape"/>
</filter>
<filter id="filter6_ddd_965_9723" x="210.422" y="107.156" width="109.155" height="107.655" filterUnits="userSpaceOnUse" color-interpolation-filters="sRGB">
<feFlood flood-opacity="0" result="BackgroundImageFix"/>
<feColorMatrix in="SourceAlpha" type="matrix" values="0 0 0 0 0 0 0 0 0 0 0 0 0 0 0 0 0 0 127 0" result="hardAlpha"/>
<feMorphology radius="1.23329" operator="erode" in="SourceAlpha" result="effect1_dropShadow_965_9723"/>
<feOffset dy="2.05548"/>
<feGaussianBlur stdDeviation="1.02774"/>
<feColorMatrix type="matrix" values="0 0 0 0 0.364706 0 0 0 0 0.447059 0 0 0 0 0.54902 0 0 0 0.16 0"/>
<feBlend mode="normal" in2="BackgroundImageFix" result="effect1_dropShadow_965_9723"/>
<feColorMatrix in="SourceAlpha" type="matrix" values="0 0 0 0 0 0 0 0 0 0 0 0 0 0 0 0 0 0 127 0" result="hardAlpha"/>
<feMorphology radius="0.822192" operator="dilate" in="SourceAlpha" result="effect2_dropShadow_965_9723"/>
<feOffset dy="1.23329"/>
<feGaussianBlur stdDeviation="2.87767"/>
<feColorMatrix type="matrix" values="0 0 0 0 0.364706 0 0 0 0 0.447059 0 0 0 0 0.54902 0 0 0 0.08 0"/>
<feBlend mode="normal" in2="effect1_dropShadow_965_9723" result="effect2_dropShadow_965_9723"/>
<feColorMatrix in="SourceAlpha" type="matrix" values="0 0 0 0 0 0 0 0 0 0 0 0 0 0 0 0 0 0 127 0" result="hardAlpha"/>
<feMorphology radius="0.411096" operator="dilate" in="SourceAlpha" result="effect3_dropShadow_965_9723"/>
<feOffset dy="3.28877"/>
<feGaussianBlur stdDeviation="2.05548"/>
<feColorMatrix type="matrix" values="0 0 0 0 0.364706 0 0 0 0 0.447059 0 0 0 0 0.54902 0 0 0 0.1 0"/>
<feBlend mode="normal" in2="effect2_dropShadow_965_9723" result="effect3_dropShadow_965_9723"/>
<feBlend mode="normal" in="SourceGraphic" in2="effect3_dropShadow_965_9723" result="shape"/>
</filter>
</defs>
</svg>
