<svg width="698" height="581" viewBox="0 0 698 581" fill="none" xmlns="http://www.w3.org/2000/svg">
<g filter="url(#filter0_ddd_965_6699)">
<rect x="54" y="45" width="590" height="471" rx="25" fill="white"/>
</g>
<g filter="url(#filter1_ddd_965_6699)">
<rect x="62" y="53" width="574" height="455" rx="18" fill="white"/>
</g>
<g filter="url(#filter2_ddd_965_6699)">
<rect x="62" y="223" width="574" height="285" rx="18" fill="white"/>
</g>
<path d="M104.19 241.452C105.036 241.452 105.588 240.864 105.588 240.054C105.588 239.22 105.042 238.662 104.19 238.662H102.504V243H103.092V241.452H104.19ZM104.088 239.19C104.64 239.19 104.97 239.502 104.97 240.048C104.97 240.582 104.646 240.924 104.064 240.924H103.092V239.19H104.088ZM106.229 243L106.613 241.92H108.437L108.827 243H109.445L107.855 238.662H107.201L105.617 243H106.229ZM107.453 239.598C107.483 239.508 107.513 239.406 107.525 239.346C107.537 239.412 107.567 239.514 107.597 239.598L108.263 241.41H106.793L107.453 239.598ZM110.614 241.236V243H111.202V241.236L112.66 238.662H112.018L111.058 240.396C110.98 240.54 110.968 240.576 110.914 240.684C110.866 240.582 110.83 240.498 110.77 240.396L109.804 238.662H109.144L110.614 241.236ZM113.803 243V241.146C113.803 240.54 113.791 240.096 113.761 239.886L115.021 243H115.573L116.839 239.874C116.809 240.18 116.803 240.474 116.803 241.284V243H117.379V238.662H116.791L115.297 242.31L113.803 238.662H113.227V243H113.803ZM121.035 243V242.454H118.977V241.08H120.831V240.558H118.977V239.202H121.035V238.662H118.389V243H121.035ZM122.475 243V239.646L124.695 243H125.283V238.662H124.695V242.016L122.475 238.662H121.887V243H122.475ZM125.873 239.202H127.181V243H127.769V239.202H129.071V238.662H125.873V239.202ZM131.879 243V241.146C131.879 240.54 131.867 240.096 131.837 239.886L133.097 243H133.649L134.915 239.874C134.885 240.18 134.879 240.474 134.879 241.284V243H135.455V238.662H134.867L133.373 242.31L131.879 238.662H131.303V243H131.879ZM140.377 240.828C140.377 239.508 139.519 238.584 138.289 238.584C137.065 238.584 136.207 239.514 136.207 240.828C136.207 242.148 137.059 243.072 138.283 243.072C139.513 243.072 140.377 242.148 140.377 240.828ZM139.759 240.828C139.759 241.83 139.171 242.508 138.289 242.508C137.407 242.508 136.825 241.836 136.825 240.828C136.825 239.82 137.407 239.154 138.289 239.154C139.171 239.154 139.759 239.82 139.759 240.828ZM141.717 243V239.646L143.937 243H144.525V238.662H143.937V242.016L141.717 238.662H141.129V243H141.717ZM145.115 239.202H146.423V243H147.011V239.202H148.313V238.662H145.115V239.202ZM149.492 243V241.074H151.64V243H152.228V238.662H151.64V240.528H149.492V238.662H148.904V243H149.492ZM153.282 239.598C153.456 239.664 153.594 239.688 153.774 239.712C153.66 239.814 153.558 239.916 153.432 240.096L153.198 240.432L153.48 240.624L153.72 240.294C153.84 240.132 153.906 239.994 153.954 239.85C154.008 239.976 154.074 240.114 154.2 240.294L154.434 240.624L154.71 240.432L154.476 240.096C154.362 239.916 154.272 239.82 154.146 239.712C154.284 239.694 154.44 239.67 154.638 239.598L155.034 239.46L154.908 239.142L154.53 239.274C154.32 239.346 154.2 239.418 154.074 239.496C154.104 239.358 154.128 239.202 154.128 238.992V238.578H153.792V238.992C153.792 239.202 153.81 239.346 153.846 239.496C153.72 239.412 153.6 239.346 153.384 239.274L153.012 239.148L152.892 239.46L153.282 239.598Z" fill="#93A5B1"/>
<path d="M300.658 204V201.6H295.73V199.152H300.098V196.88H295.73V194.56H300.658V192.16H293.138V204H300.658ZM304.507 204L305.851 201.696L307.227 204H310.059L307.515 200.08L310.155 196H307.403L306.027 198.432L304.555 196H301.707L304.395 200.128L301.707 204H304.507ZM311.241 207.84H313.705V203.2C314.169 203.808 315.193 204.224 316.297 204.224C318.681 204.224 320.057 202.4 320.057 199.872C320.057 197.296 318.505 195.744 316.281 195.744C315.145 195.744 314.137 196.24 313.689 196.976L313.561 196H311.241V207.84ZM313.721 200C313.721 198.8 314.521 198 315.673 198C316.841 198 317.577 198.816 317.577 200C317.577 201.184 316.841 202 315.673 202C314.521 202 313.721 201.2 313.721 200ZM325.187 204.208C327.379 204.208 328.963 203.072 329.251 201.296H326.995C326.819 201.872 326.163 202.208 325.235 202.208C324.147 202.208 323.555 201.712 323.411 200.656L329.219 200.624V200C329.219 197.392 327.651 195.744 325.139 195.744C322.723 195.744 321.043 197.488 321.043 199.984C321.043 202.448 322.771 204.208 325.187 204.208ZM325.155 197.744C326.147 197.744 326.771 198.288 326.771 199.136H323.443C323.635 198.176 324.179 197.744 325.155 197.744ZM333.142 204V199.616C333.142 198.624 333.766 197.984 334.742 197.984C335.59 197.984 336.15 198.64 336.15 199.648V204H338.614V199.056C338.614 196.96 337.51 195.744 335.606 195.744C334.566 195.744 333.654 196.144 333.158 196.832L332.998 196H330.678V204H333.142ZM339.711 201.472C339.711 203.088 341.039 204.208 343.151 204.208C345.231 204.208 346.687 203.168 346.687 201.456C346.687 200.176 345.967 199.568 344.655 199.28L343.167 198.96C342.607 198.832 342.303 198.624 342.303 198.256C342.303 197.824 342.655 197.536 343.215 197.536C343.807 197.536 344.143 197.904 344.143 198.448H346.479C346.479 196.832 345.183 195.744 343.327 195.744C341.407 195.744 339.983 196.704 339.983 198.368C339.983 199.776 340.703 200.416 342.175 200.736L343.647 201.056C344.239 201.184 344.367 201.44 344.367 201.68C344.367 202.096 344.015 202.368 343.247 202.368C342.495 202.368 342.079 202.032 342.047 201.472H339.711ZM351.687 204.208C353.879 204.208 355.463 203.072 355.751 201.296H353.495C353.319 201.872 352.663 202.208 351.735 202.208C350.647 202.208 350.055 201.712 349.911 200.656L355.719 200.624V200C355.719 197.392 354.151 195.744 351.639 195.744C349.223 195.744 347.543 197.488 347.543 199.984C347.543 202.448 349.271 204.208 351.687 204.208ZM351.655 197.744C352.647 197.744 353.271 198.288 353.271 199.136H349.943C350.135 198.176 350.679 197.744 351.655 197.744ZM366.836 204.192C369.796 204.192 372.004 202.448 372.42 199.808H369.732C369.412 200.976 368.34 201.696 366.884 201.696C364.98 201.696 363.796 200.304 363.796 198.08C363.796 195.824 364.964 194.464 366.884 194.464C368.308 194.464 369.316 195.136 369.668 196.32H372.404C372.036 193.664 369.908 191.968 366.948 191.968C363.412 191.968 361.06 194.4 361.06 198.096C361.06 201.84 363.284 204.192 366.836 204.192ZM376.236 204V191.936H373.772V204H376.236ZM380.5 204.208C381.7 204.208 382.756 203.68 383.012 202.944L383.172 204H385.348V199.328C385.348 197.04 384.036 195.744 381.716 195.744C379.428 195.744 377.94 196.928 377.94 198.736H379.988C379.988 198.016 380.548 197.616 381.588 197.616C382.468 197.616 382.948 198.032 382.948 198.816V198.944L380.708 199.12C378.788 199.264 377.748 200.176 377.748 201.648C377.748 203.216 378.804 204.208 380.5 204.208ZM381.364 202.384C380.612 202.384 380.26 202.112 380.26 201.536C380.26 201.024 380.644 200.784 381.716 200.688L382.964 200.576V201.008C382.964 201.92 382.308 202.384 381.364 202.384ZM388.332 194.752C389.1 194.752 389.724 194.128 389.724 193.344C389.724 192.56 389.1 191.952 388.332 191.952C387.548 191.952 386.924 192.56 386.924 193.344C386.924 194.128 387.548 194.752 388.332 194.752ZM387.116 204H389.58V196H387.116V204ZM393.892 204V199.712C393.892 198.368 394.612 197.984 395.316 197.984C396.1 197.984 396.612 198.464 396.612 199.456V204H399.076V199.712C399.076 198.352 399.78 197.968 400.484 197.968C401.268 197.968 401.796 198.448 401.796 199.456V204H404.26V198.768C404.26 196.944 403.236 195.744 401.172 195.744C400.02 195.744 399.076 196.304 398.66 197.152C398.196 196.304 397.428 195.744 396.228 195.744C395.076 195.744 394.292 196.272 393.892 196.832L393.732 196H391.428V204H393.892Z" fill="#284B64"/>
<path d="M62 71C62 61.0589 70.0589 53 80 53H618C627.941 53 636 61.0589 636 71V156H62V71Z" fill="url(#paint0_radial_965_6699)"/>
<circle cx="349" cy="149" r="29" fill="#8479FF"/>
<path fill-rule="evenodd" clip-rule="evenodd" d="M341 143.667C341 142.93 341.597 142.333 342.334 142.333L353 142.333C353.737 142.333 354.334 142.93 354.334 143.667C354.334 144.403 353.737 145 353 145L342.334 145C341.597 145 341 144.403 341 143.667Z" fill="white"/>
<path fill-rule="evenodd" clip-rule="evenodd" d="M341 149C341 148.263 341.597 147.667 342.334 147.667L348.334 147.667C349.07 147.667 349.667 148.263 349.667 149C349.667 149.736 349.07 150.333 348.334 150.333L342.334 150.333C341.597 150.333 341 149.736 341 149Z" fill="white"/>
<path fill-rule="evenodd" clip-rule="evenodd" d="M341 154.333C341 153.597 341.597 153 342.334 153L348.334 153C349.07 153 349.667 153.597 349.667 154.333C349.667 155.07 349.07 155.667 348.334 155.667L342.334 155.667C341.597 155.667 341 155.07 341 154.333Z" fill="white"/>
<path d="M339.667 135.667C337.458 135.667 335.667 137.457 335.667 139.667V158.333C335.667 160.542 337.458 162.333 339.667 162.333H351.667L349 159.667H339.667C338.931 159.667 338.334 159.07 338.334 158.333V139.667C338.334 138.93 338.931 138.333 339.667 138.333H355.667C356.403 138.333 357 138.93 357 139.667V145.444L359.667 147.222V139.667C359.667 137.457 357.876 135.667 355.667 135.667H339.667Z" fill="white"/>
<path d="M355.667 143.667C351.2 143.667 347.667 146.041 347.667 149.033V158.302C347.667 161.319 351.173 163.667 355.667 163.667C360.161 163.667 363.667 161.305 363.667 158.3V149.139C363.64 146.041 360.134 143.667 355.667 143.667ZM361.001 158.555C361.001 159.722 358.734 161.023 355.667 161.023C352.6 161.023 350.333 159.681 350.333 158.555V158.273C350.333 158.248 350.339 158.222 350.351 158.201C350.363 158.179 350.38 158.159 350.402 158.145C350.424 158.132 350.448 158.124 350.473 158.122C350.499 158.121 350.523 158.126 350.546 158.139C352.135 158.905 353.854 159.266 355.64 159.266C357.412 159.266 359.198 158.906 360.786 158.139C360.809 158.126 360.834 158.121 360.859 158.122C360.885 158.124 360.909 158.132 360.931 158.145C360.941 158.152 360.951 158.16 360.959 158.169C360.977 158.188 360.985 158.213 360.991 158.238C360.997 158.262 360.999 158.285 361 158.309L361.001 158.555ZM361.001 153.942C361.001 155.108 358.734 156.41 355.667 156.41C352.6 156.41 350.333 155.068 350.333 153.942V153.66C350.333 153.634 350.339 153.609 350.351 153.587C350.363 153.564 350.38 153.545 350.402 153.532C350.424 153.518 350.448 153.51 350.473 153.509C350.499 153.507 350.523 153.513 350.546 153.525C352.135 154.291 353.854 154.652 355.64 154.652C357.412 154.652 359.198 154.292 360.786 153.525C360.809 153.513 360.834 153.507 360.859 153.509C360.885 153.51 360.909 153.518 360.931 153.532C360.947 153.542 360.961 153.555 360.972 153.571C360.979 153.581 360.983 153.593 360.986 153.605C360.995 153.641 360.999 153.679 360.999 153.716V153.942H361.001ZM355.667 151.667C352.627 151.667 350.333 150.267 350.333 149.033C350.333 147.799 352.6 146.334 355.667 146.334C358.734 146.334 361.001 147.785 361.001 149.033C361.001 150.28 358.707 151.667 355.667 151.667Z" fill="white"/>
<path d="M318.768 84.976C320.52 84.976 321.672 83.788 321.672 82.096C321.672 80.38 320.532 79.228 318.768 79.228H315.3V88H316.836V84.976H318.768ZM318.468 80.596C319.488 80.596 320.064 81.124 320.064 82.084C320.064 83.044 319.5 83.608 318.444 83.608H316.836V80.596H318.468ZM324.278 88.156C325.202 88.156 326.006 87.736 326.258 87.124L326.366 88H327.65V84.4C327.65 82.756 326.666 81.892 325.07 81.892C323.462 81.892 322.406 82.732 322.406 84.016H323.654C323.654 83.392 324.134 83.032 324.998 83.032C325.742 83.032 326.222 83.356 326.222 84.16V84.292L324.446 84.424C323.042 84.532 322.25 85.216 322.25 86.308C322.25 87.424 323.018 88.156 324.278 88.156ZM324.758 87.052C324.098 87.052 323.738 86.788 323.738 86.248C323.738 85.768 324.086 85.468 324.998 85.384L326.234 85.288V85.6C326.234 86.512 325.658 87.052 324.758 87.052ZM328.408 90.748C328.732 90.832 329.092 90.88 329.5 90.88C330.472 90.88 331.096 90.424 331.54 89.32L334.444 82.072H332.932L331.324 86.392L329.8 82.072H328.252L330.64 88.252L330.472 88.696C330.22 89.392 329.86 89.524 329.284 89.524H328.408V90.748ZM340.262 88V84.724H342.146L343.634 88H345.314L343.646 84.4C344.678 83.98 345.23 83.14 345.23 81.964C345.23 80.236 344.066 79.228 342.074 79.228H338.726V88H340.262ZM340.262 80.596H342.074C343.046 80.596 343.622 81.088 343.622 81.964C343.622 82.852 343.046 83.368 342.074 83.368H340.262V80.596ZM348.779 88.156C350.327 88.156 351.407 87.376 351.659 86.08H350.303C350.135 86.644 349.607 86.956 348.803 86.956C347.831 86.956 347.279 86.428 347.171 85.384L351.635 85.372V84.928C351.635 83.08 350.507 81.892 348.731 81.892C346.991 81.892 345.779 83.176 345.779 85.036C345.779 86.872 347.015 88.156 348.779 88.156ZM348.743 83.092C349.619 83.092 350.183 83.632 350.183 84.448H347.207C347.351 83.56 347.879 83.092 348.743 83.092ZM352.459 84.964C352.459 86.812 353.467 88.156 355.231 88.156C356.107 88.156 356.887 87.808 357.259 87.208V90.748H358.711V82.072H357.367L357.271 82.972C356.911 82.288 356.131 81.892 355.231 81.892C353.563 81.892 352.459 83.104 352.459 84.964ZM353.923 85.036C353.923 83.98 354.547 83.224 355.567 83.224C356.587 83.224 357.247 83.968 357.247 85.036C357.247 86.104 356.587 86.836 355.567 86.836C354.547 86.836 353.923 86.092 353.923 85.036ZM364.256 82.072V85.18C364.256 86.308 363.812 86.848 362.888 86.848C362.072 86.848 361.628 86.392 361.628 85.264V82.072H360.164V85.78C360.164 87.232 360.968 88.156 362.336 88.156C363.128 88.156 363.896 87.772 364.256 87.208L364.364 88H365.72V82.072H364.256ZM369.767 88.156C371.315 88.156 372.395 87.376 372.647 86.08H371.291C371.123 86.644 370.595 86.956 369.791 86.956C368.819 86.956 368.267 86.428 368.159 85.384L372.623 85.372V84.928C372.623 83.08 371.495 81.892 369.719 81.892C367.979 81.892 366.767 83.176 366.767 85.036C366.767 86.872 368.003 88.156 369.767 88.156ZM369.731 83.092C370.607 83.092 371.171 83.632 371.171 84.448H368.195C368.339 83.56 368.867 83.092 369.731 83.092ZM373.339 86.2C373.339 87.364 374.275 88.156 375.751 88.156C377.215 88.156 378.235 87.412 378.235 86.212C378.235 85.3 377.731 84.844 376.735 84.616L375.667 84.364C375.163 84.244 374.899 84.028 374.899 83.692C374.899 83.248 375.235 82.984 375.811 82.984C376.375 82.984 376.711 83.308 376.723 83.812H378.115C378.103 82.66 377.203 81.892 375.871 81.892C374.503 81.892 373.519 82.588 373.519 83.752C373.519 84.7 374.035 85.204 375.103 85.444L376.171 85.696C376.699 85.816 376.855 86.032 376.855 86.332C376.855 86.764 376.483 87.04 375.799 87.04C375.127 87.04 374.743 86.716 374.731 86.2H373.339ZM381.366 88V83.296H382.518V82.072H381.366V80.224H379.902V82.072H378.762V83.296H379.902V88H381.366Z" fill="#284B64"/>
<g filter="url(#filter3_ddd_965_6699)">
<rect x="250" y="460" width="197" height="32" rx="12" fill="#1A938A"/>
</g>
<path d="M310.753 473.676C310.753 475.02 311.533 475.872 313.021 476.196L314.413 476.508C315.133 476.664 315.433 477.012 315.433 477.6C315.433 478.332 314.785 478.776 313.765 478.776C312.781 478.776 312.181 478.332 312.169 477.588H310.633C310.669 479.16 311.893 480.156 313.765 480.156C315.697 480.156 316.969 479.1 316.969 477.468C316.969 476.16 316.237 475.392 314.737 475.068L313.357 474.768C312.625 474.6 312.289 474.252 312.289 473.628C312.289 472.896 312.901 472.44 313.849 472.44C314.713 472.44 315.253 472.884 315.289 473.64H316.825C316.777 472.056 315.649 471.072 313.873 471.072C312.025 471.072 310.753 472.14 310.753 473.676ZM320.795 480.156C322.343 480.156 323.423 479.376 323.675 478.08H322.319C322.151 478.644 321.623 478.956 320.819 478.956C319.847 478.956 319.295 478.428 319.187 477.384L323.651 477.372V476.928C323.651 475.08 322.523 473.892 320.747 473.892C319.007 473.892 317.795 475.176 317.795 477.036C317.795 478.872 319.031 480.156 320.795 480.156ZM320.759 475.092C321.635 475.092 322.199 475.632 322.199 476.448H319.223C319.367 475.56 319.895 475.092 320.759 475.092ZM326.286 480V476.808C326.286 475.848 326.838 475.224 327.738 475.224C328.494 475.224 328.986 475.704 328.986 476.7V480H330.45V476.352C330.45 474.816 329.682 473.892 328.194 473.892C327.39 473.892 326.67 474.24 326.298 474.84L326.178 474.072H324.822V480H326.286ZM334.325 480.156C335.225 480.156 335.993 479.76 336.353 479.076L336.449 480H337.793V471.072H336.341V474.828C335.969 474.24 335.237 473.892 334.409 473.892C332.621 473.892 331.541 475.212 331.541 477.06C331.541 478.896 332.609 480.156 334.325 480.156ZM334.649 478.812C333.629 478.812 333.005 478.068 333.005 477.012C333.005 475.956 333.629 475.2 334.649 475.2C335.669 475.2 336.329 475.944 336.329 477.012C336.329 478.08 335.669 478.812 334.649 478.812ZM344.305 480V476.724H346.189L347.677 480H349.357L347.689 476.4C348.721 475.98 349.273 475.14 349.273 473.964C349.273 472.236 348.109 471.228 346.117 471.228H342.769V480H344.305ZM344.305 472.596H346.117C347.089 472.596 347.665 473.088 347.665 473.964C347.665 474.852 347.089 475.368 346.117 475.368H344.305V472.596ZM352.822 480.156C354.37 480.156 355.45 479.376 355.702 478.08H354.346C354.178 478.644 353.65 478.956 352.846 478.956C351.874 478.956 351.322 478.428 351.214 477.384L355.678 477.372V476.928C355.678 475.08 354.55 473.892 352.774 473.892C351.034 473.892 349.822 475.176 349.822 477.036C349.822 478.872 351.058 480.156 352.822 480.156ZM352.786 475.092C353.662 475.092 354.226 475.632 354.226 476.448H351.25C351.394 475.56 351.922 475.092 352.786 475.092ZM356.502 476.964C356.502 478.812 357.51 480.156 359.274 480.156C360.15 480.156 360.93 479.808 361.302 479.208V482.748H362.754V474.072H361.41L361.314 474.972C360.954 474.288 360.174 473.892 359.274 473.892C357.606 473.892 356.502 475.104 356.502 476.964ZM357.966 477.036C357.966 475.98 358.59 475.224 359.61 475.224C360.63 475.224 361.29 475.968 361.29 477.036C361.29 478.104 360.63 478.836 359.61 478.836C358.59 478.836 357.966 478.092 357.966 477.036ZM368.299 474.072V477.18C368.299 478.308 367.855 478.848 366.931 478.848C366.115 478.848 365.671 478.392 365.671 477.264V474.072H364.207V477.78C364.207 479.232 365.011 480.156 366.379 480.156C367.171 480.156 367.939 479.772 368.299 479.208L368.407 480H369.763V474.072H368.299ZM373.81 480.156C375.358 480.156 376.438 479.376 376.69 478.08H375.334C375.166 478.644 374.638 478.956 373.834 478.956C372.862 478.956 372.31 478.428 372.202 477.384L376.666 477.372V476.928C376.666 475.08 375.538 473.892 373.762 473.892C372.022 473.892 370.81 475.176 370.81 477.036C370.81 478.872 372.046 480.156 373.81 480.156ZM373.774 475.092C374.65 475.092 375.214 475.632 375.214 476.448H372.238C372.382 475.56 372.91 475.092 373.774 475.092ZM377.382 478.2C377.382 479.364 378.318 480.156 379.794 480.156C381.258 480.156 382.278 479.412 382.278 478.212C382.278 477.3 381.774 476.844 380.778 476.616L379.71 476.364C379.206 476.244 378.942 476.028 378.942 475.692C378.942 475.248 379.278 474.984 379.854 474.984C380.418 474.984 380.754 475.308 380.766 475.812H382.158C382.146 474.66 381.246 473.892 379.914 473.892C378.546 473.892 377.562 474.588 377.562 475.752C377.562 476.7 378.078 477.204 379.146 477.444L380.214 477.696C380.742 477.816 380.898 478.032 380.898 478.332C380.898 478.764 380.526 479.04 379.842 479.04C379.17 479.04 378.786 478.716 378.774 478.2H377.382ZM385.409 480V475.296H386.561V474.072H385.409V472.224H383.945V474.072H382.805V475.296H383.945V480H385.409Z" fill="white"/>
<path fill-rule="evenodd" clip-rule="evenodd" d="M83.333 255.333C83.333 255.702 83.0345 256 82.6663 256C82.2982 256 81.9997 255.702 81.9997 255.333L80.6663 255.333V257.333H91.333V255.333L89.9997 255.333C89.9997 255.702 89.7012 256 89.333 256C88.9648 256 88.6663 255.702 88.6663 255.333L83.333 255.333ZM80.6663 265.333V258.667H91.333V265.333H80.6663ZM88.6663 254L83.333 254C83.333 253.632 83.0345 253.333 82.6663 253.333C82.2982 253.333 81.9997 253.632 81.9997 254L80.6663 254C79.93 254 79.333 254.597 79.333 255.333V265.333C79.333 266.07 79.93 266.667 80.6663 266.667H91.333C92.0694 266.667 92.6663 266.07 92.6663 265.333V255.333C92.6663 254.597 92.0694 254 91.333 254L89.9997 254C89.9997 253.632 89.7012 253.333 89.333 253.333C88.9648 253.333 88.6663 253.632 88.6663 254ZM87.7235 260L85.333 262.391L84.2758 261.333C84.0155 261.073 83.5934 261.073 83.333 261.333C83.0727 261.594 83.0727 262.016 83.333 262.276L85.333 264.276L88.6663 260.943C88.9267 260.683 88.9267 260.261 88.6663 260C88.406 259.74 87.9839 259.74 87.7235 260Z" fill="#93A5B1"/>
<path d="M113.81 262.01V260.86H111.09V258.87H114.33V257.69H109.81V265H111.09V262.01H113.81ZM117.133 265.13C118.423 265.13 119.323 264.48 119.533 263.4H118.403C118.263 263.87 117.823 264.13 117.153 264.13C116.343 264.13 115.883 263.69 115.793 262.82L119.513 262.81V262.44C119.513 260.9 118.573 259.91 117.093 259.91C115.643 259.91 114.633 260.98 114.633 262.53C114.633 264.06 115.663 265.13 117.133 265.13ZM117.103 260.91C117.833 260.91 118.303 261.36 118.303 262.04H115.823C115.943 261.3 116.383 260.91 117.103 260.91ZM121.619 265L121.699 264.23C121.989 264.8 122.619 265.13 123.359 265.13C124.779 265.13 125.709 264.08 125.709 262.56C125.709 261 124.849 259.9 123.439 259.9C122.689 259.9 122.029 260.23 121.709 260.78V257.56H120.489V265H121.619ZM121.719 262.51C121.719 261.62 122.269 261 123.109 261C123.969 261 124.479 261.63 124.479 262.51C124.479 263.39 123.969 264.01 123.109 264.01C122.269 264.01 121.719 263.4 121.719 262.51ZM128.008 264.56C128.008 263.94 127.648 263.53 127.148 263.53C126.698 263.53 126.388 263.85 126.388 264.33C126.388 264.73 126.708 265.02 127.098 265.02C127.218 265.02 127.308 265 127.388 264.96C127.388 265.31 127.048 265.58 126.598 265.66V266.15C127.408 266.05 128.008 265.39 128.008 264.56ZM134.188 264.99V263.8H131.148L132.468 262.67C133.578 261.72 134.138 260.95 134.138 259.93C134.138 258.45 133.168 257.56 131.608 257.56C130.058 257.56 129.038 258.6 129.028 260.2H130.298C130.308 259.26 130.808 258.7 131.608 258.7C132.378 258.7 132.828 259.17 132.828 260C132.828 260.7 132.498 261.18 131.508 262.02L129.118 264.04V265L134.188 264.99ZM134.977 261.36C134.977 263.62 136.127 265.13 138.067 265.13C140.007 265.13 141.167 263.62 141.167 261.36C141.167 259.09 139.937 257.55 138.067 257.55C136.197 257.55 134.977 259.09 134.977 261.36ZM136.237 261.36C136.237 259.63 136.917 258.68 138.067 258.68C139.227 258.68 139.907 259.63 139.907 261.36C139.907 263.05 139.227 264 138.067 264C136.917 264 136.237 263.05 136.237 261.36ZM147.128 264.99V263.8H144.088L145.408 262.67C146.518 261.72 147.078 260.95 147.078 259.93C147.078 258.45 146.108 257.56 144.548 257.56C142.998 257.56 141.978 258.6 141.968 260.2H143.238C143.248 259.26 143.748 258.7 144.548 258.7C145.318 258.7 145.768 259.17 145.768 260C145.768 260.7 145.438 261.18 144.448 262.02L142.058 264.04V265L147.128 264.99ZM150.145 261.38C151.165 261.38 151.645 261.92 151.645 262.66C151.645 263.47 151.115 263.99 150.315 263.99C149.535 263.99 149.015 263.51 149.015 262.67H147.755C147.755 264.25 148.865 265.13 150.295 265.13C151.775 265.13 152.945 264.18 152.945 262.68C152.945 261.39 152.075 260.57 150.955 260.35L152.735 258.71V257.69H148.095V258.82H151.135L149.255 260.55V261.38H150.145Z" fill="#043344"/>
<path fill-rule="evenodd" clip-rule="evenodd" d="M584.195 259.667C584.325 259.537 584.537 259.537 584.667 259.667C584.797 259.797 584.797 260.008 584.667 260.138L582 262.805L579.333 260.138C579.203 260.008 579.203 259.797 579.333 259.667C579.464 259.537 579.675 259.537 579.805 259.667L582 261.862L584.195 259.667Z" fill="#93A5B1"/>
<mask id="mask0_965_6699" style="mask-type:luminance" maskUnits="userSpaceOnUse" x="579" y="259" width="6" height="4">
<path fill-rule="evenodd" clip-rule="evenodd" d="M584.195 259.667C584.325 259.537 584.537 259.537 584.667 259.667C584.797 259.797 584.797 260.008 584.667 260.138L582 262.805L579.333 260.138C579.203 260.008 579.203 259.797 579.333 259.667C579.464 259.537 579.675 259.537 579.805 259.667L582 261.862L584.195 259.667Z" fill="white"/>
</mask>
<g mask="url(#mask0_965_6699)">
</g>
<rect x="101.5" y="249.5" width="492" height="23" rx="2.5" stroke="#32C69A"/>
<path fill-rule="evenodd" clip-rule="evenodd" d="M91.2006 292.27C90.4669 291.897 89.5122 291.691 88.513 291.691C88.2164 291.691 87.9236 291.71 87.6394 291.745V288.267C87.6394 287.456 87.1052 286.719 86.1739 286.245C85.4402 285.872 84.4855 285.667 83.4863 285.667C82.4871 285.667 81.5325 285.872 80.7985 286.245C79.8671 286.719 79.333 287.456 79.333 288.267V295.366C79.333 296.177 79.8671 296.914 80.7985 297.388C81.5325 297.761 82.487 297.967 83.4863 297.967C83.7865 297.967 84.0822 297.947 84.3695 297.911C84.4419 298.651 84.9628 299.315 85.8254 299.754C86.5592 300.128 87.5137 300.333 88.513 300.333C89.5122 300.333 90.4669 300.128 91.2006 299.754C92.1321 299.28 92.6663 298.544 92.6663 297.733V294.291C92.6663 293.481 92.1321 292.744 91.2006 292.27ZM91.6545 294.291C91.6545 294.857 90.4595 295.646 88.513 295.646C86.5666 295.646 85.3715 294.857 85.3715 294.291C85.3715 293.726 86.5666 292.937 88.513 292.937C90.4595 292.937 91.6545 293.726 91.6545 294.291ZM91.6545 296.133C91.6545 296.699 90.4595 297.488 88.513 297.488C86.5666 297.488 85.3715 296.699 85.3715 296.133C85.3715 296.05 85.3991 295.962 85.4497 295.872C86.1891 296.337 87.2693 296.621 88.513 296.621C89.7566 296.621 90.837 296.337 91.5763 295.872C91.627 295.962 91.6545 296.05 91.6545 296.133ZM83.4863 286.913C85.4328 286.913 86.628 287.702 86.628 288.267C86.628 288.832 85.4328 289.621 83.4863 289.621C81.54 289.621 80.3448 288.832 80.3448 288.267C80.3448 287.701 81.5399 286.913 83.4863 286.913ZM80.423 289.847C81.1623 290.313 82.2428 290.596 83.4863 290.596C84.73 290.596 85.8103 290.313 86.5496 289.847C86.6003 289.937 86.628 290.025 86.628 290.109C86.628 290.674 85.4328 291.463 83.4863 291.463C81.54 291.463 80.3448 290.674 80.3448 290.109C80.3448 290.025 80.3724 289.937 80.423 289.847ZM80.423 291.689C81.1623 292.154 82.2426 292.438 83.4863 292.438C84.73 292.438 85.8103 292.154 86.5496 291.689C86.6003 291.779 86.628 291.867 86.628 291.951C86.628 291.952 86.6278 291.953 86.6277 291.954C86.3402 292.04 86.0703 292.146 85.8254 292.27C85.3445 292.515 84.9706 292.83 84.7203 293.189C84.3536 293.262 83.9408 293.305 83.4865 293.305C81.5402 293.305 80.345 292.516 80.345 291.951C80.3448 291.867 80.3724 291.779 80.423 291.689ZM80.423 293.531C81.1623 293.996 82.2426 294.28 83.4863 294.28C83.7892 294.28 84.0815 294.262 84.3622 294.23C84.3617 294.251 84.3597 294.271 84.3597 294.291V295.09C84.0885 295.126 83.7977 295.147 83.4861 295.147C81.5399 295.147 80.3446 294.358 80.3446 293.793C80.3448 293.709 80.3724 293.621 80.423 293.531ZM80.2915 295.366V295.286C81.031 295.803 82.1669 296.122 83.4861 296.122C83.7881 296.122 84.0795 296.105 84.3597 296.073V296.929C84.0819 296.969 83.7894 296.992 83.4861 296.992C81.7219 296.992 80.2915 296.264 80.2915 295.366ZM91.7079 297.733C91.7079 298.63 90.2775 299.358 88.5132 299.358C86.7487 299.358 85.3184 298.63 85.3184 297.733V297.719V297.627C86.0579 298.143 87.1938 298.463 88.5132 298.463C89.8324 298.463 90.9685 298.144 91.7079 297.627V297.733Z" fill="#93A5B1"/>
<rect x="101" y="281" width="319" height="24" rx="3" fill="#F4F6F7"/>
<path d="M109.39 291.73C109.39 292.85 110.04 293.56 111.28 293.83L112.44 294.09C113.04 294.22 113.29 294.51 113.29 295C113.29 295.61 112.75 295.98 111.9 295.98C111.08 295.98 110.58 295.61 110.57 294.99H109.29C109.32 296.3 110.34 297.13 111.9 297.13C113.51 297.13 114.57 296.25 114.57 294.89C114.57 293.8 113.96 293.16 112.71 292.89L111.56 292.64C110.95 292.5 110.67 292.21 110.67 291.69C110.67 291.08 111.18 290.7 111.97 290.7C112.69 290.7 113.14 291.07 113.17 291.7H114.45C114.41 290.38 113.47 289.56 111.99 289.56C110.45 289.56 109.39 290.45 109.39 291.73ZM117.758 297.13C119.048 297.13 119.948 296.48 120.158 295.4H119.028C118.888 295.87 118.448 296.13 117.778 296.13C116.968 296.13 116.508 295.69 116.418 294.82L120.138 294.81V294.44C120.138 292.9 119.198 291.91 117.718 291.91C116.268 291.91 115.258 292.98 115.258 294.53C115.258 296.06 116.288 297.13 117.758 297.13ZM117.728 292.91C118.458 292.91 118.928 293.36 118.928 294.04H116.448C116.568 293.3 117.008 292.91 117.728 292.91ZM124.214 292.04C124.014 291.99 123.844 291.97 123.674 291.97C123.014 291.97 122.544 292.3 122.334 292.79L122.264 292.07H121.114V297H122.334V294.6C122.334 293.64 122.884 293.17 123.764 293.17H124.214V292.04ZM126.587 297H127.787L129.847 292.06H128.587L127.687 294.33C127.477 294.87 127.297 295.39 127.227 295.7C127.167 295.43 126.997 294.92 126.787 294.33L125.927 292.06H124.627L126.587 297ZM131.158 291.07C131.558 291.07 131.888 290.74 131.888 290.33C131.888 289.92 131.558 289.6 131.158 289.6C130.738 289.6 130.408 289.92 130.408 290.33C130.408 290.74 130.738 291.07 131.158 291.07ZM130.548 297H131.768V292.06H130.548V297ZM132.738 294.52C132.738 296.09 133.718 297.13 135.218 297.13C136.508 297.13 137.468 296.34 137.618 295.19H136.388C136.258 295.73 135.828 296.03 135.218 296.03C134.438 296.03 133.958 295.45 133.958 294.52C133.958 293.59 134.478 293 135.258 293C135.838 293 136.248 293.29 136.388 293.85H137.608C137.478 292.66 136.558 291.91 135.208 291.91C133.748 291.91 132.738 292.99 132.738 294.52ZM140.736 297.13C142.026 297.13 142.926 296.48 143.136 295.4H142.006C141.866 295.87 141.426 296.13 140.756 296.13C139.946 296.13 139.486 295.69 139.396 294.82L143.116 294.81V294.44C143.116 292.9 142.176 291.91 140.696 291.91C139.246 291.91 138.236 292.98 138.236 294.53C138.236 296.06 139.266 297.13 140.736 297.13ZM140.706 292.91C141.436 292.91 141.906 293.36 141.906 294.04H139.426C139.546 293.3 139.986 292.91 140.706 292.91Z" fill="#043344"/>
<rect x="428" y="281" width="166" height="24" rx="3" fill="#F4F6F7"/>
<path d="M437.44 297L438.03 295.31H440.76L441.35 297H442.7L440.06 289.69H438.75L436.11 297H437.44ZM439.24 291.87C439.31 291.67 439.37 291.45 439.4 291.31C439.42 291.46 439.49 291.68 439.55 291.87L440.39 294.23H438.41L439.24 291.87ZM444.657 297V294.2C444.657 293.4 445.127 293.02 445.707 293.02C446.287 293.02 446.657 293.39 446.657 294.08V297H447.877V294.2C447.877 293.39 448.327 293.01 448.917 293.01C449.497 293.01 449.877 293.38 449.877 294.09V297H451.087V293.77C451.087 292.63 450.427 291.91 449.227 291.91C448.477 291.91 447.897 292.28 447.647 292.85C447.387 292.28 446.867 291.91 446.117 291.91C445.407 291.91 444.907 292.23 444.657 292.64L444.557 292.06H443.437V297H444.657ZM451.994 294.52C451.994 296.06 453.104 297.12 454.634 297.12C456.164 297.12 457.274 296.06 457.274 294.52C457.274 292.98 456.164 291.92 454.634 291.92C453.104 291.92 451.994 292.98 451.994 294.52ZM453.214 294.52C453.214 293.62 453.794 293.01 454.634 293.01C455.474 293.01 456.054 293.62 456.054 294.52C456.054 295.42 455.474 296.03 454.634 296.03C453.794 296.03 453.214 295.42 453.214 294.52ZM461.474 292.06V294.65C461.474 295.59 461.104 296.04 460.334 296.04C459.654 296.04 459.284 295.66 459.284 294.72V292.06H458.064V295.15C458.064 296.36 458.734 297.13 459.874 297.13C460.534 297.13 461.174 296.81 461.474 296.34L461.564 297H462.694V292.06H461.474ZM465.174 297V294.34C465.174 293.54 465.634 293.02 466.384 293.02C467.014 293.02 467.424 293.42 467.424 294.25V297H468.644V293.96C468.644 292.68 468.004 291.91 466.764 291.91C466.094 291.91 465.494 292.2 465.184 292.7L465.084 292.06H463.954V297H465.174ZM471.523 297V293.08H472.483V292.06H471.523V290.52H470.303V292.06H469.353V293.08H470.303V297H471.523Z" fill="#043344"/>
<path d="M112.23 329C114.37 329 115.81 327.54 115.81 325.39C115.81 323.23 114.35 321.77 112.19 321.77H109.84V329H112.23ZM112.12 322.67C113.77 322.67 114.79 323.71 114.79 325.39C114.79 327.05 113.77 328.09 112.16 328.09H110.82V322.67H112.12ZM119.007 329.12C120.217 329.12 121.037 328.53 121.277 327.48H120.397C120.237 328.04 119.757 328.34 119.027 328.34C118.097 328.34 117.557 327.77 117.487 326.74L121.267 326.73V326.38C121.267 324.93 120.357 323.97 118.967 323.97C117.547 323.97 116.577 325.03 116.577 326.56C116.577 328.08 117.567 329.12 119.007 329.12ZM118.967 324.76C119.797 324.76 120.327 325.3 120.327 326.11H117.507C117.627 325.25 118.147 324.76 118.967 324.76ZM121.917 327.58C121.917 328.51 122.647 329.12 123.797 329.12C124.957 329.12 125.757 328.53 125.757 327.6C125.757 326.87 125.347 326.49 124.517 326.29L123.657 326.08C123.177 325.96 122.937 325.74 122.937 325.41C122.937 324.96 123.267 324.7 123.857 324.7C124.427 324.7 124.757 325.01 124.777 325.5H125.677C125.657 324.57 124.957 323.97 123.887 323.97C122.807 323.97 122.047 324.54 122.047 325.44C122.047 326.16 122.457 326.59 123.327 326.8L124.187 327C124.697 327.13 124.857 327.33 124.857 327.66C124.857 328.11 124.477 328.38 123.817 328.38C123.197 328.38 122.817 328.08 122.817 327.58H121.917ZM126.479 326.56C126.479 328.1 127.429 329.12 128.869 329.12C130.049 329.12 130.959 328.41 131.149 327.35H130.209C130.039 327.93 129.539 328.28 128.869 328.28C127.979 328.28 127.409 327.6 127.409 326.55C127.409 325.49 128.019 324.81 128.909 324.81C129.539 324.81 130.039 325.14 130.199 325.76H131.139C130.969 324.67 130.109 323.97 128.879 323.97C127.449 323.97 126.479 325.03 126.479 326.56ZM134.941 324.07C134.751 324.03 134.611 324.01 134.441 324.01C133.771 324.01 133.281 324.35 133.081 324.86L133.021 324.12H132.141V329H133.081V326.41C133.081 325.47 133.631 324.93 134.521 324.93H134.941V324.07ZM136.283 322.95C136.623 322.95 136.903 322.67 136.903 322.33C136.903 321.98 136.623 321.71 136.283 321.71C135.943 321.71 135.663 321.98 135.663 322.33C135.663 322.67 135.943 322.95 136.283 322.95ZM135.823 329H136.763V324.11H135.823V329ZM138.127 331.19H139.067V328.2C139.387 328.8 140.037 329.13 140.817 329.13C142.267 329.13 143.087 328.01 143.087 326.52C143.087 325.02 142.217 323.97 140.817 323.97C140.037 323.97 139.377 324.32 139.047 324.99L138.977 324.11H138.127V331.19ZM139.077 326.56C139.077 325.54 139.657 324.83 140.617 324.83C141.577 324.83 142.147 325.55 142.147 326.56C142.147 327.56 141.577 328.28 140.617 328.28C139.657 328.28 139.077 327.56 139.077 326.56ZM145.455 329V324.9H146.415V324.11H145.455V322.58H144.515V324.11H143.555V324.9H144.515V329H145.455ZM147.718 322.95C148.058 322.95 148.338 322.67 148.338 322.33C148.338 321.98 148.058 321.71 147.718 321.71C147.378 321.71 147.098 321.98 147.098 322.33C147.098 322.67 147.378 322.95 147.718 322.95ZM147.258 329H148.198V324.11H147.258V329ZM149.243 326.55C149.243 328.06 150.323 329.12 151.793 329.12C153.253 329.12 154.333 328.06 154.333 326.55C154.333 325.04 153.253 323.98 151.793 323.98C150.323 323.98 149.243 325.04 149.243 326.55ZM150.193 326.55C150.193 325.53 150.843 324.82 151.793 324.82C152.733 324.82 153.393 325.53 153.393 326.55C153.393 327.57 152.733 328.28 151.793 328.28C150.843 328.28 150.193 327.57 150.193 326.55ZM156.313 329V326.41C156.313 325.46 156.823 324.83 157.703 324.83C158.423 324.83 158.883 325.23 158.883 326.22V329H159.823V326.01C159.823 324.76 159.233 323.97 157.943 323.97C157.253 323.97 156.633 324.3 156.323 324.86L156.223 324.11H155.373V329H156.313Z" fill="#A7B5BF"/>
<rect x="101.25" y="313.25" width="318.5" height="23.5" rx="2.75" stroke="#D4DBE0" stroke-width="0.5"/>
<path d="M101.8 365.23V366.03H103.9V368.14H104.7V366.03H106.8V365.23H104.7V363.13H103.9V365.23H101.8ZM111.476 369L112.116 367.2H115.156L115.806 369H116.836L114.186 361.77H113.096L110.456 369H111.476ZM113.516 363.33C113.566 363.18 113.616 363.01 113.636 362.91C113.656 363.02 113.706 363.19 113.756 363.33L114.866 366.35H112.416L113.516 363.33ZM119.411 369.12C120.191 369.12 120.851 368.78 121.171 368.11L121.251 369H122.091V361.64H121.161V364.9C120.831 364.3 120.201 363.97 119.451 363.97C118.001 363.97 117.131 365.07 117.131 366.57C117.131 368.06 117.991 369.12 119.411 369.12ZM119.601 368.27C118.641 368.27 118.081 367.55 118.081 366.54C118.081 365.54 118.641 364.82 119.601 364.82C120.561 364.82 121.151 365.54 121.151 366.54C121.151 367.56 120.561 368.27 119.601 368.27ZM125.408 369.12C126.188 369.12 126.848 368.78 127.168 368.11L127.248 369H128.088V361.64H127.158V364.9C126.828 364.3 126.198 363.97 125.448 363.97C123.998 363.97 123.128 365.07 123.128 366.57C123.128 368.06 123.988 369.12 125.408 369.12ZM125.598 368.27C124.638 368.27 124.078 367.55 124.078 366.54C124.078 365.54 124.638 364.82 125.598 364.82C126.558 364.82 127.148 365.54 127.148 366.54C127.148 367.56 126.558 368.27 125.598 368.27ZM133.608 369.12C134.398 369.12 135.068 368.77 135.318 368.21L135.418 369H136.218V365.93C136.218 364.61 135.398 363.97 134.188 363.97C132.928 363.97 132.088 364.64 132.088 365.66H132.908C132.908 365.07 133.358 364.72 134.148 364.72C134.808 364.72 135.298 365.01 135.298 365.83V365.97L133.758 366.09C132.608 366.18 131.938 366.74 131.938 367.64C131.938 368.53 132.558 369.12 133.608 369.12ZM133.878 368.39C133.268 368.39 132.888 368.13 132.888 367.61C132.888 367.13 133.228 366.81 134.058 366.73L135.308 366.63V366.89C135.308 367.81 134.768 368.39 133.878 368.39ZM139.854 367.58C139.854 368.51 140.584 369.12 141.734 369.12C142.894 369.12 143.694 368.53 143.694 367.6C143.694 366.87 143.284 366.49 142.454 366.29L141.594 366.08C141.114 365.96 140.874 365.74 140.874 365.41C140.874 364.96 141.204 364.7 141.794 364.7C142.364 364.7 142.694 365.01 142.714 365.5H143.614C143.594 364.57 142.894 363.97 141.824 363.97C140.744 363.97 139.984 364.54 139.984 365.44C139.984 366.16 140.394 366.59 141.264 366.8L142.124 367C142.634 367.13 142.794 367.33 142.794 367.66C142.794 368.11 142.414 368.38 141.754 368.38C141.134 368.38 140.754 368.08 140.754 367.58H139.854ZM146.847 369.12C148.057 369.12 148.877 368.53 149.117 367.48H148.237C148.077 368.04 147.597 368.34 146.867 368.34C145.937 368.34 145.397 367.77 145.327 366.74L149.107 366.73V366.38C149.107 364.93 148.197 363.97 146.807 363.97C145.387 363.97 144.417 365.03 144.417 366.56C144.417 368.08 145.407 369.12 146.847 369.12ZM146.807 364.76C147.637 364.76 148.167 365.3 148.167 366.11H145.347C145.467 365.25 145.987 364.76 146.807 364.76ZM152.957 364.07C152.767 364.03 152.627 364.01 152.457 364.01C151.787 364.01 151.297 364.35 151.097 364.86L151.037 364.12H150.157V369H151.097V366.41C151.097 365.47 151.647 364.93 152.537 364.93H152.957V364.07ZM155.355 369H156.285L158.325 364.11H157.345L156.255 366.84C156.085 367.27 155.925 367.69 155.845 368.01C155.765 367.71 155.625 367.3 155.455 366.84L154.385 364.11H153.385L155.355 369ZM159.533 362.95C159.873 362.95 160.153 362.67 160.153 362.33C160.153 361.98 159.873 361.71 159.533 361.71C159.193 361.71 158.913 361.98 158.913 362.33C158.913 362.67 159.193 362.95 159.533 362.95ZM159.073 369H160.013V364.11H159.073V369ZM161.057 366.56C161.057 368.1 162.007 369.12 163.447 369.12C164.627 369.12 165.537 368.41 165.727 367.35H164.787C164.617 367.93 164.117 368.28 163.447 368.28C162.557 368.28 161.987 367.6 161.987 366.55C161.987 365.49 162.597 364.81 163.487 364.81C164.117 364.81 164.617 365.14 164.777 365.76H165.717C165.547 364.67 164.687 363.97 163.457 363.97C162.027 363.97 161.057 365.03 161.057 366.56ZM168.829 369.12C170.039 369.12 170.859 368.53 171.099 367.48H170.219C170.059 368.04 169.579 368.34 168.849 368.34C167.919 368.34 167.379 367.77 167.309 366.74L171.089 366.73V366.38C171.089 364.93 170.179 363.97 168.789 363.97C167.369 363.97 166.399 365.03 166.399 366.56C166.399 368.08 167.389 369.12 168.829 369.12ZM168.789 364.76C169.619 364.76 170.149 365.3 170.149 366.11H167.329C167.449 365.25 167.969 364.76 168.789 364.76Z" fill="#32C69A"/>
<path fill-rule="evenodd" clip-rule="evenodd" d="M586.427 321.838C586.686 321.575 587.108 321.572 587.37 321.83C587.632 322.089 587.636 322.511 587.377 322.773L583.633 326.575C583.421 326.791 583.421 327.138 583.633 327.354C583.833 327.559 584.168 327.558 584.367 327.353L589.001 322.645C589.678 321.955 589.678 320.846 589.001 320.155C588.356 319.497 587.214 319.511 586.581 320.157L581.523 325.291C580.381 326.456 580.381 328.327 581.523 329.492C582.632 330.623 584.537 330.605 585.628 329.491L591.06 323.975C591.318 323.712 591.74 323.709 592.003 323.967C592.265 324.226 592.268 324.648 592.01 324.91L586.579 330.425C584.97 332.067 582.206 332.094 580.571 330.425C578.92 328.742 578.92 326.042 580.572 324.357L585.63 319.222C586.779 318.05 588.78 318.024 589.953 319.222C591.138 320.431 591.138 322.369 589.952 323.579L585.321 328.284C584.604 329.024 583.406 329.028 582.68 328.287C581.961 327.553 581.961 326.376 582.682 325.641L586.427 321.838Z" fill="#93A5B1"/>
<mask id="mask1_965_6699" style="mask-type:luminance" maskUnits="userSpaceOnUse" x="579" y="318" width="14" height="14">
<path fill-rule="evenodd" clip-rule="evenodd" d="M586.427 321.838C586.686 321.575 587.108 321.572 587.37 321.83C587.632 322.089 587.636 322.511 587.377 322.773L583.633 326.575C583.421 326.791 583.421 327.138 583.633 327.354C583.833 327.559 584.168 327.558 584.367 327.353L589.001 322.645C589.678 321.955 589.678 320.846 589.001 320.155C588.356 319.497 587.214 319.511 586.581 320.157L581.523 325.291C580.381 326.456 580.381 328.327 581.523 329.492C582.632 330.623 584.537 330.605 585.628 329.491L591.06 323.975C591.318 323.712 591.74 323.709 592.003 323.967C592.265 324.226 592.268 324.648 592.01 324.91L586.579 330.425C584.97 332.067 582.206 332.094 580.571 330.425C578.92 328.742 578.92 326.042 580.572 324.357L585.63 319.222C586.779 318.05 588.78 318.024 589.953 319.222C591.138 320.431 591.138 322.369 589.952 323.579L585.321 328.284C584.604 329.024 583.406 329.028 582.68 328.287C581.961 327.553 581.961 326.376 582.682 325.641L586.427 321.838Z" fill="white"/>
</mask>
<g mask="url(#mask1_965_6699)">
</g>
<path d="M436.49 325.39C436.49 327.64 437.6 329.13 439.47 329.13C441.33 329.13 442.44 327.64 442.44 325.39C442.44 323.15 441.28 321.63 439.47 321.63C437.65 321.63 436.49 323.15 436.49 325.39ZM437.46 325.39C437.46 323.59 438.2 322.51 439.47 322.51C440.74 322.51 441.47 323.59 441.47 325.39C441.47 327.17 440.74 328.25 439.47 328.25C438.2 328.25 437.46 327.17 437.46 325.39ZM443.903 329.12C444.283 329.12 444.613 328.8 444.613 328.42C444.613 328.03 444.283 327.71 443.903 327.71C443.513 327.71 443.183 328.03 443.183 328.42C443.183 328.8 443.513 329.12 443.903 329.12ZM445.367 325.39C445.367 327.64 446.477 329.13 448.347 329.13C450.207 329.13 451.317 327.64 451.317 325.39C451.317 323.15 450.157 321.63 448.347 321.63C446.527 321.63 445.367 323.15 445.367 325.39ZM446.337 325.39C446.337 323.59 447.077 322.51 448.347 322.51C449.617 322.51 450.347 323.59 450.347 325.39C450.347 327.17 449.617 328.25 448.347 328.25C447.077 328.25 446.337 327.17 446.337 325.39ZM452.301 325.39C452.301 327.64 453.411 329.13 455.281 329.13C457.141 329.13 458.251 327.64 458.251 325.39C458.251 323.15 457.091 321.63 455.281 321.63C453.461 321.63 452.301 323.15 452.301 325.39ZM453.271 325.39C453.271 323.59 454.011 322.51 455.281 322.51C456.551 322.51 457.281 323.59 457.281 325.39C457.281 327.17 456.551 328.25 455.281 328.25C454.011 328.25 453.271 327.17 453.271 325.39Z" fill="#A7B5BF"/>
<path d="M522.338 329.87H523.088V321.09H522.338V329.87ZM527.484 323.72C527.484 324.76 528.094 325.44 529.274 325.71L530.464 325.98C531.154 326.14 531.464 326.5 531.464 327.07C531.464 327.79 530.854 328.24 529.894 328.24C528.984 328.24 528.404 327.8 528.384 327.11H527.384C527.444 328.35 528.424 329.12 529.894 329.12C531.434 329.12 532.444 328.29 532.444 326.99C532.444 325.97 531.844 325.33 530.664 325.06L529.474 324.78C528.794 324.62 528.464 324.27 528.464 323.69C528.464 322.98 529.054 322.52 529.964 322.52C530.774 322.52 531.284 322.94 531.334 323.66H532.324C532.244 322.41 531.354 321.64 529.974 321.64C528.484 321.64 527.484 322.48 527.484 323.72ZM533.976 329L534.616 327.2H537.656L538.306 329H539.336L536.686 321.77H535.596L532.956 329H533.976ZM536.016 323.33C536.066 323.18 536.116 323.01 536.136 322.91C536.156 323.02 536.206 323.19 536.256 323.33L537.366 326.35H534.916L536.016 323.33ZM541.277 329V326.14H543.127L544.477 329H545.567L544.097 325.95C544.997 325.66 545.497 324.94 545.497 323.94C545.497 322.59 544.577 321.77 543.027 321.77H540.297V329H541.277ZM541.277 322.65H543.027C543.927 322.65 544.467 323.11 544.467 323.95C544.467 324.78 543.947 325.27 543.037 325.27H541.277V322.65Z" fill="#A7B5BF"/>
<rect x="428.25" y="313.25" width="141.5" height="23.5" rx="2.75" stroke="#D4DBE0" stroke-width="0.5"/>
<path fill-rule="evenodd" clip-rule="evenodd" d="M560.195 323.667C560.325 323.537 560.537 323.537 560.667 323.667C560.797 323.797 560.797 324.008 560.667 324.138L558 326.805L555.333 324.138C555.203 324.008 555.203 323.797 555.333 323.667C555.464 323.537 555.675 323.537 555.805 323.667L558 325.862L560.195 323.667Z" fill="#93A5B1"/>
<mask id="mask2_965_6699" style="mask-type:luminance" maskUnits="userSpaceOnUse" x="555" y="323" width="6" height="4">
<path fill-rule="evenodd" clip-rule="evenodd" d="M560.195 323.667C560.325 323.537 560.537 323.537 560.667 323.667C560.797 323.797 560.797 324.008 560.667 324.138L558 326.805L555.333 324.138C555.203 324.008 555.203 323.797 555.333 323.667C555.464 323.537 555.675 323.537 555.805 323.667L558 325.862L560.195 323.667Z" fill="white"/>
</mask>
<g mask="url(#mask2_965_6699)">
</g>
<path fill-rule="evenodd" clip-rule="evenodd" d="M92.6663 389C92.6663 388.632 92.3679 388.333 91.9997 388.333H79.9997C79.6315 388.333 79.333 388.632 79.333 389C79.333 389.368 79.6315 389.667 79.9997 389.667H91.9997C92.3679 389.667 92.6663 389.368 92.6663 389ZM87.9997 391C88.3679 391 88.6663 391.299 88.6663 391.667C88.6663 392.035 88.3679 392.333 87.9997 392.333H79.9997C79.6315 392.333 79.333 392.035 79.333 391.667C79.333 391.299 79.6315 391 79.9997 391H87.9997ZM92.6663 394.333C92.6663 393.965 92.3679 393.667 91.9997 393.667H79.9997C79.6315 393.667 79.333 393.965 79.333 394.333C79.333 394.702 79.6315 395 79.9997 395H91.9997C92.3679 395 92.6663 394.702 92.6663 394.333ZM88.6663 397C88.6663 396.632 88.3679 396.333 87.9997 396.333H79.9997C79.6315 396.333 79.333 396.632 79.333 397C79.333 397.368 79.6315 397.667 79.9997 397.667H87.9997C88.3679 397.667 88.6663 397.368 88.6663 397Z" fill="#93A5B1"/>
<path d="M109.17 390.87H111.31V397H112.59V390.87H114.73V389.69H109.17V390.87ZM114.659 399.29C114.929 399.36 115.229 399.4 115.569 399.4C116.379 399.4 116.899 399.02 117.269 398.1L119.689 392.06H118.429L117.089 395.66L115.819 392.06H114.529L116.519 397.21L116.379 397.58C116.169 398.16 115.869 398.27 115.389 398.27H114.659V399.29ZM120.382 399.29H121.602V396.34C121.912 396.84 122.552 397.13 123.292 397.13C124.762 397.13 125.602 396.01 125.602 394.47C125.602 392.92 124.682 391.91 123.292 391.91C122.542 391.91 121.892 392.24 121.592 392.81L121.512 392.06H120.382V399.29ZM121.612 394.53C121.612 393.64 122.162 393.02 123.002 393.02C123.862 393.02 124.372 393.65 124.372 394.53C124.372 395.41 123.862 396.03 123.002 396.03C122.162 396.03 121.612 395.42 121.612 394.53ZM128.783 397.13C130.073 397.13 130.973 396.48 131.183 395.4H130.053C129.913 395.87 129.473 396.13 128.803 396.13C127.993 396.13 127.533 395.69 127.443 394.82L131.163 394.81V394.44C131.163 392.9 130.223 391.91 128.743 391.91C127.293 391.91 126.283 392.98 126.283 394.53C126.283 396.06 127.313 397.13 128.783 397.13ZM128.753 392.91C129.483 392.91 129.953 393.36 129.953 394.04H127.473C127.593 393.3 128.033 392.91 128.753 392.91ZM136.305 397.13C137.075 397.13 137.745 396.78 137.955 396.27L138.045 397H139.115V394C139.115 392.63 138.295 391.91 136.965 391.91C135.625 391.91 134.745 392.61 134.745 393.68H135.785C135.785 393.16 136.185 392.86 136.905 392.86C137.525 392.86 137.925 393.13 137.925 393.8V393.91L136.445 394.02C135.275 394.11 134.615 394.68 134.615 395.59C134.615 396.52 135.255 397.13 136.305 397.13ZM136.705 396.21C136.155 396.21 135.855 395.99 135.855 395.54C135.855 395.14 136.145 394.89 136.905 394.82L137.935 394.74V395C137.935 395.76 137.455 396.21 136.705 396.21ZM144.429 397V394.38C144.429 393.47 144.419 392.78 144.349 392.34L146.199 397H147.379L149.239 392.33C149.169 392.85 149.169 393.28 149.169 394.75V397H150.409V389.69H149.149L146.789 395.51L144.429 389.69H143.189V397H144.429ZM154.057 397.13C155.347 397.13 156.247 396.48 156.457 395.4H155.327C155.187 395.87 154.747 396.13 154.077 396.13C153.267 396.13 152.807 395.69 152.717 394.82L156.437 394.81V394.44C156.437 392.9 155.497 391.91 154.017 391.91C152.567 391.91 151.557 392.98 151.557 394.53C151.557 396.06 152.587 397.13 154.057 397.13ZM154.027 392.91C154.757 392.91 155.227 393.36 155.227 394.04H152.747C152.867 393.3 153.307 392.91 154.027 392.91ZM157.033 395.5C157.033 396.47 157.813 397.13 159.043 397.13C160.263 397.13 161.113 396.51 161.113 395.51C161.113 394.75 160.693 394.37 159.863 394.18L158.973 393.97C158.553 393.87 158.333 393.69 158.333 393.41C158.333 393.04 158.613 392.82 159.093 392.82C159.563 392.82 159.843 393.09 159.853 393.51H161.013C161.003 392.55 160.253 391.91 159.143 391.91C158.003 391.91 157.183 392.49 157.183 393.46C157.183 394.25 157.613 394.67 158.503 394.87L159.393 395.08C159.833 395.18 159.963 395.36 159.963 395.61C159.963 395.97 159.653 396.2 159.083 396.2C158.523 396.2 158.203 395.93 158.193 395.5H157.033ZM161.662 395.5C161.662 396.47 162.442 397.13 163.672 397.13C164.892 397.13 165.742 396.51 165.742 395.51C165.742 394.75 165.322 394.37 164.492 394.18L163.602 393.97C163.182 393.87 162.962 393.69 162.962 393.41C162.962 393.04 163.242 392.82 163.722 392.82C164.192 392.82 164.472 393.09 164.482 393.51H165.642C165.632 392.55 164.882 391.91 163.772 391.91C162.632 391.91 161.812 392.49 161.812 393.46C161.812 394.25 162.242 394.67 163.132 394.87L164.022 395.08C164.462 395.18 164.592 395.36 164.592 395.61C164.592 395.97 164.282 396.2 163.712 396.2C163.152 396.2 162.832 395.93 162.822 395.5H161.662ZM168.141 397.13C168.911 397.13 169.581 396.78 169.791 396.27L169.881 397H170.951V394C170.951 392.63 170.131 391.91 168.801 391.91C167.461 391.91 166.581 392.61 166.581 393.68H167.621C167.621 393.16 168.021 392.86 168.741 392.86C169.361 392.86 169.761 393.13 169.761 393.8V393.91L168.281 394.02C167.111 394.11 166.451 394.68 166.451 395.59C166.451 396.52 167.091 397.13 168.141 397.13ZM168.541 396.21C167.991 396.21 167.691 395.99 167.691 395.54C167.691 395.14 167.981 394.89 168.741 394.82L169.771 394.74V395C169.771 395.76 169.291 396.21 168.541 396.21ZM171.87 394.42C171.87 395.85 172.79 396.9 174.19 396.9C174.9 396.9 175.51 396.61 175.82 396.15V396.97C175.82 397.79 175.28 398.32 174.44 398.32C173.69 398.32 173.2 397.94 173.12 397.3H171.9C172.05 398.62 173.02 399.43 174.44 399.43C176.04 399.43 177.03 398.4 177.03 396.75V392.06H175.9L175.83 392.74C175.54 392.21 174.96 391.9 174.22 391.9C172.81 391.9 171.87 392.98 171.87 394.42ZM173.1 394.39C173.1 393.58 173.62 392.97 174.43 392.97C175.28 392.97 175.79 393.55 175.79 394.39C175.79 395.25 175.27 395.84 174.43 395.84C173.63 395.84 173.1 395.22 173.1 394.39ZM180.502 397.13C181.792 397.13 182.692 396.48 182.902 395.4H181.772C181.632 395.87 181.192 396.13 180.522 396.13C179.712 396.13 179.252 395.69 179.162 394.82L182.882 394.81V394.44C182.882 392.9 181.942 391.91 180.462 391.91C179.012 391.91 178.002 392.98 178.002 394.53C178.002 396.06 179.032 397.13 180.502 397.13ZM180.472 392.91C181.202 392.91 181.672 393.36 181.672 394.04H179.192C179.312 393.3 179.752 392.91 180.472 392.91ZM186.264 394.52C186.264 396.06 187.374 397.12 188.904 397.12C190.434 397.12 191.544 396.06 191.544 394.52C191.544 392.98 190.434 391.92 188.904 391.92C187.374 391.92 186.264 392.98 186.264 394.52ZM187.484 394.52C187.484 393.62 188.064 393.01 188.904 393.01C189.744 393.01 190.324 393.62 190.324 394.52C190.324 395.42 189.744 396.03 188.904 396.03C188.064 396.03 187.484 395.42 187.484 394.52ZM195.611 392.04C195.411 391.99 195.241 391.97 195.071 391.97C194.411 391.97 193.941 392.3 193.731 392.79L193.661 392.07H192.511V397H193.731V394.6C193.731 393.64 194.281 393.17 195.161 393.17H195.611V392.04ZM200.812 397V393.08H201.772V392.06H200.812V390.52H199.592V392.06H198.642V393.08H199.592V397H200.812ZM202.1 399.29C202.37 399.36 202.67 399.4 203.01 399.4C203.82 399.4 204.34 399.02 204.71 398.1L207.13 392.06H205.87L204.53 395.66L203.26 392.06H201.97L203.96 397.21L203.82 397.58C203.61 398.16 203.31 398.27 202.83 398.27H202.1V399.29ZM207.823 399.29H209.043V396.34C209.353 396.84 209.993 397.13 210.733 397.13C212.203 397.13 213.043 396.01 213.043 394.47C213.043 392.92 212.123 391.91 210.733 391.91C209.983 391.91 209.333 392.24 209.033 392.81L208.953 392.06H207.823V399.29ZM209.053 394.53C209.053 393.64 209.603 393.02 210.443 393.02C211.303 393.02 211.813 393.65 211.813 394.53C211.813 395.41 211.303 396.03 210.443 396.03C209.603 396.03 209.053 395.42 209.053 394.53ZM216.225 397.13C217.515 397.13 218.415 396.48 218.625 395.4H217.495C217.355 395.87 216.915 396.13 216.245 396.13C215.435 396.13 214.975 395.69 214.885 394.82L218.605 394.81V394.44C218.605 392.9 217.665 391.91 216.185 391.91C214.735 391.91 213.725 392.98 213.725 394.53C213.725 396.06 214.755 397.13 216.225 397.13ZM216.195 392.91C216.925 392.91 217.395 393.36 217.395 394.04H214.915C215.035 393.3 215.475 392.91 216.195 392.91ZM223.826 391.37C223.826 390.94 223.546 390.68 223.186 390.68C223.076 390.68 222.986 390.7 222.906 390.73C222.906 390.38 223.206 390.11 223.636 390.03V389.55C222.836 389.65 222.276 390.3 222.276 391.14C222.276 391.74 222.616 392.12 223.086 392.12C223.526 392.12 223.826 391.81 223.826 391.37ZM225.806 391.37C225.806 390.94 225.516 390.68 225.156 390.68C225.046 390.68 224.956 390.7 224.876 390.74C224.876 390.38 225.186 390.11 225.616 390.03V389.55C224.816 389.65 224.256 390.3 224.256 391.14C224.256 391.74 224.596 392.12 225.066 392.12C225.506 392.12 225.806 391.81 225.806 391.37ZM229.052 394.75C229.052 395.62 229.662 396.15 230.672 396.15C231.392 396.15 232.042 395.8 232.242 395.3C232.382 395.85 232.822 396.15 233.512 396.15C234.662 396.15 235.402 395.14 235.402 393.6C235.402 391.26 233.632 389.56 231.192 389.56C228.742 389.56 226.902 391.39 226.902 393.84C226.902 396.3 228.732 398.13 231.192 398.13C232.082 398.13 232.922 397.87 233.622 397.37L233.272 396.69C232.642 397.13 231.912 397.38 231.192 397.38C229.192 397.38 227.712 395.87 227.712 393.84C227.712 391.82 229.192 390.31 231.192 390.31C233.182 390.31 234.592 391.68 234.592 393.6C234.592 394.68 234.222 395.41 233.672 395.41C233.332 395.41 233.162 395.23 233.162 394.85V393.3C233.162 392.09 232.452 391.4 231.202 391.4C229.972 391.4 229.182 392.04 229.182 393.01H230.122C230.122 392.53 230.492 392.26 231.152 392.26C231.762 392.26 232.082 392.55 232.082 393.12V393.22L230.732 393.33C229.632 393.41 229.052 393.95 229.052 394.75ZM230.182 394.71C230.182 394.32 230.462 394.12 231.142 394.06L232.092 393.98V394.22C232.092 394.9 231.662 395.31 230.962 395.31C230.442 395.31 230.182 395.11 230.182 394.71ZM238.055 390.53C238.055 389.93 237.715 389.55 237.245 389.55C236.805 389.55 236.505 389.86 236.505 390.3C236.505 390.74 236.795 390.99 237.155 390.99C237.265 390.99 237.355 390.97 237.435 390.94C237.435 391.29 237.125 391.56 236.695 391.64V392.12C237.495 392.02 238.055 391.37 238.055 390.53ZM240.035 390.53C240.035 389.93 239.695 389.55 239.225 389.55C238.785 389.55 238.485 389.86 238.485 390.3C238.485 390.74 238.765 390.99 239.125 390.99C239.235 390.99 239.325 390.97 239.405 390.94C239.405 391.29 239.105 391.56 238.675 391.64V392.12C239.475 392.02 240.035 391.37 240.035 390.53ZM241.173 397.12C241.613 397.12 241.983 396.76 241.983 396.33C241.983 395.89 241.613 395.53 241.173 395.53C240.733 395.53 240.363 395.89 240.363 396.33C240.363 396.76 240.733 397.12 241.173 397.12ZM244.083 397.12C244.523 397.12 244.893 396.76 244.893 396.33C244.893 395.89 244.523 395.53 244.083 395.53C243.643 395.53 243.273 395.89 243.273 396.33C243.273 396.76 243.643 397.12 244.083 397.12ZM246.993 397.12C247.433 397.12 247.803 396.76 247.803 396.33C247.803 395.89 247.433 395.53 246.993 395.53C246.553 395.53 246.183 395.89 246.183 396.33C246.183 396.76 246.553 397.12 246.993 397.12Z" fill="#BEC9D0"/>
<rect x="101.25" y="381.25" width="494.5" height="64.5" rx="2.75" stroke="#D4DBE0" stroke-width="0.5"/>
<line x1="102" y1="346.75" x2="596" y2="346.75" stroke="#BEC9D0" stroke-width="0.5"/>
<defs>
<filter id="filter0_ddd_965_6699" x="0" y="0" width="698" height="581" filterUnits="userSpaceOnUse" color-interpolation-filters="sRGB">
<feFlood flood-opacity="0" result="BackgroundImageFix"/>
<feColorMatrix in="SourceAlpha" type="matrix" values="0 0 0 0 0 0 0 0 0 0 0 0 0 0 0 0 0 0 127 0" result="hardAlpha"/>
<feMorphology radius="7" operator="erode" in="SourceAlpha" result="effect1_dropShadow_965_6699"/>
<feOffset dy="11"/>
<feGaussianBlur stdDeviation="7.5"/>
<feColorMatrix type="matrix" values="0 0 0 0 0.364706 0 0 0 0 0.447059 0 0 0 0 0.54902 0 0 0 0.16 0"/>
<feBlend mode="normal" in2="BackgroundImageFix" result="effect1_dropShadow_965_6699"/>
<feColorMatrix in="SourceAlpha" type="matrix" values="0 0 0 0 0 0 0 0 0 0 0 0 0 0 0 0 0 0 127 0" result="hardAlpha"/>
<feMorphology radius="8" operator="dilate" in="SourceAlpha" result="effect2_dropShadow_965_6699"/>
<feOffset dy="9"/>
<feGaussianBlur stdDeviation="23"/>
<feColorMatrix type="matrix" values="0 0 0 0 0.364706 0 0 0 0 0.447059 0 0 0 0 0.54902 0 0 0 0.08 0"/>
<feBlend mode="normal" in2="effect1_dropShadow_965_6699" result="effect2_dropShadow_965_6699"/>
<feColorMatrix in="SourceAlpha" type="matrix" values="0 0 0 0 0 0 0 0 0 0 0 0 0 0 0 0 0 0 127 0" result="hardAlpha"/>
<feMorphology radius="3" operator="dilate" in="SourceAlpha" result="effect3_dropShadow_965_6699"/>
<feOffset dy="24"/>
<feGaussianBlur stdDeviation="19"/>
<feColorMatrix type="matrix" values="0 0 0 0 0.364706 0 0 0 0 0.447059 0 0 0 0 0.54902 0 0 0 0.1 0"/>
<feBlend mode="normal" in2="effect2_dropShadow_965_6699" result="effect3_dropShadow_965_6699"/>
<feBlend mode="normal" in="SourceGraphic" in2="effect3_dropShadow_965_6699" result="shape"/>
</filter>
<filter id="filter1_ddd_965_6699" x="8" y="8" width="682" height="565" filterUnits="userSpaceOnUse" color-interpolation-filters="sRGB">
<feFlood flood-opacity="0" result="BackgroundImageFix"/>
<feColorMatrix in="SourceAlpha" type="matrix" values="0 0 0 0 0 0 0 0 0 0 0 0 0 0 0 0 0 0 127 0" result="hardAlpha"/>
<feMorphology radius="7" operator="erode" in="SourceAlpha" result="effect1_dropShadow_965_6699"/>
<feOffset dy="11"/>
<feGaussianBlur stdDeviation="7.5"/>
<feColorMatrix type="matrix" values="0 0 0 0 0.364706 0 0 0 0 0.447059 0 0 0 0 0.54902 0 0 0 0.16 0"/>
<feBlend mode="normal" in2="BackgroundImageFix" result="effect1_dropShadow_965_6699"/>
<feColorMatrix in="SourceAlpha" type="matrix" values="0 0 0 0 0 0 0 0 0 0 0 0 0 0 0 0 0 0 127 0" result="hardAlpha"/>
<feMorphology radius="8" operator="dilate" in="SourceAlpha" result="effect2_dropShadow_965_6699"/>
<feOffset dy="9"/>
<feGaussianBlur stdDeviation="23"/>
<feColorMatrix type="matrix" values="0 0 0 0 0.364706 0 0 0 0 0.447059 0 0 0 0 0.54902 0 0 0 0.08 0"/>
<feBlend mode="normal" in2="effect1_dropShadow_965_6699" result="effect2_dropShadow_965_6699"/>
<feColorMatrix in="SourceAlpha" type="matrix" values="0 0 0 0 0 0 0 0 0 0 0 0 0 0 0 0 0 0 127 0" result="hardAlpha"/>
<feMorphology radius="3" operator="dilate" in="SourceAlpha" result="effect3_dropShadow_965_6699"/>
<feOffset dy="24"/>
<feGaussianBlur stdDeviation="19"/>
<feColorMatrix type="matrix" values="0 0 0 0 0.364706 0 0 0 0 0.447059 0 0 0 0 0.54902 0 0 0 0.1 0"/>
<feBlend mode="normal" in2="effect2_dropShadow_965_6699" result="effect3_dropShadow_965_6699"/>
<feBlend mode="normal" in="SourceGraphic" in2="effect3_dropShadow_965_6699" result="shape"/>
</filter>
<filter id="filter2_ddd_965_6699" x="8" y="178" width="682" height="395" filterUnits="userSpaceOnUse" color-interpolation-filters="sRGB">
<feFlood flood-opacity="0" result="BackgroundImageFix"/>
<feColorMatrix in="SourceAlpha" type="matrix" values="0 0 0 0 0 0 0 0 0 0 0 0 0 0 0 0 0 0 127 0" result="hardAlpha"/>
<feMorphology radius="7" operator="erode" in="SourceAlpha" result="effect1_dropShadow_965_6699"/>
<feOffset dy="11"/>
<feGaussianBlur stdDeviation="7.5"/>
<feColorMatrix type="matrix" values="0 0 0 0 0.364706 0 0 0 0 0.447059 0 0 0 0 0.54902 0 0 0 0.16 0"/>
<feBlend mode="normal" in2="BackgroundImageFix" result="effect1_dropShadow_965_6699"/>
<feColorMatrix in="SourceAlpha" type="matrix" values="0 0 0 0 0 0 0 0 0 0 0 0 0 0 0 0 0 0 127 0" result="hardAlpha"/>
<feMorphology radius="8" operator="dilate" in="SourceAlpha" result="effect2_dropShadow_965_6699"/>
<feOffset dy="9"/>
<feGaussianBlur stdDeviation="23"/>
<feColorMatrix type="matrix" values="0 0 0 0 0.364706 0 0 0 0 0.447059 0 0 0 0 0.54902 0 0 0 0.08 0"/>
<feBlend mode="normal" in2="effect1_dropShadow_965_6699" result="effect2_dropShadow_965_6699"/>
<feColorMatrix in="SourceAlpha" type="matrix" values="0 0 0 0 0 0 0 0 0 0 0 0 0 0 0 0 0 0 127 0" result="hardAlpha"/>
<feMorphology radius="3" operator="dilate" in="SourceAlpha" result="effect3_dropShadow_965_6699"/>
<feOffset dy="24"/>
<feGaussianBlur stdDeviation="19"/>
<feColorMatrix type="matrix" values="0 0 0 0 0.364706 0 0 0 0 0.447059 0 0 0 0 0.54902 0 0 0 0.1 0"/>
<feBlend mode="normal" in2="effect2_dropShadow_965_6699" result="effect3_dropShadow_965_6699"/>
<feBlend mode="normal" in="SourceGraphic" in2="effect3_dropShadow_965_6699" result="shape"/>
</filter>
<filter id="filter3_ddd_965_6699" x="196" y="415" width="305" height="142" filterUnits="userSpaceOnUse" color-interpolation-filters="sRGB">
<feFlood flood-opacity="0" result="BackgroundImageFix"/>
<feColorMatrix in="SourceAlpha" type="matrix" values="0 0 0 0 0 0 0 0 0 0 0 0 0 0 0 0 0 0 127 0" result="hardAlpha"/>
<feMorphology radius="7" operator="erode" in="SourceAlpha" result="effect1_dropShadow_965_6699"/>
<feOffset dy="11"/>
<feGaussianBlur stdDeviation="7.5"/>
<feColorMatrix type="matrix" values="0 0 0 0 0.364706 0 0 0 0 0.447059 0 0 0 0 0.54902 0 0 0 0.16 0"/>
<feBlend mode="normal" in2="BackgroundImageFix" result="effect1_dropShadow_965_6699"/>
<feColorMatrix in="SourceAlpha" type="matrix" values="0 0 0 0 0 0 0 0 0 0 0 0 0 0 0 0 0 0 127 0" result="hardAlpha"/>
<feMorphology radius="8" operator="dilate" in="SourceAlpha" result="effect2_dropShadow_965_6699"/>
<feOffset dy="9"/>
<feGaussianBlur stdDeviation="23"/>
<feColorMatrix type="matrix" values="0 0 0 0 0.364706 0 0 0 0 0.447059 0 0 0 0 0.54902 0 0 0 0.08 0"/>
<feBlend mode="normal" in2="effect1_dropShadow_965_6699" result="effect2_dropShadow_965_6699"/>
<feColorMatrix in="SourceAlpha" type="matrix" values="0 0 0 0 0 0 0 0 0 0 0 0 0 0 0 0 0 0 127 0" result="hardAlpha"/>
<feMorphology radius="3" operator="dilate" in="SourceAlpha" result="effect3_dropShadow_965_6699"/>
<feOffset dy="24"/>
<feGaussianBlur stdDeviation="19"/>
<feColorMatrix type="matrix" values="0 0 0 0 0.364706 0 0 0 0 0.447059 0 0 0 0 0.54902 0 0 0 0.1 0"/>
<feBlend mode="normal" in2="effect2_dropShadow_965_6699" result="effect3_dropShadow_965_6699"/>
<feBlend mode="normal" in="SourceGraphic" in2="effect3_dropShadow_965_6699" result="shape"/>
</filter>
<radialGradient id="paint0_radial_965_6699" cx="0" cy="0" r="1" gradientUnits="userSpaceOnUse" gradientTransform="translate(349 251.5) rotate(-90) scale(222 222)">
<stop stop-color="#8479FF"/>
<stop offset="1" stop-color="white" stop-opacity="0"/>
</radialGradient>
</defs>
</svg>
