<svg width="691" height="465" viewBox="0 0 691 465" fill="none" xmlns="http://www.w3.org/2000/svg">
<g filter="url(#filter0_d_1004_6798)">
<path d="M625.767 284.9H243.203C225.137 284.9 207.78 276.616 196.091 262.569C184.401 248.162 179.796 229.793 182.984 211.424C205.655 88.9637 311.214 0 434.13 0C557.047 0 662.606 88.9637 685.276 211.424C688.819 229.793 683.86 248.162 672.17 262.569C661.189 276.616 643.832 284.9 625.767 284.9ZM434.485 50.0646C335.301 50.0646 250.287 121.74 231.867 220.428C231.159 225.111 232.93 228.352 234.347 230.153C235.764 231.594 238.598 234.475 243.203 234.475H625.767C630.371 234.475 633.205 231.954 634.622 230.153C636.039 228.712 637.81 225.111 637.102 220.428C618.682 121.74 533.668 50.0646 434.485 50.0646Z" fill="#043344"/>
<g filter="url(#filter1_ddd_1004_6798)">
<rect x="14" y="35" width="624" height="414" rx="9.86631" fill="white"/>
</g>
<g filter="url(#filter2_ddd_1004_6798)">
<rect x="26" y="47" width="192" height="189" rx="5.75535" fill="white"/>
</g>
<path d="M55.0589 160.35C57.5929 160.35 59.2869 158.936 59.2869 156.948C59.2869 152.958 53.0849 154.708 53.0849 152.678C53.0849 151.978 53.8269 151.46 54.9329 151.46C56.1369 151.46 57.0189 152.16 57.0049 153.14H59.0489C59.0489 151.138 57.2989 149.682 54.8769 149.682C52.4689 149.682 50.8029 151.026 50.8029 152.986C50.8029 156.948 56.9909 155.17 56.9909 157.284C56.9909 157.998 56.2909 158.572 55.1289 158.572C53.7849 158.572 52.8189 157.802 52.8189 156.724H50.7049C50.7049 158.824 52.5249 160.35 55.0589 160.35ZM61.1943 157.676C61.1943 159.202 62.1183 160.28 63.5463 160.28C63.9943 160.28 64.5543 160.196 64.9743 160.056L64.9883 158.376C64.7503 158.432 64.4423 158.474 64.2463 158.474C63.6583 158.474 63.2943 158.068 63.2943 157.466V154.428H64.9183V152.832H63.2943V151.026H61.5303L61.2923 152.832H60.1863V154.428H61.1943V157.676ZM72.0302 153.826C71.4702 153.028 70.6162 152.552 69.5942 152.552C67.5782 152.552 66.1642 154.148 66.1642 156.416C66.1642 158.684 67.5782 160.28 69.5942 160.28C70.6162 160.28 71.4702 159.804 72.0302 159.006V160H74.1302V152.832H72.0302V153.826ZM70.1402 158.432C69.0482 158.432 68.2642 157.578 68.2642 156.416C68.2642 155.254 69.0482 154.4 70.1402 154.4C71.2322 154.4 72.0162 155.254 72.0162 156.416C72.0162 157.578 71.2322 158.432 70.1402 158.432ZM80.2591 152.552C79.3351 152.552 78.4951 153.028 77.9911 153.798V152.832H75.9471V160H78.0471V155.968C78.0471 155.058 78.7191 154.4 79.5451 154.4C80.3711 154.4 80.8751 155.016 80.8751 155.884V160H82.9751V155.52C82.9751 153.798 81.8831 152.552 80.2591 152.552ZM90.1021 153.7C89.5421 152.972 88.7161 152.552 87.7361 152.552C85.7481 152.552 84.3341 154.148 84.3341 156.416C84.3341 158.684 85.7481 160.28 87.7361 160.28C88.7441 160.28 89.5701 159.846 90.1301 159.132V160H92.2021V149.612H90.1021V153.7ZM86.4341 156.416C86.4341 155.282 87.2181 154.442 88.3101 154.442C89.4021 154.442 90.1861 155.282 90.1861 156.416C90.1861 157.55 89.4021 158.39 88.3101 158.39C87.2321 158.39 86.4341 157.564 86.4341 156.416ZM99.5653 153.826C99.0053 153.028 98.1513 152.552 97.1293 152.552C95.1133 152.552 93.6993 154.148 93.6993 156.416C93.6993 158.684 95.1133 160.28 97.1293 160.28C98.1513 160.28 99.0053 159.804 99.5653 159.006V160H101.665V152.832H99.5653V153.826ZM97.6753 158.432C96.5833 158.432 95.7993 157.578 95.7993 156.416C95.7993 155.254 96.5833 154.4 97.6753 154.4C98.7673 154.4 99.5513 155.254 99.5513 156.416C99.5513 157.578 98.7673 158.432 97.6753 158.432ZM107.416 152.566C106.618 152.566 105.918 153.028 105.498 153.742V152.832H103.482V160H105.582V156.192C105.582 155.114 106.184 154.344 107.094 154.344C107.402 154.344 107.864 154.442 108.27 154.61V152.748C107.99 152.636 107.696 152.566 107.416 152.566ZM114.93 153.7C114.37 152.972 113.544 152.552 112.564 152.552C110.576 152.552 109.162 154.148 109.162 156.416C109.162 158.684 110.576 160.28 112.564 160.28C113.572 160.28 114.398 159.846 114.958 159.132V160H117.03V149.612H114.93V153.7ZM111.262 156.416C111.262 155.282 112.046 154.442 113.138 154.442C114.23 154.442 115.014 155.282 115.014 156.416C115.014 157.55 114.23 158.39 113.138 158.39C112.06 158.39 111.262 157.564 111.262 156.416ZM125.705 150.032H123.353V160H125.705V150.032ZM132.048 152.552C131.124 152.552 130.284 153.028 129.78 153.798V152.832H127.736V160H129.836V155.968C129.836 155.058 130.508 154.4 131.334 154.4C132.16 154.4 132.664 155.016 132.664 155.884V160H134.764V155.52C134.764 153.798 133.672 152.552 132.048 152.552ZM139.497 160.308C141.485 160.308 142.871 159.23 142.871 157.746C142.857 155.044 138.125 156.178 138.139 154.806C138.139 154.344 138.657 154.008 139.315 154.008C140.155 154.008 140.771 154.414 140.785 155.002H142.633C142.619 153.56 141.233 152.524 139.315 152.524C137.565 152.524 136.249 153.532 136.235 154.932C136.235 157.956 140.841 156.528 140.855 157.97C140.855 158.46 140.295 158.824 139.525 158.824C138.615 158.824 137.943 158.32 137.943 157.606H136.165C136.165 159.174 137.551 160.308 139.497 160.308ZM146.91 160.28C147.848 160.28 148.688 159.804 149.192 159.034V160H151.236V152.832H149.136V156.864C149.136 157.774 148.464 158.432 147.638 158.432C146.812 158.432 146.308 157.816 146.308 156.948V152.832H144.208V157.312C144.208 159.034 145.3 160.28 146.91 160.28ZM156.99 152.566C156.192 152.566 155.492 153.028 155.072 153.742V152.832H153.056V160H155.156V156.192C155.156 155.114 155.758 154.344 156.668 154.344C156.976 154.344 157.438 154.442 157.844 154.61V152.748C157.564 152.636 157.27 152.566 156.99 152.566ZM164.602 153.826C164.042 153.028 163.188 152.552 162.166 152.552C160.15 152.552 158.736 154.148 158.736 156.416C158.736 158.684 160.15 160.28 162.166 160.28C163.188 160.28 164.042 159.804 164.602 159.006V160H166.702V152.832H164.602V153.826ZM162.712 158.432C161.62 158.432 160.836 157.578 160.836 156.416C160.836 155.254 161.62 154.4 162.712 154.4C163.804 154.4 164.588 155.254 164.588 156.416C164.588 157.578 163.804 158.432 162.712 158.432ZM172.831 152.552C171.907 152.552 171.067 153.028 170.563 153.798V152.832H168.519V160H170.619V155.968C170.619 155.058 171.291 154.4 172.117 154.4C172.943 154.4 173.447 155.016 173.447 155.884V160H175.547V155.52C175.547 153.798 174.455 152.552 172.831 152.552ZM184.48 155.394C184.256 153.742 182.688 152.552 180.812 152.552C178.544 152.552 176.906 154.176 176.906 156.416C176.906 158.656 178.558 160.28 180.812 160.28C182.66 160.28 184.228 159.09 184.494 157.438L182.534 157.186C182.338 157.956 181.652 158.516 180.826 158.516C179.79 158.516 179.006 157.634 179.006 156.416C179.006 155.198 179.804 154.316 180.826 154.316C181.624 154.316 182.338 154.876 182.52 155.646L184.48 155.394ZM189.647 158.67C188.695 158.67 187.995 158.012 187.813 157.004L193.427 157.018C193.455 156.864 193.455 156.57 193.455 156.388C193.455 154.12 191.887 152.552 189.591 152.552C187.281 152.552 185.643 154.12 185.643 156.36C185.643 158.67 187.281 160.28 189.591 160.28C191.285 160.28 192.755 159.37 193.133 158.124L191.299 157.718C191.047 158.264 190.403 158.67 189.647 158.67ZM187.799 155.744C187.981 154.792 188.625 154.162 189.549 154.162C190.501 154.162 191.201 154.834 191.327 155.744H187.799Z" fill="#284B64"/>
<path d="M98.8984 176.179C98.0302 176.179 97.2935 176.83 97.1554 177.731L97.892 177.876C97.9644 177.277 98.3919 176.85 98.8984 176.85C99.4312 176.85 99.8127 177.218 99.8127 177.718C99.8127 178.132 99.543 178.428 99.1418 178.731L97.2014 180.184V181H100.49V180.349H98.0367L99.6285 179.185C100.188 178.777 100.576 178.283 100.576 177.659C100.576 176.81 99.8522 176.179 98.8984 176.179ZM101.986 176.343L101.749 178.639H103.045C103.736 178.639 104.143 179.04 104.143 179.592C104.143 180.112 103.729 180.494 103.157 180.494C102.598 180.494 102.164 180.033 102.111 179.395L101.42 179.507C101.493 180.467 102.216 181.164 103.183 181.164C104.183 181.164 104.9 180.507 104.9 179.592C104.9 178.685 104.229 178.02 103.183 178.02H102.492L102.598 176.994H104.525V176.343H101.986ZM108.695 180.329V178.902H110.892V178.297H108.695V177.014H111.155V176.343H107.932V181H111.221V180.329H108.695ZM112.066 181H112.783V179.04C112.783 178.514 113.098 178.159 113.572 178.159C114.032 178.159 114.335 178.514 114.335 179.04V181H115.045V179.04C115.045 178.527 115.381 178.159 115.848 178.159C116.301 178.172 116.624 178.533 116.624 179.04V181H117.334V178.981C117.334 178.132 116.782 177.534 115.999 177.534C115.519 177.534 115.098 177.777 114.868 178.159C114.67 177.777 114.23 177.527 113.717 177.527C113.315 177.527 112.967 177.718 112.756 178.04V177.659H112.066V181ZM118.93 180.546C119.213 180.914 119.64 181.132 120.14 181.132C121.113 181.132 121.817 180.375 121.817 179.329C121.817 178.283 121.107 177.527 120.14 177.527C119.627 177.527 119.193 177.751 118.91 178.126V177.659H118.213V182.513H118.93V180.546ZM121.107 179.329C121.107 179.987 120.64 180.461 120.002 180.461C119.364 180.461 118.903 179.987 118.903 179.329C118.903 178.672 119.364 178.198 120.002 178.198C120.633 178.198 121.107 178.665 121.107 179.329ZM123.317 176.146H122.606V181H123.317V176.146ZM127.724 179.329C127.724 178.27 126.974 177.527 125.908 177.527C124.836 177.527 124.093 178.27 124.093 179.329C124.093 180.388 124.836 181.132 125.908 181.132C126.974 181.132 127.724 180.388 127.724 179.329ZM127.013 179.329C127.013 180.007 126.546 180.5 125.908 180.5C125.264 180.5 124.803 180.007 124.803 179.329C124.803 178.652 125.264 178.159 125.908 178.159C126.546 178.159 127.013 178.652 127.013 179.329ZM128.342 182.375C128.513 182.44 128.737 182.487 128.928 182.487C129.638 182.487 129.928 181.849 130.224 181.079L131.526 177.659H130.783L129.875 180.125L128.829 177.659H128.046L129.553 181.013C129.382 181.428 129.244 181.888 128.783 181.888C128.652 181.888 128.487 181.849 128.342 181.796V182.375ZM133.648 180.533C133.095 180.533 132.674 180.138 132.589 179.546H135.404C135.411 179.474 135.417 179.375 135.417 179.296C135.417 178.264 134.681 177.527 133.641 177.527C132.602 177.527 131.852 178.264 131.852 179.29C131.852 180.362 132.609 181.132 133.661 181.132C134.385 181.132 135.049 180.737 135.246 180.191L134.628 179.987C134.477 180.296 134.076 180.533 133.648 180.533ZM132.589 179.02C132.688 178.487 133.082 178.126 133.622 178.126C134.174 178.126 134.595 178.494 134.674 179.02H132.589ZM137.842 180.533C137.29 180.533 136.869 180.138 136.783 179.546H139.599C139.605 179.474 139.612 179.375 139.612 179.296C139.612 178.264 138.875 177.527 137.836 177.527C136.797 177.527 136.047 178.264 136.047 179.29C136.047 180.362 136.803 181.132 137.856 181.132C138.579 181.132 139.243 180.737 139.441 180.191L138.822 179.987C138.671 180.296 138.27 180.533 137.842 180.533ZM136.783 179.02C136.882 178.487 137.277 178.126 137.816 178.126C138.369 178.126 138.79 178.494 138.869 179.02H136.783ZM141.787 181.138C142.635 181.138 143.241 180.658 143.241 180.007C143.234 178.77 140.984 179.303 140.991 178.573C140.991 178.303 141.294 178.106 141.655 178.106C142.136 178.106 142.484 178.336 142.491 178.665H143.155C143.155 178.001 142.524 177.52 141.662 177.52C140.906 177.52 140.32 177.968 140.32 178.579C140.32 179.954 142.55 179.316 142.557 180.066C142.557 180.349 142.234 180.559 141.787 180.559C141.287 180.559 140.925 180.27 140.925 179.869H140.268C140.268 180.605 140.906 181.138 141.787 181.138Z" fill="#93A5B1"/>
<circle opacity="0.2" cx="122" cy="103" r="32" fill="#4EB1F9"/>
<path fill-rule="evenodd" clip-rule="evenodd" d="M111.345 93.9475C110.808 94.5669 110.377 95.3038 110.055 96.1584C109.753 97.0348 109.603 97.9754 109.603 98.979C109.603 99.7911 109.721 100.613 109.958 101.447C110.216 102.258 110.582 103.086 111.056 103.93C111.528 104.773 112.132 105.613 112.863 106.446C113.574 107.3 114.412 108.155 115.381 109.009C116.414 109.928 117.544 110.815 118.772 111.67C119.999 112.524 121.074 113.197 122 113.688C122.925 113.197 124.001 112.524 125.228 111.67C126.454 110.815 127.585 109.928 128.618 109.009C129.586 108.155 130.425 107.3 131.135 106.446C131.867 105.613 132.469 104.773 132.942 103.93C133.416 103.086 133.783 102.258 134.04 101.447C134.277 100.613 134.395 99.7911 134.395 98.979C134.395 97.9754 134.244 97.0443 133.944 96.1898C133.62 95.3366 133.185 94.5997 132.637 93.979C132.087 93.3596 131.436 92.8687 130.684 92.5051C129.951 92.1632 129.144 91.9923 128.262 91.9923C127.466 91.9923 126.809 92.0402 126.293 92.1373C125.776 92.233 125.26 92.4093 124.743 92.665C124.421 92.8154 124.114 92.9959 123.823 93.2106C123.533 93.4238 123.259 93.67 123 93.9475L122 95.0044L120.999 93.9475C120.741 93.6905 120.47 93.4553 120.192 93.242C119.912 93.0287 119.61 92.8469 119.288 92.6978C118.748 92.4203 118.217 92.233 117.69 92.1373C117.162 92.0402 116.51 91.9923 115.736 91.9923C114.853 91.9923 114.036 92.1632 113.283 92.5051C112.53 92.8469 111.884 93.3281 111.345 93.9475ZM110.636 108.079C109.818 107.098 109.124 106.104 108.553 105.1C107.983 104.095 107.559 103.092 107.278 102.087C106.998 101.061 106.859 100.026 106.859 98.979C106.859 97.6117 107.074 96.3292 107.504 95.1329C107.957 93.9584 108.575 92.933 109.361 92.0566C110.146 91.1802 111.088 90.4965 112.185 90.0057C113.261 89.493 114.445 89.2373 115.736 89.2373C116.704 89.2373 117.554 89.3111 118.288 89.4615C119.018 89.6106 119.76 89.8662 120.515 90.2299C120.773 90.3585 121.026 90.502 121.274 90.662C121.519 90.8233 121.762 90.9888 122 91.1597C122.237 90.9669 122.479 90.7905 122.726 90.6305C122.974 90.4706 123.237 90.3256 123.516 90.1985C124.249 89.8348 124.975 89.5832 125.695 89.4451C126.417 89.3057 127.272 89.2373 128.262 89.2373C129.553 89.2578 130.737 89.5149 131.813 90.0057C132.889 90.5184 133.825 91.213 134.621 92.088C135.417 92.9644 136.041 93.9899 136.493 95.1643C136.924 96.3402 137.139 97.6117 137.139 98.979C137.139 100.026 136.998 101.061 136.719 102.087C136.439 103.092 136.015 104.095 135.445 105.1C134.875 106.104 134.181 107.098 133.362 108.079C132.522 109.084 131.554 110.066 130.456 111.027C129.316 112.054 128.079 113.032 126.745 113.961C125.41 114.89 124.227 115.621 123.194 116.156L122 116.764L120.806 116.156C119.773 115.621 118.587 114.89 117.255 113.961C115.919 113.032 114.681 112.054 113.541 111.027C112.443 110.066 111.475 109.084 110.636 108.079ZM118.184 103.743H114.516C113.755 103.743 113.139 103.131 113.139 102.376C113.139 101.621 113.755 101.009 114.516 101.009H117.321L119.056 97.4579C119.3 96.9561 119.834 96.6498 120.388 96.6895C120.948 96.7277 121.43 97.0996 121.604 97.6288L123.571 103.605L124.498 101.765C124.73 101.301 125.208 101.009 125.73 101.009H129.577C130.337 101.009 130.954 101.621 130.954 102.376C130.954 103.131 130.337 103.743 129.577 103.743H126.581L124.536 107.805C124.302 108.271 123.824 108.561 123.305 108.561C123.27 108.561 123.237 108.56 123.204 108.557C122.645 108.516 122.17 108.146 121.996 107.618L120.046 101.698L119.424 102.972C119.194 103.444 118.712 103.743 118.184 103.743Z" fill="#4EB1F9"/>
<path d="M106.492 202.304H104.54L102.628 208H104.044L104.364 206.968H106.652L106.988 208H108.396L106.492 202.304ZM105.516 203.456L106.38 206H104.652L105.516 203.456ZM113.047 205.368C112.919 204.424 112.023 203.744 110.951 203.744C109.655 203.744 108.719 204.672 108.719 205.952C108.719 207.232 109.663 208.16 110.951 208.16C112.007 208.16 112.903 207.48 113.055 206.536L111.935 206.392C111.823 206.832 111.431 207.152 110.959 207.152C110.367 207.152 109.919 206.648 109.919 205.952C109.919 205.256 110.375 204.752 110.959 204.752C111.415 204.752 111.823 205.072 111.927 205.512L113.047 205.368ZM114.051 206.672C114.051 207.544 114.579 208.16 115.395 208.16C115.651 208.16 115.971 208.112 116.211 208.032L116.219 207.072C116.083 207.104 115.907 207.128 115.795 207.128C115.459 207.128 115.251 206.896 115.251 206.552V204.816H116.179V203.904H115.251V202.872H114.243L114.107 203.904H113.475V204.816H114.051V206.672ZM118.371 203.904H117.171V208H118.371V203.904ZM117.075 202.68C117.075 203.08 117.363 203.36 117.771 203.36C118.179 203.36 118.467 203.08 118.467 202.68C118.467 202.288 118.179 202.008 117.771 202.008C117.363 202.008 117.075 202.288 117.075 202.68ZM120.56 208H122.272L123.704 203.904H122.416L121.416 207.088L120.408 203.904H119.128L120.56 208ZM127.329 204.472C127.009 204.016 126.521 203.744 125.937 203.744C124.785 203.744 123.977 204.656 123.977 205.952C123.977 207.248 124.785 208.16 125.937 208.16C126.521 208.16 127.009 207.888 127.329 207.432V208H128.529V203.904H127.329V204.472ZM126.249 207.104C125.625 207.104 125.177 206.616 125.177 205.952C125.177 205.288 125.625 204.8 126.249 204.8C126.873 204.8 127.321 205.288 127.321 205.952C127.321 206.616 126.873 207.104 126.249 207.104ZM129.879 206.672C129.879 207.544 130.407 208.16 131.223 208.16C131.479 208.16 131.799 208.112 132.039 208.032L132.047 207.072C131.911 207.104 131.735 207.128 131.623 207.128C131.287 207.128 131.079 206.896 131.079 206.552V204.816H132.007V203.904H131.079V202.872H130.071L129.935 203.904H129.303V204.816H129.879V206.672ZM135.007 207.24C134.463 207.24 134.063 206.864 133.959 206.288L137.167 206.296C137.183 206.208 137.183 206.04 137.183 205.936C137.183 204.64 136.287 203.744 134.975 203.744C133.655 203.744 132.719 204.64 132.719 205.92C132.719 207.24 133.655 208.16 134.975 208.16C135.943 208.16 136.783 207.64 136.999 206.928L135.951 206.696C135.807 207.008 135.439 207.24 135.007 207.24ZM133.951 205.568C134.055 205.024 134.423 204.664 134.951 204.664C135.495 204.664 135.895 205.048 135.967 205.568H133.951Z" fill="#A7B5BF"/>
<rect x="79.5" y="192.5" width="81" height="27" rx="13.5" stroke="#BEC9D0"/>
<g filter="url(#filter3_ddd_1004_6798)">
<rect x="26" y="248" width="192" height="189" rx="5.75535" fill="white"/>
</g>
<path d="M80.7201 357.43V355.638H77.1081V353.048H81.5461V351.032H74.7561V361H77.1081V357.43H80.7201ZM84.9853 350.612H82.8853V361H84.9853V350.612ZM89.0637 353.832H86.9637V361H89.0637V353.832ZM86.7957 351.69C86.7957 352.39 87.2997 352.88 88.0137 352.88C88.7277 352.88 89.2317 352.39 89.2317 351.69C89.2317 351.004 88.7277 350.514 88.0137 350.514C87.2997 350.514 86.7957 351.004 86.7957 351.69ZM91.0617 361.882C91.3697 363.408 92.8957 364.5 94.7577 364.5C97.0257 364.5 98.5937 363.142 98.5937 360.916V353.832H96.5077V354.686C95.9477 353.986 95.1357 353.566 94.1277 353.566C92.1537 353.566 90.7257 355.162 90.7257 357.416C90.7257 359.586 92.1537 361.098 94.1277 361.098C95.1217 361.098 95.9337 360.692 96.4937 360.006V360.86C96.4937 362.106 95.7377 362.834 94.6737 362.834C93.8757 362.834 93.1617 362.316 92.9377 361.588L91.0617 361.882ZM94.7017 359.376C93.6097 359.376 92.8257 358.55 92.8257 357.416C92.8257 356.254 93.6097 355.4 94.7017 355.4C95.7937 355.4 96.5777 356.254 96.5777 357.416C96.5777 358.55 95.7937 359.376 94.7017 359.376ZM104.711 353.552C103.843 353.552 102.989 353.944 102.513 354.644V350.612H100.413V361H102.513V356.968C102.513 356.058 103.185 355.4 103.997 355.4C104.837 355.4 105.341 356.016 105.341 356.884V361H107.441V356.464C107.441 354.756 106.349 353.552 104.711 353.552ZM109.668 358.676C109.668 360.202 110.592 361.28 112.02 361.28C112.468 361.28 113.028 361.196 113.448 361.056L113.462 359.376C113.224 359.432 112.916 359.474 112.72 359.474C112.132 359.474 111.768 359.068 111.768 358.466V355.428H113.392V353.832H111.768V352.026H110.004L109.766 353.832H108.66V355.428H109.668V358.676ZM121.549 352.992V361H123.901V352.992H126.897V351.032H118.553V352.992H121.549ZM130.312 353.832H128.212V361H130.312V353.832ZM128.044 351.69C128.044 352.39 128.548 352.88 129.262 352.88C129.976 352.88 130.48 352.39 130.48 351.69C130.48 351.004 129.976 350.514 129.262 350.514C128.548 350.514 128.044 351.004 128.044 351.69ZM139.548 356.394C139.324 354.742 137.756 353.552 135.88 353.552C133.612 353.552 131.974 355.176 131.974 357.416C131.974 359.656 133.626 361.28 135.88 361.28C137.728 361.28 139.296 360.09 139.562 358.438L137.602 358.186C137.406 358.956 136.72 359.516 135.894 359.516C134.858 359.516 134.074 358.634 134.074 357.416C134.074 356.198 134.872 355.316 135.894 355.316C136.692 355.316 137.406 355.876 137.588 356.646L139.548 356.394ZM141.032 350.612V361H143.132V357.92L145.638 361H148.186L144.994 357.192L148.102 353.832H145.554L143.132 356.478V350.612H141.032ZM152.521 359.67C151.569 359.67 150.869 359.012 150.687 358.004L156.301 358.018C156.329 357.864 156.329 357.57 156.329 357.388C156.329 355.12 154.761 353.552 152.465 353.552C150.155 353.552 148.517 355.12 148.517 357.36C148.517 359.67 150.155 361.28 152.465 361.28C154.159 361.28 155.629 360.37 156.007 359.124L154.173 358.718C153.921 359.264 153.277 359.67 152.521 359.67ZM150.673 356.744C150.855 355.792 151.499 355.162 152.423 355.162C153.375 355.162 154.075 355.834 154.201 356.744H150.673ZM158.094 358.676C158.094 360.202 159.018 361.28 160.446 361.28C160.894 361.28 161.454 361.196 161.874 361.056L161.888 359.376C161.65 359.432 161.342 359.474 161.146 359.474C160.558 359.474 160.194 359.068 160.194 358.466V355.428H161.818V353.832H160.194V352.026H158.43L158.192 353.832H157.086V355.428H158.094V358.676ZM166.438 361.308C168.426 361.308 169.812 360.23 169.812 358.746C169.798 356.044 165.066 357.178 165.08 355.806C165.08 355.344 165.598 355.008 166.256 355.008C167.096 355.008 167.712 355.414 167.726 356.002H169.574C169.56 354.56 168.174 353.524 166.256 353.524C164.506 353.524 163.19 354.532 163.176 355.932C163.176 358.956 167.782 357.528 167.796 358.97C167.796 359.46 167.236 359.824 166.466 359.824C165.556 359.824 164.884 359.32 164.884 358.606H163.106C163.106 360.174 164.492 361.308 166.438 361.308Z" fill="#284B64"/>
<path d="M98.8984 377.179C98.0302 377.179 97.2935 377.83 97.1554 378.731L97.892 378.876C97.9644 378.277 98.3919 377.85 98.8984 377.85C99.4312 377.85 99.8127 378.218 99.8127 378.718C99.8127 379.132 99.543 379.428 99.1418 379.731L97.2014 381.184V382H100.49V381.349H98.0367L99.6285 380.185C100.188 379.777 100.576 379.283 100.576 378.659C100.576 377.81 99.8522 377.179 98.8984 377.179ZM101.986 377.343L101.749 379.639H103.045C103.736 379.639 104.143 380.04 104.143 380.592C104.143 381.112 103.729 381.494 103.157 381.494C102.598 381.494 102.164 381.033 102.111 380.395L101.42 380.507C101.493 381.467 102.216 382.164 103.183 382.164C104.183 382.164 104.9 381.507 104.9 380.592C104.9 379.685 104.229 379.02 103.183 379.02H102.492L102.598 377.994H104.525V377.343H101.986ZM108.695 381.329V379.902H110.892V379.297H108.695V378.014H111.155V377.343H107.932V382H111.221V381.329H108.695ZM112.066 382H112.783V380.04C112.783 379.514 113.098 379.159 113.572 379.159C114.032 379.159 114.335 379.514 114.335 380.04V382H115.045V380.04C115.045 379.527 115.381 379.159 115.848 379.159C116.301 379.172 116.624 379.533 116.624 380.04V382H117.334V379.981C117.334 379.132 116.782 378.534 115.999 378.534C115.519 378.534 115.098 378.777 114.868 379.159C114.67 378.777 114.23 378.527 113.717 378.527C113.315 378.527 112.967 378.718 112.756 379.04V378.659H112.066V382ZM118.93 381.546C119.213 381.914 119.64 382.132 120.14 382.132C121.113 382.132 121.817 381.375 121.817 380.329C121.817 379.283 121.107 378.527 120.14 378.527C119.627 378.527 119.193 378.751 118.91 379.126V378.659H118.213V383.513H118.93V381.546ZM121.107 380.329C121.107 380.987 120.64 381.461 120.002 381.461C119.364 381.461 118.903 380.987 118.903 380.329C118.903 379.672 119.364 379.198 120.002 379.198C120.633 379.198 121.107 379.665 121.107 380.329ZM123.317 377.146H122.606V382H123.317V377.146ZM127.724 380.329C127.724 379.27 126.974 378.527 125.908 378.527C124.836 378.527 124.093 379.27 124.093 380.329C124.093 381.388 124.836 382.132 125.908 382.132C126.974 382.132 127.724 381.388 127.724 380.329ZM127.013 380.329C127.013 381.007 126.546 381.5 125.908 381.5C125.264 381.5 124.803 381.007 124.803 380.329C124.803 379.652 125.264 379.159 125.908 379.159C126.546 379.159 127.013 379.652 127.013 380.329ZM128.342 383.375C128.513 383.44 128.737 383.487 128.928 383.487C129.638 383.487 129.928 382.849 130.224 382.079L131.526 378.659H130.783L129.875 381.125L128.829 378.659H128.046L129.553 382.013C129.382 382.428 129.244 382.888 128.783 382.888C128.652 382.888 128.487 382.849 128.342 382.796V383.375ZM133.648 381.533C133.095 381.533 132.674 381.138 132.589 380.546H135.404C135.411 380.474 135.417 380.375 135.417 380.296C135.417 379.264 134.681 378.527 133.641 378.527C132.602 378.527 131.852 379.264 131.852 380.29C131.852 381.362 132.609 382.132 133.661 382.132C134.385 382.132 135.049 381.737 135.246 381.191L134.628 380.987C134.477 381.296 134.076 381.533 133.648 381.533ZM132.589 380.02C132.688 379.487 133.082 379.126 133.622 379.126C134.174 379.126 134.595 379.494 134.674 380.02H132.589ZM137.842 381.533C137.29 381.533 136.869 381.138 136.783 380.546H139.599C139.605 380.474 139.612 380.375 139.612 380.296C139.612 379.264 138.875 378.527 137.836 378.527C136.797 378.527 136.047 379.264 136.047 380.29C136.047 381.362 136.803 382.132 137.856 382.132C138.579 382.132 139.243 381.737 139.441 381.191L138.822 380.987C138.671 381.296 138.27 381.533 137.842 381.533ZM136.783 380.02C136.882 379.487 137.277 379.126 137.816 379.126C138.369 379.126 138.79 379.494 138.869 380.02H136.783ZM141.787 382.138C142.635 382.138 143.241 381.658 143.241 381.007C143.234 379.77 140.984 380.303 140.991 379.573C140.991 379.303 141.294 379.106 141.655 379.106C142.136 379.106 142.484 379.336 142.491 379.665H143.155C143.155 379.001 142.524 378.52 141.662 378.52C140.906 378.52 140.32 378.968 140.32 379.579C140.32 380.954 142.55 380.316 142.557 381.066C142.557 381.349 142.234 381.559 141.787 381.559C141.287 381.559 140.925 381.27 140.925 380.869H140.268C140.268 381.605 140.906 382.138 141.787 382.138Z" fill="#93A5B1"/>
<circle opacity="0.2" cx="122" cy="304" r="32" fill="#FFA150"/>
<path fill-rule="evenodd" clip-rule="evenodd" d="M133.01 306.36V292.006C133.01 290.224 131.633 288.86 129.834 288.86H114.164C112.365 288.86 110.988 290.224 110.988 292.006V306.36V309.505C111.739 309.505 112.35 310.107 112.364 310.854V310.909C112.35 311.657 111.739 312.258 110.988 312.258V312.651V315.994C110.988 317.777 112.365 319.14 114.164 319.14H129.834C131.633 319.14 133.01 317.777 133.01 315.994V312.651V312.258C132.25 312.258 131.634 311.642 131.634 310.882C131.634 310.122 132.25 309.506 133.01 309.505V306.36ZM113.736 312.258V315.391C113.736 315.989 114.129 316.387 114.719 316.387H129.27C129.86 316.387 130.253 315.989 130.253 315.391V312.258H128.88V309.505H130.253V292.609C130.253 292.011 129.86 291.613 129.27 291.613H114.719C114.129 291.613 113.736 292.011 113.736 292.609V309.505H115.117V312.258H113.736ZM116.494 312.258H119.246V309.505H116.494V312.258ZM120.622 312.258H123.375V309.505H120.622V312.258ZM127.504 312.258H124.752V309.505H127.504V312.258ZM126.709 297.029C127.213 296.524 127.512 295.917 127.504 295.417C127.5 295.123 127.403 294.846 127.215 294.656C127.025 294.468 126.747 294.371 126.454 294.366C125.954 294.358 125.349 294.655 124.845 295.157C124.092 295.835 123.826 296.118 123.112 296.886L117.535 295.775L116.494 296.817L120.97 299.055L118.602 301.841C118.246 301.731 117.808 301.633 117.496 301.695C117.34 301.726 117.212 301.795 117.124 301.905C117.046 302.003 116.996 302.135 116.996 302.316C116.996 302.487 117.038 302.663 117.182 302.865L119.005 304.688C119.207 304.832 119.383 304.874 119.554 304.874C119.735 304.874 119.868 304.824 119.965 304.746C120.075 304.658 120.144 304.53 120.175 304.374C120.237 304.062 120.139 303.624 120.029 303.268L122.815 300.9L125.053 305.376L126.095 304.335L124.984 298.758C125.75 298.045 126.032 297.781 126.709 297.029Z" fill="#FFA150"/>
<rect x="79" y="393" width="82" height="28" rx="14" fill="#62D26F"/>
<path d="M106.492 403.304H104.54L102.628 409H104.044L104.364 407.968H106.652L106.988 409H108.396L106.492 403.304ZM105.516 404.456L106.38 407H104.652L105.516 404.456ZM113.047 406.368C112.919 405.424 112.023 404.744 110.951 404.744C109.655 404.744 108.719 405.672 108.719 406.952C108.719 408.232 109.663 409.16 110.951 409.16C112.007 409.16 112.903 408.48 113.055 407.536L111.935 407.392C111.823 407.832 111.431 408.152 110.959 408.152C110.367 408.152 109.919 407.648 109.919 406.952C109.919 406.256 110.375 405.752 110.959 405.752C111.415 405.752 111.823 406.072 111.927 406.512L113.047 406.368ZM114.051 407.672C114.051 408.544 114.579 409.16 115.395 409.16C115.651 409.16 115.971 409.112 116.211 409.032L116.219 408.072C116.083 408.104 115.907 408.128 115.795 408.128C115.459 408.128 115.251 407.896 115.251 407.552V405.816H116.179V404.904H115.251V403.872H114.243L114.107 404.904H113.475V405.816H114.051V407.672ZM118.371 404.904H117.171V409H118.371V404.904ZM117.075 403.68C117.075 404.08 117.363 404.36 117.771 404.36C118.179 404.36 118.467 404.08 118.467 403.68C118.467 403.288 118.179 403.008 117.771 403.008C117.363 403.008 117.075 403.288 117.075 403.68ZM120.56 409H122.272L123.704 404.904H122.416L121.416 408.088L120.408 404.904H119.128L120.56 409ZM127.329 405.472C127.009 405.016 126.521 404.744 125.937 404.744C124.785 404.744 123.977 405.656 123.977 406.952C123.977 408.248 124.785 409.16 125.937 409.16C126.521 409.16 127.009 408.888 127.329 408.432V409H128.529V404.904H127.329V405.472ZM126.249 408.104C125.625 408.104 125.177 407.616 125.177 406.952C125.177 406.288 125.625 405.8 126.249 405.8C126.873 405.8 127.321 406.288 127.321 406.952C127.321 407.616 126.873 408.104 126.249 408.104ZM129.879 407.672C129.879 408.544 130.407 409.16 131.223 409.16C131.479 409.16 131.799 409.112 132.039 409.032L132.047 408.072C131.911 408.104 131.735 408.128 131.623 408.128C131.287 408.128 131.079 407.896 131.079 407.552V405.816H132.007V404.904H131.079V403.872H130.071L129.935 404.904H129.303V405.816H129.879V407.672ZM135.007 408.24C134.463 408.24 134.063 407.864 133.959 407.288L137.167 407.296C137.183 407.208 137.183 407.04 137.183 406.936C137.183 405.64 136.287 404.744 134.975 404.744C133.655 404.744 132.719 405.64 132.719 406.92C132.719 408.24 133.655 409.16 134.975 409.16C135.943 409.16 136.783 408.64 136.999 407.928L135.951 407.696C135.807 408.008 135.439 408.24 135.007 408.24ZM133.951 406.568C134.055 406.024 134.423 405.664 134.951 405.664C135.495 405.664 135.895 406.048 135.967 406.568H133.951Z" fill="white"/>
<g filter="url(#filter4_ddd_1004_6798)">
<rect x="434" y="47" width="192" height="189" rx="5.75535" fill="white"/>
</g>
<path d="M466.219 160V152.874L468.963 160H470.727L473.485 152.874V160H475.781V150.032H472.631L469.845 157.326L467.031 150.032H463.923V160H466.219ZM481.504 158.67C480.552 158.67 479.852 158.012 479.67 157.004L485.284 157.018C485.312 156.864 485.312 156.57 485.312 156.388C485.312 154.12 483.744 152.552 481.448 152.552C479.138 152.552 477.5 154.12 477.5 156.36C477.5 158.67 479.138 160.28 481.448 160.28C483.142 160.28 484.612 159.37 484.99 158.124L483.156 157.718C482.904 158.264 482.26 158.67 481.504 158.67ZM479.656 155.744C479.838 154.792 480.482 154.162 481.406 154.162C482.358 154.162 483.058 154.834 483.184 155.744H479.656ZM492.251 153.7C491.691 152.972 490.865 152.552 489.885 152.552C487.897 152.552 486.483 154.148 486.483 156.416C486.483 158.684 487.897 160.28 489.885 160.28C490.893 160.28 491.719 159.846 492.279 159.132V160H494.351V149.612H492.251V153.7ZM488.583 156.416C488.583 155.282 489.367 154.442 490.459 154.442C491.551 154.442 492.335 155.282 492.335 156.416C492.335 157.55 491.551 158.39 490.459 158.39C489.381 158.39 488.583 157.564 488.583 156.416ZM498.438 152.832H496.338V160H498.438V152.832ZM496.17 150.69C496.17 151.39 496.674 151.88 497.388 151.88C498.102 151.88 498.606 151.39 498.606 150.69C498.606 150.004 498.102 149.514 497.388 149.514C496.674 149.514 496.17 150.004 496.17 150.69ZM507.674 155.394C507.45 153.742 505.882 152.552 504.006 152.552C501.738 152.552 500.1 154.176 500.1 156.416C500.1 158.656 501.752 160.28 504.006 160.28C505.854 160.28 507.422 159.09 507.688 157.438L505.728 157.186C505.532 157.956 504.846 158.516 504.02 158.516C502.984 158.516 502.2 157.634 502.2 156.416C502.2 155.198 502.998 154.316 504.02 154.316C504.818 154.316 505.532 154.876 505.714 155.646L507.674 155.394ZM514.702 153.826C514.142 153.028 513.288 152.552 512.266 152.552C510.25 152.552 508.836 154.148 508.836 156.416C508.836 158.684 510.25 160.28 512.266 160.28C513.288 160.28 514.142 159.804 514.702 159.006V160H516.802V152.832H514.702V153.826ZM512.812 158.432C511.72 158.432 510.936 157.578 510.936 156.416C510.936 155.254 511.72 154.4 512.812 154.4C513.904 154.4 514.688 155.254 514.688 156.416C514.688 157.578 513.904 158.432 512.812 158.432ZM520.705 149.612H518.605V160H520.705V149.612ZM534.635 156.29C534.327 157.466 533.193 158.334 531.933 158.334C530.169 158.334 528.909 156.962 528.909 155.016C528.909 153.07 530.155 151.698 531.933 151.698C533.221 151.698 534.341 152.58 534.621 153.812L536.819 153.56C536.469 151.306 534.397 149.682 531.877 149.682C528.797 149.682 526.557 151.922 526.557 155.016C526.557 158.11 528.797 160.35 531.877 160.35C534.425 160.35 536.497 158.768 536.833 156.57L534.635 156.29ZM546.046 156.416C546.046 154.134 544.422 152.552 542.056 152.552C539.704 152.552 538.08 154.134 538.08 156.416C538.08 158.698 539.704 160.28 542.056 160.28C544.422 160.28 546.046 158.698 546.046 156.416ZM543.946 156.416C543.946 157.592 543.162 158.432 542.056 158.432C540.964 158.432 540.18 157.592 540.18 156.416C540.18 155.24 540.964 154.4 542.056 154.4C543.162 154.4 543.946 155.24 543.946 156.416ZM549.028 160H552.024L554.53 152.832H552.276L550.526 158.404L548.762 152.832H546.522L549.028 160ZM559.01 158.67C558.058 158.67 557.358 158.012 557.176 157.004L562.79 157.018C562.818 156.864 562.818 156.57 562.818 156.388C562.818 154.12 561.25 152.552 558.954 152.552C556.644 152.552 555.006 154.12 555.006 156.36C555.006 158.67 556.644 160.28 558.954 160.28C560.648 160.28 562.118 159.37 562.496 158.124L560.662 157.718C560.41 158.264 559.766 158.67 559.01 158.67ZM557.162 155.744C557.344 154.792 557.988 154.162 558.912 154.162C559.864 154.162 560.564 154.834 560.69 155.744H557.162ZM568.244 152.566C567.446 152.566 566.746 153.028 566.326 153.742V152.832H564.31V160H566.41V156.192C566.41 155.114 567.012 154.344 567.922 154.344C568.23 154.344 568.692 154.442 569.098 154.61V152.748C568.818 152.636 568.524 152.566 568.244 152.566ZM575.856 153.826C575.296 153.028 574.442 152.552 573.42 152.552C571.404 152.552 569.99 154.148 569.99 156.416C569.99 158.684 571.404 160.28 573.42 160.28C574.442 160.28 575.296 159.804 575.856 159.006V160H577.956V152.832H575.856V153.826ZM573.966 158.432C572.874 158.432 572.09 157.578 572.09 156.416C572.09 155.254 572.874 154.4 573.966 154.4C575.058 154.4 575.842 155.254 575.842 156.416C575.842 157.578 575.058 158.432 573.966 158.432ZM579.787 160.882C580.095 162.408 581.621 163.5 583.483 163.5C585.751 163.5 587.319 162.142 587.319 159.916V152.832H585.233V153.686C584.673 152.986 583.861 152.566 582.853 152.566C580.879 152.566 579.451 154.162 579.451 156.416C579.451 158.586 580.879 160.098 582.853 160.098C583.847 160.098 584.659 159.692 585.219 159.006V159.86C585.219 161.106 584.463 161.834 583.399 161.834C582.601 161.834 581.887 161.316 581.663 160.588L579.787 160.882ZM583.427 158.376C582.335 158.376 581.551 157.55 581.551 156.416C581.551 155.254 582.335 154.4 583.427 154.4C584.519 154.4 585.303 155.254 585.303 156.416C585.303 157.55 584.519 158.376 583.427 158.376ZM592.821 158.67C591.869 158.67 591.169 158.012 590.987 157.004L596.601 157.018C596.629 156.864 596.629 156.57 596.629 156.388C596.629 154.12 595.061 152.552 592.765 152.552C590.455 152.552 588.817 154.12 588.817 156.36C588.817 158.67 590.455 160.28 592.765 160.28C594.459 160.28 595.929 159.37 596.307 158.124L594.473 157.718C594.221 158.264 593.577 158.67 592.821 158.67ZM590.973 155.744C591.155 154.792 591.799 154.162 592.723 154.162C593.675 154.162 594.375 154.834 594.501 155.744H590.973Z" fill="#284B64"/>
<path d="M506.898 176.179C506.03 176.179 505.293 176.83 505.155 177.731L505.892 177.876C505.964 177.277 506.392 176.85 506.898 176.85C507.431 176.85 507.813 177.218 507.813 177.718C507.813 178.132 507.543 178.428 507.142 178.731L505.201 180.184V181H508.49V180.349H506.037L507.629 179.185C508.188 178.777 508.576 178.283 508.576 177.659C508.576 176.81 507.852 176.179 506.898 176.179ZM509.986 176.343L509.749 178.639H511.045C511.736 178.639 512.143 179.04 512.143 179.592C512.143 180.112 511.729 180.494 511.157 180.494C510.598 180.494 510.164 180.033 510.111 179.395L509.42 179.507C509.493 180.467 510.216 181.164 511.183 181.164C512.183 181.164 512.9 180.507 512.9 179.592C512.9 178.685 512.229 178.02 511.183 178.02H510.492L510.598 176.994H512.525V176.343H509.986ZM516.695 180.329V178.902H518.892V178.297H516.695V177.014H519.155V176.343H515.932V181H519.221V180.329H516.695ZM520.066 181H520.783V179.04C520.783 178.514 521.098 178.159 521.572 178.159C522.032 178.159 522.335 178.514 522.335 179.04V181H523.045V179.04C523.045 178.527 523.381 178.159 523.848 178.159C524.301 178.172 524.624 178.533 524.624 179.04V181H525.334V178.981C525.334 178.132 524.782 177.534 523.999 177.534C523.519 177.534 523.098 177.777 522.868 178.159C522.67 177.777 522.23 177.527 521.717 177.527C521.315 177.527 520.967 177.718 520.756 178.04V177.659H520.066V181ZM526.93 180.546C527.213 180.914 527.64 181.132 528.14 181.132C529.113 181.132 529.817 180.375 529.817 179.329C529.817 178.283 529.107 177.527 528.14 177.527C527.627 177.527 527.193 177.751 526.91 178.126V177.659H526.213V182.513H526.93V180.546ZM529.107 179.329C529.107 179.987 528.64 180.461 528.002 180.461C527.364 180.461 526.903 179.987 526.903 179.329C526.903 178.672 527.364 178.198 528.002 178.198C528.633 178.198 529.107 178.665 529.107 179.329ZM531.317 176.146H530.606V181H531.317V176.146ZM535.724 179.329C535.724 178.27 534.974 177.527 533.908 177.527C532.836 177.527 532.093 178.27 532.093 179.329C532.093 180.388 532.836 181.132 533.908 181.132C534.974 181.132 535.724 180.388 535.724 179.329ZM535.013 179.329C535.013 180.007 534.546 180.5 533.908 180.5C533.264 180.5 532.803 180.007 532.803 179.329C532.803 178.652 533.264 178.159 533.908 178.159C534.546 178.159 535.013 178.652 535.013 179.329ZM536.342 182.375C536.513 182.44 536.737 182.487 536.928 182.487C537.638 182.487 537.928 181.849 538.224 181.079L539.526 177.659H538.783L537.875 180.125L536.829 177.659H536.046L537.553 181.013C537.382 181.428 537.244 181.888 536.783 181.888C536.652 181.888 536.487 181.849 536.342 181.796V182.375ZM541.648 180.533C541.095 180.533 540.674 180.138 540.589 179.546H543.404C543.411 179.474 543.417 179.375 543.417 179.296C543.417 178.264 542.681 177.527 541.641 177.527C540.602 177.527 539.852 178.264 539.852 179.29C539.852 180.362 540.609 181.132 541.661 181.132C542.385 181.132 543.049 180.737 543.246 180.191L542.628 179.987C542.477 180.296 542.076 180.533 541.648 180.533ZM540.589 179.02C540.688 178.487 541.082 178.126 541.622 178.126C542.174 178.126 542.595 178.494 542.674 179.02H540.589ZM545.842 180.533C545.29 180.533 544.869 180.138 544.783 179.546H547.599C547.605 179.474 547.612 179.375 547.612 179.296C547.612 178.264 546.875 177.527 545.836 177.527C544.797 177.527 544.047 178.264 544.047 179.29C544.047 180.362 544.803 181.132 545.856 181.132C546.579 181.132 547.243 180.737 547.441 180.191L546.822 179.987C546.671 180.296 546.27 180.533 545.842 180.533ZM544.783 179.02C544.882 178.487 545.277 178.126 545.816 178.126C546.369 178.126 546.79 178.494 546.869 179.02H544.783ZM549.787 181.138C550.635 181.138 551.241 180.658 551.241 180.007C551.234 178.77 548.984 179.303 548.991 178.573C548.991 178.303 549.294 178.106 549.655 178.106C550.136 178.106 550.484 178.336 550.491 178.665H551.155C551.155 178.001 550.524 177.52 549.662 177.52C548.906 177.52 548.32 177.968 548.32 178.579C548.32 179.954 550.55 179.316 550.557 180.066C550.557 180.349 550.234 180.559 549.787 180.559C549.287 180.559 548.925 180.27 548.925 179.869H548.268C548.268 180.605 548.906 181.138 549.787 181.138Z" fill="#93A5B1"/>
<circle opacity="0.2" cx="530" cy="103" r="32" fill="#4EB1F9"/>
<path fill-rule="evenodd" clip-rule="evenodd" d="M519.345 93.9475C518.808 94.5669 518.377 95.3038 518.055 96.1584C517.753 97.0348 517.603 97.9754 517.603 98.979C517.603 99.7911 517.721 100.613 517.958 101.447C518.216 102.258 518.582 103.086 519.056 103.93C519.528 104.773 520.132 105.613 520.863 106.446C521.574 107.3 522.412 108.155 523.381 109.009C524.414 109.928 525.544 110.815 526.772 111.67C527.999 112.524 529.074 113.197 530 113.688C530.925 113.197 532.001 112.524 533.228 111.67C534.454 110.815 535.585 109.928 536.618 109.009C537.586 108.155 538.425 107.3 539.135 106.446C539.867 105.613 540.469 104.773 540.942 103.93C541.416 103.086 541.783 102.258 542.04 101.447C542.277 100.613 542.395 99.7911 542.395 98.979C542.395 97.9754 542.244 97.0443 541.944 96.1898C541.62 95.3366 541.185 94.5997 540.637 93.979C540.087 93.3596 539.436 92.8687 538.684 92.5051C537.951 92.1632 537.144 91.9923 536.262 91.9923C535.466 91.9923 534.809 92.0402 534.293 92.1373C533.776 92.233 533.26 92.4093 532.743 92.665C532.421 92.8154 532.114 92.9959 531.823 93.2106C531.533 93.4238 531.259 93.67 531 93.9475L530 95.0044L528.999 93.9475C528.741 93.6905 528.47 93.4553 528.192 93.242C527.912 93.0287 527.61 92.8469 527.288 92.6978C526.748 92.4203 526.217 92.233 525.69 92.1373C525.162 92.0402 524.51 91.9923 523.736 91.9923C522.853 91.9923 522.036 92.1632 521.283 92.5051C520.53 92.8469 519.884 93.3281 519.345 93.9475ZM518.636 108.079C517.818 107.098 517.124 106.104 516.553 105.1C515.983 104.095 515.559 103.092 515.278 102.087C514.998 101.061 514.859 100.026 514.859 98.979C514.859 97.6117 515.074 96.3292 515.504 95.1329C515.957 93.9584 516.575 92.933 517.361 92.0566C518.146 91.1802 519.088 90.4965 520.185 90.0057C521.261 89.493 522.445 89.2373 523.736 89.2373C524.704 89.2373 525.554 89.3111 526.288 89.4615C527.018 89.6106 527.76 89.8662 528.515 90.2299C528.773 90.3585 529.026 90.502 529.274 90.662C529.519 90.8233 529.762 90.9888 530 91.1597C530.237 90.9669 530.479 90.7905 530.726 90.6305C530.974 90.4706 531.237 90.3256 531.516 90.1985C532.249 89.8348 532.975 89.5832 533.695 89.4451C534.417 89.3057 535.272 89.2373 536.262 89.2373C537.553 89.2578 538.737 89.5149 539.813 90.0057C540.889 90.5184 541.825 91.213 542.621 92.088C543.417 92.9644 544.041 93.9899 544.493 95.1643C544.924 96.3402 545.139 97.6117 545.139 98.979C545.139 100.026 544.998 101.061 544.719 102.087C544.439 103.092 544.015 104.095 543.445 105.1C542.875 106.104 542.181 107.098 541.362 108.079C540.522 109.084 539.554 110.066 538.456 111.027C537.316 112.054 536.079 113.032 534.745 113.961C533.41 114.89 532.227 115.621 531.194 116.156L530 116.764L528.806 116.156C527.773 115.621 526.587 114.89 525.255 113.961C523.919 113.032 522.681 112.054 521.541 111.027C520.443 110.066 519.475 109.084 518.636 108.079ZM526.184 103.743H522.516C521.755 103.743 521.139 103.131 521.139 102.376C521.139 101.621 521.755 101.009 522.516 101.009H525.321L527.056 97.4579C527.3 96.9561 527.834 96.6498 528.388 96.6895C528.948 96.7277 529.43 97.0996 529.604 97.6288L531.571 103.605L532.498 101.765C532.73 101.301 533.208 101.009 533.73 101.009H537.577C538.337 101.009 538.954 101.621 538.954 102.376C538.954 103.131 538.337 103.743 537.577 103.743H534.581L532.536 107.805C532.302 108.271 531.824 108.561 531.305 108.561C531.27 108.561 531.237 108.56 531.204 108.557C530.645 108.516 530.17 108.146 529.996 107.618L528.046 101.698L527.424 102.972C527.194 103.444 526.712 103.743 526.184 103.743Z" fill="#4EB1F9"/>
<rect x="487" y="192" width="82" height="28" rx="14" fill="#62D26F"/>
<path d="M514.492 202.304H512.54L510.628 208H512.044L512.364 206.968H514.652L514.988 208H516.396L514.492 202.304ZM513.516 203.456L514.38 206H512.652L513.516 203.456ZM521.047 205.368C520.919 204.424 520.023 203.744 518.951 203.744C517.655 203.744 516.719 204.672 516.719 205.952C516.719 207.232 517.663 208.16 518.951 208.16C520.007 208.16 520.903 207.48 521.055 206.536L519.935 206.392C519.823 206.832 519.431 207.152 518.959 207.152C518.367 207.152 517.919 206.648 517.919 205.952C517.919 205.256 518.375 204.752 518.959 204.752C519.415 204.752 519.823 205.072 519.927 205.512L521.047 205.368ZM522.051 206.672C522.051 207.544 522.579 208.16 523.395 208.16C523.651 208.16 523.971 208.112 524.211 208.032L524.219 207.072C524.083 207.104 523.907 207.128 523.795 207.128C523.459 207.128 523.251 206.896 523.251 206.552V204.816H524.179V203.904H523.251V202.872H522.243L522.107 203.904H521.475V204.816H522.051V206.672ZM526.371 203.904H525.171V208H526.371V203.904ZM525.075 202.68C525.075 203.08 525.363 203.36 525.771 203.36C526.179 203.36 526.467 203.08 526.467 202.68C526.467 202.288 526.179 202.008 525.771 202.008C525.363 202.008 525.075 202.288 525.075 202.68ZM528.56 208H530.272L531.704 203.904H530.416L529.416 207.088L528.408 203.904H527.128L528.56 208ZM535.329 204.472C535.009 204.016 534.521 203.744 533.937 203.744C532.785 203.744 531.977 204.656 531.977 205.952C531.977 207.248 532.785 208.16 533.937 208.16C534.521 208.16 535.009 207.888 535.329 207.432V208H536.529V203.904H535.329V204.472ZM534.249 207.104C533.625 207.104 533.177 206.616 533.177 205.952C533.177 205.288 533.625 204.8 534.249 204.8C534.873 204.8 535.321 205.288 535.321 205.952C535.321 206.616 534.873 207.104 534.249 207.104ZM537.879 206.672C537.879 207.544 538.407 208.16 539.223 208.16C539.479 208.16 539.799 208.112 540.039 208.032L540.047 207.072C539.911 207.104 539.735 207.128 539.623 207.128C539.287 207.128 539.079 206.896 539.079 206.552V204.816H540.007V203.904H539.079V202.872H538.071L537.935 203.904H537.303V204.816H537.879V206.672ZM543.007 207.24C542.463 207.24 542.063 206.864 541.959 206.288L545.167 206.296C545.183 206.208 545.183 206.04 545.183 205.936C545.183 204.64 544.287 203.744 542.975 203.744C541.655 203.744 540.719 204.64 540.719 205.92C540.719 207.24 541.655 208.16 542.975 208.16C543.943 208.16 544.783 207.64 544.999 206.928L543.951 206.696C543.807 207.008 543.439 207.24 543.007 207.24ZM541.951 205.568C542.055 205.024 542.423 204.664 542.951 204.664C543.495 204.664 543.895 205.048 543.967 205.568H541.951Z" fill="white"/>
<g filter="url(#filter5_ddd_1004_6798)">
<rect x="230" y="248" width="192" height="189" rx="5.75535" fill="white"/>
</g>
<path d="M280.685 361C282.827 361 284.325 359.908 284.325 358.27C284.325 357.094 283.625 356.156 282.603 355.904C283.457 355.666 284.045 354.826 284.045 353.776C284.045 352.194 282.589 351.032 280.517 351.032H275.687V361H280.685ZM280.209 356.716C281.203 356.716 281.917 357.234 281.917 357.99C281.917 358.704 281.203 359.222 280.209 359.222H278.039V356.716H280.209ZM280.097 352.81C280.993 352.81 281.637 353.286 281.637 353.972C281.637 354.644 280.993 355.12 280.097 355.12H278.039V352.81H280.097ZM288.299 353.832H286.199V361H288.299V353.832ZM286.031 351.69C286.031 352.39 286.535 352.88 287.249 352.88C287.963 352.88 288.467 352.39 288.467 351.69C288.467 351.004 287.963 350.514 287.249 350.514C286.535 350.514 286.031 351.004 286.031 351.69ZM294.217 353.566C293.419 353.566 292.719 354.028 292.299 354.742V353.832H290.283V361H292.383V357.192C292.383 356.114 292.985 355.344 293.895 355.344C294.203 355.344 294.665 355.442 295.071 355.61V353.748C294.791 353.636 294.497 353.566 294.217 353.566ZM296.831 358.676C296.831 360.202 297.755 361.28 299.183 361.28C299.631 361.28 300.191 361.196 300.611 361.056L300.625 359.376C300.387 359.432 300.079 359.474 299.883 359.474C299.295 359.474 298.931 359.068 298.931 358.466V355.428H300.555V353.832H298.931V352.026H297.167L296.929 353.832H295.823V355.428H296.831V358.676ZM306.421 353.552C305.553 353.552 304.699 353.944 304.223 354.644V350.612H302.123V361H304.223V356.968C304.223 356.058 304.895 355.4 305.707 355.4C306.547 355.4 307.051 356.016 307.051 356.884V361H309.151V356.464C309.151 354.756 308.059 353.552 306.421 353.552ZM316.278 354.7C315.718 353.972 314.892 353.552 313.912 353.552C311.924 353.552 310.51 355.148 310.51 357.416C310.51 359.684 311.924 361.28 313.912 361.28C314.92 361.28 315.746 360.846 316.306 360.132V361H318.378V350.612H316.278V354.7ZM312.61 357.416C312.61 356.282 313.394 355.442 314.486 355.442C315.578 355.442 316.362 356.282 316.362 357.416C316.362 358.55 315.578 359.39 314.486 359.39C313.408 359.39 312.61 358.564 312.61 357.416ZM325.741 354.826C325.181 354.028 324.327 353.552 323.305 353.552C321.289 353.552 319.875 355.148 319.875 357.416C319.875 359.684 321.289 361.28 323.305 361.28C324.327 361.28 325.181 360.804 325.741 360.006V361H327.841V353.832H325.741V354.826ZM323.851 359.432C322.759 359.432 321.975 358.578 321.975 357.416C321.975 356.254 322.759 355.4 323.851 355.4C324.943 355.4 325.727 356.254 325.727 357.416C325.727 358.578 324.943 359.432 323.851 359.432ZM329.966 363.982C330.358 364.136 330.904 364.234 331.352 364.234C332.808 364.234 333.578 363.086 334.25 361.252L337.022 353.832H334.838L333.242 358.452L331.296 353.832H329L332.388 361.07C332.066 361.938 331.716 362.582 330.82 362.582C330.568 362.582 330.204 362.512 329.966 362.428V363.982ZM350.729 356.884C350.645 358.27 349.371 359.334 347.789 359.334C345.913 359.334 344.569 357.934 344.569 356.016C344.569 354.084 345.885 352.698 347.719 352.698C348.895 352.698 349.959 353.37 350.281 354.294L352.437 353.818C351.947 351.984 350.015 350.682 347.733 350.682C344.527 350.682 342.217 352.922 342.217 356.016C342.217 359.11 344.527 361.35 347.733 361.35C351.093 361.35 353.319 358.83 352.997 355.344H347.649V356.884H350.729ZM356.877 353.832H354.777V361H356.877V353.832ZM354.609 351.69C354.609 352.39 355.113 352.88 355.827 352.88C356.541 352.88 357.045 352.39 357.045 351.69C357.045 351.004 356.541 350.514 355.827 350.514C355.113 350.514 354.609 351.004 354.609 351.69ZM363.257 350.556C362.837 350.416 362.347 350.332 361.857 350.332C360.471 350.332 359.547 351.368 359.547 352.936V353.832H358.539V355.428H359.547V361H361.647V355.428H363.257V353.832H361.647V353.062C361.647 352.544 362.011 352.18 362.557 352.18C362.795 352.18 363.033 352.222 363.257 352.278V350.556ZM365.163 358.676C365.163 360.202 366.087 361.28 367.515 361.28C367.963 361.28 368.523 361.196 368.943 361.056L368.957 359.376C368.719 359.432 368.411 359.474 368.215 359.474C367.627 359.474 367.263 359.068 367.263 358.466V355.428H368.887V353.832H367.263V352.026H365.499L365.261 353.832H364.155V355.428H365.163V358.676ZM373.507 361.308C375.495 361.308 376.881 360.23 376.881 358.746C376.867 356.044 372.135 357.178 372.149 355.806C372.149 355.344 372.667 355.008 373.325 355.008C374.165 355.008 374.781 355.414 374.795 356.002H376.643C376.629 354.56 375.243 353.524 373.325 353.524C371.575 353.524 370.259 354.532 370.245 355.932C370.245 358.956 374.851 357.528 374.865 358.97C374.865 359.46 374.305 359.824 373.535 359.824C372.625 359.824 371.953 359.32 371.953 358.606H370.175C370.175 360.174 371.561 361.308 373.507 361.308Z" fill="#284B64"/>
<path d="M302.898 377.179C302.03 377.179 301.293 377.83 301.155 378.731L301.892 378.876C301.964 378.277 302.392 377.85 302.898 377.85C303.431 377.85 303.813 378.218 303.813 378.718C303.813 379.132 303.543 379.428 303.142 379.731L301.201 381.184V382H304.49V381.349H302.037L303.629 380.185C304.188 379.777 304.576 379.283 304.576 378.659C304.576 377.81 303.852 377.179 302.898 377.179ZM305.986 377.343L305.749 379.639H307.045C307.736 379.639 308.143 380.04 308.143 380.592C308.143 381.112 307.729 381.494 307.157 381.494C306.598 381.494 306.164 381.033 306.111 380.395L305.42 380.507C305.493 381.467 306.216 382.164 307.183 382.164C308.183 382.164 308.9 381.507 308.9 380.592C308.9 379.685 308.229 379.02 307.183 379.02H306.492L306.598 377.994H308.525V377.343H305.986ZM312.695 381.329V379.902H314.892V379.297H312.695V378.014H315.155V377.343H311.932V382H315.221V381.329H312.695ZM316.066 382H316.783V380.04C316.783 379.514 317.098 379.159 317.572 379.159C318.032 379.159 318.335 379.514 318.335 380.04V382H319.045V380.04C319.045 379.527 319.381 379.159 319.848 379.159C320.301 379.172 320.624 379.533 320.624 380.04V382H321.334V379.981C321.334 379.132 320.782 378.534 319.999 378.534C319.519 378.534 319.098 378.777 318.868 379.159C318.67 378.777 318.23 378.527 317.717 378.527C317.315 378.527 316.967 378.718 316.756 379.04V378.659H316.066V382ZM322.93 381.546C323.213 381.914 323.64 382.132 324.14 382.132C325.113 382.132 325.817 381.375 325.817 380.329C325.817 379.283 325.107 378.527 324.14 378.527C323.627 378.527 323.193 378.751 322.91 379.126V378.659H322.213V383.513H322.93V381.546ZM325.107 380.329C325.107 380.987 324.64 381.461 324.002 381.461C323.364 381.461 322.903 380.987 322.903 380.329C322.903 379.672 323.364 379.198 324.002 379.198C324.633 379.198 325.107 379.665 325.107 380.329ZM327.317 377.146H326.606V382H327.317V377.146ZM331.724 380.329C331.724 379.27 330.974 378.527 329.908 378.527C328.836 378.527 328.093 379.27 328.093 380.329C328.093 381.388 328.836 382.132 329.908 382.132C330.974 382.132 331.724 381.388 331.724 380.329ZM331.013 380.329C331.013 381.007 330.546 381.5 329.908 381.5C329.264 381.5 328.803 381.007 328.803 380.329C328.803 379.652 329.264 379.159 329.908 379.159C330.546 379.159 331.013 379.652 331.013 380.329ZM332.342 383.375C332.513 383.44 332.737 383.487 332.928 383.487C333.638 383.487 333.928 382.849 334.224 382.079L335.526 378.659H334.783L333.875 381.125L332.829 378.659H332.046L333.553 382.013C333.382 382.428 333.244 382.888 332.783 382.888C332.652 382.888 332.487 382.849 332.342 382.796V383.375ZM337.648 381.533C337.095 381.533 336.674 381.138 336.589 380.546H339.404C339.411 380.474 339.417 380.375 339.417 380.296C339.417 379.264 338.681 378.527 337.641 378.527C336.602 378.527 335.852 379.264 335.852 380.29C335.852 381.362 336.609 382.132 337.661 382.132C338.385 382.132 339.049 381.737 339.246 381.191L338.628 380.987C338.477 381.296 338.076 381.533 337.648 381.533ZM336.589 380.02C336.688 379.487 337.082 379.126 337.622 379.126C338.174 379.126 338.595 379.494 338.674 380.02H336.589ZM341.842 381.533C341.29 381.533 340.869 381.138 340.783 380.546H343.599C343.605 380.474 343.612 380.375 343.612 380.296C343.612 379.264 342.875 378.527 341.836 378.527C340.797 378.527 340.047 379.264 340.047 380.29C340.047 381.362 340.803 382.132 341.856 382.132C342.579 382.132 343.243 381.737 343.441 381.191L342.822 380.987C342.671 381.296 342.27 381.533 341.842 381.533ZM340.783 380.02C340.882 379.487 341.277 379.126 341.816 379.126C342.369 379.126 342.79 379.494 342.869 380.02H340.783ZM345.787 382.138C346.635 382.138 347.241 381.658 347.241 381.007C347.234 379.77 344.984 380.303 344.991 379.573C344.991 379.303 345.294 379.106 345.655 379.106C346.136 379.106 346.484 379.336 346.491 379.665H347.155C347.155 379.001 346.524 378.52 345.662 378.52C344.906 378.52 344.32 378.968 344.32 379.579C344.32 380.954 346.55 380.316 346.557 381.066C346.557 381.349 346.234 381.559 345.787 381.559C345.287 381.559 344.925 381.27 344.925 380.869H344.268C344.268 381.605 344.906 382.138 345.787 382.138Z" fill="#93A5B1"/>
<circle opacity="0.2" cx="326" cy="304" r="32" fill="#FF8BCD"/>
<path fill-rule="evenodd" clip-rule="evenodd" d="M317.048 297.118C316.597 296.379 316.364 295.47 316.364 294.365C316.364 292.187 318.003 290.236 320.493 290.236C322.987 290.236 324.999 291.907 325.999 294.522C326.999 291.907 329.01 290.236 331.504 290.236C333.995 290.236 335.633 292.187 335.633 294.365C335.633 295.47 335.401 296.379 334.949 297.118H337.01C338.53 297.118 339.762 298.35 339.762 299.871V302.623C339.762 304.144 338.53 305.376 337.01 305.376V315.011C337.01 316.531 335.777 317.763 334.257 317.763H317.741C316.22 317.763 314.988 316.531 314.988 315.011V305.376C313.468 305.376 312.235 304.144 312.235 302.623V299.871C312.235 298.35 313.468 297.118 314.988 297.118H317.048ZM324.622 299.871H314.988V302.623H324.622V299.871ZM337.01 302.623H327.375V299.871H337.01V302.623ZM324.623 315.01V305.376H317.741V315.01H324.623ZM334.257 315.01H327.375V305.376H334.257V315.01ZM320.494 292.989C319.64 292.989 319.117 293.611 319.117 294.365C319.117 296.09 320.517 296.91 323.837 297.083C323.468 294.519 322.093 292.989 320.494 292.989ZM328.063 297.083C328.432 294.519 329.808 292.989 331.407 292.989C332.261 292.989 332.783 293.611 332.783 294.365C332.783 296.09 331.384 296.91 328.063 297.083Z" fill="#FF8BCD"/>
<rect x="283" y="393" width="82" height="28" rx="14" fill="#62D26F"/>
<path d="M310.492 403.304H308.54L306.628 409H308.044L308.364 407.968H310.652L310.988 409H312.396L310.492 403.304ZM309.516 404.456L310.38 407H308.652L309.516 404.456ZM317.047 406.368C316.919 405.424 316.023 404.744 314.951 404.744C313.655 404.744 312.719 405.672 312.719 406.952C312.719 408.232 313.663 409.16 314.951 409.16C316.007 409.16 316.903 408.48 317.055 407.536L315.935 407.392C315.823 407.832 315.431 408.152 314.959 408.152C314.367 408.152 313.919 407.648 313.919 406.952C313.919 406.256 314.375 405.752 314.959 405.752C315.415 405.752 315.823 406.072 315.927 406.512L317.047 406.368ZM318.051 407.672C318.051 408.544 318.579 409.16 319.395 409.16C319.651 409.16 319.971 409.112 320.211 409.032L320.219 408.072C320.083 408.104 319.907 408.128 319.795 408.128C319.459 408.128 319.251 407.896 319.251 407.552V405.816H320.179V404.904H319.251V403.872H318.243L318.107 404.904H317.475V405.816H318.051V407.672ZM322.371 404.904H321.171V409H322.371V404.904ZM321.075 403.68C321.075 404.08 321.363 404.36 321.771 404.36C322.179 404.36 322.467 404.08 322.467 403.68C322.467 403.288 322.179 403.008 321.771 403.008C321.363 403.008 321.075 403.288 321.075 403.68ZM324.56 409H326.272L327.704 404.904H326.416L325.416 408.088L324.408 404.904H323.128L324.56 409ZM331.329 405.472C331.009 405.016 330.521 404.744 329.937 404.744C328.785 404.744 327.977 405.656 327.977 406.952C327.977 408.248 328.785 409.16 329.937 409.16C330.521 409.16 331.009 408.888 331.329 408.432V409H332.529V404.904H331.329V405.472ZM330.249 408.104C329.625 408.104 329.177 407.616 329.177 406.952C329.177 406.288 329.625 405.8 330.249 405.8C330.873 405.8 331.321 406.288 331.321 406.952C331.321 407.616 330.873 408.104 330.249 408.104ZM333.879 407.672C333.879 408.544 334.407 409.16 335.223 409.16C335.479 409.16 335.799 409.112 336.039 409.032L336.047 408.072C335.911 408.104 335.735 408.128 335.623 408.128C335.287 408.128 335.079 407.896 335.079 407.552V405.816H336.007V404.904H335.079V403.872H334.071L333.935 404.904H333.303V405.816H333.879V407.672ZM339.007 408.24C338.463 408.24 338.063 407.864 337.959 407.288L341.167 407.296C341.183 407.208 341.183 407.04 341.183 406.936C341.183 405.64 340.287 404.744 338.975 404.744C337.655 404.744 336.719 405.64 336.719 406.92C336.719 408.24 337.655 409.16 338.975 409.16C339.943 409.16 340.783 408.64 340.999 407.928L339.951 407.696C339.807 408.008 339.439 408.24 339.007 408.24ZM337.951 406.568C338.055 406.024 338.423 405.664 338.951 405.664C339.495 405.664 339.895 406.048 339.967 406.568H337.951Z" fill="white"/>
<g filter="url(#filter6_ddd_1004_6798)">
<rect x="230" y="47" width="192" height="189" rx="5.75535" fill="white"/>
</g>
<path d="M261.285 150.032H257.869L254.523 160H257.001L257.561 158.194H261.565L262.153 160H264.617L261.285 150.032ZM259.577 152.048L261.089 156.5H258.065L259.577 152.048ZM270.949 153.7C270.389 152.972 269.563 152.552 268.583 152.552C266.595 152.552 265.181 154.148 265.181 156.416C265.181 158.684 266.595 160.28 268.583 160.28C269.591 160.28 270.417 159.846 270.977 159.132V160H273.049V149.612H270.949V153.7ZM267.281 156.416C267.281 155.282 268.065 154.442 269.157 154.442C270.249 154.442 271.033 155.282 271.033 156.416C271.033 157.55 270.249 158.39 269.157 158.39C268.079 158.39 267.281 157.564 267.281 156.416ZM282.498 156.416C282.498 154.134 280.874 152.552 278.508 152.552C276.156 152.552 274.532 154.134 274.532 156.416C274.532 158.698 276.156 160.28 278.508 160.28C280.874 160.28 282.498 158.698 282.498 156.416ZM280.398 156.416C280.398 157.592 279.614 158.432 278.508 158.432C277.416 158.432 276.632 157.592 276.632 156.416C276.632 155.24 277.416 154.4 278.508 154.4C279.614 154.4 280.398 155.24 280.398 156.416ZM283.987 149.612V160H286.059V159.132C286.619 159.846 287.459 160.28 288.453 160.28C290.441 160.28 291.855 158.684 291.855 156.416C291.855 154.148 290.455 152.552 288.453 152.552C287.473 152.552 286.647 152.972 286.087 153.7V149.612H283.987ZM289.755 156.416C289.755 157.564 288.957 158.39 287.879 158.39C286.787 158.39 286.003 157.55 286.003 156.416C286.003 155.282 286.787 154.442 287.879 154.442C288.971 154.442 289.755 155.282 289.755 156.416ZM297.034 158.67C296.082 158.67 295.382 158.012 295.2 157.004L300.814 157.018C300.842 156.864 300.842 156.57 300.842 156.388C300.842 154.12 299.274 152.552 296.978 152.552C294.668 152.552 293.03 154.12 293.03 156.36C293.03 158.67 294.668 160.28 296.978 160.28C298.672 160.28 300.142 159.37 300.52 158.124L298.686 157.718C298.434 158.264 297.79 158.67 297.034 158.67ZM295.186 155.744C295.368 154.792 296.012 154.162 296.936 154.162C297.888 154.162 298.588 154.834 298.714 155.744H295.186ZM310.8 160.35C313.334 160.35 315.028 158.936 315.028 156.948C315.028 152.958 308.826 154.708 308.826 152.678C308.826 151.978 309.568 151.46 310.674 151.46C311.878 151.46 312.76 152.16 312.746 153.14H314.79C314.79 151.138 313.04 149.682 310.618 149.682C308.21 149.682 306.544 151.026 306.544 152.986C306.544 156.948 312.732 155.17 312.732 157.284C312.732 157.998 312.032 158.572 310.87 158.572C309.526 158.572 308.56 157.802 308.56 156.724H306.446C306.446 158.824 308.266 160.35 310.8 160.35ZM319.225 160.28C320.163 160.28 321.003 159.804 321.507 159.034V160H323.551V152.832H321.451V156.864C321.451 157.774 320.779 158.432 319.953 158.432C319.127 158.432 318.623 157.816 318.623 156.948V152.832H316.523V157.312C316.523 159.034 317.615 160.28 319.225 160.28ZM325.372 149.612V160H327.444V159.132C328.004 159.846 328.844 160.28 329.838 160.28C331.826 160.28 333.24 158.684 333.24 156.416C333.24 154.148 331.84 152.552 329.838 152.552C328.858 152.552 328.032 152.972 327.472 153.7V149.612H325.372ZM331.14 156.416C331.14 157.564 330.342 158.39 329.264 158.39C328.172 158.39 327.388 157.55 327.388 156.416C327.388 155.282 328.172 154.442 329.264 154.442C330.356 154.442 331.14 155.282 331.14 156.416ZM337.789 160.308C339.777 160.308 341.163 159.23 341.163 157.746C341.149 155.044 336.417 156.178 336.431 154.806C336.431 154.344 336.949 154.008 337.607 154.008C338.447 154.008 339.063 154.414 339.077 155.002H340.925C340.911 153.56 339.525 152.524 337.607 152.524C335.857 152.524 334.541 153.532 334.527 154.932C334.527 157.956 339.133 156.528 339.147 157.97C339.147 158.46 338.587 158.824 337.817 158.824C336.907 158.824 336.235 158.32 336.235 157.606H334.457C334.457 159.174 335.843 160.308 337.789 160.308ZM349.891 155.394C349.667 153.742 348.099 152.552 346.223 152.552C343.955 152.552 342.317 154.176 342.317 156.416C342.317 158.656 343.969 160.28 346.223 160.28C348.071 160.28 349.639 159.09 349.905 157.438L347.945 157.186C347.749 157.956 347.063 158.516 346.237 158.516C345.201 158.516 344.417 157.634 344.417 156.416C344.417 155.198 345.215 154.316 346.237 154.316C347.035 154.316 347.749 154.876 347.931 155.646L349.891 155.394ZM355.31 152.566C354.512 152.566 353.812 153.028 353.392 153.742V152.832H351.376V160H353.476V156.192C353.476 155.114 354.078 154.344 354.988 154.344C355.296 154.344 355.758 154.442 356.164 154.61V152.748C355.884 152.636 355.59 152.566 355.31 152.566ZM359.646 152.832H357.546V160H359.646V152.832ZM357.378 150.69C357.378 151.39 357.882 151.88 358.596 151.88C359.31 151.88 359.814 151.39 359.814 150.69C359.814 150.004 359.31 149.514 358.596 149.514C357.882 149.514 357.378 150.004 357.378 150.69ZM363.73 159.132C364.29 159.86 365.116 160.28 366.096 160.28C368.098 160.28 369.498 158.684 369.498 156.416C369.498 154.148 368.084 152.552 366.096 152.552C365.102 152.552 364.262 152.986 363.702 153.7V152.832H361.63V163.22H363.73V159.132ZM367.398 156.416C367.398 157.55 366.614 158.39 365.522 158.39C364.43 158.39 363.646 157.55 363.646 156.416C363.646 155.282 364.43 154.442 365.522 154.442C366.6 154.442 367.398 155.268 367.398 156.416ZM371.268 157.676C371.268 159.202 372.192 160.28 373.62 160.28C374.068 160.28 374.628 160.196 375.048 160.056L375.062 158.376C374.824 158.432 374.516 158.474 374.32 158.474C373.732 158.474 373.368 158.068 373.368 157.466V154.428H374.992V152.832H373.368V151.026H371.604L371.366 152.832H370.26V154.428H371.268V157.676ZM378.827 152.832H376.727V160H378.827V152.832ZM376.559 150.69C376.559 151.39 377.063 151.88 377.777 151.88C378.491 151.88 378.995 151.39 378.995 150.69C378.995 150.004 378.491 149.514 377.777 149.514C377.063 149.514 376.559 150.004 376.559 150.69ZM388.441 156.416C388.441 154.134 386.817 152.552 384.451 152.552C382.099 152.552 380.475 154.134 380.475 156.416C380.475 158.698 382.099 160.28 384.451 160.28C386.817 160.28 388.441 158.698 388.441 156.416ZM386.341 156.416C386.341 157.592 385.557 158.432 384.451 158.432C383.359 158.432 382.575 157.592 382.575 156.416C382.575 155.24 383.359 154.4 384.451 154.4C385.557 154.4 386.341 155.24 386.341 156.416ZM394.243 152.552C393.319 152.552 392.479 153.028 391.975 153.798V152.832H389.931V160H392.031V155.968C392.031 155.058 392.703 154.4 393.529 154.4C394.355 154.4 394.859 155.016 394.859 155.884V160H396.959V155.52C396.959 153.798 395.867 152.552 394.243 152.552Z" fill="#284B64"/>
<path d="M302.898 176.179C302.03 176.179 301.293 176.83 301.155 177.731L301.892 177.876C301.964 177.277 302.392 176.85 302.898 176.85C303.431 176.85 303.813 177.218 303.813 177.718C303.813 178.132 303.543 178.428 303.142 178.731L301.201 180.184V181H304.49V180.349H302.037L303.629 179.185C304.188 178.777 304.576 178.283 304.576 177.659C304.576 176.81 303.852 176.179 302.898 176.179ZM305.986 176.343L305.749 178.639H307.045C307.736 178.639 308.143 179.04 308.143 179.592C308.143 180.112 307.729 180.494 307.157 180.494C306.598 180.494 306.164 180.033 306.111 179.395L305.42 179.507C305.493 180.467 306.216 181.164 307.183 181.164C308.183 181.164 308.9 180.507 308.9 179.592C308.9 178.685 308.229 178.02 307.183 178.02H306.492L306.598 176.994H308.525V176.343H305.986ZM312.695 180.329V178.902H314.892V178.297H312.695V177.014H315.155V176.343H311.932V181H315.221V180.329H312.695ZM316.066 181H316.783V179.04C316.783 178.514 317.098 178.159 317.572 178.159C318.032 178.159 318.335 178.514 318.335 179.04V181H319.045V179.04C319.045 178.527 319.381 178.159 319.848 178.159C320.301 178.172 320.624 178.533 320.624 179.04V181H321.334V178.981C321.334 178.132 320.782 177.534 319.999 177.534C319.519 177.534 319.098 177.777 318.868 178.159C318.67 177.777 318.23 177.527 317.717 177.527C317.315 177.527 316.967 177.718 316.756 178.04V177.659H316.066V181ZM322.93 180.546C323.213 180.914 323.64 181.132 324.14 181.132C325.113 181.132 325.817 180.375 325.817 179.329C325.817 178.283 325.107 177.527 324.14 177.527C323.627 177.527 323.193 177.751 322.91 178.126V177.659H322.213V182.513H322.93V180.546ZM325.107 179.329C325.107 179.987 324.64 180.461 324.002 180.461C323.364 180.461 322.903 179.987 322.903 179.329C322.903 178.672 323.364 178.198 324.002 178.198C324.633 178.198 325.107 178.665 325.107 179.329ZM327.317 176.146H326.606V181H327.317V176.146ZM331.724 179.329C331.724 178.27 330.974 177.527 329.908 177.527C328.836 177.527 328.093 178.27 328.093 179.329C328.093 180.388 328.836 181.132 329.908 181.132C330.974 181.132 331.724 180.388 331.724 179.329ZM331.013 179.329C331.013 180.007 330.546 180.5 329.908 180.5C329.264 180.5 328.803 180.007 328.803 179.329C328.803 178.652 329.264 178.159 329.908 178.159C330.546 178.159 331.013 178.652 331.013 179.329ZM332.342 182.375C332.513 182.44 332.737 182.487 332.928 182.487C333.638 182.487 333.928 181.849 334.224 181.079L335.526 177.659H334.783L333.875 180.125L332.829 177.659H332.046L333.553 181.013C333.382 181.428 333.244 181.888 332.783 181.888C332.652 181.888 332.487 181.849 332.342 181.796V182.375ZM337.648 180.533C337.095 180.533 336.674 180.138 336.589 179.546H339.404C339.411 179.474 339.417 179.375 339.417 179.296C339.417 178.264 338.681 177.527 337.641 177.527C336.602 177.527 335.852 178.264 335.852 179.29C335.852 180.362 336.609 181.132 337.661 181.132C338.385 181.132 339.049 180.737 339.246 180.191L338.628 179.987C338.477 180.296 338.076 180.533 337.648 180.533ZM336.589 179.02C336.688 178.487 337.082 178.126 337.622 178.126C338.174 178.126 338.595 178.494 338.674 179.02H336.589ZM341.842 180.533C341.29 180.533 340.869 180.138 340.783 179.546H343.599C343.605 179.474 343.612 179.375 343.612 179.296C343.612 178.264 342.875 177.527 341.836 177.527C340.797 177.527 340.047 178.264 340.047 179.29C340.047 180.362 340.803 181.132 341.856 181.132C342.579 181.132 343.243 180.737 343.441 180.191L342.822 179.987C342.671 180.296 342.27 180.533 341.842 180.533ZM340.783 179.02C340.882 178.487 341.277 178.126 341.816 178.126C342.369 178.126 342.79 178.494 342.869 179.02H340.783ZM345.787 181.138C346.635 181.138 347.241 180.658 347.241 180.007C347.234 178.77 344.984 179.303 344.991 178.573C344.991 178.303 345.294 178.106 345.655 178.106C346.136 178.106 346.484 178.336 346.491 178.665H347.155C347.155 178.001 346.524 177.52 345.662 177.52C344.906 177.52 344.32 177.968 344.32 178.579C344.32 179.954 346.55 179.316 346.557 180.066C346.557 180.349 346.234 180.559 345.787 180.559C345.287 180.559 344.925 180.27 344.925 179.869H344.268C344.268 180.605 344.906 181.138 345.787 181.138Z" fill="#93A5B1"/>
<circle opacity="0.2" cx="326" cy="103" r="32" fill="#62D26F"/>
<path fill-rule="evenodd" clip-rule="evenodd" d="M314.988 104.376V89.2367C314.988 88.4766 315.604 87.8604 316.365 87.8604H335.633C336.394 87.8604 337.01 88.4766 337.01 89.2367V104.369C337.022 106.464 335.853 107.127 332.594 108.104C330.683 108.676 330.128 108.99 330.128 109.194C330.128 110.25 330.225 110.96 330.431 111.785C330.391 111.625 330.626 112.534 330.678 112.776C330.769 113.202 330.816 113.59 330.816 114.011C330.816 116.297 328.666 118.14 325.999 118.14C323.332 118.14 321.182 116.297 321.182 114.011C321.182 113.59 321.229 113.202 321.32 112.776C321.372 112.534 321.607 111.625 321.567 111.785C321.773 110.96 321.87 110.25 321.87 109.194C321.87 108.989 321.316 108.675 319.41 108.103C316.155 107.127 314.988 106.466 314.988 104.376ZM317.74 104.376C317.74 104.581 318.294 104.895 320.2 105.467C323.455 106.443 324.622 107.104 324.622 109.194C324.622 110.488 324.495 111.419 324.237 112.452C324.262 112.354 324.049 113.177 324.011 113.353C323.958 113.601 323.934 113.799 323.934 114.011C323.934 114.674 324.766 115.387 325.999 115.387C327.231 115.387 328.063 114.674 328.063 114.011C328.063 113.799 328.039 113.601 327.986 113.353C327.948 113.177 327.735 112.354 327.76 112.452C327.502 111.419 327.375 110.488 327.375 109.194C327.375 107.105 328.544 106.443 331.797 105.468L331.803 105.467C333.707 104.896 334.258 104.584 334.257 104.376V101.624H317.74V104.376ZM317.74 90.6129V98.871H334.257V90.6129H328.751V93.3657C328.751 94.1259 328.135 94.7421 327.375 94.7421C326.615 94.7421 325.999 94.1259 325.999 93.3657V90.6129H323.246V94.7421C323.246 95.5022 322.63 96.1184 321.87 96.1184C321.11 96.1184 320.494 95.5022 320.494 94.7421V90.6129H317.74Z" fill="#62D26F"/>
<rect x="283" y="192" width="82" height="28" rx="14" fill="#62D26F"/>
<path d="M315.363 202.304H313.411L311.499 208H312.915L313.235 206.968H315.523L315.859 208H317.267L315.363 202.304ZM314.387 203.456L315.251 206H313.523L314.387 203.456ZM321.918 205.368C321.79 204.424 320.894 203.744 319.822 203.744C318.526 203.744 317.59 204.672 317.59 205.952C317.59 207.232 318.534 208.16 319.822 208.16C320.878 208.16 321.774 207.48 321.926 206.536L320.806 206.392C320.694 206.832 320.302 207.152 319.83 207.152C319.238 207.152 318.79 206.648 318.79 205.952C318.79 205.256 319.246 204.752 319.83 204.752C320.286 204.752 320.694 205.072 320.798 205.512L321.918 205.368ZM322.922 206.672C322.922 207.544 323.45 208.16 324.266 208.16C324.522 208.16 324.842 208.112 325.082 208.032L325.09 207.072C324.954 207.104 324.778 207.128 324.666 207.128C324.33 207.128 324.122 206.896 324.122 206.552V204.816H325.05V203.904H324.122V202.872H323.114L322.978 203.904H322.346V204.816H322.922V206.672ZM327.242 203.904H326.042V208H327.242V203.904ZM325.946 202.68C325.946 203.08 326.234 203.36 326.642 203.36C327.05 203.36 327.338 203.08 327.338 202.68C327.338 202.288 327.05 202.008 326.642 202.008C326.234 202.008 325.946 202.288 325.946 202.68ZM329.431 208H331.143L332.575 203.904H331.287L330.287 207.088L329.279 203.904H327.999L329.431 208ZM335.136 207.24C334.592 207.24 334.192 206.864 334.088 206.288L337.296 206.296C337.312 206.208 337.312 206.04 337.312 205.936C337.312 204.64 336.416 203.744 335.104 203.744C333.784 203.744 332.848 204.64 332.848 205.92C332.848 207.24 333.784 208.16 335.104 208.16C336.072 208.16 336.912 207.64 337.128 206.928L336.08 206.696C335.936 207.008 335.568 207.24 335.136 207.24ZM334.08 205.568C334.184 205.024 334.552 204.664 335.08 204.664C335.624 204.664 336.024 205.048 336.096 205.568H334.08Z" fill="white"/>
<g filter="url(#filter7_ddd_1004_6798)">
<rect x="434" y="248" width="192" height="189" rx="5.75535" fill="white"/>
</g>
<path d="M474.591 356.884C474.507 358.27 473.233 359.334 471.651 359.334C469.775 359.334 468.431 357.934 468.431 356.016C468.431 354.084 469.747 352.698 471.581 352.698C472.757 352.698 473.821 353.37 474.143 354.294L476.299 353.818C475.809 351.984 473.877 350.682 471.595 350.682C468.389 350.682 466.079 352.922 466.079 356.016C466.079 359.11 468.389 361.35 471.595 361.35C474.955 361.35 477.181 358.83 476.859 355.344H471.511V356.884H474.591ZM478.78 363.982C479.172 364.136 479.718 364.234 480.166 364.234C481.622 364.234 482.392 363.086 483.064 361.252L485.836 353.832H483.652L482.056 358.452L480.11 353.832H477.814L481.202 361.07C480.88 361.938 480.53 362.582 479.634 362.582C479.382 362.582 479.018 362.512 478.78 362.428V363.982ZM486.989 361H489.089V356.912C489.089 356.002 489.607 355.4 490.405 355.4C491.189 355.4 491.693 356.002 491.693 356.912V361H493.793V356.912C493.793 356.03 494.339 355.4 495.151 355.4C495.949 355.428 496.481 356.058 496.481 356.912V361H498.581V356.492C498.581 354.77 497.447 353.566 495.823 353.566C494.829 353.566 493.877 354.042 493.415 354.826C493.009 354.042 492.141 353.552 491.105 353.552C490.223 353.552 489.453 353.958 489.005 354.686V353.832H486.989V361ZM507.064 361V353.874L509.808 361H511.572L514.33 353.874V361H516.626V351.032H513.476L510.69 358.326L507.876 351.032H504.768V361H507.064ZM522.349 359.67C521.397 359.67 520.697 359.012 520.515 358.004L526.129 358.018C526.157 357.864 526.157 357.57 526.157 357.388C526.157 355.12 524.589 353.552 522.293 353.552C519.983 353.552 518.345 355.12 518.345 357.36C518.345 359.67 519.983 361.28 522.293 361.28C523.987 361.28 525.457 360.37 525.835 359.124L524.001 358.718C523.749 359.264 523.105 359.67 522.349 359.67ZM520.501 356.744C520.683 355.792 521.327 355.162 522.251 355.162C523.203 355.162 523.903 355.834 524.029 356.744H520.501ZM527.649 361H529.749V356.912C529.749 356.002 530.267 355.4 531.065 355.4C531.849 355.4 532.353 356.002 532.353 356.912V361H534.453V356.912C534.453 356.03 534.999 355.4 535.811 355.4C536.609 355.428 537.141 356.058 537.141 356.912V361H539.241V356.492C539.241 354.77 538.107 353.566 536.483 353.566C535.489 353.566 534.537 354.042 534.075 354.826C533.669 354.042 532.801 353.552 531.765 353.552C530.883 353.552 530.113 353.958 529.665 354.686V353.832H527.649V361ZM540.925 350.612V361H542.997V360.132C543.557 360.846 544.397 361.28 545.391 361.28C547.379 361.28 548.793 359.684 548.793 357.416C548.793 355.148 547.393 353.552 545.391 353.552C544.411 353.552 543.585 353.972 543.025 354.7V350.612H540.925ZM546.693 357.416C546.693 358.564 545.895 359.39 544.817 359.39C543.725 359.39 542.941 358.55 542.941 357.416C542.941 356.282 543.725 355.442 544.817 355.442C545.909 355.442 546.693 356.282 546.693 357.416ZM553.972 359.67C553.02 359.67 552.32 359.012 552.138 358.004L557.752 358.018C557.78 357.864 557.78 357.57 557.78 357.388C557.78 355.12 556.212 353.552 553.916 353.552C551.606 353.552 549.968 355.12 549.968 357.36C549.968 359.67 551.606 361.28 553.916 361.28C555.61 361.28 557.08 360.37 557.458 359.124L555.624 358.718C555.372 359.264 554.728 359.67 553.972 359.67ZM552.124 356.744C552.306 355.792 552.95 355.162 553.874 355.162C554.826 355.162 555.526 355.834 555.652 356.744H552.124ZM563.206 353.566C562.408 353.566 561.708 354.028 561.288 354.742V353.832H559.272V361H561.372V357.192C561.372 356.114 561.974 355.344 562.884 355.344C563.192 355.344 563.654 355.442 564.06 355.61V353.748C563.78 353.636 563.486 353.566 563.206 353.566ZM568.326 361.308C570.314 361.308 571.7 360.23 571.7 358.746C571.686 356.044 566.954 357.178 566.968 355.806C566.968 355.344 567.486 355.008 568.144 355.008C568.984 355.008 569.6 355.414 569.614 356.002H571.462C571.448 354.56 570.062 353.524 568.144 353.524C566.394 353.524 565.078 354.532 565.064 355.932C565.064 358.956 569.67 357.528 569.684 358.97C569.684 359.46 569.124 359.824 568.354 359.824C567.444 359.824 566.772 359.32 566.772 358.606H564.994C564.994 360.174 566.38 361.308 568.326 361.308ZM577.475 353.552C576.607 353.552 575.753 353.944 575.277 354.644V350.612H573.177V361H575.277V356.968C575.277 356.058 575.949 355.4 576.761 355.4C577.601 355.4 578.105 356.016 578.105 356.884V361H580.205V356.464C580.205 354.756 579.113 353.552 577.475 353.552ZM584.154 353.832H582.054V361H584.154V353.832ZM581.886 351.69C581.886 352.39 582.39 352.88 583.104 352.88C583.818 352.88 584.322 352.39 584.322 351.69C584.322 351.004 583.818 350.514 583.104 350.514C582.39 350.514 581.886 351.004 581.886 351.69ZM588.238 360.132C588.798 360.86 589.624 361.28 590.604 361.28C592.606 361.28 594.006 359.684 594.006 357.416C594.006 355.148 592.592 353.552 590.604 353.552C589.61 353.552 588.77 353.986 588.21 354.7V353.832H586.138V364.22H588.238V360.132ZM591.906 357.416C591.906 358.55 591.122 359.39 590.03 359.39C588.938 359.39 588.154 358.55 588.154 357.416C588.154 356.282 588.938 355.442 590.03 355.442C591.108 355.442 591.906 356.268 591.906 357.416Z" fill="#284B64"/>
<path d="M506.898 377.179C506.03 377.179 505.293 377.83 505.155 378.731L505.892 378.876C505.964 378.277 506.392 377.85 506.898 377.85C507.431 377.85 507.813 378.218 507.813 378.718C507.813 379.132 507.543 379.428 507.142 379.731L505.201 381.184V382H508.49V381.349H506.037L507.629 380.185C508.188 379.777 508.576 379.283 508.576 378.659C508.576 377.81 507.852 377.179 506.898 377.179ZM509.986 377.343L509.749 379.639H511.045C511.736 379.639 512.143 380.04 512.143 380.592C512.143 381.112 511.729 381.494 511.157 381.494C510.598 381.494 510.164 381.033 510.111 380.395L509.42 380.507C509.493 381.467 510.216 382.164 511.183 382.164C512.183 382.164 512.9 381.507 512.9 380.592C512.9 379.685 512.229 379.02 511.183 379.02H510.492L510.598 377.994H512.525V377.343H509.986ZM516.695 381.329V379.902H518.892V379.297H516.695V378.014H519.155V377.343H515.932V382H519.221V381.329H516.695ZM520.066 382H520.783V380.04C520.783 379.514 521.098 379.159 521.572 379.159C522.032 379.159 522.335 379.514 522.335 380.04V382H523.045V380.04C523.045 379.527 523.381 379.159 523.848 379.159C524.301 379.172 524.624 379.533 524.624 380.04V382H525.334V379.981C525.334 379.132 524.782 378.534 523.999 378.534C523.519 378.534 523.098 378.777 522.868 379.159C522.67 378.777 522.23 378.527 521.717 378.527C521.315 378.527 520.967 378.718 520.756 379.04V378.659H520.066V382ZM526.93 381.546C527.213 381.914 527.64 382.132 528.14 382.132C529.113 382.132 529.817 381.375 529.817 380.329C529.817 379.283 529.107 378.527 528.14 378.527C527.627 378.527 527.193 378.751 526.91 379.126V378.659H526.213V383.513H526.93V381.546ZM529.107 380.329C529.107 380.987 528.64 381.461 528.002 381.461C527.364 381.461 526.903 380.987 526.903 380.329C526.903 379.672 527.364 379.198 528.002 379.198C528.633 379.198 529.107 379.665 529.107 380.329ZM531.317 377.146H530.606V382H531.317V377.146ZM535.724 380.329C535.724 379.27 534.974 378.527 533.908 378.527C532.836 378.527 532.093 379.27 532.093 380.329C532.093 381.388 532.836 382.132 533.908 382.132C534.974 382.132 535.724 381.388 535.724 380.329ZM535.013 380.329C535.013 381.007 534.546 381.5 533.908 381.5C533.264 381.5 532.803 381.007 532.803 380.329C532.803 379.652 533.264 379.159 533.908 379.159C534.546 379.159 535.013 379.652 535.013 380.329ZM536.342 383.375C536.513 383.44 536.737 383.487 536.928 383.487C537.638 383.487 537.928 382.849 538.224 382.079L539.526 378.659H538.783L537.875 381.125L536.829 378.659H536.046L537.553 382.013C537.382 382.428 537.244 382.888 536.783 382.888C536.652 382.888 536.487 382.849 536.342 382.796V383.375ZM541.648 381.533C541.095 381.533 540.674 381.138 540.589 380.546H543.404C543.411 380.474 543.417 380.375 543.417 380.296C543.417 379.264 542.681 378.527 541.641 378.527C540.602 378.527 539.852 379.264 539.852 380.29C539.852 381.362 540.609 382.132 541.661 382.132C542.385 382.132 543.049 381.737 543.246 381.191L542.628 380.987C542.477 381.296 542.076 381.533 541.648 381.533ZM540.589 380.02C540.688 379.487 541.082 379.126 541.622 379.126C542.174 379.126 542.595 379.494 542.674 380.02H540.589ZM545.842 381.533C545.29 381.533 544.869 381.138 544.783 380.546H547.599C547.605 380.474 547.612 380.375 547.612 380.296C547.612 379.264 546.875 378.527 545.836 378.527C544.797 378.527 544.047 379.264 544.047 380.29C544.047 381.362 544.803 382.132 545.856 382.132C546.579 382.132 547.243 381.737 547.441 381.191L546.822 380.987C546.671 381.296 546.27 381.533 545.842 381.533ZM544.783 380.02C544.882 379.487 545.277 379.126 545.816 379.126C546.369 379.126 546.79 379.494 546.869 380.02H544.783ZM549.787 382.138C550.635 382.138 551.241 381.658 551.241 381.007C551.234 379.77 548.984 380.303 548.991 379.573C548.991 379.303 549.294 379.106 549.655 379.106C550.136 379.106 550.484 379.336 550.491 379.665H551.155C551.155 379.001 550.524 378.52 549.662 378.52C548.906 378.52 548.32 378.968 548.32 379.579C548.32 380.954 550.55 380.316 550.557 381.066C550.557 381.349 550.234 381.559 549.787 381.559C549.287 381.559 548.925 381.27 548.925 380.869H548.268C548.268 381.605 548.906 382.138 549.787 382.138Z" fill="#93A5B1"/>
<circle opacity="0.2" cx="530" cy="304" r="32" fill="#8479FF"/>
<path fill-rule="evenodd" clip-rule="evenodd" d="M531.376 313.635V312.161C534.105 311.77 536.466 310.235 537.956 308.057C541.692 307.543 543.763 304.307 543.763 299.871V295.742C543.763 294.222 542.53 292.989 541.01 292.989H539.265C538.789 292.167 537.9 291.613 536.881 291.613H523.117C522.099 291.613 521.209 292.167 520.733 292.989H518.988C517.468 292.989 516.235 294.222 516.235 295.742V299.871C516.235 304.307 518.306 307.543 522.042 308.058C523.532 310.235 525.893 311.77 528.623 312.161V313.635H527.247C525.726 313.635 524.494 314.867 524.494 316.387H535.505C535.505 314.867 534.272 313.635 532.752 313.635H531.376ZM518.988 295.742H520.365V302.624C520.365 303.254 520.425 303.87 520.541 304.467C519.525 303.553 518.988 301.979 518.988 299.871V295.742ZM539.634 295.742V302.624C539.634 303.254 539.573 303.87 539.458 304.466C540.473 303.552 541.01 301.979 541.01 299.871V295.742H539.634ZM523.117 302.624V294.366H536.881V302.624C536.881 306.424 533.8 309.505 529.999 309.505C526.198 309.505 523.117 306.424 523.117 302.624Z" fill="#8479FF"/>
<rect x="487.5" y="393.5" width="81" height="27" rx="13.5" stroke="#BEC9D0"/>
<path d="M510.121 403.304H508.169L506.257 409H507.673L507.993 407.968H510.281L510.617 409H512.025L510.121 403.304ZM509.145 404.456L510.009 407H508.281L509.145 404.456ZM516.676 406.368C516.548 405.424 515.652 404.744 514.58 404.744C513.284 404.744 512.348 405.672 512.348 406.952C512.348 408.232 513.292 409.16 514.58 409.16C515.636 409.16 516.532 408.48 516.684 407.536L515.564 407.392C515.452 407.832 515.06 408.152 514.588 408.152C513.996 408.152 513.548 407.648 513.548 406.952C513.548 406.256 514.004 405.752 514.588 405.752C515.044 405.752 515.452 406.072 515.556 406.512L516.676 406.368ZM517.68 407.672C517.68 408.544 518.208 409.16 519.024 409.16C519.28 409.16 519.6 409.112 519.84 409.032L519.848 408.072C519.712 408.104 519.536 408.128 519.424 408.128C519.088 408.128 518.88 407.896 518.88 407.552V405.816H519.808V404.904H518.88V403.872H517.872L517.736 404.904H517.104V405.816H517.68V407.672ZM522 404.904H520.8V409H522V404.904ZM520.704 403.68C520.704 404.08 520.992 404.36 521.4 404.36C521.808 404.36 522.096 404.08 522.096 403.68C522.096 403.288 521.808 403.008 521.4 403.008C520.992 403.008 520.704 403.288 520.704 403.68ZM524.189 409H525.901L527.333 404.904H526.045L525.045 408.088L524.037 404.904H522.757L524.189 409ZM530.958 405.472C530.638 405.016 530.15 404.744 529.566 404.744C528.414 404.744 527.606 405.656 527.606 406.952C527.606 408.248 528.414 409.16 529.566 409.16C530.15 409.16 530.638 408.888 530.958 408.432V409H532.158V404.904H530.958V405.472ZM529.878 408.104C529.254 408.104 528.806 407.616 528.806 406.952C528.806 406.288 529.254 405.8 529.878 405.8C530.502 405.8 530.95 406.288 530.95 406.952C530.95 407.616 530.502 408.104 529.878 408.104ZM533.508 407.672C533.508 408.544 534.036 409.16 534.852 409.16C535.108 409.16 535.428 409.112 535.668 409.032L535.676 408.072C535.54 408.104 535.364 408.128 535.252 408.128C534.916 408.128 534.708 407.896 534.708 407.552V405.816H535.636V404.904H534.708V403.872H533.7L533.564 404.904H532.932V405.816H533.508V407.672ZM539.7 405.472C539.38 405.016 538.892 404.744 538.308 404.744C537.156 404.744 536.348 405.656 536.348 406.952C536.348 408.248 537.156 409.16 538.308 409.16C538.892 409.16 539.38 408.888 539.7 408.432V409H540.9V404.904H539.7V405.472ZM538.62 408.104C537.996 408.104 537.548 407.616 537.548 406.952C537.548 406.288 537.996 405.8 538.62 405.8C539.244 405.8 539.692 406.288 539.692 406.952C539.692 407.616 539.244 408.104 538.62 408.104ZM542.25 407.672C542.25 408.544 542.778 409.16 543.594 409.16C543.85 409.16 544.17 409.112 544.41 409.032L544.418 408.072C544.282 408.104 544.106 408.128 543.994 408.128C543.658 408.128 543.45 407.896 543.45 407.552V405.816H544.378V404.904H543.45V403.872H542.442L542.306 404.904H541.674V405.816H542.25V407.672ZM547.378 408.24C546.834 408.24 546.434 407.864 546.33 407.288L549.538 407.296C549.554 407.208 549.554 407.04 549.554 406.936C549.554 405.64 548.658 404.744 547.346 404.744C546.026 404.744 545.09 405.64 545.09 406.92C545.09 408.24 546.026 409.16 547.346 409.16C548.314 409.16 549.154 408.64 549.37 407.928L548.322 407.696C548.178 408.008 547.81 408.24 547.378 408.24ZM546.322 406.568C546.426 406.024 546.794 405.664 547.322 405.664C547.866 405.664 548.266 406.048 548.338 406.568H546.322Z" fill="#BEC9D0"/>
</g>
<defs>
<filter id="filter0_d_1004_6798" x="10" y="0" width="680.4" height="457" filterUnits="userSpaceOnUse" color-interpolation-filters="sRGB">
<feFlood flood-opacity="0" result="BackgroundImageFix"/>
<feColorMatrix in="SourceAlpha" type="matrix" values="0 0 0 0 0 0 0 0 0 0 0 0 0 0 0 0 0 0 127 0" result="hardAlpha"/>
<feOffset dy="4"/>
<feGaussianBlur stdDeviation="2"/>
<feComposite in2="hardAlpha" operator="out"/>
<feColorMatrix type="matrix" values="0 0 0 0 0 0 0 0 0 0 0 0 0 0 0 0 0 0 0.25 0"/>
<feBlend mode="normal" in2="BackgroundImageFix" result="effect1_dropShadow_1004_6798"/>
<feBlend mode="normal" in="SourceGraphic" in2="effect1_dropShadow_1004_6798" result="shape"/>
</filter>
<filter id="filter1_ddd_1004_6798" x="0.844921" y="24.3115" width="650.31" height="440.31" filterUnits="userSpaceOnUse" color-interpolation-filters="sRGB">
<feFlood flood-opacity="0" result="BackgroundImageFix"/>
<feColorMatrix in="SourceAlpha" type="matrix" values="0 0 0 0 0 0 0 0 0 0 0 0 0 0 0 0 0 0 127 0" result="hardAlpha"/>
<feMorphology radius="2.46658" operator="erode" in="SourceAlpha" result="effect1_dropShadow_1004_6798"/>
<feOffset dy="4.11096"/>
<feGaussianBlur stdDeviation="2.05548"/>
<feColorMatrix type="matrix" values="0 0 0 0 0.364706 0 0 0 0 0.447059 0 0 0 0 0.54902 0 0 0 0.16 0"/>
<feBlend mode="normal" in2="BackgroundImageFix" result="effect1_dropShadow_1004_6798"/>
<feColorMatrix in="SourceAlpha" type="matrix" values="0 0 0 0 0 0 0 0 0 0 0 0 0 0 0 0 0 0 127 0" result="hardAlpha"/>
<feMorphology radius="1.64438" operator="dilate" in="SourceAlpha" result="effect2_dropShadow_1004_6798"/>
<feOffset dy="2.46658"/>
<feGaussianBlur stdDeviation="5.75535"/>
<feColorMatrix type="matrix" values="0 0 0 0 0.364706 0 0 0 0 0.447059 0 0 0 0 0.54902 0 0 0 0.08 0"/>
<feBlend mode="normal" in2="effect1_dropShadow_1004_6798" result="effect2_dropShadow_1004_6798"/>
<feColorMatrix in="SourceAlpha" type="matrix" values="0 0 0 0 0 0 0 0 0 0 0 0 0 0 0 0 0 0 127 0" result="hardAlpha"/>
<feMorphology radius="0.822192" operator="dilate" in="SourceAlpha" result="effect3_dropShadow_1004_6798"/>
<feOffset dy="6.57754"/>
<feGaussianBlur stdDeviation="4.11096"/>
<feColorMatrix type="matrix" values="0 0 0 0 0.364706 0 0 0 0 0.447059 0 0 0 0 0.54902 0 0 0 0.1 0"/>
<feBlend mode="normal" in2="effect2_dropShadow_1004_6798" result="effect3_dropShadow_1004_6798"/>
<feBlend mode="normal" in="SourceGraphic" in2="effect3_dropShadow_1004_6798" result="shape"/>
</filter>
<filter id="filter2_ddd_1004_6798" x="12.8449" y="36.3115" width="218.31" height="215.31" filterUnits="userSpaceOnUse" color-interpolation-filters="sRGB">
<feFlood flood-opacity="0" result="BackgroundImageFix"/>
<feColorMatrix in="SourceAlpha" type="matrix" values="0 0 0 0 0 0 0 0 0 0 0 0 0 0 0 0 0 0 127 0" result="hardAlpha"/>
<feMorphology radius="2.46658" operator="erode" in="SourceAlpha" result="effect1_dropShadow_1004_6798"/>
<feOffset dy="4.11096"/>
<feGaussianBlur stdDeviation="2.05548"/>
<feColorMatrix type="matrix" values="0 0 0 0 0.364706 0 0 0 0 0.447059 0 0 0 0 0.54902 0 0 0 0.16 0"/>
<feBlend mode="normal" in2="BackgroundImageFix" result="effect1_dropShadow_1004_6798"/>
<feColorMatrix in="SourceAlpha" type="matrix" values="0 0 0 0 0 0 0 0 0 0 0 0 0 0 0 0 0 0 127 0" result="hardAlpha"/>
<feMorphology radius="1.64438" operator="dilate" in="SourceAlpha" result="effect2_dropShadow_1004_6798"/>
<feOffset dy="2.46658"/>
<feGaussianBlur stdDeviation="5.75535"/>
<feColorMatrix type="matrix" values="0 0 0 0 0.364706 0 0 0 0 0.447059 0 0 0 0 0.54902 0 0 0 0.08 0"/>
<feBlend mode="normal" in2="effect1_dropShadow_1004_6798" result="effect2_dropShadow_1004_6798"/>
<feColorMatrix in="SourceAlpha" type="matrix" values="0 0 0 0 0 0 0 0 0 0 0 0 0 0 0 0 0 0 127 0" result="hardAlpha"/>
<feMorphology radius="0.822192" operator="dilate" in="SourceAlpha" result="effect3_dropShadow_1004_6798"/>
<feOffset dy="6.57754"/>
<feGaussianBlur stdDeviation="4.11096"/>
<feColorMatrix type="matrix" values="0 0 0 0 0.364706 0 0 0 0 0.447059 0 0 0 0 0.54902 0 0 0 0.1 0"/>
<feBlend mode="normal" in2="effect2_dropShadow_1004_6798" result="effect3_dropShadow_1004_6798"/>
<feBlend mode="normal" in="SourceGraphic" in2="effect3_dropShadow_1004_6798" result="shape"/>
</filter>
<filter id="filter3_ddd_1004_6798" x="12.8449" y="237.311" width="218.31" height="215.31" filterUnits="userSpaceOnUse" color-interpolation-filters="sRGB">
<feFlood flood-opacity="0" result="BackgroundImageFix"/>
<feColorMatrix in="SourceAlpha" type="matrix" values="0 0 0 0 0 0 0 0 0 0 0 0 0 0 0 0 0 0 127 0" result="hardAlpha"/>
<feMorphology radius="2.46658" operator="erode" in="SourceAlpha" result="effect1_dropShadow_1004_6798"/>
<feOffset dy="4.11096"/>
<feGaussianBlur stdDeviation="2.05548"/>
<feColorMatrix type="matrix" values="0 0 0 0 0.364706 0 0 0 0 0.447059 0 0 0 0 0.54902 0 0 0 0.16 0"/>
<feBlend mode="normal" in2="BackgroundImageFix" result="effect1_dropShadow_1004_6798"/>
<feColorMatrix in="SourceAlpha" type="matrix" values="0 0 0 0 0 0 0 0 0 0 0 0 0 0 0 0 0 0 127 0" result="hardAlpha"/>
<feMorphology radius="1.64438" operator="dilate" in="SourceAlpha" result="effect2_dropShadow_1004_6798"/>
<feOffset dy="2.46658"/>
<feGaussianBlur stdDeviation="5.75535"/>
<feColorMatrix type="matrix" values="0 0 0 0 0.364706 0 0 0 0 0.447059 0 0 0 0 0.54902 0 0 0 0.08 0"/>
<feBlend mode="normal" in2="effect1_dropShadow_1004_6798" result="effect2_dropShadow_1004_6798"/>
<feColorMatrix in="SourceAlpha" type="matrix" values="0 0 0 0 0 0 0 0 0 0 0 0 0 0 0 0 0 0 127 0" result="hardAlpha"/>
<feMorphology radius="0.822192" operator="dilate" in="SourceAlpha" result="effect3_dropShadow_1004_6798"/>
<feOffset dy="6.57754"/>
<feGaussianBlur stdDeviation="4.11096"/>
<feColorMatrix type="matrix" values="0 0 0 0 0.364706 0 0 0 0 0.447059 0 0 0 0 0.54902 0 0 0 0.1 0"/>
<feBlend mode="normal" in2="effect2_dropShadow_1004_6798" result="effect3_dropShadow_1004_6798"/>
<feBlend mode="normal" in="SourceGraphic" in2="effect3_dropShadow_1004_6798" result="shape"/>
</filter>
<filter id="filter4_ddd_1004_6798" x="420.845" y="36.3115" width="218.31" height="215.31" filterUnits="userSpaceOnUse" color-interpolation-filters="sRGB">
<feFlood flood-opacity="0" result="BackgroundImageFix"/>
<feColorMatrix in="SourceAlpha" type="matrix" values="0 0 0 0 0 0 0 0 0 0 0 0 0 0 0 0 0 0 127 0" result="hardAlpha"/>
<feMorphology radius="2.46658" operator="erode" in="SourceAlpha" result="effect1_dropShadow_1004_6798"/>
<feOffset dy="4.11096"/>
<feGaussianBlur stdDeviation="2.05548"/>
<feColorMatrix type="matrix" values="0 0 0 0 0.364706 0 0 0 0 0.447059 0 0 0 0 0.54902 0 0 0 0.16 0"/>
<feBlend mode="normal" in2="BackgroundImageFix" result="effect1_dropShadow_1004_6798"/>
<feColorMatrix in="SourceAlpha" type="matrix" values="0 0 0 0 0 0 0 0 0 0 0 0 0 0 0 0 0 0 127 0" result="hardAlpha"/>
<feMorphology radius="1.64438" operator="dilate" in="SourceAlpha" result="effect2_dropShadow_1004_6798"/>
<feOffset dy="2.46658"/>
<feGaussianBlur stdDeviation="5.75535"/>
<feColorMatrix type="matrix" values="0 0 0 0 0.364706 0 0 0 0 0.447059 0 0 0 0 0.54902 0 0 0 0.08 0"/>
<feBlend mode="normal" in2="effect1_dropShadow_1004_6798" result="effect2_dropShadow_1004_6798"/>
<feColorMatrix in="SourceAlpha" type="matrix" values="0 0 0 0 0 0 0 0 0 0 0 0 0 0 0 0 0 0 127 0" result="hardAlpha"/>
<feMorphology radius="0.822192" operator="dilate" in="SourceAlpha" result="effect3_dropShadow_1004_6798"/>
<feOffset dy="6.57754"/>
<feGaussianBlur stdDeviation="4.11096"/>
<feColorMatrix type="matrix" values="0 0 0 0 0.364706 0 0 0 0 0.447059 0 0 0 0 0.54902 0 0 0 0.1 0"/>
<feBlend mode="normal" in2="effect2_dropShadow_1004_6798" result="effect3_dropShadow_1004_6798"/>
<feBlend mode="normal" in="SourceGraphic" in2="effect3_dropShadow_1004_6798" result="shape"/>
</filter>
<filter id="filter5_ddd_1004_6798" x="216.845" y="237.311" width="218.31" height="215.31" filterUnits="userSpaceOnUse" color-interpolation-filters="sRGB">
<feFlood flood-opacity="0" result="BackgroundImageFix"/>
<feColorMatrix in="SourceAlpha" type="matrix" values="0 0 0 0 0 0 0 0 0 0 0 0 0 0 0 0 0 0 127 0" result="hardAlpha"/>
<feMorphology radius="2.46658" operator="erode" in="SourceAlpha" result="effect1_dropShadow_1004_6798"/>
<feOffset dy="4.11096"/>
<feGaussianBlur stdDeviation="2.05548"/>
<feColorMatrix type="matrix" values="0 0 0 0 0.364706 0 0 0 0 0.447059 0 0 0 0 0.54902 0 0 0 0.16 0"/>
<feBlend mode="normal" in2="BackgroundImageFix" result="effect1_dropShadow_1004_6798"/>
<feColorMatrix in="SourceAlpha" type="matrix" values="0 0 0 0 0 0 0 0 0 0 0 0 0 0 0 0 0 0 127 0" result="hardAlpha"/>
<feMorphology radius="1.64438" operator="dilate" in="SourceAlpha" result="effect2_dropShadow_1004_6798"/>
<feOffset dy="2.46658"/>
<feGaussianBlur stdDeviation="5.75535"/>
<feColorMatrix type="matrix" values="0 0 0 0 0.364706 0 0 0 0 0.447059 0 0 0 0 0.54902 0 0 0 0.08 0"/>
<feBlend mode="normal" in2="effect1_dropShadow_1004_6798" result="effect2_dropShadow_1004_6798"/>
<feColorMatrix in="SourceAlpha" type="matrix" values="0 0 0 0 0 0 0 0 0 0 0 0 0 0 0 0 0 0 127 0" result="hardAlpha"/>
<feMorphology radius="0.822192" operator="dilate" in="SourceAlpha" result="effect3_dropShadow_1004_6798"/>
<feOffset dy="6.57754"/>
<feGaussianBlur stdDeviation="4.11096"/>
<feColorMatrix type="matrix" values="0 0 0 0 0.364706 0 0 0 0 0.447059 0 0 0 0 0.54902 0 0 0 0.1 0"/>
<feBlend mode="normal" in2="effect2_dropShadow_1004_6798" result="effect3_dropShadow_1004_6798"/>
<feBlend mode="normal" in="SourceGraphic" in2="effect3_dropShadow_1004_6798" result="shape"/>
</filter>
<filter id="filter6_ddd_1004_6798" x="216.845" y="36.3115" width="218.31" height="215.31" filterUnits="userSpaceOnUse" color-interpolation-filters="sRGB">
<feFlood flood-opacity="0" result="BackgroundImageFix"/>
<feColorMatrix in="SourceAlpha" type="matrix" values="0 0 0 0 0 0 0 0 0 0 0 0 0 0 0 0 0 0 127 0" result="hardAlpha"/>
<feMorphology radius="2.46658" operator="erode" in="SourceAlpha" result="effect1_dropShadow_1004_6798"/>
<feOffset dy="4.11096"/>
<feGaussianBlur stdDeviation="2.05548"/>
<feColorMatrix type="matrix" values="0 0 0 0 0.364706 0 0 0 0 0.447059 0 0 0 0 0.54902 0 0 0 0.16 0"/>
<feBlend mode="normal" in2="BackgroundImageFix" result="effect1_dropShadow_1004_6798"/>
<feColorMatrix in="SourceAlpha" type="matrix" values="0 0 0 0 0 0 0 0 0 0 0 0 0 0 0 0 0 0 127 0" result="hardAlpha"/>
<feMorphology radius="1.64438" operator="dilate" in="SourceAlpha" result="effect2_dropShadow_1004_6798"/>
<feOffset dy="2.46658"/>
<feGaussianBlur stdDeviation="5.75535"/>
<feColorMatrix type="matrix" values="0 0 0 0 0.364706 0 0 0 0 0.447059 0 0 0 0 0.54902 0 0 0 0.08 0"/>
<feBlend mode="normal" in2="effect1_dropShadow_1004_6798" result="effect2_dropShadow_1004_6798"/>
<feColorMatrix in="SourceAlpha" type="matrix" values="0 0 0 0 0 0 0 0 0 0 0 0 0 0 0 0 0 0 127 0" result="hardAlpha"/>
<feMorphology radius="0.822192" operator="dilate" in="SourceAlpha" result="effect3_dropShadow_1004_6798"/>
<feOffset dy="6.57754"/>
<feGaussianBlur stdDeviation="4.11096"/>
<feColorMatrix type="matrix" values="0 0 0 0 0.364706 0 0 0 0 0.447059 0 0 0 0 0.54902 0 0 0 0.1 0"/>
<feBlend mode="normal" in2="effect2_dropShadow_1004_6798" result="effect3_dropShadow_1004_6798"/>
<feBlend mode="normal" in="SourceGraphic" in2="effect3_dropShadow_1004_6798" result="shape"/>
</filter>
<filter id="filter7_ddd_1004_6798" x="420.845" y="237.311" width="218.31" height="215.31" filterUnits="userSpaceOnUse" color-interpolation-filters="sRGB">
<feFlood flood-opacity="0" result="BackgroundImageFix"/>
<feColorMatrix in="SourceAlpha" type="matrix" values="0 0 0 0 0 0 0 0 0 0 0 0 0 0 0 0 0 0 127 0" result="hardAlpha"/>
<feMorphology radius="2.46658" operator="erode" in="SourceAlpha" result="effect1_dropShadow_1004_6798"/>
<feOffset dy="4.11096"/>
<feGaussianBlur stdDeviation="2.05548"/>
<feColorMatrix type="matrix" values="0 0 0 0 0.364706 0 0 0 0 0.447059 0 0 0 0 0.54902 0 0 0 0.16 0"/>
<feBlend mode="normal" in2="BackgroundImageFix" result="effect1_dropShadow_1004_6798"/>
<feColorMatrix in="SourceAlpha" type="matrix" values="0 0 0 0 0 0 0 0 0 0 0 0 0 0 0 0 0 0 127 0" result="hardAlpha"/>
<feMorphology radius="1.64438" operator="dilate" in="SourceAlpha" result="effect2_dropShadow_1004_6798"/>
<feOffset dy="2.46658"/>
<feGaussianBlur stdDeviation="5.75535"/>
<feColorMatrix type="matrix" values="0 0 0 0 0.364706 0 0 0 0 0.447059 0 0 0 0 0.54902 0 0 0 0.08 0"/>
<feBlend mode="normal" in2="effect1_dropShadow_1004_6798" result="effect2_dropShadow_1004_6798"/>
<feColorMatrix in="SourceAlpha" type="matrix" values="0 0 0 0 0 0 0 0 0 0 0 0 0 0 0 0 0 0 127 0" result="hardAlpha"/>
<feMorphology radius="0.822192" operator="dilate" in="SourceAlpha" result="effect3_dropShadow_1004_6798"/>
<feOffset dy="6.57754"/>
<feGaussianBlur stdDeviation="4.11096"/>
<feColorMatrix type="matrix" values="0 0 0 0 0.364706 0 0 0 0 0.447059 0 0 0 0 0.54902 0 0 0 0.1 0"/>
<feBlend mode="normal" in2="effect2_dropShadow_1004_6798" result="effect3_dropShadow_1004_6798"/>
<feBlend mode="normal" in="SourceGraphic" in2="effect3_dropShadow_1004_6798" result="shape"/>
</filter>
</defs>
</svg>
