<svg width="32" height="32" viewBox="0 0 32 32" fill="none" xmlns="http://www.w3.org/2000/svg">
<circle cx="16" cy="16" r="16" fill="white"/>
<path fill-rule="evenodd" clip-rule="evenodd" d="M11.6004 11.4397C11.6004 13.7597 13.5204 15.6797 15.8404 15.6797C18.1604 15.6797 20.0804 13.7597 20.0804 11.4397C20.0804 9.11971 18.1604 7.19971 15.8404 7.19971C13.5204 7.19971 11.6004 9.11971 11.6004 11.4397ZM13.2004 11.4397C13.2004 9.99971 14.4004 8.79971 15.8404 8.79971C17.2804 8.79971 18.4804 9.99971 18.4804 11.4397C18.4804 12.8797 17.2804 14.0797 15.8404 14.0797C14.4004 14.0797 13.2004 12.8797 13.2004 11.4397ZM15.5204 24.3197C15.6804 24.4797 15.8404 24.5597 16.0804 24.5597C16.3204 24.5597 16.4804 24.4797 16.7204 24.3197L18.3204 22.7197C18.5604 22.5597 18.6404 22.2397 18.5604 21.9997L18.0413 19.6268L18.9519 18.1597H19.4404C20.8804 18.1597 22.0804 19.3597 22.0804 20.7997V23.7597C22.0804 24.2397 22.4004 24.5597 22.8804 24.5597C23.3604 24.5597 23.6804 24.2397 23.6004 23.7597V20.7997C23.6004 18.4797 21.6804 16.5597 19.3604 16.5597H18.4802H13.6802H12.2404C9.92037 16.5597 8.00037 18.4797 8.00037 20.7997V23.7597C8.00037 24.2397 8.32037 24.5597 8.80037 24.5597C9.28037 24.5597 9.60037 24.2397 9.60037 23.7597V20.7997C9.60037 19.3597 10.8004 18.1597 12.2404 18.1597H13.2085L14.2292 19.8042L13.6804 21.9997C13.6004 22.2397 13.6804 22.5597 13.9204 22.7197L15.5204 24.3197ZM16.6847 18.7997H15.4758L15.1202 18.1597H17.0402L16.6847 18.7997ZM15.6804 20.4797L15.3604 21.9997L16.0804 22.7197L16.8004 21.9997L16.4804 20.4797H15.6804Z" fill="#205260"/>
</svg>
