<svg width="40" height="40" viewBox="0 0 40 40" fill="none" xmlns="http://www.w3.org/2000/svg">
<circle cx="20" cy="20" r="20" fill="white"/>
<path fill-rule="evenodd" clip-rule="evenodd" d="M14.5 14.3C14.5 17.2 16.9 19.6 19.8 19.6C22.7 19.6 25.1 17.2 25.1 14.3C25.1 11.4 22.7 9 19.8 9C16.9 9 14.5 11.4 14.5 14.3ZM16.5 14.3C16.5 12.5 18 11 19.8 11C21.6 11 23.1 12.5 23.1 14.3C23.1 16.1 21.6 17.6 19.8 17.6C18 17.6 16.5 16.1 16.5 14.3ZM19.4 30.4C19.6 30.6 19.8 30.7 20.1 30.7C20.4 30.7 20.6 30.6 20.9 30.4L22.9 28.4C23.2 28.2 23.3 27.8 23.2 27.5L22.5512 24.5339L23.6895 22.7H24.3C26.1 22.7 27.6 24.2 27.6 26V29.7C27.6 30.3 28 30.7 28.6 30.7C29.2 30.7 29.6 30.3 29.5 29.7V26C29.5 23.1 27.1 20.7 24.2 20.7H23.0998H17.0998H15.3C12.4 20.7 10 23.1 10 26V29.7C10 30.3 10.4 30.7 11 30.7C11.6 30.7 12 30.3 12 29.7V26C12 24.2 13.5 22.7 15.3 22.7H16.5101L17.7861 24.7557L17.1 27.5C17 27.8 17.1 28.2 17.4 28.4L19.4 30.4ZM20.8554 23.5H19.3442L18.8998 22.7H21.2998L20.8554 23.5ZM19.6 25.6L19.2 27.5L20.1 28.4L21 27.5L20.6 25.6H19.6Z" fill="#205260"/>
</svg>
