<svg width="119" height="27" viewBox="0 0 119 27" fill="none" xmlns="http://www.w3.org/2000/svg">
<g clip-path="url(#clip0_1_1960)">
<path d="M26.4124 13.122C26.4124 17.289 26.4124 21.4995 26.4124 25.6666C26.4124 26.0573 26.4553 26.0139 26.0693 26.0139C17.7497 26.0139 9.473 26.0139 1.1534 26.0139C0.724554 26.0139 0.767439 26.0573 0.767439 25.6666C0.767439 17.289 0.767439 8.86807 0.767439 0.490502C0.767439 0.490502 0.767439 0.490502 0.767439 0.447095C0.767439 0.143246 0.681669 0.0998386 1.11052 0.0998386C4.45551 0.0998386 7.80051 0.0998386 11.1455 0.0998386C16.1201 0.0998386 21.0518 0.0998386 26.0264 0.0998386C26.4553 0.0998386 26.4124 0.0564315 26.4124 0.490502C26.4124 4.70099 26.4124 8.91148 26.4124 13.122ZM17.6211 24.1474C17.7497 24.1908 17.8784 24.1908 18.007 24.1908C20.0655 24.1908 22.1239 24.1908 24.1824 24.1908C24.6113 24.1908 24.5684 24.2342 24.5684 23.8001C24.5684 16.6813 24.5684 9.56258 24.5684 2.44382C24.5684 1.96634 24.6113 2.00975 24.1395 2.00975C17.1065 2.00975 10.0734 2.00975 3.04032 2.00975C2.99744 2.00975 2.91167 2.00975 2.86878 2.00975C2.61147 2.00975 2.61147 2.00975 2.61147 2.27019C2.61147 2.3136 2.61147 2.35701 2.61147 2.40041C2.61147 4.09329 2.61147 5.74276 2.61147 7.43563C2.61147 7.47904 2.61147 7.56586 2.61147 7.60926C2.61147 7.73948 2.65436 7.78289 2.78301 7.78289C2.99744 7.73948 3.21186 7.73948 3.42628 7.69608C3.89801 7.60926 4.32686 7.47904 4.79859 7.39223C5.48474 7.26201 6.12801 7.17519 6.81416 7.13178C7.41455 7.08838 7.97205 7.08838 8.57243 7.13178C9.34435 7.17519 9.98762 6.95816 10.5451 6.39386C10.8024 6.13342 11.0597 5.87298 11.2742 5.61254C11.703 5.13506 12.1318 4.61417 12.6036 4.1801C14.1045 2.9213 15.8628 2.44382 17.7926 2.83448C18.9505 3.05152 19.9368 3.61581 20.6659 4.57077C21.3091 5.3955 21.738 6.30705 22.1239 7.26201C22.4241 8.04333 22.5957 8.86807 22.5528 9.73621C22.5099 10.2571 22.4241 10.8214 22.1239 11.2989C21.9953 11.4725 21.8666 11.6027 21.6522 11.6027C21.352 11.6027 21.1376 11.7763 20.9661 12.0368C20.7088 12.4274 20.4086 12.7747 20.1084 13.122C19.9797 13.2522 19.8511 13.3824 19.6795 13.3824C19.5509 13.3824 19.4651 13.4692 19.4222 13.5994C19.2936 13.9467 19.1649 14.2505 19.0363 14.5544C18.9076 14.8582 18.8218 15.1187 18.6932 15.4225C18.4788 15.8566 18.2215 15.9 17.8355 15.6396C17.7497 15.5528 17.664 15.4659 17.5353 15.4225L17.4924 15.4659C17.4066 15.5962 17.278 15.7264 17.1922 15.8566C16.9349 16.1605 16.9349 16.1605 17.1922 16.5077C17.8784 17.4193 18.5216 18.3308 18.9934 19.3292C19.3793 20.1973 19.4651 21.1089 18.9934 21.977C18.7361 22.4979 18.4359 22.9754 18.1786 23.4963C17.9213 23.5831 17.7926 23.8435 17.6211 24.1474ZM11.703 24.1474C11.8317 24.1474 11.9603 24.1474 12.1318 24.1474C12.2605 24.1474 12.3892 24.104 12.5178 24.0171C13.1611 23.4963 13.8043 22.932 14.4047 22.4111C14.7049 22.1506 15.048 21.8902 15.3482 21.6297C15.777 21.2391 15.6913 20.7616 15.2195 20.5012C14.9193 20.3275 14.662 20.1105 14.4905 19.8067C14.2761 19.3726 14.0188 18.9385 13.8043 18.5044C13.7186 18.3308 13.5899 18.244 13.4184 18.2006C13.2897 18.1572 13.1182 18.1572 12.9895 18.0704C12.7751 17.9401 12.6036 18.027 12.3892 18.1138C12.2176 18.244 12.0461 18.3308 11.8317 18.461C11.6601 18.5913 11.4457 18.6347 11.2313 18.7215C11.1455 18.7649 11.0168 18.7649 10.9311 18.6781C10.8024 18.5478 10.7167 18.6347 10.588 18.6781C10.4593 18.7215 10.3736 18.8083 10.3736 18.9819C10.3307 19.5028 10.2449 19.9803 10.1592 20.5012C10.0734 20.9352 10.1163 21.3259 10.2878 21.76C10.5022 22.3243 10.7167 22.932 10.8882 23.5397C10.9311 23.7567 10.8882 24.0171 11.1026 24.104C11.2313 24.1908 11.4886 24.1474 11.703 24.1474ZM10.3736 17.4193C10.6738 17.2022 10.9311 16.9418 11.1026 16.6379C11.3599 16.2039 11.6601 15.9 12.1318 15.8566C12.2605 15.8566 12.3034 15.7698 12.2176 15.6396C12.089 15.4659 11.9603 15.2489 11.8317 15.0753C11.6172 14.8148 11.5743 14.7714 11.2313 14.8582C10.8453 14.9885 10.5022 15.1187 10.1163 15.2055C9.98762 15.2489 9.94473 15.2923 9.98762 15.4225C10.1163 16.117 10.2878 16.7247 10.3736 17.4193Z" fill="#1A938A"/>
<path d="M91.0831 18.7651C90.0538 16.1173 89.0675 13.4694 88.0383 10.8216C87.9954 10.8216 87.9954 10.8216 87.9525 10.8216C86.9233 13.4694 85.9369 16.1173 84.9077 18.7651C84.8648 18.7651 84.8648 18.7651 84.8219 18.7651C83.5354 15.0755 82.2917 11.3859 81.0052 7.69628C81.091 7.60946 81.1767 7.60946 81.2625 7.60946C81.5627 7.60946 81.8629 7.60946 82.1631 7.60946C82.4633 7.60946 82.4633 7.60946 82.549 7.86991C82.8063 8.73805 83.1065 9.60619 83.3638 10.4309C83.8356 11.8634 84.3073 13.2958 84.7361 14.7282C84.779 14.815 84.8219 14.9019 84.8648 15.0755C85.894 12.4276 86.9233 9.82323 87.9525 7.26221H87.9954C89.0246 9.82323 90.0109 12.4277 91.0402 15.0321C91.1688 14.9019 91.1688 14.7716 91.2117 14.6848C91.9408 12.4276 92.6698 10.1705 93.3988 7.91331C93.3988 7.86991 93.4417 7.78309 93.4417 7.73969C93.4846 7.60946 93.5704 7.56606 93.6561 7.56606C93.9992 7.56606 94.3423 7.56606 94.6854 7.56606C94.8998 7.56606 94.9427 7.56606 94.8569 7.78309C94.6425 8.4342 94.4281 9.0853 94.1708 9.73641C93.1844 12.6013 92.1981 15.4227 91.2117 18.2876C91.1688 18.4178 91.1259 18.5046 91.0831 18.6349C91.1259 18.7651 91.1259 18.7651 91.0831 18.7651Z" fill="#1A938A"/>
<path d="M68.2249 18.7651C65.5232 15.987 62.8215 13.209 60.1197 10.4309C60.034 10.5611 60.0769 10.6914 60.0769 10.7782C60.0769 13.209 60.0769 15.5964 60.0769 18.0272C60.0769 18.0706 60.0769 18.1574 60.0769 18.2008C60.0769 18.4612 60.0769 18.4612 59.8196 18.4612C59.5194 18.4612 59.2621 18.4612 58.9619 18.4612C58.7903 18.4612 58.7046 18.4178 58.7474 18.2442C58.7474 18.2008 58.7474 18.1574 58.7474 18.114C58.7474 14.598 58.7474 11.1254 58.7474 7.60946C58.7474 7.52265 58.7474 7.43584 58.7474 7.26221C59.4765 7.95672 60.1197 8.69464 60.8059 9.38915C61.4921 10.0837 62.1782 10.8216 62.8644 11.5161C63.5505 12.2106 64.2367 12.9051 64.8799 13.5996C65.5661 14.2942 66.2094 14.9887 66.8955 15.6832C66.8955 15.6832 66.9384 15.6832 66.9384 15.6398C66.9384 15.5096 66.9384 15.4227 66.9384 15.2925C66.9384 12.8617 66.9384 10.4309 66.9384 8.00013C66.9384 7.91331 66.9384 7.86991 66.9384 7.78309C66.9384 7.65287 66.9813 7.56606 67.1528 7.56606C67.453 7.56606 67.7961 7.56606 68.0963 7.56606C68.2249 7.56606 68.3107 7.60946 68.2678 7.73969C68.2678 7.78309 68.2678 7.8265 68.2678 7.86991C68.2678 11.3859 68.2678 14.9453 68.2678 18.4612C68.2678 18.5046 68.2678 18.5915 68.2678 18.6349C68.2678 18.7651 68.2678 18.7651 68.2249 18.7651Z" fill="#1A938A"/>
<path d="M42.0656 13.0353C42.0656 11.3858 42.0656 9.69291 42.0656 8.04345C42.0656 7.95663 42.0656 7.91322 42.0656 7.82641C42.0656 7.69619 42.1084 7.60938 42.28 7.60938C42.5802 7.60938 42.8804 7.60938 43.1805 7.60938C43.395 7.60938 43.395 7.60938 43.395 7.86982C43.395 8.43411 43.395 9.04181 43.395 9.6061C43.395 10.3006 43.395 10.9951 43.395 11.6896C43.395 11.9501 43.395 11.9501 43.6523 11.9501C45.239 11.9501 46.8257 11.9501 48.3696 11.9501C48.6269 11.9501 48.6269 11.9501 48.6269 11.6896C48.6269 10.5177 48.6269 9.30225 48.6269 8.13026C48.6269 8.04345 48.6269 8.00004 48.6269 7.91322C48.6269 7.69619 48.6269 7.65278 48.8413 7.65278C49.1415 7.65278 49.4417 7.65278 49.7419 7.65278C49.9134 7.65278 49.9563 7.69619 49.9563 7.86982C49.9563 7.95663 49.9563 8.00004 49.9563 8.08685C49.9563 11.4292 49.9563 14.7715 49.9563 18.0705C49.9563 18.5046 49.9992 18.4611 49.5703 18.4611C49.313 18.4611 49.0557 18.4611 48.7984 18.4611C48.6698 18.4611 48.6269 18.4177 48.6269 18.2875C48.6269 18.2007 48.6269 18.1573 48.6269 18.0705C48.6269 16.5946 48.6269 15.1188 48.6269 13.643C48.6269 13.5996 48.6269 13.5561 48.6269 13.4693C48.6269 13.2089 48.6269 13.2089 48.3696 13.2089C48.0265 13.2089 47.6834 13.2089 47.3403 13.2089C46.1396 13.2089 44.9817 13.2089 43.7809 13.2089C43.6952 13.2089 43.6523 13.2089 43.5665 13.2089C43.4379 13.2089 43.395 13.2523 43.395 13.3825C43.395 13.4693 43.395 13.5561 43.395 13.643C43.395 15.1188 43.395 16.5512 43.395 18.0271C43.395 18.1139 43.395 18.1573 43.395 18.2441C43.395 18.3743 43.3521 18.4611 43.1805 18.4611C42.8804 18.4611 42.5802 18.4611 42.28 18.4611C42.0656 18.4611 42.0656 18.4611 42.0656 18.2007C42.0656 17.5062 42.0656 16.8117 42.0656 16.0738C42.0656 15.0754 42.0656 14.077 42.0656 13.0353Z" fill="#1A938A"/>
<path d="M73.372 11.9937C73.5436 11.9503 73.5865 11.8201 73.6722 11.7767C74.9588 10.4745 76.2453 9.17226 77.5318 7.82664C77.6605 7.69642 77.832 7.6096 78.0465 7.6096C78.5182 7.6096 78.9899 7.6096 79.4616 7.6096C79.4188 7.78323 79.333 7.82664 79.2472 7.91345C77.7463 9.38929 76.2882 10.9085 74.7872 12.3844C74.4442 12.7316 74.487 12.6448 74.7872 12.9487C76.374 14.685 77.9178 16.4646 79.5045 18.2009C79.5474 18.2443 79.6332 18.2877 79.6332 18.3746C79.5903 18.4614 79.5045 18.418 79.4188 18.418C78.9899 18.418 78.5182 18.418 78.0893 18.418C77.9178 18.418 77.832 18.3746 77.7034 18.2443C76.5884 16.9855 75.4734 15.7267 74.3584 14.4679C74.144 14.2075 73.9295 13.9904 73.7151 13.73C73.6722 13.6866 73.6294 13.5564 73.5007 13.5998C73.4149 13.6432 73.3292 13.73 73.3292 13.8168C73.3292 13.9036 73.3292 13.9904 73.3292 14.0773C73.3292 15.3795 73.3292 16.6817 73.3292 17.9839C73.3292 18.0707 73.3292 18.1141 73.3292 18.2009C73.3292 18.3312 73.2863 18.418 73.1147 18.418C72.8145 18.418 72.4715 18.418 72.1713 18.418C72.0426 18.418 71.9569 18.3746 71.9997 18.2443C71.9997 18.2009 71.9997 18.1141 71.9997 18.0707C71.9997 14.7284 71.9997 11.3426 71.9997 8.00027C71.9997 7.5662 71.9569 7.6096 72.3857 7.6096C72.6001 7.6096 72.8145 7.6096 73.029 7.6096C73.3292 7.6096 73.3292 7.6096 73.3292 7.91345C73.3292 8.73819 73.3292 9.56292 73.3292 10.3877C73.372 10.9519 73.372 11.4728 73.372 11.9937Z" fill="#1A938A"/>
<path d="M97.6877 12.9919C97.6877 11.3424 97.6877 9.69291 97.6877 8.04345C97.6877 7.95663 97.6877 7.91322 97.6877 7.82641C97.6877 7.69619 97.7306 7.60938 97.9022 7.60938C98.2452 7.60938 98.5454 7.60938 98.8885 7.60938C100.261 7.60938 101.59 7.60938 102.963 7.60938C103.048 7.60938 103.091 7.60938 103.177 7.60938C103.263 7.60938 103.349 7.65278 103.349 7.7396C103.349 8.04345 103.349 8.3907 103.349 8.69455C103.349 8.78137 103.306 8.86818 103.22 8.86818C103.134 8.86818 103.091 8.86818 103.005 8.86818C101.848 8.86818 100.69 8.86818 99.4889 8.86818C99.4031 8.86818 99.3602 8.86818 99.2745 8.86818C99.1029 8.86818 99.06 8.91159 99.06 9.08522C99.06 9.69292 99.06 10.2572 99.06 10.8649C99.06 11.1253 99.06 11.3858 99.06 11.6462C99.06 11.8199 99.1029 11.8633 99.2745 11.8633C99.7033 11.8633 100.132 11.8633 100.561 11.8633C101.376 11.8633 102.148 11.8633 102.963 11.8633C103.22 11.8633 103.22 11.8633 103.22 12.1237C103.22 12.3842 103.22 12.6446 103.22 12.905C103.22 13.0787 103.177 13.1221 103.005 13.1221C102.791 13.1221 102.577 13.1221 102.362 13.1221C101.376 13.1221 100.347 13.1221 99.3602 13.1221C99.06 13.1221 99.06 13.1221 99.06 13.4259C99.06 14.5545 99.06 15.7265 99.06 16.8551C99.06 17.1589 99.06 17.1589 99.3602 17.1589C100.561 17.1589 101.762 17.1589 102.963 17.1589C103.048 17.1589 103.091 17.1589 103.177 17.1589C103.306 17.1589 103.349 17.2023 103.349 17.3326C103.349 17.6364 103.349 17.9403 103.349 18.2441C103.349 18.3743 103.306 18.4177 103.177 18.4177C103.134 18.4177 103.048 18.4177 103.005 18.4177C101.376 18.4177 99.7033 18.4177 98.0737 18.4177C98.0308 18.4177 97.9879 18.4177 97.9022 18.4177C97.7735 18.4177 97.6877 18.3743 97.6877 18.2441C97.6877 18.1573 97.6877 18.0705 97.6877 17.9837C97.6877 16.3342 97.6877 14.6847 97.6877 12.9919Z" fill="#1A938A"/>
<path d="M36.706 13.6865C36.706 15.1623 36.706 16.5948 36.706 18.0706C36.706 18.114 36.706 18.1574 36.706 18.2442C36.706 18.4613 36.706 18.4613 36.4916 18.5047C36.1914 18.5047 35.8912 18.5047 35.591 18.5047C35.4623 18.5047 35.3766 18.4613 35.3766 18.2876C35.3766 18.2008 35.3766 18.114 35.3766 18.0272C35.3766 15.1189 35.3766 12.2106 35.3766 9.30236C35.3766 8.86829 35.4194 8.9117 34.9906 8.9117C34.3902 8.9117 33.7898 8.9117 33.1466 8.9117C32.8464 8.9117 32.8464 8.9117 32.8464 8.56444C32.8464 8.304 32.8464 8.08696 32.8464 7.82652C32.8464 7.6963 32.8893 7.60949 33.0179 7.65289C33.0608 7.65289 33.1466 7.65289 33.1894 7.65289C35.0764 7.65289 37.0062 7.65289 38.8931 7.65289C38.9789 7.65289 39.0217 7.65289 39.1075 7.65289C39.1933 7.65289 39.2791 7.6963 39.2791 7.82652C39.2791 8.17378 39.2791 8.47763 39.2791 8.82488C39.2791 8.9117 39.2362 8.95511 39.1504 8.95511C39.0646 8.95511 39.0217 8.95511 38.936 8.95511C38.2927 8.95511 37.6923 8.95511 37.0491 8.95511C36.706 8.95511 36.706 8.9117 36.706 9.30236C36.706 10.7348 36.706 12.2106 36.706 13.6865Z" fill="#1A938A"/>
<path d="M106.821 13.0353C106.821 11.3858 106.821 9.73637 106.821 8.0869C106.821 8.00009 106.821 7.95668 106.821 7.86987C106.821 7.73965 106.864 7.65283 107.035 7.65283C107.336 7.65283 107.679 7.65283 107.979 7.65283C108.15 7.65283 108.193 7.73965 108.193 7.86987C108.193 7.95668 108.193 8.00009 108.193 8.0869C108.193 10.9518 108.193 13.86 108.193 16.7249C108.193 16.7683 108.193 16.8551 108.193 16.8985C108.193 17.159 108.193 17.159 108.493 17.159C109.265 17.159 110.08 17.159 110.852 17.159C111.109 17.159 111.109 17.159 111.109 17.4194C111.109 17.6799 111.109 17.9403 111.109 18.2008C111.109 18.3744 111.066 18.4178 110.895 18.4178C109.608 18.4178 108.322 18.4178 107.035 18.4178C106.864 18.4178 106.821 18.3744 106.821 18.2008C106.821 18.1139 106.821 18.0705 106.821 17.9837C106.821 16.3777 106.821 14.6848 106.821 13.0353Z" fill="#1A938A"/>
<path d="M113.769 13.0353C113.769 11.3858 113.769 9.69296 113.769 8.0435C113.769 7.95668 113.769 7.91327 113.769 7.82646C113.769 7.69624 113.812 7.65283 113.941 7.65283C114.284 7.65283 114.584 7.65283 114.927 7.65283C115.056 7.65283 115.099 7.69624 115.099 7.82646C115.099 7.86987 115.099 7.95668 115.099 8.00009C115.099 10.9518 115.099 13.86 115.099 16.8117C115.099 16.8551 115.099 16.8985 115.099 16.9419C115.099 17.159 115.099 17.2024 115.356 17.2024C116.128 17.2024 116.943 17.2024 117.715 17.2024C118.015 17.2024 118.015 17.2024 118.015 17.5062C118.015 17.7233 118.015 17.9837 118.015 18.2008C118.015 18.4612 118.015 18.4612 117.758 18.4612C116.685 18.4612 115.656 18.4612 114.584 18.4612C114.37 18.4612 114.155 18.4612 113.941 18.4612C113.812 18.4612 113.769 18.4178 113.769 18.2876C113.769 18.2008 113.769 18.1573 113.769 18.0705C113.769 16.3777 113.769 14.6848 113.769 13.0353Z" fill="#1A938A"/>
<path d="M55.0166 13.0788C55.0166 14.7716 55.0166 16.4211 55.0166 18.114C55.0166 18.1574 55.0166 18.2008 55.0166 18.2876C55.0166 18.4612 54.9308 18.5047 54.8022 18.5047C54.502 18.5047 54.2018 18.5047 53.9016 18.5047C53.6872 18.5047 53.6872 18.5047 53.6872 18.2876C53.6872 17.7233 53.6872 17.159 53.6872 16.5947C53.6872 13.7733 53.6872 10.9518 53.6872 8.08695C53.6872 8.04355 53.6872 8.00014 53.6872 7.95673C53.6872 7.69629 53.6872 7.69629 53.9445 7.69629C54.2447 7.69629 54.5449 7.69629 54.8451 7.69629C55.0166 7.69629 55.0595 7.7397 55.0595 7.91332C55.0595 8.47762 55.0595 8.9985 55.0595 9.56279C55.0166 10.648 55.0166 11.8634 55.0166 13.0788Z" fill="#1A938A"/>
<path d="M118.658 8.3907C118.487 8.60774 118.444 8.86818 118.272 9.12862C118.144 8.86818 118.058 8.65115 117.929 8.3907H117.886C117.843 8.52092 117.843 8.65115 117.801 8.78137C117.801 8.82477 117.801 8.91159 117.758 8.955C117.758 9.04181 117.672 9.04181 117.629 9.04181C117.543 9.04181 117.543 8.955 117.586 8.91159C117.586 8.78137 117.629 8.69455 117.629 8.56433C117.672 8.26048 117.758 7.95663 117.801 7.60938C118.015 7.91322 118.058 8.26048 118.272 8.56433C118.487 8.30389 118.53 7.95663 118.701 7.69619C118.83 7.69619 118.787 7.783 118.787 7.82641C118.83 8.17367 118.916 8.52092 118.958 8.86818C118.958 8.955 119.001 9.04181 118.916 9.04181C118.787 9.08522 118.787 8.9984 118.744 8.91159C118.744 8.73796 118.744 8.56433 118.658 8.3907Z" fill="#1A938A"/>
<path d="M117.028 8.47762C117.028 8.60784 117.028 8.78147 117.028 8.91169C117.028 8.9985 117.028 9.08532 116.899 9.04191C116.813 9.04191 116.814 8.95509 116.814 8.91169C116.814 8.73806 116.814 8.60784 116.814 8.43421C116.814 8.3474 116.814 8.21717 116.814 8.13036C116.814 8.00014 116.814 7.91332 116.642 7.91332C116.556 7.91332 116.513 7.86992 116.513 7.7831C116.513 7.69629 116.556 7.69629 116.642 7.69629C116.856 7.69629 117.028 7.69629 117.242 7.69629C117.285 7.69629 117.328 7.69629 117.328 7.7831C117.328 7.82651 117.328 7.86992 117.285 7.86992C116.942 7.86992 117.028 8.08695 117.028 8.30399C117.028 8.3908 117.071 8.43421 117.028 8.47762Z" fill="#1A938A"/>
</g>
<defs>
<clipPath id="clip0_1_1960">
<rect width="118.233" height="25.914" fill="white" transform="translate(0.767273 0.100098)"/>
</clipPath>
</defs>
</svg>
