<svg width="111" height="111" viewBox="0 0 111 111" fill="none" xmlns="http://www.w3.org/2000/svg">
<g clip-path="url(#clip0_1_2012)">
<g clip-path="url(#clip1_1_2012)">
<path d="M61.5297 57.0807C63.6581 61.1215 63.4631 62.4534 60.3189 65.4212C56.5645 68.963 52.7858 72.4801 48.9275 76.0923L27.9271 56.3358L62.6537 23.7185C79.3849 25.2746 94.5962 29.9396 105.67 43.2636C113.163 52.2802 112.611 64.3238 104.061 73.38C96.8536 81.0141 87.6062 85.381 77.3887 87.8503C77.2303 87.8612 77.0712 87.8379 76.923 87.7819C76.7748 87.726 76.6409 87.6389 76.5307 87.5267C83.4768 85.6879 89.9238 82.8593 95.6018 78.6205C98.5118 76.5323 101.143 74.0944 103.435 71.364C109.932 63.2691 109.221 53.2666 101.82 45.8879C93.7581 37.8514 83.5716 33.8764 72.5603 31.6333C69.7016 31.0503 66.7832 30.7518 63.7615 30.3039L36.583 55.9141C40.6058 60.3326 44.5096 64.6208 48.5879 69.0996L61.5297 57.0807Z" fill="#006839"/>
<path d="M47.3801 81.0396L75.4584 54.5755L62.1732 42.1141L49.8292 53.6158C47.6296 50.3491 47.7463 48.8336 50.4566 46.2668C54.3204 42.6081 58.225 38.991 62.2599 35.2185L82.9809 54.7468C71.4755 65.5679 60.1426 76.2232 48.5283 87.1443C31.2289 85.6896 15.456 80.6604 4.49209 66.2078C-0.339134 59.8393 -0.967811 52.4062 2.42828 45.1546C8.55082 32.08 21.0105 27.5507 33.6346 23.4263C27.2401 25.409 21.1043 28.1283 15.7241 32.1627C12.6186 34.4929 9.57376 37.1205 7.2192 40.1506C1.01844 48.1307 1.90185 57.8204 9.00336 65.0467C16.7533 72.9313 26.5454 76.9513 37.1807 79.3142C40.5102 80.0522 43.9153 80.463 47.3801 81.0396Z" fill="#B09430"/>
<path d="M60.4286 46.6626C62.381 50.2653 62.1285 52.8847 60.2266 54.9496C56.9142 58.5489 53.5659 62.114 50.1001 65.8311C47.7658 62.4347 48.2797 59.367 50.3638 57.408C53.8093 54.1695 56.8554 50.5242 60.4286 46.6626Z" fill="#006839"/>
</g>
</g>
<defs>
<clipPath id="clip0_1_2012">
<rect width="110.615" height="110.475" fill="white" transform="translate(0.291748 0.406006)"/>
</clipPath>
<clipPath id="clip1_1_2012">
<rect width="110.615" height="64.4436" fill="white" transform="translate(0.291748 23.4216)"/>
</clipPath>
</defs>
</svg>
