<svg width="375" height="1490" viewBox="0 0 375 1490" fill="none" xmlns="http://www.w3.org/2000/svg">
<path d="M1417.2 336.061C1403.97 238.564 1374.06 142.996 1322.76 81.3768C1268.33 16.014 1195.55 -4.45871 1126.35 0.781829C1057.16 6.02237 989.765 34.5862 922.179 57.8807C708.537 131.507 487.243 153.333 269.142 122.322C143.777 104.498 13.1957 70.291 -104.934 136.633C-242.751 214.032 -340.002 434.595 -334.938 658.268L-345.953 933.685C-377.073 1017.19 -356.648 1127.53 -314.607 1199.05C-272.567 1270.58 -213.408 1312.07 -156.006 1351.66C-80.7673 1403.52 -4.54639 1455.87 76.8139 1477.46C219.412 1515.3 364.938 1455.75 502.283 1386.13C639.628 1316.5 777.559 1235.28 922.235 1228.31C990.18 1225.02 1058.14 1238.33 1126.09 1234.87C1194.03 1231.42 1264.47 1209.1 1317.42 1144.08C1364.67 1086.03 1393.54 998.932 1408.26 909.181C1423 819.43 1424.85 726.136 1426.65 633.649C1428.57 534.137 1430.43 433.559 1417.22 336.09L1417.2 336.061Z" fill="#FCF9F3"/>
</svg>
