<svg width="32" height="32" viewBox="0 0 32 32" fill="none" xmlns="http://www.w3.org/2000/svg">
<circle cx="16" cy="16" r="16" fill="white"/>
<path fill-rule="evenodd" clip-rule="evenodd" d="M16.0004 24.7997C11.2004 22.6614 8.80042 20.528 8.80042 18.3997V10.3997C8.80042 9.78563 9.03609 9.64292 9.68836 9.24794C9.88585 9.12835 10.1215 8.98563 10.4004 8.79971C10.5298 8.71342 13.251 7.19971 16.0004 7.19971C18.3966 7.19971 20.4004 7.99971 21.6004 8.79971C21.8793 8.98563 22.115 9.12835 22.3125 9.24794C22.9647 9.64292 23.2004 9.78563 23.2004 10.3997C23.2162 10.5735 23.2084 14.2687 23.2035 16.6348V16.6349V16.6351V16.6355V16.6355V16.6356V16.6357C23.2018 17.4425 23.2004 18.0946 23.2004 18.3997C23.2004 20.533 20.8004 22.6664 16.0004 24.7997ZM21.6004 18.3997C21.6004 18.2155 21.6009 17.9067 21.6019 17.4035L21.6051 15.8408L21.6076 14.4875C21.6106 12.7018 21.6098 11.1692 21.6081 10.6951L21.4982 10.6269C21.2395 10.4664 20.9023 10.2573 20.7129 10.131C19.5319 9.34364 17.8086 8.79971 16.0004 8.79971C14.2709 8.79971 12.0233 9.64073 11.2879 10.131C11.0985 10.2573 10.7614 10.4664 10.5027 10.6269L10.5027 10.6269L10.5027 10.6269L10.5027 10.6269L10.4004 10.6904V18.3997C10.4004 19.6065 12.1837 21.2547 16.0012 23.0413C19.8181 21.2587 21.6004 19.6111 21.6004 18.3997ZM20.0004 15.1997C20.0004 14.3161 19.2841 13.5997 18.4004 13.5997L18.4004 11.9997C18.4004 10.6742 17.3259 9.59971 16.0004 9.59971C14.6749 9.59971 13.6004 10.6742 13.6004 11.9997L13.6004 13.5997C12.7168 13.5997 12.0004 14.3161 12.0004 15.1997V18.3997C12.0004 19.2834 12.7168 19.9997 13.6004 19.9997H18.4004C19.2841 19.9997 20.0004 19.2834 20.0004 18.3997V15.1997ZM16.8004 11.9997V13.5997H15.2004V11.9997C15.2004 11.5579 15.5586 11.1997 16.0004 11.1997C16.4422 11.1997 16.8004 11.5579 16.8004 11.9997ZM13.6004 18.3997V15.1997H18.4004V18.3997H13.6004ZM15.2004 16.7997C15.2004 17.2415 15.5586 17.5997 16.0004 17.5997C16.4422 17.5997 16.8004 17.2415 16.8004 16.7997C16.8004 16.3579 16.4422 15.9997 16.0004 15.9997C15.5586 15.9997 15.2004 16.3579 15.2004 16.7997Z" fill="#205260"/>
</svg>
