<svg width="77" height="37" viewBox="0 0 77 37" fill="none" xmlns="http://www.w3.org/2000/svg">
<g clip-path="url(#clip0_1_2567)">
<path d="M73.8576 36.8905H14.7372C14.0112 36.8888 13.3156 36.5909 12.8029 36.0623C12.2902 35.5336 12.0022 34.8174 12.0022 34.0706C12.0022 33.3245 12.2904 32.609 12.8033 32.0814C13.3162 31.5538 14.0118 31.2574 14.7372 31.2574H69.353C61.9846 19.1306 48.9662 16.463 48.8181 16.4365L48.6508 16.3968C37.1253 13.3783 26.2884 15.4634 16.4747 22.5793C12.0362 25.7634 8.16729 29.714 5.0393 34.256C4.84531 34.5677 4.5933 34.8368 4.29778 35.048C4.00226 35.2591 3.66908 35.408 3.31739 35.4861C2.9657 35.5642 2.60246 35.5701 2.24858 35.5032C1.8947 35.4364 1.55715 35.2982 1.25539 35.0967C0.646095 34.6912 0.217928 34.0539 0.0647295 33.3243C-0.0884693 32.5947 0.0458062 31.8324 0.438121 31.2044C3.93786 26.0472 8.2948 21.5655 13.3086 17.9656C24.3257 9.98256 36.9902 7.53999 49.9314 10.9027C51.5145 11.2336 68.7931 15.192 76.3995 32.9255C76.5778 33.3509 76.6517 33.8149 76.6146 34.2766C76.5776 34.7383 76.4308 35.1836 76.1872 35.5733C75.9385 35.9772 75.5944 36.3098 75.1871 36.5401C74.7798 36.7704 74.3224 36.891 73.8576 36.8905Z" fill="white"/>
<path d="M43.1028 -0.000244141H33.5143C32.0038 -0.000244141 30.7793 1.25929 30.7793 2.81301V2.81963C30.7793 4.37335 32.0038 5.63289 33.5143 5.63289H43.1028C44.6132 5.63289 45.8377 4.37335 45.8377 2.81963V2.81301C45.8377 1.25929 44.6132 -0.000244141 43.1028 -0.000244141Z" fill="white"/>
</g>
<defs>
<clipPath id="clip0_1_2567">
<rect width="76.6178" height="36.8901" fill="white"/>
</clipPath>
</defs>
</svg>
