<svg width="32" height="32" viewBox="0 0 32 32" fill="none" xmlns="http://www.w3.org/2000/svg">
<path fill-rule="evenodd" clip-rule="evenodd" d="M9.33301 9.33342V13.3333H7.99967C6.57521 13.3333 5.33301 14.3684 5.33301 15.7777V26.8888C5.33301 28.2981 6.57521 29.3333 7.99967 29.3333H23.9997C25.4241 29.3333 26.6663 28.2981 26.6663 26.8888V15.7777C26.6663 14.3684 25.4241 13.3333 23.9997 13.3333H22.6663V9.33342C22.6663 5.65152 19.6816 2.66675 15.9997 2.66675C12.3178 2.66675 9.33301 5.65152 9.33301 9.33342ZM19.9997 9.33342V13.3333H11.9997V9.33342C11.9997 7.12428 13.7905 5.33341 15.9997 5.33341C18.2088 5.33341 19.9997 7.12428 19.9997 9.33342ZM7.99902 26.6667V16H23.999V26.6667H7.99902ZM16.0003 22.6667C16.7367 22.6667 17.3337 22.0697 17.3337 21.3333C17.3337 20.597 16.7367 20 16.0003 20C15.2639 20 14.667 20.597 14.667 21.3333C14.667 22.0697 15.2639 22.6667 16.0003 22.6667Z" fill="#043344"/>
</svg>
