<svg width="680" height="480" viewBox="0 0 680 480" fill="none" xmlns="http://www.w3.org/2000/svg">
<rect x="348.5" y="348.5" width="331" height="131" rx="22" fill="#205260"/>
<g clip-path="url(#clip0_1138_32141)">
<path d="M481.168 420.821C477.088 411.537 467.825 409.478 466.961 409.299C460.021 407.537 453.23 408.821 447.303 413C445.873 414.015 444.682 415.06 443.699 416.045C443.997 414.672 444.414 413.119 445.069 411.507C447.63 405.119 452.217 400.791 458.681 398.672H458.71C458.77 398.642 465.412 396.403 472.68 400.254L468.003 404.94C467.437 405.507 467.437 406.463 468.003 407.03C468.569 407.597 469.522 407.597 470.088 407.03L476.105 401C476.433 400.672 476.581 400.254 476.522 399.806C476.462 399.358 476.224 398.97 475.867 398.731C466.872 392.851 458.293 395.657 457.728 395.836C450.46 398.224 445.129 403.299 442.299 410.493C442.061 411.119 441.852 411.716 441.644 412.313C441.465 411.716 441.227 411.119 440.988 410.493C438.129 403.299 432.798 398.224 425.56 395.836C425.024 395.657 416.416 392.851 407.451 398.642C407.063 398.881 406.825 399.269 406.795 399.716C406.736 400.164 406.914 400.612 407.212 400.91L413.199 406.94C413.765 407.507 414.718 407.507 415.284 406.94C415.85 406.373 415.85 405.418 415.284 404.851L410.638 400.194C417.845 396.403 424.339 398.522 424.607 398.612H424.636C431.1 400.731 435.687 405.06 438.248 411.448C438.903 413.06 439.32 414.642 439.618 415.985C438.635 415 437.414 413.955 436.014 412.94C430.087 408.761 423.296 407.478 416.356 409.239C415.492 409.418 406.229 411.478 402.149 420.761C401.94 421.209 402 421.746 402.268 422.164C402.536 422.582 403.013 422.821 403.489 422.821H435.21C436.014 422.821 436.67 422.164 436.67 421.358C436.67 420.552 436.014 419.896 435.21 419.896H405.902C409.833 413.597 416.833 412.164 416.922 412.134C416.952 412.134 416.982 412.134 417.012 412.104C423.177 410.522 428.955 411.597 434.197 415.269C438.189 418.075 440.393 421.388 440.393 421.448C440.422 421.478 440.422 421.507 440.452 421.507L440.482 421.537C440.512 421.567 440.512 421.567 440.542 421.597C440.571 421.627 440.571 421.627 440.601 421.657L440.631 421.687C440.661 421.716 440.661 421.716 440.691 421.746L440.72 421.776C440.75 421.806 440.78 421.806 440.81 421.836C440.81 421.836 440.839 421.836 440.839 421.866C440.839 421.866 440.839 421.866 440.869 421.866L440.899 421.896H440.929C440.959 421.896 440.959 421.925 440.988 421.925C441.018 421.925 441.018 421.955 441.048 421.955C441.078 421.955 441.078 421.985 441.108 421.985C441.137 421.985 441.167 422.015 441.167 422.015C441.197 422.015 441.227 422.015 441.227 422.045C441.256 422.045 441.256 422.045 441.286 422.045C441.316 422.045 441.346 422.045 441.376 422.045H441.405H441.435C441.465 422.045 441.495 422.045 441.525 422.045C441.554 422.045 441.554 422.045 441.584 422.045C441.614 422.045 441.614 422.045 441.644 422.045C441.673 422.045 441.673 422.045 441.703 422.045H441.733C441.763 422.045 441.763 422.045 441.793 422.045C441.822 422.045 441.852 422.045 441.852 422.045H441.882H441.912C441.942 422.045 441.971 422.045 441.971 422.015H442.001H442.031C442.061 422.015 442.061 422.015 442.09 421.985H442.12C442.15 421.985 442.15 421.955 442.18 421.955C442.21 421.955 442.21 421.925 442.239 421.925H442.269C442.299 421.925 442.299 421.896 442.329 421.896C442.329 421.896 442.359 421.896 442.359 421.866C442.359 421.866 442.359 421.866 442.388 421.866C442.418 421.836 442.448 421.836 442.448 421.806L442.478 421.776C442.507 421.746 442.507 421.746 442.537 421.716L442.567 421.687C442.597 421.657 442.597 421.657 442.627 421.627C442.656 421.597 442.656 421.597 442.686 421.567L442.716 421.537C442.746 421.507 442.746 421.478 442.775 421.448C442.805 421.418 444.92 418.134 448.911 415.328C454.183 411.597 459.991 410.522 466.186 412.104C466.216 412.104 466.246 412.104 466.276 412.134C466.365 412.134 473.335 413.537 477.296 419.896H447.988C447.184 419.896 446.528 420.552 446.528 421.358C446.528 422.164 447.184 422.821 447.988 422.821H479.709C480.215 422.821 480.662 422.582 480.93 422.164C481.198 421.746 481.377 421.269 481.168 420.821Z" fill="#1A938A"/>
<path d="M502.166 402.791C499.545 402.791 497.311 403.925 495.852 405.836V403.537H490.371V431.03H495.911V420.194C497.4 422.134 499.575 423.239 502.166 423.239C507.438 423.239 511.161 419.03 511.161 413.03C511.161 407.03 507.408 402.791 502.166 402.791ZM500.647 418.224C497.758 418.224 495.703 416.015 495.703 413C495.703 409.985 497.788 407.776 500.647 407.776C503.506 407.776 505.591 409.955 505.591 413C505.591 416.015 503.506 418.224 500.647 418.224Z" fill="white"/>
<path d="M528.793 406.164C527.304 404.045 525.07 402.791 522.359 402.791C517.028 402.791 513.305 407 513.305 413C513.305 419 517.028 423.209 522.359 423.209C525.07 423.209 527.304 421.955 528.793 419.836V422.463H534.333V403.508H528.793V406.164ZM523.819 418.343C520.93 418.343 518.874 416.075 518.874 413C518.874 409.925 520.93 407.657 523.819 407.657C526.708 407.657 528.763 409.925 528.763 413C528.763 416.075 526.678 418.343 523.819 418.343Z" fill="white"/>
<path d="M543.716 395H538.176V422.493H543.716V395Z" fill="white"/>
<path d="M570.88 402.821C568.259 402.821 565.757 404.075 564.536 406.164C563.464 404.105 561.17 402.791 558.43 402.791C556.107 402.791 554.081 403.866 552.89 405.806V403.537H547.559V422.493H553.099V411.657C553.099 409.239 554.469 407.657 556.583 407.657C558.639 407.657 559.979 409.239 559.979 411.657V422.463H565.519V411.657C565.519 409.328 566.949 407.657 569.093 407.657C571.208 407.717 572.608 409.388 572.608 411.657V422.463H578.148V410.522C578.178 406.015 575.169 402.821 570.88 402.821Z" fill="white"/>
<path d="M584.045 416.821C582.198 416.821 580.828 418.104 580.828 419.925C580.828 421.776 582.198 423.06 584.045 423.06C585.921 423.06 587.262 421.776 587.262 419.925C587.262 418.104 585.921 416.821 584.045 416.821Z" fill="#1A938A"/>
<path d="M601.649 402.791C599.355 402.791 597.092 403.836 595.841 405.687V395H590.301V422.493H595.841V411.806C595.841 409.388 597.628 407.657 599.772 407.657C601.976 407.657 603.317 409.299 603.317 411.597V422.493H608.857V410.493C608.857 405.955 605.968 402.791 601.649 402.791Z" fill="white"/>
<path d="M617.671 405.926V403.508H612.34V422.463H617.88V412.404C617.88 409.538 619.458 407.508 621.871 407.508C622.675 407.508 623.896 407.777 624.969 408.224V403.299C624.224 403.001 623.45 402.821 622.705 402.821C620.62 402.821 618.773 404.045 617.671 405.926Z" fill="white"/>
</g>
<rect x="348.5" y="348.5" width="331" height="131" rx="22" stroke="#D4DBE0"/>
<g clip-path="url(#clip1_1138_32141)">
<path d="M133.168 420.821C129.088 411.537 119.825 409.478 118.961 409.299C112.021 407.537 105.23 408.821 99.3028 413C97.8731 414.015 96.6817 415.06 95.6988 416.045C95.9967 414.672 96.4137 413.119 97.0689 411.507C99.6304 405.119 104.217 400.791 110.681 398.672H110.71C110.77 398.642 117.412 396.403 124.68 400.254L120.003 404.94C119.437 405.507 119.437 406.463 120.003 407.03C120.569 407.597 121.522 407.597 122.088 407.03L128.105 401C128.433 400.672 128.581 400.254 128.522 399.806C128.462 399.358 128.224 398.97 127.867 398.731C118.872 392.851 110.293 395.657 109.728 395.836C102.46 398.224 97.1285 403.299 94.2989 410.493C94.0607 411.119 93.8522 411.716 93.6437 412.313C93.465 411.716 93.2267 411.119 92.9884 410.493C90.129 403.299 84.7975 398.224 77.5598 395.836C77.0237 395.657 68.4158 392.851 59.4505 398.642C59.0633 398.881 58.8251 399.269 58.7953 399.716C58.7357 400.164 58.9144 400.612 59.2123 400.91L65.199 406.94C65.7649 407.507 66.7181 407.507 67.284 406.94C67.8499 406.373 67.8499 405.418 67.284 404.851L62.6375 400.194C69.8455 396.403 76.3386 398.522 76.6067 398.612H76.6365C83.0998 400.731 87.6867 405.06 90.2482 411.448C90.9035 413.06 91.3204 414.642 91.6183 415.985C90.6354 415 89.4142 413.955 88.0143 412.94C82.0871 408.761 75.2961 407.478 68.3562 409.239C67.4925 409.418 58.2294 411.478 54.1488 420.761C53.9403 421.209 53.9999 421.746 54.268 422.164C54.536 422.582 55.0126 422.821 55.4891 422.821H87.2101C88.0143 422.821 88.6696 422.164 88.6696 421.358C88.6696 420.552 88.0143 419.896 87.2101 419.896H57.9017C61.8333 413.597 68.8328 412.164 68.9222 412.134C68.9519 412.134 68.9817 412.134 69.0115 412.104C75.177 410.522 80.9553 411.597 86.1974 415.269C90.1886 418.075 92.3927 421.388 92.3927 421.448C92.4225 421.478 92.4225 421.507 92.4523 421.507L92.4821 421.537C92.5118 421.567 92.5118 421.567 92.5416 421.597C92.5714 421.627 92.5714 421.627 92.6012 421.657L92.631 421.687C92.6608 421.716 92.6608 421.716 92.6905 421.746L92.7203 421.776C92.7501 421.806 92.7799 421.806 92.8097 421.836C92.8097 421.836 92.8395 421.836 92.8395 421.866C92.8395 421.866 92.8395 421.866 92.8693 421.866L92.899 421.896H92.9288C92.9586 421.896 92.9586 421.925 92.9884 421.925C93.0182 421.925 93.0182 421.955 93.048 421.955C93.0778 421.955 93.0778 421.985 93.1075 421.985C93.1373 421.985 93.1671 422.015 93.1671 422.015C93.1969 422.015 93.2267 422.015 93.2267 422.045C93.2565 422.045 93.2565 422.045 93.2862 422.045C93.316 422.045 93.3458 422.045 93.3756 422.045H93.4054H93.4352C93.465 422.045 93.4947 422.045 93.5245 422.045C93.5543 422.045 93.5543 422.045 93.5841 422.045C93.6139 422.045 93.6139 422.045 93.6437 422.045C93.6735 422.045 93.6735 422.045 93.7032 422.045H93.733C93.7628 422.045 93.7628 422.045 93.7926 422.045C93.8224 422.045 93.8522 422.045 93.8522 422.045H93.8819H93.9117C93.9415 422.045 93.9713 422.045 93.9713 422.015H94.0011H94.0309C94.0607 422.015 94.0607 422.015 94.0904 421.985H94.1202C94.15 421.985 94.15 421.955 94.1798 421.955C94.2096 421.955 94.2096 421.925 94.2394 421.925H94.2691C94.2989 421.925 94.2989 421.896 94.3287 421.896C94.3287 421.896 94.3585 421.896 94.3585 421.866C94.3585 421.866 94.3585 421.866 94.3883 421.866C94.4181 421.836 94.4479 421.836 94.4479 421.806L94.4776 421.776C94.5074 421.746 94.5074 421.746 94.5372 421.716L94.567 421.687C94.5968 421.657 94.5968 421.657 94.6266 421.627C94.6564 421.597 94.6564 421.597 94.6861 421.567L94.7159 421.537C94.7457 421.507 94.7457 421.478 94.7755 421.448C94.8053 421.418 96.92 418.134 100.911 415.328C106.183 411.597 111.991 410.522 118.186 412.104C118.216 412.104 118.246 412.104 118.276 412.134C118.365 412.134 125.335 413.537 129.296 419.896H99.9879C99.1837 419.896 98.5284 420.552 98.5284 421.358C98.5284 422.164 99.1837 422.821 99.9879 422.821H131.709C132.215 422.821 132.662 422.582 132.93 422.164C133.198 421.746 133.377 421.269 133.168 420.821Z" fill="#1A938A"/>
<path d="M154.166 402.791C151.545 402.791 149.311 403.925 147.852 405.836V403.537H142.371V431.03H147.911V420.194C149.4 422.134 151.575 423.239 154.166 423.239C159.438 423.239 163.161 419.03 163.161 413.03C163.161 407.03 159.408 402.791 154.166 402.791ZM152.647 418.224C149.758 418.224 147.703 416.015 147.703 413C147.703 409.985 149.788 407.776 152.647 407.776C155.506 407.776 157.591 409.955 157.591 413C157.591 416.015 155.506 418.224 152.647 418.224Z" fill="#043344"/>
<path d="M180.793 406.164C179.304 404.045 177.07 402.791 174.359 402.791C169.028 402.791 165.305 407 165.305 413C165.305 419 169.028 423.209 174.359 423.209C177.07 423.209 179.304 421.955 180.793 419.836V422.463H186.333V403.508H180.793V406.164ZM175.819 418.343C172.93 418.343 170.874 416.075 170.874 413C170.874 409.925 172.93 407.657 175.819 407.657C178.708 407.657 180.763 409.925 180.763 413C180.763 416.075 178.678 418.343 175.819 418.343Z" fill="#043344"/>
<path d="M195.716 395H190.176V422.493H195.716V395Z" fill="#043344"/>
<path d="M222.88 402.821C220.259 402.821 217.757 404.075 216.536 406.164C215.464 404.105 213.17 402.791 210.43 402.791C208.107 402.791 206.081 403.866 204.89 405.806V403.537H199.559V422.493H205.099V411.657C205.099 409.239 206.469 407.657 208.583 407.657C210.639 407.657 211.979 409.239 211.979 411.657V422.463H217.519V411.657C217.519 409.328 218.949 407.657 221.093 407.657C223.208 407.717 224.608 409.388 224.608 411.657V422.463H230.148V410.522C230.178 406.015 227.169 402.821 222.88 402.821Z" fill="#043344"/>
<path d="M236.045 416.821C234.198 416.821 232.828 418.104 232.828 419.925C232.828 421.776 234.198 423.06 236.045 423.06C237.921 423.06 239.262 421.776 239.262 419.925C239.262 418.104 237.921 416.821 236.045 416.821Z" fill="#1A938A"/>
<path d="M253.649 402.791C251.355 402.791 249.092 403.836 247.841 405.687V395H242.301V422.493H247.841V411.806C247.841 409.388 249.628 407.657 251.772 407.657C253.976 407.657 255.317 409.299 255.317 411.597V422.493H260.857V410.493C260.857 405.955 257.968 402.791 253.649 402.791Z" fill="#043344"/>
<path d="M269.671 405.926V403.508H264.34V422.463H269.88V412.404C269.88 409.538 271.458 407.508 273.871 407.508C274.675 407.508 275.896 407.777 276.969 408.224V403.299C276.224 403.001 275.45 402.821 274.705 402.821C272.62 402.821 270.773 404.045 269.671 405.926Z" fill="#043344"/>
</g>
<rect x="0.5" y="348.5" width="331" height="131" rx="22" stroke="#284B64"/>
<rect x="348.5" y="0.5" width="331" height="331" rx="22" fill="#205260"/>
<g clip-path="url(#clip2_1138_32141)">
<path d="M625.652 169.455C614.105 143.444 587.939 137.62 585.511 137.126C565.886 132.191 546.707 135.744 530.006 147.491C525.992 150.305 522.573 153.266 519.797 156.03C520.59 152.279 521.78 147.985 523.564 143.543C530.799 125.429 543.734 113.238 562.07 107.217H562.119C562.318 107.167 581.001 100.899 601.567 111.659L588.385 124.787C586.749 126.416 586.749 129.032 588.385 130.611C590.02 132.24 592.647 132.24 594.233 130.611L611.181 113.732C612.073 112.843 612.519 111.609 612.371 110.375C612.222 109.141 611.528 108.006 610.488 107.365C585.164 91.0771 560.88 98.9247 559.344 99.4676C538.877 106.18 523.762 120.395 515.734 140.581C515.04 142.309 514.445 143.987 513.9 145.665C513.355 143.987 512.76 142.309 512.066 140.581C504.038 120.395 488.923 106.18 468.456 99.4676C466.919 98.9247 442.636 91.0771 417.312 107.365C416.272 108.056 415.578 109.141 415.429 110.375C415.28 111.609 415.726 112.843 416.619 113.732L433.518 130.562C435.153 132.191 437.78 132.191 439.365 130.562C441.001 128.933 441.001 126.317 439.365 124.738L426.431 111.609C446.799 100.899 465.086 106.92 465.879 107.167H465.928C484.165 113.139 497.1 125.232 504.335 143.197C506.169 147.738 507.408 152.131 508.201 155.98C505.426 153.266 502.006 150.305 497.992 147.491C481.291 135.794 462.112 132.191 442.488 137.126C440.059 137.62 413.893 143.444 402.346 169.455C401.801 170.738 401.9 172.219 402.643 173.403C403.387 174.588 404.725 175.279 406.112 175.279H495.712C497.992 175.279 499.875 173.453 499.875 171.133C499.875 168.813 497.992 166.987 495.712 166.987H413.05C424.201 149.317 443.974 145.27 444.173 145.221C444.272 145.221 444.321 145.171 444.42 145.171C461.815 140.779 478.119 143.79 492.987 154.105C504.236 161.903 510.381 171.232 510.53 171.429C510.53 171.429 510.53 171.478 510.58 171.478C510.629 171.528 510.679 171.577 510.679 171.626C510.679 171.626 510.679 171.626 510.679 171.676C510.728 171.725 510.728 171.725 510.778 171.774C510.778 171.774 510.778 171.774 510.778 171.824C510.827 171.873 510.877 171.923 510.926 171.972C510.976 172.021 511.026 172.071 511.075 172.12C511.125 172.169 511.125 172.169 511.174 172.219C511.224 172.268 511.323 172.317 511.373 172.416C511.422 172.416 511.422 172.465 511.472 172.465C511.521 172.515 511.62 172.564 511.67 172.614C511.67 172.614 511.67 172.614 511.719 172.614C511.769 172.614 511.769 172.663 511.819 172.663C511.868 172.663 511.868 172.712 511.918 172.712C511.967 172.762 512.017 172.762 512.066 172.811C512.116 172.86 512.165 172.86 512.215 172.91C512.265 172.959 512.314 172.959 512.413 173.008C512.463 173.008 512.512 173.058 512.512 173.058H512.562C512.611 173.107 512.711 173.107 512.76 173.156C512.81 173.156 512.859 173.156 512.859 173.206H512.909C512.909 173.206 512.909 173.206 512.958 173.206C513.008 173.206 513.107 173.255 513.157 173.255C513.206 173.255 513.256 173.255 513.256 173.255H513.305C513.355 173.255 513.454 173.255 513.503 173.305C513.503 173.305 513.503 173.305 513.553 173.305C513.603 173.305 513.603 173.305 513.652 173.305H513.702C513.801 173.305 513.85 173.305 513.949 173.305C513.949 173.305 513.949 173.305 513.999 173.305C513.999 173.305 513.999 173.305 514.049 173.305C514.098 173.305 514.098 173.305 514.148 173.305C514.247 173.305 514.296 173.305 514.396 173.305H514.445C514.495 173.305 514.544 173.305 514.544 173.305C514.594 173.305 514.693 173.305 514.742 173.255H514.792C514.842 173.255 514.891 173.255 514.941 173.206C514.99 173.206 515.089 173.156 515.139 173.156H515.188C515.238 173.156 515.288 173.107 515.337 173.107C515.387 173.107 515.436 173.058 515.486 173.058C515.486 173.058 515.535 173.058 515.535 173.008C515.585 173.008 515.634 172.959 515.684 172.91C515.734 172.91 515.783 172.86 515.833 172.86C515.833 172.86 515.882 172.86 515.882 172.811C515.932 172.762 515.981 172.762 516.08 172.712C516.13 172.712 516.13 172.663 516.18 172.663C516.18 172.663 516.18 172.663 516.229 172.663C516.229 172.663 516.279 172.663 516.279 172.614C516.328 172.564 516.378 172.515 516.427 172.465C516.477 172.416 516.526 172.416 516.526 172.367C516.526 172.367 516.526 172.367 516.576 172.317C516.626 172.268 516.675 172.219 516.725 172.169C516.774 172.12 516.824 172.071 516.873 172.071C516.923 172.021 516.973 171.972 516.973 171.972C517.022 171.923 517.072 171.873 517.121 171.774C517.121 171.774 517.121 171.774 517.171 171.725C517.171 171.725 517.171 171.725 517.171 171.676L517.22 171.626C517.27 171.577 517.319 171.478 517.369 171.429C517.369 171.429 517.369 171.38 517.419 171.38C517.468 171.281 523.663 161.903 534.962 154.056C549.829 143.74 566.134 140.729 583.528 145.122C583.627 145.122 583.677 145.171 583.776 145.171C583.974 145.221 603.748 149.219 614.898 166.938H532.236C529.957 166.938 528.073 168.764 528.073 171.084C528.073 173.403 529.957 175.229 532.236 175.229H621.836C623.224 175.229 624.562 174.538 625.305 173.354C626.098 172.219 626.197 170.738 625.652 169.455Z" fill="#1A938A"/>
<path d="M443.132 198.822C439.762 198.822 436.888 200.302 434.955 202.721V199.759H427.918V235H435.054V221.131C436.937 223.598 439.762 225.03 443.132 225.03C449.971 225.03 454.729 219.601 454.729 211.901C454.729 204.201 449.922 198.822 443.132 198.822ZM441.199 218.613C437.483 218.613 434.806 215.751 434.806 211.901C434.806 208.051 437.483 205.188 441.199 205.188C444.867 205.188 447.592 208.002 447.592 211.901C447.592 215.751 444.916 218.613 441.199 218.613Z" fill="white"/>
<path d="M477.772 203.115C475.889 200.401 472.965 198.772 469.496 198.772C462.608 198.772 457.801 204.201 457.801 211.901C457.801 219.6 462.608 225.03 469.496 225.03C472.965 225.03 475.889 223.401 477.772 220.686V224.042H484.909V199.71H477.772V203.115ZM471.33 218.761C467.613 218.761 464.937 215.849 464.937 211.901C464.937 207.952 467.613 205.04 471.33 205.04C475.047 205.04 477.723 207.952 477.723 211.901C477.723 215.849 475.047 218.761 471.33 218.761Z" fill="white"/>
<path d="M497.248 188.852H490.111V224.092H497.248V188.852Z" fill="white"/>
<path d="M532.535 198.871C529.165 198.871 525.894 200.5 524.358 203.165C522.97 200.5 519.996 198.822 516.478 198.822C513.455 198.822 510.828 200.204 509.342 202.671V199.759H502.453V224.092H509.589V210.223C509.589 207.113 511.373 205.09 514.05 205.09C516.726 205.09 518.46 207.113 518.46 210.223V224.092H525.596V210.223C525.596 207.212 527.48 205.09 530.205 205.09C532.931 205.188 534.715 207.311 534.715 210.223V224.092H541.851V208.791C541.95 202.918 538.085 198.871 532.535 198.871Z" fill="white"/>
<path d="M549.731 216.787C547.352 216.787 545.568 218.465 545.568 220.785C545.568 223.154 547.352 224.832 549.731 224.832C552.16 224.832 553.894 223.154 553.894 220.785C553.894 218.465 552.16 216.787 549.731 216.787Z" fill="#1A938A"/>
<path d="M572.674 198.822C569.701 198.822 566.826 200.155 565.191 202.524V188.852H558.055V224.092H565.191V210.421C565.191 207.311 567.471 205.09 570.246 205.09C573.12 205.09 574.805 207.163 574.805 210.125V224.092H581.941V208.693C581.991 202.869 578.274 198.822 572.674 198.822Z" fill="white"/>
<path d="M593.59 202.819V199.71H586.701V224.042H593.837V211.111C593.837 207.459 595.869 204.843 598.991 204.843C600.032 204.843 601.618 205.188 603.006 205.731V199.414C602.064 199.019 601.073 198.772 600.082 198.772C597.406 198.871 595.027 200.401 593.59 202.819Z" fill="white"/>
</g>
<rect x="348.5" y="0.5" width="331" height="331" rx="22" stroke="#D4DBE0"/>
<g clip-path="url(#clip3_1138_32141)">
<path d="M277.652 169.455C266.105 143.444 239.939 137.62 237.511 137.126C217.886 132.191 198.707 135.744 182.006 147.491C177.992 150.305 174.573 153.266 171.797 156.03C172.59 152.279 173.78 147.985 175.564 143.543C182.799 125.429 195.734 113.238 214.07 107.217H214.119C214.318 107.167 233.001 100.899 253.567 111.659L240.385 124.787C238.749 126.416 238.749 129.032 240.385 130.611C242.02 132.24 244.647 132.24 246.233 130.611L263.181 113.732C264.073 112.843 264.519 111.609 264.371 110.375C264.222 109.141 263.528 108.006 262.488 107.365C237.164 91.0771 212.88 98.9247 211.344 99.4676C190.877 106.18 175.762 120.395 167.734 140.581C167.04 142.309 166.445 143.987 165.9 145.665C165.355 143.987 164.76 142.309 164.066 140.581C156.038 120.395 140.923 106.18 120.456 99.4676C118.919 98.9247 94.6362 91.0771 69.3123 107.365C68.2716 108.056 67.5778 109.141 67.4291 110.375C67.2805 111.609 67.7265 112.843 68.6185 113.732L85.5176 130.562C87.153 132.191 89.7796 132.191 91.3654 130.562C93.0008 128.933 93.0008 126.317 91.3654 124.738L78.4309 111.609C98.799 100.899 117.086 106.92 117.879 107.167H117.928C136.165 113.139 149.1 125.232 156.335 143.197C158.169 147.738 159.408 152.131 160.201 155.98C157.426 153.266 154.006 150.305 149.992 147.491C133.291 135.794 114.112 132.191 94.4875 137.126C92.0592 137.62 65.8929 143.444 54.3459 169.455C53.8008 170.738 53.8999 172.219 54.6433 173.403C55.3867 174.588 56.7247 175.279 58.1123 175.279H147.712C149.992 175.279 151.875 173.453 151.875 171.133C151.875 168.813 149.992 166.987 147.712 166.987H65.0504C76.2008 149.317 95.9743 145.27 96.1725 145.221C96.2716 145.221 96.3212 145.171 96.4203 145.171C113.815 140.779 130.119 143.79 144.987 154.105C156.236 161.903 162.381 171.232 162.53 171.429C162.53 171.429 162.53 171.478 162.58 171.478C162.629 171.528 162.679 171.577 162.679 171.626C162.679 171.626 162.679 171.626 162.679 171.676C162.728 171.725 162.728 171.725 162.778 171.774C162.778 171.774 162.778 171.774 162.778 171.824C162.827 171.873 162.877 171.923 162.926 171.972C162.976 172.021 163.026 172.071 163.075 172.12C163.125 172.169 163.125 172.169 163.174 172.219C163.224 172.268 163.323 172.317 163.373 172.416C163.422 172.416 163.422 172.465 163.472 172.465C163.521 172.515 163.62 172.564 163.67 172.614C163.67 172.614 163.67 172.614 163.719 172.614C163.769 172.614 163.769 172.663 163.819 172.663C163.868 172.663 163.868 172.712 163.918 172.712C163.967 172.762 164.017 172.762 164.066 172.811C164.116 172.86 164.165 172.86 164.215 172.91C164.265 172.959 164.314 172.959 164.413 173.008C164.463 173.008 164.512 173.058 164.512 173.058H164.562C164.611 173.107 164.711 173.107 164.76 173.156C164.81 173.156 164.859 173.156 164.859 173.206H164.909C164.909 173.206 164.909 173.206 164.958 173.206C165.008 173.206 165.107 173.255 165.157 173.255C165.206 173.255 165.256 173.255 165.256 173.255H165.305C165.355 173.255 165.454 173.255 165.503 173.305C165.503 173.305 165.503 173.305 165.553 173.305C165.603 173.305 165.603 173.305 165.652 173.305H165.702C165.801 173.305 165.85 173.305 165.949 173.305C165.949 173.305 165.949 173.305 165.999 173.305C165.999 173.305 165.999 173.305 166.049 173.305C166.098 173.305 166.098 173.305 166.148 173.305C166.247 173.305 166.296 173.305 166.396 173.305H166.445C166.495 173.305 166.544 173.305 166.544 173.305C166.594 173.305 166.693 173.305 166.742 173.255H166.792C166.842 173.255 166.891 173.255 166.941 173.206C166.99 173.206 167.089 173.156 167.139 173.156H167.188C167.238 173.156 167.288 173.107 167.337 173.107C167.387 173.107 167.436 173.058 167.486 173.058C167.486 173.058 167.535 173.058 167.535 173.008C167.585 173.008 167.634 172.959 167.684 172.91C167.734 172.91 167.783 172.86 167.833 172.86C167.833 172.86 167.882 172.86 167.882 172.811C167.932 172.762 167.981 172.762 168.08 172.712C168.13 172.712 168.13 172.663 168.18 172.663C168.18 172.663 168.18 172.663 168.229 172.663C168.229 172.663 168.279 172.663 168.279 172.614C168.328 172.564 168.378 172.515 168.427 172.465C168.477 172.416 168.526 172.416 168.526 172.367C168.526 172.367 168.526 172.367 168.576 172.317C168.626 172.268 168.675 172.219 168.725 172.169C168.774 172.12 168.824 172.071 168.873 172.071C168.923 172.021 168.973 171.972 168.973 171.972C169.022 171.923 169.072 171.873 169.121 171.774C169.121 171.774 169.121 171.774 169.171 171.725C169.171 171.725 169.171 171.725 169.171 171.676L169.22 171.626C169.27 171.577 169.319 171.478 169.369 171.429C169.369 171.429 169.369 171.38 169.419 171.38C169.468 171.281 175.663 161.903 186.962 154.056C201.829 143.74 218.134 140.729 235.528 145.122C235.627 145.122 235.677 145.171 235.776 145.171C235.974 145.221 255.748 149.219 266.898 166.938H184.236C181.957 166.938 180.073 168.764 180.073 171.084C180.073 173.403 181.957 175.229 184.236 175.229H273.836C275.224 175.229 276.562 174.538 277.305 173.354C278.098 172.219 278.197 170.738 277.652 169.455Z" fill="#1A938A"/>
<path d="M95.1321 198.822C91.7622 198.822 88.8879 200.302 86.9551 202.721V199.759H79.918V235H87.0543V221.131C88.9374 223.598 91.7622 225.03 95.1321 225.03C101.971 225.03 106.729 219.601 106.729 211.901C106.729 204.201 101.922 198.822 95.1321 198.822ZM93.1994 218.613C89.4826 218.613 86.8065 215.751 86.8065 211.901C86.8065 208.051 89.4826 205.188 93.1994 205.188C96.8666 205.188 99.5923 208.002 99.5923 211.901C99.5923 215.751 96.9162 218.613 93.1994 218.613Z" fill="#043344"/>
<path d="M129.772 203.115C127.889 200.401 124.965 198.772 121.496 198.772C114.608 198.772 109.801 204.201 109.801 211.901C109.801 219.6 114.608 225.03 121.496 225.03C124.965 225.03 127.889 223.401 129.772 220.686V224.042H136.909V199.71H129.772V203.115ZM123.33 218.761C119.613 218.761 116.937 215.849 116.937 211.901C116.937 207.952 119.613 205.04 123.33 205.04C127.047 205.04 129.723 207.952 129.723 211.901C129.723 215.849 127.047 218.761 123.33 218.761Z" fill="#043344"/>
<path d="M149.248 188.852H142.111V224.092H149.248V188.852Z" fill="#043344"/>
<path d="M184.535 198.871C181.165 198.871 177.894 200.5 176.358 203.165C174.97 200.5 171.996 198.822 168.478 198.822C165.455 198.822 162.828 200.204 161.342 202.671V199.759H154.453V224.092H161.589V210.223C161.589 207.113 163.373 205.09 166.05 205.09C168.726 205.09 170.46 207.113 170.46 210.223V224.092H177.596V210.223C177.596 207.212 179.48 205.09 182.205 205.09C184.931 205.188 186.715 207.311 186.715 210.223V224.092H193.851V208.791C193.95 202.918 190.085 198.871 184.535 198.871Z" fill="#043344"/>
<path d="M201.731 216.787C199.352 216.787 197.568 218.465 197.568 220.785C197.568 223.154 199.352 224.832 201.731 224.832C204.16 224.832 205.894 223.154 205.894 220.785C205.894 218.465 204.16 216.787 201.731 216.787Z" fill="#1A938A"/>
<path d="M224.674 198.822C221.701 198.822 218.826 200.155 217.191 202.524V188.852H210.055V224.092H217.191V210.421C217.191 207.311 219.471 205.09 222.246 205.09C225.12 205.09 226.805 207.163 226.805 210.125V224.092H233.941V208.693C233.991 202.869 230.274 198.822 224.674 198.822Z" fill="#043344"/>
<path d="M245.59 202.819V199.71H238.701V224.042H245.837V211.111C245.837 207.459 247.869 204.843 250.991 204.843C252.032 204.843 253.618 205.188 255.006 205.731V199.414C254.064 199.019 253.073 198.772 252.082 198.772C249.406 198.871 247.027 200.401 245.59 202.819Z" fill="#043344"/>
</g>
<rect x="0.5" y="0.5" width="331" height="331" rx="22" stroke="#284B64"/>
<defs>
<clipPath id="clip0_1138_32141">
<rect width="223" height="37" fill="white" transform="translate(402 395)"/>
</clipPath>
<clipPath id="clip1_1138_32141">
<rect width="223" height="37" fill="white" transform="translate(54 395)"/>
</clipPath>
<clipPath id="clip2_1138_32141">
<rect width="224" height="138" fill="white" transform="translate(402 97)"/>
</clipPath>
<clipPath id="clip3_1138_32141">
<rect width="224" height="138" fill="white" transform="translate(54 97)"/>
</clipPath>
</defs>
</svg>
