<svg width="55" height="20" viewBox="0 0 55 20" fill="none" xmlns="http://www.w3.org/2000/svg">
<path d="M53.994 17.6273C53.9653 17.5418 53.272 15.5226 51.3181 13.5206C49.5266 11.6855 46.2859 9.496 41.0209 9.496C35.8298 9.496 32.1986 11.4269 30.0675 13.0464C29.6982 13.3274 29.3593 13.6084 29.0513 13.8831C29.1334 13.5665 29.2291 13.2345 29.341 12.891C30.3938 9.64797 32.2829 6.94692 34.9547 4.86234C39.7346 1.13477 44.7278 2.26566 47.8664 3.69188L44.936 6.6229C44.7382 6.82063 44.6272 7.0888 44.6272 7.36842C44.6272 7.64804 44.7382 7.91621 44.936 8.11393C45.1337 8.31166 45.4019 8.42274 45.6815 8.42274C45.9611 8.42274 46.2293 8.31166 46.427 8.11393L50.3874 4.15353C50.5025 4.03801 50.5893 3.89736 50.6408 3.74263C50.6923 3.58791 50.7073 3.42334 50.6844 3.26187C50.6616 3.10039 50.6016 2.94642 50.5091 2.81207C50.4167 2.67771 50.2943 2.56664 50.1517 2.48759L50.1093 2.46408C48.1704 1.39799 46.1793 0.704091 44.1876 0.409899C42.5193 0.154211 40.8184 0.205519 39.1686 0.561296C37.2073 0.996562 35.3561 1.88372 33.6603 3.20443C30.8293 5.41016 28.691 8.38224 27.4995 11.7675C26.308 8.38224 24.1697 5.41016 21.3387 3.20443C19.643 1.88372 17.7918 0.996562 15.8288 0.561296C14.1795 0.20573 12.4792 0.154423 10.8115 0.409899C8.8198 0.704091 6.8287 1.39799 4.89093 2.46465L4.84735 2.48759C4.70432 2.56648 4.58159 2.67754 4.48883 2.81199C4.39607 2.94644 4.33584 3.10061 4.31287 3.26233C4.2899 3.42405 4.30483 3.5889 4.35649 3.74386C4.40814 3.89882 4.4951 4.03965 4.61051 4.15525L8.57492 8.11623C8.67283 8.21413 8.78905 8.29179 8.91697 8.34478C9.04488 8.39776 9.18198 8.42503 9.32044 8.42503C9.45889 8.42503 9.59599 8.39776 9.72391 8.34478C9.85182 8.29179 9.96805 8.21413 10.066 8.11623C10.1639 8.01832 10.2415 7.9021 10.2945 7.77418C10.3475 7.64627 10.3748 7.50917 10.3748 7.37071C10.3748 7.23226 10.3475 7.09516 10.2945 6.96724C10.2415 6.83933 10.1639 6.7231 10.066 6.6252L7.13551 3.69418C10.2701 2.2691 15.2633 1.13878 20.0444 4.86578C22.7162 6.94864 24.6052 9.64969 25.6581 12.8944C25.7699 13.2385 25.8657 13.57 25.9477 13.8865C25.6398 13.6118 25.3008 13.3308 24.9315 13.0498C22.7993 11.4303 19.1681 9.49944 13.9782 9.49944C8.71313 9.49944 5.47244 11.6878 3.68091 13.5241C1.72479 15.5244 1.03146 17.5435 1.00508 17.6273C0.95173 17.7857 0.936862 17.9545 0.961709 18.1198C0.986557 18.2851 1.0504 18.4422 1.14797 18.5779C1.24554 18.7136 1.37402 18.8242 1.52279 18.9004C1.67156 18.9766 1.83634 19.0163 2.0035 19.0162H23.3441C23.6235 19.0162 23.8915 18.9052 24.0891 18.7077C24.2866 18.5101 24.3976 18.2422 24.3976 17.9628C24.3976 17.6834 24.2866 17.4154 24.0891 17.2178C23.8915 17.0203 23.6235 16.9093 23.3441 16.9093H3.7004C4.12412 16.2163 4.62426 15.573 5.19143 14.9916C7.38095 12.7447 10.3384 11.6058 13.9759 11.6058C17.6369 11.6058 20.869 12.6381 23.5816 14.671C25.6208 16.2005 26.5906 17.7575 26.5986 17.7678C26.6066 17.7781 26.6061 17.7792 26.6095 17.785L26.6307 17.8171C26.6399 17.8303 26.6491 17.8435 26.6588 17.8561L26.6806 17.8836C26.6909 17.8968 26.7018 17.9094 26.7127 17.922C26.7236 17.9347 26.7282 17.9387 26.7357 17.9467C26.7431 17.9547 26.7592 17.9714 26.7718 17.9828L26.7965 18.0058C26.8091 18.0167 26.8211 18.0281 26.8343 18.0385L26.8624 18.0602C26.875 18.07 26.8876 18.0797 26.9014 18.0889L26.9324 18.109L26.9719 18.1336L27.0058 18.152L27.0471 18.1732L27.0815 18.1881C27.0958 18.1944 27.1107 18.2007 27.1262 18.2065C27.1417 18.2122 27.148 18.2145 27.1595 18.2185C27.1709 18.2225 27.1921 18.2294 27.2082 18.234L27.2225 18.2386L27.2415 18.2426C27.2581 18.2472 27.2747 18.2506 27.2914 18.2541L27.3269 18.261L27.3745 18.2678L27.4129 18.2713C27.4278 18.2713 27.4433 18.2713 27.4582 18.2742H27.499H27.542C27.5563 18.2742 27.5706 18.2742 27.5856 18.2713C27.6005 18.2684 27.6119 18.2713 27.6251 18.2673L27.6716 18.261L27.7083 18.2541L27.757 18.2432L27.7765 18.2386L27.7914 18.234C27.8075 18.2294 27.8235 18.2243 27.839 18.2185L27.8734 18.2065L27.9176 18.1881C27.9293 18.1836 27.9408 18.1784 27.952 18.1726C27.9663 18.1663 27.9801 18.1589 27.9933 18.152L28.0271 18.1336L28.0667 18.109L28.0982 18.0889C28.1114 18.0797 28.124 18.07 28.1372 18.0597L28.1648 18.0385C28.1779 18.0281 28.1906 18.0167 28.2032 18.0052C28.2158 17.9937 28.2198 17.9909 28.2273 17.9828C28.2347 17.9748 28.2519 17.9587 28.2634 17.9467C28.2749 17.9347 28.2789 17.9306 28.2863 17.922C28.2938 17.9134 28.3081 17.8968 28.3184 17.8836L28.3402 17.8561C28.35 17.8435 28.3592 17.8303 28.3683 17.8171L28.3896 17.785C28.393 17.7792 28.397 17.7741 28.4005 17.7678C28.4383 17.7076 32.237 11.6058 41.0232 11.6058C44.6223 11.6058 47.5573 12.7235 49.7457 14.9274C50.3398 15.5262 50.8622 16.1923 51.3021 16.9122H31.6549C31.3755 16.9122 31.1076 17.0231 30.91 17.2207C30.7124 17.4183 30.6014 17.6862 30.6014 17.9656C30.6014 18.245 30.7124 18.513 30.91 18.7105C31.1076 18.9081 31.3755 19.0191 31.6549 19.0191H52.9979C53.1652 19.019 53.33 18.979 53.4788 18.9025C53.6276 18.8259 53.756 18.715 53.8533 18.579C53.9507 18.4429 54.0142 18.2856 54.0387 18.1201C54.0632 17.9546 54.0478 17.7857 53.994 17.6273Z" fill="#1A938A"/>
</svg>
