<svg width="24" height="24" viewBox="0 0 24 24" fill="none" xmlns="http://www.w3.org/2000/svg">
<circle cx="12" cy="12" r="12" fill="#EC9A2B"/>
<path fill-rule="evenodd" clip-rule="evenodd" d="M12.5 15.5V14.9646C13.4917 14.8227 14.3494 14.2651 14.8907 13.4739C16.2477 13.2869 17 12.1114 17 10.5V9C17 8.44772 16.5523 8 16 8H15.3662C15.1933 7.7011 14.8701 7.5 14.5 7.5H9.5C9.12986 7.5 8.80669 7.7011 8.63378 8H8C7.44772 8 7 8.44772 7 9V10.5C7 12.1114 7.75229 13.2869 9.10933 13.4739C9.65062 14.2651 10.5083 14.8227 11.5 14.9646V15.5H11C10.4477 15.5 10 15.9477 10 16.5H14C14 15.9477 13.5523 15.5 13 15.5H12.5ZM8 9H8.5V11.5C8.5 11.7289 8.52197 11.9526 8.56391 12.1692C8.19514 11.8373 8 11.2656 8 10.5V9ZM15.5 9V11.5C15.5 11.7289 15.478 11.9526 15.4361 12.1692C15.8049 11.8373 16 11.2656 16 10.5V9H15.5ZM9.5 11.5V8.5H14.5V11.5C14.5 12.8807 13.3807 14 12 14C10.6193 14 9.5 12.8807 9.5 11.5Z" fill="white"/>
</svg>
