<svg width="24" height="24" viewBox="0 0 24 24" fill="none" xmlns="http://www.w3.org/2000/svg">
<circle cx="12" cy="12" r="11.5" stroke="#EC9A2B"/>
<g clip-path="url(#clip0_1138_8688)">
<path d="M8.06325 16.5999H6.43753C6.00537 16.5999 5.65039 16.2046 5.65039 15.7177V10.6764C5.65039 10.1952 6.00537 9.79993 6.43753 9.79993H8.06325C8.49541 9.79993 8.85039 10.1952 8.85039 10.6764V15.7177C8.85039 16.2046 8.50055 16.5999 8.06325 16.5999ZM6.43753 10.6019C6.40152 10.6019 6.37065 10.6363 6.37065 10.6764V15.7177C6.37065 15.7578 6.40152 15.7922 6.43753 15.7922H8.06325C8.09927 15.7922 8.13013 15.7578 8.13013 15.7177V10.6764C8.13013 10.6363 8.09927 10.6019 8.06325 10.6019H6.43753Z" fill="#1A938A"/>
<path d="M12.0139 16.6H10.2865C9.82737 16.6 9.4502 16.2227 9.4502 15.7633V9.43661C9.4502 8.97728 9.82737 8.59998 10.2865 8.59998H12.0139C12.473 8.59998 12.8502 8.97728 12.8502 9.43661V15.7579C12.8502 16.2227 12.473 16.6 12.0139 16.6ZM10.2865 9.36006C10.2483 9.36006 10.2155 9.39287 10.2155 9.43114V15.7579C10.2155 15.7961 10.2483 15.829 10.2865 15.829H12.0139C12.0521 15.829 12.0849 15.7961 12.0849 15.7579V9.43661C12.0849 9.39834 12.0521 9.36553 12.0139 9.36553H10.2865V9.36006Z" fill="#1A938A"/>
<path d="M16.3052 16.6H14.1955C13.8957 16.6 13.6504 16.3409 13.6504 16.0243V7.77558C13.6504 7.45898 13.8957 7.19995 14.1955 7.19995H16.3052C16.605 7.19995 16.8503 7.45898 16.8503 7.77558V16.0186C16.8558 16.3409 16.6104 16.6 16.3052 16.6Z" fill="#043344"/>
</g>
<defs>
<clipPath id="clip0_1138_8688">
<rect width="12" height="12" fill="white" transform="translate(5.25 6)"/>
</clipPath>
</defs>
</svg>
