<svg width="24" height="24" viewBox="0 0 24 24" fill="none" xmlns="http://www.w3.org/2000/svg">
<circle cx="12" cy="12" r="12" fill="#EC9A2B"/>
<g clip-path="url(#clip0_1138_8708)">
<path d="M19.6559 15.0001H6.92407C6.76773 14.9997 6.61792 14.9331 6.50751 14.8149C6.39709 14.6967 6.33508 14.5365 6.33508 14.3695C6.33508 14.2026 6.39713 14.0426 6.50759 13.9246C6.61805 13.8066 6.76786 13.7403 6.92407 13.7403H18.6858C17.099 11.0283 14.2954 10.4318 14.2636 10.4258L14.2275 10.417C11.7455 9.74191 9.41168 10.2082 7.29825 11.7996C6.34241 12.5117 5.50921 13.3952 4.83558 14.4109C4.79381 14.4807 4.73953 14.5408 4.67589 14.5881C4.61225 14.6353 4.5405 14.6686 4.46476 14.686C4.38902 14.7035 4.3108 14.7048 4.23459 14.6899C4.15838 14.6749 4.08569 14.644 4.0207 14.5989C3.88949 14.5083 3.79728 14.3657 3.76429 14.2026C3.73129 14.0394 3.76021 13.8689 3.8447 13.7285C4.59838 12.5751 5.53667 11.5729 6.61641 10.7678C8.98899 8.98249 11.7164 8.43625 14.5033 9.18826C14.8442 9.26228 18.5653 10.1475 20.2033 14.1134C20.2417 14.2085 20.2576 14.3123 20.2497 14.4156C20.2417 14.5188 20.2101 14.6184 20.1576 14.7055C20.104 14.7959 20.03 14.8703 19.9422 14.9218C19.8545 14.9733 19.756 15.0002 19.6559 15.0001Z" fill="white"/>
<path d="M13.0328 6.74988H10.9679C10.6426 6.74988 10.3789 7.03156 10.3789 7.37903V7.38051C10.3789 7.72798 10.6426 8.00966 10.9679 8.00966H13.0328C13.3581 8.00966 13.6218 7.72798 13.6218 7.38051V7.37903C13.6218 7.03156 13.3581 6.74988 13.0328 6.74988Z" fill="white"/>
</g>
<g clip-path="url(#clip1_1138_8708)">
<path d="M19.6559 15.0001H6.92407C6.76773 14.9997 6.61792 14.9331 6.50751 14.8149C6.39709 14.6967 6.33508 14.5365 6.33508 14.3695C6.33508 14.2026 6.39713 14.0426 6.50759 13.9246C6.61805 13.8066 6.76786 13.7403 6.92407 13.7403H18.6858C17.099 11.0283 14.2954 10.4318 14.2636 10.4258L14.2275 10.417C11.7455 9.74191 9.41168 10.2082 7.29825 11.7996C6.34241 12.5117 5.50921 13.3952 4.83558 14.4109C4.79381 14.4807 4.73953 14.5408 4.67589 14.5881C4.61225 14.6353 4.5405 14.6686 4.46476 14.686C4.38902 14.7035 4.3108 14.7048 4.23459 14.6899C4.15838 14.6749 4.08569 14.644 4.0207 14.5989C3.88949 14.5083 3.79728 14.3657 3.76429 14.2026C3.73129 14.0394 3.76021 13.8689 3.8447 13.7285C4.59838 12.5751 5.53667 11.5729 6.61641 10.7678C8.98899 8.98249 11.7164 8.43625 14.5033 9.18826C14.8442 9.26228 18.5653 10.1475 20.2033 14.1134C20.2417 14.2085 20.2576 14.3123 20.2497 14.4156C20.2417 14.5188 20.2101 14.6184 20.1576 14.7055C20.104 14.7959 20.03 14.8703 19.9422 14.9218C19.8545 14.9733 19.756 15.0002 19.6559 15.0001Z" fill="white"/>
<path d="M13.0328 6.74988H10.9679C10.6426 6.74988 10.3789 7.03156 10.3789 7.37903V7.38051C10.3789 7.72798 10.6426 8.00966 10.9679 8.00966H13.0328C13.3581 8.00966 13.6218 7.72798 13.6218 7.38051V7.37903C13.6218 7.03156 13.3581 6.74988 13.0328 6.74988Z" fill="white"/>
</g>
<defs>
<clipPath id="clip0_1138_8708">
<rect width="16.5" height="8.25" fill="white" transform="translate(3.75 6.75)"/>
</clipPath>
<clipPath id="clip1_1138_8708">
<rect width="16.5" height="8.25" fill="white" transform="translate(3.75 6.75)"/>
</clipPath>
</defs>
</svg>
