<svg width="24" height="24" viewBox="0 0 24 24" fill="none" xmlns="http://www.w3.org/2000/svg">
<circle cx="11.9999" cy="11.9999" r="11.9999" fill="#EC9A2B"/>
<path fill-rule="evenodd" clip-rule="evenodd" d="M15.9999 13.4998L15.9999 8.99987C15.9999 8.72373 15.7761 8.49987 15.4999 8.49987L8.49999 8.49987C8.22385 8.49987 7.99999 8.72373 7.99999 8.99987L7.99999 13.4998C7.99999 13.776 8.22385 13.9998 8.49999 13.9998L15.4999 13.9998C15.7761 13.9998 15.9999 13.776 15.9999 13.4998ZM16.9999 8.99987C16.9999 8.17145 16.3284 7.49988 15.4999 7.49988L8.49999 7.49988C7.67157 7.49988 7 8.17145 7 8.99987L7 13.4998C7 14.3283 7.67157 14.9998 8.49999 14.9998H11.5V15.4998H9.99998C9.72384 15.4998 9.49999 15.7237 9.49999 15.9998C9.49999 16.276 9.72384 16.4998 9.99998 16.4998H14C14.2761 16.4998 14.5 16.276 14.5 15.9998C14.5 15.7237 14.2761 15.4998 14 15.4998H12.5V14.9998H15.4999C16.3284 14.9998 16.9999 14.3283 16.9999 13.4998V8.99987Z" fill="white"/>
</svg>
