<svg width="24" height="24" viewBox="0 0 24 24" fill="none" xmlns="http://www.w3.org/2000/svg">
<circle cx="11.9999" cy="11.9999" r="11.9999" fill="#EC9A2B"/>
<path fill-rule="evenodd" clip-rule="evenodd" d="M8.88887 16.536C9.77368 17.144 10.8453 17.4998 12 17.4998C13.1547 17.4998 14.2263 17.144 15.1111 16.536C15.1114 16.5357 15.1117 16.5355 15.112 16.5353C15.4208 16.323 15.7069 16.08 15.9658 15.8106C16.9159 14.8221 17.4999 13.4792 17.4999 11.9998C17.4999 8.9623 15.0375 6.49988 12 6.49988C8.96242 6.49988 6.5 8.9623 6.5 11.9998C6.5 13.4792 7.08406 14.8221 8.03417 15.8106C8.05949 15.837 8.08507 15.8631 8.1109 15.8889C8.34949 16.1275 8.6099 16.3443 8.88887 16.536ZM9.09945 15.4404C9.88272 16.1014 10.8948 16.4998 12 16.4998C13.1051 16.4998 14.1172 16.1014 14.9005 15.4404C14.6634 15.025 14.2491 14.7498 13.7777 14.7498H10.2222C9.7508 14.7498 9.33654 15.025 9.09945 15.4404ZM8.44126 14.7543C8.84649 14.1446 9.49337 13.7498 10.2222 13.7498H13.7777C14.5066 13.7498 15.1534 14.1446 15.5587 14.7543C16.1487 13.9931 16.4999 13.0375 16.4999 11.9998C16.4999 9.51458 14.4852 7.49987 12 7.49987C9.5147 7.49987 7.49999 9.51458 7.49999 11.9998C7.49999 13.0375 7.85121 13.9931 8.44126 14.7543ZM12 12.9998C10.8954 12.9998 9.99998 12.1044 9.99998 10.9999C9.99998 9.89529 10.8954 8.99986 12 8.99986C13.1045 8.99986 14 9.89529 14 10.9999C14 12.1044 13.1045 12.9998 12 12.9998ZM12 12.1248C12.6213 12.1248 13.125 11.6212 13.125 10.9998C13.125 10.3785 12.6213 9.87486 12 9.87486C11.3786 9.87486 10.875 10.3785 10.875 10.9998C10.875 11.6212 11.3786 12.1248 12 12.1248Z" fill="white"/>
</svg>
