<svg width="24" height="24" viewBox="0 0 24 24" fill="none" xmlns="http://www.w3.org/2000/svg">
<circle cx="12" cy="12" r="11.5" stroke="#EC9A2B"/>
<path d="M12.0023 12.1871C11.8267 12.1871 11.6568 12.1189 11.5322 11.9938L7.91924 8.33159C7.73237 8.13825 7.67574 7.8596 7.77767 7.60939C7.8796 7.35918 8.11745 7.19995 8.38927 7.19995H15.6153C15.8814 7.19995 16.1193 7.35918 16.2269 7.60939C16.3288 7.8596 16.2722 8.13825 16.0853 8.33159L12.4723 11.9881C12.342 12.1132 12.1778 12.1871 12.0023 12.1871ZM8.7064 7.99608L12.0023 11.3341L15.2925 7.99608H8.7064Z" fill="#1A938A"/>
<path d="M15.8191 16.1451L12.1892 12.4658C12.0872 12.3634 11.9173 12.3634 11.8097 12.4658L8.17976 16.1451C8.01553 16.3157 8.13445 16.6 8.36664 16.6H15.6323C15.8701 16.6 15.989 16.31 15.8191 16.1451Z" fill="#043344"/>
</svg>
