<svg width="24" height="24" viewBox="0 0 24 24" fill="none" xmlns="http://www.w3.org/2000/svg">
<circle cx="12" cy="12" r="12" fill="#EC9A2B"/>
<path fill-rule="evenodd" clip-rule="evenodd" d="M8.5 6.5H13.7071L16.5 9.29289V16.5C16.5 17.0523 16.0523 17.5 15.5 17.5H8.5C7.94772 17.5 7.5 17.0523 7.5 16.5V7.5C7.5 6.94772 7.94772 6.5 8.5 6.5ZM12.5 7.5H8.5V16.5H15.5V10.5H13.5C12.9477 10.5 12.5 10.0523 12.5 9.5V7.5ZM13.5 7.70711V9.5H15.2929L13.5 7.70711ZM10.5 14.5C10.2239 14.5 10 14.2761 10 14C10 13.7239 10.2239 13.5 10.5 13.5H12.5C12.7761 13.5 13 13.7239 13 14C13 14.2761 12.7761 14.5 12.5 14.5H10.5ZM10 12C10 12.2761 10.2239 12.5 10.5 12.5H13.5C13.7761 12.5 14 12.2761 14 12C14 11.7239 13.7761 11.5 13.5 11.5H10.5C10.2239 11.5 10 11.7239 10 12Z" fill="white"/>
</svg>
