<svg width="24" height="24" viewBox="0 0 24 24" fill="none" xmlns="http://www.w3.org/2000/svg">
<circle cx="12" cy="12" r="12" fill="#EC9A2B"/>
<path fill-rule="evenodd" clip-rule="evenodd" d="M9.18387 8.09173L8.06616 9.21782L7.54483 8.71356C7.42136 8.59413 7.22542 8.59413 7.10195 8.71356C6.97253 8.83875 6.97253 9.04625 7.10195 9.17144L8.06616 10.1041L9.63388 8.54069C9.75976 8.41516 9.7582 8.21078 9.63042 8.08719C9.5054 7.96626 9.3064 7.96829 9.18387 8.09173ZM16.5105 8.49088C16.781 8.49088 17.0002 8.71013 17.0002 8.98059C17.0002 9.25105 16.781 9.4703 16.5105 9.4703H11.2051C10.9347 9.4703 10.7154 9.25105 10.7154 8.98059C10.7154 8.71013 10.9347 8.49088 11.2051 8.49088H16.5105ZM17.0002 11.9188C17.0002 11.6484 16.781 11.4291 16.5105 11.4291H11.2051C10.9347 11.4291 10.7154 11.6484 10.7154 11.9188C10.7154 12.1893 10.9347 12.4086 11.2051 12.4086H16.5105C16.781 12.4086 17.0002 12.1893 17.0002 11.9188ZM17.0002 14.8571C17.0002 14.5866 16.781 14.3674 16.5105 14.3674H11.2051C10.9347 14.3674 10.7154 14.5866 10.7154 14.8571C10.7154 15.1276 10.9347 15.3468 11.2051 15.3468H16.5105C16.781 15.3468 17.0002 15.1276 17.0002 14.8571ZM8.06616 12.1658L9.18387 11.0397C9.3064 10.9162 9.5054 10.9142 9.63042 11.0351C9.7582 11.1587 9.75976 11.3631 9.63388 11.4886L8.06616 13.052L7.10195 12.1194C6.97253 11.9942 6.97253 11.7867 7.10195 11.6615C7.22542 11.5421 7.42136 11.5421 7.54483 11.6615L8.06616 12.1658ZM9.18387 13.9876L8.06616 15.1137L7.54483 14.6095C7.42136 14.49 7.22542 14.49 7.10195 14.6095C6.97253 14.7347 6.97253 14.9422 7.10195 15.0673L8.06616 16L9.63388 14.4366C9.75976 14.3111 9.7582 14.1067 9.63042 13.9831C9.5054 13.8622 9.3064 13.8642 9.18387 13.9876Z" fill="white"/>
</svg>
