<svg width="24" height="24" viewBox="0 0 24 24" fill="none" xmlns="http://www.w3.org/2000/svg">
<circle cx="12" cy="12" r="11.5" stroke="#EC9A2B"/>
<path d="M15.0626 16.6H9.14663C8.86726 16.6 8.59886 16.472 8.41809 16.2551C8.23733 16.0326 8.16612 15.7489 8.21542 15.4652C8.56599 13.5739 10.1984 12.2 12.0991 12.2C13.9999 12.2 15.6322 13.5739 15.9828 15.4652C16.0376 15.7489 15.9609 16.0326 15.7801 16.2551C15.6103 16.472 15.3419 16.6 15.0626 16.6ZM12.1046 12.9731C10.5708 12.9731 9.25618 14.0801 8.97134 15.6042C8.96039 15.6766 8.98777 15.7266 9.00969 15.7544C9.0316 15.7767 9.07542 15.8212 9.14663 15.8212H15.0626C15.1338 15.8212 15.1776 15.7823 15.1995 15.7544C15.2214 15.7322 15.2488 15.6766 15.2379 15.6042C14.953 14.0801 13.6384 12.9731 12.1046 12.9731Z" fill="#1A938A"/>
<path d="M14.2 9.29995C14.2 10.4618 13.2618 11.4 12.1 11.4C10.9436 11.4 10 10.4618 10 9.29995C10 8.13813 10.9436 7.19995 12.1 7.19995C13.2618 7.19995 14.2 8.13813 14.2 9.29995Z" fill="#043344"/>
</svg>
