<svg width="24" height="24" viewBox="0 0 24 24" fill="none" xmlns="http://www.w3.org/2000/svg">
<circle cx="12" cy="12" r="12" fill="#EC9A2B"/>
<path fill-rule="evenodd" clip-rule="evenodd" d="M15 6.5H9C8.44772 6.5 8 6.94772 8 7.5V16.5C8 17.0523 8.44772 17.5 9 17.5H15C15.5523 17.5 16 17.0523 16 16.5V7.5C16 6.94772 15.5523 6.5 15 6.5ZM9 9.5V7.5H15V9.5H9ZM9 10.5V16.5H15V10.5H9ZM11 15.5H10V14.5H11V15.5ZM11.5 15.5H12.5V14.5H11.5V15.5ZM14 15.5H13V14V13.5V13H14V13.5V14V15.5ZM10 14H11V13H10V14ZM12.5 14H11.5V13H12.5V14ZM11 12.5H10V11.5H11V12.5ZM11.5 12.5H12.5V11.5H11.5V12.5ZM14 12.5H13V11.5H14V12.5Z" fill="white"/>
</svg>
