<svg width="24" height="24" viewBox="0 0 24 24" fill="none" xmlns="http://www.w3.org/2000/svg">
<circle cx="12" cy="12" r="11.5" stroke="#EC9A2B"/>
<path d="M11.3124 16.8C8.71146 16.8 6.59961 14.6927 6.59961 12.1028C6.59961 9.51294 8.71146 7.40002 11.3124 7.40002C12.6684 7.40002 13.9577 7.98233 14.8525 8.99719C14.997 9.15802 14.9803 9.40203 14.8192 9.54622C14.658 9.69041 14.4135 9.67377 14.269 9.51294C13.5187 8.66445 12.4405 8.17643 11.3124 8.17643C9.13939 8.17643 7.37766 9.93442 7.37766 12.1028C7.37766 14.2712 9.13939 16.0292 11.3124 16.0292C11.5291 16.0292 11.7014 16.2011 11.7014 16.4174C11.7014 16.6337 11.5236 16.8 11.3124 16.8Z" fill="#1A938A"/>
<path d="M9.48974 11.7201L13.2577 15.5134C13.3633 15.6243 13.5412 15.6243 13.6467 15.5134L17.4147 11.7201C17.587 11.5482 17.4648 11.2543 17.2202 11.2543H9.68425C9.43972 11.2543 9.31745 11.5482 9.48974 11.7201Z" fill="#043344"/>
</svg>
