<svg width="520" height="315" viewBox="0 0 520 315" fill="none" xmlns="http://www.w3.org/2000/svg">
<g filter="url(#filter0_ddd_1202_16911)">
<rect x="54" y="45" width="446" height="205" rx="16" fill="#1A938A"/>
</g>
<g clip-path="url(#clip0_1202_16911)">
<path d="M316.363 64.6471C330.282 64.7998 341.601 70.8532 344.965 83.4945L329.21 86.8649C328.139 84.413 323.627 80.7351 316.286 80.7351C306.956 80.7351 303.056 85.9444 303.056 91.9214C303.056 98.5878 308.332 103.26 316.286 103.26C324.241 103.26 328.293 99.5826 329.21 97.0543L344.965 100.501C341.601 113.142 330.282 119.196 316.363 119.348C299.691 119.501 286.996 110.614 286.996 91.9978C286.996 73.3815 299.691 64.4943 316.363 64.6471Z" fill="#188B83"/>
<path d="M348.252 91.9978C348.252 73.3815 361.483 64.4943 377.773 64.6471C394.063 64.7998 407.294 73.4578 407.294 91.9978C407.294 110.538 394.063 119.348 377.773 119.348C361.483 119.348 348.252 110.538 348.252 91.9978V91.9978ZM364.39 91.9978C364.39 99.8881 370.966 104.792 377.773 104.792C384.961 104.792 391.156 99.8881 391.156 91.9978C391.156 84.1075 384.58 79.2801 377.773 79.2037C371.042 79.1273 364.39 84.0311 364.39 91.9978Z" fill="#188B83"/>
<path d="M411.348 65.1836H428.174L451.04 92.2288C452.34 93.7603 453.64 96.1358 454.404 98.1274L454.557 98.0511C453.793 96.1358 453.257 93.4548 453.257 91.3847V65.1836H469.316V118.814H452.491L429.624 91.845C428.324 90.2352 427.024 87.8616 426.336 85.87L426.183 85.9463C426.872 87.8616 427.407 90.5426 427.407 92.6127V118.814H411.348V65.1836Z" fill="#188B83"/>
<path d="M339.496 121.587C353.415 121.74 364.734 127.793 368.099 140.435L352.344 143.805C351.273 141.353 346.761 137.675 339.42 137.675C330.089 137.675 326.189 142.885 326.189 148.862C326.189 155.528 331.466 160.201 339.42 160.201C347.375 160.201 351.427 156.523 352.344 153.995L368.099 157.441C364.734 170.083 353.415 176.136 339.496 176.289C322.825 176.441 310.13 167.554 310.13 148.938C310.13 130.322 322.825 121.435 339.496 121.587V121.587Z" fill="#188B83"/>
<path d="M372.001 122.124H388.061V175.754H372.001V122.124V122.124Z" fill="#188B83"/>
<path d="M392.647 122.124H446.183V136.681H408.709V143.423H442.206V155.299H408.709V161.198H446.183V175.754H392.647V122.124V122.124Z" fill="#188B83"/>
<path d="M289.137 232.694V179.064H326.305C338.541 179.064 345.884 183.355 345.884 192.395C345.884 199.751 341.753 201.206 338.16 202.279C336.248 202.892 333.648 203.352 331.584 203.428V203.581C333.648 203.505 336.326 203.81 338.238 204.423C341.757 205.649 346.421 208.33 346.421 222.35V232.692H330.362V222.35C330.362 217.983 326.767 216.068 322.714 216.068L305.355 216.144V232.692H289.137V232.694ZM321.105 203.045C325.082 203.045 332.041 202.202 332.041 197.683C332.041 193.163 328.141 191.86 324.165 191.86H305.351V203.047H321.105V203.045Z" fill="#188B83"/>
<path d="M380.298 178.53C394.445 178.682 405.919 184.736 409.359 197.377L394.522 201.208C391.462 195.233 385.726 193.086 380.298 193.086C373.031 193.086 366.531 196.841 366.531 205.88C366.531 214.231 372.419 218.674 380.45 218.674C384.426 218.674 386.722 216.454 388.022 214.615H381.522V203.505H404.236C408.443 203.505 410.2 205.497 410.2 208.791V232.695H394.522V214.613H394.293C393.757 230.472 389.933 233.229 378.691 233.229C361.712 233.229 350.47 224.418 350.47 205.878C350.47 187.338 363.394 178.375 380.296 178.528L380.298 178.53Z" fill="#188B83"/>
<path d="M414.253 179.064H467.788V193.621H430.314V200.364H463.812V212.239H430.314V218.138H467.788V232.694H414.253V179.064V179.064Z" fill="#188B83"/>
<path d="M469.899 206.401C471.49 205.468 473.408 205.255 475.24 205.458C476.223 205.567 477.256 205.806 477.958 206.504C478.66 207.201 478.855 208.487 478.127 209.158C477.694 209.558 477.064 209.649 476.476 209.673C475.053 209.733 473.464 209.566 472.373 210.483C471.751 211.005 471.364 211.841 470.602 212.123C469.857 212.398 468.979 211.996 468.539 211.333C468.1 210.67 468.042 209.814 468.188 209.032C468.188 209.032 468.297 207.338 469.897 206.399L469.899 206.401Z" fill="#1EBAA9"/>
<path d="M465.765 199.359C466.84 200.735 468.758 200.159 469.613 199.236C470.467 198.316 470.78 197.029 471.063 195.804C471.707 193.004 472.353 190.068 471.613 187.292C471.392 186.462 471.033 185.642 470.411 185.051C469.789 184.46 468.864 184.139 468.048 184.402C467.081 184.714 466.525 185.709 466.132 186.645C464.982 189.402 464.455 192.419 464.605 195.404C464.675 196.798 464.916 198.251 465.763 199.359" fill="#1EBAA9"/>
<g opacity="0.2">
<path d="M465.764 199.359C466.839 200.735 468.757 200.159 469.612 199.236C470.466 198.316 470.779 197.029 471.062 195.804C471.706 193.004 472.352 190.068 471.612 187.292C471.391 186.462 471.032 185.642 470.41 185.051C469.788 184.46 468.863 184.139 468.047 184.402C467.08 184.714 466.524 185.709 466.131 186.645C464.981 189.402 464.454 192.419 464.604 195.404C464.674 196.798 464.915 198.251 465.762 199.359" fill="#1EBAA9"/>
</g>
<path d="M463.084 201.21C464.101 199.861 464.205 197.968 463.637 196.376C463.068 194.785 461.904 193.468 460.586 192.413C459.041 191.175 457.254 190.245 455.354 189.688C454.608 189.469 453.823 189.306 453.053 189.423C452.282 189.537 451.524 189.975 451.201 190.685C450.722 191.734 451.299 192.942 451.907 193.923C452.977 195.649 454.182 197.289 455.51 198.826C456.578 200.062 457.789 201.272 459.342 201.775C460.895 202.275 462.472 202.122 463.222 201.023" fill="#1EBAA9"/>
<path d="M466.874 221.731C465.779 201.202 468.65 190.068 468.65 190.068" stroke="#002E3C" stroke-width="1.13216" stroke-linecap="round" stroke-linejoin="round"/>
<path d="M455.932 192.94C455.932 192.94 466.837 196.081 466.873 221.731" stroke="#002E3C" stroke-width="1.13216" stroke-linecap="round" stroke-linejoin="round"/>
<path d="M473.612 207.404C473.612 207.404 466.169 208.537 466.871 221.687" stroke="#002E3C" stroke-width="1.13216" stroke-linecap="round" stroke-linejoin="round"/>
<path d="M460.504 221.206L463.565 232.845H471.016L474.078 221.206C474.214 220.686 473.823 220.175 473.283 220.175H461.296C460.759 220.175 460.365 220.686 460.502 221.206H460.504Z" fill="#284B64" stroke="#002F3C" stroke-width="1.13216" stroke-linecap="round" stroke-linejoin="round"/>
<path d="M290.446 214.691C284.871 212.478 282.36 206.566 281.272 200.98C281.092 200.048 280.763 199.095 281.021 198.183C281.28 197.268 282.189 196.475 283.118 196.672C283.886 196.834 284.374 197.564 284.915 198.135C285.636 198.894 286.575 199.445 287.588 199.7C288.254 199.869 289.034 199.885 289.548 199.429C290.254 198.802 290.095 197.678 289.877 196.76C289.471 195.048 289.064 193.335 288.659 191.623C288.44 190.705 288.222 189.766 288.31 188.825C288.398 187.885 288.85 186.926 289.678 186.478C290.507 186.028 291.718 186.281 292.114 187.137C292.278 187.495 292.29 187.901 292.405 188.277C292.519 188.653 292.796 189.034 293.187 189.057C293.582 189.079 293.895 188.731 294.112 188.399C294.858 187.248 295.233 185.901 295.568 184.571C295.903 183.24 296.214 181.886 296.852 180.672C297.49 179.458 298.511 178.377 299.825 177.995C301.141 177.613 302.748 178.099 303.384 179.315C304.02 180.533 303.559 182.026 302.967 183.269C302.09 185.111 300.947 186.826 299.583 188.343C299.336 188.616 299.069 188.912 299.037 189.28C298.977 189.939 299.705 190.413 300.363 190.473C301.109 190.542 301.846 190.297 302.59 190.214C303.336 190.132 304.195 190.266 304.626 190.881C305.224 191.734 304.656 192.903 304.022 193.729C302.752 195.383 301.198 196.818 299.448 197.95C298.82 198.356 298.15 198.74 297.709 199.342C297.265 199.945 297.123 200.85 297.607 201.421C298.09 201.993 298.995 202.001 299.681 201.706C300.367 201.409 300.921 200.876 301.545 200.464C302.714 199.692 304.385 199.399 305.457 200.301C306.161 200.896 306.44 201.885 306.364 202.803C306.289 203.722 305.906 204.588 305.477 205.402C303.976 208.252 301.791 210.772 299.059 212.474C296.327 214.176 293.64 215.085 290.446 214.699" fill="#284B64"/>
<path d="M290.446 214.691C284.871 212.478 282.36 206.566 281.272 200.98C281.092 200.048 280.763 199.095 281.021 198.183C281.28 197.268 282.189 196.475 283.118 196.672C283.886 196.834 284.374 197.564 284.915 198.135C285.636 198.894 286.575 199.445 287.588 199.7C288.254 199.869 289.034 199.885 289.548 199.429C290.254 198.802 290.095 197.678 289.877 196.76C289.471 195.048 289.064 193.335 288.659 191.623C288.44 190.705 288.222 189.766 288.31 188.825C288.398 187.885 288.85 186.926 289.678 186.478C290.507 186.028 291.718 186.281 292.114 187.137C292.278 187.495 292.29 187.901 292.405 188.277C292.519 188.653 292.796 189.034 293.187 189.057C293.582 189.079 293.895 188.731 294.112 188.399C294.858 187.248 295.233 185.901 295.568 184.571C295.903 183.24 296.214 181.886 296.852 180.672C297.49 179.458 298.511 178.377 299.825 177.995C301.141 177.613 302.748 178.099 303.384 179.315C304.02 180.533 303.559 182.026 302.967 183.269C302.09 185.111 300.947 186.826 299.583 188.343C299.336 188.616 299.069 188.912 299.037 189.28C298.977 189.939 299.705 190.413 300.363 190.473C301.109 190.542 301.846 190.297 302.59 190.214C303.336 190.132 304.195 190.266 304.626 190.881C305.224 191.734 304.656 192.903 304.022 193.729C302.752 195.383 301.198 196.818 299.448 197.95C298.82 198.356 298.15 198.74 297.709 199.342C297.265 199.945 297.123 200.85 297.607 201.421C298.09 201.993 298.995 202.001 299.681 201.706C300.367 201.409 300.921 200.876 301.545 200.464C302.714 199.692 304.385 199.399 305.457 200.301C306.161 200.896 306.44 201.885 306.364 202.803C306.289 203.722 305.906 204.588 305.477 205.402C303.976 208.252 301.791 210.772 299.059 212.474C296.327 214.176 293.64 215.085 290.446 214.699" stroke="#002F3C" stroke-width="1.13216" stroke-linecap="round" stroke-linejoin="round"/>
<path d="M301.664 178.453C301.664 178.453 285.462 202.429 293.184 225.871" stroke="#002F3C" stroke-width="1.13216" stroke-linecap="round" stroke-linejoin="round"/>
<path d="M281.554 197.246C281.554 197.246 291.258 208.467 291.262 208.426C291.266 208.386 305.909 200.814 305.909 200.814" stroke="#002F3C" stroke-width="1.13216" stroke-linecap="round" stroke-linejoin="round"/>
<path d="M289.678 186.476L293.698 195.924L304.826 191.308" stroke="#002F3C" stroke-width="1.13216" stroke-linecap="round" stroke-linejoin="round"/>
<path d="M283.816 218.986L287.463 232.845H296.334L299.982 218.986C300.144 218.365 299.677 217.758 299.037 217.758H284.761C284.121 217.758 283.653 218.365 283.816 218.986V218.986Z" fill="white" stroke="#002F3C" stroke-width="1.13216" stroke-linecap="round" stroke-linejoin="round"/>
<path d="M399.258 99.5343C398.729 99.8679 398.414 100.151 398.329 100.396L395.661 104.834L398.636 106.114L400.011 101.341C402.713 101.604 408.22 99.9021 408.22 99.5423L399.258 99.5343V99.5343Z" fill="white" stroke="#002F3C" stroke-width="1.13216" stroke-linecap="round" stroke-linejoin="round"/>
<path d="M375.418 99.9946C378.197 102.42 383.094 120.373 384.314 120.617C388.059 114.119 390.655 110.405 395.725 104.201L398.951 105.692C396.867 118.436 389.371 132.301 382.408 131.944C376.987 131.664 372.84 124.437 369.671 118.945C366.501 113.452 375.418 99.9926 375.418 99.9926V99.9946Z" fill="white" stroke="#002F3C" stroke-width="1.13216" stroke-linecap="round" stroke-linejoin="round"/>
<path d="M358.695 86.0207C357.375 85.8237 348.08 71.4721 352.193 68.1118C354.291 66.3955 357.987 72.7905 357.987 72.7905C357.987 72.7905 361.6 85.6449 358.695 86.0207Z" fill="#43BDAB" stroke="#002F3C" stroke-width="1.13216" stroke-linecap="round" stroke-linejoin="round"/>
<path d="M352.194 68.1139C348.31 71.2873 353.839 86.9794 358.445 85.9042C358.132 84.9998 357.923 83.8442 357.677 82.1741C357.617 81.2496 357.562 80.3915 357.516 79.5735L357.705 80.9381L358.569 81.0185C358.569 81.0185 357.733 74.6637 358.694 70.9316C358.04 71.5666 354.439 74.722 352.17 71.8339C350.675 69.9327 352.194 68.1139 352.194 68.1139V68.1139Z" fill="#43BDAB" stroke="#002F3C" stroke-width="1.13216" stroke-linecap="round" stroke-linejoin="round"/>
<path d="M368.374 228.004C368.374 228.004 369.622 229.81 372.34 230.894C375.061 231.977 376.754 231.734 376.603 232.459C376.453 233.183 366.131 232.819 366.165 231.977C366.199 231.135 366.731 229.931 366.691 228.004C366.651 226.076 368.374 228.004 368.374 228.004V228.004Z" fill="#284B64" stroke="#002F3C" stroke-width="1.13216" stroke-linecap="round" stroke-linejoin="round"/>
<path d="M357.033 228.004C357.224 230.492 357.96 231.736 358.051 232.459C358.139 233.183 351.33 233.261 351.159 232.459C350.921 231.338 354.692 230.488 354.905 228.004C355.105 225.676 357.033 228.004 357.033 228.004Z" fill="#284B64" stroke="#002F3C" stroke-width="1.13216" stroke-linecap="round" stroke-linejoin="round"/>
<path d="M347.518 142.01C347.518 142.01 346.009 155.876 351.546 182.654C351.546 182.654 349.676 194.529 349.462 198.581C349.211 203.294 353.263 228.773 353.263 228.773H358.042C358.361 217.682 359.739 207.808 360.165 199.21C360.47 193.074 359.81 187.59 360.117 182.776C361.16 166.433 362.097 157.833 362.097 157.833H362.907C362.907 157.833 364.781 180.22 364.713 182.654C364.643 185.088 362.723 195.601 362.612 199.387C362.504 203.173 365.244 228.773 365.244 228.773H370.368C373.787 164.687 374.569 164.787 374.898 142.111L347.516 142.01H347.518Z" fill="#284B64" stroke="#002F3C" stroke-width="1.13216" stroke-linecap="round" stroke-linejoin="round"/>
<path d="M365.247 228.771H370.371C374.43 180.654 374.843 170.263 374.949 142.016L364.802 141.97L363.967 155.954L361.696 157.831H362.91C362.91 157.831 364.784 180.218 364.716 182.651C364.645 185.085 362.031 195.598 361.875 199.385C361.718 203.171 365.249 228.771 365.249 228.771H365.247Z" fill="#284B64" stroke="#002F3C" stroke-width="1.13216" stroke-linecap="round" stroke-linejoin="round"/>
<path d="M374.946 142.016L347.518 142.008C347.518 142.008 347.478 142.436 347.436 143.27C349.353 144.454 355.328 147.394 366.209 146.47C369.957 146.152 372.701 145.664 374.9 145.101C374.914 144.12 374.932 143.089 374.946 142.014V142.016Z" fill="#284B64" stroke="#002F3C" stroke-width="1.13216" stroke-linecap="round" stroke-linejoin="round"/>
<path d="M345.09 98.7766L355.941 94.7953C359.39 95.0244 363.021 95.3339 367.78 96.0594L375.421 99.9945C375.421 99.9945 375.829 109.517 375.46 121.332C375.09 133.147 374.972 143.293 374.972 143.293C365.874 145.121 356.246 145.381 347.519 142.008C347.519 142.008 346.845 141.375 347.251 139.482C347.656 137.589 349.718 126.101 349.718 126.101C349.718 126.101 347.79 111.758 345.092 98.7746L345.09 98.7766Z" fill="#284B64" stroke="#002F3C" stroke-width="1.13216" stroke-linecap="round" stroke-linejoin="round"/>
<path d="M367.779 96.0572C363.02 95.3337 359.389 95.0222 355.94 94.7931L352.11 96.1979C353.21 98.0951 359.104 107.955 366.242 113.976C366.242 113.976 370.134 106.456 371.478 97.9605L367.779 96.0552V96.0572Z" fill="white" stroke="#002F3C" stroke-width="1.13216" stroke-linecap="round" stroke-linejoin="round"/>
<path d="M357.07 81.0043C357.07 81.0043 358.42 89.7467 356.785 95.2273C356.785 95.2273 363.139 98.2881 364.992 98.1032C366.846 97.9163 367.302 96.9597 367.302 96.9597C367.302 96.9597 366.467 94.8334 366.74 90.3737L357.07 81.0063V81.0043Z" fill="white" stroke="#002F3C" stroke-width="1.13216" stroke-linecap="round" stroke-linejoin="round"/>
<path d="M365.223 98.242L365.873 94.4355C365.873 94.4355 366.8 92.5785 367.076 92.6248C367.355 92.671 368.188 96.2001 368.188 96.2001C368.188 96.2001 367.353 98.2641 365.223 98.242V98.242Z" fill="white" stroke="#002F3C" stroke-width="1.13216" stroke-linecap="round" stroke-linejoin="round"/>
<path d="M364.759 98.2419L363.276 94.4355C363.276 94.4355 357.715 90.7677 356.975 90.9084C356.6 90.9787 355.677 95.0866 355.677 95.0866C355.677 95.0866 357.438 98.4289 364.759 98.2419V98.2419Z" fill="white" stroke="#002F3C" stroke-width="1.13216" stroke-linecap="round" stroke-linejoin="round"/>
<path d="M374.947 143.502V142.828C373.431 143.08 370.283 143.574 364.714 143.779C357.206 144.058 352.48 141.829 352.48 141.273C352.48 140.716 354.287 127.765 354.149 125.536C354.011 123.308 349.284 106.04 349.284 106.04L347.531 111.878C348.877 119.857 349.717 126.103 349.717 126.103C349.717 126.103 347.655 137.591 347.25 139.484C346.845 141.377 347.519 142.01 347.519 142.01C356.246 145.381 365.851 145.332 374.947 143.504V143.502Z" fill="#284B64" stroke="#002F3C" stroke-width="1.13216" stroke-linecap="round" stroke-linejoin="round"/>
<path d="M347.995 161.105C347.796 160.464 347.435 158.689 347.198 157.799C346.953 156.882 346.293 155.825 346.293 155.825L346.317 156.056C345.99 155.859 344.949 155.361 344.046 156.336C344.046 156.336 343.364 159.471 343.388 162.238C343.412 165.006 343.629 165.343 343.9 165.303C344.173 165.263 344.177 164.686 344.115 163.824C344.115 163.824 344.239 162.393 344.327 162.381C344.415 162.369 344.46 163.876 344.456 164.15C344.452 164.423 344.508 166.314 344.939 166.29C345.352 166.266 345.302 164.917 345.272 164.184C345.272 164.184 345.368 162.361 345.495 162.363C345.623 162.363 345.631 163.999 345.641 164.272C345.651 164.546 345.679 166.563 346.079 166.551C346.48 166.539 346.59 166.059 346.522 164.341C346.522 164.341 346.386 162.271 346.512 162.285C346.869 162.252 346.638 165.806 347.262 165.78C347.579 165.768 347.581 164.966 347.541 163.923C347.499 162.857 347.501 162.518 347.413 161.772C347.409 161.746 347.405 161.712 347.401 161.674C347.71 162.273 348.113 162.156 348.201 162.021C348.259 161.931 348.189 161.74 347.993 161.099L347.995 161.105Z" fill="white" stroke="#002F3C" stroke-width="1.13216" stroke-linecap="round" stroke-linejoin="round"/>
<path d="M345.274 98.7766C340.024 100.407 337.704 119.885 338.334 130.643C339.261 146.426 342.991 153.946 342.991 153.946L346.658 153.476C346.658 153.476 348.482 144.941 347.984 139.741C347.489 134.542 346.686 132.5 346.5 130.643C346.315 128.786 349.465 119.503 350.392 116.346C351.318 113.191 349.232 97.5467 345.27 98.7766H345.274Z" fill="white" stroke="#002F3C" stroke-width="1.13216" stroke-linecap="round" stroke-linejoin="round"/>
<path d="M342.992 153.946L343.536 156.083L346.688 155.689L346.659 153.476L342.992 153.946Z" fill="white" stroke="#002F3C" stroke-width="1.13216" stroke-linecap="round" stroke-linejoin="round"/>
<path d="M356.886 72.1996C360.74 75.582 367.403 80.4034 371.857 76.4985C371.857 76.4985 374.651 72.4388 373.789 67.5692C372.924 62.6995 349.606 57.9083 353.909 69.4101" fill="#43BDAB"/>
<path d="M356.886 72.1996C360.74 75.582 367.403 80.4034 371.857 76.4985C371.857 76.4985 374.651 72.4388 373.789 67.5692C372.924 62.6995 349.606 57.9083 353.909 69.4101" stroke="#002F3C" stroke-width="1.13216" stroke-linecap="round" stroke-linejoin="round"/>
<path d="M357.675 82.172C357.94 83.9687 358.135 85.1725 358.452 86.1071C359.665 89.2202 363.21 90.9707 363.21 90.9707C364.237 91.7022 367.728 91.5917 368.476 91.029C369.185 90.4964 371.791 84.8228 372.043 82.2363C372.198 80.6506 371.997 79.2759 372.001 78.1485C372.005 75.9759 372.23 74.4264 372.063 71.9504C371.901 69.5085 368.94 68.0113 365.269 68.1721C356.863 68.5398 357.011 72.071 357.677 82.176L357.675 82.172Z" fill="white" stroke="#002F3C" stroke-width="1.13216" stroke-linecap="round" stroke-linejoin="round"/>
<path d="M372.183 75.9597C372.891 74.7097 374.466 71.3936 373.788 67.569C373.735 67.2796 373.601 66.9902 373.402 66.7028C371.589 64.3072 363.628 69.424 361.698 70.256C365.925 68.4312 368.267 68.3749 369.743 68.9738C371.32 69.7657 371.639 70.8871 372.183 75.9597Z" fill="#43BDAB" stroke="#002F3C" stroke-width="1.13216" stroke-linecap="round" stroke-linejoin="round"/>
<path d="M358.118 83.2693C356.904 83.1789 355.977 82.1198 356.048 80.9039C356.118 79.688 357.157 78.7775 358.371 78.87" fill="white"/>
<path d="M358.118 83.2693C356.904 83.1789 355.977 82.1198 356.048 80.9039C356.118 79.688 357.157 78.7775 358.371 78.87" stroke="#002F3C" stroke-width="1.13216" stroke-linecap="round" stroke-linejoin="round"/>
<path d="M356.264 71.2911C356.065 73.5701 356.918 76.627 357.512 80.9258L358.569 81.0163C358.569 81.0163 357.732 74.6614 358.693 70.9293" fill="#43BDAB"/>
<path d="M356.264 71.2911C356.065 73.5701 356.918 76.627 357.512 80.9258L358.569 81.0163C358.569 81.0163 357.732 74.6614 358.693 70.9293" stroke="#002F3C" stroke-width="1.13216" stroke-linecap="round" stroke-linejoin="round"/>
<path d="M355.215 95.0848L355.865 94.3412C357.903 97.1729 365.966 99.4942 368.145 95.9651L368.654 96.4755C366.131 100.382 358.114 98.5898 355.215 95.0828V95.0848Z" fill="#43BDAB" stroke="#002F3C" stroke-width="1.13216" stroke-linecap="round" stroke-linejoin="round"/>
<path d="M364.922 99.0201C365.485 99.0201 365.942 98.563 365.942 97.9991C365.942 97.4352 365.485 96.9781 364.922 96.9781C364.36 96.9781 363.903 97.4352 363.903 97.9991C363.903 98.563 364.36 99.0201 364.922 99.0201Z" fill="#43BDAB" stroke="#002F3C" stroke-width="1.13216" stroke-linecap="round" stroke-linejoin="round"/>
<path d="M364.26 97.4886C364.26 97.4886 361.202 95.7703 360.422 96.0798C359.708 96.3632 359.78 99.5989 360.578 99.842C361.158 100.019 364.328 98.602 364.328 98.602L364.262 97.4866L364.26 97.4886Z" fill="#43BDAB" stroke="#002F3C" stroke-width="1.13216" stroke-linecap="round" stroke-linejoin="round"/>
<path d="M365.65 97.3538C365.65 97.3538 367.845 95.531 368.285 95.7099C368.724 95.8887 369.069 98.9757 368.668 99.1928C368.268 99.4118 365.713 98.417 365.713 98.417L365.65 97.3518V97.3538Z" fill="#43BDAB" stroke="#002F3C" stroke-width="1.13216" stroke-linecap="round" stroke-linejoin="round"/>
<path d="M395.725 104.201L397.211 101.864L399.645 102.977L398.951 105.692L395.725 104.201Z" fill="white" stroke="#002F3C" stroke-width="1.13216" stroke-linecap="round" stroke-linejoin="round"/>
<path d="M366.503 113.454L366.242 113.978L368.321 116.159C368.321 116.159 367.673 123.774 367.394 129.066C367.115 134.357 367.281 144.579 367.281 144.579" fill="#284B64"/>
<path d="M366.503 113.454L366.242 113.978L368.321 116.159C368.321 116.159 367.673 123.774 367.394 129.066C367.115 134.357 367.281 144.579 367.281 144.579" stroke="#002F3C" stroke-width="1.13216" stroke-linecap="round" stroke-linejoin="round"/>
<path d="M365.17 119.688C365.17 120.253 364.715 120.709 364.151 120.709C363.587 120.709 363.132 120.253 363.132 119.688C363.132 119.123 363.587 118.667 364.151 118.667C364.715 118.667 365.17 119.123 365.17 119.688Z" fill="#43BDAB" stroke="#002F3C" stroke-width="1.13216" stroke-linecap="round" stroke-linejoin="round"/>
<path d="M364.522 128.786C364.522 129.351 364.066 129.807 363.503 129.807C362.939 129.807 362.483 129.351 362.483 128.786C362.483 128.222 362.939 127.765 363.503 127.765C364.066 127.765 364.522 128.222 364.522 128.786Z" fill="#43BDAB" stroke="#002F3C" stroke-width="1.13216" stroke-linecap="round" stroke-linejoin="round"/>
<path d="M364.429 138.628C364.429 139.193 363.974 139.649 363.41 139.649C362.846 139.649 362.391 139.193 362.391 138.628C362.391 138.063 362.846 137.607 363.41 137.607C363.974 137.607 364.429 138.063 364.429 138.628Z" fill="#43BDAB" stroke="#002F3C" stroke-width="1.13216" stroke-linecap="round" stroke-linejoin="round"/>
<path d="M420.179 99.5345H390.882C390.523 99.5345 390.178 99.3858 389.923 99.1225C389.669 98.8592 389.526 98.5055 389.526 98.1337C389.526 97.7619 389.669 97.4082 389.923 97.1469C390.178 96.8856 390.523 96.7369 390.882 96.7369H417.948C414.297 90.7177 407.845 89.3933 407.772 89.3792L407.69 89.3591C401.979 87.8598 396.608 88.8949 391.745 92.428C389.546 94.0097 387.628 95.9692 386.077 98.2241C385.981 98.3789 385.857 98.5115 385.71 98.618C385.564 98.7226 385.399 98.7969 385.225 98.8351C385.05 98.8733 384.87 98.8773 384.695 98.8431C384.521 98.809 384.352 98.7406 384.204 98.6422C383.901 98.4412 383.69 98.1237 383.614 97.7619C383.538 97.4001 383.604 97.0203 383.798 96.7088C385.532 94.1484 387.692 91.9236 390.176 90.1369C395.635 86.1737 401.912 84.9618 408.324 86.6299C409.109 86.7947 417.671 88.7602 421.441 97.5629C421.529 97.774 421.565 98.0051 421.547 98.2342C421.529 98.4633 421.457 98.6844 421.334 98.8773C421.212 99.0783 421.041 99.2431 420.839 99.3576C420.636 99.4722 420.409 99.5325 420.181 99.5325L420.179 99.5345Z" fill="#43BDAB" stroke="#002F3C" stroke-width="1.13216" stroke-linecap="round" stroke-linejoin="round"/>
<path d="M404.936 81.2217H400.185C399.437 81.2217 398.829 81.8467 398.829 82.6185V82.6225C398.829 83.3942 399.435 84.0193 400.185 84.0193H404.936C405.684 84.0193 406.29 83.3942 406.29 82.6225V82.6185C406.29 81.8467 405.684 81.2217 404.936 81.2217Z" fill="#43BDAB" stroke="#002F3C" stroke-width="1.13216" stroke-linecap="round" stroke-linejoin="round"/>
<path d="M367.299 76.6051V81.8325C367.299 82.6283 366.655 83.2735 365.861 83.2735H365.223" fill="white"/>
<path d="M367.299 76.6051V81.8325C367.299 82.6283 366.655 83.2735 365.861 83.2735H365.223" stroke="#002F3C" stroke-width="1.13216" stroke-linecap="round" stroke-linejoin="round"/>
<path d="M368.844 86.4367C368.844 86.4367 366.409 88.9509 362.994 86.0227Z" fill="white"/>
<path d="M368.844 86.4367C368.844 86.4367 366.409 88.9509 362.994 86.0227" stroke="#002F3C" stroke-width="1.13216" stroke-linecap="round" stroke-linejoin="round"/>
<path d="M356.785 70.634C356.785 70.634 357.834 72.4126 361.702 70.6682C369.88 66.9803 371.553 71.5846 371.553 71.5846C371.553 71.5846 369.525 61.4273 356.783 70.636L356.785 70.634Z" fill="#43BDAB" stroke="#002F3C" stroke-width="1.13216" stroke-linecap="round" stroke-linejoin="round"/>
<path d="M278.604 232.847H478.394" stroke="#002F3C" stroke-width="1.13216" stroke-linecap="round" stroke-linejoin="round"/>
</g>
<path d="M164.826 86.168C167.248 86.168 169.124 84.74 169.516 82.584H167.654C167.318 83.718 166.254 84.446 164.868 84.446C162.992 84.446 161.788 83.046 161.788 80.876C161.788 78.692 162.978 77.32 164.868 77.32C166.226 77.32 167.248 78.02 167.598 79.21H169.488C169.138 77.012 167.332 75.598 164.91 75.598C161.914 75.598 159.912 77.712 159.912 80.89C159.912 84.096 161.844 86.168 164.826 86.168ZM185.571 80.876C185.571 77.754 183.527 75.584 180.601 75.584C177.675 75.584 175.645 77.768 175.645 80.876C175.645 83.998 177.661 86.168 180.587 86.168C183.527 86.168 185.571 83.984 185.571 80.876ZM183.681 80.876C183.681 83.032 182.477 84.446 180.601 84.446C178.725 84.446 177.521 83.06 177.521 80.876C177.521 78.692 178.725 77.306 180.601 77.306C182.477 77.306 183.681 78.692 183.681 80.876ZM194.113 86V78.748L198.929 86H200.693V75.766H198.929V83.018L194.127 75.766H192.349V86H194.113ZM212.395 86.168C214.817 86.168 216.693 84.74 217.085 82.584H215.223C214.887 83.718 213.823 84.446 212.437 84.446C210.561 84.446 209.357 83.046 209.357 80.876C209.357 78.692 210.547 77.32 212.437 77.32C213.795 77.32 214.817 78.02 215.167 79.21H217.057C216.707 77.012 214.901 75.598 212.479 75.598C209.483 75.598 207.481 77.712 207.481 80.89C207.481 84.096 209.413 86.168 212.395 86.168ZM225.594 75.766H223.802V86H225.594V75.766ZM239.328 86V84.348H234.764V81.632H238.852V80.05H234.764V77.418H239.328V75.766H232.972V86H239.328ZM248.173 86V82.178H250.371L252.107 86H254.067L252.121 81.8C253.325 81.31 253.969 80.33 253.969 78.958C253.969 76.942 252.611 75.766 250.287 75.766H246.381V86H248.173ZM248.173 77.362H250.287C251.421 77.362 252.093 77.936 252.093 78.958C252.093 79.994 251.421 80.596 250.287 80.596H248.173V77.362ZM265.323 77.278C266.555 77.278 267.591 77.838 267.913 79.042H269.803C269.509 76.956 267.703 75.598 265.365 75.598C262.285 75.598 260.255 77.81 260.255 80.918C260.255 84.068 262.257 86.154 265.127 86.154C266.513 86.154 267.675 85.608 268.235 84.824L268.347 86H269.859V80.246H265.099V81.828H268.193V81.87C268.193 83.508 267.115 84.488 265.337 84.488C263.447 84.488 262.131 83.242 262.131 80.96C262.131 78.748 263.293 77.278 265.323 77.278ZM283.684 86V84.348H279.12V81.632H283.208V80.05H279.12V77.418H283.684V75.766H277.328V86H283.684Z" fill="white"/>
<g clip-path="url(#clip1_1202_16911)">
<path d="M117.343 91.0003H81.8481C81.4123 90.9993 80.9947 90.8216 80.6868 90.5064C80.379 90.1911 80.2061 89.764 80.2061 89.3187C80.2061 88.8737 80.3791 88.447 80.6871 88.1323C80.995 87.8177 81.4127 87.6409 81.8481 87.6409H114.639C110.215 80.4089 102.399 78.818 102.31 78.8022L102.209 78.7785C95.2896 76.9784 88.7833 78.2219 82.8913 82.4656C80.2265 84.3645 77.9037 86.7205 76.0257 89.4292C75.9092 89.6151 75.7579 89.7756 75.5805 89.9015C75.4031 90.0274 75.203 90.1162 74.9919 90.1628C74.7807 90.2094 74.5627 90.2129 74.3502 90.173C74.1377 90.1331 73.9351 90.0507 73.7539 89.9305C73.3881 89.6888 73.131 89.3087 73.0391 88.8735C72.9471 88.4384 73.0277 87.9838 73.2632 87.6093C75.3644 84.5337 77.9802 81.861 80.9904 79.7141C87.6049 74.9533 95.2085 73.4967 102.978 75.502C103.929 75.6994 114.302 78.0601 118.869 88.6357C118.976 88.8894 119.021 89.1661 118.998 89.4415C118.976 89.7168 118.888 89.9824 118.742 90.2148C118.592 90.4556 118.386 90.654 118.141 90.7914C117.897 90.9287 117.622 91.0006 117.343 91.0003Z" fill="white"/>
<path d="M98.8783 68.9999H93.1215C92.2147 68.9999 91.4795 69.751 91.4795 70.6776V70.6816C91.4795 71.6081 92.2147 72.3593 93.1215 72.3593H98.8783C99.7852 72.3593 100.52 71.6081 100.52 70.6816V70.6776C100.52 69.751 99.7852 68.9999 98.8783 68.9999Z" fill="white"/>
</g>
<path d="M75.484 125V118.784L79.612 125H81.124V116.228H79.612V122.444L75.496 116.228H73.972V125H75.484ZM85.5018 125.156C87.0498 125.156 88.1298 124.376 88.3818 123.08H87.0258C86.8578 123.644 86.3298 123.956 85.5258 123.956C84.5538 123.956 84.0018 123.428 83.8938 122.384L88.3578 122.372V121.928C88.3578 120.08 87.2298 118.892 85.4538 118.892C83.7138 118.892 82.5018 120.176 82.5018 122.036C82.5018 123.872 83.7378 125.156 85.5018 125.156ZM85.4658 120.092C86.3418 120.092 86.9058 120.632 86.9058 121.448H83.9298C84.0738 120.56 84.6018 120.092 85.4658 120.092ZM92.1814 125.156C93.7294 125.156 94.8094 124.376 95.0614 123.08H93.7054C93.5374 123.644 93.0094 123.956 92.2054 123.956C91.2334 123.956 90.6814 123.428 90.5734 122.384L95.0374 122.372V121.928C95.0374 120.08 93.9094 118.892 92.1334 118.892C90.3934 118.892 89.1814 120.176 89.1814 122.036C89.1814 123.872 90.4174 125.156 92.1814 125.156ZM92.1454 120.092C93.0214 120.092 93.5854 120.632 93.5854 121.448H90.6094C90.7534 120.56 91.2814 120.092 92.1454 120.092ZM98.6451 125.156C99.5451 125.156 100.313 124.76 100.673 124.076L100.769 125H102.113V116.072H100.661V119.828C100.289 119.24 99.5571 118.892 98.7291 118.892C96.9411 118.892 95.8611 120.212 95.8611 122.06C95.8611 123.896 96.9291 125.156 98.6451 125.156ZM98.9691 123.812C97.9491 123.812 97.3251 123.068 97.3251 122.012C97.3251 120.956 97.9491 120.2 98.9691 120.2C99.9891 120.2 100.649 120.944 100.649 122.012C100.649 123.08 99.9891 123.812 98.9691 123.812ZM106.585 118.676C106.585 120.02 107.365 120.872 108.853 121.196L110.245 121.508C110.965 121.664 111.265 122.012 111.265 122.6C111.265 123.332 110.617 123.776 109.597 123.776C108.613 123.776 108.013 123.332 108.001 122.588H106.465C106.501 124.16 107.725 125.156 109.597 125.156C111.529 125.156 112.801 124.1 112.801 122.468C112.801 121.16 112.069 120.392 110.569 120.068L109.189 119.768C108.457 119.6 108.121 119.252 108.121 118.628C108.121 117.896 108.733 117.44 109.681 117.44C110.545 117.44 111.085 117.884 111.121 118.64H112.657C112.609 117.056 111.481 116.072 109.705 116.072C107.857 116.072 106.585 117.14 106.585 118.676ZM113.627 122.024C113.627 123.872 114.959 125.144 116.795 125.144C118.631 125.144 119.963 123.872 119.963 122.024C119.963 120.176 118.631 118.904 116.795 118.904C114.959 118.904 113.627 120.176 113.627 122.024ZM115.091 122.024C115.091 120.944 115.787 120.212 116.795 120.212C117.803 120.212 118.499 120.944 118.499 122.024C118.499 123.104 117.803 123.836 116.795 123.836C115.787 123.836 115.091 123.104 115.091 122.024ZM122.587 125V121.64C122.587 120.68 123.151 120.224 123.847 120.224C124.543 120.224 124.987 120.668 124.987 121.496V125H126.451V121.64C126.451 120.668 126.991 120.212 127.699 120.212C128.395 120.212 128.851 120.656 128.851 121.508V125H130.303V121.124C130.303 119.756 129.511 118.892 128.071 118.892C127.171 118.892 126.475 119.336 126.175 120.02C125.863 119.336 125.239 118.892 124.339 118.892C123.487 118.892 122.887 119.276 122.587 119.768L122.467 119.072H121.123V125H122.587ZM134.392 125.156C135.94 125.156 137.02 124.376 137.272 123.08H135.916C135.748 123.644 135.22 123.956 134.416 123.956C133.444 123.956 132.892 123.428 132.784 122.384L137.248 122.372V121.928C137.248 120.08 136.12 118.892 134.344 118.892C132.604 118.892 131.392 120.176 131.392 122.036C131.392 123.872 132.628 125.156 134.392 125.156ZM134.356 120.092C135.232 120.092 135.796 120.632 135.796 121.448H132.82C132.964 120.56 133.492 120.092 134.356 120.092ZM140.377 125V120.296H141.529V119.072H140.377V117.224H138.913V119.072H137.773V120.296H138.913V125H140.377ZM143.904 125V121.76C143.904 120.872 144.444 120.224 145.368 120.224C146.112 120.224 146.604 120.704 146.604 121.7V125H148.068V121.352C148.068 119.816 147.3 118.892 145.836 118.892C144.984 118.892 144.288 119.264 143.916 119.84V116.072H142.44V125H143.904ZM150.238 117.884C150.718 117.884 151.114 117.488 151.114 116.996C151.114 116.504 150.718 116.12 150.238 116.12C149.734 116.12 149.338 116.504 149.338 116.996C149.338 117.488 149.734 117.884 150.238 117.884ZM149.506 125H150.97V119.072H149.506V125ZM153.947 125V121.808C153.947 120.848 154.499 120.224 155.399 120.224C156.155 120.224 156.647 120.704 156.647 121.7V125H158.111V121.352C158.111 119.816 157.343 118.892 155.855 118.892C155.051 118.892 154.331 119.24 153.959 119.84L153.839 119.072H152.483V125H153.947ZM159.213 121.904C159.213 123.62 160.317 124.88 161.997 124.88C162.849 124.88 163.581 124.532 163.953 123.98V124.964C163.953 125.948 163.305 126.584 162.297 126.584C161.397 126.584 160.809 126.128 160.713 125.36H159.249C159.429 126.944 160.593 127.916 162.297 127.916C164.217 127.916 165.405 126.68 165.405 124.7V119.072H164.049L163.965 119.888C163.617 119.252 162.921 118.88 162.033 118.88C160.341 118.88 159.213 120.176 159.213 121.904ZM160.689 121.868C160.689 120.896 161.313 120.164 162.285 120.164C163.305 120.164 163.917 120.86 163.917 121.868C163.917 122.9 163.293 123.608 162.285 123.608C161.325 123.608 160.689 122.864 160.689 121.868ZM171.858 125V121.856C171.858 120.764 171.846 119.936 171.762 119.408L173.982 125H175.398L177.63 119.396C177.546 120.02 177.546 120.536 177.546 122.3V125H179.034V116.228H177.522L174.69 123.212L171.858 116.228H170.37V125H171.858ZM180.412 122.024C180.412 123.872 181.744 125.144 183.58 125.144C185.416 125.144 186.748 123.872 186.748 122.024C186.748 120.176 185.416 118.904 183.58 118.904C181.744 118.904 180.412 120.176 180.412 122.024ZM181.876 122.024C181.876 120.944 182.572 120.212 183.58 120.212C184.588 120.212 185.284 120.944 185.284 122.024C185.284 123.104 184.588 123.836 183.58 123.836C182.572 123.836 181.876 123.104 181.876 122.024ZM191.628 119.048C191.388 118.988 191.184 118.964 190.98 118.964C190.188 118.964 189.624 119.36 189.372 119.948L189.288 119.084H187.908V125H189.372V122.12C189.372 120.968 190.032 120.404 191.088 120.404H191.628V119.048ZM195.072 125.156C196.62 125.156 197.7 124.376 197.952 123.08H196.596C196.428 123.644 195.9 123.956 195.096 123.956C194.124 123.956 193.572 123.428 193.464 122.384L197.928 122.372V121.928C197.928 120.08 196.8 118.892 195.024 118.892C193.284 118.892 192.072 120.176 192.072 122.036C192.072 123.872 193.308 125.156 195.072 125.156ZM195.036 120.092C195.912 120.092 196.476 120.632 196.476 121.448H193.5C193.644 120.56 194.172 120.092 195.036 120.092ZM204.35 125V120.296H205.502V119.072H204.35V117.224H202.886V119.072H201.746V120.296H202.886V125H204.35ZM207.876 125V121.76C207.876 120.872 208.416 120.224 209.34 120.224C210.084 120.224 210.576 120.704 210.576 121.7V125H212.04V121.352C212.04 119.816 211.272 118.892 209.808 118.892C208.956 118.892 208.26 119.264 207.888 119.84V116.072H206.412V125H207.876ZM215.243 125.156C216.167 125.156 216.971 124.736 217.223 124.124L217.331 125H218.615V121.4C218.615 119.756 217.631 118.892 216.035 118.892C214.427 118.892 213.371 119.732 213.371 121.016H214.619C214.619 120.392 215.099 120.032 215.963 120.032C216.707 120.032 217.187 120.356 217.187 121.16V121.292L215.411 121.424C214.007 121.532 213.215 122.216 213.215 123.308C213.215 124.424 213.983 125.156 215.243 125.156ZM215.723 124.052C215.063 124.052 214.703 123.788 214.703 123.248C214.703 122.768 215.051 122.468 215.963 122.384L217.199 122.288V122.6C217.199 123.512 216.623 124.052 215.723 124.052ZM221.517 125V121.808C221.517 120.848 222.069 120.224 222.969 120.224C223.725 120.224 224.217 120.704 224.217 121.7V125H225.681V121.352C225.681 119.816 224.913 118.892 223.425 118.892C222.621 118.892 221.901 119.24 221.529 119.84L221.409 119.072H220.053V125H221.517ZM73.468 135.676C73.468 137.02 74.248 137.872 75.736 138.196L77.128 138.508C77.848 138.664 78.148 139.012 78.148 139.6C78.148 140.332 77.5 140.776 76.48 140.776C75.496 140.776 74.896 140.332 74.884 139.588H73.348C73.384 141.16 74.608 142.156 76.48 142.156C78.412 142.156 79.684 141.1 79.684 139.468C79.684 138.16 78.952 137.392 77.452 137.068L76.072 136.768C75.34 136.6 75.004 136.252 75.004 135.628C75.004 134.896 75.616 134.44 76.564 134.44C77.428 134.44 77.968 134.884 78.004 135.64H79.54C79.492 134.056 78.364 133.072 76.588 133.072C74.74 133.072 73.468 134.14 73.468 135.676ZM80.5096 139.024C80.5096 140.872 81.8416 142.144 83.6776 142.144C85.5136 142.144 86.8456 140.872 86.8456 139.024C86.8456 137.176 85.5136 135.904 83.6776 135.904C81.8416 135.904 80.5096 137.176 80.5096 139.024ZM81.9736 139.024C81.9736 137.944 82.6696 137.212 83.6776 137.212C84.6856 137.212 85.3816 137.944 85.3816 139.024C85.3816 140.104 84.6856 140.836 83.6776 140.836C82.6696 140.836 81.9736 140.104 81.9736 139.024ZM87.3946 136.072V137.296H88.2466V142H89.6986V137.296H92.1946V142H93.6586V137.296H94.8106V136.072H93.6586V134.224H92.1946V136.072H89.6986V135.352C89.6986 134.764 89.8666 134.38 90.5266 134.38H91.0426V133.132C90.7906 133.084 90.5146 133.072 90.2866 133.072C89.0866 133.072 88.2466 133.744 88.2466 135.352V136.072H87.3946ZM97.0249 142H98.4529L99.2689 139.456C99.5689 138.484 99.6769 138.064 99.7369 137.788C99.7849 138.088 99.9169 138.652 100.157 139.432L100.973 142H102.341L104.393 136.072H102.845L102.053 138.616C101.945 138.988 101.753 139.696 101.657 140.14C101.585 139.744 101.345 138.856 101.273 138.616L100.481 136.072H98.9929L98.1769 138.616C97.9849 139.204 97.8769 139.576 97.7689 140.152C97.6609 139.6 97.5409 139.084 97.4089 138.616L96.6289 136.072H95.1049L97.0249 142ZM106.75 142.156C107.674 142.156 108.478 141.736 108.73 141.124L108.838 142H110.122V138.4C110.122 136.756 109.138 135.892 107.542 135.892C105.934 135.892 104.878 136.732 104.878 138.016H106.126C106.126 137.392 106.606 137.032 107.47 137.032C108.214 137.032 108.694 137.356 108.694 138.16V138.292L106.918 138.424C105.514 138.532 104.722 139.216 104.722 140.308C104.722 141.424 105.49 142.156 106.75 142.156ZM107.23 141.052C106.57 141.052 106.21 140.788 106.21 140.248C106.21 139.768 106.558 139.468 107.47 139.384L108.706 139.288V139.6C108.706 140.512 108.13 141.052 107.23 141.052ZM115.281 136.048C115.041 135.988 114.837 135.964 114.633 135.964C113.841 135.964 113.277 136.36 113.025 136.948L112.941 136.084H111.561V142H113.025V139.12C113.025 137.968 113.685 137.404 114.741 137.404H115.281V136.048ZM118.724 142.156C120.272 142.156 121.352 141.376 121.604 140.08H120.248C120.08 140.644 119.552 140.956 118.748 140.956C117.776 140.956 117.224 140.428 117.116 139.384L121.58 139.372V138.928C121.58 137.08 120.452 135.892 118.676 135.892C116.936 135.892 115.724 137.176 115.724 139.036C115.724 140.872 116.96 142.156 118.724 142.156ZM118.688 137.092C119.564 137.092 120.128 137.632 120.128 138.448H117.152C117.296 137.56 117.824 137.092 118.688 137.092ZM125.68 139.756V139.48C125.68 138.868 126.136 138.508 126.724 138.088C127.42 137.596 128.248 136.984 128.248 135.7C128.248 134.104 127.168 133.072 125.38 133.072C123.64 133.072 122.38 134.284 122.38 136H123.904C123.904 135.076 124.492 134.44 125.344 134.44C126.184 134.44 126.688 134.98 126.688 135.796C126.688 136.492 126.196 136.9 125.656 137.332C125.02 137.824 124.348 138.388 124.348 139.48V139.756H125.68ZM125.068 142.156C125.596 142.156 126.04 141.712 126.04 141.208C126.04 140.68 125.596 140.248 125.068 140.248C124.528 140.248 124.096 140.68 124.096 141.208C124.096 141.724 124.528 142.156 125.068 142.156ZM75.796 176H77.308L79.216 169.616L81.088 176H82.576L85.24 167.228H83.68L82.264 171.872C82.132 172.316 82.012 172.784 81.844 173.6C81.7 172.856 81.568 172.352 81.424 171.86L80.068 167.228H78.376L76.996 171.86C76.84 172.364 76.708 172.82 76.564 173.6C76.432 172.832 76.3 172.34 76.168 171.86L74.776 167.228H73.18L75.796 176ZM86.9099 168.884C87.3899 168.884 87.7859 168.488 87.7859 167.996C87.7859 167.504 87.3899 167.12 86.9099 167.12C86.4059 167.12 86.0099 167.504 86.0099 167.996C86.0099 168.488 86.4059 168.884 86.9099 168.884ZM86.1779 176H87.6419V170.072H86.1779V176ZM91.1704 176V171.296H92.3224V170.072H91.1704V168.224H89.7064V170.072H88.5664V171.296H89.7064V176H91.1704ZM94.6966 176V172.76C94.6966 171.872 95.2366 171.224 96.1606 171.224C96.9046 171.224 97.3966 171.704 97.3966 172.7V176H98.8606V172.352C98.8606 170.816 98.0926 169.892 96.6286 169.892C95.7766 169.892 95.0806 170.264 94.7086 170.84V167.072H93.2326V176H94.6966ZM111.753 171.608C111.753 168.932 110.001 167.072 107.493 167.072C104.985 167.072 103.245 168.944 103.245 171.608C103.245 174.284 104.973 176.144 107.481 176.144C110.001 176.144 111.753 174.272 111.753 171.608ZM110.133 171.608C110.133 173.456 109.101 174.668 107.493 174.668C105.885 174.668 104.853 173.48 104.853 171.608C104.853 169.736 105.885 168.548 107.493 168.548C109.101 168.548 110.133 169.736 110.133 171.608ZM116.987 170.072V173.18C116.987 174.308 116.543 174.848 115.619 174.848C114.803 174.848 114.359 174.392 114.359 173.264V170.072H112.895V173.78C112.895 175.232 113.699 176.156 115.067 176.156C115.859 176.156 116.627 175.772 116.987 175.208L117.095 176H118.451V170.072H116.987ZM123.683 170.048C123.443 169.988 123.239 169.964 123.035 169.964C122.243 169.964 121.679 170.36 121.427 170.948L121.343 170.084H119.963V176H121.427V173.12C121.427 171.968 122.087 171.404 123.143 171.404H123.683V170.048ZM131.832 176.144C133.908 176.144 135.516 174.92 135.852 173.072H134.256C133.968 174.044 133.056 174.668 131.868 174.668C130.26 174.668 129.228 173.468 129.228 171.608C129.228 169.736 130.248 168.56 131.868 168.56C133.032 168.56 133.908 169.16 134.208 170.18H135.828C135.528 168.296 133.98 167.084 131.904 167.084C129.336 167.084 127.62 168.896 127.62 171.62C127.62 174.368 129.276 176.144 131.832 176.144ZM136.666 173.024C136.666 174.872 137.998 176.144 139.834 176.144C141.67 176.144 143.002 174.872 143.002 173.024C143.002 171.176 141.67 169.904 139.834 169.904C137.998 169.904 136.666 171.176 136.666 173.024ZM138.13 173.024C138.13 171.944 138.826 171.212 139.834 171.212C140.842 171.212 141.538 171.944 141.538 173.024C141.538 174.104 140.842 174.836 139.834 174.836C138.826 174.836 138.13 174.104 138.13 173.024ZM145.626 176V172.808C145.626 171.848 146.178 171.224 147.078 171.224C147.834 171.224 148.326 171.704 148.326 172.7V176H149.79V172.352C149.79 170.816 149.022 169.892 147.534 169.892C146.73 169.892 146.01 170.24 145.638 170.84L145.518 170.072H144.162V176H145.626ZM150.881 173.024C150.881 174.908 152.057 176.156 153.857 176.156C155.405 176.156 156.557 175.208 156.737 173.828H155.261C155.105 174.476 154.589 174.836 153.857 174.836C152.921 174.836 152.345 174.14 152.345 173.024C152.345 171.908 152.969 171.2 153.905 171.2C154.601 171.2 155.093 171.548 155.261 172.22H156.725C156.569 170.792 155.465 169.892 153.845 169.892C152.093 169.892 150.881 171.188 150.881 173.024ZM158.558 168.884C159.038 168.884 159.434 168.488 159.434 167.996C159.434 167.504 159.038 167.12 158.558 167.12C158.054 167.12 157.658 167.504 157.658 167.996C157.658 168.488 158.054 168.884 158.558 168.884ZM157.826 176H159.29V170.072H157.826V176ZM163.455 176.156C165.003 176.156 166.083 175.376 166.335 174.08H164.979C164.811 174.644 164.283 174.956 163.479 174.956C162.507 174.956 161.955 174.428 161.847 173.384L166.311 173.372V172.928C166.311 171.08 165.183 169.892 163.407 169.892C161.667 169.892 160.455 171.176 160.455 173.036C160.455 174.872 161.691 176.156 163.455 176.156ZM163.419 171.092C164.295 171.092 164.859 171.632 164.859 172.448H161.883C162.027 171.56 162.555 171.092 163.419 171.092ZM171.203 170.048C170.963 169.988 170.759 169.964 170.555 169.964C169.763 169.964 169.199 170.36 168.947 170.948L168.863 170.084H167.483V176H168.947V173.12C168.947 171.968 169.607 171.404 170.663 171.404H171.203V170.048ZM171.705 172.904C171.705 174.62 172.809 175.88 174.489 175.88C175.341 175.88 176.073 175.532 176.445 174.98V175.964C176.445 176.948 175.797 177.584 174.789 177.584C173.889 177.584 173.301 177.128 173.205 176.36H171.741C171.921 177.944 173.085 178.916 174.789 178.916C176.709 178.916 177.897 177.68 177.897 175.7V170.072H176.541L176.457 170.888C176.109 170.252 175.413 169.88 174.525 169.88C172.833 169.88 171.705 171.176 171.705 172.904ZM173.181 172.868C173.181 171.896 173.805 171.164 174.777 171.164C175.797 171.164 176.409 171.86 176.409 172.868C176.409 173.9 175.785 174.608 174.777 174.608C173.817 174.608 173.181 173.864 173.181 172.868ZM182.064 176.156C183.612 176.156 184.692 175.376 184.944 174.08H183.588C183.42 174.644 182.892 174.956 182.088 174.956C181.116 174.956 180.564 174.428 180.456 173.384L184.92 173.372V172.928C184.92 171.08 183.792 169.892 182.016 169.892C180.276 169.892 179.064 171.176 179.064 173.036C179.064 174.872 180.3 176.156 182.064 176.156ZM182.028 171.092C182.904 171.092 183.468 171.632 183.468 172.448H180.492C180.636 171.56 181.164 171.092 182.028 171.092ZM189.038 169.676C189.038 171.02 189.818 171.872 191.306 172.196L192.698 172.508C193.418 172.664 193.718 173.012 193.718 173.6C193.718 174.332 193.07 174.776 192.05 174.776C191.066 174.776 190.466 174.332 190.454 173.588H188.918C188.954 175.16 190.178 176.156 192.05 176.156C193.982 176.156 195.254 175.1 195.254 173.468C195.254 172.16 194.522 171.392 193.022 171.068L191.642 170.768C190.91 170.6 190.574 170.252 190.574 169.628C190.574 168.896 191.186 168.44 192.134 168.44C192.998 168.44 193.538 168.884 193.574 169.64H195.11C195.062 168.056 193.934 167.072 192.158 167.072C190.31 167.072 189.038 168.14 189.038 169.676ZM199.08 176.156C200.628 176.156 201.708 175.376 201.96 174.08H200.604C200.436 174.644 199.908 174.956 199.104 174.956C198.132 174.956 197.58 174.428 197.472 173.384L201.936 173.372V172.928C201.936 171.08 200.808 169.892 199.032 169.892C197.292 169.892 196.08 171.176 196.08 173.036C196.08 174.872 197.316 176.156 199.08 176.156ZM199.044 171.092C199.92 171.092 200.484 171.632 200.484 172.448H197.508C197.652 171.56 198.18 171.092 199.044 171.092ZM206.828 170.048C206.588 169.988 206.384 169.964 206.18 169.964C205.388 169.964 204.824 170.36 204.572 170.948L204.488 170.084H203.108V176H204.572V173.12C204.572 171.968 205.232 171.404 206.288 171.404H206.828V170.048ZM209.674 176H211.114L213.586 170.072H212.074L210.994 172.796C210.742 173.444 210.526 174.068 210.442 174.44C210.37 174.116 210.166 173.504 209.914 172.796L208.882 170.072H207.322L209.674 176ZM215.16 168.884C215.64 168.884 216.036 168.488 216.036 167.996C216.036 167.504 215.64 167.12 215.16 167.12C214.656 167.12 214.26 167.504 214.26 167.996C214.26 168.488 214.656 168.884 215.16 168.884ZM214.428 176H215.892V170.072H214.428V176ZM217.056 173.024C217.056 174.908 218.232 176.156 220.032 176.156C221.58 176.156 222.732 175.208 222.912 173.828H221.436C221.28 174.476 220.764 174.836 220.032 174.836C219.096 174.836 218.52 174.14 218.52 173.024C218.52 171.908 219.144 171.2 220.08 171.2C220.776 171.2 221.268 171.548 221.436 172.22H222.9C222.744 170.792 221.64 169.892 220.02 169.892C218.268 169.892 217.056 171.188 217.056 173.024ZM226.654 176.156C228.202 176.156 229.282 175.376 229.534 174.08H228.178C228.01 174.644 227.482 174.956 226.678 174.956C225.706 174.956 225.154 174.428 225.046 173.384L229.51 173.372V172.928C229.51 171.08 228.382 169.892 226.606 169.892C224.866 169.892 223.654 171.176 223.654 173.036C223.654 174.872 224.89 176.156 226.654 176.156ZM226.618 171.092C227.494 171.092 228.058 171.632 228.058 172.448H225.082C225.226 171.56 225.754 171.092 226.618 171.092ZM232.275 175.472C232.275 174.728 231.843 174.236 231.243 174.236C230.703 174.236 230.331 174.62 230.331 175.196C230.331 175.676 230.715 176.024 231.183 176.024C231.326 176.024 231.435 176 231.531 175.952C231.531 176.372 231.123 176.696 230.583 176.792V177.38C231.555 177.26 232.275 176.468 232.275 175.472ZM76.084 189.544V193H77.62V189.544L80.572 184.228H78.904L77.188 187.42C77.032 187.708 76.984 187.852 76.876 188.068C76.78 187.852 76.696 187.66 76.564 187.42L74.836 184.228H73.12L76.084 189.544ZM79.8533 190.024C79.8533 191.872 81.1853 193.144 83.0213 193.144C84.8573 193.144 86.1893 191.872 86.1893 190.024C86.1893 188.176 84.8573 186.904 83.0213 186.904C81.1853 186.904 79.8533 188.176 79.8533 190.024ZM81.3173 190.024C81.3173 188.944 82.0133 188.212 83.0213 188.212C84.0293 188.212 84.7253 188.944 84.7253 190.024C84.7253 191.104 84.0293 191.836 83.0213 191.836C82.0133 191.836 81.3173 191.104 81.3173 190.024ZM91.2291 187.072V190.18C91.2291 191.308 90.7851 191.848 89.8611 191.848C89.0451 191.848 88.6011 191.392 88.6011 190.264V187.072H87.1371V190.78C87.1371 192.232 87.9411 193.156 89.3091 193.156C90.1011 193.156 90.8691 192.772 91.2291 192.208L91.3371 193H92.6931V187.072H91.2291ZM101.364 193.144C103.44 193.144 105.048 191.92 105.384 190.072H103.788C103.5 191.044 102.588 191.668 101.4 191.668C99.7916 191.668 98.7596 190.468 98.7596 188.608C98.7596 186.736 99.7796 185.56 101.4 185.56C102.564 185.56 103.44 186.16 103.74 187.18H105.36C105.06 185.296 103.512 184.084 101.436 184.084C98.8676 184.084 97.1516 185.896 97.1516 188.62C97.1516 191.368 98.8076 193.144 101.364 193.144ZM108.192 193.156C109.116 193.156 109.92 192.736 110.172 192.124L110.28 193H111.564V189.4C111.564 187.756 110.58 186.892 108.984 186.892C107.376 186.892 106.32 187.732 106.32 189.016H107.568C107.568 188.392 108.048 188.032 108.912 188.032C109.656 188.032 110.136 188.356 110.136 189.16V189.292L108.36 189.424C106.956 189.532 106.164 190.216 106.164 191.308C106.164 192.424 106.932 193.156 108.192 193.156ZM108.672 192.052C108.012 192.052 107.652 191.788 107.652 191.248C107.652 190.768 108 190.468 108.912 190.384L110.148 190.288V190.6C110.148 191.512 109.572 192.052 108.672 192.052ZM114.466 193V189.808C114.466 188.848 115.018 188.224 115.918 188.224C116.674 188.224 117.166 188.704 117.166 189.7V193H118.63V189.352C118.63 187.816 117.862 186.892 116.374 186.892C115.57 186.892 114.85 187.24 114.478 187.84L114.358 187.072H113.002V193H114.466ZM126.675 193C129.219 193 130.971 191.212 130.971 188.632C130.971 186.016 129.183 184.228 126.591 184.228H123.519V193H126.675ZM126.447 185.644C128.259 185.644 129.351 186.772 129.351 188.632C129.351 190.456 128.283 191.584 126.531 191.584H125.055V185.644H126.447ZM134.838 193.156C136.386 193.156 137.466 192.376 137.718 191.08H136.362C136.194 191.644 135.666 191.956 134.862 191.956C133.89 191.956 133.338 191.428 133.23 190.384L137.694 190.372V189.928C137.694 188.08 136.566 186.892 134.79 186.892C133.05 186.892 131.838 188.176 131.838 190.036C131.838 191.872 133.074 193.156 134.838 193.156ZM134.802 188.092C135.678 188.092 136.242 188.632 136.242 189.448H133.266C133.41 188.56 133.938 188.092 134.802 188.092ZM140.341 193V184.072H138.889V193H140.341ZM144.529 193.156C146.077 193.156 147.157 192.376 147.409 191.08H146.053C145.885 191.644 145.357 191.956 144.553 191.956C143.581 191.956 143.029 191.428 142.921 190.384L147.385 190.372V189.928C147.385 188.08 146.257 186.892 144.481 186.892C142.741 186.892 141.529 188.176 141.529 190.036C141.529 191.872 142.765 193.156 144.529 193.156ZM144.493 188.092C145.369 188.092 145.933 188.632 145.933 189.448H142.957C143.101 188.56 143.629 188.092 144.493 188.092ZM148.221 189.904C148.221 191.62 149.325 192.88 151.005 192.88C151.857 192.88 152.589 192.532 152.961 191.98V192.964C152.961 193.948 152.313 194.584 151.305 194.584C150.405 194.584 149.817 194.128 149.721 193.36H148.257C148.437 194.944 149.601 195.916 151.305 195.916C153.225 195.916 154.413 194.68 154.413 192.7V187.072H153.057L152.973 187.888C152.625 187.252 151.929 186.88 151.041 186.88C149.349 186.88 148.221 188.176 148.221 189.904ZM149.697 189.868C149.697 188.896 150.321 188.164 151.293 188.164C152.313 188.164 152.925 188.86 152.925 189.868C152.925 190.9 152.301 191.608 151.293 191.608C150.333 191.608 149.697 190.864 149.697 189.868ZM157.692 193.156C158.616 193.156 159.42 192.736 159.672 192.124L159.78 193H161.064V189.4C161.064 187.756 160.08 186.892 158.484 186.892C156.876 186.892 155.82 187.732 155.82 189.016H157.068C157.068 188.392 157.548 188.032 158.412 188.032C159.156 188.032 159.636 188.356 159.636 189.16V189.292L157.86 189.424C156.456 189.532 155.664 190.216 155.664 191.308C155.664 192.424 156.432 193.156 157.692 193.156ZM158.172 192.052C157.512 192.052 157.152 191.788 157.152 191.248C157.152 190.768 157.5 190.468 158.412 190.384L159.648 190.288V190.6C159.648 191.512 159.072 192.052 158.172 192.052ZM164.436 193V188.296H165.588V187.072H164.436V185.224H162.972V187.072H161.832V188.296H162.972V193H164.436ZM169.092 193.156C170.64 193.156 171.72 192.376 171.972 191.08H170.616C170.448 191.644 169.92 191.956 169.116 191.956C168.144 191.956 167.592 191.428 167.484 190.384L171.948 190.372V189.928C171.948 188.08 170.82 186.892 169.044 186.892C167.304 186.892 166.092 188.176 166.092 190.036C166.092 191.872 167.328 193.156 169.092 193.156ZM169.056 188.092C169.932 188.092 170.496 188.632 170.496 189.448H167.52C167.664 188.56 168.192 188.092 169.056 188.092ZM178.106 193V189.28H181.994V193H183.53V184.228H181.994V187.852H178.106V184.228H176.57V193H178.106ZM187.012 193V189.724H188.896L190.384 193H192.064L190.396 189.4C191.428 188.98 191.98 188.14 191.98 186.964C191.98 185.236 190.816 184.228 188.824 184.228H185.476V193H187.012ZM187.012 185.596H188.824C189.796 185.596 190.372 186.088 190.372 186.964C190.372 187.852 189.796 188.368 188.824 188.368H187.012V185.596ZM81.976 205.608C81.976 202.932 80.224 201.072 77.716 201.072C75.208 201.072 73.468 202.944 73.468 205.608C73.468 208.284 75.196 210.144 77.704 210.144C80.224 210.144 81.976 208.272 81.976 205.608ZM80.356 205.608C80.356 207.456 79.324 208.668 77.716 208.668C76.108 208.668 75.076 207.48 75.076 205.608C75.076 203.736 76.108 202.548 77.716 202.548C79.324 202.548 80.356 203.736 80.356 205.608ZM83.1896 212.748H84.6536V209.208C85.0256 209.808 85.7936 210.156 86.6816 210.156C88.4456 210.156 89.4536 208.812 89.4536 206.964C89.4536 205.104 88.3496 203.892 86.6816 203.892C85.7816 203.892 85.0016 204.288 84.6416 204.972L84.5456 204.072H83.1896V212.748ZM84.6656 207.036C84.6656 205.968 85.3256 205.224 86.3336 205.224C87.3656 205.224 87.9776 205.98 87.9776 207.036C87.9776 208.092 87.3656 208.836 86.3336 208.836C85.3256 208.836 84.6656 208.104 84.6656 207.036ZM93.2713 210.156C94.8193 210.156 95.8993 209.376 96.1513 208.08H94.7953C94.6273 208.644 94.0993 208.956 93.2953 208.956C92.3233 208.956 91.7713 208.428 91.6633 207.384L96.1273 207.372V206.928C96.1273 205.08 94.9993 203.892 93.2233 203.892C91.4833 203.892 90.2713 205.176 90.2713 207.036C90.2713 208.872 91.5073 210.156 93.2713 210.156ZM93.2353 205.092C94.1113 205.092 94.6753 205.632 94.6753 206.448H91.6993C91.8433 205.56 92.3713 205.092 93.2353 205.092ZM101.019 204.048C100.779 203.988 100.575 203.964 100.371 203.964C99.579 203.964 99.015 204.36 98.763 204.948L98.679 204.084H97.299V210H98.763V207.12C98.763 205.968 99.423 205.404 100.479 205.404H101.019V204.048ZM103.54 210.156C104.464 210.156 105.268 209.736 105.52 209.124L105.628 210H106.912V206.4C106.912 204.756 105.928 203.892 104.332 203.892C102.724 203.892 101.668 204.732 101.668 206.016H102.916C102.916 205.392 103.396 205.032 104.26 205.032C105.004 205.032 105.484 205.356 105.484 206.16V206.292L103.708 206.424C102.304 206.532 101.512 207.216 101.512 208.308C101.512 209.424 102.28 210.156 103.54 210.156ZM104.02 209.052C103.36 209.052 103 208.788 103 208.248C103 207.768 103.348 207.468 104.26 207.384L105.496 207.288V207.6C105.496 208.512 104.92 209.052 104.02 209.052ZM110.284 210V205.296H111.436V204.072H110.284V202.224H108.82V204.072H107.68V205.296H108.82V210H110.284ZM113.078 202.884C113.558 202.884 113.954 202.488 113.954 201.996C113.954 201.504 113.558 201.12 113.078 201.12C112.574 201.12 112.178 201.504 112.178 201.996C112.178 202.488 112.574 202.884 113.078 202.884ZM112.346 210H113.81V204.072H112.346V210ZM114.974 207.024C114.974 208.872 116.306 210.144 118.142 210.144C119.978 210.144 121.31 208.872 121.31 207.024C121.31 205.176 119.978 203.904 118.142 203.904C116.306 203.904 114.974 205.176 114.974 207.024ZM116.438 207.024C116.438 205.944 117.134 205.212 118.142 205.212C119.15 205.212 119.846 205.944 119.846 207.024C119.846 208.104 119.15 208.836 118.142 208.836C117.134 208.836 116.438 208.104 116.438 207.024ZM123.935 210V206.808C123.935 205.848 124.487 205.224 125.387 205.224C126.143 205.224 126.635 205.704 126.635 206.7V210H128.099V206.352C128.099 204.816 127.331 203.892 125.843 203.892C125.039 203.892 124.319 204.24 123.947 204.84L123.827 204.072H122.471V210H123.935ZM129.011 208.2C129.011 209.364 129.947 210.156 131.423 210.156C132.887 210.156 133.907 209.412 133.907 208.212C133.907 207.3 133.403 206.844 132.407 206.616L131.339 206.364C130.835 206.244 130.571 206.028 130.571 205.692C130.571 205.248 130.907 204.984 131.483 204.984C132.047 204.984 132.383 205.308 132.395 205.812H133.787C133.775 204.66 132.875 203.892 131.543 203.892C130.175 203.892 129.191 204.588 129.191 205.752C129.191 206.7 129.707 207.204 130.775 207.444L131.843 207.696C132.371 207.816 132.527 208.032 132.527 208.332C132.527 208.764 132.155 209.04 131.471 209.04C130.799 209.04 130.415 208.716 130.403 208.2H129.011ZM137.704 202.644H140.272V210H141.808V202.644H144.376V201.228H137.704V202.644ZM146.09 210.156C147.014 210.156 147.818 209.736 148.07 209.124L148.178 210H149.462V206.4C149.462 204.756 148.478 203.892 146.882 203.892C145.274 203.892 144.218 204.732 144.218 206.016H145.466C145.466 205.392 145.946 205.032 146.81 205.032C147.554 205.032 148.034 205.356 148.034 206.16V206.292L146.258 206.424C144.854 206.532 144.062 207.216 144.062 208.308C144.062 209.424 144.83 210.156 146.09 210.156ZM146.57 209.052C145.91 209.052 145.55 208.788 145.55 208.248C145.55 207.768 145.898 207.468 146.81 207.384L148.046 207.288V207.6C148.046 208.512 147.47 209.052 146.57 209.052ZM150.445 208.2C150.445 209.364 151.381 210.156 152.857 210.156C154.321 210.156 155.341 209.412 155.341 208.212C155.341 207.3 154.837 206.844 153.841 206.616L152.773 206.364C152.269 206.244 152.005 206.028 152.005 205.692C152.005 205.248 152.341 204.984 152.917 204.984C153.481 204.984 153.817 205.308 153.829 205.812H155.221C155.209 204.66 154.309 203.892 152.977 203.892C151.609 203.892 150.625 204.588 150.625 205.752C150.625 206.7 151.141 207.204 152.209 207.444L153.277 207.696C153.805 207.816 153.961 208.032 153.961 208.332C153.961 208.764 153.589 209.04 152.905 209.04C152.233 209.04 151.849 208.716 151.837 208.2H150.445ZM157.931 210V208.404L158.795 207.504L160.343 210H162.023L159.815 206.424L162.071 204.072H160.235L157.931 206.556V201.072H156.479V210H157.931ZM162.445 208.2C162.445 209.364 163.381 210.156 164.857 210.156C166.321 210.156 167.341 209.412 167.341 208.212C167.341 207.3 166.837 206.844 165.841 206.616L164.773 206.364C164.269 206.244 164.005 206.028 164.005 205.692C164.005 205.248 164.341 204.984 164.917 204.984C165.481 204.984 165.817 205.308 165.829 205.812H167.221C167.209 204.66 166.309 203.892 164.977 203.892C163.609 203.892 162.625 204.588 162.625 205.752C162.625 206.7 163.141 207.204 164.209 207.444L165.277 207.696C165.805 207.816 165.961 208.032 165.961 208.332C165.961 208.764 165.589 209.04 164.905 209.04C164.233 209.04 163.849 208.716 163.837 208.2H162.445ZM173.454 210.156C174.378 210.156 175.182 209.736 175.434 209.124L175.542 210H176.826V206.4C176.826 204.756 175.842 203.892 174.246 203.892C172.638 203.892 171.582 204.732 171.582 206.016H172.83C172.83 205.392 173.31 205.032 174.174 205.032C174.918 205.032 175.398 205.356 175.398 206.16V206.292L173.622 206.424C172.218 206.532 171.426 207.216 171.426 208.308C171.426 209.424 172.194 210.156 173.454 210.156ZM173.934 209.052C173.274 209.052 172.914 208.788 172.914 208.248C172.914 207.768 173.262 207.468 174.174 207.384L175.41 207.288V207.6C175.41 208.512 174.834 209.052 173.934 209.052ZM179.728 210V206.808C179.728 205.848 180.28 205.224 181.18 205.224C181.936 205.224 182.428 205.704 182.428 206.7V210H183.892V206.352C183.892 204.816 183.124 203.892 181.636 203.892C180.832 203.892 180.112 204.24 179.74 204.84L179.62 204.072H178.264V210H179.728ZM187.766 210.156C188.666 210.156 189.434 209.76 189.794 209.076L189.89 210H191.234V201.072H189.782V204.828C189.41 204.24 188.678 203.892 187.85 203.892C186.062 203.892 184.982 205.212 184.982 207.06C184.982 208.896 186.05 210.156 187.766 210.156ZM188.09 208.812C187.07 208.812 186.446 208.068 186.446 207.012C186.446 205.956 187.07 205.2 188.09 205.2C189.11 205.2 189.77 205.944 189.77 207.012C189.77 208.08 189.11 208.812 188.09 208.812ZM201.01 206.412V205.032H197.746V202.644H201.634V201.228H196.21V210H197.746V206.412H201.01ZM206.16 204.048C205.92 203.988 205.716 203.964 205.512 203.964C204.72 203.964 204.156 204.36 203.904 204.948L203.82 204.084H202.44V210H203.904V207.12C203.904 205.968 204.564 205.404 205.62 205.404H206.16V204.048ZM209.603 210.156C211.151 210.156 212.231 209.376 212.483 208.08H211.127C210.959 208.644 210.431 208.956 209.627 208.956C208.655 208.956 208.103 208.428 207.995 207.384L212.459 207.372V206.928C212.459 205.08 211.331 203.892 209.555 203.892C207.815 203.892 206.603 205.176 206.603 207.036C206.603 208.872 207.839 210.156 209.603 210.156ZM209.567 205.092C210.443 205.092 211.007 205.632 211.007 206.448H208.031C208.175 205.56 208.703 205.092 209.567 205.092ZM216.283 210.156C217.831 210.156 218.911 209.376 219.163 208.08H217.807C217.639 208.644 217.111 208.956 216.307 208.956C215.335 208.956 214.783 208.428 214.675 207.384L219.139 207.372V206.928C219.139 205.08 218.011 203.892 216.235 203.892C214.495 203.892 213.283 205.176 213.283 207.036C213.283 208.872 214.519 210.156 216.283 210.156ZM216.247 205.092C217.123 205.092 217.687 205.632 217.687 206.448H214.711C214.855 205.56 215.383 205.092 216.247 205.092ZM225.873 206.544V210H227.409V206.544L230.361 201.228H228.693L226.977 204.42C226.821 204.708 226.773 204.852 226.665 205.068C226.569 204.852 226.485 204.66 226.353 204.42L224.625 201.228H222.909L225.873 206.544ZM229.642 207.024C229.642 208.872 230.974 210.144 232.81 210.144C234.646 210.144 235.978 208.872 235.978 207.024C235.978 205.176 234.646 203.904 232.81 203.904C230.974 203.904 229.642 205.176 229.642 207.024ZM231.106 207.024C231.106 205.944 231.802 205.212 232.81 205.212C233.818 205.212 234.514 205.944 234.514 207.024C234.514 208.104 233.818 208.836 232.81 208.836C231.802 208.836 231.106 208.104 231.106 207.024ZM241.018 204.072V207.18C241.018 208.308 240.574 208.848 239.65 208.848C238.834 208.848 238.39 208.392 238.39 207.264V204.072H236.926V207.78C236.926 209.232 237.73 210.156 239.098 210.156C239.89 210.156 240.658 209.772 241.018 209.208L241.126 210H242.482V204.072H241.018ZM247.714 204.048C247.474 203.988 247.27 203.964 247.066 203.964C246.274 203.964 245.71 204.36 245.458 204.948L245.374 204.084H243.994V210H245.458V207.12C245.458 205.968 246.118 205.404 247.174 205.404H247.714V204.048ZM73.204 219.644H75.772V227H77.308V219.644H79.876V218.228H73.204V219.644ZM81.5661 219.884C82.0461 219.884 82.4421 219.488 82.4421 218.996C82.4421 218.504 82.0461 218.12 81.5661 218.12C81.0621 218.12 80.6661 218.504 80.6661 218.996C80.6661 219.488 81.0621 219.884 81.5661 219.884ZM80.8341 227H82.2981V221.072H80.8341V227ZM85.2747 227V223.64C85.2747 222.68 85.8387 222.224 86.5347 222.224C87.2307 222.224 87.6747 222.668 87.6747 223.496V227H89.1387V223.64C89.1387 222.668 89.6787 222.212 90.3867 222.212C91.0827 222.212 91.5387 222.656 91.5387 223.508V227H92.9907V223.124C92.9907 221.756 92.1987 220.892 90.7587 220.892C89.8587 220.892 89.1627 221.336 88.8627 222.02C88.5507 221.336 87.9267 220.892 87.0267 220.892C86.1747 220.892 85.5747 221.276 85.2747 221.768L85.1547 221.072H83.8107V227H85.2747ZM97.0799 227.156C98.6279 227.156 99.7079 226.376 99.9599 225.08H98.6039C98.4359 225.644 97.9079 225.956 97.1039 225.956C96.1319 225.956 95.5799 225.428 95.4719 224.384L99.9359 224.372V223.928C99.9359 222.08 98.8079 220.892 97.0319 220.892C95.2919 220.892 94.0799 222.176 94.0799 224.036C94.0799 225.872 95.3159 227.156 97.0799 227.156ZM97.0439 222.092C97.9199 222.092 98.4839 222.632 98.4839 223.448H95.5079C95.6519 222.56 96.1799 222.092 97.0439 222.092ZM106.358 227V222.296H107.51V221.072H106.358V219.224H104.894V221.072H103.754V222.296H104.894V227H106.358ZM108.013 224.024C108.013 225.872 109.345 227.144 111.181 227.144C113.017 227.144 114.349 225.872 114.349 224.024C114.349 222.176 113.017 220.904 111.181 220.904C109.345 220.904 108.013 222.176 108.013 224.024ZM109.477 224.024C109.477 222.944 110.173 222.212 111.181 222.212C112.189 222.212 112.885 222.944 112.885 224.024C112.885 225.104 112.189 225.836 111.181 225.836C110.173 225.836 109.477 225.104 109.477 224.024ZM122.8 219.524C123.856 219.524 124.744 220.004 125.02 221.036H126.64C126.388 219.248 124.84 218.084 122.836 218.084C120.196 218.084 118.456 219.98 118.456 222.644C118.456 225.344 120.172 227.132 122.632 227.132C123.82 227.132 124.816 226.664 125.296 225.992L125.392 227H126.688V222.068H122.608V223.424H125.26V223.46C125.26 224.864 124.336 225.704 122.812 225.704C121.192 225.704 120.064 224.636 120.064 222.68C120.064 220.784 121.06 219.524 122.8 219.524ZM131.851 221.048C131.611 220.988 131.407 220.964 131.203 220.964C130.411 220.964 129.847 221.36 129.595 221.948L129.511 221.084H128.131V227H129.595V224.12C129.595 222.968 130.255 222.404 131.311 222.404H131.851V221.048ZM132.295 224.024C132.295 225.872 133.627 227.144 135.463 227.144C137.299 227.144 138.631 225.872 138.631 224.024C138.631 222.176 137.299 220.904 135.463 220.904C133.627 220.904 132.295 222.176 132.295 224.024ZM133.759 224.024C133.759 222.944 134.455 222.212 135.463 222.212C136.471 222.212 137.167 222.944 137.167 224.024C137.167 225.104 136.471 225.836 135.463 225.836C134.455 225.836 133.759 225.104 133.759 224.024ZM140.806 227H142.234L143.05 224.456C143.35 223.484 143.458 223.064 143.518 222.788C143.566 223.088 143.698 223.652 143.938 224.432L144.754 227H146.122L148.174 221.072H146.626L145.834 223.616C145.726 223.988 145.534 224.696 145.438 225.14C145.366 224.744 145.126 223.856 145.054 223.616L144.262 221.072H142.774L141.958 223.616C141.766 224.204 141.658 224.576 141.55 225.152C141.442 224.6 141.322 224.084 141.19 223.616L140.41 221.072H138.886L140.806 227ZM154.623 223.544V227H156.159V223.544L159.111 218.228H157.443L155.727 221.42C155.571 221.708 155.523 221.852 155.415 222.068C155.319 221.852 155.235 221.66 155.103 221.42L153.375 218.228H151.659L154.623 223.544ZM158.392 224.024C158.392 225.872 159.724 227.144 161.56 227.144C163.396 227.144 164.728 225.872 164.728 224.024C164.728 222.176 163.396 220.904 161.56 220.904C159.724 220.904 158.392 222.176 158.392 224.024ZM159.856 224.024C159.856 222.944 160.552 222.212 161.56 222.212C162.568 222.212 163.264 222.944 163.264 224.024C163.264 225.104 162.568 225.836 161.56 225.836C160.552 225.836 159.856 225.104 159.856 224.024ZM169.768 221.072V224.18C169.768 225.308 169.324 225.848 168.4 225.848C167.584 225.848 167.14 225.392 167.14 224.264V221.072H165.676V224.78C165.676 226.232 166.48 227.156 167.848 227.156C168.64 227.156 169.408 226.772 169.768 226.208L169.876 227H171.232V221.072H169.768ZM176.464 221.048C176.224 220.988 176.02 220.964 175.816 220.964C175.024 220.964 174.46 221.36 174.208 221.948L174.124 221.084H172.744V227H174.208V224.12C174.208 222.968 174.868 222.404 175.924 222.404H176.464V221.048ZM180.906 227H184.458C186.27 227 187.314 226.124 187.314 224.624C187.314 223.604 186.846 222.908 185.922 222.608C186.75 222.26 187.182 221.564 187.182 220.592C187.182 219.128 186.126 218.228 184.398 218.228H180.906V227ZM184.266 219.584C185.13 219.584 185.61 219.992 185.61 220.748C185.61 221.528 185.142 221.972 184.302 221.972H182.442V219.584H184.266ZM184.398 223.268C185.25 223.268 185.742 223.688 185.742 224.432C185.742 225.224 185.262 225.644 184.398 225.644H182.442V223.268H184.398ZM192.526 221.072V224.18C192.526 225.308 192.082 225.848 191.158 225.848C190.342 225.848 189.898 225.392 189.898 224.264V221.072H188.434V224.78C188.434 226.232 189.238 227.156 190.606 227.156C191.398 227.156 192.166 226.772 192.526 226.208L192.634 227H193.99V221.072H192.526ZM194.929 225.2C194.929 226.364 195.865 227.156 197.341 227.156C198.805 227.156 199.825 226.412 199.825 225.212C199.825 224.3 199.321 223.844 198.325 223.616L197.257 223.364C196.753 223.244 196.489 223.028 196.489 222.692C196.489 222.248 196.825 221.984 197.401 221.984C197.965 221.984 198.301 222.308 198.313 222.812H199.705C199.693 221.66 198.793 220.892 197.461 220.892C196.093 220.892 195.109 221.588 195.109 222.752C195.109 223.7 195.625 224.204 196.693 224.444L197.761 224.696C198.289 224.816 198.445 225.032 198.445 225.332C198.445 225.764 198.073 226.04 197.389 226.04C196.717 226.04 196.333 225.716 196.321 225.2H194.929ZM201.672 219.884C202.152 219.884 202.548 219.488 202.548 218.996C202.548 218.504 202.152 218.12 201.672 218.12C201.168 218.12 200.772 218.504 200.772 218.996C200.772 219.488 201.168 219.884 201.672 219.884ZM200.94 227H202.404V221.072H200.94V227ZM205.38 227V223.808C205.38 222.848 205.932 222.224 206.832 222.224C207.588 222.224 208.08 222.704 208.08 223.7V227H209.544V223.352C209.544 221.816 208.776 220.892 207.288 220.892C206.484 220.892 205.764 221.24 205.392 221.84L205.272 221.072H203.916V227H205.38ZM213.635 227.156C215.183 227.156 216.263 226.376 216.515 225.08H215.159C214.991 225.644 214.463 225.956 213.659 225.956C212.687 225.956 212.135 225.428 212.027 224.384L216.491 224.372V223.928C216.491 222.08 215.363 220.892 213.587 220.892C211.847 220.892 210.635 222.176 210.635 224.036C210.635 225.872 211.871 227.156 213.635 227.156ZM213.599 222.092C214.475 222.092 215.039 222.632 215.039 223.448H212.063C212.207 222.56 212.735 222.092 213.599 222.092ZM217.206 225.2C217.206 226.364 218.142 227.156 219.618 227.156C221.082 227.156 222.102 226.412 222.102 225.212C222.102 224.3 221.598 223.844 220.602 223.616L219.534 223.364C219.03 223.244 218.766 223.028 218.766 222.692C218.766 222.248 219.102 221.984 219.678 221.984C220.242 221.984 220.578 222.308 220.59 222.812H221.982C221.97 221.66 221.07 220.892 219.738 220.892C218.37 220.892 217.386 221.588 217.386 222.752C217.386 223.7 217.902 224.204 218.97 224.444L220.038 224.696C220.566 224.816 220.722 225.032 220.722 225.332C220.722 225.764 220.35 226.04 219.666 226.04C218.994 226.04 218.61 225.716 218.598 225.2H217.206ZM222.761 225.2C222.761 226.364 223.697 227.156 225.173 227.156C226.637 227.156 227.657 226.412 227.657 225.212C227.657 224.3 227.153 223.844 226.157 223.616L225.089 223.364C224.585 223.244 224.321 223.028 224.321 222.692C224.321 222.248 224.657 221.984 225.233 221.984C225.797 221.984 226.133 222.308 226.145 222.812H227.537C227.525 221.66 226.625 220.892 225.293 220.892C223.925 220.892 222.941 221.588 222.941 222.752C222.941 223.7 223.457 224.204 224.525 224.444L225.593 224.696C226.121 224.816 226.277 225.032 226.277 225.332C226.277 225.764 225.905 226.04 225.221 226.04C224.549 226.04 224.165 225.716 224.153 225.2H222.761Z" fill="white"/>
<defs>
<filter id="filter0_ddd_1202_16911" x="0" y="0" width="554" height="315" filterUnits="userSpaceOnUse" color-interpolation-filters="sRGB">
<feFlood flood-opacity="0" result="BackgroundImageFix"/>
<feColorMatrix in="SourceAlpha" type="matrix" values="0 0 0 0 0 0 0 0 0 0 0 0 0 0 0 0 0 0 127 0" result="hardAlpha"/>
<feMorphology radius="7" operator="erode" in="SourceAlpha" result="effect1_dropShadow_1202_16911"/>
<feOffset dy="11"/>
<feGaussianBlur stdDeviation="7.5"/>
<feColorMatrix type="matrix" values="0 0 0 0 0.364706 0 0 0 0 0.447059 0 0 0 0 0.54902 0 0 0 0.16 0"/>
<feBlend mode="normal" in2="BackgroundImageFix" result="effect1_dropShadow_1202_16911"/>
<feColorMatrix in="SourceAlpha" type="matrix" values="0 0 0 0 0 0 0 0 0 0 0 0 0 0 0 0 0 0 127 0" result="hardAlpha"/>
<feMorphology radius="8" operator="dilate" in="SourceAlpha" result="effect2_dropShadow_1202_16911"/>
<feOffset dy="9"/>
<feGaussianBlur stdDeviation="23"/>
<feColorMatrix type="matrix" values="0 0 0 0 0.364706 0 0 0 0 0.447059 0 0 0 0 0.54902 0 0 0 0.08 0"/>
<feBlend mode="normal" in2="effect1_dropShadow_1202_16911" result="effect2_dropShadow_1202_16911"/>
<feColorMatrix in="SourceAlpha" type="matrix" values="0 0 0 0 0 0 0 0 0 0 0 0 0 0 0 0 0 0 127 0" result="hardAlpha"/>
<feMorphology radius="3" operator="dilate" in="SourceAlpha" result="effect3_dropShadow_1202_16911"/>
<feOffset dy="24"/>
<feGaussianBlur stdDeviation="19"/>
<feColorMatrix type="matrix" values="0 0 0 0 0.364706 0 0 0 0 0.447059 0 0 0 0 0.54902 0 0 0 0.1 0"/>
<feBlend mode="normal" in2="effect2_dropShadow_1202_16911" result="effect3_dropShadow_1202_16911"/>
<feBlend mode="normal" in="SourceGraphic" in2="effect3_dropShadow_1202_16911" result="shape"/>
</filter>
<clipPath id="clip0_1202_16911">
<rect width="200.392" height="171.333" fill="white" transform="translate(278.304 62)"/>
</clipPath>
<clipPath id="clip1_1202_16911">
<rect width="46" height="22" fill="white" transform="translate(73 69)"/>
</clipPath>
</defs>
</svg>
