<svg width="24" height="24" viewBox="0 0 24 24" fill="none" xmlns="http://www.w3.org/2000/svg">
<circle cx="11.9999" cy="11.9999" r="11.9999" fill="#EC9A2B"/>
<path fill-rule="evenodd" clip-rule="evenodd" d="M11 7.5H13C13.5522 7.5 14 7.94771 14 8.49999V8.99999H15.9999C16.5522 8.99999 16.9999 9.4477 16.9999 9.99998V15.5C16.9999 16.0522 16.5522 16.4999 15.9999 16.4999H7.99999C7.44771 16.4999 7 16.0522 7 15.5V9.99998C7 9.4477 7.44771 8.99999 7.99999 8.99999H9.99998V8.49999C9.99998 7.94771 10.4477 7.5 11 7.5ZM7.99999 9.99998H9.99998H14H15.9999V12.5H12.5H11.5H7.99999V9.99998ZM7.99999 15.5V13.5H11.5C11.5 13.7761 11.7238 14 12 14C12.2761 14 12.5 13.7761 12.5 13.5L15.9999 13.5V15.5H7.99999ZM13 8.49999V8.99999H11V8.49999H13Z" fill="white"/>
</svg>
