<svg width="24" height="24" viewBox="0 0 24 24" fill="none" xmlns="http://www.w3.org/2000/svg">
<circle cx="11.9999" cy="11.9999" r="11.9999" fill="#EC9A2B"/>
<path fill-rule="evenodd" clip-rule="evenodd" d="M8.43386 8.09161L7.31615 9.21769L6.79483 8.71344C6.67136 8.59401 6.47542 8.59401 6.35195 8.71344C6.22253 8.83862 6.22253 9.04612 6.35195 9.17131L7.31615 10.1039L8.88387 8.54056C9.00975 8.41503 9.00819 8.21066 8.88041 8.08706C8.75539 7.96614 8.55639 7.96816 8.43386 8.09161ZM15.7604 8.49076C16.0309 8.49076 16.2502 8.71001 16.2502 8.98046C16.2502 9.25092 16.0309 9.47017 15.7604 9.47017H10.4551C10.1847 9.47017 9.96541 9.25092 9.96541 8.98046C9.96541 8.71001 10.1847 8.49076 10.4551 8.49076H15.7604ZM16.2502 11.9187C16.2502 11.6482 16.0309 11.429 15.7604 11.429H10.4551C10.1847 11.429 9.96541 11.6482 9.96541 11.9187C9.96541 12.1892 10.1847 12.4084 10.4551 12.4084H15.7604C16.0309 12.4084 16.2502 12.1892 16.2502 11.9187ZM16.2502 14.8569C16.2502 14.5865 16.0309 14.3672 15.7604 14.3672H10.4551C10.1847 14.3672 9.96541 14.5865 9.96541 14.8569C9.96541 15.1274 10.1847 15.3466 10.4551 15.3466H15.7604C16.0309 15.3466 16.2502 15.1274 16.2502 14.8569ZM7.31615 12.1656L8.43386 11.0395C8.55639 10.9161 8.75539 10.9141 8.88041 11.035C9.00819 11.1586 9.00975 11.363 8.88387 11.4885L7.31615 13.0519L6.35195 12.1192C6.22253 11.9941 6.22253 11.7866 6.35195 11.6614C6.47542 11.5419 6.67136 11.5419 6.79483 11.6614L7.31615 12.1656ZM8.43386 13.9875L7.31615 15.1136L6.79483 14.6093C6.67136 14.4899 6.47542 14.4899 6.35195 14.6093C6.22253 14.7345 6.22253 14.942 6.35195 15.0672L7.31615 15.9998L8.88387 14.4364C9.00975 14.3109 9.00819 14.1065 8.88041 13.9829C8.75539 13.862 8.55639 13.864 8.43386 13.9875Z" fill="white"/>
</svg>
