<svg width="24" height="24" viewBox="0 0 24 24" fill="none" xmlns="http://www.w3.org/2000/svg">
<circle cx="12" cy="12" r="12" fill="#EC9A2B"/>
<path d="M8.5 7C7.67157 7 7 7.67157 7 8.5V15.5C7 16.3284 7.67157 17 8.5 17H11.5C11.5 16.4477 11.0523 16 10.5 16H8.49978C8.22364 16 7.99978 15.7761 7.99978 15.5V8.5C7.99978 8.22386 8.22364 8 8.49978 8H13.9998C14.2759 8 14.4998 8.22386 14.4998 8.5V10C14.4998 10.5523 14.9477 11 15.5 11V8.5C15.5 7.67157 14.8284 7 14 7H8.5Z" fill="white"/>
<path d="M9.5 9.5C9.22386 9.5 9 9.72386 9 10C9 10.2761 9.22386 10.5 9.5 10.5H13C13.2761 10.5 13.5 10.2761 13.5 10C13.5 9.72386 13.2761 9.5 13 9.5H9.5Z" fill="white"/>
<path d="M9 11.75C9 11.4739 9.22386 11.25 9.5 11.25H12C12.2761 11.25 12.5 11.4739 12.5 11.75C12.5 12.0261 12.2761 12.25 12 12.25H9.5C9.22386 12.25 9 12.0261 9 11.75Z" fill="white"/>
<path d="M9.5 13C9.22386 13 9 13.2239 9 13.5C9 13.7761 9.22386 14 9.5 14H11C11.2761 14 11.5 13.7761 11.5 13.5C11.5 13.2239 11.2761 13 11 13H9.5Z" fill="white"/>
<path fill-rule="evenodd" clip-rule="evenodd" d="M16.0607 14.5607C16.3321 14.2892 16.5 13.9142 16.5 13.5C16.5 13.0858 16.3321 12.7108 16.0607 12.4393C15.7892 12.1679 15.4142 12 15 12C14.5858 12 14.2108 12.1679 13.9393 12.4393C13.6679 12.7108 13.5 13.0858 13.5 13.5C13.5 13.9142 13.6679 14.2892 13.9393 14.5607C14.2108 14.8321 14.5858 15 15 15C15.4142 15 15.7892 14.8321 16.0607 14.5607ZM15.5303 12.9697C15.6661 13.1054 15.75 13.2929 15.75 13.5C15.75 13.7071 15.6661 13.8946 15.5303 14.0303C15.3946 14.1661 15.2071 14.25 15 14.25C14.7929 14.25 14.6054 14.1661 14.4697 14.0303C14.3339 13.8946 14.25 13.7071 14.25 13.5C14.25 13.2929 14.3339 13.1054 14.4697 12.9697C14.6054 12.8339 14.7929 12.75 15 12.75C15.2071 12.75 15.3946 12.8339 15.5303 12.9697Z" fill="white"/>
<path d="M13.5 15.5C12.9477 15.5 12.5 15.9477 12.5 16.5V17H17.5V16.5C17.5 15.9477 17.0523 15.5 16.5 15.5H13.5Z" fill="white"/>
<path d="M8.5 7C7.67157 7 7 7.67157 7 8.5V15.5C7 16.3284 7.67157 17 8.5 17H11.5C11.5 16.4477 11.0523 16 10.5 16H8.49978C8.22364 16 7.99978 15.7761 7.99978 15.5V8.5C7.99978 8.22386 8.22364 8 8.49978 8H13.9998C14.2759 8 14.4998 8.22386 14.4998 8.5V10C14.4998 10.5523 14.9477 11 15.5 11V8.5C15.5 7.67157 14.8284 7 14 7H8.5Z" fill="white"/>
<path d="M9.5 9.5C9.22386 9.5 9 9.72386 9 10C9 10.2761 9.22386 10.5 9.5 10.5H13C13.2761 10.5 13.5 10.2761 13.5 10C13.5 9.72386 13.2761 9.5 13 9.5H9.5Z" fill="white"/>
<path d="M9 11.75C9 11.4739 9.22386 11.25 9.5 11.25H12C12.2761 11.25 12.5 11.4739 12.5 11.75C12.5 12.0261 12.2761 12.25 12 12.25H9.5C9.22386 12.25 9 12.0261 9 11.75Z" fill="white"/>
<path d="M9.5 13C9.22386 13 9 13.2239 9 13.5C9 13.7761 9.22386 14 9.5 14H11C11.2761 14 11.5 13.7761 11.5 13.5C11.5 13.2239 11.2761 13 11 13H9.5Z" fill="white"/>
<path fill-rule="evenodd" clip-rule="evenodd" d="M16.0607 14.5607C16.3321 14.2892 16.5 13.9142 16.5 13.5C16.5 13.0858 16.3321 12.7108 16.0607 12.4393C15.7892 12.1679 15.4142 12 15 12C14.5858 12 14.2108 12.1679 13.9393 12.4393C13.6679 12.7108 13.5 13.0858 13.5 13.5C13.5 13.9142 13.6679 14.2892 13.9393 14.5607C14.2108 14.8321 14.5858 15 15 15C15.4142 15 15.7892 14.8321 16.0607 14.5607ZM15.5303 12.9697C15.6661 13.1054 15.75 13.2929 15.75 13.5C15.75 13.7071 15.6661 13.8946 15.5303 14.0303C15.3946 14.1661 15.2071 14.25 15 14.25C14.7929 14.25 14.6054 14.1661 14.4697 14.0303C14.3339 13.8946 14.25 13.7071 14.25 13.5C14.25 13.2929 14.3339 13.1054 14.4697 12.9697C14.6054 12.8339 14.7929 12.75 15 12.75C15.2071 12.75 15.3946 12.8339 15.5303 12.9697Z" fill="white"/>
<path d="M13.5 15.5C12.9477 15.5 12.5 15.9477 12.5 16.5V17H17.5V16.5C17.5 15.9477 17.0523 15.5 16.5 15.5H13.5Z" fill="white"/>
</svg>
