<svg width="24" height="24" viewBox="0 0 24 24" fill="none" xmlns="http://www.w3.org/2000/svg">
<circle cx="12" cy="12" r="11.5" stroke="#EC9A2B"/>
<path d="M14.5998 12.8C13.053 12.8 11.7998 11.5423 11.7998 10.0028C11.7998 8.45755 13.0587 7.19995 14.5998 7.19995C16.1466 7.19995 17.3998 8.45755 17.3998 10.0028C17.4054 11.5423 16.1466 12.8 14.5998 12.8ZM14.5998 7.98948C13.4877 7.98948 12.5901 8.89179 12.5901 10.0028C12.5901 11.1137 13.4933 12.0104 14.5998 12.0104C15.7119 12.0104 16.6095 11.1081 16.6095 10.0028C16.6151 8.89179 15.7119 7.98948 14.5998 7.98948Z" fill="#1A938A"/>
<path d="M10.0387 13.8H7.36056C6.94174 13.8 6.59961 13.4578 6.59961 13.039V10.3609C6.59961 9.94211 6.94174 9.59998 7.36056 9.59998H10.0387C10.4575 9.59998 10.7996 9.94211 10.7996 10.3609V13.039C10.7937 13.4637 10.4575 13.8 10.0387 13.8ZM7.42545 12.9741H9.96787V10.4317H7.42545V12.9741Z" fill="#1A938A"/>
<path d="M15.3347 16.2145L12.2591 13.068C12.1696 12.9773 12.0298 12.9773 11.9403 13.068L8.86473 16.2145C8.72493 16.3562 8.82558 16.6 9.02689 16.6H15.1781C15.3738 16.6 15.4745 16.3562 15.3347 16.2145Z" fill="#043344"/>
</svg>
