<svg width="24" height="24" viewBox="0 0 24 24" fill="none" xmlns="http://www.w3.org/2000/svg">
<circle cx="11.9999" cy="11.9999" r="11.9999" fill="#EC9A2B"/>
<path fill-rule="evenodd" clip-rule="evenodd" d="M7.5 15.4999V8.49999C7.5 7.67157 8.17157 7 8.99999 7H16.4999V7.5V7.99999V14V14.5V14.9999C16.2238 15 15.9999 15.2238 15.9999 15.4999C15.9999 15.7758 16.2233 15.9994 16.499 15.9999C16.4993 15.9999 16.4996 15.9999 16.4999 15.9999V16.9999H8.99999C8.17157 16.9999 7.5 16.3284 7.5 15.4999ZM15.0853 15.9999C15.03 15.8436 15 15.6753 15 15.4999C15 15.3246 15.03 15.1563 15.0853 14.9999H8.99999C8.72385 14.9999 8.49999 15.2238 8.49999 15.4999C8.49999 15.7761 8.72385 15.9999 8.99999 15.9999H15.0853ZM8.99999 7.99999H15.5V14H8.99999C8.82467 14 8.65638 14.03 8.49999 14.0853V8.49999C8.49999 8.22385 8.72385 7.99999 8.99999 7.99999Z" fill="white"/>
</svg>
