<svg width="24" height="24" viewBox="0 0 24 24" fill="none" xmlns="http://www.w3.org/2000/svg">
<circle cx="12" cy="12" r="12" fill="#EC9A2B"/>
<path fill-rule="evenodd" clip-rule="evenodd" d="M12.5 11.5C11.5681 11.5 10.785 10.8626 10.563 10H7.5C7.22386 10 7 9.77614 7 9.5C7 9.22386 7.22386 9 7.5 9H10.563C10.785 8.13739 11.5681 7.5 12.5 7.5C13.6046 7.5 14.5 8.39543 14.5 9.5C14.5 10.6046 13.6046 11.5 12.5 11.5ZM16 10C15.7239 10 15.5 9.77614 15.5 9.5C15.5 9.22386 15.7239 9 16 9H16.5C16.7761 9 17 9.22386 17 9.5C17 9.77614 16.7761 10 16.5 10H16ZM10 16.5C9.06808 16.5 8.28503 15.8626 8.06301 15H7.5C7.22386 15 7 14.7761 7 14.5C7 14.2239 7.22386 14 7.5 14H8.06301C8.28503 13.1374 9.06808 12.5 10 12.5C11.1046 12.5 12 13.3954 12 14.5C12 15.6046 11.1046 16.5 10 16.5ZM13 14.5C13 14.7761 13.2239 15 13.5 15H16.5C16.7761 15 17 14.7761 17 14.5C17 14.2239 16.7761 14 16.5 14H13.5C13.2239 14 13 14.2239 13 14.5ZM11 14.5C11 15.0523 10.5523 15.5 10 15.5C9.44772 15.5 9 15.0523 9 14.5C9 13.9477 9.44772 13.5 10 13.5C10.5523 13.5 11 13.9477 11 14.5ZM13.5 9.5C13.5 10.0523 13.0523 10.5 12.5 10.5C11.9477 10.5 11.5 10.0523 11.5 9.5C11.5 8.94772 11.9477 8.5 12.5 8.5C13.0523 8.5 13.5 8.94772 13.5 9.5Z" fill="white"/>
</svg>
