<svg width="107" height="63" viewBox="0 0 107 63" fill="none" xmlns="http://www.w3.org/2000/svg">
<path d="M58.7884 32.7324C60.8318 36.6165 60.6446 37.8968 57.6261 40.7495C54.0219 44.154 50.3943 47.5347 46.6904 51.0067L26.53 32.0164L59.8675 0.664062C75.9295 2.15984 90.5323 6.64385 101.163 19.4512C108.357 28.1181 107.827 39.6947 99.6186 48.3996C92.6994 55.7377 83.822 59.9352 74.0131 62.3088C73.861 62.3193 73.7084 62.2968 73.5661 62.2431C73.4238 62.1893 73.2952 62.1056 73.1895 61.9977C79.8577 60.2303 86.0469 57.5113 91.4977 53.4369C94.2913 51.4297 96.8174 49.0864 99.0173 46.4618C105.255 38.6808 104.572 29.0663 97.4675 21.9737C89.7277 14.2488 79.9487 10.4281 69.3779 8.27193C66.6336 7.71149 63.8318 7.42459 60.931 6.99403L34.8397 31.6111C38.7016 35.8582 42.4492 39.9801 46.3644 44.2852L58.7884 32.7324Z" fill="#006839"/>
<path d="M45.2048 55.7613L72.16 30.3236L59.4062 18.3454L47.556 29.4011C45.4444 26.2611 45.5563 24.8043 48.1582 22.337C51.8675 18.8203 55.6159 15.3434 59.4895 11.7172L79.3816 30.4882C68.3364 40.8897 57.4568 51.1317 46.3071 61.6293C29.6997 60.231 14.5577 55.3969 4.03235 41.5048C-0.605627 35.3832 -1.20916 28.2384 2.05109 21.268C7.92873 8.70046 19.8901 4.3468 32.0092 0.382324C25.8704 2.2882 19.9801 4.90201 14.815 8.7799C11.8338 11.0198 8.91075 13.5455 6.65038 16.4581C0.697646 24.1287 1.54572 33.4426 8.36317 40.3887C15.8031 47.9675 25.2035 51.8316 35.4134 54.1029C38.6097 54.8122 41.8787 55.2071 45.2048 55.7613Z" fill="#B09430"/>
<path d="M57.7314 22.7173C59.6056 26.1803 59.3632 28.698 57.5374 30.6829C54.3576 34.1426 51.1431 37.5695 47.816 41.1424C45.575 37.8778 46.0684 34.929 48.0691 33.0459C51.3769 29.9331 54.3011 26.4291 57.7314 22.7173Z" fill="#006839"/>
</svg>
