<svg width="40" height="40" viewBox="0 0 40 40" fill="none" xmlns="http://www.w3.org/2000/svg">
<path fill-rule="evenodd" clip-rule="evenodd" d="M18.0942 13.8966C18.9577 12.7329 19.2673 11.5065 18.2907 10.4239C16.0991 7.3573 14.6252 5.4609 13.7007 4.54764C11.9431 2.81142 9.05186 3.04627 7.52965 4.54616C6.71206 5.35176 6.43527 5.62841 5.59578 6.4811C0.919693 11.1597 3.77141 21.0501 11.3523 28.6384C18.9315 36.2251 28.8209 39.0783 33.5069 34.3898C34.2815 33.643 34.9374 32.9868 35.4547 32.44C36.9464 30.8634 37.1729 28.0996 35.4449 26.3041C34.5589 25.3836 32.7505 23.9809 29.5549 21.695C28.5761 20.8198 27.4157 21.0095 26.3517 21.7075C25.84 22.0432 25.4675 22.3829 24.7642 23.0868L23.4872 24.3646C23.319 24.5329 21.035 23.3891 18.8179 21.1698C16.5995 18.9493 15.4565 16.6652 15.6239 16.4978C15.9692 16.1526 16.3951 15.7264 16.9019 15.2191C17.125 14.9958 17.2317 14.8876 17.3685 14.7439C17.6535 14.4443 17.8895 14.1725 18.0942 13.8966ZM25.8429 26.7216L27.1202 25.4435C27.5073 25.0561 27.7581 24.8179 27.9622 24.6537C30.7616 26.664 32.3829 27.9281 33.0451 28.6162C33.4427 29.0293 33.3809 29.7831 33.0353 30.1484C32.557 30.654 31.9355 31.2758 31.1729 32.0113C28.1428 35.0427 20.1598 32.7395 13.7086 26.2819C7.25525 19.8222 4.95314 11.838 7.96033 8.82915C8.79644 7.97997 9.06134 7.7152 9.86726 6.9211C10.1694 6.62336 10.9925 6.5565 11.3601 6.91962C12.0719 7.62274 13.3922 9.31332 15.3345 12.0189C15.234 12.1437 15.1084 12.2848 14.9556 12.4454C14.8434 12.5633 14.7499 12.658 14.5456 12.8625C14.0393 13.3694 13.6137 13.7952 13.2689 14.1399C11.097 16.3117 12.9467 20.0079 16.4616 23.5262C19.9741 27.0422 23.6717 28.894 25.8429 26.7216Z" fill="#043344"/>
</svg>
