<svg width="418" height="707" viewBox="0 0 418 707" fill="none" xmlns="http://www.w3.org/2000/svg">
<g filter="url(#filter0_ddd_1304_13662)">
<rect x="32" y="45" width="332" height="597" rx="26" fill="white"/>
</g>
<g filter="url(#filter1_ddd_1304_13662)">
<rect x="46" y="58" width="304" height="571" rx="14" fill="white"/>
</g>
<path d="M124.573 404.96V424H129.533V400.32H119.197V404.96H124.573ZM139.95 422.368C139.95 420.16 138.67 418.624 136.814 418.624C135.15 418.624 134.062 419.808 134.062 421.568C134.062 422.976 135.214 424.096 136.718 424.096C137.07 424.096 137.39 424.032 137.646 423.904C137.55 425.216 136.398 426.08 134.798 426.368V428.128C137.806 427.808 139.95 425.44 139.95 422.368ZM156.561 417.632C159.441 413.696 160.497 411.552 160.497 408.64C160.497 403.68 156.625 399.904 151.313 399.904C146.065 399.904 142.257 403.424 142.257 408.608C142.257 413.472 145.585 416.832 150.449 416.832C150.769 416.832 151.089 416.8 151.409 416.736L146.001 424H151.921L156.561 417.632ZM155.185 408.576C155.185 411.008 153.649 412.64 151.313 412.64C149.041 412.64 147.505 411.008 147.505 408.576C147.505 406.144 149.073 404.48 151.313 404.48C153.617 404.48 155.185 406.144 155.185 408.576ZM162.605 412.224C162.605 419.552 166.445 424.416 172.941 424.416C179.437 424.416 183.277 419.552 183.277 412.224C183.277 404.896 179.117 399.872 172.941 399.872C166.765 399.872 162.605 404.896 162.605 412.224ZM167.725 412.224C167.725 406.976 169.645 404.416 172.941 404.416C176.237 404.416 178.157 406.976 178.157 412.224C178.157 417.312 176.237 419.872 172.941 419.872C169.645 419.872 167.725 417.312 167.725 412.224ZM185.574 412.224C185.574 419.552 189.414 424.416 195.91 424.416C202.406 424.416 206.246 419.552 206.246 412.224C206.246 404.896 202.086 399.872 195.91 399.872C189.734 399.872 185.574 404.896 185.574 412.224ZM190.694 412.224C190.694 406.976 192.614 404.416 195.91 404.416C199.206 404.416 201.126 406.976 201.126 412.224C201.126 417.312 199.206 419.872 195.91 419.872C192.614 419.872 190.694 417.312 190.694 412.224ZM217.011 407.2C217.011 411.072 219.187 413.472 223.411 414.336L227.027 415.072C228.595 415.392 229.203 416.064 229.203 417.376C229.203 418.88 227.731 419.808 225.395 419.808C223.091 419.808 221.811 418.848 221.811 417.12H216.659C216.659 421.568 220.083 424.416 225.363 424.416C230.803 424.416 234.387 421.44 234.387 416.864C234.387 413.12 232.371 411.104 228.147 410.24L224.595 409.504C222.931 409.152 222.195 408.448 222.195 407.008C222.195 405.44 223.539 404.48 225.651 404.48C227.603 404.48 228.851 405.504 228.851 407.168H234.003C234.003 402.688 230.803 399.872 225.715 399.872C220.627 399.872 217.011 402.912 217.011 407.2ZM241.055 424L242.751 419.008H250.399L252.063 424H257.567L249.151 400.32H244.095L235.647 424H241.055ZM245.951 409.6C246.239 408.736 246.495 407.84 246.591 407.296C246.687 407.872 246.975 408.8 247.231 409.6L248.927 414.656H244.255L245.951 409.6ZM265.507 424V415.712H269.507L273.059 424H278.723L274.563 414.592C277.187 413.248 278.499 411.072 278.499 408C278.499 403.104 275.235 400.32 269.475 400.32H260.323V424H265.507ZM265.507 404.928H269.475C271.779 404.928 273.027 406.016 273.027 408C273.027 410.016 271.715 411.168 269.443 411.168H265.507V404.928Z" fill="#1A938A"/>
<path d="M170.277 467L171.301 464.12H176.165L177.205 467H178.853L174.613 455.432H172.869L168.645 467H170.277ZM173.541 457.928C173.621 457.688 173.701 457.416 173.733 457.256C173.765 457.432 173.845 457.704 173.925 457.928L175.701 462.76H171.781L173.541 457.928ZM181.639 467V462.856C181.639 461.336 182.455 460.328 183.863 460.328C185.015 460.328 185.751 460.968 185.751 462.552V467H187.255V462.216C187.255 460.216 186.311 458.952 184.247 458.952C183.143 458.952 182.151 459.48 181.655 460.376L181.495 459.176H180.135V467H181.639ZM190.842 467V462.856C190.842 461.336 191.658 460.328 193.066 460.328C194.218 460.328 194.954 460.968 194.954 462.552V467H196.458V462.216C196.458 460.216 195.514 458.952 193.45 458.952C192.346 458.952 191.354 459.48 190.858 460.376L190.698 459.176H189.338V467H190.842ZM203.949 459.176V463.304C203.949 464.984 203.197 465.864 201.821 465.864C200.669 465.864 199.949 465.224 199.949 463.544V459.176H198.445V464.04C198.445 465.96 199.469 467.192 201.293 467.192C202.445 467.192 203.485 466.632 203.933 465.816L204.093 467H205.437V459.176H203.949ZM209.907 467.192C211.171 467.192 212.243 466.632 212.643 465.736L212.803 467H214.083V462.088C214.083 459.976 212.771 458.952 210.835 458.952C208.819 458.952 207.475 460.024 207.475 461.656H208.787C208.787 460.712 209.507 460.152 210.771 460.152C211.827 460.152 212.611 460.616 212.611 461.928V462.152L210.147 462.344C208.307 462.488 207.235 463.384 207.235 464.824C207.235 466.248 208.227 467.192 209.907 467.192ZM210.339 466.024C209.363 466.024 208.755 465.608 208.755 464.776C208.755 464.008 209.299 463.496 210.627 463.368L212.627 463.208V463.624C212.627 465.096 211.763 466.024 210.339 466.024ZM217.702 467V455.224H216.198V467H217.702ZM221.452 467V455.224H219.948V467H221.452ZM222.914 470.504C223.314 470.6 223.73 470.664 224.226 470.664C225.426 470.664 226.21 470.104 226.738 468.76L230.434 459.176H228.882L226.562 465.48L224.29 459.176H222.706L225.858 467.416L225.586 468.168C225.218 469.16 224.642 469.272 223.922 469.272H222.914V470.504Z" fill="#205260"/>
<path d="M153.154 595H154.786L159.138 583.432H157.506L154.706 590.808C154.514 591.32 154.242 592.088 153.97 593C153.73 592.136 153.506 591.48 153.25 590.824L150.434 583.432H148.754L153.154 595ZM159.559 595L160.583 592.12H165.447L166.487 595H168.135L163.895 583.432H162.151L157.927 595H159.559ZM162.823 585.928C162.903 585.688 162.983 585.416 163.015 585.256C163.047 585.432 163.127 585.704 163.207 585.928L164.983 590.76H161.063L162.823 585.928ZM167.506 584.872H170.994V595H172.562V584.872H176.034V583.432H167.506V584.872ZM185.105 595.192C187.041 595.192 188.353 594.248 188.737 592.568H187.329C187.073 593.464 186.305 593.944 185.137 593.944C183.649 593.944 182.785 593.032 182.673 591.384L188.721 591.368V590.808C188.721 588.488 187.265 586.952 185.041 586.952C182.769 586.952 181.217 588.648 181.217 591.096C181.217 593.528 182.801 595.192 185.105 595.192ZM185.041 588.216C186.369 588.216 187.217 589.08 187.217 590.376H182.705C182.897 589 183.729 588.216 185.041 588.216ZM190.904 595L192.824 592.136L194.776 595H196.52L193.848 591.128L196.568 587.176H194.856L192.92 590.088L190.936 587.176H189.192L191.912 591.128L189.176 595H190.904ZM197.014 591.096C197.014 593.56 198.534 595.192 200.838 595.192C202.726 595.192 204.182 594.056 204.486 592.36H202.982C202.71 593.288 201.91 593.848 200.838 593.848C199.414 593.848 198.502 592.76 198.502 591.08C198.502 589.384 199.478 588.296 200.902 588.296C201.91 588.296 202.71 588.824 202.966 589.816H204.47C204.198 588.072 202.822 586.952 200.854 586.952C198.566 586.952 197.014 588.648 197.014 591.096ZM207.609 595V583.224H206.105V595H207.609ZM215.231 587.176V591.304C215.231 592.984 214.479 593.864 213.103 593.864C211.951 593.864 211.231 593.224 211.231 591.544V587.176H209.727V592.04C209.727 593.96 210.751 595.192 212.575 595.192C213.727 595.192 214.767 594.632 215.215 593.816L215.375 595H216.719V587.176H215.231ZM221.881 595.192C223.129 595.192 224.185 594.648 224.697 593.576L224.825 595H226.169V583.224H224.681V588.44C224.153 587.48 223.145 586.952 221.945 586.952C219.625 586.952 218.233 588.712 218.233 591.112C218.233 593.496 219.609 595.192 221.881 595.192ZM222.185 593.832C220.649 593.832 219.753 592.68 219.753 591.064C219.753 589.464 220.649 588.312 222.185 588.312C223.721 588.312 224.665 589.464 224.665 591.064C224.665 592.696 223.721 593.832 222.185 593.832ZM231.715 595.192C233.651 595.192 234.963 594.248 235.347 592.568H233.939C233.683 593.464 232.915 593.944 231.747 593.944C230.259 593.944 229.395 593.032 229.283 591.384L235.331 591.368V590.808C235.331 588.488 233.875 586.952 231.651 586.952C229.379 586.952 227.827 588.648 227.827 591.096C227.827 593.528 229.411 595.192 231.715 595.192ZM231.651 588.216C232.979 588.216 233.827 589.08 233.827 590.376H229.315C229.507 589 230.339 588.216 231.651 588.216ZM240.147 595.192C241.395 595.192 242.451 594.648 242.963 593.576L243.091 595H244.435V583.224H242.947V588.44C242.419 587.48 241.411 586.952 240.211 586.952C237.891 586.952 236.499 588.712 236.499 591.112C236.499 593.496 237.875 595.192 240.147 595.192ZM240.451 593.832C238.915 593.832 238.019 592.68 238.019 591.064C238.019 589.464 238.915 588.312 240.451 588.312C241.987 588.312 242.931 589.464 242.931 591.064C242.931 592.696 241.987 593.832 240.451 593.832Z" fill="#93A5B1"/>
<rect x="68" y="504" width="259" height="48" rx="4" fill="#EC9A2B"/>
<path d="M148.835 534H153.571C155.987 534 157.379 532.832 157.379 530.832C157.379 529.472 156.755 528.544 155.523 528.144C156.627 527.68 157.203 526.752 157.203 525.456C157.203 523.504 155.795 522.304 153.491 522.304H148.835V534ZM153.315 524.112C154.467 524.112 155.107 524.656 155.107 525.664C155.107 526.704 154.483 527.296 153.363 527.296H150.883V524.112H153.315ZM153.491 529.024C154.627 529.024 155.283 529.584 155.283 530.576C155.283 531.632 154.643 532.192 153.491 532.192H150.883V529.024H153.491ZM158.505 530.032C158.505 532.496 160.281 534.192 162.729 534.192C165.177 534.192 166.953 532.496 166.953 530.032C166.953 527.568 165.177 525.872 162.729 525.872C160.281 525.872 158.505 527.568 158.505 530.032ZM160.457 530.032C160.457 528.592 161.385 527.616 162.729 527.616C164.073 527.616 165.001 528.592 165.001 530.032C165.001 531.472 164.073 532.448 162.729 532.448C161.385 532.448 160.457 531.472 160.457 530.032ZM168.036 530.032C168.036 532.496 169.812 534.192 172.26 534.192C174.708 534.192 176.484 532.496 176.484 530.032C176.484 527.568 174.708 525.872 172.26 525.872C169.812 525.872 168.036 527.568 168.036 530.032ZM169.988 530.032C169.988 528.592 170.916 527.616 172.26 527.616C173.604 527.616 174.532 528.592 174.532 530.032C174.532 531.472 173.604 532.448 172.26 532.448C170.916 532.448 169.988 531.472 169.988 530.032ZM179.999 534V531.872L181.151 530.672L183.215 534H185.455L182.511 529.232L185.519 526.096H183.071L179.999 529.408V522.096H178.063V534H179.999ZM193.305 534.208C194.537 534.208 195.609 533.648 195.945 532.832L196.089 534H197.801V529.2C197.801 527.008 196.489 525.856 194.361 525.856C192.217 525.856 190.809 526.976 190.809 528.688H192.473C192.473 527.856 193.113 527.376 194.265 527.376C195.257 527.376 195.897 527.808 195.897 528.88V529.056L193.529 529.232C191.657 529.376 190.601 530.288 190.601 531.744C190.601 533.232 191.625 534.208 193.305 534.208ZM193.945 532.736C193.065 532.736 192.585 532.384 192.585 531.664C192.585 531.024 193.049 530.624 194.265 530.512L195.913 530.384V530.8C195.913 532.016 195.145 532.736 193.945 532.736ZM208.527 534C211.919 534 214.255 531.616 214.255 528.176C214.255 524.688 211.871 522.304 208.415 522.304H204.319V534H208.527ZM208.223 524.192C210.639 524.192 212.095 525.696 212.095 528.176C212.095 530.608 210.671 532.112 208.335 532.112H206.367V524.192H208.223ZM219.411 534.208C221.475 534.208 222.915 533.168 223.251 531.44H221.443C221.219 532.192 220.515 532.608 219.443 532.608C218.147 532.608 217.411 531.904 217.267 530.512L223.219 530.496V529.904C223.219 527.44 221.715 525.856 219.347 525.856C217.027 525.856 215.411 527.568 215.411 530.048C215.411 532.496 217.059 534.208 219.411 534.208ZM219.363 527.456C220.531 527.456 221.283 528.176 221.283 529.264H217.315C217.507 528.08 218.211 527.456 219.363 527.456ZM226.733 534V529.52C226.733 528.24 227.485 527.632 228.413 527.632C229.341 527.632 229.933 528.224 229.933 529.328V534H231.885V529.52C231.885 528.224 232.605 527.616 233.549 527.616C234.477 527.616 235.085 528.208 235.085 529.344V534H237.021V528.832C237.021 527.008 235.965 525.856 234.045 525.856C232.845 525.856 231.917 526.448 231.517 527.36C231.101 526.448 230.269 525.856 229.069 525.856C227.933 525.856 227.133 526.368 226.733 527.024L226.573 526.096H224.781V534H226.733ZM238.474 530.032C238.474 532.496 240.25 534.192 242.698 534.192C245.146 534.192 246.922 532.496 246.922 530.032C246.922 527.568 245.146 525.872 242.698 525.872C240.25 525.872 238.474 527.568 238.474 530.032ZM240.426 530.032C240.426 528.592 241.354 527.616 242.698 527.616C244.042 527.616 244.97 528.592 244.97 530.032C244.97 531.472 244.042 532.448 242.698 532.448C241.354 532.448 240.426 531.472 240.426 530.032Z" fill="white"/>
<path d="M99.6357 284.088V282.664H95.0917V278.872H100.5V277.432H93.5237V289H95.0917V284.088H99.6357ZM101.021 285.08C101.021 287.496 102.749 289.192 105.101 289.192C107.437 289.192 109.165 287.496 109.165 285.08C109.165 282.664 107.437 280.968 105.101 280.968C102.749 280.968 101.021 282.664 101.021 285.08ZM102.541 285.08C102.541 283.448 103.581 282.312 105.101 282.312C106.605 282.312 107.661 283.448 107.661 285.08C107.661 286.712 106.605 287.848 105.101 287.848C103.581 287.848 102.541 286.712 102.541 285.08ZM115.31 281.112C115.006 281.048 114.782 281.016 114.51 281.016C113.438 281.016 112.654 281.56 112.334 282.376L112.238 281.192H110.83V289H112.334V284.856C112.334 283.352 113.214 282.488 114.638 282.488H115.31V281.112ZM120.456 286.728C120.456 288.216 121.624 289.192 123.464 289.192C125.32 289.192 126.6 288.248 126.6 286.76C126.6 285.592 125.944 284.984 124.616 284.664L123.24 284.328C122.472 284.136 122.088 283.784 122.088 283.256C122.088 282.536 122.616 282.12 123.56 282.12C124.472 282.12 125 282.616 125.032 283.4H126.472C126.44 281.912 125.32 280.952 123.608 280.952C121.88 280.952 120.664 281.864 120.664 283.304C120.664 284.456 121.32 285.144 122.712 285.48L124.088 285.8C124.904 286.008 125.16 286.328 125.16 286.856C125.16 287.576 124.552 288.008 123.496 288.008C122.504 288.008 121.896 287.528 121.896 286.728H120.456ZM129.772 289V284.36C129.772 283.112 130.524 282.328 131.66 282.328C132.716 282.328 133.388 283 133.388 284.232V289H134.876V284.36C134.876 283.112 135.628 282.312 136.764 282.312C137.82 282.312 138.508 283.016 138.508 284.248V289H139.98V283.88C139.98 282.072 138.892 280.952 137.1 280.952C135.884 280.952 134.94 281.56 134.572 282.536C134.172 281.56 133.308 280.952 132.092 280.952C130.988 280.952 130.156 281.464 129.756 282.2L129.612 281.176H128.268V289H129.772ZM144.353 289.192C145.617 289.192 146.689 288.632 147.089 287.736L147.249 289H148.529V284.088C148.529 281.976 147.217 280.952 145.281 280.952C143.265 280.952 141.921 282.024 141.921 283.656H143.233C143.233 282.712 143.953 282.152 145.217 282.152C146.273 282.152 147.057 282.616 147.057 283.928V284.152L144.593 284.344C142.753 284.488 141.681 285.384 141.681 286.824C141.681 288.248 142.673 289.192 144.353 289.192ZM144.785 288.024C143.809 288.024 143.201 287.608 143.201 286.776C143.201 286.008 143.745 285.496 145.073 285.368L147.073 285.208V285.624C147.073 287.096 146.209 288.024 144.785 288.024ZM152.147 289V277.224H150.643V289H152.147ZM155.897 289V277.224H154.393V289H155.897ZM164.694 289V282.44H166.23V281.176H164.694V278.728H163.19V281.176H161.654V282.44H163.19V289H164.694ZM170.878 289.192C172.814 289.192 174.126 288.248 174.51 286.568H173.102C172.846 287.464 172.078 287.944 170.91 287.944C169.422 287.944 168.558 287.032 168.446 285.384L174.494 285.368V284.808C174.494 282.488 173.038 280.952 170.814 280.952C168.542 280.952 166.99 282.648 166.99 285.096C166.99 287.528 168.574 289.192 170.878 289.192ZM170.814 282.216C172.142 282.216 172.99 283.08 172.99 284.376H168.478C168.67 283 169.502 282.216 170.814 282.216ZM178.384 289.192C179.648 289.192 180.72 288.632 181.12 287.736L181.28 289H182.56V284.088C182.56 281.976 181.248 280.952 179.312 280.952C177.296 280.952 175.952 282.024 175.952 283.656H177.264C177.264 282.712 177.984 282.152 179.248 282.152C180.304 282.152 181.088 282.616 181.088 283.928V284.152L178.624 284.344C176.784 284.488 175.712 285.384 175.712 286.824C175.712 288.248 176.704 289.192 178.384 289.192ZM178.816 288.024C177.84 288.024 177.232 287.608 177.232 286.776C177.232 286.008 177.776 285.496 179.104 285.368L181.104 285.208V285.624C181.104 287.096 180.24 288.024 178.816 288.024ZM186.147 289V284.36C186.147 283.112 186.899 282.328 188.035 282.328C189.091 282.328 189.763 283 189.763 284.232V289H191.251V284.36C191.251 283.112 192.003 282.312 193.139 282.312C194.195 282.312 194.883 283.016 194.883 284.248V289H196.355V283.88C196.355 282.072 195.267 280.952 193.475 280.952C192.259 280.952 191.315 281.56 190.947 282.536C190.547 281.56 189.683 280.952 188.467 280.952C187.363 280.952 186.531 281.464 186.131 282.2L185.987 281.176H184.643V289H186.147ZM197.706 286.728C197.706 288.216 198.874 289.192 200.714 289.192C202.57 289.192 203.85 288.248 203.85 286.76C203.85 285.592 203.194 284.984 201.866 284.664L200.49 284.328C199.722 284.136 199.338 283.784 199.338 283.256C199.338 282.536 199.866 282.12 200.81 282.12C201.722 282.12 202.25 282.616 202.282 283.4H203.722C203.69 281.912 202.57 280.952 200.858 280.952C199.13 280.952 197.914 281.864 197.914 283.304C197.914 284.456 198.57 285.144 199.962 285.48L201.338 285.8C202.154 286.008 202.41 286.328 202.41 286.856C202.41 287.576 201.802 288.008 200.746 288.008C199.754 288.008 199.146 287.528 199.146 286.728H197.706ZM209.381 285.08C209.381 287.496 211.109 289.192 213.461 289.192C215.797 289.192 217.525 287.496 217.525 285.08C217.525 282.664 215.797 280.968 213.461 280.968C211.109 280.968 209.381 282.664 209.381 285.08ZM210.901 285.08C210.901 283.448 211.941 282.312 213.461 282.312C214.965 282.312 216.021 283.448 216.021 285.08C216.021 286.712 214.965 287.848 213.461 287.848C211.941 287.848 210.901 286.712 210.901 285.08ZM218.311 281.176V282.44H219.463V289H220.967V282.44H222.823V281.176H220.967V279.928C220.967 279.08 221.223 278.584 222.199 278.584H222.871V277.288C222.567 277.24 222.231 277.224 221.943 277.224C220.519 277.224 219.463 278.008 219.463 279.928V281.176H218.311ZM230.5 278.84V289H232.004V277.432H228.068V278.84H230.5ZM234.344 285.432H239.224V284.088H234.344V285.432ZM247.606 285.336C248.79 283.72 249.206 282.744 249.206 281.384C249.206 279.032 247.35 277.224 244.95 277.224C242.566 277.224 240.742 278.968 240.742 281.368C240.742 283.672 242.358 285.4 244.758 285.4C245.158 285.4 245.574 285.32 245.974 285.16L243.078 289H244.902L247.606 285.336ZM247.606 281.368C247.606 282.952 246.518 284.072 244.95 284.072C243.414 284.072 242.326 282.952 242.326 281.368C242.326 279.784 243.414 278.632 244.95 278.632C246.518 278.632 247.606 279.784 247.606 281.368ZM255.33 292.504H256.834V287.72C257.346 288.68 258.386 289.208 259.634 289.208C261.954 289.208 263.266 287.416 263.266 285.032C263.266 282.632 261.874 280.952 259.634 280.952C258.386 280.952 257.33 281.512 256.802 282.584L256.69 281.176H255.33V292.504ZM256.85 285.096C256.85 283.464 257.778 282.328 259.314 282.328C260.85 282.328 261.762 283.48 261.762 285.096C261.762 286.696 260.85 287.848 259.314 287.848C257.778 287.848 256.85 286.696 256.85 285.096ZM268.3 289.192C270.236 289.192 271.548 288.248 271.932 286.568H270.524C270.268 287.464 269.5 287.944 268.332 287.944C266.844 287.944 265.98 287.032 265.868 285.384L271.916 285.368V284.808C271.916 282.488 270.46 280.952 268.236 280.952C265.964 280.952 264.412 282.648 264.412 285.096C264.412 287.528 265.996 289.192 268.3 289.192ZM268.236 282.216C269.564 282.216 270.412 283.08 270.412 284.376H265.9C266.092 283 266.924 282.216 268.236 282.216ZM273.084 285.08C273.084 287.496 274.812 289.192 277.164 289.192C279.5 289.192 281.228 287.496 281.228 285.08C281.228 282.664 279.5 280.968 277.164 280.968C274.812 280.968 273.084 282.664 273.084 285.08ZM274.604 285.08C274.604 283.448 275.644 282.312 277.164 282.312C278.668 282.312 279.724 283.448 279.724 285.08C279.724 286.712 278.668 287.848 277.164 287.848C275.644 287.848 274.604 286.712 274.604 285.08ZM282.893 292.504H284.397V287.72C284.909 288.68 285.949 289.208 287.197 289.208C289.517 289.208 290.829 287.416 290.829 285.032C290.829 282.632 289.437 280.952 287.197 280.952C285.949 280.952 284.893 281.512 284.365 282.584L284.253 281.176H282.893V292.504ZM284.413 285.096C284.413 283.464 285.341 282.328 286.877 282.328C288.413 282.328 289.325 283.48 289.325 285.096C289.325 286.696 288.413 287.848 286.877 287.848C285.341 287.848 284.413 286.696 284.413 285.096ZM294.022 289V277.224H292.518V289H294.022ZM299.612 289.192C301.548 289.192 302.86 288.248 303.244 286.568H301.836C301.58 287.464 300.812 287.944 299.644 287.944C298.156 287.944 297.292 287.032 297.18 285.384L303.228 285.368V284.808C303.228 282.488 301.772 280.952 299.548 280.952C297.276 280.952 295.724 282.648 295.724 285.096C295.724 287.528 297.308 289.192 299.612 289.192ZM299.548 282.216C300.876 282.216 301.724 283.08 301.724 284.376H297.212C297.404 283 298.236 282.216 299.548 282.216ZM115.362 312H116.85L118.21 307.824C118.498 306.88 118.642 306.368 118.722 305.984C118.802 306.416 118.962 307.024 119.218 307.808L120.578 312H122.002L124.674 304.176H123.106L121.794 308.24C121.57 308.928 121.426 309.472 121.298 310.096C121.17 309.536 120.914 308.624 120.786 308.24L119.49 304.176H117.954L116.642 308.24C116.466 308.752 116.258 309.408 116.13 310.096C115.986 309.408 115.826 308.816 115.65 308.24L114.354 304.176H112.802L115.362 312ZM127.467 311.984V307.728C127.467 306.384 128.251 305.328 129.707 305.328C130.827 305.328 131.579 305.968 131.579 307.552V312H133.083V307.216C133.083 305.216 132.123 303.952 130.123 303.952C128.907 303.952 127.963 304.528 127.467 305.376V300.224H125.963V311.984H127.467ZM134.654 308.08C134.654 310.496 136.382 312.192 138.734 312.192C141.07 312.192 142.798 310.496 142.798 308.08C142.798 305.664 141.07 303.968 138.734 303.968C136.382 303.968 134.654 305.664 134.654 308.08ZM136.174 308.08C136.174 306.448 137.214 305.312 138.734 305.312C140.238 305.312 141.294 306.448 141.294 308.08C141.294 309.712 140.238 310.848 138.734 310.848C137.214 310.848 136.174 309.712 136.174 308.08ZM150.518 312H152.006L153.366 307.824C153.654 306.88 153.798 306.368 153.878 305.984C153.958 306.416 154.118 307.024 154.374 307.808L155.734 312H157.158L159.83 304.176H158.262L156.95 308.24C156.726 308.928 156.582 309.472 156.454 310.096C156.326 309.536 156.07 308.624 155.942 308.24L154.646 304.176H153.11L151.798 308.24C151.622 308.752 151.414 309.408 151.286 310.096C151.142 309.408 150.982 308.816 150.806 308.24L149.51 304.176H147.958L150.518 312ZM163.048 312.192C164.312 312.192 165.384 311.632 165.784 310.736L165.944 312H167.224V307.088C167.224 304.976 165.912 303.952 163.976 303.952C161.96 303.952 160.616 305.024 160.616 306.656H161.928C161.928 305.712 162.648 305.152 163.912 305.152C164.968 305.152 165.752 305.616 165.752 306.928V307.152L163.288 307.344C161.448 307.488 160.376 308.384 160.376 309.824C160.376 311.248 161.368 312.192 163.048 312.192ZM163.48 311.024C162.504 311.024 161.896 310.608 161.896 309.776C161.896 309.008 162.44 308.496 163.768 308.368L165.768 308.208V308.624C165.768 310.096 164.904 311.024 163.48 311.024ZM170.811 312V307.856C170.811 306.336 171.627 305.328 173.035 305.328C174.187 305.328 174.923 305.968 174.923 307.552V312H176.427V307.216C176.427 305.216 175.483 303.952 173.419 303.952C172.315 303.952 171.323 304.48 170.827 305.376L170.667 304.176H169.307V312H170.811ZM180.718 312V305.44H182.254V304.176H180.718V301.728H179.214V304.176H177.678V305.44H179.214V312H180.718ZM190.187 312V305.44H191.723V304.176H190.187V301.728H188.683V304.176H187.147V305.44H188.683V312H190.187ZM192.482 308.08C192.482 310.496 194.21 312.192 196.562 312.192C198.898 312.192 200.626 310.496 200.626 308.08C200.626 305.664 198.898 303.968 196.562 303.968C194.21 303.968 192.482 305.664 192.482 308.08ZM194.002 308.08C194.002 306.448 195.042 305.312 196.562 305.312C198.066 305.312 199.122 306.448 199.122 308.08C199.122 309.712 198.066 310.848 196.562 310.848C195.042 310.848 194.002 309.712 194.002 308.08ZM206.17 307.888C206.17 310.08 207.578 311.792 209.802 311.792C211.034 311.792 212.058 311.248 212.57 310.336V311.904C212.57 313.392 211.61 314.352 210.138 314.352C208.826 314.352 207.962 313.68 207.77 312.528H206.266C206.554 314.512 208.01 315.712 210.138 315.712C212.538 315.712 214.058 314.144 214.058 311.68V304.176H212.714L212.602 305.504C212.106 304.528 211.13 303.952 209.866 303.952C207.594 303.952 206.17 305.68 206.17 307.888ZM207.674 307.856C207.674 306.416 208.57 305.264 210.074 305.264C211.61 305.264 212.506 306.352 212.506 307.856C212.506 309.392 211.578 310.48 210.058 310.48C208.586 310.48 207.674 309.328 207.674 307.856ZM219.605 312.192C221.541 312.192 222.853 311.248 223.237 309.568H221.829C221.573 310.464 220.805 310.944 219.637 310.944C218.149 310.944 217.285 310.032 217.173 308.384L223.221 308.368V307.808C223.221 305.488 221.765 303.952 219.541 303.952C217.269 303.952 215.717 305.648 215.717 308.096C215.717 310.528 217.301 312.192 219.605 312.192ZM219.541 305.216C220.869 305.216 221.717 306.08 221.717 307.376H217.205C217.397 306 218.229 305.216 219.541 305.216ZM227.03 312V305.44H228.566V304.176H227.03V301.728H225.526V304.176H223.99V305.44H225.526V312H227.03ZM233.651 309.728C233.651 311.216 234.819 312.192 236.659 312.192C238.515 312.192 239.795 311.248 239.795 309.76C239.795 308.592 239.139 307.984 237.811 307.664L236.435 307.328C235.667 307.136 235.283 306.784 235.283 306.256C235.283 305.536 235.811 305.12 236.755 305.12C237.667 305.12 238.195 305.616 238.227 306.4H239.667C239.635 304.912 238.515 303.952 236.803 303.952C235.075 303.952 233.859 304.864 233.859 306.304C233.859 307.456 234.515 308.144 235.907 308.48L237.283 308.8C238.099 309.008 238.355 309.328 238.355 309.856C238.355 310.576 237.747 311.008 236.691 311.008C235.699 311.008 235.091 310.528 235.091 309.728H233.651ZM243.671 312V305.44H245.207V304.176H243.671V301.728H242.167V304.176H240.631V305.44H242.167V312H243.671ZM248.751 312.192C250.015 312.192 251.087 311.632 251.487 310.736L251.647 312H252.927V307.088C252.927 304.976 251.615 303.952 249.679 303.952C247.663 303.952 246.319 305.024 246.319 306.656H247.631C247.631 305.712 248.351 305.152 249.615 305.152C250.671 305.152 251.455 305.616 251.455 306.928V307.152L248.991 307.344C247.151 307.488 246.079 308.384 246.079 309.824C246.079 311.248 247.071 312.192 248.751 312.192ZM249.183 311.024C248.207 311.024 247.599 310.608 247.599 309.776C247.599 309.008 248.143 308.496 249.471 308.368L251.471 308.208V308.624C251.471 310.096 250.607 311.024 249.183 311.024ZM259.49 304.112C259.186 304.048 258.962 304.016 258.69 304.016C257.618 304.016 256.834 304.56 256.514 305.376L256.418 304.192H255.01V312H256.514V307.856C256.514 306.352 257.394 305.488 258.818 305.488H259.49V304.112ZM263.421 312V305.44H264.957V304.176H263.421V301.728H261.917V304.176H260.381V305.44H261.917V312H263.421ZM269.605 312.192C271.541 312.192 272.853 311.248 273.237 309.568H271.829C271.573 310.464 270.805 310.944 269.637 310.944C268.149 310.944 267.285 310.032 267.173 308.384L273.221 308.368V307.808C273.221 305.488 271.765 303.952 269.541 303.952C267.269 303.952 265.717 305.648 265.717 308.096C265.717 310.528 267.301 312.192 269.605 312.192ZM269.541 305.216C270.869 305.216 271.717 306.08 271.717 307.376H267.205C267.397 306 268.229 305.216 269.541 305.216ZM278.036 312.192C279.285 312.192 280.341 311.648 280.853 310.576L280.981 312H282.325V300.224H280.837V305.44C280.309 304.48 279.301 303.952 278.101 303.952C275.781 303.952 274.389 305.712 274.389 308.112C274.389 310.496 275.765 312.192 278.036 312.192ZM278.341 310.832C276.805 310.832 275.909 309.68 275.909 308.064C275.909 306.464 276.805 305.312 278.341 305.312C279.877 305.312 280.821 306.464 280.821 308.064C280.821 309.696 279.877 310.832 278.341 310.832Z" fill="#5D728C"/>
<path d="M173.48 117.384C179.016 117.384 183.304 114.12 184.2 109.192H179.944C179.176 111.784 176.744 113.448 173.576 113.448C169.288 113.448 166.536 110.248 166.536 105.288C166.536 100.296 169.256 97.16 173.576 97.16C176.68 97.16 179.016 98.76 179.816 101.48H184.136C183.336 96.456 179.208 93.224 173.672 93.224C166.824 93.224 162.248 98.056 162.248 105.32C162.248 112.648 166.664 117.384 173.48 117.384ZM186.369 109.064C186.369 113.992 189.921 117.384 194.817 117.384C199.713 117.384 203.265 113.992 203.265 109.064C203.265 104.136 199.713 100.744 194.817 100.744C189.921 100.744 186.369 104.136 186.369 109.064ZM190.273 109.064C190.273 106.184 192.129 104.232 194.817 104.232C197.505 104.232 199.361 106.184 199.361 109.064C199.361 111.944 197.505 113.896 194.817 113.896C192.129 113.896 190.273 111.944 190.273 109.064ZM216.28 101.128C215.64 100.968 215.096 100.904 214.552 100.904C212.44 100.904 210.936 101.96 210.264 103.528L210.04 101.224H206.36V117H210.264V109.32C210.264 106.248 212.024 104.744 214.84 104.744H216.28V101.128ZM225.463 117.416C229.591 117.416 232.471 115.336 233.143 111.88H229.527C229.079 113.384 227.671 114.216 225.527 114.216C222.935 114.216 221.463 112.808 221.175 110.024L233.079 109.992V108.808C233.079 103.88 230.071 100.712 225.335 100.712C220.695 100.712 217.463 104.136 217.463 109.096C217.463 113.992 220.759 117.416 225.463 117.416ZM225.367 103.912C227.703 103.912 229.207 105.352 229.207 107.528H221.271C221.655 105.16 223.063 103.912 225.367 103.912Z" fill="#1A938A"/>
<path d="M166.9 158.82V185H173.72V152.44H159.508V158.82H166.9ZM186.224 176.112H201.272V170.128H186.224V176.112ZM231.261 176.244C235.221 170.832 236.673 167.884 236.673 163.88C236.673 157.06 231.349 151.868 224.045 151.868C216.829 151.868 211.593 156.708 211.593 163.836C211.593 170.524 216.169 175.144 222.857 175.144C223.297 175.144 223.737 175.1 224.177 175.012L216.741 185H224.881L231.261 176.244ZM229.369 163.792C229.369 167.136 227.257 169.38 224.045 169.38C220.921 169.38 218.809 167.136 218.809 163.792C218.809 160.448 220.965 158.16 224.045 158.16C227.213 158.16 229.369 160.448 229.369 163.792Z" fill="#EC9A2B"/>
<path d="M153.834 230V228.726H149.032V225.52H153.358V224.302H149.032V221.138H153.834V219.878H147.66V230H153.834ZM160.316 230V225.674C160.316 224.26 160.288 223.224 160.218 222.734L163.158 230H164.446L167.4 222.706C167.33 223.42 167.316 224.106 167.316 225.996V230H168.66V219.878H167.288L163.802 228.39L160.316 219.878H158.972V230H160.316ZM178.101 226.388C180.075 226.388 181.363 225.016 181.363 223.126C181.363 221.18 180.089 219.878 178.101 219.878H174.167V230H175.539V226.388H178.101ZM177.863 221.11C179.151 221.11 179.921 221.838 179.921 223.112C179.921 224.358 179.165 225.156 177.807 225.156H175.539V221.11H177.863ZM187.439 219.878H186.067V230H191.891V228.726H187.439V219.878ZM205.167 224.932C205.167 221.852 203.165 219.696 200.295 219.696C197.439 219.696 195.437 221.866 195.437 224.932C195.437 228.012 197.425 230.168 200.281 230.168C203.151 230.168 205.167 228.012 205.167 224.932ZM203.725 224.932C203.725 227.27 202.353 228.852 200.295 228.852C198.237 228.852 196.879 227.284 196.879 224.932C196.879 222.58 198.237 221.026 200.295 221.026C202.353 221.026 203.725 222.58 203.725 224.932ZM211.741 225.884V230H213.113V225.884L216.515 219.878H215.017L212.777 223.924C212.595 224.26 212.567 224.344 212.441 224.596C212.329 224.358 212.245 224.162 212.105 223.924L209.851 219.878H208.311L211.741 225.884ZM227.162 230V228.726H222.36V225.52H226.686V224.302H222.36V221.138H227.162V219.878H220.988V230H227.162ZM238.474 230V228.726H233.672V225.52H237.998V224.302H233.672V221.138H238.474V219.878H232.3V230H238.474ZM243.024 222.608C243.024 224.064 243.878 225.016 245.53 225.394L247.196 225.772C248.162 225.996 248.596 226.5 248.596 227.298C248.596 228.306 247.742 228.936 246.398 228.936C245.124 228.936 244.312 228.32 244.284 227.354H242.884C242.968 229.09 244.34 230.168 246.398 230.168C248.554 230.168 249.968 229.006 249.968 227.186C249.968 225.758 249.128 224.862 247.476 224.484L245.81 224.092C244.858 223.868 244.396 223.378 244.396 222.566C244.396 221.572 245.222 220.928 246.496 220.928C247.63 220.928 248.344 221.516 248.414 222.524H249.8C249.688 220.774 248.442 219.696 246.51 219.696C244.424 219.696 243.024 220.872 243.024 222.608Z" fill="#93A5B1"/>
<defs>
<filter id="filter0_ddd_1304_13662" x="-22" y="0" width="440" height="707" filterUnits="userSpaceOnUse" color-interpolation-filters="sRGB">
<feFlood flood-opacity="0" result="BackgroundImageFix"/>
<feColorMatrix in="SourceAlpha" type="matrix" values="0 0 0 0 0 0 0 0 0 0 0 0 0 0 0 0 0 0 127 0" result="hardAlpha"/>
<feMorphology radius="7" operator="erode" in="SourceAlpha" result="effect1_dropShadow_1304_13662"/>
<feOffset dy="11"/>
<feGaussianBlur stdDeviation="7.5"/>
<feColorMatrix type="matrix" values="0 0 0 0 0.364706 0 0 0 0 0.447059 0 0 0 0 0.54902 0 0 0 0.16 0"/>
<feBlend mode="normal" in2="BackgroundImageFix" result="effect1_dropShadow_1304_13662"/>
<feColorMatrix in="SourceAlpha" type="matrix" values="0 0 0 0 0 0 0 0 0 0 0 0 0 0 0 0 0 0 127 0" result="hardAlpha"/>
<feMorphology radius="8" operator="dilate" in="SourceAlpha" result="effect2_dropShadow_1304_13662"/>
<feOffset dy="9"/>
<feGaussianBlur stdDeviation="23"/>
<feColorMatrix type="matrix" values="0 0 0 0 0.364706 0 0 0 0 0.447059 0 0 0 0 0.54902 0 0 0 0.08 0"/>
<feBlend mode="normal" in2="effect1_dropShadow_1304_13662" result="effect2_dropShadow_1304_13662"/>
<feColorMatrix in="SourceAlpha" type="matrix" values="0 0 0 0 0 0 0 0 0 0 0 0 0 0 0 0 0 0 127 0" result="hardAlpha"/>
<feMorphology radius="3" operator="dilate" in="SourceAlpha" result="effect3_dropShadow_1304_13662"/>
<feOffset dy="24"/>
<feGaussianBlur stdDeviation="19"/>
<feColorMatrix type="matrix" values="0 0 0 0 0.364706 0 0 0 0 0.447059 0 0 0 0 0.54902 0 0 0 0.1 0"/>
<feBlend mode="normal" in2="effect2_dropShadow_1304_13662" result="effect3_dropShadow_1304_13662"/>
<feBlend mode="normal" in="SourceGraphic" in2="effect3_dropShadow_1304_13662" result="shape"/>
</filter>
<filter id="filter1_ddd_1304_13662" x="-8" y="13" width="412" height="681" filterUnits="userSpaceOnUse" color-interpolation-filters="sRGB">
<feFlood flood-opacity="0" result="BackgroundImageFix"/>
<feColorMatrix in="SourceAlpha" type="matrix" values="0 0 0 0 0 0 0 0 0 0 0 0 0 0 0 0 0 0 127 0" result="hardAlpha"/>
<feMorphology radius="7" operator="erode" in="SourceAlpha" result="effect1_dropShadow_1304_13662"/>
<feOffset dy="11"/>
<feGaussianBlur stdDeviation="7.5"/>
<feColorMatrix type="matrix" values="0 0 0 0 0.364706 0 0 0 0 0.447059 0 0 0 0 0.54902 0 0 0 0.16 0"/>
<feBlend mode="normal" in2="BackgroundImageFix" result="effect1_dropShadow_1304_13662"/>
<feColorMatrix in="SourceAlpha" type="matrix" values="0 0 0 0 0 0 0 0 0 0 0 0 0 0 0 0 0 0 127 0" result="hardAlpha"/>
<feMorphology radius="8" operator="dilate" in="SourceAlpha" result="effect2_dropShadow_1304_13662"/>
<feOffset dy="9"/>
<feGaussianBlur stdDeviation="23"/>
<feColorMatrix type="matrix" values="0 0 0 0 0.364706 0 0 0 0 0.447059 0 0 0 0 0.54902 0 0 0 0.08 0"/>
<feBlend mode="normal" in2="effect1_dropShadow_1304_13662" result="effect2_dropShadow_1304_13662"/>
<feColorMatrix in="SourceAlpha" type="matrix" values="0 0 0 0 0 0 0 0 0 0 0 0 0 0 0 0 0 0 127 0" result="hardAlpha"/>
<feMorphology radius="3" operator="dilate" in="SourceAlpha" result="effect3_dropShadow_1304_13662"/>
<feOffset dy="24"/>
<feGaussianBlur stdDeviation="19"/>
<feColorMatrix type="matrix" values="0 0 0 0 0.364706 0 0 0 0 0.447059 0 0 0 0 0.54902 0 0 0 0.1 0"/>
<feBlend mode="normal" in2="effect2_dropShadow_1304_13662" result="effect3_dropShadow_1304_13662"/>
<feBlend mode="normal" in="SourceGraphic" in2="effect3_dropShadow_1304_13662" result="shape"/>
</filter>
</defs>
</svg>
