<svg width="440" height="707" viewBox="0 0 440 707" fill="none" xmlns="http://www.w3.org/2000/svg">
<g filter="url(#filter0_ddd_1305_13665)">
<rect x="54" y="45" width="332" height="597" rx="26" fill="white"/>
</g>
<g filter="url(#filter1_ddd_1305_13665)">
<rect x="68" y="58" width="304" height="571" rx="14" fill="white"/>
</g>
<path d="M175.834 227V225.726H171.032V222.52H175.358V221.302H171.032V218.138H175.834V216.878H169.66V227H175.834ZM182.316 227V222.674C182.316 221.26 182.288 220.224 182.218 219.734L185.158 227H186.446L189.4 219.706C189.33 220.42 189.316 221.106 189.316 222.996V227H190.66V216.878H189.288L185.802 225.39L182.316 216.878H180.972V227H182.316ZM200.101 223.388C202.075 223.388 203.363 222.016 203.363 220.126C203.363 218.18 202.089 216.878 200.101 216.878H196.167V227H197.539V223.388H200.101ZM199.863 218.11C201.151 218.11 201.921 218.838 201.921 220.112C201.921 221.358 201.165 222.156 199.807 222.156H197.539V218.11H199.863ZM209.439 216.878H208.067V227H213.891V225.726H209.439V216.878ZM227.167 221.932C227.167 218.852 225.165 216.696 222.295 216.696C219.439 216.696 217.437 218.866 217.437 221.932C217.437 225.012 219.425 227.168 222.281 227.168C225.151 227.168 227.167 225.012 227.167 221.932ZM225.725 221.932C225.725 224.27 224.353 225.852 222.295 225.852C220.237 225.852 218.879 224.284 218.879 221.932C218.879 219.58 220.237 218.026 222.295 218.026C224.353 218.026 225.725 219.58 225.725 221.932ZM233.741 222.884V227H235.113V222.884L238.515 216.878H237.017L234.777 220.924C234.595 221.26 234.567 221.344 234.441 221.596C234.329 221.358 234.245 221.162 234.105 220.924L231.851 216.878H230.311L233.741 222.884ZM249.162 227V225.726H244.36V222.52H248.686V221.302H244.36V218.138H249.162V216.878H242.988V227H249.162ZM260.474 227V225.726H255.672V222.52H259.998V221.302H255.672V218.138H260.474V216.878H254.3V227H260.474ZM265.024 219.608C265.024 221.064 265.878 222.016 267.53 222.394L269.196 222.772C270.162 222.996 270.596 223.5 270.596 224.298C270.596 225.306 269.742 225.936 268.398 225.936C267.124 225.936 266.312 225.32 266.284 224.354H264.884C264.968 226.09 266.34 227.168 268.398 227.168C270.554 227.168 271.968 226.006 271.968 224.186C271.968 222.758 271.128 221.862 269.476 221.484L267.81 221.092C266.858 220.868 266.396 220.378 266.396 219.566C266.396 218.572 267.222 217.928 268.496 217.928C269.63 217.928 270.344 218.516 270.414 219.524H271.8C271.688 217.774 270.442 216.696 268.51 216.696C266.424 216.696 265.024 217.872 265.024 219.608Z" fill="#93A5B1"/>
<path d="M177.454 184.912V178.312H165.574L170.458 174.22C174.506 170.832 177.19 167.224 177.19 162.78C177.19 155.828 172.746 151.824 165.31 151.824C158.138 151.824 153.474 156.576 153.474 163.88H160.558C160.558 160.228 162.318 158.16 165.354 158.16C168.258 158.16 169.886 159.92 169.886 163.22C169.886 165.904 168.434 167.928 164.958 170.788L154.222 179.72V185L177.454 184.912ZM188.837 185.528C196.361 185.528 201.509 180.6 201.509 173.296C201.509 166.696 197.109 162.516 190.773 162.516C188.793 162.516 186.989 162.956 185.581 163.792L186.857 159.04H199.441V152.44H181.753L177.661 169.908L184.173 171.14C184.965 169.556 186.945 168.412 189.145 168.412C192.357 168.412 194.205 170.392 194.205 173.736C194.205 177.168 192.225 179.236 189.013 179.236C186.021 179.236 184.217 177.388 184.217 174.308H177.177C177.177 181.04 181.841 185.528 188.837 185.528ZM211.628 176.112H226.676V170.128H211.628V176.112ZM247.205 169.688C251.033 169.688 252.529 171.888 252.529 174.484C252.529 177.388 250.637 179.28 247.865 179.28C245.005 179.28 243.069 177.564 243.069 174.352H236.029C236.029 181.7 241.353 185.572 247.689 185.572C254.289 185.572 259.833 181.392 259.833 174.528C259.833 168.984 256.269 165.464 251.869 164.144L258.733 158.116V152.44H237.525V158.688H249.801L242.717 164.892C242.629 164.98 242.541 165.024 242.453 165.112V169.688H247.205ZM279.119 176.244C283.079 170.832 284.531 167.884 284.531 163.88C284.531 157.06 279.207 151.868 271.903 151.868C264.687 151.868 259.451 156.708 259.451 163.836C259.451 170.524 264.027 175.144 270.715 175.144C271.155 175.144 271.595 175.1 272.035 175.012L264.599 185H272.739L279.119 176.244ZM277.227 163.792C277.227 167.136 275.115 169.38 271.903 169.38C268.779 169.38 266.667 167.136 266.667 163.792C266.667 160.448 268.823 158.16 271.903 158.16C275.071 158.16 277.227 160.448 277.227 163.792Z" fill="#EC9A2B"/>
<path d="M137.912 406.688C135.032 410.624 133.976 412.768 133.976 415.68C133.976 420.64 137.848 424.416 143.16 424.416C148.408 424.416 152.216 420.896 152.216 415.712C152.216 410.848 148.888 407.488 144.024 407.488C143.704 407.488 143.384 407.52 143.064 407.584L148.472 400.32H142.552L137.912 406.688ZM139.288 415.744C139.288 413.312 140.824 411.68 143.16 411.68C145.432 411.68 146.968 413.312 146.968 415.744C146.968 418.176 145.4 419.84 143.16 419.84C140.856 419.84 139.288 418.176 139.288 415.744ZM160.731 422.368C160.731 420.16 159.451 418.624 157.595 418.624C155.931 418.624 154.843 419.808 154.843 421.568C154.843 422.976 155.995 424.096 157.499 424.096C157.851 424.096 158.171 424.032 158.427 423.904C158.331 425.216 157.179 426.08 155.579 426.368V428.128C158.587 427.808 160.731 425.44 160.731 422.368ZM177.342 417.632C180.222 413.696 181.278 411.552 181.278 408.64C181.278 403.68 177.406 399.904 172.094 399.904C166.846 399.904 163.038 403.424 163.038 408.608C163.038 413.472 166.366 416.832 171.23 416.832C171.55 416.832 171.87 416.8 172.19 416.736L166.782 424H172.702L177.342 417.632ZM175.966 408.576C175.966 411.008 174.43 412.64 172.094 412.64C169.822 412.64 168.286 411.008 168.286 408.576C168.286 406.144 169.854 404.48 172.094 404.48C174.398 404.48 175.966 406.144 175.966 408.576ZM183.386 412.224C183.386 419.552 187.226 424.416 193.722 424.416C200.218 424.416 204.058 419.552 204.058 412.224C204.058 404.896 199.898 399.872 193.722 399.872C187.546 399.872 183.386 404.896 183.386 412.224ZM188.506 412.224C188.506 406.976 190.426 404.416 193.722 404.416C197.018 404.416 198.938 406.976 198.938 412.224C198.938 417.312 197.018 419.872 193.722 419.872C190.426 419.872 188.506 417.312 188.506 412.224ZM206.355 412.224C206.355 419.552 210.195 424.416 216.691 424.416C223.187 424.416 227.027 419.552 227.027 412.224C227.027 404.896 222.867 399.872 216.691 399.872C210.515 399.872 206.355 404.896 206.355 412.224ZM211.475 412.224C211.475 406.976 213.395 404.416 216.691 404.416C219.987 404.416 221.907 406.976 221.907 412.224C221.907 417.312 219.987 419.872 216.691 419.872C213.395 419.872 211.475 417.312 211.475 412.224ZM237.793 407.2C237.793 411.072 239.969 413.472 244.193 414.336L247.809 415.072C249.377 415.392 249.985 416.064 249.985 417.376C249.985 418.88 248.513 419.808 246.177 419.808C243.873 419.808 242.593 418.848 242.593 417.12H237.441C237.441 421.568 240.865 424.416 246.145 424.416C251.585 424.416 255.169 421.44 255.169 416.864C255.169 413.12 253.153 411.104 248.929 410.24L245.377 409.504C243.713 409.152 242.977 408.448 242.977 407.008C242.977 405.44 244.321 404.48 246.433 404.48C248.385 404.48 249.633 405.504 249.633 407.168H254.785C254.785 402.688 251.585 399.872 246.497 399.872C241.409 399.872 237.793 402.912 237.793 407.2ZM261.837 424L263.533 419.008H271.181L272.845 424H278.349L269.933 400.32H264.877L256.429 424H261.837ZM266.733 409.6C267.021 408.736 267.277 407.84 267.373 407.296C267.469 407.872 267.757 408.8 268.013 409.6L269.709 414.656H265.037L266.733 409.6ZM286.289 424V415.712H290.289L293.841 424H299.505L295.345 414.592C297.969 413.248 299.281 411.072 299.281 408C299.281 403.104 296.017 400.32 290.257 400.32H281.105V424H286.289ZM286.289 404.928H290.257C292.561 404.928 293.809 406.016 293.809 408C293.809 410.016 292.497 411.168 290.225 411.168H286.289V404.928Z" fill="#1A938A"/>
<path d="M192.277 467L193.301 464.12H198.165L199.205 467H200.853L196.613 455.432H194.869L190.645 467H192.277ZM195.541 457.928C195.621 457.688 195.701 457.416 195.733 457.256C195.765 457.432 195.845 457.704 195.925 457.928L197.701 462.76H193.781L195.541 457.928ZM203.639 467V462.856C203.639 461.336 204.455 460.328 205.863 460.328C207.015 460.328 207.751 460.968 207.751 462.552V467H209.255V462.216C209.255 460.216 208.311 458.952 206.247 458.952C205.143 458.952 204.151 459.48 203.655 460.376L203.495 459.176H202.135V467H203.639ZM212.842 467V462.856C212.842 461.336 213.658 460.328 215.066 460.328C216.218 460.328 216.954 460.968 216.954 462.552V467H218.458V462.216C218.458 460.216 217.514 458.952 215.45 458.952C214.346 458.952 213.354 459.48 212.858 460.376L212.698 459.176H211.338V467H212.842ZM225.949 459.176V463.304C225.949 464.984 225.197 465.864 223.821 465.864C222.669 465.864 221.949 465.224 221.949 463.544V459.176H220.445V464.04C220.445 465.96 221.469 467.192 223.293 467.192C224.445 467.192 225.485 466.632 225.933 465.816L226.093 467H227.437V459.176H225.949ZM231.907 467.192C233.171 467.192 234.243 466.632 234.643 465.736L234.803 467H236.083V462.088C236.083 459.976 234.771 458.952 232.835 458.952C230.819 458.952 229.475 460.024 229.475 461.656H230.787C230.787 460.712 231.507 460.152 232.771 460.152C233.827 460.152 234.611 460.616 234.611 461.928V462.152L232.147 462.344C230.307 462.488 229.235 463.384 229.235 464.824C229.235 466.248 230.227 467.192 231.907 467.192ZM232.339 466.024C231.363 466.024 230.755 465.608 230.755 464.776C230.755 464.008 231.299 463.496 232.627 463.368L234.627 463.208V463.624C234.627 465.096 233.763 466.024 232.339 466.024ZM239.702 467V455.224H238.198V467H239.702ZM243.452 467V455.224H241.948V467H243.452ZM244.914 470.504C245.314 470.6 245.73 470.664 246.226 470.664C247.426 470.664 248.21 470.104 248.738 468.76L252.434 459.176H250.882L248.562 465.48L246.29 459.176H244.706L247.858 467.416L247.586 468.168C247.218 469.16 246.642 469.272 245.922 469.272H244.914V470.504Z" fill="#205260"/>
<path d="M175.154 595H176.786L181.138 583.432H179.506L176.706 590.808C176.514 591.32 176.242 592.088 175.97 593C175.73 592.136 175.506 591.48 175.25 590.824L172.434 583.432H170.754L175.154 595ZM181.559 595L182.583 592.12H187.447L188.487 595H190.135L185.895 583.432H184.151L179.927 595H181.559ZM184.823 585.928C184.903 585.688 184.983 585.416 185.015 585.256C185.047 585.432 185.127 585.704 185.207 585.928L186.983 590.76H183.063L184.823 585.928ZM189.506 584.872H192.994V595H194.562V584.872H198.034V583.432H189.506V584.872ZM207.105 595.192C209.041 595.192 210.353 594.248 210.737 592.568H209.329C209.073 593.464 208.305 593.944 207.137 593.944C205.649 593.944 204.785 593.032 204.673 591.384L210.721 591.368V590.808C210.721 588.488 209.265 586.952 207.041 586.952C204.769 586.952 203.217 588.648 203.217 591.096C203.217 593.528 204.801 595.192 207.105 595.192ZM207.041 588.216C208.369 588.216 209.217 589.08 209.217 590.376H204.705C204.897 589 205.729 588.216 207.041 588.216ZM212.904 595L214.824 592.136L216.776 595H218.52L215.848 591.128L218.568 587.176H216.856L214.92 590.088L212.936 587.176H211.192L213.912 591.128L211.176 595H212.904ZM219.014 591.096C219.014 593.56 220.534 595.192 222.838 595.192C224.726 595.192 226.182 594.056 226.486 592.36H224.982C224.71 593.288 223.91 593.848 222.838 593.848C221.414 593.848 220.502 592.76 220.502 591.08C220.502 589.384 221.478 588.296 222.902 588.296C223.91 588.296 224.71 588.824 224.966 589.816H226.47C226.198 588.072 224.822 586.952 222.854 586.952C220.566 586.952 219.014 588.648 219.014 591.096ZM229.609 595V583.224H228.105V595H229.609ZM237.231 587.176V591.304C237.231 592.984 236.479 593.864 235.103 593.864C233.951 593.864 233.231 593.224 233.231 591.544V587.176H231.727V592.04C231.727 593.96 232.751 595.192 234.575 595.192C235.727 595.192 236.767 594.632 237.215 593.816L237.375 595H238.719V587.176H237.231ZM243.881 595.192C245.129 595.192 246.185 594.648 246.697 593.576L246.825 595H248.169V583.224H246.681V588.44C246.153 587.48 245.145 586.952 243.945 586.952C241.625 586.952 240.233 588.712 240.233 591.112C240.233 593.496 241.609 595.192 243.881 595.192ZM244.185 593.832C242.649 593.832 241.753 592.68 241.753 591.064C241.753 589.464 242.649 588.312 244.185 588.312C245.721 588.312 246.665 589.464 246.665 591.064C246.665 592.696 245.721 593.832 244.185 593.832ZM253.715 595.192C255.651 595.192 256.963 594.248 257.347 592.568H255.939C255.683 593.464 254.915 593.944 253.747 593.944C252.259 593.944 251.395 593.032 251.283 591.384L257.331 591.368V590.808C257.331 588.488 255.875 586.952 253.651 586.952C251.379 586.952 249.827 588.648 249.827 591.096C249.827 593.528 251.411 595.192 253.715 595.192ZM253.651 588.216C254.979 588.216 255.827 589.08 255.827 590.376H251.315C251.507 589 252.339 588.216 253.651 588.216ZM262.147 595.192C263.395 595.192 264.451 594.648 264.963 593.576L265.091 595H266.435V583.224H264.947V588.44C264.419 587.48 263.411 586.952 262.211 586.952C259.891 586.952 258.499 588.712 258.499 591.112C258.499 593.496 259.875 595.192 262.147 595.192ZM262.451 593.832C260.915 593.832 260.019 592.68 260.019 591.064C260.019 589.464 260.915 588.312 262.451 588.312C263.987 588.312 264.931 589.464 264.931 591.064C264.931 592.696 263.987 593.832 262.451 593.832Z" fill="#93A5B1"/>
<rect x="90" y="504" width="259" height="48" rx="4" fill="#EC9A2B"/>
<path d="M170.835 534H175.571C177.987 534 179.379 532.832 179.379 530.832C179.379 529.472 178.755 528.544 177.523 528.144C178.627 527.68 179.203 526.752 179.203 525.456C179.203 523.504 177.795 522.304 175.491 522.304H170.835V534ZM175.315 524.112C176.467 524.112 177.107 524.656 177.107 525.664C177.107 526.704 176.483 527.296 175.363 527.296H172.883V524.112H175.315ZM175.491 529.024C176.627 529.024 177.283 529.584 177.283 530.576C177.283 531.632 176.643 532.192 175.491 532.192H172.883V529.024H175.491ZM180.505 530.032C180.505 532.496 182.281 534.192 184.729 534.192C187.177 534.192 188.953 532.496 188.953 530.032C188.953 527.568 187.177 525.872 184.729 525.872C182.281 525.872 180.505 527.568 180.505 530.032ZM182.457 530.032C182.457 528.592 183.385 527.616 184.729 527.616C186.073 527.616 187.001 528.592 187.001 530.032C187.001 531.472 186.073 532.448 184.729 532.448C183.385 532.448 182.457 531.472 182.457 530.032ZM190.036 530.032C190.036 532.496 191.812 534.192 194.26 534.192C196.708 534.192 198.484 532.496 198.484 530.032C198.484 527.568 196.708 525.872 194.26 525.872C191.812 525.872 190.036 527.568 190.036 530.032ZM191.988 530.032C191.988 528.592 192.916 527.616 194.26 527.616C195.604 527.616 196.532 528.592 196.532 530.032C196.532 531.472 195.604 532.448 194.26 532.448C192.916 532.448 191.988 531.472 191.988 530.032ZM201.999 534V531.872L203.151 530.672L205.215 534H207.455L204.511 529.232L207.519 526.096H205.071L201.999 529.408V522.096H200.063V534H201.999ZM215.305 534.208C216.537 534.208 217.609 533.648 217.945 532.832L218.089 534H219.801V529.2C219.801 527.008 218.489 525.856 216.361 525.856C214.217 525.856 212.809 526.976 212.809 528.688H214.473C214.473 527.856 215.113 527.376 216.265 527.376C217.257 527.376 217.897 527.808 217.897 528.88V529.056L215.529 529.232C213.657 529.376 212.601 530.288 212.601 531.744C212.601 533.232 213.625 534.208 215.305 534.208ZM215.945 532.736C215.065 532.736 214.585 532.384 214.585 531.664C214.585 531.024 215.049 530.624 216.265 530.512L217.913 530.384V530.8C217.913 532.016 217.145 532.736 215.945 532.736ZM230.527 534C233.919 534 236.255 531.616 236.255 528.176C236.255 524.688 233.871 522.304 230.415 522.304H226.319V534H230.527ZM230.223 524.192C232.639 524.192 234.095 525.696 234.095 528.176C234.095 530.608 232.671 532.112 230.335 532.112H228.367V524.192H230.223ZM241.411 534.208C243.475 534.208 244.915 533.168 245.251 531.44H243.443C243.219 532.192 242.515 532.608 241.443 532.608C240.147 532.608 239.411 531.904 239.267 530.512L245.219 530.496V529.904C245.219 527.44 243.715 525.856 241.347 525.856C239.027 525.856 237.411 527.568 237.411 530.048C237.411 532.496 239.059 534.208 241.411 534.208ZM241.363 527.456C242.531 527.456 243.283 528.176 243.283 529.264H239.315C239.507 528.08 240.211 527.456 241.363 527.456ZM248.733 534V529.52C248.733 528.24 249.485 527.632 250.413 527.632C251.341 527.632 251.933 528.224 251.933 529.328V534H253.885V529.52C253.885 528.224 254.605 527.616 255.549 527.616C256.477 527.616 257.085 528.208 257.085 529.344V534H259.021V528.832C259.021 527.008 257.965 525.856 256.045 525.856C254.845 525.856 253.917 526.448 253.517 527.36C253.101 526.448 252.269 525.856 251.069 525.856C249.933 525.856 249.133 526.368 248.733 527.024L248.573 526.096H246.781V534H248.733ZM260.474 530.032C260.474 532.496 262.25 534.192 264.698 534.192C267.146 534.192 268.922 532.496 268.922 530.032C268.922 527.568 267.146 525.872 264.698 525.872C262.25 525.872 260.474 527.568 260.474 530.032ZM262.426 530.032C262.426 528.592 263.354 527.616 264.698 527.616C266.042 527.616 266.97 528.592 266.97 530.032C266.97 531.472 266.042 532.448 264.698 532.448C263.354 532.448 262.426 531.472 262.426 530.032Z" fill="white"/>
<path d="M93.7998 284.088V282.664H89.2558V278.872H94.6638V277.432H87.6878V289H89.2558V284.088H93.7998ZM95.1854 285.08C95.1854 287.496 96.9134 289.192 99.2654 289.192C101.601 289.192 103.329 287.496 103.329 285.08C103.329 282.664 101.601 280.968 99.2654 280.968C96.9134 280.968 95.1854 282.664 95.1854 285.08ZM96.7054 285.08C96.7054 283.448 97.7454 282.312 99.2654 282.312C100.769 282.312 101.825 283.448 101.825 285.08C101.825 286.712 100.769 287.848 99.2654 287.848C97.7454 287.848 96.7054 286.712 96.7054 285.08ZM109.474 281.112C109.17 281.048 108.946 281.016 108.674 281.016C107.602 281.016 106.818 281.56 106.498 282.376L106.402 281.192H104.994V289H106.498V284.856C106.498 283.352 107.378 282.488 108.802 282.488H109.474V281.112ZM118.636 289.192C120.572 289.192 121.884 288.248 122.268 286.568H120.86C120.604 287.464 119.836 287.944 118.668 287.944C117.18 287.944 116.316 287.032 116.204 285.384L122.252 285.368V284.808C122.252 282.488 120.796 280.952 118.572 280.952C116.3 280.952 114.748 282.648 114.748 285.096C114.748 287.528 116.332 289.192 118.636 289.192ZM118.572 282.216C119.9 282.216 120.748 283.08 120.748 284.376H116.236C116.428 283 117.26 282.216 118.572 282.216ZM123.292 286.728C123.292 288.216 124.46 289.192 126.3 289.192C128.156 289.192 129.436 288.248 129.436 286.76C129.436 285.592 128.78 284.984 127.452 284.664L126.076 284.328C125.308 284.136 124.924 283.784 124.924 283.256C124.924 282.536 125.452 282.12 126.396 282.12C127.308 282.12 127.836 282.616 127.868 283.4H129.308C129.276 281.912 128.156 280.952 126.444 280.952C124.716 280.952 123.5 281.864 123.5 283.304C123.5 284.456 124.156 285.144 125.548 285.48L126.924 285.8C127.74 286.008 127.996 286.328 127.996 286.856C127.996 287.576 127.388 288.008 126.332 288.008C125.34 288.008 124.732 287.528 124.732 286.728H123.292ZM133.312 289V282.44H134.848V281.176H133.312V278.728H131.808V281.176H130.272V282.44H131.808V289H133.312ZM138.392 289.192C139.656 289.192 140.728 288.632 141.128 287.736L141.288 289H142.568V284.088C142.568 281.976 141.256 280.952 139.32 280.952C137.304 280.952 135.96 282.024 135.96 283.656H137.272C137.272 282.712 137.992 282.152 139.256 282.152C140.312 282.152 141.096 282.616 141.096 283.928V284.152L138.632 284.344C136.792 284.488 135.72 285.384 135.72 286.824C135.72 288.248 136.712 289.192 138.392 289.192ZM138.824 288.024C137.848 288.024 137.24 287.608 137.24 286.776C137.24 286.008 137.784 285.496 139.112 285.368L141.112 285.208V285.624C141.112 287.096 140.248 288.024 138.824 288.024ZM146.011 289L146.123 287.576C146.635 288.648 147.674 289.192 148.907 289.192C151.179 289.192 152.587 287.496 152.587 285.128C152.587 282.712 151.243 280.952 149.003 280.952C147.723 280.952 146.667 281.496 146.155 282.52V277.224H144.651V289H146.011ZM146.171 285.064C146.171 283.464 147.099 282.312 148.635 282.312C150.171 282.312 151.083 283.464 151.083 285.064C151.083 286.68 150.171 287.832 148.635 287.832C147.099 287.832 146.171 286.696 146.171 285.064ZM155.78 289V277.224H154.276V289H155.78ZM158.73 279.32C159.274 279.32 159.722 278.872 159.722 278.328C159.722 277.768 159.274 277.336 158.73 277.336C158.186 277.336 157.738 277.768 157.738 278.328C157.738 278.872 158.186 279.32 158.73 279.32ZM157.994 289H159.498V281.176H157.994V289ZM161.042 286.728C161.042 288.216 162.21 289.192 164.05 289.192C165.906 289.192 167.186 288.248 167.186 286.76C167.186 285.592 166.53 284.984 165.202 284.664L163.826 284.328C163.058 284.136 162.674 283.784 162.674 283.256C162.674 282.536 163.202 282.12 164.146 282.12C165.058 282.12 165.586 282.616 165.618 283.4H167.058C167.026 281.912 165.906 280.952 164.194 280.952C162.466 280.952 161.25 281.864 161.25 283.304C161.25 284.456 161.906 285.144 163.298 285.48L164.674 285.8C165.49 286.008 165.746 286.328 165.746 286.856C165.746 287.576 165.138 288.008 164.082 288.008C163.09 288.008 162.482 287.528 162.482 286.728H161.042ZM170.358 288.984V284.728C170.358 283.384 171.142 282.328 172.598 282.328C173.718 282.328 174.47 282.968 174.47 284.552V289H175.974V284.216C175.974 282.216 175.014 280.952 173.014 280.952C171.798 280.952 170.854 281.528 170.358 282.376V277.224H168.854V288.984H170.358ZM181.433 289.192C183.369 289.192 184.681 288.248 185.065 286.568H183.657C183.401 287.464 182.633 287.944 181.465 287.944C179.977 287.944 179.113 287.032 179.001 285.384L185.049 285.368V284.808C185.049 282.488 183.593 280.952 181.369 280.952C179.097 280.952 177.545 282.648 177.545 285.096C177.545 287.528 179.129 289.192 181.433 289.192ZM181.369 282.216C182.697 282.216 183.545 283.08 183.545 284.376H179.033C179.225 283 180.057 282.216 181.369 282.216ZM189.865 289.192C191.113 289.192 192.169 288.648 192.681 287.576L192.809 289H194.153V277.224H192.665V282.44C192.137 281.48 191.129 280.952 189.929 280.952C187.609 280.952 186.217 282.712 186.217 285.112C186.217 287.496 187.593 289.192 189.865 289.192ZM190.169 287.832C188.633 287.832 187.737 286.68 187.737 285.064C187.737 283.464 188.633 282.312 190.169 282.312C191.705 282.312 192.649 283.464 192.649 285.064C192.649 286.696 191.705 287.832 190.169 287.832ZM200.057 286.728C200.057 288.216 201.225 289.192 203.065 289.192C204.921 289.192 206.201 288.248 206.201 286.76C206.201 285.592 205.545 284.984 204.217 284.664L202.841 284.328C202.073 284.136 201.689 283.784 201.689 283.256C201.689 282.536 202.217 282.12 203.161 282.12C204.073 282.12 204.601 282.616 204.633 283.4H206.073C206.041 281.912 204.921 280.952 203.209 280.952C201.481 280.952 200.265 281.864 200.265 283.304C200.265 284.456 200.921 285.144 202.313 285.48L203.689 285.8C204.505 286.008 204.761 286.328 204.761 286.856C204.761 287.576 204.153 288.008 203.097 288.008C202.105 288.008 201.497 287.528 201.497 286.728H200.057ZM210.077 289V282.44H211.613V281.176H210.077V278.728H208.573V281.176H207.037V282.44H208.573V289H210.077ZM215.157 289.192C216.421 289.192 217.493 288.632 217.893 287.736L218.053 289H219.333V284.088C219.333 281.976 218.021 280.952 216.085 280.952C214.069 280.952 212.725 282.024 212.725 283.656H214.037C214.037 282.712 214.757 282.152 216.021 282.152C217.077 282.152 217.861 282.616 217.861 283.928V284.152L215.397 284.344C213.557 284.488 212.485 285.384 212.485 286.824C212.485 288.248 213.477 289.192 215.157 289.192ZM215.589 288.024C214.613 288.024 214.005 287.608 214.005 286.776C214.005 286.008 214.549 285.496 215.877 285.368L217.877 285.208V285.624C217.877 287.096 217.013 288.024 215.589 288.024ZM225.896 281.112C225.592 281.048 225.368 281.016 225.096 281.016C224.024 281.016 223.24 281.56 222.92 282.376L222.824 281.192H221.416V289H222.92V284.856C222.92 283.352 223.8 282.488 225.224 282.488H225.896V281.112ZM229.827 289V282.44H231.363V281.176H229.827V278.728H228.323V281.176H226.787V282.44H228.323V289H229.827ZM238.121 281.176V285.304C238.121 286.984 237.369 287.864 235.993 287.864C234.841 287.864 234.121 287.224 234.121 285.544V281.176H232.617V286.04C232.617 287.96 233.641 289.192 235.465 289.192C236.617 289.192 237.657 288.632 238.105 287.816L238.265 289H239.609V281.176H238.121ZM241.791 292.504H243.295V287.72C243.807 288.68 244.847 289.208 246.095 289.208C248.415 289.208 249.727 287.416 249.727 285.032C249.727 282.632 248.335 280.952 246.095 280.952C244.847 280.952 243.791 281.512 243.263 282.584L243.151 281.176H241.791V292.504ZM243.311 285.096C243.311 283.464 244.239 282.328 245.775 282.328C247.311 282.328 248.223 283.48 248.223 285.096C248.223 286.696 247.311 287.848 245.775 287.848C244.239 287.848 243.311 286.696 243.311 285.096ZM250.745 286.728C250.745 288.216 251.913 289.192 253.753 289.192C255.609 289.192 256.889 288.248 256.889 286.76C256.889 285.592 256.233 284.984 254.905 284.664L253.529 284.328C252.761 284.136 252.377 283.784 252.377 283.256C252.377 282.536 252.905 282.12 253.849 282.12C254.761 282.12 255.289 282.616 255.321 283.4H256.761C256.729 281.912 255.609 280.952 253.897 280.952C252.169 280.952 250.953 281.864 250.953 283.304C250.953 284.456 251.609 285.144 253.001 285.48L254.377 285.8C255.193 286.008 255.449 286.328 255.449 286.856C255.449 287.576 254.841 288.008 253.785 288.008C252.793 288.008 252.185 287.528 252.185 286.728H250.745ZM270.703 289H272.463L270.671 286.952C271.231 286.056 271.551 284.904 271.551 283.592H270.095C270.095 284.456 269.951 285.224 269.695 285.848L266.927 282.696C268.415 281.688 269.007 280.792 269.007 279.64C269.007 278.216 267.919 277.24 266.335 277.24C264.703 277.24 263.567 278.28 263.567 279.736C263.567 280.6 263.935 281.304 264.927 282.44C263.007 283.432 262.095 284.568 262.095 285.992C262.095 287.928 263.727 289.208 266.207 289.208C267.663 289.208 268.895 288.76 269.791 287.96L270.703 289ZM264.991 279.72C264.991 278.952 265.503 278.456 266.319 278.456C267.119 278.456 267.599 278.92 267.599 279.672C267.599 280.536 267.135 281.24 266.159 281.832C265.263 280.808 264.991 280.328 264.991 279.72ZM263.663 285.88C263.663 284.84 264.239 284.088 265.679 283.288L268.927 286.968C268.287 287.592 267.423 287.912 266.351 287.912C264.671 287.912 263.663 287.144 263.663 285.88ZM278.854 289L278.966 287.576C279.478 288.648 280.518 289.192 281.75 289.192C284.022 289.192 285.43 287.496 285.43 285.128C285.43 282.712 284.086 280.952 281.846 280.952C280.566 280.952 279.51 281.496 278.998 282.52V277.224H277.494V289H278.854ZM279.014 285.064C279.014 283.464 279.942 282.312 281.478 282.312C283.014 282.312 283.926 283.464 283.926 285.064C283.926 286.68 283.014 287.832 281.478 287.832C279.942 287.832 279.014 286.696 279.014 285.064ZM292.309 281.176V285.304C292.309 286.984 291.557 287.864 290.181 287.864C289.029 287.864 288.309 287.224 288.309 285.544V281.176H286.805V286.04C286.805 287.96 287.829 289.192 289.653 289.192C290.805 289.192 291.845 288.632 292.293 287.816L292.453 289H293.797V281.176H292.309ZM295.182 286.728C295.182 288.216 296.35 289.192 298.19 289.192C300.046 289.192 301.326 288.248 301.326 286.76C301.326 285.592 300.67 284.984 299.342 284.664L297.966 284.328C297.198 284.136 296.814 283.784 296.814 283.256C296.814 282.536 297.342 282.12 298.286 282.12C299.198 282.12 299.726 282.616 299.758 283.4H301.198C301.166 281.912 300.046 280.952 298.334 280.952C296.606 280.952 295.39 281.864 295.39 283.304C295.39 284.456 296.046 285.144 297.438 285.48L298.814 285.8C299.63 286.008 299.886 286.328 299.886 286.856C299.886 287.576 299.278 288.008 298.222 288.008C297.23 288.008 296.622 287.528 296.622 286.728H295.182ZM303.73 279.32C304.274 279.32 304.722 278.872 304.722 278.328C304.722 277.768 304.274 277.336 303.73 277.336C303.186 277.336 302.738 277.768 302.738 278.328C302.738 278.872 303.186 279.32 303.73 279.32ZM302.994 289H304.498V281.176H302.994V289ZM308.186 289V284.856C308.186 283.336 309.002 282.328 310.41 282.328C311.562 282.328 312.298 282.968 312.298 284.552V289H313.802V284.216C313.802 282.216 312.858 280.952 310.794 280.952C309.69 280.952 308.698 281.48 308.202 282.376L308.042 281.176H306.682V289H308.186ZM319.261 289.192C321.197 289.192 322.509 288.248 322.893 286.568H321.485C321.229 287.464 320.461 287.944 319.293 287.944C317.805 287.944 316.941 287.032 316.829 285.384L322.877 285.368V284.808C322.877 282.488 321.421 280.952 319.197 280.952C316.925 280.952 315.373 282.648 315.373 285.096C315.373 287.528 316.957 289.192 319.261 289.192ZM319.197 282.216C320.525 282.216 321.373 283.08 321.373 284.376H316.861C317.053 283 317.885 282.216 319.197 282.216ZM323.917 286.728C323.917 288.216 325.085 289.192 326.925 289.192C328.781 289.192 330.061 288.248 330.061 286.76C330.061 285.592 329.405 284.984 328.077 284.664L326.701 284.328C325.933 284.136 325.549 283.784 325.549 283.256C325.549 282.536 326.077 282.12 327.021 282.12C327.933 282.12 328.461 282.616 328.493 283.4H329.933C329.901 281.912 328.781 280.952 327.069 280.952C325.341 280.952 324.125 281.864 324.125 283.304C324.125 284.456 324.781 285.144 326.173 285.48L327.549 285.8C328.365 286.008 328.621 286.328 328.621 286.856C328.621 287.576 328.013 288.008 326.957 288.008C325.965 288.008 325.357 287.528 325.357 286.728H323.917ZM331.089 286.728C331.089 288.216 332.257 289.192 334.097 289.192C335.953 289.192 337.233 288.248 337.233 286.76C337.233 285.592 336.577 284.984 335.249 284.664L333.873 284.328C333.105 284.136 332.721 283.784 332.721 283.256C332.721 282.536 333.249 282.12 334.193 282.12C335.105 282.12 335.633 282.616 335.665 283.4H337.105C337.073 281.912 335.953 280.952 334.241 280.952C332.513 280.952 331.297 281.864 331.297 283.304C331.297 284.456 331.953 285.144 333.345 285.48L334.721 285.8C335.537 286.008 335.793 286.328 335.793 286.856C335.793 287.576 335.185 288.008 334.129 288.008C333.137 288.008 332.529 287.528 332.529 286.728H331.089ZM342.277 289.192C344.213 289.192 345.525 288.248 345.909 286.568H344.501C344.245 287.464 343.477 287.944 342.309 287.944C340.821 287.944 339.957 287.032 339.845 285.384L345.892 285.368V284.808C345.892 282.488 344.437 280.952 342.213 280.952C339.941 280.952 338.389 282.648 338.389 285.096C338.389 287.528 339.973 289.192 342.277 289.192ZM342.213 282.216C343.541 282.216 344.389 283.08 344.389 284.376H339.877C340.069 283 340.901 282.216 342.213 282.216ZM346.932 286.728C346.932 288.216 348.1 289.192 349.94 289.192C351.796 289.192 353.076 288.248 353.076 286.76C353.076 285.592 352.42 284.984 351.092 284.664L349.716 284.328C348.948 284.136 348.564 283.784 348.564 283.256C348.564 282.536 349.092 282.12 350.036 282.12C350.948 282.12 351.476 282.616 351.508 283.4H352.948C352.916 281.912 351.796 280.952 350.084 280.952C348.356 280.952 347.14 281.864 347.14 283.304C347.14 284.456 347.796 285.144 349.188 285.48L350.564 285.8C351.38 286.008 351.636 286.328 351.636 286.856C351.636 287.576 351.028 288.008 349.972 288.008C348.98 288.008 348.372 287.528 348.372 286.728H346.932ZM125.651 312L125.763 310.576C126.275 311.648 127.315 312.192 128.547 312.192C130.819 312.192 132.227 310.496 132.227 308.128C132.227 305.712 130.883 303.952 128.643 303.952C127.363 303.952 126.307 304.496 125.795 305.52V300.224H124.291V312H125.651ZM125.811 308.064C125.811 306.464 126.739 305.312 128.275 305.312C129.811 305.312 130.723 306.464 130.723 308.064C130.723 309.68 129.811 310.832 128.275 310.832C126.739 310.832 125.811 309.696 125.811 308.064ZM137.261 312.192C139.197 312.192 140.509 311.248 140.893 309.568H139.485C139.229 310.464 138.461 310.944 137.293 310.944C135.805 310.944 134.941 310.032 134.829 308.384L140.877 308.368V307.808C140.877 305.488 139.421 303.952 137.197 303.952C134.925 303.952 133.373 305.648 133.373 308.096C133.373 310.528 134.957 312.192 137.261 312.192ZM137.197 305.216C138.525 305.216 139.373 306.08 139.373 307.376H134.861C135.053 306 135.885 305.216 137.197 305.216ZM144.687 312V305.44H146.223V304.176H144.687V301.728H143.183V304.176H141.647V305.44H143.183V312H144.687ZM149.252 312H150.74L152.1 307.824C152.388 306.88 152.532 306.368 152.612 305.984C152.692 306.416 152.852 307.024 153.108 307.808L154.468 312H155.892L158.564 304.176H156.996L155.684 308.24C155.46 308.928 155.316 309.472 155.188 310.096C155.06 309.536 154.804 308.624 154.676 308.24L153.38 304.176H151.844L150.532 308.24C150.356 308.752 150.148 309.408 150.02 310.096C149.876 309.408 149.716 308.816 149.54 308.24L148.244 304.176H146.692L149.252 312ZM162.87 312.192C164.806 312.192 166.118 311.248 166.502 309.568H165.094C164.838 310.464 164.07 310.944 162.902 310.944C161.414 310.944 160.55 310.032 160.438 308.384L166.486 308.368V307.808C166.486 305.488 165.03 303.952 162.806 303.952C160.534 303.952 158.982 305.648 158.982 308.096C158.982 310.528 160.566 312.192 162.87 312.192ZM162.806 305.216C164.134 305.216 164.982 306.08 164.982 307.376H160.47C160.662 306 161.494 305.216 162.806 305.216ZM171.542 312.192C173.478 312.192 174.79 311.248 175.174 309.568H173.766C173.51 310.464 172.742 310.944 171.574 310.944C170.086 310.944 169.222 310.032 169.11 308.384L175.158 308.368V307.808C175.158 305.488 173.702 303.952 171.478 303.952C169.206 303.952 167.654 305.648 167.654 308.096C167.654 310.528 169.238 312.192 171.542 312.192ZM171.478 305.216C172.806 305.216 173.654 306.08 173.654 307.376H169.142C169.334 306 170.166 305.216 171.478 305.216ZM178.342 312V307.856C178.342 306.336 179.158 305.328 180.566 305.328C181.718 305.328 182.454 305.968 182.454 307.552V312H183.958V307.216C183.958 305.216 183.014 303.952 180.95 303.952C179.846 303.952 178.854 304.48 178.358 305.376L178.198 304.176H176.838V312H178.342ZM197.872 311.984V310.528H192.528L194.928 308.448C196.976 306.672 197.792 305.504 197.792 303.856C197.792 301.632 196.304 300.224 193.984 300.224C191.632 300.224 190.064 301.84 190.016 304.32H191.584C191.616 302.672 192.544 301.632 193.968 301.632C195.36 301.632 196.192 302.496 196.192 303.952C196.192 305.184 195.664 305.968 193.792 307.584L190.064 310.8V312L197.872 311.984ZM203.094 312.192C205.59 312.192 207.302 310.512 207.302 308.112C207.302 305.888 205.782 304.24 203.43 304.24C202.566 304.24 201.798 304.48 201.19 304.944L201.958 301.872H206.614V300.432H200.822L199.414 306.368L200.742 306.704C201.27 306.048 202.166 305.584 203.142 305.584C204.758 305.584 205.702 306.688 205.702 308.176C205.702 309.744 204.694 310.784 203.126 310.784C201.654 310.784 200.742 309.872 200.742 308.384H199.19C199.19 310.688 200.726 312.192 203.094 312.192ZM215.626 312.192C216.89 312.192 217.962 311.632 218.362 310.736L218.522 312H219.802V307.088C219.802 304.976 218.49 303.952 216.554 303.952C214.538 303.952 213.194 305.024 213.194 306.656H214.506C214.506 305.712 215.226 305.152 216.49 305.152C217.546 305.152 218.33 305.616 218.33 306.928V307.152L215.866 307.344C214.026 307.488 212.954 308.384 212.954 309.824C212.954 311.248 213.946 312.192 215.626 312.192ZM216.058 311.024C215.082 311.024 214.474 310.608 214.474 309.776C214.474 309.008 215.018 308.496 216.346 308.368L218.346 308.208V308.624C218.346 310.096 217.482 311.024 216.058 311.024ZM223.389 312V307.856C223.389 306.336 224.205 305.328 225.613 305.328C226.765 305.328 227.501 305.968 227.501 307.552V312H229.005V307.216C229.005 305.216 228.061 303.952 225.997 303.952C224.893 303.952 223.901 304.48 223.405 305.376L223.245 304.176H221.885V312H223.389ZM234.224 312.192C235.472 312.192 236.528 311.648 237.04 310.576L237.168 312H238.512V300.224H237.024V305.44C236.496 304.48 235.488 303.952 234.288 303.952C231.968 303.952 230.576 305.712 230.576 308.112C230.576 310.496 231.952 312.192 234.224 312.192ZM234.528 310.832C232.992 310.832 232.096 309.68 232.096 308.064C232.096 306.464 232.992 305.312 234.528 305.312C236.064 305.312 237.008 306.464 237.008 308.064C237.008 309.696 236.064 310.832 234.528 310.832ZM248.065 306.016C249.905 306.016 250.865 306.944 250.865 308.336C250.865 309.824 249.889 310.784 248.385 310.784C246.929 310.784 246.001 309.904 246.001 308.4H244.449C244.449 310.8 246.081 312.192 248.353 312.192C250.705 312.192 252.465 310.704 252.465 308.368C252.465 306.288 250.977 304.96 249.009 304.72L252.177 301.696V300.432H244.993V301.824H250.193L246.913 304.976V306.016H248.065ZM260.583 308.336C261.767 306.72 262.183 305.744 262.183 304.384C262.183 302.032 260.327 300.224 257.927 300.224C255.543 300.224 253.719 301.968 253.719 304.368C253.719 306.672 255.335 308.4 257.735 308.4C258.135 308.4 258.551 308.32 258.951 308.16L256.055 312H257.879L260.583 308.336ZM260.583 304.368C260.583 305.952 259.495 307.072 257.927 307.072C256.391 307.072 255.303 305.952 255.303 304.368C255.303 302.784 256.391 301.632 257.927 301.632C259.495 301.632 260.583 302.784 260.583 304.368ZM268.307 315.504H269.811V310.72C270.323 311.68 271.363 312.208 272.611 312.208C274.931 312.208 276.243 310.416 276.243 308.032C276.243 305.632 274.851 303.952 272.611 303.952C271.363 303.952 270.307 304.512 269.779 305.584L269.667 304.176H268.307V315.504ZM269.827 308.096C269.827 306.464 270.755 305.328 272.291 305.328C273.827 305.328 274.739 306.48 274.739 308.096C274.739 309.696 273.827 310.848 272.291 310.848C270.755 310.848 269.827 309.696 269.827 308.096ZM281.277 312.192C283.213 312.192 284.525 311.248 284.909 309.568H283.501C283.245 310.464 282.477 310.944 281.309 310.944C279.821 310.944 278.957 310.032 278.845 308.384L284.892 308.368V307.808C284.892 305.488 283.437 303.952 281.213 303.952C278.941 303.952 277.389 305.648 277.389 308.096C277.389 310.528 278.973 312.192 281.277 312.192ZM281.213 305.216C282.541 305.216 283.389 306.08 283.389 307.376H278.877C279.069 306 279.901 305.216 281.213 305.216ZM286.06 308.08C286.06 310.496 287.788 312.192 290.14 312.192C292.476 312.192 294.204 310.496 294.204 308.08C294.204 305.664 292.476 303.968 290.14 303.968C287.788 303.968 286.06 305.664 286.06 308.08ZM287.58 308.08C287.58 306.448 288.62 305.312 290.14 305.312C291.644 305.312 292.7 306.448 292.7 308.08C292.7 309.712 291.644 310.848 290.14 310.848C288.62 310.848 287.58 309.712 287.58 308.08ZM295.869 315.504H297.373V310.72C297.885 311.68 298.925 312.208 300.173 312.208C302.493 312.208 303.805 310.416 303.805 308.032C303.805 305.632 302.413 303.952 300.173 303.952C298.925 303.952 297.869 304.512 297.341 305.584L297.229 304.176H295.869V315.504ZM297.389 308.096C297.389 306.464 298.317 305.328 299.853 305.328C301.389 305.328 302.301 306.48 302.301 308.096C302.301 309.696 301.389 310.848 299.853 310.848C298.317 310.848 297.389 309.696 297.389 308.096ZM306.999 312V300.224H305.495V312H306.999ZM312.589 312.192C314.525 312.192 315.837 311.248 316.221 309.568H314.813C314.557 310.464 313.789 310.944 312.621 310.944C311.133 310.944 310.269 310.032 310.157 308.384L316.205 308.368V307.808C316.205 305.488 314.749 303.952 312.525 303.952C310.253 303.952 308.701 305.648 308.701 308.096C308.701 310.528 310.285 312.192 312.589 312.192ZM312.525 305.216C313.853 305.216 314.701 306.08 314.701 307.376H310.189C310.381 306 311.213 305.216 312.525 305.216Z" fill="#5D728C"/>
<path d="M191.48 117.384C197.016 117.384 201.304 114.12 202.2 109.192H197.944C197.176 111.784 194.744 113.448 191.576 113.448C187.288 113.448 184.536 110.248 184.536 105.288C184.536 100.296 187.256 97.16 191.576 97.16C194.68 97.16 197.016 98.76 197.816 101.48H202.136C201.336 96.456 197.208 93.224 191.672 93.224C184.824 93.224 180.248 98.056 180.248 105.32C180.248 112.648 184.664 117.384 191.48 117.384ZM204.369 109.064C204.369 113.992 207.921 117.384 212.817 117.384C217.713 117.384 221.265 113.992 221.265 109.064C221.265 104.136 217.713 100.744 212.817 100.744C207.921 100.744 204.369 104.136 204.369 109.064ZM208.273 109.064C208.273 106.184 210.129 104.232 212.817 104.232C215.505 104.232 217.361 106.184 217.361 109.064C217.361 111.944 215.505 113.896 212.817 113.896C210.129 113.896 208.273 111.944 208.273 109.064ZM234.28 101.128C233.64 100.968 233.096 100.904 232.552 100.904C230.44 100.904 228.936 101.96 228.264 103.528L228.04 101.224H224.36V117H228.264V109.32C228.264 106.248 230.024 104.744 232.84 104.744H234.28V101.128ZM243.463 117.416C247.591 117.416 250.471 115.336 251.143 111.88H247.527C247.079 113.384 245.671 114.216 243.527 114.216C240.935 114.216 239.463 112.808 239.175 110.024L251.079 109.992V108.808C251.079 103.88 248.071 100.712 243.335 100.712C238.695 100.712 235.463 104.136 235.463 109.096C235.463 113.992 238.759 117.416 243.463 117.416ZM243.367 103.912C245.703 103.912 247.207 105.352 247.207 107.528H239.271C239.655 105.16 241.063 103.912 243.367 103.912Z" fill="#1A938A"/>
<defs>
<filter id="filter0_ddd_1305_13665" x="0" y="0" width="440" height="707" filterUnits="userSpaceOnUse" color-interpolation-filters="sRGB">
<feFlood flood-opacity="0" result="BackgroundImageFix"/>
<feColorMatrix in="SourceAlpha" type="matrix" values="0 0 0 0 0 0 0 0 0 0 0 0 0 0 0 0 0 0 127 0" result="hardAlpha"/>
<feMorphology radius="7" operator="erode" in="SourceAlpha" result="effect1_dropShadow_1305_13665"/>
<feOffset dy="11"/>
<feGaussianBlur stdDeviation="7.5"/>
<feColorMatrix type="matrix" values="0 0 0 0 0.364706 0 0 0 0 0.447059 0 0 0 0 0.54902 0 0 0 0.16 0"/>
<feBlend mode="normal" in2="BackgroundImageFix" result="effect1_dropShadow_1305_13665"/>
<feColorMatrix in="SourceAlpha" type="matrix" values="0 0 0 0 0 0 0 0 0 0 0 0 0 0 0 0 0 0 127 0" result="hardAlpha"/>
<feMorphology radius="8" operator="dilate" in="SourceAlpha" result="effect2_dropShadow_1305_13665"/>
<feOffset dy="9"/>
<feGaussianBlur stdDeviation="23"/>
<feColorMatrix type="matrix" values="0 0 0 0 0.364706 0 0 0 0 0.447059 0 0 0 0 0.54902 0 0 0 0.08 0"/>
<feBlend mode="normal" in2="effect1_dropShadow_1305_13665" result="effect2_dropShadow_1305_13665"/>
<feColorMatrix in="SourceAlpha" type="matrix" values="0 0 0 0 0 0 0 0 0 0 0 0 0 0 0 0 0 0 127 0" result="hardAlpha"/>
<feMorphology radius="3" operator="dilate" in="SourceAlpha" result="effect3_dropShadow_1305_13665"/>
<feOffset dy="24"/>
<feGaussianBlur stdDeviation="19"/>
<feColorMatrix type="matrix" values="0 0 0 0 0.364706 0 0 0 0 0.447059 0 0 0 0 0.54902 0 0 0 0.1 0"/>
<feBlend mode="normal" in2="effect2_dropShadow_1305_13665" result="effect3_dropShadow_1305_13665"/>
<feBlend mode="normal" in="SourceGraphic" in2="effect3_dropShadow_1305_13665" result="shape"/>
</filter>
<filter id="filter1_ddd_1305_13665" x="14" y="13" width="412" height="681" filterUnits="userSpaceOnUse" color-interpolation-filters="sRGB">
<feFlood flood-opacity="0" result="BackgroundImageFix"/>
<feColorMatrix in="SourceAlpha" type="matrix" values="0 0 0 0 0 0 0 0 0 0 0 0 0 0 0 0 0 0 127 0" result="hardAlpha"/>
<feMorphology radius="7" operator="erode" in="SourceAlpha" result="effect1_dropShadow_1305_13665"/>
<feOffset dy="11"/>
<feGaussianBlur stdDeviation="7.5"/>
<feColorMatrix type="matrix" values="0 0 0 0 0.364706 0 0 0 0 0.447059 0 0 0 0 0.54902 0 0 0 0.16 0"/>
<feBlend mode="normal" in2="BackgroundImageFix" result="effect1_dropShadow_1305_13665"/>
<feColorMatrix in="SourceAlpha" type="matrix" values="0 0 0 0 0 0 0 0 0 0 0 0 0 0 0 0 0 0 127 0" result="hardAlpha"/>
<feMorphology radius="8" operator="dilate" in="SourceAlpha" result="effect2_dropShadow_1305_13665"/>
<feOffset dy="9"/>
<feGaussianBlur stdDeviation="23"/>
<feColorMatrix type="matrix" values="0 0 0 0 0.364706 0 0 0 0 0.447059 0 0 0 0 0.54902 0 0 0 0.08 0"/>
<feBlend mode="normal" in2="effect1_dropShadow_1305_13665" result="effect2_dropShadow_1305_13665"/>
<feColorMatrix in="SourceAlpha" type="matrix" values="0 0 0 0 0 0 0 0 0 0 0 0 0 0 0 0 0 0 127 0" result="hardAlpha"/>
<feMorphology radius="3" operator="dilate" in="SourceAlpha" result="effect3_dropShadow_1305_13665"/>
<feOffset dy="24"/>
<feGaussianBlur stdDeviation="19"/>
<feColorMatrix type="matrix" values="0 0 0 0 0.364706 0 0 0 0 0.447059 0 0 0 0 0.54902 0 0 0 0.1 0"/>
<feBlend mode="normal" in2="effect2_dropShadow_1305_13665" result="effect3_dropShadow_1305_13665"/>
<feBlend mode="normal" in="SourceGraphic" in2="effect3_dropShadow_1305_13665" result="shape"/>
</filter>
</defs>
</svg>
