<svg width="440" height="707" viewBox="0 0 440 707" fill="none" xmlns="http://www.w3.org/2000/svg">
<g filter="url(#filter0_ddd_1305_13664)">
<rect x="54" y="45" width="332" height="597" rx="26" fill="white"/>
</g>
<g filter="url(#filter1_ddd_1305_13664)">
<rect x="68" y="58" width="304" height="571" rx="14" fill="white"/>
</g>
<path d="M175.834 230V228.726H171.032V225.52H175.358V224.302H171.032V221.138H175.834V219.878H169.66V230H175.834ZM182.316 230V225.674C182.316 224.26 182.288 223.224 182.218 222.734L185.158 230H186.446L189.4 222.706C189.33 223.42 189.316 224.106 189.316 225.996V230H190.66V219.878H189.288L185.802 228.39L182.316 219.878H180.972V230H182.316ZM200.101 226.388C202.075 226.388 203.363 225.016 203.363 223.126C203.363 221.18 202.089 219.878 200.101 219.878H196.167V230H197.539V226.388H200.101ZM199.863 221.11C201.151 221.11 201.921 221.838 201.921 223.112C201.921 224.358 201.165 225.156 199.807 225.156H197.539V221.11H199.863ZM209.439 219.878H208.067V230H213.891V228.726H209.439V219.878ZM227.167 224.932C227.167 221.852 225.165 219.696 222.295 219.696C219.439 219.696 217.437 221.866 217.437 224.932C217.437 228.012 219.425 230.168 222.281 230.168C225.151 230.168 227.167 228.012 227.167 224.932ZM225.725 224.932C225.725 227.27 224.353 228.852 222.295 228.852C220.237 228.852 218.879 227.284 218.879 224.932C218.879 222.58 220.237 221.026 222.295 221.026C224.353 221.026 225.725 222.58 225.725 224.932ZM233.741 225.884V230H235.113V225.884L238.515 219.878H237.017L234.777 223.924C234.595 224.26 234.567 224.344 234.441 224.596C234.329 224.358 234.245 224.162 234.105 223.924L231.851 219.878H230.311L233.741 225.884ZM249.162 230V228.726H244.36V225.52H248.686V224.302H244.36V221.138H249.162V219.878H242.988V230H249.162ZM260.474 230V228.726H255.672V225.52H259.998V224.302H255.672V221.138H260.474V219.878H254.3V230H260.474ZM265.024 222.608C265.024 224.064 265.878 225.016 267.53 225.394L269.196 225.772C270.162 225.996 270.596 226.5 270.596 227.298C270.596 228.306 269.742 228.936 268.398 228.936C267.124 228.936 266.312 228.32 266.284 227.354H264.884C264.968 229.09 266.34 230.168 268.398 230.168C270.554 230.168 271.968 229.006 271.968 227.186C271.968 225.758 271.128 224.862 269.476 224.484L267.81 224.092C266.858 223.868 266.396 223.378 266.396 222.566C266.396 221.572 267.222 220.928 268.496 220.928C269.63 220.928 270.344 221.516 270.414 222.524H271.8C271.688 220.774 270.442 219.696 268.51 219.696C266.424 219.696 265.024 220.872 265.024 222.608Z" fill="#93A5B1"/>
<path d="M162.328 158.82V185H169.148V152.44H154.936V158.82H162.328ZM171.591 168.808C171.591 178.884 176.871 185.572 185.803 185.572C194.735 185.572 200.015 178.884 200.015 168.808C200.015 158.732 194.295 151.824 185.803 151.824C177.311 151.824 171.591 158.732 171.591 168.808ZM178.631 168.808C178.631 161.592 181.271 158.072 185.803 158.072C190.335 158.072 192.975 161.592 192.975 168.808C192.975 175.804 190.335 179.324 185.803 179.324C181.271 179.324 178.631 175.804 178.631 168.808ZM210.593 176.112H225.641V170.128H210.593V176.112ZM259.942 184.912V178.312H248.062L252.946 174.22C256.994 170.832 259.678 167.224 259.678 162.78C259.678 155.828 255.234 151.824 247.798 151.824C240.626 151.824 235.962 156.576 235.962 163.88H243.046C243.046 160.228 244.806 158.16 247.842 158.16C250.746 158.16 252.374 159.92 252.374 163.22C252.374 165.904 250.922 167.928 247.446 170.788L236.71 179.72V185L259.942 184.912ZM286.45 179.236V172.988H282.446V152.44H273.558L259.522 172.988V179.236H275.714V185H282.446V179.236H286.45ZM267.09 172.988L275.714 160.316V172.988H267.09Z" fill="#EC9A2B"/>
<path d="M142.697 412.864C145.481 412.864 146.569 414.464 146.569 416.352C146.569 418.464 145.193 419.84 143.177 419.84C141.097 419.84 139.689 418.592 139.689 416.256H134.569C134.569 421.6 138.441 424.416 143.049 424.416C147.849 424.416 151.881 421.376 151.881 416.384C151.881 412.352 149.289 409.792 146.089 408.832L151.081 404.448V400.32H135.657V404.864H144.585L139.433 409.376C139.369 409.44 139.305 409.472 139.241 409.536V412.864H142.697ZM160.435 422.368C160.435 420.16 159.155 418.624 157.299 418.624C155.635 418.624 154.547 419.808 154.547 421.568C154.547 422.976 155.699 424.096 157.203 424.096C157.555 424.096 157.875 424.032 158.131 423.904C158.035 425.216 156.883 426.08 155.283 426.368V428.128C158.291 427.808 160.435 425.44 160.435 422.368ZM177.045 417.632C179.925 413.696 180.981 411.552 180.981 408.64C180.981 403.68 177.109 399.904 171.797 399.904C166.549 399.904 162.741 403.424 162.741 408.608C162.741 413.472 166.069 416.832 170.933 416.832C171.253 416.832 171.573 416.8 171.893 416.736L166.485 424H172.405L177.045 417.632ZM175.669 408.576C175.669 411.008 174.133 412.64 171.797 412.64C169.525 412.64 167.989 411.008 167.989 408.576C167.989 406.144 169.557 404.48 171.797 404.48C174.101 404.48 175.669 406.144 175.669 408.576ZM183.09 412.224C183.09 419.552 186.93 424.416 193.426 424.416C199.922 424.416 203.762 419.552 203.762 412.224C203.762 404.896 199.602 399.872 193.426 399.872C187.25 399.872 183.09 404.896 183.09 412.224ZM188.21 412.224C188.21 406.976 190.13 404.416 193.426 404.416C196.722 404.416 198.642 406.976 198.642 412.224C198.642 417.312 196.722 419.872 193.426 419.872C190.13 419.872 188.21 417.312 188.21 412.224ZM206.058 412.224C206.058 419.552 209.898 424.416 216.394 424.416C222.89 424.416 226.73 419.552 226.73 412.224C226.73 404.896 222.57 399.872 216.394 399.872C210.218 399.872 206.058 404.896 206.058 412.224ZM211.178 412.224C211.178 406.976 213.098 404.416 216.394 404.416C219.69 404.416 221.61 406.976 221.61 412.224C221.61 417.312 219.69 419.872 216.394 419.872C213.098 419.872 211.178 417.312 211.178 412.224ZM237.496 407.2C237.496 411.072 239.672 413.472 243.896 414.336L247.512 415.072C249.08 415.392 249.688 416.064 249.688 417.376C249.688 418.88 248.216 419.808 245.88 419.808C243.576 419.808 242.296 418.848 242.296 417.12H237.144C237.144 421.568 240.568 424.416 245.848 424.416C251.288 424.416 254.872 421.44 254.872 416.864C254.872 413.12 252.856 411.104 248.632 410.24L245.08 409.504C243.416 409.152 242.68 408.448 242.68 407.008C242.68 405.44 244.024 404.48 246.136 404.48C248.088 404.48 249.336 405.504 249.336 407.168H254.488C254.488 402.688 251.288 399.872 246.2 399.872C241.112 399.872 237.496 402.912 237.496 407.2ZM261.54 424L263.236 419.008H270.884L272.548 424H278.052L269.636 400.32H264.58L256.132 424H261.54ZM266.436 409.6C266.724 408.736 266.98 407.84 267.076 407.296C267.172 407.872 267.46 408.8 267.716 409.6L269.412 414.656H264.74L266.436 409.6ZM285.992 424V415.712H289.992L293.544 424H299.208L295.048 414.592C297.672 413.248 298.984 411.072 298.984 408C298.984 403.104 295.72 400.32 289.96 400.32H280.808V424H285.992ZM285.992 404.928H289.96C292.264 404.928 293.512 406.016 293.512 408C293.512 410.016 292.2 411.168 289.928 411.168H285.992V404.928Z" fill="#1A938A"/>
<path d="M192.277 467L193.301 464.12H198.165L199.205 467H200.853L196.613 455.432H194.869L190.645 467H192.277ZM195.541 457.928C195.621 457.688 195.701 457.416 195.733 457.256C195.765 457.432 195.845 457.704 195.925 457.928L197.701 462.76H193.781L195.541 457.928ZM203.639 467V462.856C203.639 461.336 204.455 460.328 205.863 460.328C207.015 460.328 207.751 460.968 207.751 462.552V467H209.255V462.216C209.255 460.216 208.311 458.952 206.247 458.952C205.143 458.952 204.151 459.48 203.655 460.376L203.495 459.176H202.135V467H203.639ZM212.842 467V462.856C212.842 461.336 213.658 460.328 215.066 460.328C216.218 460.328 216.954 460.968 216.954 462.552V467H218.458V462.216C218.458 460.216 217.514 458.952 215.45 458.952C214.346 458.952 213.354 459.48 212.858 460.376L212.698 459.176H211.338V467H212.842ZM225.949 459.176V463.304C225.949 464.984 225.197 465.864 223.821 465.864C222.669 465.864 221.949 465.224 221.949 463.544V459.176H220.445V464.04C220.445 465.96 221.469 467.192 223.293 467.192C224.445 467.192 225.485 466.632 225.933 465.816L226.093 467H227.437V459.176H225.949ZM231.907 467.192C233.171 467.192 234.243 466.632 234.643 465.736L234.803 467H236.083V462.088C236.083 459.976 234.771 458.952 232.835 458.952C230.819 458.952 229.475 460.024 229.475 461.656H230.787C230.787 460.712 231.507 460.152 232.771 460.152C233.827 460.152 234.611 460.616 234.611 461.928V462.152L232.147 462.344C230.307 462.488 229.235 463.384 229.235 464.824C229.235 466.248 230.227 467.192 231.907 467.192ZM232.339 466.024C231.363 466.024 230.755 465.608 230.755 464.776C230.755 464.008 231.299 463.496 232.627 463.368L234.627 463.208V463.624C234.627 465.096 233.763 466.024 232.339 466.024ZM239.702 467V455.224H238.198V467H239.702ZM243.452 467V455.224H241.948V467H243.452ZM244.914 470.504C245.314 470.6 245.73 470.664 246.226 470.664C247.426 470.664 248.21 470.104 248.738 468.76L252.434 459.176H250.882L248.562 465.48L246.29 459.176H244.706L247.858 467.416L247.586 468.168C247.218 469.16 246.642 469.272 245.922 469.272H244.914V470.504Z" fill="#205260"/>
<path d="M175.154 595H176.786L181.138 583.432H179.506L176.706 590.808C176.514 591.32 176.242 592.088 175.97 593C175.73 592.136 175.506 591.48 175.25 590.824L172.434 583.432H170.754L175.154 595ZM181.559 595L182.583 592.12H187.447L188.487 595H190.135L185.895 583.432H184.151L179.927 595H181.559ZM184.823 585.928C184.903 585.688 184.983 585.416 185.015 585.256C185.047 585.432 185.127 585.704 185.207 585.928L186.983 590.76H183.063L184.823 585.928ZM189.506 584.872H192.994V595H194.562V584.872H198.034V583.432H189.506V584.872ZM207.105 595.192C209.041 595.192 210.353 594.248 210.737 592.568H209.329C209.073 593.464 208.305 593.944 207.137 593.944C205.649 593.944 204.785 593.032 204.673 591.384L210.721 591.368V590.808C210.721 588.488 209.265 586.952 207.041 586.952C204.769 586.952 203.217 588.648 203.217 591.096C203.217 593.528 204.801 595.192 207.105 595.192ZM207.041 588.216C208.369 588.216 209.217 589.08 209.217 590.376H204.705C204.897 589 205.729 588.216 207.041 588.216ZM212.904 595L214.824 592.136L216.776 595H218.52L215.848 591.128L218.568 587.176H216.856L214.92 590.088L212.936 587.176H211.192L213.912 591.128L211.176 595H212.904ZM219.014 591.096C219.014 593.56 220.534 595.192 222.838 595.192C224.726 595.192 226.182 594.056 226.486 592.36H224.982C224.71 593.288 223.91 593.848 222.838 593.848C221.414 593.848 220.502 592.76 220.502 591.08C220.502 589.384 221.478 588.296 222.902 588.296C223.91 588.296 224.71 588.824 224.966 589.816H226.47C226.198 588.072 224.822 586.952 222.854 586.952C220.566 586.952 219.014 588.648 219.014 591.096ZM229.609 595V583.224H228.105V595H229.609ZM237.231 587.176V591.304C237.231 592.984 236.479 593.864 235.103 593.864C233.951 593.864 233.231 593.224 233.231 591.544V587.176H231.727V592.04C231.727 593.96 232.751 595.192 234.575 595.192C235.727 595.192 236.767 594.632 237.215 593.816L237.375 595H238.719V587.176H237.231ZM243.881 595.192C245.129 595.192 246.185 594.648 246.697 593.576L246.825 595H248.169V583.224H246.681V588.44C246.153 587.48 245.145 586.952 243.945 586.952C241.625 586.952 240.233 588.712 240.233 591.112C240.233 593.496 241.609 595.192 243.881 595.192ZM244.185 593.832C242.649 593.832 241.753 592.68 241.753 591.064C241.753 589.464 242.649 588.312 244.185 588.312C245.721 588.312 246.665 589.464 246.665 591.064C246.665 592.696 245.721 593.832 244.185 593.832ZM253.715 595.192C255.651 595.192 256.963 594.248 257.347 592.568H255.939C255.683 593.464 254.915 593.944 253.747 593.944C252.259 593.944 251.395 593.032 251.283 591.384L257.331 591.368V590.808C257.331 588.488 255.875 586.952 253.651 586.952C251.379 586.952 249.827 588.648 249.827 591.096C249.827 593.528 251.411 595.192 253.715 595.192ZM253.651 588.216C254.979 588.216 255.827 589.08 255.827 590.376H251.315C251.507 589 252.339 588.216 253.651 588.216ZM262.147 595.192C263.395 595.192 264.451 594.648 264.963 593.576L265.091 595H266.435V583.224H264.947V588.44C264.419 587.48 263.411 586.952 262.211 586.952C259.891 586.952 258.499 588.712 258.499 591.112C258.499 593.496 259.875 595.192 262.147 595.192ZM262.451 593.832C260.915 593.832 260.019 592.68 260.019 591.064C260.019 589.464 260.915 588.312 262.451 588.312C263.987 588.312 264.931 589.464 264.931 591.064C264.931 592.696 263.987 593.832 262.451 593.832Z" fill="#93A5B1"/>
<rect x="90" y="504" width="259" height="48" rx="4" fill="#EC9A2B"/>
<path d="M170.835 534H175.571C177.987 534 179.379 532.832 179.379 530.832C179.379 529.472 178.755 528.544 177.523 528.144C178.627 527.68 179.203 526.752 179.203 525.456C179.203 523.504 177.795 522.304 175.491 522.304H170.835V534ZM175.315 524.112C176.467 524.112 177.107 524.656 177.107 525.664C177.107 526.704 176.483 527.296 175.363 527.296H172.883V524.112H175.315ZM175.491 529.024C176.627 529.024 177.283 529.584 177.283 530.576C177.283 531.632 176.643 532.192 175.491 532.192H172.883V529.024H175.491ZM180.505 530.032C180.505 532.496 182.281 534.192 184.729 534.192C187.177 534.192 188.953 532.496 188.953 530.032C188.953 527.568 187.177 525.872 184.729 525.872C182.281 525.872 180.505 527.568 180.505 530.032ZM182.457 530.032C182.457 528.592 183.385 527.616 184.729 527.616C186.073 527.616 187.001 528.592 187.001 530.032C187.001 531.472 186.073 532.448 184.729 532.448C183.385 532.448 182.457 531.472 182.457 530.032ZM190.036 530.032C190.036 532.496 191.812 534.192 194.26 534.192C196.708 534.192 198.484 532.496 198.484 530.032C198.484 527.568 196.708 525.872 194.26 525.872C191.812 525.872 190.036 527.568 190.036 530.032ZM191.988 530.032C191.988 528.592 192.916 527.616 194.26 527.616C195.604 527.616 196.532 528.592 196.532 530.032C196.532 531.472 195.604 532.448 194.26 532.448C192.916 532.448 191.988 531.472 191.988 530.032ZM201.999 534V531.872L203.151 530.672L205.215 534H207.455L204.511 529.232L207.519 526.096H205.071L201.999 529.408V522.096H200.063V534H201.999ZM215.305 534.208C216.537 534.208 217.609 533.648 217.945 532.832L218.089 534H219.801V529.2C219.801 527.008 218.489 525.856 216.361 525.856C214.217 525.856 212.809 526.976 212.809 528.688H214.473C214.473 527.856 215.113 527.376 216.265 527.376C217.257 527.376 217.897 527.808 217.897 528.88V529.056L215.529 529.232C213.657 529.376 212.601 530.288 212.601 531.744C212.601 533.232 213.625 534.208 215.305 534.208ZM215.945 532.736C215.065 532.736 214.585 532.384 214.585 531.664C214.585 531.024 215.049 530.624 216.265 530.512L217.913 530.384V530.8C217.913 532.016 217.145 532.736 215.945 532.736ZM230.527 534C233.919 534 236.255 531.616 236.255 528.176C236.255 524.688 233.871 522.304 230.415 522.304H226.319V534H230.527ZM230.223 524.192C232.639 524.192 234.095 525.696 234.095 528.176C234.095 530.608 232.671 532.112 230.335 532.112H228.367V524.192H230.223ZM241.411 534.208C243.475 534.208 244.915 533.168 245.251 531.44H243.443C243.219 532.192 242.515 532.608 241.443 532.608C240.147 532.608 239.411 531.904 239.267 530.512L245.219 530.496V529.904C245.219 527.44 243.715 525.856 241.347 525.856C239.027 525.856 237.411 527.568 237.411 530.048C237.411 532.496 239.059 534.208 241.411 534.208ZM241.363 527.456C242.531 527.456 243.283 528.176 243.283 529.264H239.315C239.507 528.08 240.211 527.456 241.363 527.456ZM248.733 534V529.52C248.733 528.24 249.485 527.632 250.413 527.632C251.341 527.632 251.933 528.224 251.933 529.328V534H253.885V529.52C253.885 528.224 254.605 527.616 255.549 527.616C256.477 527.616 257.085 528.208 257.085 529.344V534H259.021V528.832C259.021 527.008 257.965 525.856 256.045 525.856C254.845 525.856 253.917 526.448 253.517 527.36C253.101 526.448 252.269 525.856 251.069 525.856C249.933 525.856 249.133 526.368 248.733 527.024L248.573 526.096H246.781V534H248.733ZM260.474 530.032C260.474 532.496 262.25 534.192 264.698 534.192C267.146 534.192 268.922 532.496 268.922 530.032C268.922 527.568 267.146 525.872 264.698 525.872C262.25 525.872 260.474 527.568 260.474 530.032ZM262.426 530.032C262.426 528.592 263.354 527.616 264.698 527.616C266.042 527.616 266.97 528.592 266.97 530.032C266.97 531.472 266.042 532.448 264.698 532.448C263.354 532.448 262.426 531.472 262.426 530.032Z" fill="white"/>
<path d="M104.909 284.088V282.664H100.365V278.872H105.773V277.432H98.7971V289H100.365V284.088H104.909ZM106.295 285.08C106.295 287.496 108.023 289.192 110.375 289.192C112.711 289.192 114.439 287.496 114.439 285.08C114.439 282.664 112.711 280.968 110.375 280.968C108.023 280.968 106.295 282.664 106.295 285.08ZM107.815 285.08C107.815 283.448 108.855 282.312 110.375 282.312C111.879 282.312 112.935 283.448 112.935 285.08C112.935 286.712 111.879 287.848 110.375 287.848C108.855 287.848 107.815 286.712 107.815 285.08ZM120.584 281.112C120.28 281.048 120.056 281.016 119.784 281.016C118.712 281.016 117.928 281.56 117.608 282.376L117.512 281.192H116.104V289H117.608V284.856C117.608 283.352 118.488 282.488 119.912 282.488H120.584V281.112ZM125.873 284.888C125.873 287.08 127.281 288.792 129.505 288.792C130.737 288.792 131.761 288.248 132.273 287.336V288.904C132.273 290.392 131.313 291.352 129.841 291.352C128.529 291.352 127.665 290.68 127.473 289.528H125.969C126.257 291.512 127.713 292.712 129.841 292.712C132.241 292.712 133.761 291.144 133.761 288.68V281.176H132.417L132.305 282.504C131.809 281.528 130.833 280.952 129.569 280.952C127.297 280.952 125.873 282.68 125.873 284.888ZM127.377 284.856C127.377 283.416 128.273 282.264 129.777 282.264C131.313 282.264 132.209 283.352 132.209 284.856C132.209 286.392 131.281 287.48 129.761 287.48C128.289 287.48 127.377 286.328 127.377 284.856ZM140.412 281.112C140.108 281.048 139.884 281.016 139.612 281.016C138.54 281.016 137.756 281.56 137.436 282.376L137.34 281.192H135.932V289H137.436V284.856C137.436 283.352 138.316 282.488 139.74 282.488H140.412V281.112ZM141.029 285.08C141.029 287.496 142.757 289.192 145.109 289.192C147.445 289.192 149.173 287.496 149.173 285.08C149.173 282.664 147.445 280.968 145.109 280.968C142.757 280.968 141.029 282.664 141.029 285.08ZM142.549 285.08C142.549 283.448 143.589 282.312 145.109 282.312C146.613 282.312 147.669 283.448 147.669 285.08C147.669 286.712 146.613 287.848 145.109 287.848C143.589 287.848 142.549 286.712 142.549 285.08ZM152.159 289H153.647L155.007 284.824C155.295 283.88 155.439 283.368 155.519 282.984C155.599 283.416 155.759 284.024 156.015 284.808L157.375 289H158.799L161.471 281.176H159.903L158.591 285.24C158.367 285.928 158.223 286.472 158.095 287.096C157.967 286.536 157.711 285.624 157.583 285.24L156.287 281.176H154.751L153.439 285.24C153.263 285.752 153.055 286.408 152.927 287.096C152.783 286.408 152.623 285.816 152.447 285.24L151.151 281.176H149.599L152.159 289ZM163.496 279.32C164.04 279.32 164.488 278.872 164.488 278.328C164.488 277.768 164.04 277.336 163.496 277.336C162.952 277.336 162.504 277.768 162.504 278.328C162.504 278.872 162.952 279.32 163.496 279.32ZM162.76 289H164.264V281.176H162.76V289ZM167.951 289V284.856C167.951 283.336 168.767 282.328 170.175 282.328C171.327 282.328 172.063 282.968 172.063 284.552V289H173.567V284.216C173.567 282.216 172.623 280.952 170.559 280.952C169.455 280.952 168.463 281.48 167.967 282.376L167.807 281.176H166.447V289H167.951ZM175.155 284.888C175.155 287.08 176.562 288.792 178.786 288.792C180.019 288.792 181.043 288.248 181.555 287.336V288.904C181.555 290.392 180.595 291.352 179.123 291.352C177.811 291.352 176.947 290.68 176.755 289.528H175.251C175.539 291.512 176.995 292.712 179.123 292.712C181.523 292.712 183.043 291.144 183.043 288.68V281.176H181.699L181.587 282.504C181.091 281.528 180.115 280.952 178.851 280.952C176.579 280.952 175.155 282.68 175.155 284.888ZM176.659 284.856C176.659 283.416 177.555 282.264 179.059 282.264C180.595 282.264 181.491 283.352 181.491 284.856C181.491 286.392 180.563 287.48 179.043 287.48C177.571 287.48 176.659 286.328 176.659 284.856ZM188.948 286.728C188.948 288.216 190.116 289.192 191.956 289.192C193.812 289.192 195.092 288.248 195.092 286.76C195.092 285.592 194.436 284.984 193.108 284.664L191.732 284.328C190.964 284.136 190.58 283.784 190.58 283.256C190.58 282.536 191.108 282.12 192.052 282.12C192.964 282.12 193.492 282.616 193.524 283.4H194.964C194.932 281.912 193.812 280.952 192.1 280.952C190.372 280.952 189.156 281.864 189.156 283.304C189.156 284.456 189.812 285.144 191.204 285.48L192.58 285.8C193.396 286.008 193.652 286.328 193.652 286.856C193.652 287.576 193.044 288.008 191.988 288.008C190.996 288.008 190.388 287.528 190.388 286.728H188.948ZM198.968 289V282.44H200.504V281.176H198.968V278.728H197.464V281.176H195.928V282.44H197.464V289H198.968ZM204.048 289.192C205.312 289.192 206.384 288.632 206.784 287.736L206.944 289H208.224V284.088C208.224 281.976 206.912 280.952 204.976 280.952C202.96 280.952 201.616 282.024 201.616 283.656H202.928C202.928 282.712 203.648 282.152 204.912 282.152C205.968 282.152 206.752 282.616 206.752 283.928V284.152L204.288 284.344C202.448 284.488 201.376 285.384 201.376 286.824C201.376 288.248 202.368 289.192 204.048 289.192ZM204.48 288.024C203.504 288.024 202.896 287.608 202.896 286.776C202.896 286.008 203.44 285.496 204.768 285.368L206.768 285.208V285.624C206.768 287.096 205.904 288.024 204.48 288.024ZM214.787 281.112C214.483 281.048 214.259 281.016 213.987 281.016C212.915 281.016 212.131 281.56 211.811 282.376L211.715 281.192H210.307V289H211.811V284.856C211.811 283.352 212.691 282.488 214.115 282.488H214.787V281.112ZM218.718 289V282.44H220.254V281.176H218.718V278.728H217.214V281.176H215.678V282.44H217.214V289H218.718ZM227.012 281.176V285.304C227.012 286.984 226.26 287.864 224.884 287.864C223.732 287.864 223.012 287.224 223.012 285.544V281.176H221.508V286.04C221.508 287.96 222.532 289.192 224.356 289.192C225.508 289.192 226.548 288.632 226.996 287.816L227.156 289H228.5V281.176H227.012ZM230.682 292.504H232.186V287.72C232.698 288.68 233.738 289.208 234.986 289.208C237.306 289.208 238.618 287.416 238.618 285.032C238.618 282.632 237.226 280.952 234.986 280.952C233.738 280.952 232.682 281.512 232.154 282.584L232.042 281.176H230.682V292.504ZM232.202 285.096C232.202 283.464 233.13 282.328 234.666 282.328C236.202 282.328 237.114 283.48 237.114 285.096C237.114 286.696 236.202 287.848 234.666 287.848C233.13 287.848 232.202 286.696 232.202 285.096ZM239.636 286.728C239.636 288.216 240.804 289.192 242.644 289.192C244.5 289.192 245.78 288.248 245.78 286.76C245.78 285.592 245.124 284.984 243.796 284.664L242.42 284.328C241.652 284.136 241.268 283.784 241.268 283.256C241.268 282.536 241.796 282.12 242.74 282.12C243.652 282.12 244.18 282.616 244.212 283.4H245.652C245.62 281.912 244.5 280.952 242.788 280.952C241.06 280.952 239.844 281.864 239.844 283.304C239.844 284.456 240.5 285.144 241.892 285.48L243.268 285.8C244.084 286.008 244.34 286.328 244.34 286.856C244.34 287.576 243.732 288.008 242.676 288.008C241.684 288.008 241.076 287.528 241.076 286.728H239.636ZM259.594 289H261.354L259.562 286.952C260.122 286.056 260.442 284.904 260.442 283.592H258.986C258.986 284.456 258.842 285.224 258.586 285.848L255.818 282.696C257.306 281.688 257.898 280.792 257.898 279.64C257.898 278.216 256.81 277.24 255.226 277.24C253.594 277.24 252.458 278.28 252.458 279.736C252.458 280.6 252.826 281.304 253.818 282.44C251.898 283.432 250.986 284.568 250.986 285.992C250.986 287.928 252.618 289.208 255.098 289.208C256.554 289.208 257.786 288.76 258.682 287.96L259.594 289ZM253.882 279.72C253.882 278.952 254.394 278.456 255.21 278.456C256.01 278.456 256.49 278.92 256.49 279.672C256.49 280.536 256.026 281.24 255.05 281.832C254.154 280.808 253.882 280.328 253.882 279.72ZM252.554 285.88C252.554 284.84 253.13 284.088 254.57 283.288L257.818 286.968C257.178 287.592 256.314 287.912 255.242 287.912C253.562 287.912 252.554 287.144 252.554 285.88ZM267.745 289L267.857 287.576C268.369 288.648 269.409 289.192 270.641 289.192C272.913 289.192 274.321 287.496 274.321 285.128C274.321 282.712 272.977 280.952 270.737 280.952C269.457 280.952 268.401 281.496 267.889 282.52V277.224H266.385V289H267.745ZM267.905 285.064C267.905 283.464 268.833 282.312 270.369 282.312C271.905 282.312 272.817 283.464 272.817 285.064C272.817 286.68 271.905 287.832 270.369 287.832C268.833 287.832 267.905 286.696 267.905 285.064ZM281.199 281.176V285.304C281.199 286.984 280.447 287.864 279.071 287.864C277.919 287.864 277.199 287.224 277.199 285.544V281.176H275.695V286.04C275.695 287.96 276.719 289.192 278.543 289.192C279.695 289.192 280.735 288.632 281.183 287.816L281.343 289H282.687V281.176H281.199ZM284.073 286.728C284.073 288.216 285.241 289.192 287.081 289.192C288.937 289.192 290.217 288.248 290.217 286.76C290.217 285.592 289.561 284.984 288.233 284.664L286.857 284.328C286.089 284.136 285.705 283.784 285.705 283.256C285.705 282.536 286.233 282.12 287.177 282.12C288.089 282.12 288.617 282.616 288.649 283.4H290.089C290.057 281.912 288.937 280.952 287.225 280.952C285.497 280.952 284.281 281.864 284.281 283.304C284.281 284.456 284.937 285.144 286.329 285.48L287.705 285.8C288.521 286.008 288.777 286.328 288.777 286.856C288.777 287.576 288.169 288.008 287.113 288.008C286.121 288.008 285.513 287.528 285.513 286.728H284.073ZM292.621 279.32C293.165 279.32 293.613 278.872 293.613 278.328C293.613 277.768 293.165 277.336 292.621 277.336C292.077 277.336 291.629 277.768 291.629 278.328C291.629 278.872 292.077 279.32 292.621 279.32ZM291.885 289H293.389V281.176H291.885V289ZM297.076 289V284.856C297.076 283.336 297.892 282.328 299.3 282.328C300.452 282.328 301.188 282.968 301.188 284.552V289H302.692V284.216C302.692 282.216 301.748 280.952 299.684 280.952C298.58 280.952 297.588 281.48 297.092 282.376L296.932 281.176H295.572V289H297.076ZM308.152 289.192C310.088 289.192 311.4 288.248 311.784 286.568H310.376C310.12 287.464 309.352 287.944 308.184 287.944C306.696 287.944 305.832 287.032 305.72 285.384L311.767 285.368V284.808C311.767 282.488 310.312 280.952 308.088 280.952C305.816 280.952 304.264 282.648 304.264 285.096C304.264 287.528 305.848 289.192 308.152 289.192ZM308.088 282.216C309.416 282.216 310.264 283.08 310.264 284.376H305.752C305.944 283 306.776 282.216 308.088 282.216ZM312.807 286.728C312.807 288.216 313.975 289.192 315.815 289.192C317.671 289.192 318.951 288.248 318.951 286.76C318.951 285.592 318.295 284.984 316.967 284.664L315.591 284.328C314.823 284.136 314.439 283.784 314.439 283.256C314.439 282.536 314.967 282.12 315.911 282.12C316.823 282.12 317.351 282.616 317.383 283.4H318.823C318.791 281.912 317.671 280.952 315.959 280.952C314.231 280.952 313.015 281.864 313.015 283.304C313.015 284.456 313.671 285.144 315.063 285.48L316.439 285.8C317.255 286.008 317.511 286.328 317.511 286.856C317.511 287.576 316.903 288.008 315.847 288.008C314.855 288.008 314.247 287.528 314.247 286.728H312.807ZM319.979 286.728C319.979 288.216 321.147 289.192 322.987 289.192C324.843 289.192 326.123 288.248 326.123 286.76C326.123 285.592 325.467 284.984 324.139 284.664L322.763 284.328C321.995 284.136 321.611 283.784 321.611 283.256C321.611 282.536 322.139 282.12 323.083 282.12C323.995 282.12 324.523 282.616 324.555 283.4H325.995C325.963 281.912 324.843 280.952 323.131 280.952C321.403 280.952 320.187 281.864 320.187 283.304C320.187 284.456 320.843 285.144 322.235 285.48L323.611 285.8C324.427 286.008 324.683 286.328 324.683 286.856C324.683 287.576 324.075 288.008 323.019 288.008C322.027 288.008 321.419 287.528 321.419 286.728H319.979ZM331.167 289.192C333.103 289.192 334.415 288.248 334.799 286.568H333.391C333.135 287.464 332.367 287.944 331.199 287.944C329.711 287.944 328.847 287.032 328.735 285.384L334.783 285.368V284.808C334.783 282.488 333.327 280.952 331.103 280.952C328.831 280.952 327.279 282.648 327.279 285.096C327.279 287.528 328.863 289.192 331.167 289.192ZM331.103 282.216C332.431 282.216 333.279 283.08 333.279 284.376H328.767C328.959 283 329.791 282.216 331.103 282.216ZM335.823 286.728C335.823 288.216 336.991 289.192 338.831 289.192C340.687 289.192 341.967 288.248 341.967 286.76C341.967 285.592 341.311 284.984 339.983 284.664L338.607 284.328C337.839 284.136 337.455 283.784 337.455 283.256C337.455 282.536 337.983 282.12 338.927 282.12C339.839 282.12 340.367 282.616 340.399 283.4H341.839C341.807 281.912 340.687 280.952 338.975 280.952C337.247 280.952 336.031 281.864 336.031 283.304C336.031 284.456 336.687 285.144 338.079 285.48L339.455 285.8C340.271 286.008 340.527 286.328 340.527 286.856C340.527 287.576 339.919 288.008 338.863 288.008C337.871 288.008 337.263 287.528 337.263 286.728H335.823ZM126.37 312L126.482 310.576C126.994 311.648 128.034 312.192 129.266 312.192C131.538 312.192 132.946 310.496 132.946 308.128C132.946 305.712 131.602 303.952 129.362 303.952C128.082 303.952 127.026 304.496 126.514 305.52V300.224H125.01V312H126.37ZM126.53 308.064C126.53 306.464 127.458 305.312 128.994 305.312C130.53 305.312 131.442 306.464 131.442 308.064C131.442 309.68 130.53 310.832 128.994 310.832C127.458 310.832 126.53 309.696 126.53 308.064ZM137.98 312.192C139.916 312.192 141.228 311.248 141.612 309.568H140.204C139.948 310.464 139.18 310.944 138.012 310.944C136.524 310.944 135.66 310.032 135.548 308.384L141.596 308.368V307.808C141.596 305.488 140.14 303.952 137.916 303.952C135.644 303.952 134.092 305.648 134.092 308.096C134.092 310.528 135.676 312.192 137.98 312.192ZM137.916 305.216C139.244 305.216 140.092 306.08 140.092 307.376H135.58C135.772 306 136.604 305.216 137.916 305.216ZM145.405 312V305.44H146.941V304.176H145.405V301.728H143.901V304.176H142.365V305.44H143.901V312H145.405ZM149.971 312H151.459L152.819 307.824C153.107 306.88 153.251 306.368 153.331 305.984C153.411 306.416 153.571 307.024 153.827 307.808L155.187 312H156.611L159.283 304.176H157.715L156.403 308.24C156.179 308.928 156.035 309.472 155.907 310.096C155.779 309.536 155.523 308.624 155.395 308.24L154.099 304.176H152.563L151.251 308.24C151.075 308.752 150.867 309.408 150.739 310.096C150.595 309.408 150.435 308.816 150.259 308.24L148.963 304.176H147.411L149.971 312ZM163.589 312.192C165.525 312.192 166.837 311.248 167.221 309.568H165.813C165.557 310.464 164.789 310.944 163.621 310.944C162.133 310.944 161.269 310.032 161.157 308.384L167.205 308.368V307.808C167.205 305.488 165.749 303.952 163.525 303.952C161.253 303.952 159.701 305.648 159.701 308.096C159.701 310.528 161.285 312.192 163.589 312.192ZM163.525 305.216C164.853 305.216 165.701 306.08 165.701 307.376H161.189C161.381 306 162.213 305.216 163.525 305.216ZM172.261 312.192C174.197 312.192 175.509 311.248 175.893 309.568H174.485C174.229 310.464 173.461 310.944 172.293 310.944C170.805 310.944 169.941 310.032 169.829 308.384L175.877 308.368V307.808C175.877 305.488 174.421 303.952 172.197 303.952C169.925 303.952 168.373 305.648 168.373 308.096C168.373 310.528 169.957 312.192 172.261 312.192ZM172.197 305.216C173.525 305.216 174.373 306.08 174.373 307.376H169.861C170.053 306 170.885 305.216 172.197 305.216ZM179.061 312V307.856C179.061 306.336 179.877 305.328 181.285 305.328C182.437 305.328 183.173 305.968 183.173 307.552V312H184.677V307.216C184.677 305.216 183.733 303.952 181.669 303.952C180.565 303.952 179.573 304.48 179.077 305.376L178.917 304.176H177.557V312H179.061ZM193.039 301.84V312H194.543V300.432H190.607V301.84H193.039ZM196.659 306.224C196.659 309.824 198.435 312.208 201.427 312.208C204.403 312.208 206.179 309.824 206.179 306.224C206.179 302.64 204.323 300.208 201.427 300.208C198.515 300.208 196.659 302.64 196.659 306.224ZM198.211 306.224C198.211 303.344 199.395 301.616 201.427 301.616C203.459 301.616 204.627 303.344 204.627 306.224C204.627 309.072 203.459 310.8 201.427 310.8C199.395 310.8 198.211 309.072 198.211 306.224ZM214.72 312.192C215.984 312.192 217.056 311.632 217.456 310.736L217.616 312H218.896V307.088C218.896 304.976 217.584 303.952 215.648 303.952C213.632 303.952 212.288 305.024 212.288 306.656H213.6C213.6 305.712 214.32 305.152 215.584 305.152C216.64 305.152 217.424 305.616 217.424 306.928V307.152L214.96 307.344C213.12 307.488 212.048 308.384 212.048 309.824C212.048 311.248 213.04 312.192 214.72 312.192ZM215.152 311.024C214.176 311.024 213.568 310.608 213.568 309.776C213.568 309.008 214.112 308.496 215.44 308.368L217.44 308.208V308.624C217.44 310.096 216.576 311.024 215.152 311.024ZM222.483 312V307.856C222.483 306.336 223.299 305.328 224.707 305.328C225.859 305.328 226.595 305.968 226.595 307.552V312H228.099V307.216C228.099 305.216 227.155 303.952 225.091 303.952C223.987 303.952 222.995 304.48 222.499 305.376L222.339 304.176H220.979V312H222.483ZM233.318 312.192C234.566 312.192 235.622 311.648 236.134 310.576L236.262 312H237.606V300.224H236.118V305.44C235.59 304.48 234.582 303.952 233.382 303.952C231.062 303.952 229.67 305.712 229.67 308.112C229.67 310.496 231.046 312.192 233.318 312.192ZM233.622 310.832C232.086 310.832 231.19 309.68 231.19 308.064C231.19 306.464 232.086 305.312 233.622 305.312C235.158 305.312 236.102 306.464 236.102 308.064C236.102 309.696 235.158 310.832 233.622 310.832ZM251.607 311.984V310.528H246.263L248.663 308.448C250.711 306.672 251.527 305.504 251.527 303.856C251.527 301.632 250.039 300.224 247.719 300.224C245.367 300.224 243.799 301.84 243.751 304.32H245.319C245.351 302.672 246.279 301.632 247.703 301.632C249.095 301.632 249.927 302.496 249.927 303.952C249.927 305.184 249.399 305.968 247.527 307.584L243.799 310.8V312L251.607 311.984ZM261.361 309.664V308.272H259.985V300.432H257.953L252.497 308.272V309.664H258.481V312H259.985V309.664H261.361ZM254.193 308.272L258.481 302.096V308.272H254.193ZM267.588 315.504H269.092V310.72C269.604 311.68 270.644 312.208 271.892 312.208C274.212 312.208 275.524 310.416 275.524 308.032C275.524 305.632 274.132 303.952 271.892 303.952C270.644 303.952 269.588 304.512 269.06 305.584L268.948 304.176H267.588V315.504ZM269.108 308.096C269.108 306.464 270.036 305.328 271.572 305.328C273.108 305.328 274.02 306.48 274.02 308.096C274.02 309.696 273.108 310.848 271.572 310.848C270.036 310.848 269.108 309.696 269.108 308.096ZM280.558 312.192C282.494 312.192 283.806 311.248 284.19 309.568H282.782C282.526 310.464 281.758 310.944 280.59 310.944C279.102 310.944 278.238 310.032 278.126 308.384L284.174 308.368V307.808C284.174 305.488 282.718 303.952 280.494 303.952C278.222 303.952 276.67 305.648 276.67 308.096C276.67 310.528 278.254 312.192 280.558 312.192ZM280.494 305.216C281.822 305.216 282.67 306.08 282.67 307.376H278.158C278.35 306 279.182 305.216 280.494 305.216ZM285.342 308.08C285.342 310.496 287.07 312.192 289.422 312.192C291.758 312.192 293.486 310.496 293.486 308.08C293.486 305.664 291.758 303.968 289.422 303.968C287.07 303.968 285.342 305.664 285.342 308.08ZM286.862 308.08C286.862 306.448 287.902 305.312 289.422 305.312C290.926 305.312 291.982 306.448 291.982 308.08C291.982 309.712 290.926 310.848 289.422 310.848C287.902 310.848 286.862 309.712 286.862 308.08ZM295.151 315.504H296.655V310.72C297.167 311.68 298.207 312.208 299.455 312.208C301.775 312.208 303.087 310.416 303.087 308.032C303.087 305.632 301.695 303.952 299.455 303.952C298.207 303.952 297.151 304.512 296.623 305.584L296.511 304.176H295.151V315.504ZM296.671 308.096C296.671 306.464 297.599 305.328 299.135 305.328C300.671 305.328 301.583 306.48 301.583 308.096C301.583 309.696 300.671 310.848 299.135 310.848C297.599 310.848 296.671 309.696 296.671 308.096ZM306.28 312V300.224H304.776V312H306.28ZM311.87 312.192C313.806 312.192 315.118 311.248 315.502 309.568H314.094C313.838 310.464 313.07 310.944 311.902 310.944C310.414 310.944 309.55 310.032 309.438 308.384L315.486 308.368V307.808C315.486 305.488 314.03 303.952 311.806 303.952C309.534 303.952 307.982 305.648 307.982 308.096C307.982 310.528 309.566 312.192 311.87 312.192ZM311.806 305.216C313.134 305.216 313.982 306.08 313.982 307.376H309.47C309.662 306 310.494 305.216 311.806 305.216Z" fill="#5D728C"/>
<path d="M191.48 117.384C197.016 117.384 201.304 114.12 202.2 109.192H197.944C197.176 111.784 194.744 113.448 191.576 113.448C187.288 113.448 184.536 110.248 184.536 105.288C184.536 100.296 187.256 97.16 191.576 97.16C194.68 97.16 197.016 98.76 197.816 101.48H202.136C201.336 96.456 197.208 93.224 191.672 93.224C184.824 93.224 180.248 98.056 180.248 105.32C180.248 112.648 184.664 117.384 191.48 117.384ZM204.369 109.064C204.369 113.992 207.921 117.384 212.817 117.384C217.713 117.384 221.265 113.992 221.265 109.064C221.265 104.136 217.713 100.744 212.817 100.744C207.921 100.744 204.369 104.136 204.369 109.064ZM208.273 109.064C208.273 106.184 210.129 104.232 212.817 104.232C215.505 104.232 217.361 106.184 217.361 109.064C217.361 111.944 215.505 113.896 212.817 113.896C210.129 113.896 208.273 111.944 208.273 109.064ZM234.28 101.128C233.64 100.968 233.096 100.904 232.552 100.904C230.44 100.904 228.936 101.96 228.264 103.528L228.04 101.224H224.36V117H228.264V109.32C228.264 106.248 230.024 104.744 232.84 104.744H234.28V101.128ZM243.463 117.416C247.591 117.416 250.471 115.336 251.143 111.88H247.527C247.079 113.384 245.671 114.216 243.527 114.216C240.935 114.216 239.463 112.808 239.175 110.024L251.079 109.992V108.808C251.079 103.88 248.071 100.712 243.335 100.712C238.695 100.712 235.463 104.136 235.463 109.096C235.463 113.992 238.759 117.416 243.463 117.416ZM243.367 103.912C245.703 103.912 247.207 105.352 247.207 107.528H239.271C239.655 105.16 241.063 103.912 243.367 103.912Z" fill="#1A938A"/>
<defs>
<filter id="filter0_ddd_1305_13664" x="0" y="0" width="440" height="707" filterUnits="userSpaceOnUse" color-interpolation-filters="sRGB">
<feFlood flood-opacity="0" result="BackgroundImageFix"/>
<feColorMatrix in="SourceAlpha" type="matrix" values="0 0 0 0 0 0 0 0 0 0 0 0 0 0 0 0 0 0 127 0" result="hardAlpha"/>
<feMorphology radius="7" operator="erode" in="SourceAlpha" result="effect1_dropShadow_1305_13664"/>
<feOffset dy="11"/>
<feGaussianBlur stdDeviation="7.5"/>
<feColorMatrix type="matrix" values="0 0 0 0 0.364706 0 0 0 0 0.447059 0 0 0 0 0.54902 0 0 0 0.16 0"/>
<feBlend mode="normal" in2="BackgroundImageFix" result="effect1_dropShadow_1305_13664"/>
<feColorMatrix in="SourceAlpha" type="matrix" values="0 0 0 0 0 0 0 0 0 0 0 0 0 0 0 0 0 0 127 0" result="hardAlpha"/>
<feMorphology radius="8" operator="dilate" in="SourceAlpha" result="effect2_dropShadow_1305_13664"/>
<feOffset dy="9"/>
<feGaussianBlur stdDeviation="23"/>
<feColorMatrix type="matrix" values="0 0 0 0 0.364706 0 0 0 0 0.447059 0 0 0 0 0.54902 0 0 0 0.08 0"/>
<feBlend mode="normal" in2="effect1_dropShadow_1305_13664" result="effect2_dropShadow_1305_13664"/>
<feColorMatrix in="SourceAlpha" type="matrix" values="0 0 0 0 0 0 0 0 0 0 0 0 0 0 0 0 0 0 127 0" result="hardAlpha"/>
<feMorphology radius="3" operator="dilate" in="SourceAlpha" result="effect3_dropShadow_1305_13664"/>
<feOffset dy="24"/>
<feGaussianBlur stdDeviation="19"/>
<feColorMatrix type="matrix" values="0 0 0 0 0.364706 0 0 0 0 0.447059 0 0 0 0 0.54902 0 0 0 0.1 0"/>
<feBlend mode="normal" in2="effect2_dropShadow_1305_13664" result="effect3_dropShadow_1305_13664"/>
<feBlend mode="normal" in="SourceGraphic" in2="effect3_dropShadow_1305_13664" result="shape"/>
</filter>
<filter id="filter1_ddd_1305_13664" x="14" y="13" width="412" height="681" filterUnits="userSpaceOnUse" color-interpolation-filters="sRGB">
<feFlood flood-opacity="0" result="BackgroundImageFix"/>
<feColorMatrix in="SourceAlpha" type="matrix" values="0 0 0 0 0 0 0 0 0 0 0 0 0 0 0 0 0 0 127 0" result="hardAlpha"/>
<feMorphology radius="7" operator="erode" in="SourceAlpha" result="effect1_dropShadow_1305_13664"/>
<feOffset dy="11"/>
<feGaussianBlur stdDeviation="7.5"/>
<feColorMatrix type="matrix" values="0 0 0 0 0.364706 0 0 0 0 0.447059 0 0 0 0 0.54902 0 0 0 0.16 0"/>
<feBlend mode="normal" in2="BackgroundImageFix" result="effect1_dropShadow_1305_13664"/>
<feColorMatrix in="SourceAlpha" type="matrix" values="0 0 0 0 0 0 0 0 0 0 0 0 0 0 0 0 0 0 127 0" result="hardAlpha"/>
<feMorphology radius="8" operator="dilate" in="SourceAlpha" result="effect2_dropShadow_1305_13664"/>
<feOffset dy="9"/>
<feGaussianBlur stdDeviation="23"/>
<feColorMatrix type="matrix" values="0 0 0 0 0.364706 0 0 0 0 0.447059 0 0 0 0 0.54902 0 0 0 0.08 0"/>
<feBlend mode="normal" in2="effect1_dropShadow_1305_13664" result="effect2_dropShadow_1305_13664"/>
<feColorMatrix in="SourceAlpha" type="matrix" values="0 0 0 0 0 0 0 0 0 0 0 0 0 0 0 0 0 0 127 0" result="hardAlpha"/>
<feMorphology radius="3" operator="dilate" in="SourceAlpha" result="effect3_dropShadow_1305_13664"/>
<feOffset dy="24"/>
<feGaussianBlur stdDeviation="19"/>
<feColorMatrix type="matrix" values="0 0 0 0 0.364706 0 0 0 0 0.447059 0 0 0 0 0.54902 0 0 0 0.1 0"/>
<feBlend mode="normal" in2="effect2_dropShadow_1305_13664" result="effect3_dropShadow_1305_13664"/>
<feBlend mode="normal" in="SourceGraphic" in2="effect3_dropShadow_1305_13664" result="shape"/>
</filter>
</defs>
</svg>
