<svg width="332" height="597" viewBox="0 0 332 597" fill="none" xmlns="http://www.w3.org/2000/svg">
<g id="Group 4363">
<g id="Rectangle 399" filter="url(#filter0_ddd_1305_13666)">
<rect width="332" height="597" rx="26" fill="#EC9A2B"/>
</g>
<rect id="Rectangle 402" x="14" y="13" width="304" height="571" rx="14" fill="white"/>
<path id="Request a Quote" d="M99.773 376V367.712H103.773L107.325 376H112.989L108.829 366.592C111.453 365.248 112.765 363.072 112.765 360C112.765 355.104 109.501 352.32 103.741 352.32H94.589V376H99.773ZM99.773 356.928H103.741C106.045 356.928 107.293 358.016 107.293 360C107.293 362.016 105.981 363.168 103.709 363.168H99.773V356.928ZM122.311 376.416C126.695 376.416 129.863 374.144 130.439 370.592H125.927C125.575 371.744 124.263 372.416 122.407 372.416C120.231 372.416 119.047 371.424 118.759 369.312L130.375 369.248V368C130.375 362.784 127.239 359.488 122.215 359.488C117.383 359.488 114.023 362.976 114.023 367.968C114.023 372.896 117.479 376.416 122.311 376.416ZM122.247 363.488C124.231 363.488 125.479 364.576 125.479 366.272H118.823C119.207 364.352 120.295 363.488 122.247 363.488ZM132.43 367.744C132.43 372.8 135.182 376.448 139.95 376.448C142.158 376.448 144.206 375.616 145.134 374.4V383.68H150.062V360H145.422L145.166 361.952C144.27 360.48 142.254 359.488 139.982 359.488C135.534 359.488 132.43 362.592 132.43 367.744ZM137.39 368C137.39 365.632 138.862 364 141.198 364C143.502 364 145.102 365.6 145.102 368C145.102 370.4 143.502 372 141.198 372C138.862 372 137.39 370.368 137.39 368ZM164.386 360V368.32C164.386 370.944 163.522 372.032 161.41 372.032C159.394 372.032 158.498 370.88 158.498 368.256V360H153.57V370.048C153.57 373.984 155.81 376.416 159.458 376.416C161.378 376.416 163.362 375.52 164.354 374.208L164.674 376H169.314V360H164.386ZM180.124 376.416C184.508 376.416 187.676 374.144 188.252 370.592H183.74C183.388 371.744 182.076 372.416 180.22 372.416C178.044 372.416 176.86 371.424 176.572 369.312L188.188 369.248V368C188.188 362.784 185.052 359.488 180.028 359.488C175.196 359.488 171.836 362.976 171.836 367.968C171.836 372.896 175.292 376.416 180.124 376.416ZM180.06 363.488C182.044 363.488 183.292 364.576 183.292 366.272H176.636C177.02 364.352 178.108 363.488 180.06 363.488ZM189.954 370.944C189.954 374.176 192.61 376.416 196.834 376.416C200.994 376.416 203.906 374.336 203.906 370.912C203.906 368.352 202.466 367.136 199.842 366.56L196.866 365.92C195.746 365.664 195.138 365.248 195.138 364.512C195.138 363.648 195.842 363.072 196.962 363.072C198.146 363.072 198.818 363.808 198.818 364.896H203.49C203.49 361.664 200.898 359.488 197.186 359.488C193.346 359.488 190.498 361.408 190.498 364.736C190.498 367.552 191.938 368.832 194.882 369.472L197.826 370.112C199.01 370.368 199.266 370.88 199.266 371.36C199.266 372.192 198.562 372.736 197.026 372.736C195.522 372.736 194.69 372.064 194.626 370.944H189.954ZM212.945 376V364.096H215.985V360H212.945V355.04H208.017V360H204.977V364.096H208.017V376H212.945ZM231.501 376.416C233.901 376.416 236.013 375.36 236.525 373.888L236.845 376H241.197V366.656C241.197 362.08 238.573 359.488 233.933 359.488C229.357 359.488 226.381 361.856 226.381 365.472H230.477C230.477 364.032 231.597 363.232 233.677 363.232C235.437 363.232 236.397 364.064 236.397 365.632V365.888L231.917 366.24C228.077 366.528 225.997 368.352 225.997 371.296C225.997 374.432 228.109 376.416 231.501 376.416ZM233.229 372.768C231.725 372.768 231.021 372.224 231.021 371.072C231.021 370.048 231.789 369.568 233.933 369.376L236.429 369.152V370.016C236.429 371.84 235.117 372.768 233.229 372.768ZM141.587 422.048L144.851 419.168L142.291 416.256C143.955 414.176 144.915 411.36 144.915 408.128C144.915 400.896 140.179 395.904 133.299 395.904C126.451 395.904 121.715 400.928 121.715 408.16C121.715 415.392 126.419 420.384 133.267 420.384C135.379 420.384 137.299 419.904 138.931 419.04L141.587 422.048ZM139.443 408.128C139.443 409.696 139.155 411.04 138.642 412.128L135.571 408.672L132.307 411.552L135.411 415.072C134.771 415.296 134.099 415.392 133.331 415.392C129.491 415.392 127.187 412.672 127.187 408.128C127.187 403.616 129.491 400.896 133.331 400.896C137.139 400.896 139.443 403.616 139.443 408.128ZM158.543 404V412.32C158.543 414.944 157.679 416.032 155.567 416.032C153.551 416.032 152.655 414.88 152.655 412.256V404H147.727V414.048C147.727 417.984 149.967 420.416 153.615 420.416C155.535 420.416 157.519 419.52 158.511 418.208L158.831 420H163.471V404H158.543ZM165.992 411.968C165.992 417.024 169.704 420.384 174.824 420.384C179.912 420.384 183.624 417.024 183.624 411.968C183.624 406.912 179.912 403.52 174.824 403.52C169.704 403.52 165.992 406.912 165.992 411.968ZM170.952 411.936C170.952 409.536 172.52 407.936 174.824 407.936C177.096 407.936 178.664 409.536 178.664 411.936C178.664 414.368 177.096 415.968 174.824 415.968C172.52 415.968 170.952 414.368 170.952 411.936ZM192.789 420V408.096H195.829V404H192.789V399.04H187.861V404H184.821V408.096H187.861V420H192.789ZM205.311 420.416C209.695 420.416 212.863 418.144 213.439 414.592H208.927C208.575 415.744 207.263 416.416 205.407 416.416C203.231 416.416 202.047 415.424 201.759 413.312L213.375 413.248V412C213.375 406.784 210.239 403.488 205.215 403.488C200.383 403.488 197.023 406.976 197.023 411.968C197.023 416.896 200.479 420.416 205.311 420.416ZM205.247 407.488C207.231 407.488 208.479 408.576 208.479 410.272H201.823C202.207 408.352 203.295 407.488 205.247 407.488Z" fill="#043344"/>
<g id="Button / Main - Shadow">
<rect x="36" y="459" width="259" height="48" rx="4" fill="#1A938A"/>
<path id="Try Demo" d="M120.56 489.192C123.328 489.192 125.472 487.56 125.92 485.096H123.792C123.408 486.392 122.192 487.224 120.608 487.224C118.464 487.224 117.088 485.624 117.088 483.144C117.088 480.648 118.448 479.08 120.608 479.08C122.16 479.08 123.328 479.88 123.728 481.24H125.888C125.488 478.728 123.424 477.112 120.656 477.112C117.232 477.112 114.944 479.528 114.944 483.16C114.944 486.824 117.152 489.192 120.56 489.192ZM127.005 485.032C127.005 487.496 128.781 489.192 131.229 489.192C133.677 489.192 135.453 487.496 135.453 485.032C135.453 482.568 133.677 480.872 131.229 480.872C128.781 480.872 127.005 482.568 127.005 485.032ZM128.957 485.032C128.957 483.592 129.885 482.616 131.229 482.616C132.573 482.616 133.501 483.592 133.501 485.032C133.501 486.472 132.573 487.448 131.229 487.448C129.885 487.448 128.957 486.472 128.957 485.032ZM138.952 489V484.744C138.952 483.464 139.688 482.632 140.888 482.632C141.896 482.632 142.552 483.272 142.552 484.6V489H144.504V484.136C144.504 482.088 143.48 480.856 141.496 480.856C140.424 480.856 139.464 481.32 138.968 482.12L138.808 481.096H137V489H138.952ZM149.11 489V482.728H150.646V481.096H149.11V478.632H147.158V481.096H145.638V482.728H147.158V489H149.11ZM154.165 489.208C155.397 489.208 156.469 488.648 156.805 487.832L156.949 489H158.661V484.2C158.661 482.008 157.349 480.856 155.221 480.856C153.077 480.856 151.669 481.976 151.669 483.688H153.333C153.333 482.856 153.973 482.376 155.125 482.376C156.117 482.376 156.757 482.808 156.757 483.88V484.056L154.389 484.232C152.517 484.376 151.461 485.288 151.461 486.744C151.461 488.232 152.485 489.208 154.165 489.208ZM154.805 487.736C153.925 487.736 153.445 487.384 153.445 486.664C153.445 486.024 153.909 485.624 155.125 485.512L156.773 485.384V485.8C156.773 487.016 156.005 487.736 154.805 487.736ZM160.114 485.032C160.114 487.544 161.682 489.208 164.082 489.208C166.146 489.208 167.682 487.944 167.922 486.104H165.954C165.746 486.968 165.058 487.448 164.082 487.448C162.834 487.448 162.066 486.52 162.066 485.032C162.066 483.544 162.898 482.6 164.146 482.6C165.074 482.6 165.73 483.064 165.954 483.96H167.906C167.698 482.056 166.226 480.856 164.066 480.856C161.73 480.856 160.114 482.584 160.114 485.032ZM172.063 489V482.728H173.599V481.096H172.063V478.632H170.111V481.096H168.591V482.728H170.111V489H172.063ZM178.741 480.568C178.741 482.36 179.781 483.496 181.765 483.928L183.621 484.344C184.581 484.552 184.981 485.016 184.981 485.8C184.981 486.776 184.117 487.368 182.757 487.368C181.445 487.368 180.645 486.776 180.629 485.784H178.581C178.629 487.88 180.261 489.208 182.757 489.208C185.333 489.208 187.029 487.8 187.029 485.624C187.029 483.88 186.053 482.856 184.053 482.424L182.213 482.024C181.237 481.8 180.789 481.336 180.789 480.504C180.789 479.528 181.605 478.92 182.869 478.92C184.021 478.92 184.741 479.512 184.789 480.52H186.837C186.773 478.408 185.269 477.096 182.901 477.096C180.437 477.096 178.741 478.52 178.741 480.568ZM190.946 489.208C192.178 489.208 193.25 488.648 193.586 487.832L193.73 489H195.442V484.2C195.442 482.008 194.13 480.856 192.002 480.856C189.858 480.856 188.45 481.976 188.45 483.688H190.114C190.114 482.856 190.754 482.376 191.906 482.376C192.898 482.376 193.538 482.808 193.538 483.88V484.056L191.17 484.232C189.298 484.376 188.242 485.288 188.242 486.744C188.242 488.232 189.266 489.208 190.946 489.208ZM191.586 487.736C190.706 487.736 190.226 487.384 190.226 486.664C190.226 486.024 190.69 485.624 191.906 485.512L193.554 485.384V485.8C193.554 487.016 192.786 487.736 191.586 487.736ZM199.328 489V477.096H197.392V489H199.328ZM204.911 489.208C206.975 489.208 208.415 488.168 208.751 486.44H206.943C206.719 487.192 206.015 487.608 204.943 487.608C203.647 487.608 202.911 486.904 202.767 485.512L208.719 485.496V484.904C208.719 482.44 207.215 480.856 204.847 480.856C202.527 480.856 200.911 482.568 200.911 485.048C200.911 487.496 202.559 489.208 204.911 489.208ZM204.863 482.456C206.031 482.456 206.783 483.176 206.783 484.264H202.815C203.007 483.08 203.711 482.456 204.863 482.456ZM209.673 486.6C209.673 488.152 210.921 489.208 212.889 489.208C214.841 489.208 216.201 488.216 216.201 486.616C216.201 485.4 215.529 484.792 214.201 484.488L212.777 484.152C212.105 483.992 211.753 483.704 211.753 483.256C211.753 482.664 212.201 482.312 212.969 482.312C213.721 482.312 214.169 482.744 214.185 483.416H216.041C216.025 481.88 214.825 480.856 213.049 480.856C211.225 480.856 209.913 481.784 209.913 483.336C209.913 484.6 210.601 485.272 212.025 485.592L213.449 485.928C214.153 486.088 214.361 486.376 214.361 486.776C214.361 487.352 213.865 487.72 212.953 487.72C212.057 487.72 211.545 487.288 211.529 486.6H209.673Z" fill="white"/>
</g>
<path id="The full service experience with PRO features, premium implementation support and a dedicated customer success manager" d="M34.4428 233.872H37.9308V244H39.4988V233.872H42.9708V232.432H34.4428V233.872ZM45.7951 243.984V239.728C45.7951 238.384 46.5791 237.328 48.0351 237.328C49.1551 237.328 49.9071 237.968 49.9071 239.552V244H51.4111V239.216C51.4111 237.216 50.4511 235.952 48.4511 235.952C47.2351 235.952 46.2911 236.528 45.7951 237.376V232.224H44.2911V243.984H45.7951ZM56.8703 244.192C58.8063 244.192 60.1183 243.248 60.5023 241.568H59.0943C58.8383 242.464 58.0703 242.944 56.9023 242.944C55.4143 242.944 54.5503 242.032 54.4383 240.384L60.4862 240.368V239.808C60.4862 237.488 59.0303 235.952 56.8063 235.952C54.5343 235.952 52.9823 237.648 52.9823 240.096C52.9823 242.528 54.5663 244.192 56.8703 244.192ZM56.8063 237.216C58.1343 237.216 58.9823 238.08 58.9823 239.376H54.4703C54.6623 238 55.4943 237.216 56.8063 237.216ZM65.7091 236.176V237.44H66.8611V244H68.3651V237.44H70.2211V236.176H68.3651V234.928C68.3651 234.08 68.6211 233.584 69.5971 233.584H70.2691V232.288C69.9651 232.24 69.6291 232.224 69.3411 232.224C67.9171 232.224 66.8611 233.008 66.8611 234.928V236.176H65.7091ZM77.0273 236.176V240.304C77.0273 241.984 76.2753 242.864 74.8993 242.864C73.7473 242.864 73.0273 242.224 73.0273 240.544V236.176H71.5233V241.04C71.5233 242.96 72.5473 244.192 74.3713 244.192C75.5233 244.192 76.5633 243.632 77.0113 242.816L77.1713 244H78.5153V236.176H77.0273ZM82.2334 244V232.224H80.7294V244H82.2334ZM85.9834 244V232.224H84.4794V244H85.9834ZM91.9324 241.728C91.9324 243.216 93.1004 244.192 94.9404 244.192C96.7964 244.192 98.0764 243.248 98.0764 241.76C98.0764 240.592 97.4204 239.984 96.0924 239.664L94.7164 239.328C93.9484 239.136 93.5644 238.784 93.5644 238.256C93.5644 237.536 94.0924 237.12 95.0364 237.12C95.9484 237.12 96.4764 237.616 96.5084 238.4H97.9484C97.9164 236.912 96.7964 235.952 95.0844 235.952C93.3564 235.952 92.1404 236.864 92.1404 238.304C92.1404 239.456 92.7964 240.144 94.1884 240.48L95.5644 240.8C96.3804 241.008 96.6364 241.328 96.6364 241.856C96.6364 242.576 96.0284 243.008 94.9724 243.008C93.9804 243.008 93.3724 242.528 93.3724 241.728H91.9324ZM103.12 244.192C105.056 244.192 106.368 243.248 106.752 241.568H105.344C105.088 242.464 104.32 242.944 103.152 242.944C101.664 242.944 100.8 242.032 100.688 240.384L106.736 240.368V239.808C106.736 237.488 105.28 235.952 103.056 235.952C100.784 235.952 99.2323 237.648 99.2323 240.096C99.2323 242.528 100.816 244.192 103.12 244.192ZM103.056 237.216C104.384 237.216 105.232 238.08 105.232 239.376H100.72C100.912 238 101.744 237.216 103.056 237.216ZM112.896 236.112C112.592 236.048 112.368 236.016 112.096 236.016C111.024 236.016 110.24 236.56 109.92 237.376L109.824 236.192H108.416V244H109.92V239.856C109.92 238.352 110.8 237.488 112.224 237.488H112.896V236.112ZM116.733 244H118.221L121.485 236.176H119.917L118.173 240.544C117.901 241.232 117.645 241.904 117.517 242.416C117.389 241.936 117.165 241.28 116.893 240.544L115.181 236.176H113.581L116.733 244ZM123.418 234.32C123.962 234.32 124.41 233.872 124.41 233.328C124.41 232.768 123.962 232.336 123.418 232.336C122.874 232.336 122.426 232.768 122.426 233.328C122.426 233.872 122.874 234.32 123.418 234.32ZM122.682 244H124.186V236.176H122.682V244ZM125.857 240.096C125.857 242.56 127.377 244.192 129.681 244.192C131.569 244.192 133.025 243.056 133.329 241.36H131.825C131.553 242.288 130.753 242.848 129.681 242.848C128.257 242.848 127.345 241.76 127.345 240.08C127.345 238.384 128.321 237.296 129.745 237.296C130.753 237.296 131.553 237.824 131.809 238.816H133.313C133.041 237.072 131.665 235.952 129.697 235.952C127.409 235.952 125.857 237.648 125.857 240.096ZM138.292 244.192C140.228 244.192 141.54 243.248 141.924 241.568H140.516C140.26 242.464 139.492 242.944 138.324 242.944C136.836 242.944 135.972 242.032 135.86 240.384L141.908 240.368V239.808C141.908 237.488 140.452 235.952 138.228 235.952C135.956 235.952 134.404 237.648 134.404 240.096C134.404 242.528 135.988 244.192 138.292 244.192ZM138.228 237.216C139.556 237.216 140.404 238.08 140.404 239.376H135.892C136.084 238 136.916 237.216 138.228 237.216ZM151.339 244.192C153.275 244.192 154.587 243.248 154.971 241.568H153.563C153.307 242.464 152.539 242.944 151.371 242.944C149.883 242.944 149.019 242.032 148.907 240.384L154.955 240.368V239.808C154.955 237.488 153.499 235.952 151.275 235.952C149.003 235.952 147.451 237.648 147.451 240.096C147.451 242.528 149.035 244.192 151.339 244.192ZM151.275 237.216C152.603 237.216 153.451 238.08 153.451 239.376H148.939C149.131 238 149.963 237.216 151.275 237.216ZM157.138 244L159.058 241.136L161.01 244H162.754L160.082 240.128L162.802 236.176H161.09L159.154 239.088L157.17 236.176H155.426L158.146 240.128L155.41 244H157.138ZM164.057 247.504H165.561V242.72C166.073 243.68 167.113 244.208 168.361 244.208C170.681 244.208 171.993 242.416 171.993 240.032C171.993 237.632 170.601 235.952 168.361 235.952C167.113 235.952 166.057 236.512 165.529 237.584L165.417 236.176H164.057V247.504ZM165.577 240.096C165.577 238.464 166.505 237.328 168.041 237.328C169.577 237.328 170.489 238.48 170.489 240.096C170.489 241.696 169.577 242.848 168.041 242.848C166.505 242.848 165.577 241.696 165.577 240.096ZM177.027 244.192C178.963 244.192 180.275 243.248 180.659 241.568H179.251C178.995 242.464 178.227 242.944 177.059 242.944C175.571 242.944 174.707 242.032 174.595 240.384L180.642 240.368V239.808C180.642 237.488 179.187 235.952 176.963 235.952C174.691 235.952 173.139 237.648 173.139 240.096C173.139 242.528 174.723 244.192 177.027 244.192ZM176.963 237.216C178.291 237.216 179.139 238.08 179.139 239.376H174.627C174.819 238 175.651 237.216 176.963 237.216ZM186.802 236.112C186.498 236.048 186.274 236.016 186.002 236.016C184.93 236.016 184.146 236.56 183.826 237.376L183.73 236.192H182.322V244H183.826V239.856C183.826 238.352 184.706 237.488 186.13 237.488H186.802V236.112ZM188.949 234.32C189.493 234.32 189.941 233.872 189.941 233.328C189.941 232.768 189.493 232.336 188.949 232.336C188.405 232.336 187.957 232.768 187.957 233.328C187.957 233.872 188.405 234.32 188.949 234.32ZM188.213 244H189.717V236.176H188.213V244ZM195.277 244.192C197.213 244.192 198.525 243.248 198.909 241.568H197.501C197.245 242.464 196.477 242.944 195.309 242.944C193.821 242.944 192.957 242.032 192.845 240.384L198.892 240.368V239.808C198.892 237.488 197.437 235.952 195.213 235.952C192.941 235.952 191.389 237.648 191.389 240.096C191.389 242.528 192.973 244.192 195.277 244.192ZM195.213 237.216C196.541 237.216 197.389 238.08 197.389 239.376H192.877C193.069 238 193.901 237.216 195.213 237.216ZM202.076 244V239.856C202.076 238.336 202.892 237.328 204.3 237.328C205.452 237.328 206.188 237.968 206.188 239.552V244H207.692V239.216C207.692 237.216 206.748 235.952 204.684 235.952C203.58 235.952 202.588 236.48 202.092 237.376L201.932 236.176H200.572V244H202.076ZM209.264 240.096C209.264 242.56 210.784 244.192 213.088 244.192C214.976 244.192 216.432 243.056 216.736 241.36H215.232C214.96 242.288 214.16 242.848 213.088 242.848C211.664 242.848 210.752 241.76 210.752 240.08C210.752 238.384 211.728 237.296 213.152 237.296C214.16 237.296 214.96 237.824 215.216 238.816H216.72C216.448 237.072 215.072 235.952 213.104 235.952C210.816 235.952 209.264 237.648 209.264 240.096ZM221.698 244.192C223.634 244.192 224.946 243.248 225.33 241.568H223.922C223.666 242.464 222.898 242.944 221.73 242.944C220.242 242.944 219.378 242.032 219.266 240.384L225.314 240.368V239.808C225.314 237.488 223.858 235.952 221.634 235.952C219.362 235.952 217.81 237.648 217.81 240.096C217.81 242.528 219.394 244.192 221.698 244.192ZM221.634 237.216C222.962 237.216 223.81 238.08 223.81 239.376H219.298C219.49 238 220.322 237.216 221.634 237.216ZM233.049 244H234.537L235.897 239.824C236.185 238.88 236.329 238.368 236.409 237.984C236.489 238.416 236.649 239.024 236.905 239.808L238.265 244H239.689L242.361 236.176H240.793L239.481 240.24C239.257 240.928 239.113 241.472 238.985 242.096C238.857 241.536 238.601 240.624 238.473 240.24L237.177 236.176H235.641L234.329 240.24C234.153 240.752 233.945 241.408 233.817 242.096C233.673 241.408 233.513 240.816 233.337 240.24L232.041 236.176H230.489L233.049 244ZM244.387 234.32C244.931 234.32 245.379 233.872 245.379 233.328C245.379 232.768 244.931 232.336 244.387 232.336C243.843 232.336 243.395 232.768 243.395 233.328C243.395 233.872 243.843 234.32 244.387 234.32ZM243.651 244H245.155V236.176H243.651V244ZM249.546 244V237.44H251.082V236.176H249.546V233.728H248.042V236.176H246.506V237.44H248.042V244H249.546ZM253.936 243.984V239.728C253.936 238.384 254.72 237.328 256.176 237.328C257.296 237.328 258.048 237.968 258.048 239.552V244H259.552V239.216C259.552 237.216 258.592 235.952 256.592 235.952C255.376 235.952 254.432 236.528 253.936 237.376V232.224H252.432V243.984H253.936ZM270.762 239.872C273.018 239.872 274.49 238.304 274.49 236.144C274.49 233.92 273.034 232.432 270.762 232.432H266.266V244H267.834V239.872H270.762ZM270.49 233.84C271.962 233.84 272.842 234.672 272.842 236.128C272.842 237.552 271.978 238.464 270.426 238.464H267.834V233.84H270.49ZM277.834 244V239.424H280.794L282.954 244H284.698L282.346 239.12C283.786 238.656 284.586 237.504 284.586 235.904C284.586 233.744 283.114 232.432 280.634 232.432H276.266V244H277.834ZM277.834 233.84H280.634C282.074 233.84 282.938 234.576 282.938 235.92C282.938 237.248 282.106 238.032 280.65 238.032H277.834V233.84ZM297.12 238.208C297.12 234.688 294.832 232.224 291.552 232.224C288.288 232.224 286 234.704 286 238.208C286 241.728 288.272 244.192 291.536 244.192C294.816 244.192 297.12 241.728 297.12 238.208ZM295.472 238.208C295.472 240.88 293.904 242.688 291.552 242.688C289.2 242.688 287.648 240.896 287.648 238.208C287.648 235.52 289.2 233.744 291.552 233.744C293.904 233.744 295.472 235.52 295.472 238.208ZM43.1623 259.176V260.44H44.3143V267H45.8183V260.44H47.6743V259.176H45.8183V257.928C45.8183 257.08 46.0743 256.584 47.0503 256.584H47.7223V255.288C47.4183 255.24 47.0823 255.224 46.7943 255.224C45.3703 255.224 44.3143 256.008 44.3143 257.928V259.176H43.1623ZM52.214 267.192C54.15 267.192 55.462 266.248 55.846 264.568H54.438C54.182 265.464 53.414 265.944 52.246 265.944C50.758 265.944 49.894 265.032 49.782 263.384L55.83 263.368V262.808C55.83 260.488 54.374 258.952 52.15 258.952C49.878 258.952 48.326 260.648 48.326 263.096C48.326 265.528 49.91 267.192 52.214 267.192ZM52.15 260.216C53.478 260.216 54.326 261.08 54.326 262.376H49.814C50.006 261 50.838 260.216 52.15 260.216ZM59.7198 267.192C60.9838 267.192 62.0558 266.632 62.4558 265.736L62.6158 267H63.8958V262.088C63.8958 259.976 62.5838 258.952 60.6478 258.952C58.6318 258.952 57.2878 260.024 57.2878 261.656H58.5998C58.5998 260.712 59.3198 260.152 60.5838 260.152C61.6398 260.152 62.4238 260.616 62.4238 261.928V262.152L59.9598 262.344C58.1198 262.488 57.0478 263.384 57.0478 264.824C57.0478 266.248 58.0398 267.192 59.7198 267.192ZM60.1518 266.024C59.1758 266.024 58.5678 265.608 58.5678 264.776C58.5678 264.008 59.1118 263.496 60.4398 263.368L62.4398 263.208V263.624C62.4398 265.096 61.5758 266.024 60.1518 266.024ZM68.0616 267V260.44H69.5976V259.176H68.0616V256.728H66.5576V259.176H65.0216V260.44H66.5576V267H68.0616ZM76.3554 259.176V263.304C76.3554 264.984 75.6034 265.864 74.2274 265.864C73.0754 265.864 72.3554 265.224 72.3554 263.544V259.176H70.8514V264.04C70.8514 265.96 71.8754 267.192 73.6994 267.192C74.8514 267.192 75.8914 266.632 76.3394 265.816L76.4994 267H77.8434V259.176H76.3554ZM84.5055 259.112C84.2015 259.048 83.9775 259.016 83.7055 259.016C82.6335 259.016 81.8495 259.56 81.5295 260.376L81.4335 259.192H80.0255V267H81.5295V262.856C81.5295 261.352 82.4095 260.488 83.8335 260.488H84.5055V259.112ZM89.0109 267.192C90.9469 267.192 92.2589 266.248 92.6429 264.568H91.2349C90.9789 265.464 90.2109 265.944 89.0429 265.944C87.5549 265.944 86.6909 265.032 86.5789 263.384L92.6269 263.368V262.808C92.6269 260.488 91.1709 258.952 88.9469 258.952C86.6749 258.952 85.1229 260.648 85.1229 263.096C85.1229 265.528 86.7069 267.192 89.0109 267.192ZM88.9469 260.216C90.2749 260.216 91.1229 261.08 91.1229 262.376H86.6109C86.8029 261 87.6349 260.216 88.9469 260.216ZM93.6668 264.728C93.6668 266.216 94.8348 267.192 96.6748 267.192C98.5308 267.192 99.8108 266.248 99.8108 264.76C99.8108 263.592 99.1548 262.984 97.8268 262.664L96.4508 262.328C95.6828 262.136 95.2988 261.784 95.2988 261.256C95.2988 260.536 95.8268 260.12 96.7708 260.12C97.6828 260.12 98.2108 260.616 98.2428 261.4H99.6828C99.6508 259.912 98.5308 258.952 96.8188 258.952C95.0908 258.952 93.8748 259.864 93.8748 261.304C93.8748 262.456 94.5308 263.144 95.9228 263.48L97.2988 263.8C98.1148 264.008 98.3708 264.328 98.3708 264.856C98.3708 265.576 97.7628 266.008 96.7068 266.008C95.7148 266.008 95.1068 265.528 95.1068 264.728H93.6668ZM103.641 266.376C103.641 265.496 103.097 264.936 102.425 264.936C101.785 264.936 101.353 265.4 101.353 266.04C101.353 266.632 101.801 267.016 102.329 267.016C102.521 267.016 102.649 266.984 102.761 266.92C102.761 267.416 102.297 267.848 101.641 267.96V268.632C102.777 268.488 103.641 267.528 103.641 266.376ZM110.182 270.504H111.686V265.72C112.198 266.68 113.238 267.208 114.486 267.208C116.806 267.208 118.118 265.416 118.118 263.032C118.118 260.632 116.726 258.952 114.486 258.952C113.238 258.952 112.182 259.512 111.654 260.584L111.542 259.176H110.182V270.504ZM111.702 263.096C111.702 261.464 112.63 260.328 114.166 260.328C115.702 260.328 116.614 261.48 116.614 263.096C116.614 264.696 115.702 265.848 114.166 265.848C112.63 265.848 111.702 264.696 111.702 263.096ZM124.256 259.112C123.952 259.048 123.728 259.016 123.456 259.016C122.384 259.016 121.6 259.56 121.28 260.376L121.184 259.192H119.776V267H121.28V262.856C121.28 261.352 122.16 260.488 123.584 260.488H124.256V259.112ZM128.761 267.192C130.697 267.192 132.009 266.248 132.393 264.568H130.985C130.729 265.464 129.961 265.944 128.793 265.944C127.305 265.944 126.441 265.032 126.329 263.384L132.377 263.368V262.808C132.377 260.488 130.921 258.952 128.697 258.952C126.425 258.952 124.873 260.648 124.873 263.096C124.873 265.528 126.457 267.192 128.761 267.192ZM128.697 260.216C130.025 260.216 130.873 261.08 130.873 262.376H126.361C126.553 261 127.385 260.216 128.697 260.216ZM135.561 267V262.36C135.561 261.112 136.313 260.328 137.449 260.328C138.505 260.328 139.177 261 139.177 262.232V267H140.665V262.36C140.665 261.112 141.417 260.312 142.553 260.312C143.609 260.312 144.297 261.016 144.297 262.248V267H145.769V261.88C145.769 260.072 144.681 258.952 142.889 258.952C141.673 258.952 140.729 259.56 140.361 260.536C139.961 259.56 139.097 258.952 137.881 258.952C136.777 258.952 135.945 259.464 135.545 260.2L135.401 259.176H134.057V267H135.561ZM148.59 257.32C149.134 257.32 149.582 256.872 149.582 256.328C149.582 255.768 149.134 255.336 148.59 255.336C148.046 255.336 147.598 255.768 147.598 256.328C147.598 256.872 148.046 257.32 148.59 257.32ZM147.854 267H149.358V259.176H147.854V267ZM156.465 259.176V263.304C156.465 264.984 155.713 265.864 154.337 265.864C153.185 265.864 152.465 265.224 152.465 263.544V259.176H150.961V264.04C150.961 265.96 151.985 267.192 153.809 267.192C154.961 267.192 156.001 266.632 156.449 265.816L156.609 267H157.953V259.176H156.465ZM161.639 267V262.36C161.639 261.112 162.391 260.328 163.527 260.328C164.583 260.328 165.255 261 165.255 262.232V267H166.743V262.36C166.743 261.112 167.495 260.312 168.631 260.312C169.687 260.312 170.375 261.016 170.375 262.248V267H171.847V261.88C171.847 260.072 170.759 258.952 168.967 258.952C167.751 258.952 166.807 259.56 166.439 260.536C166.039 259.56 165.175 258.952 163.959 258.952C162.855 258.952 162.023 259.464 161.623 260.2L161.479 259.176H160.135V267H161.639ZM179.043 257.32C179.587 257.32 180.035 256.872 180.035 256.328C180.035 255.768 179.587 255.336 179.043 255.336C178.499 255.336 178.051 255.768 178.051 256.328C178.051 256.872 178.499 257.32 179.043 257.32ZM178.307 267H179.811V259.176H178.307V267ZM183.498 267V262.36C183.498 261.112 184.25 260.328 185.386 260.328C186.442 260.328 187.114 261 187.114 262.232V267H188.602V262.36C188.602 261.112 189.354 260.312 190.49 260.312C191.546 260.312 192.234 261.016 192.234 262.248V267H193.706V261.88C193.706 260.072 192.618 258.952 190.826 258.952C189.61 258.952 188.666 259.56 188.298 260.536C187.898 259.56 187.034 258.952 185.818 258.952C184.714 258.952 183.882 259.464 183.482 260.2L183.338 259.176H181.994V267H183.498ZM195.791 270.504H197.295V265.72C197.807 266.68 198.847 267.208 200.095 267.208C202.415 267.208 203.727 265.416 203.727 263.032C203.727 260.632 202.335 258.952 200.095 258.952C198.847 258.952 197.791 259.512 197.263 260.584L197.151 259.176H195.791V270.504ZM197.311 263.096C197.311 261.464 198.239 260.328 199.775 260.328C201.311 260.328 202.223 261.48 202.223 263.096C202.223 264.696 201.311 265.848 199.775 265.848C198.239 265.848 197.311 264.696 197.311 263.096ZM206.921 267V255.224H205.417V267H206.921ZM212.511 267.192C214.447 267.192 215.759 266.248 216.143 264.568H214.735C214.479 265.464 213.711 265.944 212.543 265.944C211.055 265.944 210.191 265.032 210.079 263.384L216.127 263.368V262.808C216.127 260.488 214.671 258.952 212.447 258.952C210.175 258.952 208.623 260.648 208.623 263.096C208.623 265.528 210.207 267.192 212.511 267.192ZM212.447 260.216C213.775 260.216 214.623 261.08 214.623 262.376H210.111C210.303 261 211.135 260.216 212.447 260.216ZM219.311 267V262.36C219.311 261.112 220.063 260.328 221.199 260.328C222.255 260.328 222.927 261 222.927 262.232V267H224.415V262.36C224.415 261.112 225.167 260.312 226.303 260.312C227.359 260.312 228.047 261.016 228.047 262.248V267H229.519V261.88C229.519 260.072 228.431 258.952 226.639 258.952C225.423 258.952 224.479 259.56 224.111 260.536C223.711 259.56 222.847 258.952 221.631 258.952C220.527 258.952 219.695 259.464 219.295 260.2L219.151 259.176H217.807V267H219.311ZM234.98 267.192C236.916 267.192 238.228 266.248 238.612 264.568H237.204C236.948 265.464 236.18 265.944 235.012 265.944C233.524 265.944 232.66 265.032 232.548 263.384L238.596 263.368V262.808C238.596 260.488 237.14 258.952 234.916 258.952C232.644 258.952 231.092 260.648 231.092 263.096C231.092 265.528 232.676 267.192 234.98 267.192ZM234.916 260.216C236.244 260.216 237.092 261.08 237.092 262.376H232.58C232.772 261 233.604 260.216 234.916 260.216ZM241.78 267V262.856C241.78 261.336 242.596 260.328 244.004 260.328C245.156 260.328 245.892 260.968 245.892 262.552V267H247.396V262.216C247.396 260.216 246.452 258.952 244.388 258.952C243.284 258.952 242.292 259.48 241.796 260.376L241.636 259.176H240.276V267H241.78ZM251.687 267V260.44H253.223V259.176H251.687V256.728H250.183V259.176H248.647V260.44H250.183V267H251.687ZM256.767 267.192C258.031 267.192 259.103 266.632 259.503 265.736L259.663 267H260.943V262.088C260.943 259.976 259.631 258.952 257.695 258.952C255.679 258.952 254.335 260.024 254.335 261.656H255.647C255.647 260.712 256.367 260.152 257.631 260.152C258.687 260.152 259.471 260.616 259.471 261.928V262.152L257.007 262.344C255.167 262.488 254.095 263.384 254.095 264.824C254.095 266.248 255.087 267.192 256.767 267.192ZM257.199 266.024C256.223 266.024 255.615 265.608 255.615 264.776C255.615 264.008 256.159 263.496 257.487 263.368L259.487 263.208V263.624C259.487 265.096 258.623 266.024 257.199 266.024ZM265.109 267V260.44H266.645V259.176H265.109V256.728H263.605V259.176H262.069V260.44H263.605V267H265.109ZM268.73 257.32C269.274 257.32 269.722 256.872 269.722 256.328C269.722 255.768 269.274 255.336 268.73 255.336C268.186 255.336 267.738 255.768 267.738 256.328C267.738 256.872 268.186 257.32 268.73 257.32ZM267.994 267H269.498V259.176H267.994V267ZM271.17 263.08C271.17 265.496 272.898 267.192 275.25 267.192C277.586 267.192 279.314 265.496 279.314 263.08C279.314 260.664 277.586 258.968 275.25 258.968C272.898 258.968 271.17 260.664 271.17 263.08ZM272.69 263.08C272.69 261.448 273.73 260.312 275.25 260.312C276.754 260.312 277.81 261.448 277.81 263.08C277.81 264.712 276.754 265.848 275.25 265.848C273.73 265.848 272.69 264.712 272.69 263.08ZM282.483 267V262.856C282.483 261.336 283.299 260.328 284.707 260.328C285.859 260.328 286.595 260.968 286.595 262.552V267H288.099V262.216C288.099 260.216 287.155 258.952 285.091 258.952C283.987 258.952 282.995 259.48 282.499 260.376L282.339 259.176H280.979V267H282.483ZM42.1824 287.728C42.1824 289.216 43.3504 290.192 45.1904 290.192C47.0464 290.192 48.3264 289.248 48.3264 287.76C48.3264 286.592 47.6704 285.984 46.3424 285.664L44.9664 285.328C44.1984 285.136 43.8144 284.784 43.8144 284.256C43.8144 283.536 44.3424 283.12 45.2864 283.12C46.1984 283.12 46.7264 283.616 46.7584 284.4H48.1984C48.1664 282.912 47.0464 281.952 45.3344 281.952C43.6064 281.952 42.3904 282.864 42.3904 284.304C42.3904 285.456 43.0464 286.144 44.4384 286.48L45.8144 286.8C46.6304 287.008 46.8864 287.328 46.8864 287.856C46.8864 288.576 46.2784 289.008 45.2224 289.008C44.2304 289.008 43.6224 288.528 43.6224 287.728H42.1824ZM55.4023 282.176V286.304C55.4023 287.984 54.6503 288.864 53.2743 288.864C52.1223 288.864 51.4023 288.224 51.4023 286.544V282.176H49.8983V287.04C49.8983 288.96 50.9223 290.192 52.7463 290.192C53.8983 290.192 54.9383 289.632 55.3863 288.816L55.5463 290H56.8903V282.176H55.4023ZM59.0724 293.504H60.5764V288.72C61.0884 289.68 62.1284 290.208 63.3764 290.208C65.6964 290.208 67.0084 288.416 67.0084 286.032C67.0084 283.632 65.6164 281.952 63.3764 281.952C62.1284 281.952 61.0724 282.512 60.5444 283.584L60.4324 282.176H59.0724V293.504ZM60.5924 286.096C60.5924 284.464 61.5204 283.328 63.0564 283.328C64.5924 283.328 65.5044 284.48 65.5044 286.096C65.5044 287.696 64.5924 288.848 63.0564 288.848C61.5204 288.848 60.5924 287.696 60.5924 286.096ZM68.6661 293.504H70.1701V288.72C70.6821 289.68 71.7221 290.208 72.9701 290.208C75.2901 290.208 76.6021 288.416 76.6021 286.032C76.6021 283.632 75.2101 281.952 72.9701 281.952C71.7221 281.952 70.6661 282.512 70.1381 283.584L70.0261 282.176H68.6661V293.504ZM70.1861 286.096C70.1861 284.464 71.1141 283.328 72.6501 283.328C74.1861 283.328 75.0981 284.48 75.0981 286.096C75.0981 287.696 74.1861 288.848 72.6501 288.848C71.1141 288.848 70.1861 287.696 70.1861 286.096ZM77.7479 286.08C77.7479 288.496 79.4759 290.192 81.8279 290.192C84.1639 290.192 85.8919 288.496 85.8919 286.08C85.8919 283.664 84.1639 281.968 81.8279 281.968C79.4759 281.968 77.7479 283.664 77.7479 286.08ZM79.2679 286.08C79.2679 284.448 80.3079 283.312 81.8279 283.312C83.3319 283.312 84.3879 284.448 84.3879 286.08C84.3879 287.712 83.3319 288.848 81.8279 288.848C80.3079 288.848 79.2679 287.712 79.2679 286.08ZM92.0368 282.112C91.7328 282.048 91.5088 282.016 91.2368 282.016C90.1648 282.016 89.3808 282.56 89.0608 283.376L88.9648 282.192H87.5568V290H89.0608V285.856C89.0608 284.352 89.9408 283.488 91.3648 283.488H92.0368V282.112ZM95.9679 290V283.44H97.5039V282.176H95.9679V279.728H94.4639V282.176H92.9279V283.44H94.4639V290H95.9679ZM105.517 290.192C106.781 290.192 107.853 289.632 108.253 288.736L108.413 290H109.693V285.088C109.693 282.976 108.381 281.952 106.445 281.952C104.429 281.952 103.085 283.024 103.085 284.656H104.397C104.397 283.712 105.117 283.152 106.381 283.152C107.437 283.152 108.221 283.616 108.221 284.928V285.152L105.757 285.344C103.917 285.488 102.845 286.384 102.845 287.824C102.845 289.248 103.837 290.192 105.517 290.192ZM105.949 289.024C104.973 289.024 104.365 288.608 104.365 287.776C104.365 287.008 104.909 286.496 106.237 286.368L108.237 286.208V286.624C108.237 288.096 107.373 289.024 105.949 289.024ZM113.28 290V285.856C113.28 284.336 114.096 283.328 115.504 283.328C116.656 283.328 117.392 283.968 117.392 285.552V290H118.896V285.216C118.896 283.216 117.952 281.952 115.888 281.952C114.784 281.952 113.792 282.48 113.296 283.376L113.136 282.176H111.776V290H113.28ZM124.115 290.192C125.363 290.192 126.419 289.648 126.931 288.576L127.059 290H128.403V278.224H126.915V283.44C126.387 282.48 125.379 281.952 124.179 281.952C121.859 281.952 120.467 283.712 120.467 286.112C120.467 288.496 121.843 290.192 124.115 290.192ZM124.419 288.832C122.883 288.832 121.987 287.68 121.987 286.064C121.987 284.464 122.883 283.312 124.419 283.312C125.955 283.312 126.899 284.464 126.899 286.064C126.899 287.696 125.955 288.832 124.419 288.832ZM137.235 290.192C138.499 290.192 139.571 289.632 139.971 288.736L140.131 290H141.411V285.088C141.411 282.976 140.099 281.952 138.163 281.952C136.147 281.952 134.803 283.024 134.803 284.656H136.115C136.115 283.712 136.835 283.152 138.099 283.152C139.155 283.152 139.939 283.616 139.939 284.928V285.152L137.475 285.344C135.635 285.488 134.563 286.384 134.563 287.824C134.563 289.248 135.555 290.192 137.235 290.192ZM137.667 289.024C136.691 289.024 136.083 288.608 136.083 287.776C136.083 287.008 136.627 286.496 137.955 286.368L139.955 286.208V286.624C139.955 288.096 139.091 289.024 137.667 289.024ZM151.005 290.192C152.253 290.192 153.309 289.648 153.821 288.576L153.949 290H155.293V278.224H153.805V283.44C153.277 282.48 152.269 281.952 151.069 281.952C148.749 281.952 147.357 283.712 147.357 286.112C147.357 288.496 148.733 290.192 151.005 290.192ZM151.309 288.832C149.773 288.832 148.877 287.68 148.877 286.064C148.877 284.464 149.773 283.312 151.309 283.312C152.845 283.312 153.789 284.464 153.789 286.064C153.789 287.696 152.845 288.832 151.309 288.832ZM160.839 290.192C162.775 290.192 164.087 289.248 164.471 287.568H163.063C162.807 288.464 162.039 288.944 160.871 288.944C159.383 288.944 158.519 288.032 158.407 286.384L164.455 286.368V285.808C164.455 283.488 162.999 281.952 160.775 281.952C158.503 281.952 156.951 283.648 156.951 286.096C156.951 288.528 158.535 290.192 160.839 290.192ZM160.775 283.216C162.103 283.216 162.951 284.08 162.951 285.376H158.439C158.631 284 159.463 283.216 160.775 283.216ZM169.271 290.192C170.519 290.192 171.575 289.648 172.087 288.576L172.215 290H173.559V278.224H172.071V283.44C171.543 282.48 170.535 281.952 169.335 281.952C167.015 281.952 165.623 283.712 165.623 286.112C165.623 288.496 166.999 290.192 169.271 290.192ZM169.575 288.832C168.039 288.832 167.143 287.68 167.143 286.064C167.143 284.464 168.039 283.312 169.575 283.312C171.111 283.312 172.055 284.464 172.055 286.064C172.055 287.696 171.111 288.832 169.575 288.832ZM176.465 280.32C177.009 280.32 177.457 279.872 177.457 279.328C177.457 278.768 177.009 278.336 176.465 278.336C175.921 278.336 175.473 278.768 175.473 279.328C175.473 279.872 175.921 280.32 176.465 280.32ZM175.729 290H177.233V282.176H175.729V290ZM178.904 286.096C178.904 288.56 180.424 290.192 182.728 290.192C184.616 290.192 186.072 289.056 186.376 287.36H184.872C184.6 288.288 183.8 288.848 182.728 288.848C181.304 288.848 180.392 287.76 180.392 286.08C180.392 284.384 181.368 283.296 182.792 283.296C183.8 283.296 184.6 283.824 184.856 284.816H186.36C186.088 283.072 184.712 281.952 182.744 281.952C180.456 281.952 178.904 283.648 178.904 286.096ZM190.251 290.192C191.515 290.192 192.587 289.632 192.987 288.736L193.147 290H194.427V285.088C194.427 282.976 193.115 281.952 191.179 281.952C189.163 281.952 187.819 283.024 187.819 284.656H189.131C189.131 283.712 189.851 283.152 191.115 283.152C192.171 283.152 192.955 283.616 192.955 284.928V285.152L190.491 285.344C188.651 285.488 187.579 286.384 187.579 287.824C187.579 289.248 188.571 290.192 190.251 290.192ZM190.683 289.024C189.707 289.024 189.099 288.608 189.099 287.776C189.099 287.008 189.643 286.496 190.971 286.368L192.971 286.208V286.624C192.971 288.096 192.107 289.024 190.683 289.024ZM198.593 290V283.44H200.129V282.176H198.593V279.728H197.089V282.176H195.553V283.44H197.089V290H198.593ZM204.777 290.192C206.713 290.192 208.025 289.248 208.409 287.568H207.001C206.745 288.464 205.977 288.944 204.809 288.944C203.321 288.944 202.457 288.032 202.345 286.384L208.392 286.368V285.808C208.392 283.488 206.937 281.952 204.713 281.952C202.441 281.952 200.889 283.648 200.889 286.096C200.889 288.528 202.473 290.192 204.777 290.192ZM204.713 283.216C206.041 283.216 206.889 284.08 206.889 285.376H202.377C202.569 284 203.401 283.216 204.713 283.216ZM213.208 290.192C214.456 290.192 215.512 289.648 216.024 288.576L216.152 290H217.496V278.224H216.008V283.44C215.48 282.48 214.472 281.952 213.272 281.952C210.952 281.952 209.56 283.712 209.56 286.112C209.56 288.496 210.936 290.192 213.208 290.192ZM213.512 288.832C211.976 288.832 211.08 287.68 211.08 286.064C211.08 284.464 211.976 283.312 213.512 283.312C215.048 283.312 215.992 284.464 215.992 286.064C215.992 287.696 215.048 288.832 213.512 288.832ZM223.529 286.096C223.529 288.56 225.049 290.192 227.353 290.192C229.241 290.192 230.697 289.056 231.001 287.36H229.497C229.225 288.288 228.425 288.848 227.353 288.848C225.929 288.848 225.017 287.76 225.017 286.08C225.017 284.384 225.993 283.296 227.417 283.296C228.425 283.296 229.225 283.824 229.481 284.816H230.985C230.713 283.072 229.337 281.952 227.369 281.952C225.081 281.952 223.529 283.648 223.529 286.096ZM237.996 282.176V286.304C237.996 287.984 237.244 288.864 235.868 288.864C234.716 288.864 233.996 288.224 233.996 286.544V282.176H232.492V287.04C232.492 288.96 233.516 290.192 235.34 290.192C236.492 290.192 237.532 289.632 237.98 288.816L238.14 290H239.484V282.176H237.996ZM240.87 287.728C240.87 289.216 242.038 290.192 243.878 290.192C245.734 290.192 247.014 289.248 247.014 287.76C247.014 286.592 246.358 285.984 245.03 285.664L243.654 285.328C242.886 285.136 242.502 284.784 242.502 284.256C242.502 283.536 243.03 283.12 243.974 283.12C244.886 283.12 245.414 283.616 245.446 284.4H246.886C246.854 282.912 245.734 281.952 244.022 281.952C242.294 281.952 241.078 282.864 241.078 284.304C241.078 285.456 241.734 286.144 243.126 286.48L244.502 286.8C245.318 287.008 245.574 287.328 245.574 287.856C245.574 288.576 244.966 289.008 243.91 289.008C242.918 289.008 242.31 288.528 242.31 287.728H240.87ZM250.89 290V283.44H252.426V282.176H250.89V279.728H249.386V282.176H247.85V283.44H249.386V290H250.89ZM253.185 286.08C253.185 288.496 254.913 290.192 257.265 290.192C259.601 290.192 261.329 288.496 261.329 286.08C261.329 283.664 259.601 281.968 257.265 281.968C254.913 281.968 253.185 283.664 253.185 286.08ZM254.705 286.08C254.705 284.448 255.745 283.312 257.265 283.312C258.769 283.312 259.825 284.448 259.825 286.08C259.825 287.712 258.769 288.848 257.265 288.848C255.745 288.848 254.705 287.712 254.705 286.08ZM264.498 290V285.36C264.498 284.112 265.25 283.328 266.386 283.328C267.442 283.328 268.114 284 268.114 285.232V290H269.602V285.36C269.602 284.112 270.354 283.312 271.49 283.312C272.546 283.312 273.234 284.016 273.234 285.248V290H274.706V284.88C274.706 283.072 273.618 281.952 271.826 281.952C270.61 281.952 269.666 282.56 269.298 283.536C268.898 282.56 268.034 281.952 266.818 281.952C265.714 281.952 264.882 282.464 264.482 283.2L264.338 282.176H262.994V290H264.498ZM280.167 290.192C282.103 290.192 283.415 289.248 283.799 287.568H282.391C282.135 288.464 281.367 288.944 280.199 288.944C278.711 288.944 277.847 288.032 277.735 286.384L283.783 286.368V285.808C283.783 283.488 282.327 281.952 280.103 281.952C277.831 281.952 276.279 283.648 276.279 286.096C276.279 288.528 277.863 290.192 280.167 290.192ZM280.103 283.216C281.431 283.216 282.279 284.08 282.279 285.376H277.767C277.959 284 278.791 283.216 280.103 283.216ZM289.943 282.112C289.639 282.048 289.415 282.016 289.143 282.016C288.071 282.016 287.287 282.56 286.967 283.376L286.871 282.192H285.463V290H286.967V285.856C286.967 284.352 287.847 283.488 289.271 283.488H289.943V282.112ZM104.05 310.728C104.05 312.216 105.218 313.192 107.058 313.192C108.914 313.192 110.194 312.248 110.194 310.76C110.194 309.592 109.538 308.984 108.21 308.664L106.834 308.328C106.066 308.136 105.682 307.784 105.682 307.256C105.682 306.536 106.21 306.12 107.154 306.12C108.066 306.12 108.594 306.616 108.626 307.4H110.066C110.034 305.912 108.914 304.952 107.202 304.952C105.474 304.952 104.258 305.864 104.258 307.304C104.258 308.456 104.914 309.144 106.306 309.48L107.682 309.8C108.498 310.008 108.754 310.328 108.754 310.856C108.754 311.576 108.146 312.008 107.09 312.008C106.098 312.008 105.49 311.528 105.49 310.728H104.05ZM117.269 305.176V309.304C117.269 310.984 116.517 311.864 115.141 311.864C113.989 311.864 113.269 311.224 113.269 309.544V305.176H111.765V310.04C111.765 311.96 112.789 313.192 114.613 313.192C115.765 313.192 116.805 312.632 117.253 311.816L117.413 313H118.757V305.176H117.269ZM120.271 309.096C120.271 311.56 121.791 313.192 124.095 313.192C125.983 313.192 127.439 312.056 127.743 310.36H126.239C125.967 311.288 125.167 311.848 124.095 311.848C122.671 311.848 121.759 310.76 121.759 309.08C121.759 307.384 122.735 306.296 124.159 306.296C125.167 306.296 125.967 306.824 126.223 307.816H127.727C127.455 306.072 126.079 304.952 124.111 304.952C121.823 304.952 120.271 306.648 120.271 309.096ZM128.818 309.096C128.818 311.56 130.338 313.192 132.642 313.192C134.53 313.192 135.986 312.056 136.29 310.36H134.786C134.514 311.288 133.714 311.848 132.642 311.848C131.218 311.848 130.306 310.76 130.306 309.08C130.306 307.384 131.282 306.296 132.706 306.296C133.714 306.296 134.514 306.824 134.77 307.816H136.274C136.002 306.072 134.626 304.952 132.658 304.952C130.37 304.952 128.818 306.648 128.818 309.096ZM141.253 313.192C143.189 313.192 144.501 312.248 144.885 310.568H143.477C143.221 311.464 142.453 311.944 141.285 311.944C139.797 311.944 138.933 311.032 138.821 309.384L144.869 309.368V308.808C144.869 306.488 143.413 304.952 141.189 304.952C138.917 304.952 137.365 306.648 137.365 309.096C137.365 311.528 138.949 313.192 141.253 313.192ZM141.189 306.216C142.517 306.216 143.365 307.08 143.365 308.376H138.853C139.045 307 139.877 306.216 141.189 306.216ZM145.909 310.728C145.909 312.216 147.077 313.192 148.917 313.192C150.773 313.192 152.053 312.248 152.053 310.76C152.053 309.592 151.397 308.984 150.069 308.664L148.693 308.328C147.925 308.136 147.541 307.784 147.541 307.256C147.541 306.536 148.069 306.12 149.013 306.12C149.925 306.12 150.453 306.616 150.485 307.4H151.925C151.893 305.912 150.773 304.952 149.061 304.952C147.333 304.952 146.117 305.864 146.117 307.304C146.117 308.456 146.773 309.144 148.165 309.48L149.541 309.8C150.357 310.008 150.613 310.328 150.613 310.856C150.613 311.576 150.005 312.008 148.949 312.008C147.957 312.008 147.349 311.528 147.349 310.728H145.909ZM153.081 310.728C153.081 312.216 154.249 313.192 156.089 313.192C157.945 313.192 159.225 312.248 159.225 310.76C159.225 309.592 158.569 308.984 157.241 308.664L155.865 308.328C155.097 308.136 154.713 307.784 154.713 307.256C154.713 306.536 155.241 306.12 156.185 306.12C157.097 306.12 157.625 306.616 157.657 307.4H159.097C159.065 305.912 157.945 304.952 156.233 304.952C154.505 304.952 153.289 305.864 153.289 307.304C153.289 308.456 153.945 309.144 155.337 309.48L156.713 309.8C157.529 310.008 157.785 310.328 157.785 310.856C157.785 311.576 157.177 312.008 156.121 312.008C155.129 312.008 154.521 311.528 154.521 310.728H153.081ZM166.772 313V308.36C166.772 307.112 167.524 306.328 168.66 306.328C169.716 306.328 170.388 307 170.388 308.232V313H171.876V308.36C171.876 307.112 172.628 306.312 173.764 306.312C174.82 306.312 175.508 307.016 175.508 308.248V313H176.98V307.88C176.98 306.072 175.892 304.952 174.1 304.952C172.884 304.952 171.94 305.56 171.572 306.536C171.172 305.56 170.308 304.952 169.092 304.952C167.988 304.952 167.156 305.464 166.756 306.2L166.612 305.176H165.268V313H166.772ZM181.353 313.192C182.617 313.192 183.689 312.632 184.089 311.736L184.249 313H185.529V308.088C185.529 305.976 184.217 304.952 182.281 304.952C180.265 304.952 178.921 306.024 178.921 307.656H180.233C180.233 306.712 180.953 306.152 182.217 306.152C183.273 306.152 184.057 306.616 184.057 307.928V308.152L181.593 308.344C179.753 308.488 178.681 309.384 178.681 310.824C178.681 312.248 179.673 313.192 181.353 313.192ZM181.785 312.024C180.809 312.024 180.201 311.608 180.201 310.776C180.201 310.008 180.745 309.496 182.073 309.368L184.073 309.208V309.624C184.073 311.096 183.209 312.024 181.785 312.024ZM189.115 313V308.856C189.115 307.336 189.931 306.328 191.339 306.328C192.491 306.328 193.227 306.968 193.227 308.552V313H194.731V308.216C194.731 306.216 193.787 304.952 191.723 304.952C190.619 304.952 189.627 305.48 189.131 306.376L188.971 305.176H187.611V313H189.115ZM199.103 313.192C200.367 313.192 201.439 312.632 201.839 311.736L201.999 313H203.279V308.088C203.279 305.976 201.967 304.952 200.031 304.952C198.015 304.952 196.671 306.024 196.671 307.656H197.983C197.983 306.712 198.703 306.152 199.967 306.152C201.023 306.152 201.807 306.616 201.807 307.928V308.152L199.343 308.344C197.503 308.488 196.431 309.384 196.431 310.824C196.431 312.248 197.423 313.192 199.103 313.192ZM199.535 312.024C198.559 312.024 197.951 311.608 197.951 310.776C197.951 310.008 198.495 309.496 199.823 309.368L201.823 309.208V309.624C201.823 311.096 200.959 312.024 199.535 312.024ZM204.865 308.888C204.865 311.08 206.273 312.792 208.497 312.792C209.729 312.792 210.753 312.248 211.265 311.336V312.904C211.265 314.392 210.305 315.352 208.833 315.352C207.521 315.352 206.657 314.68 206.465 313.528H204.961C205.249 315.512 206.705 316.712 208.833 316.712C211.233 316.712 212.753 315.144 212.753 312.68V305.176H211.409L211.297 306.504C210.801 305.528 209.825 304.952 208.561 304.952C206.289 304.952 204.865 306.68 204.865 308.888ZM206.369 308.856C206.369 307.416 207.265 306.264 208.769 306.264C210.305 306.264 211.201 307.352 211.201 308.856C211.201 310.392 210.273 311.48 208.753 311.48C207.281 311.48 206.369 310.328 206.369 308.856ZM218.3 313.192C220.236 313.192 221.548 312.248 221.932 310.568H220.524C220.268 311.464 219.5 311.944 218.332 311.944C216.844 311.944 215.98 311.032 215.868 309.384L221.916 309.368V308.808C221.916 306.488 220.46 304.952 218.236 304.952C215.964 304.952 214.412 306.648 214.412 309.096C214.412 311.528 215.996 313.192 218.3 313.192ZM218.236 306.216C219.564 306.216 220.412 307.08 220.412 308.376H215.9C216.092 307 216.924 306.216 218.236 306.216ZM228.076 305.112C227.772 305.048 227.548 305.016 227.276 305.016C226.204 305.016 225.42 305.56 225.1 306.376L225.004 305.192H223.596V313H225.1V308.856C225.1 307.352 225.98 306.488 227.404 306.488H228.076V305.112Z" fill="#5D728C"/>
<path id="Pro" d="M152.074 63.936C156.746 63.936 159.818 60.768 159.818 56.256C159.818 51.68 156.778 48.608 152.074 48.608H142.826V72H146.922V63.936H152.074ZM151.274 52.256C153.994 52.256 155.53 53.664 155.53 56.224C155.53 58.784 154.026 60.288 151.21 60.288H146.922V52.256H151.274ZM172.608 56.128C171.968 55.968 171.424 55.904 170.88 55.904C168.768 55.904 167.264 56.96 166.592 58.528L166.368 56.224H162.688V72H166.592V64.32C166.592 61.248 168.352 59.744 171.168 59.744H172.608V56.128ZM173.791 64.064C173.791 68.992 177.343 72.384 182.239 72.384C187.135 72.384 190.687 68.992 190.687 64.064C190.687 59.136 187.135 55.744 182.239 55.744C177.343 55.744 173.791 59.136 173.791 64.064ZM177.695 64.064C177.695 61.184 179.551 59.232 182.239 59.232C184.927 59.232 186.783 61.184 186.783 64.064C186.783 66.944 184.927 68.896 182.239 68.896C179.551 68.896 177.695 66.944 177.695 64.064Z" fill="#043344"/>
<g id="Group 988">
<path id="Let&#226;&#128;&#153;s Chat" d="M81.516 107.44H74.388V140H94.364V133.4H81.516V107.44ZM105.14 140.572C111.168 140.572 115.524 137.448 116.316 132.564H110.112C109.628 134.148 107.824 135.072 105.272 135.072C102.28 135.072 100.652 133.708 100.256 130.804L116.228 130.716V129C116.228 121.828 111.916 117.296 105.008 117.296C98.3635 117.296 93.7435 122.092 93.7435 128.956C93.7435 135.732 98.4955 140.572 105.14 140.572ZM105.052 122.796C107.78 122.796 109.496 124.292 109.496 126.624H100.344C100.872 123.984 102.368 122.796 105.052 122.796ZM126.273 140V123.632H130.453V118H126.273V111.18H119.497V118H115.317V123.632H119.497V140H126.273ZM138.823 111.664C138.823 108.76 137.239 106.824 134.819 106.824C132.619 106.824 131.123 108.364 131.123 110.564C131.123 112.72 132.531 114.04 134.379 114.04C134.863 114.04 135.303 113.952 135.655 113.776C135.655 115.58 134.203 116.768 132.047 117.164V119.584C136.095 119.144 138.823 115.976 138.823 111.664ZM137.334 133.048C137.334 137.492 140.986 140.572 146.794 140.572C152.514 140.572 156.518 137.712 156.518 133.004C156.518 129.484 154.538 127.812 150.93 127.02L146.838 126.14C145.298 125.788 144.462 125.216 144.462 124.204C144.462 123.016 145.43 122.224 146.97 122.224C148.598 122.224 149.522 123.236 149.522 124.732H155.946C155.946 120.288 152.382 117.296 147.278 117.296C141.998 117.296 138.082 119.936 138.082 124.512C138.082 128.384 140.062 130.144 144.11 131.024L148.158 131.904C149.786 132.256 150.138 132.96 150.138 133.62C150.138 134.764 149.17 135.512 147.058 135.512C144.99 135.512 143.846 134.588 143.758 133.048H137.334ZM181.339 140.528C189.479 140.528 195.551 135.732 196.695 128.472H189.303C188.423 131.684 185.475 133.664 181.471 133.664C176.235 133.664 172.979 129.836 172.979 123.72C172.979 117.516 176.191 113.776 181.471 113.776C185.387 113.776 188.159 115.624 189.127 118.88H196.651C195.639 111.576 189.787 106.912 181.647 106.912C171.923 106.912 165.455 113.6 165.455 123.764C165.455 134.06 171.571 140.528 181.339 140.528ZM204.547 140V127.944C204.547 125.216 206.263 123.456 208.947 123.456C211.279 123.456 212.819 125.26 212.819 128.032V140H219.595V126.404C219.595 120.64 216.559 117.296 211.323 117.296C208.463 117.296 205.955 118.396 204.591 120.288V106.824H197.771V140H204.547ZM228.459 140.572C231.759 140.572 234.663 139.12 235.367 137.096L235.807 140H241.791V127.152C241.791 120.86 238.183 117.296 231.803 117.296C225.511 117.296 221.419 120.552 221.419 125.524H227.051C227.051 123.544 228.591 122.444 231.451 122.444C233.871 122.444 235.191 123.588 235.191 125.744V126.096L229.031 126.58C223.751 126.976 220.891 129.484 220.891 133.532C220.891 137.844 223.795 140.572 228.459 140.572ZM230.835 135.556C228.767 135.556 227.799 134.808 227.799 133.224C227.799 131.816 228.855 131.156 231.803 130.892L235.235 130.584V131.772C235.235 134.28 233.431 135.556 230.835 135.556ZM252.684 140V123.632H256.864V118H252.684V111.18H245.908V118H241.728V123.632H245.908V140H252.684Z" fill="#EC9A2B"/>
</g>
</g>
<defs>
<filter id="filter0_ddd_1305_13666" x="-54" y="-45" width="440" height="707" filterUnits="userSpaceOnUse" color-interpolation-filters="sRGB">
<feFlood flood-opacity="0" result="BackgroundImageFix"/>
<feColorMatrix in="SourceAlpha" type="matrix" values="0 0 0 0 0 0 0 0 0 0 0 0 0 0 0 0 0 0 127 0" result="hardAlpha"/>
<feMorphology radius="7" operator="erode" in="SourceAlpha" result="effect1_dropShadow_1305_13666"/>
<feOffset dy="11"/>
<feGaussianBlur stdDeviation="7.5"/>
<feColorMatrix type="matrix" values="0 0 0 0 0.364706 0 0 0 0 0.447059 0 0 0 0 0.54902 0 0 0 0.16 0"/>
<feBlend mode="normal" in2="BackgroundImageFix" result="effect1_dropShadow_1305_13666"/>
<feColorMatrix in="SourceAlpha" type="matrix" values="0 0 0 0 0 0 0 0 0 0 0 0 0 0 0 0 0 0 127 0" result="hardAlpha"/>
<feMorphology radius="8" operator="dilate" in="SourceAlpha" result="effect2_dropShadow_1305_13666"/>
<feOffset dy="9"/>
<feGaussianBlur stdDeviation="23"/>
<feColorMatrix type="matrix" values="0 0 0 0 0.364706 0 0 0 0 0.447059 0 0 0 0 0.54902 0 0 0 0.08 0"/>
<feBlend mode="normal" in2="effect1_dropShadow_1305_13666" result="effect2_dropShadow_1305_13666"/>
<feColorMatrix in="SourceAlpha" type="matrix" values="0 0 0 0 0 0 0 0 0 0 0 0 0 0 0 0 0 0 127 0" result="hardAlpha"/>
<feMorphology radius="3" operator="dilate" in="SourceAlpha" result="effect3_dropShadow_1305_13666"/>
<feOffset dy="24"/>
<feGaussianBlur stdDeviation="19"/>
<feColorMatrix type="matrix" values="0 0 0 0 0.364706 0 0 0 0 0.447059 0 0 0 0 0.54902 0 0 0 0.1 0"/>
<feBlend mode="normal" in2="effect2_dropShadow_1305_13666" result="effect3_dropShadow_1305_13666"/>
<feBlend mode="normal" in="SourceGraphic" in2="effect3_dropShadow_1305_13666" result="shape"/>
</filter>
</defs>
</svg>
