<svg width="418" height="707" viewBox="0 0 418 707" fill="none" xmlns="http://www.w3.org/2000/svg">
<g filter="url(#filter0_d_1183_17378)">
<g filter="url(#filter1_ddd_1183_17378)">
<rect x="54" y="45" width="332" height="597" rx="26" fill="#EC9A2B"/>
</g>
<rect x="68" y="58" width="304" height="571" rx="14" fill="white"/>
<path d="M153.773 421V412.712H157.773L161.325 421H166.989L162.829 411.592C165.453 410.248 166.765 408.072 166.765 405C166.765 400.104 163.501 397.32 157.741 397.32H148.589V421H153.773ZM153.773 401.928H157.741C160.045 401.928 161.293 403.016 161.293 405C161.293 407.016 159.981 408.168 157.709 408.168H153.773V401.928ZM176.311 421.416C180.695 421.416 183.863 419.144 184.439 415.592H179.927C179.575 416.744 178.263 417.416 176.407 417.416C174.231 417.416 173.047 416.424 172.759 414.312L184.375 414.248V413C184.375 407.784 181.239 404.488 176.215 404.488C171.383 404.488 168.023 407.976 168.023 412.968C168.023 417.896 171.479 421.416 176.311 421.416ZM176.247 408.488C178.231 408.488 179.479 409.576 179.479 411.272H172.823C173.207 409.352 174.295 408.488 176.247 408.488ZM186.43 412.744C186.43 417.8 189.182 421.448 193.95 421.448C196.158 421.448 198.206 420.616 199.134 419.4V428.68H204.062V405H199.422L199.166 406.952C198.27 405.48 196.254 404.488 193.982 404.488C189.534 404.488 186.43 407.592 186.43 412.744ZM191.39 413C191.39 410.632 192.862 409 195.198 409C197.502 409 199.102 410.6 199.102 413C199.102 415.4 197.502 417 195.198 417C192.862 417 191.39 415.368 191.39 413ZM218.386 405V413.32C218.386 415.944 217.522 417.032 215.41 417.032C213.394 417.032 212.498 415.88 212.498 413.256V405H207.57V415.048C207.57 418.984 209.81 421.416 213.458 421.416C215.378 421.416 217.362 420.52 218.354 419.208L218.674 421H223.314V405H218.386ZM234.124 421.416C238.508 421.416 241.676 419.144 242.252 415.592H237.74C237.388 416.744 236.076 417.416 234.22 417.416C232.044 417.416 230.86 416.424 230.572 414.312L242.188 414.248V413C242.188 407.784 239.052 404.488 234.028 404.488C229.196 404.488 225.836 407.976 225.836 412.968C225.836 417.896 229.292 421.416 234.124 421.416ZM234.06 408.488C236.044 408.488 237.292 409.576 237.292 411.272H230.636C231.02 409.352 232.108 408.488 234.06 408.488ZM243.954 415.944C243.954 419.176 246.61 421.416 250.834 421.416C254.994 421.416 257.906 419.336 257.906 415.912C257.906 413.352 256.466 412.136 253.842 411.56L250.866 410.92C249.746 410.664 249.138 410.248 249.138 409.512C249.138 408.648 249.842 408.072 250.962 408.072C252.146 408.072 252.818 408.808 252.818 409.896H257.49C257.49 406.664 254.898 404.488 251.186 404.488C247.346 404.488 244.498 406.408 244.498 409.736C244.498 412.552 245.938 413.832 248.882 414.472L251.826 415.112C253.01 415.368 253.266 415.88 253.266 416.36C253.266 417.192 252.562 417.736 251.026 417.736C249.522 417.736 248.69 417.064 248.626 415.944H243.954ZM266.945 421V409.096H269.985V405H266.945V400.04H262.017V405H258.977V409.096H262.017V421H266.945ZM285.501 421.416C287.901 421.416 290.013 420.36 290.525 418.888L290.845 421H295.197V411.656C295.197 407.08 292.573 404.488 287.933 404.488C283.357 404.488 280.381 406.856 280.381 410.472H284.477C284.477 409.032 285.597 408.232 287.677 408.232C289.437 408.232 290.397 409.064 290.397 410.632V410.888L285.917 411.24C282.077 411.528 279.997 413.352 279.997 416.296C279.997 419.432 282.109 421.416 285.501 421.416ZM287.229 417.768C285.725 417.768 285.021 417.224 285.021 416.072C285.021 415.048 285.789 414.568 287.933 414.376L290.429 414.152V415.016C290.429 416.84 289.117 417.768 287.229 417.768ZM195.587 467.048L198.851 464.168L196.291 461.256C197.955 459.176 198.915 456.36 198.915 453.128C198.915 445.896 194.179 440.904 187.299 440.904C180.451 440.904 175.715 445.928 175.715 453.16C175.715 460.392 180.419 465.384 187.267 465.384C189.379 465.384 191.299 464.904 192.931 464.04L195.587 467.048ZM193.443 453.128C193.443 454.696 193.155 456.04 192.642 457.128L189.571 453.672L186.307 456.552L189.411 460.072C188.771 460.296 188.099 460.392 187.331 460.392C183.491 460.392 181.187 457.672 181.187 453.128C181.187 448.616 183.491 445.896 187.331 445.896C191.139 445.896 193.443 448.616 193.443 453.128ZM212.543 449V457.32C212.543 459.944 211.679 461.032 209.567 461.032C207.551 461.032 206.655 459.88 206.655 457.256V449H201.727V459.048C201.727 462.984 203.967 465.416 207.615 465.416C209.535 465.416 211.519 464.52 212.511 463.208L212.831 465H217.471V449H212.543ZM219.992 456.968C219.992 462.024 223.704 465.384 228.824 465.384C233.912 465.384 237.624 462.024 237.624 456.968C237.624 451.912 233.912 448.52 228.824 448.52C223.704 448.52 219.992 451.912 219.992 456.968ZM224.952 456.936C224.952 454.536 226.52 452.936 228.824 452.936C231.096 452.936 232.664 454.536 232.664 456.936C232.664 459.368 231.096 460.968 228.824 460.968C226.52 460.968 224.952 459.368 224.952 456.936ZM246.789 465V453.096H249.829V449H246.789V444.04H241.861V449H238.821V453.096H241.861V465H246.789ZM259.311 465.416C263.695 465.416 266.863 463.144 267.439 459.592H262.927C262.575 460.744 261.263 461.416 259.407 461.416C257.231 461.416 256.047 460.424 255.759 458.312L267.375 458.248V457C267.375 451.784 264.239 448.488 259.215 448.488C254.383 448.488 251.023 451.976 251.023 456.968C251.023 461.896 254.479 465.416 259.311 465.416ZM259.247 452.488C261.231 452.488 262.479 453.576 262.479 455.272H255.823C256.207 453.352 257.295 452.488 259.247 452.488Z" fill="#043344"/>
<rect x="90" y="504" width="259" height="48" rx="4" fill="#1A938A"/>
<path d="M174.56 534.192C177.328 534.192 179.472 532.56 179.92 530.096H177.792C177.408 531.392 176.192 532.224 174.608 532.224C172.464 532.224 171.088 530.624 171.088 528.144C171.088 525.648 172.448 524.08 174.608 524.08C176.16 524.08 177.328 524.88 177.728 526.24H179.888C179.488 523.728 177.424 522.112 174.656 522.112C171.232 522.112 168.944 524.528 168.944 528.16C168.944 531.824 171.152 534.192 174.56 534.192ZM181.005 530.032C181.005 532.496 182.781 534.192 185.229 534.192C187.677 534.192 189.453 532.496 189.453 530.032C189.453 527.568 187.677 525.872 185.229 525.872C182.781 525.872 181.005 527.568 181.005 530.032ZM182.957 530.032C182.957 528.592 183.885 527.616 185.229 527.616C186.573 527.616 187.501 528.592 187.501 530.032C187.501 531.472 186.573 532.448 185.229 532.448C183.885 532.448 182.957 531.472 182.957 530.032ZM192.952 534V529.744C192.952 528.464 193.688 527.632 194.888 527.632C195.896 527.632 196.552 528.272 196.552 529.6V534H198.504V529.136C198.504 527.088 197.48 525.856 195.496 525.856C194.424 525.856 193.464 526.32 192.968 527.12L192.808 526.096H191V534H192.952ZM203.11 534V527.728H204.646V526.096H203.11V523.632H201.158V526.096H199.638V527.728H201.158V534H203.11ZM208.165 534.208C209.397 534.208 210.469 533.648 210.805 532.832L210.949 534H212.661V529.2C212.661 527.008 211.349 525.856 209.221 525.856C207.077 525.856 205.669 526.976 205.669 528.688H207.333C207.333 527.856 207.973 527.376 209.125 527.376C210.117 527.376 210.757 527.808 210.757 528.88V529.056L208.389 529.232C206.517 529.376 205.461 530.288 205.461 531.744C205.461 533.232 206.485 534.208 208.165 534.208ZM208.805 532.736C207.925 532.736 207.445 532.384 207.445 531.664C207.445 531.024 207.909 530.624 209.125 530.512L210.773 530.384V530.8C210.773 532.016 210.005 532.736 208.805 532.736ZM214.114 530.032C214.114 532.544 215.682 534.208 218.082 534.208C220.146 534.208 221.682 532.944 221.922 531.104H219.954C219.746 531.968 219.058 532.448 218.082 532.448C216.834 532.448 216.066 531.52 216.066 530.032C216.066 528.544 216.898 527.6 218.146 527.6C219.074 527.6 219.73 528.064 219.954 528.96H221.906C221.698 527.056 220.226 525.856 218.066 525.856C215.73 525.856 214.114 527.584 214.114 530.032ZM226.063 534V527.728H227.599V526.096H226.063V523.632H224.111V526.096H222.591V527.728H224.111V534H226.063ZM232.741 525.568C232.741 527.36 233.781 528.496 235.765 528.928L237.621 529.344C238.581 529.552 238.981 530.016 238.981 530.8C238.981 531.776 238.117 532.368 236.757 532.368C235.445 532.368 234.645 531.776 234.629 530.784H232.581C232.629 532.88 234.261 534.208 236.757 534.208C239.333 534.208 241.029 532.8 241.029 530.624C241.029 528.88 240.053 527.856 238.053 527.424L236.213 527.024C235.237 526.8 234.789 526.336 234.789 525.504C234.789 524.528 235.605 523.92 236.869 523.92C238.021 523.92 238.741 524.512 238.789 525.52H240.837C240.773 523.408 239.269 522.096 236.901 522.096C234.437 522.096 232.741 523.52 232.741 525.568ZM244.946 534.208C246.178 534.208 247.25 533.648 247.586 532.832L247.73 534H249.442V529.2C249.442 527.008 248.13 525.856 246.002 525.856C243.858 525.856 242.45 526.976 242.45 528.688H244.114C244.114 527.856 244.754 527.376 245.906 527.376C246.898 527.376 247.538 527.808 247.538 528.88V529.056L245.17 529.232C243.298 529.376 242.242 530.288 242.242 531.744C242.242 533.232 243.266 534.208 244.946 534.208ZM245.586 532.736C244.706 532.736 244.226 532.384 244.226 531.664C244.226 531.024 244.69 530.624 245.906 530.512L247.554 530.384V530.8C247.554 532.016 246.786 532.736 245.586 532.736ZM253.328 534V522.096H251.392V534H253.328ZM258.911 534.208C260.975 534.208 262.415 533.168 262.751 531.44H260.943C260.719 532.192 260.015 532.608 258.943 532.608C257.647 532.608 256.911 531.904 256.767 530.512L262.719 530.496V529.904C262.719 527.44 261.215 525.856 258.847 525.856C256.527 525.856 254.911 527.568 254.911 530.048C254.911 532.496 256.559 534.208 258.911 534.208ZM258.863 527.456C260.031 527.456 260.783 528.176 260.783 529.264H256.815C257.007 528.08 257.711 527.456 258.863 527.456ZM263.673 531.6C263.673 533.152 264.921 534.208 266.889 534.208C268.841 534.208 270.201 533.216 270.201 531.616C270.201 530.4 269.529 529.792 268.201 529.488L266.777 529.152C266.105 528.992 265.753 528.704 265.753 528.256C265.753 527.664 266.201 527.312 266.969 527.312C267.721 527.312 268.169 527.744 268.185 528.416H270.041C270.025 526.88 268.825 525.856 267.049 525.856C265.225 525.856 263.913 526.784 263.913 528.336C263.913 529.6 264.601 530.272 266.025 530.592L267.449 530.928C268.153 531.088 268.361 531.376 268.361 531.776C268.361 532.352 267.865 532.72 266.953 532.72C266.057 532.72 265.545 532.288 265.529 531.6H263.673Z" fill="white"/>
<path d="M88.4428 278.872H91.9308V289H93.4988V278.872H96.9708V277.432H88.4428V278.872ZM99.7951 288.984V284.728C99.7951 283.384 100.579 282.328 102.035 282.328C103.155 282.328 103.907 282.968 103.907 284.552V289H105.411V284.216C105.411 282.216 104.451 280.952 102.451 280.952C101.235 280.952 100.291 281.528 99.7951 282.376V277.224H98.2911V288.984H99.7951ZM110.87 289.192C112.806 289.192 114.118 288.248 114.502 286.568H113.094C112.838 287.464 112.07 287.944 110.902 287.944C109.414 287.944 108.55 287.032 108.438 285.384L114.486 285.368V284.808C114.486 282.488 113.03 280.952 110.806 280.952C108.534 280.952 106.982 282.648 106.982 285.096C106.982 287.528 108.566 289.192 110.87 289.192ZM110.806 282.216C112.134 282.216 112.982 283.08 112.982 284.376H108.47C108.662 283 109.494 282.216 110.806 282.216ZM119.709 281.176V282.44H120.861V289H122.365V282.44H124.221V281.176H122.365V279.928C122.365 279.08 122.621 278.584 123.597 278.584H124.269V277.288C123.965 277.24 123.629 277.224 123.341 277.224C121.917 277.224 120.861 278.008 120.861 279.928V281.176H119.709ZM131.027 281.176V285.304C131.027 286.984 130.275 287.864 128.899 287.864C127.747 287.864 127.027 287.224 127.027 285.544V281.176H125.523V286.04C125.523 287.96 126.547 289.192 128.371 289.192C129.523 289.192 130.563 288.632 131.011 287.816L131.171 289H132.515V281.176H131.027ZM136.233 289V277.224H134.729V289H136.233ZM139.983 289V277.224H138.479V289H139.983ZM145.932 286.728C145.932 288.216 147.1 289.192 148.94 289.192C150.796 289.192 152.076 288.248 152.076 286.76C152.076 285.592 151.42 284.984 150.092 284.664L148.716 284.328C147.948 284.136 147.564 283.784 147.564 283.256C147.564 282.536 148.092 282.12 149.036 282.12C149.948 282.12 150.476 282.616 150.508 283.4H151.948C151.916 281.912 150.796 280.952 149.084 280.952C147.356 280.952 146.14 281.864 146.14 283.304C146.14 284.456 146.796 285.144 148.188 285.48L149.564 285.8C150.38 286.008 150.636 286.328 150.636 286.856C150.636 287.576 150.028 288.008 148.972 288.008C147.98 288.008 147.372 287.528 147.372 286.728H145.932ZM157.12 289.192C159.056 289.192 160.368 288.248 160.752 286.568H159.344C159.088 287.464 158.32 287.944 157.152 287.944C155.664 287.944 154.8 287.032 154.688 285.384L160.736 285.368V284.808C160.736 282.488 159.28 280.952 157.056 280.952C154.784 280.952 153.232 282.648 153.232 285.096C153.232 287.528 154.816 289.192 157.12 289.192ZM157.056 282.216C158.384 282.216 159.232 283.08 159.232 284.376H154.72C154.912 283 155.744 282.216 157.056 282.216ZM166.896 281.112C166.592 281.048 166.368 281.016 166.096 281.016C165.024 281.016 164.24 281.56 163.92 282.376L163.824 281.192H162.416V289H163.92V284.856C163.92 283.352 164.8 282.488 166.224 282.488H166.896V281.112ZM170.733 289H172.221L175.485 281.176H173.917L172.173 285.544C171.901 286.232 171.645 286.904 171.517 287.416C171.389 286.936 171.165 286.28 170.893 285.544L169.181 281.176H167.581L170.733 289ZM177.418 279.32C177.962 279.32 178.41 278.872 178.41 278.328C178.41 277.768 177.962 277.336 177.418 277.336C176.874 277.336 176.426 277.768 176.426 278.328C176.426 278.872 176.874 279.32 177.418 279.32ZM176.682 289H178.186V281.176H176.682V289ZM179.857 285.096C179.857 287.56 181.377 289.192 183.681 289.192C185.569 289.192 187.025 288.056 187.329 286.36H185.825C185.553 287.288 184.753 287.848 183.681 287.848C182.257 287.848 181.345 286.76 181.345 285.08C181.345 283.384 182.321 282.296 183.745 282.296C184.753 282.296 185.553 282.824 185.809 283.816H187.313C187.041 282.072 185.665 280.952 183.697 280.952C181.409 280.952 179.857 282.648 179.857 285.096ZM192.292 289.192C194.228 289.192 195.54 288.248 195.924 286.568H194.516C194.26 287.464 193.492 287.944 192.324 287.944C190.836 287.944 189.972 287.032 189.86 285.384L195.908 285.368V284.808C195.908 282.488 194.452 280.952 192.228 280.952C189.956 280.952 188.404 282.648 188.404 285.096C188.404 287.528 189.988 289.192 192.292 289.192ZM192.228 282.216C193.556 282.216 194.404 283.08 194.404 284.376H189.892C190.084 283 190.916 282.216 192.228 282.216ZM205.339 289.192C207.275 289.192 208.587 288.248 208.971 286.568H207.563C207.307 287.464 206.539 287.944 205.371 287.944C203.883 287.944 203.019 287.032 202.907 285.384L208.955 285.368V284.808C208.955 282.488 207.499 280.952 205.275 280.952C203.003 280.952 201.451 282.648 201.451 285.096C201.451 287.528 203.035 289.192 205.339 289.192ZM205.275 282.216C206.603 282.216 207.451 283.08 207.451 284.376H202.939C203.131 283 203.963 282.216 205.275 282.216ZM211.138 289L213.058 286.136L215.01 289H216.754L214.082 285.128L216.802 281.176H215.09L213.154 284.088L211.17 281.176H209.426L212.146 285.128L209.41 289H211.138ZM218.057 292.504H219.561V287.72C220.073 288.68 221.113 289.208 222.361 289.208C224.681 289.208 225.993 287.416 225.993 285.032C225.993 282.632 224.601 280.952 222.361 280.952C221.113 280.952 220.057 281.512 219.529 282.584L219.417 281.176H218.057V292.504ZM219.577 285.096C219.577 283.464 220.505 282.328 222.041 282.328C223.577 282.328 224.489 283.48 224.489 285.096C224.489 286.696 223.577 287.848 222.041 287.848C220.505 287.848 219.577 286.696 219.577 285.096ZM231.027 289.192C232.963 289.192 234.275 288.248 234.659 286.568H233.251C232.995 287.464 232.227 287.944 231.059 287.944C229.571 287.944 228.707 287.032 228.595 285.384L234.642 285.368V284.808C234.642 282.488 233.187 280.952 230.963 280.952C228.691 280.952 227.139 282.648 227.139 285.096C227.139 287.528 228.723 289.192 231.027 289.192ZM230.963 282.216C232.291 282.216 233.139 283.08 233.139 284.376H228.627C228.819 283 229.651 282.216 230.963 282.216ZM240.802 281.112C240.498 281.048 240.274 281.016 240.002 281.016C238.93 281.016 238.146 281.56 237.826 282.376L237.73 281.192H236.322V289H237.826V284.856C237.826 283.352 238.706 282.488 240.13 282.488H240.802V281.112ZM242.949 279.32C243.493 279.32 243.941 278.872 243.941 278.328C243.941 277.768 243.493 277.336 242.949 277.336C242.405 277.336 241.957 277.768 241.957 278.328C241.957 278.872 242.405 279.32 242.949 279.32ZM242.213 289H243.717V281.176H242.213V289ZM249.277 289.192C251.213 289.192 252.525 288.248 252.909 286.568H251.501C251.245 287.464 250.477 287.944 249.309 287.944C247.821 287.944 246.957 287.032 246.845 285.384L252.892 285.368V284.808C252.892 282.488 251.437 280.952 249.213 280.952C246.941 280.952 245.389 282.648 245.389 285.096C245.389 287.528 246.973 289.192 249.277 289.192ZM249.213 282.216C250.541 282.216 251.389 283.08 251.389 284.376H246.877C247.069 283 247.901 282.216 249.213 282.216ZM256.076 289V284.856C256.076 283.336 256.892 282.328 258.3 282.328C259.452 282.328 260.188 282.968 260.188 284.552V289H261.692V284.216C261.692 282.216 260.748 280.952 258.684 280.952C257.58 280.952 256.588 281.48 256.092 282.376L255.932 281.176H254.572V289H256.076ZM263.264 285.096C263.264 287.56 264.784 289.192 267.088 289.192C268.976 289.192 270.432 288.056 270.736 286.36H269.232C268.96 287.288 268.16 287.848 267.088 287.848C265.664 287.848 264.752 286.76 264.752 285.08C264.752 283.384 265.728 282.296 267.152 282.296C268.16 282.296 268.96 282.824 269.216 283.816H270.72C270.448 282.072 269.072 280.952 267.104 280.952C264.816 280.952 263.264 282.648 263.264 285.096ZM275.698 289.192C277.634 289.192 278.946 288.248 279.33 286.568H277.922C277.666 287.464 276.898 287.944 275.73 287.944C274.242 287.944 273.378 287.032 273.266 285.384L279.314 285.368V284.808C279.314 282.488 277.858 280.952 275.634 280.952C273.362 280.952 271.81 282.648 271.81 285.096C271.81 287.528 273.394 289.192 275.698 289.192ZM275.634 282.216C276.962 282.216 277.81 283.08 277.81 284.376H273.298C273.49 283 274.322 282.216 275.634 282.216ZM287.049 289H288.537L289.897 284.824C290.185 283.88 290.329 283.368 290.409 282.984C290.489 283.416 290.649 284.024 290.905 284.808L292.265 289H293.689L296.361 281.176H294.793L293.481 285.24C293.257 285.928 293.113 286.472 292.985 287.096C292.857 286.536 292.601 285.624 292.473 285.24L291.177 281.176H289.641L288.329 285.24C288.153 285.752 287.945 286.408 287.817 287.096C287.673 286.408 287.513 285.816 287.337 285.24L286.041 281.176H284.489L287.049 289ZM298.387 279.32C298.931 279.32 299.379 278.872 299.379 278.328C299.379 277.768 298.931 277.336 298.387 277.336C297.843 277.336 297.395 277.768 297.395 278.328C297.395 278.872 297.843 279.32 298.387 279.32ZM297.651 289H299.155V281.176H297.651V289ZM303.546 289V282.44H305.082V281.176H303.546V278.728H302.042V281.176H300.506V282.44H302.042V289H303.546ZM307.936 288.984V284.728C307.936 283.384 308.72 282.328 310.176 282.328C311.296 282.328 312.048 282.968 312.048 284.552V289H313.552V284.216C313.552 282.216 312.592 280.952 310.592 280.952C309.376 280.952 308.432 281.528 307.936 282.376V277.224H306.432V288.984H307.936ZM324.762 284.872C327.018 284.872 328.49 283.304 328.49 281.144C328.49 278.92 327.034 277.432 324.762 277.432H320.266V289H321.834V284.872H324.762ZM324.49 278.84C325.962 278.84 326.842 279.672 326.842 281.128C326.842 282.552 325.978 283.464 324.426 283.464H321.834V278.84H324.49ZM331.834 289V284.424H334.794L336.954 289H338.698L336.346 284.12C337.786 283.656 338.586 282.504 338.586 280.904C338.586 278.744 337.114 277.432 334.634 277.432H330.266V289H331.834ZM331.834 278.84H334.634C336.074 278.84 336.938 279.576 336.938 280.92C336.938 282.248 336.106 283.032 334.65 283.032H331.834V278.84ZM351.12 283.208C351.12 279.688 348.832 277.224 345.552 277.224C342.288 277.224 340 279.704 340 283.208C340 286.728 342.272 289.192 345.536 289.192C348.816 289.192 351.12 286.728 351.12 283.208ZM349.472 283.208C349.472 285.88 347.904 287.688 345.552 287.688C343.2 287.688 341.648 285.896 341.648 283.208C341.648 280.52 343.2 278.744 345.552 278.744C347.904 278.744 349.472 280.52 349.472 283.208ZM97.1623 304.176V305.44H98.3143V312H99.8183V305.44H101.674V304.176H99.8183V302.928C99.8183 302.08 100.074 301.584 101.05 301.584H101.722V300.288C101.418 300.24 101.082 300.224 100.794 300.224C99.3703 300.224 98.3143 301.008 98.3143 302.928V304.176H97.1623ZM106.214 312.192C108.15 312.192 109.462 311.248 109.846 309.568H108.438C108.182 310.464 107.414 310.944 106.246 310.944C104.758 310.944 103.894 310.032 103.782 308.384L109.83 308.368V307.808C109.83 305.488 108.374 303.952 106.15 303.952C103.878 303.952 102.326 305.648 102.326 308.096C102.326 310.528 103.91 312.192 106.214 312.192ZM106.15 305.216C107.478 305.216 108.326 306.08 108.326 307.376H103.814C104.006 306 104.838 305.216 106.15 305.216ZM113.72 312.192C114.984 312.192 116.056 311.632 116.456 310.736L116.616 312H117.896V307.088C117.896 304.976 116.584 303.952 114.648 303.952C112.632 303.952 111.288 305.024 111.288 306.656H112.6C112.6 305.712 113.32 305.152 114.584 305.152C115.64 305.152 116.424 305.616 116.424 306.928V307.152L113.96 307.344C112.12 307.488 111.048 308.384 111.048 309.824C111.048 311.248 112.04 312.192 113.72 312.192ZM114.152 311.024C113.176 311.024 112.568 310.608 112.568 309.776C112.568 309.008 113.112 308.496 114.44 308.368L116.44 308.208V308.624C116.44 310.096 115.576 311.024 114.152 311.024ZM122.062 312V305.44H123.598V304.176H122.062V301.728H120.558V304.176H119.022V305.44H120.558V312H122.062ZM130.355 304.176V308.304C130.355 309.984 129.603 310.864 128.227 310.864C127.075 310.864 126.355 310.224 126.355 308.544V304.176H124.851V309.04C124.851 310.96 125.875 312.192 127.699 312.192C128.851 312.192 129.891 311.632 130.339 310.816L130.499 312H131.843V304.176H130.355ZM138.506 304.112C138.202 304.048 137.978 304.016 137.706 304.016C136.634 304.016 135.85 304.56 135.53 305.376L135.434 304.192H134.026V312H135.53V307.856C135.53 306.352 136.41 305.488 137.834 305.488H138.506V304.112ZM143.011 312.192C144.947 312.192 146.259 311.248 146.643 309.568H145.235C144.979 310.464 144.211 310.944 143.043 310.944C141.555 310.944 140.691 310.032 140.579 308.384L146.627 308.368V307.808C146.627 305.488 145.171 303.952 142.947 303.952C140.675 303.952 139.123 305.648 139.123 308.096C139.123 310.528 140.707 312.192 143.011 312.192ZM142.947 305.216C144.275 305.216 145.123 306.08 145.123 307.376H140.611C140.803 306 141.635 305.216 142.947 305.216ZM147.667 309.728C147.667 311.216 148.835 312.192 150.675 312.192C152.531 312.192 153.811 311.248 153.811 309.76C153.811 308.592 153.155 307.984 151.827 307.664L150.451 307.328C149.683 307.136 149.299 306.784 149.299 306.256C149.299 305.536 149.827 305.12 150.771 305.12C151.683 305.12 152.211 305.616 152.243 306.4H153.683C153.651 304.912 152.531 303.952 150.819 303.952C149.091 303.952 147.875 304.864 147.875 306.304C147.875 307.456 148.531 308.144 149.923 308.48L151.299 308.8C152.115 309.008 152.371 309.328 152.371 309.856C152.371 310.576 151.763 311.008 150.707 311.008C149.715 311.008 149.107 310.528 149.107 309.728H147.667ZM157.641 311.376C157.641 310.496 157.097 309.936 156.425 309.936C155.785 309.936 155.353 310.4 155.353 311.04C155.353 311.632 155.801 312.016 156.329 312.016C156.521 312.016 156.649 311.984 156.761 311.92C156.761 312.416 156.297 312.848 155.641 312.96V313.632C156.777 313.488 157.641 312.528 157.641 311.376ZM164.182 315.504H165.686V310.72C166.198 311.68 167.238 312.208 168.486 312.208C170.806 312.208 172.118 310.416 172.118 308.032C172.118 305.632 170.726 303.952 168.486 303.952C167.238 303.952 166.182 304.512 165.654 305.584L165.542 304.176H164.182V315.504ZM165.702 308.096C165.702 306.464 166.63 305.328 168.166 305.328C169.702 305.328 170.614 306.48 170.614 308.096C170.614 309.696 169.702 310.848 168.166 310.848C166.63 310.848 165.702 309.696 165.702 308.096ZM178.256 304.112C177.952 304.048 177.728 304.016 177.456 304.016C176.384 304.016 175.6 304.56 175.28 305.376L175.184 304.192H173.776V312H175.28V307.856C175.28 306.352 176.16 305.488 177.584 305.488H178.256V304.112ZM182.761 312.192C184.697 312.192 186.009 311.248 186.393 309.568H184.985C184.729 310.464 183.961 310.944 182.793 310.944C181.305 310.944 180.441 310.032 180.329 308.384L186.377 308.368V307.808C186.377 305.488 184.921 303.952 182.697 303.952C180.425 303.952 178.873 305.648 178.873 308.096C178.873 310.528 180.457 312.192 182.761 312.192ZM182.697 305.216C184.025 305.216 184.873 306.08 184.873 307.376H180.361C180.553 306 181.385 305.216 182.697 305.216ZM189.561 312V307.36C189.561 306.112 190.313 305.328 191.449 305.328C192.505 305.328 193.177 306 193.177 307.232V312H194.665V307.36C194.665 306.112 195.417 305.312 196.553 305.312C197.609 305.312 198.297 306.016 198.297 307.248V312H199.769V306.88C199.769 305.072 198.681 303.952 196.889 303.952C195.673 303.952 194.729 304.56 194.361 305.536C193.961 304.56 193.097 303.952 191.881 303.952C190.777 303.952 189.945 304.464 189.545 305.2L189.401 304.176H188.057V312H189.561ZM202.59 302.32C203.134 302.32 203.582 301.872 203.582 301.328C203.582 300.768 203.134 300.336 202.59 300.336C202.046 300.336 201.598 300.768 201.598 301.328C201.598 301.872 202.046 302.32 202.59 302.32ZM201.854 312H203.358V304.176H201.854V312ZM210.465 304.176V308.304C210.465 309.984 209.713 310.864 208.337 310.864C207.185 310.864 206.465 310.224 206.465 308.544V304.176H204.961V309.04C204.961 310.96 205.985 312.192 207.809 312.192C208.961 312.192 210.001 311.632 210.449 310.816L210.609 312H211.953V304.176H210.465ZM215.639 312V307.36C215.639 306.112 216.391 305.328 217.527 305.328C218.583 305.328 219.255 306 219.255 307.232V312H220.743V307.36C220.743 306.112 221.495 305.312 222.631 305.312C223.687 305.312 224.375 306.016 224.375 307.248V312H225.847V306.88C225.847 305.072 224.759 303.952 222.967 303.952C221.751 303.952 220.807 304.56 220.439 305.536C220.039 304.56 219.175 303.952 217.959 303.952C216.855 303.952 216.023 304.464 215.623 305.2L215.479 304.176H214.135V312H215.639ZM233.043 302.32C233.587 302.32 234.035 301.872 234.035 301.328C234.035 300.768 233.587 300.336 233.043 300.336C232.499 300.336 232.051 300.768 232.051 301.328C232.051 301.872 232.499 302.32 233.043 302.32ZM232.307 312H233.811V304.176H232.307V312ZM237.498 312V307.36C237.498 306.112 238.25 305.328 239.386 305.328C240.442 305.328 241.114 306 241.114 307.232V312H242.602V307.36C242.602 306.112 243.354 305.312 244.49 305.312C245.546 305.312 246.234 306.016 246.234 307.248V312H247.706V306.88C247.706 305.072 246.618 303.952 244.826 303.952C243.61 303.952 242.666 304.56 242.298 305.536C241.898 304.56 241.034 303.952 239.818 303.952C238.714 303.952 237.882 304.464 237.482 305.2L237.338 304.176H235.994V312H237.498ZM249.791 315.504H251.295V310.72C251.807 311.68 252.847 312.208 254.095 312.208C256.415 312.208 257.727 310.416 257.727 308.032C257.727 305.632 256.335 303.952 254.095 303.952C252.847 303.952 251.791 304.512 251.263 305.584L251.151 304.176H249.791V315.504ZM251.311 308.096C251.311 306.464 252.239 305.328 253.775 305.328C255.311 305.328 256.223 306.48 256.223 308.096C256.223 309.696 255.311 310.848 253.775 310.848C252.239 310.848 251.311 309.696 251.311 308.096ZM260.921 312V300.224H259.417V312H260.921ZM266.511 312.192C268.447 312.192 269.759 311.248 270.143 309.568H268.735C268.479 310.464 267.711 310.944 266.543 310.944C265.055 310.944 264.191 310.032 264.079 308.384L270.127 308.368V307.808C270.127 305.488 268.671 303.952 266.447 303.952C264.175 303.952 262.623 305.648 262.623 308.096C262.623 310.528 264.207 312.192 266.511 312.192ZM266.447 305.216C267.775 305.216 268.623 306.08 268.623 307.376H264.111C264.303 306 265.135 305.216 266.447 305.216ZM273.311 312V307.36C273.311 306.112 274.063 305.328 275.199 305.328C276.255 305.328 276.927 306 276.927 307.232V312H278.415V307.36C278.415 306.112 279.167 305.312 280.303 305.312C281.359 305.312 282.047 306.016 282.047 307.248V312H283.519V306.88C283.519 305.072 282.431 303.952 280.639 303.952C279.423 303.952 278.479 304.56 278.111 305.536C277.711 304.56 276.847 303.952 275.631 303.952C274.527 303.952 273.695 304.464 273.295 305.2L273.151 304.176H271.807V312H273.311ZM288.98 312.192C290.916 312.192 292.228 311.248 292.612 309.568H291.204C290.948 310.464 290.18 310.944 289.012 310.944C287.524 310.944 286.66 310.032 286.548 308.384L292.596 308.368V307.808C292.596 305.488 291.14 303.952 288.916 303.952C286.644 303.952 285.092 305.648 285.092 308.096C285.092 310.528 286.676 312.192 288.98 312.192ZM288.916 305.216C290.244 305.216 291.092 306.08 291.092 307.376H286.58C286.772 306 287.604 305.216 288.916 305.216ZM295.78 312V307.856C295.78 306.336 296.596 305.328 298.004 305.328C299.156 305.328 299.892 305.968 299.892 307.552V312H301.396V307.216C301.396 305.216 300.452 303.952 298.388 303.952C297.284 303.952 296.292 304.48 295.796 305.376L295.636 304.176H294.276V312H295.78ZM305.687 312V305.44H307.223V304.176H305.687V301.728H304.183V304.176H302.647V305.44H304.183V312H305.687ZM310.767 312.192C312.031 312.192 313.103 311.632 313.503 310.736L313.663 312H314.943V307.088C314.943 304.976 313.631 303.952 311.695 303.952C309.679 303.952 308.335 305.024 308.335 306.656H309.647C309.647 305.712 310.367 305.152 311.631 305.152C312.687 305.152 313.471 305.616 313.471 306.928V307.152L311.007 307.344C309.167 307.488 308.095 308.384 308.095 309.824C308.095 311.248 309.087 312.192 310.767 312.192ZM311.199 311.024C310.223 311.024 309.615 310.608 309.615 309.776C309.615 309.008 310.159 308.496 311.487 308.368L313.487 308.208V308.624C313.487 310.096 312.623 311.024 311.199 311.024ZM319.109 312V305.44H320.645V304.176H319.109V301.728H317.605V304.176H316.069V305.44H317.605V312H319.109ZM322.73 302.32C323.274 302.32 323.722 301.872 323.722 301.328C323.722 300.768 323.274 300.336 322.73 300.336C322.186 300.336 321.738 300.768 321.738 301.328C321.738 301.872 322.186 302.32 322.73 302.32ZM321.994 312H323.498V304.176H321.994V312ZM325.17 308.08C325.17 310.496 326.898 312.192 329.25 312.192C331.586 312.192 333.314 310.496 333.314 308.08C333.314 305.664 331.586 303.968 329.25 303.968C326.898 303.968 325.17 305.664 325.17 308.08ZM326.69 308.08C326.69 306.448 327.73 305.312 329.25 305.312C330.754 305.312 331.81 306.448 331.81 308.08C331.81 309.712 330.754 310.848 329.25 310.848C327.73 310.848 326.69 309.712 326.69 308.08ZM336.483 312V307.856C336.483 306.336 337.299 305.328 338.707 305.328C339.859 305.328 340.595 305.968 340.595 307.552V312H342.099V307.216C342.099 305.216 341.155 303.952 339.091 303.952C337.987 303.952 336.995 304.48 336.499 305.376L336.339 304.176H334.979V312H336.483ZM96.1824 332.728C96.1824 334.216 97.3504 335.192 99.1904 335.192C101.046 335.192 102.326 334.248 102.326 332.76C102.326 331.592 101.67 330.984 100.342 330.664L98.9664 330.328C98.1984 330.136 97.8144 329.784 97.8144 329.256C97.8144 328.536 98.3424 328.12 99.2864 328.12C100.198 328.12 100.726 328.616 100.758 329.4H102.198C102.166 327.912 101.046 326.952 99.3344 326.952C97.6064 326.952 96.3904 327.864 96.3904 329.304C96.3904 330.456 97.0464 331.144 98.4384 331.48L99.8144 331.8C100.63 332.008 100.886 332.328 100.886 332.856C100.886 333.576 100.278 334.008 99.2224 334.008C98.2304 334.008 97.6224 333.528 97.6224 332.728H96.1824ZM109.402 327.176V331.304C109.402 332.984 108.65 333.864 107.274 333.864C106.122 333.864 105.402 333.224 105.402 331.544V327.176H103.898V332.04C103.898 333.96 104.922 335.192 106.746 335.192C107.898 335.192 108.938 334.632 109.386 333.816L109.546 335H110.89V327.176H109.402ZM113.072 338.504H114.576V333.72C115.088 334.68 116.128 335.208 117.376 335.208C119.696 335.208 121.008 333.416 121.008 331.032C121.008 328.632 119.616 326.952 117.376 326.952C116.128 326.952 115.072 327.512 114.544 328.584L114.432 327.176H113.072V338.504ZM114.592 331.096C114.592 329.464 115.52 328.328 117.056 328.328C118.592 328.328 119.504 329.48 119.504 331.096C119.504 332.696 118.592 333.848 117.056 333.848C115.52 333.848 114.592 332.696 114.592 331.096ZM122.666 338.504H124.17V333.72C124.682 334.68 125.722 335.208 126.97 335.208C129.29 335.208 130.602 333.416 130.602 331.032C130.602 328.632 129.21 326.952 126.97 326.952C125.722 326.952 124.666 327.512 124.138 328.584L124.026 327.176H122.666V338.504ZM124.186 331.096C124.186 329.464 125.114 328.328 126.65 328.328C128.186 328.328 129.098 329.48 129.098 331.096C129.098 332.696 128.186 333.848 126.65 333.848C125.114 333.848 124.186 332.696 124.186 331.096ZM131.748 331.08C131.748 333.496 133.476 335.192 135.828 335.192C138.164 335.192 139.892 333.496 139.892 331.08C139.892 328.664 138.164 326.968 135.828 326.968C133.476 326.968 131.748 328.664 131.748 331.08ZM133.268 331.08C133.268 329.448 134.308 328.312 135.828 328.312C137.332 328.312 138.388 329.448 138.388 331.08C138.388 332.712 137.332 333.848 135.828 333.848C134.308 333.848 133.268 332.712 133.268 331.08ZM146.037 327.112C145.733 327.048 145.509 327.016 145.237 327.016C144.165 327.016 143.381 327.56 143.061 328.376L142.965 327.192H141.557V335H143.061V330.856C143.061 329.352 143.941 328.488 145.365 328.488H146.037V327.112ZM149.968 335V328.44H151.504V327.176H149.968V324.728H148.464V327.176H146.928V328.44H148.464V335H149.968ZM159.517 335.192C160.781 335.192 161.853 334.632 162.253 333.736L162.413 335H163.693V330.088C163.693 327.976 162.381 326.952 160.445 326.952C158.429 326.952 157.085 328.024 157.085 329.656H158.397C158.397 328.712 159.117 328.152 160.381 328.152C161.437 328.152 162.221 328.616 162.221 329.928V330.152L159.757 330.344C157.917 330.488 156.845 331.384 156.845 332.824C156.845 334.248 157.837 335.192 159.517 335.192ZM159.949 334.024C158.973 334.024 158.365 333.608 158.365 332.776C158.365 332.008 158.909 331.496 160.237 331.368L162.237 331.208V331.624C162.237 333.096 161.373 334.024 159.949 334.024ZM167.28 335V330.856C167.28 329.336 168.096 328.328 169.504 328.328C170.656 328.328 171.392 328.968 171.392 330.552V335H172.896V330.216C172.896 328.216 171.952 326.952 169.888 326.952C168.784 326.952 167.792 327.48 167.296 328.376L167.136 327.176H165.776V335H167.28ZM178.115 335.192C179.363 335.192 180.419 334.648 180.931 333.576L181.059 335H182.403V323.224H180.915V328.44C180.387 327.48 179.379 326.952 178.179 326.952C175.859 326.952 174.467 328.712 174.467 331.112C174.467 333.496 175.843 335.192 178.115 335.192ZM178.419 333.832C176.883 333.832 175.987 332.68 175.987 331.064C175.987 329.464 176.883 328.312 178.419 328.312C179.955 328.312 180.899 329.464 180.899 331.064C180.899 332.696 179.955 333.832 178.419 333.832ZM191.235 335.192C192.499 335.192 193.571 334.632 193.971 333.736L194.131 335H195.411V330.088C195.411 327.976 194.099 326.952 192.163 326.952C190.147 326.952 188.803 328.024 188.803 329.656H190.115C190.115 328.712 190.835 328.152 192.099 328.152C193.155 328.152 193.939 328.616 193.939 329.928V330.152L191.475 330.344C189.635 330.488 188.563 331.384 188.563 332.824C188.563 334.248 189.555 335.192 191.235 335.192ZM191.667 334.024C190.691 334.024 190.083 333.608 190.083 332.776C190.083 332.008 190.627 331.496 191.955 331.368L193.955 331.208V331.624C193.955 333.096 193.091 334.024 191.667 334.024ZM205.005 335.192C206.253 335.192 207.309 334.648 207.821 333.576L207.949 335H209.293V323.224H207.805V328.44C207.277 327.48 206.269 326.952 205.069 326.952C202.749 326.952 201.357 328.712 201.357 331.112C201.357 333.496 202.733 335.192 205.005 335.192ZM205.309 333.832C203.773 333.832 202.877 332.68 202.877 331.064C202.877 329.464 203.773 328.312 205.309 328.312C206.845 328.312 207.789 329.464 207.789 331.064C207.789 332.696 206.845 333.832 205.309 333.832ZM214.839 335.192C216.775 335.192 218.087 334.248 218.471 332.568H217.063C216.807 333.464 216.039 333.944 214.871 333.944C213.383 333.944 212.519 333.032 212.407 331.384L218.455 331.368V330.808C218.455 328.488 216.999 326.952 214.775 326.952C212.503 326.952 210.951 328.648 210.951 331.096C210.951 333.528 212.535 335.192 214.839 335.192ZM214.775 328.216C216.103 328.216 216.951 329.08 216.951 330.376H212.439C212.631 329 213.463 328.216 214.775 328.216ZM223.271 335.192C224.519 335.192 225.575 334.648 226.087 333.576L226.215 335H227.559V323.224H226.071V328.44C225.543 327.48 224.535 326.952 223.335 326.952C221.015 326.952 219.623 328.712 219.623 331.112C219.623 333.496 220.999 335.192 223.271 335.192ZM223.575 333.832C222.039 333.832 221.143 332.68 221.143 331.064C221.143 329.464 222.039 328.312 223.575 328.312C225.111 328.312 226.055 329.464 226.055 331.064C226.055 332.696 225.111 333.832 223.575 333.832ZM230.465 325.32C231.009 325.32 231.457 324.872 231.457 324.328C231.457 323.768 231.009 323.336 230.465 323.336C229.921 323.336 229.473 323.768 229.473 324.328C229.473 324.872 229.921 325.32 230.465 325.32ZM229.729 335H231.233V327.176H229.729V335ZM232.904 331.096C232.904 333.56 234.424 335.192 236.728 335.192C238.616 335.192 240.072 334.056 240.376 332.36H238.872C238.6 333.288 237.8 333.848 236.728 333.848C235.304 333.848 234.392 332.76 234.392 331.08C234.392 329.384 235.368 328.296 236.792 328.296C237.8 328.296 238.6 328.824 238.856 329.816H240.36C240.088 328.072 238.712 326.952 236.744 326.952C234.456 326.952 232.904 328.648 232.904 331.096ZM244.251 335.192C245.515 335.192 246.587 334.632 246.987 333.736L247.147 335H248.427V330.088C248.427 327.976 247.115 326.952 245.179 326.952C243.163 326.952 241.819 328.024 241.819 329.656H243.131C243.131 328.712 243.851 328.152 245.115 328.152C246.171 328.152 246.955 328.616 246.955 329.928V330.152L244.491 330.344C242.651 330.488 241.579 331.384 241.579 332.824C241.579 334.248 242.571 335.192 244.251 335.192ZM244.683 334.024C243.707 334.024 243.099 333.608 243.099 332.776C243.099 332.008 243.643 331.496 244.971 331.368L246.971 331.208V331.624C246.971 333.096 246.107 334.024 244.683 334.024ZM252.593 335V328.44H254.129V327.176H252.593V324.728H251.089V327.176H249.553V328.44H251.089V335H252.593ZM258.777 335.192C260.713 335.192 262.025 334.248 262.409 332.568H261.001C260.745 333.464 259.977 333.944 258.809 333.944C257.321 333.944 256.457 333.032 256.345 331.384L262.392 331.368V330.808C262.392 328.488 260.937 326.952 258.713 326.952C256.441 326.952 254.889 328.648 254.889 331.096C254.889 333.528 256.473 335.192 258.777 335.192ZM258.713 328.216C260.041 328.216 260.889 329.08 260.889 330.376H256.377C256.569 329 257.401 328.216 258.713 328.216ZM267.208 335.192C268.456 335.192 269.512 334.648 270.024 333.576L270.152 335H271.496V323.224H270.008V328.44C269.48 327.48 268.472 326.952 267.272 326.952C264.952 326.952 263.56 328.712 263.56 331.112C263.56 333.496 264.936 335.192 267.208 335.192ZM267.512 333.832C265.976 333.832 265.08 332.68 265.08 331.064C265.08 329.464 265.976 328.312 267.512 328.312C269.048 328.312 269.992 329.464 269.992 331.064C269.992 332.696 269.048 333.832 267.512 333.832ZM277.529 331.096C277.529 333.56 279.049 335.192 281.353 335.192C283.241 335.192 284.697 334.056 285.001 332.36H283.497C283.225 333.288 282.425 333.848 281.353 333.848C279.929 333.848 279.017 332.76 279.017 331.08C279.017 329.384 279.993 328.296 281.417 328.296C282.425 328.296 283.225 328.824 283.481 329.816H284.985C284.713 328.072 283.337 326.952 281.369 326.952C279.081 326.952 277.529 328.648 277.529 331.096ZM291.996 327.176V331.304C291.996 332.984 291.244 333.864 289.868 333.864C288.716 333.864 287.996 333.224 287.996 331.544V327.176H286.492V332.04C286.492 333.96 287.516 335.192 289.34 335.192C290.492 335.192 291.532 334.632 291.98 333.816L292.14 335H293.484V327.176H291.996ZM294.87 332.728C294.87 334.216 296.038 335.192 297.878 335.192C299.734 335.192 301.014 334.248 301.014 332.76C301.014 331.592 300.358 330.984 299.03 330.664L297.654 330.328C296.886 330.136 296.502 329.784 296.502 329.256C296.502 328.536 297.03 328.12 297.974 328.12C298.886 328.12 299.414 328.616 299.446 329.4H300.886C300.854 327.912 299.734 326.952 298.022 326.952C296.294 326.952 295.078 327.864 295.078 329.304C295.078 330.456 295.734 331.144 297.126 331.48L298.502 331.8C299.318 332.008 299.574 332.328 299.574 332.856C299.574 333.576 298.966 334.008 297.91 334.008C296.918 334.008 296.31 333.528 296.31 332.728H294.87ZM304.89 335V328.44H306.426V327.176H304.89V324.728H303.386V327.176H301.85V328.44H303.386V335H304.89ZM307.185 331.08C307.185 333.496 308.913 335.192 311.265 335.192C313.601 335.192 315.329 333.496 315.329 331.08C315.329 328.664 313.601 326.968 311.265 326.968C308.913 326.968 307.185 328.664 307.185 331.08ZM308.705 331.08C308.705 329.448 309.745 328.312 311.265 328.312C312.769 328.312 313.825 329.448 313.825 331.08C313.825 332.712 312.769 333.848 311.265 333.848C309.745 333.848 308.705 332.712 308.705 331.08ZM318.498 335V330.36C318.498 329.112 319.25 328.328 320.386 328.328C321.442 328.328 322.114 329 322.114 330.232V335H323.602V330.36C323.602 329.112 324.354 328.312 325.49 328.312C326.546 328.312 327.234 329.016 327.234 330.248V335H328.706V329.88C328.706 328.072 327.618 326.952 325.826 326.952C324.61 326.952 323.666 327.56 323.298 328.536C322.898 327.56 322.034 326.952 320.818 326.952C319.714 326.952 318.882 327.464 318.482 328.2L318.338 327.176H316.994V335H318.498ZM334.167 335.192C336.103 335.192 337.415 334.248 337.799 332.568H336.391C336.135 333.464 335.367 333.944 334.199 333.944C332.711 333.944 331.847 333.032 331.735 331.384L337.783 331.368V330.808C337.783 328.488 336.327 326.952 334.103 326.952C331.831 326.952 330.279 328.648 330.279 331.096C330.279 333.528 331.863 335.192 334.167 335.192ZM334.103 328.216C335.431 328.216 336.279 329.08 336.279 330.376H331.767C331.959 329 332.791 328.216 334.103 328.216ZM343.943 327.112C343.639 327.048 343.415 327.016 343.143 327.016C342.071 327.016 341.287 327.56 340.967 328.376L340.871 327.192H339.463V335H340.967V330.856C340.967 329.352 341.847 328.488 343.271 328.488H343.943V327.112ZM158.05 355.728C158.05 357.216 159.218 358.192 161.058 358.192C162.914 358.192 164.194 357.248 164.194 355.76C164.194 354.592 163.538 353.984 162.21 353.664L160.834 353.328C160.066 353.136 159.682 352.784 159.682 352.256C159.682 351.536 160.21 351.12 161.154 351.12C162.066 351.12 162.594 351.616 162.626 352.4H164.066C164.034 350.912 162.914 349.952 161.202 349.952C159.474 349.952 158.258 350.864 158.258 352.304C158.258 353.456 158.914 354.144 160.306 354.48L161.682 354.8C162.498 355.008 162.754 355.328 162.754 355.856C162.754 356.576 162.146 357.008 161.09 357.008C160.098 357.008 159.49 356.528 159.49 355.728H158.05ZM171.269 350.176V354.304C171.269 355.984 170.517 356.864 169.141 356.864C167.989 356.864 167.269 356.224 167.269 354.544V350.176H165.765V355.04C165.765 356.96 166.789 358.192 168.613 358.192C169.765 358.192 170.805 357.632 171.253 356.816L171.413 358H172.757V350.176H171.269ZM174.271 354.096C174.271 356.56 175.791 358.192 178.095 358.192C179.983 358.192 181.439 357.056 181.743 355.36H180.239C179.967 356.288 179.167 356.848 178.095 356.848C176.671 356.848 175.759 355.76 175.759 354.08C175.759 352.384 176.735 351.296 178.159 351.296C179.167 351.296 179.967 351.824 180.223 352.816H181.727C181.455 351.072 180.079 349.952 178.111 349.952C175.823 349.952 174.271 351.648 174.271 354.096ZM182.818 354.096C182.818 356.56 184.338 358.192 186.642 358.192C188.53 358.192 189.986 357.056 190.29 355.36H188.786C188.514 356.288 187.714 356.848 186.642 356.848C185.218 356.848 184.306 355.76 184.306 354.08C184.306 352.384 185.282 351.296 186.706 351.296C187.714 351.296 188.514 351.824 188.77 352.816H190.274C190.002 351.072 188.626 349.952 186.658 349.952C184.37 349.952 182.818 351.648 182.818 354.096ZM195.253 358.192C197.189 358.192 198.501 357.248 198.885 355.568H197.477C197.221 356.464 196.453 356.944 195.285 356.944C193.797 356.944 192.933 356.032 192.821 354.384L198.869 354.368V353.808C198.869 351.488 197.413 349.952 195.189 349.952C192.917 349.952 191.365 351.648 191.365 354.096C191.365 356.528 192.949 358.192 195.253 358.192ZM195.189 351.216C196.517 351.216 197.365 352.08 197.365 353.376H192.853C193.045 352 193.877 351.216 195.189 351.216ZM199.909 355.728C199.909 357.216 201.077 358.192 202.917 358.192C204.773 358.192 206.053 357.248 206.053 355.76C206.053 354.592 205.397 353.984 204.069 353.664L202.693 353.328C201.925 353.136 201.541 352.784 201.541 352.256C201.541 351.536 202.069 351.12 203.013 351.12C203.925 351.12 204.453 351.616 204.485 352.4H205.925C205.893 350.912 204.773 349.952 203.061 349.952C201.333 349.952 200.117 350.864 200.117 352.304C200.117 353.456 200.773 354.144 202.165 354.48L203.541 354.8C204.357 355.008 204.613 355.328 204.613 355.856C204.613 356.576 204.005 357.008 202.949 357.008C201.957 357.008 201.349 356.528 201.349 355.728H199.909ZM207.081 355.728C207.081 357.216 208.249 358.192 210.089 358.192C211.945 358.192 213.225 357.248 213.225 355.76C213.225 354.592 212.569 353.984 211.241 353.664L209.865 353.328C209.097 353.136 208.713 352.784 208.713 352.256C208.713 351.536 209.241 351.12 210.185 351.12C211.097 351.12 211.625 351.616 211.657 352.4H213.097C213.065 350.912 211.945 349.952 210.233 349.952C208.505 349.952 207.289 350.864 207.289 352.304C207.289 353.456 207.945 354.144 209.337 354.48L210.713 354.8C211.529 355.008 211.785 355.328 211.785 355.856C211.785 356.576 211.177 357.008 210.121 357.008C209.129 357.008 208.521 356.528 208.521 355.728H207.081ZM220.772 358V353.36C220.772 352.112 221.524 351.328 222.66 351.328C223.716 351.328 224.388 352 224.388 353.232V358H225.876V353.36C225.876 352.112 226.628 351.312 227.764 351.312C228.82 351.312 229.508 352.016 229.508 353.248V358H230.98V352.88C230.98 351.072 229.892 349.952 228.1 349.952C226.884 349.952 225.94 350.56 225.572 351.536C225.172 350.56 224.308 349.952 223.092 349.952C221.988 349.952 221.156 350.464 220.756 351.2L220.612 350.176H219.268V358H220.772ZM235.353 358.192C236.617 358.192 237.689 357.632 238.089 356.736L238.249 358H239.529V353.088C239.529 350.976 238.217 349.952 236.281 349.952C234.265 349.952 232.921 351.024 232.921 352.656H234.233C234.233 351.712 234.953 351.152 236.217 351.152C237.273 351.152 238.057 351.616 238.057 352.928V353.152L235.593 353.344C233.753 353.488 232.681 354.384 232.681 355.824C232.681 357.248 233.673 358.192 235.353 358.192ZM235.785 357.024C234.809 357.024 234.201 356.608 234.201 355.776C234.201 355.008 234.745 354.496 236.073 354.368L238.073 354.208V354.624C238.073 356.096 237.209 357.024 235.785 357.024ZM243.115 358V353.856C243.115 352.336 243.931 351.328 245.339 351.328C246.491 351.328 247.227 351.968 247.227 353.552V358H248.731V353.216C248.731 351.216 247.787 349.952 245.723 349.952C244.619 349.952 243.627 350.48 243.131 351.376L242.971 350.176H241.611V358H243.115ZM253.103 358.192C254.367 358.192 255.439 357.632 255.839 356.736L255.999 358H257.279V353.088C257.279 350.976 255.967 349.952 254.031 349.952C252.015 349.952 250.671 351.024 250.671 352.656H251.983C251.983 351.712 252.703 351.152 253.967 351.152C255.023 351.152 255.807 351.616 255.807 352.928V353.152L253.343 353.344C251.503 353.488 250.431 354.384 250.431 355.824C250.431 357.248 251.423 358.192 253.103 358.192ZM253.535 357.024C252.559 357.024 251.951 356.608 251.951 355.776C251.951 355.008 252.495 354.496 253.823 354.368L255.823 354.208V354.624C255.823 356.096 254.959 357.024 253.535 357.024ZM258.865 353.888C258.865 356.08 260.273 357.792 262.497 357.792C263.729 357.792 264.753 357.248 265.265 356.336V357.904C265.265 359.392 264.305 360.352 262.833 360.352C261.521 360.352 260.657 359.68 260.465 358.528H258.961C259.249 360.512 260.705 361.712 262.833 361.712C265.233 361.712 266.753 360.144 266.753 357.68V350.176H265.409L265.297 351.504C264.801 350.528 263.825 349.952 262.561 349.952C260.289 349.952 258.865 351.68 258.865 353.888ZM260.369 353.856C260.369 352.416 261.265 351.264 262.769 351.264C264.305 351.264 265.201 352.352 265.201 353.856C265.201 355.392 264.273 356.48 262.753 356.48C261.281 356.48 260.369 355.328 260.369 353.856ZM272.3 358.192C274.236 358.192 275.548 357.248 275.932 355.568H274.524C274.268 356.464 273.5 356.944 272.332 356.944C270.844 356.944 269.98 356.032 269.868 354.384L275.916 354.368V353.808C275.916 351.488 274.46 349.952 272.236 349.952C269.964 349.952 268.412 351.648 268.412 354.096C268.412 356.528 269.996 358.192 272.3 358.192ZM272.236 351.216C273.564 351.216 274.412 352.08 274.412 353.376H269.9C270.092 352 270.924 351.216 272.236 351.216ZM282.076 350.112C281.772 350.048 281.548 350.016 281.276 350.016C280.204 350.016 279.42 350.56 279.1 351.376L279.004 350.192H277.596V358H279.1V353.856C279.1 352.352 279.98 351.488 281.404 351.488H282.076V350.112Z" fill="#5D728C"/>
<path d="M206.074 108.936C210.746 108.936 213.818 105.768 213.818 101.256C213.818 96.68 210.778 93.608 206.074 93.608H196.826V117H200.922V108.936H206.074ZM205.274 97.256C207.994 97.256 209.53 98.664 209.53 101.224C209.53 103.784 208.026 105.288 205.21 105.288H200.922V97.256H205.274ZM226.608 101.128C225.968 100.968 225.424 100.904 224.88 100.904C222.768 100.904 221.264 101.96 220.592 103.528L220.368 101.224H216.688V117H220.592V109.32C220.592 106.248 222.352 104.744 225.168 104.744H226.608V101.128ZM227.791 109.064C227.791 113.992 231.343 117.384 236.239 117.384C241.135 117.384 244.687 113.992 244.687 109.064C244.687 104.136 241.135 100.744 236.239 100.744C231.343 100.744 227.791 104.136 227.791 109.064ZM231.695 109.064C231.695 106.184 233.551 104.232 236.239 104.232C238.927 104.232 240.783 106.184 240.783 109.064C240.783 111.944 238.927 113.896 236.239 113.896C233.551 113.896 231.695 111.944 231.695 109.064Z" fill="#043344"/>
<path d="M135.516 152.44H128.388V185H148.364V178.4H135.516V152.44ZM159.14 185.572C165.168 185.572 169.524 182.448 170.316 177.564H164.112C163.628 179.148 161.824 180.072 159.272 180.072C156.28 180.072 154.652 178.708 154.256 175.804L170.228 175.716V174C170.228 166.828 165.916 162.296 159.008 162.296C152.364 162.296 147.744 167.092 147.744 173.956C147.744 180.732 152.496 185.572 159.14 185.572ZM159.052 167.796C161.78 167.796 163.496 169.292 163.496 171.624H154.344C154.872 168.984 156.368 167.796 159.052 167.796ZM180.273 185V168.632H184.453V163H180.273V156.18H173.497V163H169.317V168.632H173.497V185H180.273ZM192.823 156.664C192.823 153.76 191.239 151.824 188.819 151.824C186.619 151.824 185.123 153.364 185.123 155.564C185.123 157.72 186.531 159.04 188.379 159.04C188.863 159.04 189.303 158.952 189.655 158.776C189.655 160.58 188.203 161.768 186.047 162.164V164.584C190.095 164.144 192.823 160.976 192.823 156.664ZM191.334 178.048C191.334 182.492 194.986 185.572 200.794 185.572C206.514 185.572 210.518 182.712 210.518 178.004C210.518 174.484 208.538 172.812 204.93 172.02L200.838 171.14C199.298 170.788 198.462 170.216 198.462 169.204C198.462 168.016 199.43 167.224 200.97 167.224C202.598 167.224 203.522 168.236 203.522 169.732H209.946C209.946 165.288 206.382 162.296 201.278 162.296C195.998 162.296 192.082 164.936 192.082 169.512C192.082 173.384 194.062 175.144 198.11 176.024L202.158 176.904C203.786 177.256 204.138 177.96 204.138 178.62C204.138 179.764 203.17 180.512 201.058 180.512C198.99 180.512 197.846 179.588 197.758 178.048H191.334ZM235.339 185.528C243.479 185.528 249.551 180.732 250.695 173.472H243.303C242.423 176.684 239.475 178.664 235.471 178.664C230.235 178.664 226.979 174.836 226.979 168.72C226.979 162.516 230.191 158.776 235.471 158.776C239.387 158.776 242.159 160.624 243.127 163.88H250.651C249.639 156.576 243.787 151.912 235.647 151.912C225.923 151.912 219.455 158.6 219.455 168.764C219.455 179.06 225.571 185.528 235.339 185.528ZM258.547 185V172.944C258.547 170.216 260.263 168.456 262.947 168.456C265.279 168.456 266.819 170.26 266.819 173.032V185H273.595V171.404C273.595 165.64 270.559 162.296 265.323 162.296C262.463 162.296 259.955 163.396 258.591 165.288V151.824H251.771V185H258.547ZM282.459 185.572C285.759 185.572 288.663 184.12 289.367 182.096L289.807 185H295.791V172.152C295.791 165.86 292.183 162.296 285.803 162.296C279.511 162.296 275.419 165.552 275.419 170.524H281.051C281.051 168.544 282.591 167.444 285.451 167.444C287.871 167.444 289.191 168.588 289.191 170.744V171.096L283.031 171.58C277.751 171.976 274.891 174.484 274.891 178.532C274.891 182.844 277.795 185.572 282.459 185.572ZM284.835 180.556C282.767 180.556 281.799 179.808 281.799 178.224C281.799 176.816 282.855 176.156 285.803 175.892L289.235 175.584V176.772C289.235 179.28 287.431 180.556 284.835 180.556ZM306.684 185V168.632H310.864V163H306.684V156.18H299.908V163H295.728V168.632H299.908V185H306.684Z" fill="#EC9A2B"/>
</g>
<defs>
<filter id="filter0_d_1183_17378" x="29" y="45" width="357" height="622" filterUnits="userSpaceOnUse" color-interpolation-filters="sRGB">
<feFlood flood-opacity="0" result="BackgroundImageFix"/>
<feColorMatrix in="SourceAlpha" type="matrix" values="0 0 0 0 0 0 0 0 0 0 0 0 0 0 0 0 0 0 127 0" result="hardAlpha"/>
<feMorphology radius="5" operator="erode" in="SourceAlpha" result="effect1_dropShadow_1183_17378"/>
<feOffset dx="-15" dy="15"/>
<feGaussianBlur stdDeviation="7.5"/>
<feComposite in2="hardAlpha" operator="out"/>
<feColorMatrix type="matrix" values="0 0 0 0 0.364706 0 0 0 0 0.447059 0 0 0 0 0.54902 0 0 0 0.16 0"/>
<feBlend mode="normal" in2="BackgroundImageFix" result="effect1_dropShadow_1183_17378"/>
<feBlend mode="normal" in="SourceGraphic" in2="effect1_dropShadow_1183_17378" result="shape"/>
</filter>
<filter id="filter1_ddd_1183_17378" x="0" y="0" width="440" height="707" filterUnits="userSpaceOnUse" color-interpolation-filters="sRGB">
<feFlood flood-opacity="0" result="BackgroundImageFix"/>
<feColorMatrix in="SourceAlpha" type="matrix" values="0 0 0 0 0 0 0 0 0 0 0 0 0 0 0 0 0 0 127 0" result="hardAlpha"/>
<feMorphology radius="7" operator="erode" in="SourceAlpha" result="effect1_dropShadow_1183_17378"/>
<feOffset dy="11"/>
<feGaussianBlur stdDeviation="7.5"/>
<feColorMatrix type="matrix" values="0 0 0 0 0.364706 0 0 0 0 0.447059 0 0 0 0 0.54902 0 0 0 0.16 0"/>
<feBlend mode="normal" in2="BackgroundImageFix" result="effect1_dropShadow_1183_17378"/>
<feColorMatrix in="SourceAlpha" type="matrix" values="0 0 0 0 0 0 0 0 0 0 0 0 0 0 0 0 0 0 127 0" result="hardAlpha"/>
<feMorphology radius="8" operator="dilate" in="SourceAlpha" result="effect2_dropShadow_1183_17378"/>
<feOffset dy="9"/>
<feGaussianBlur stdDeviation="23"/>
<feColorMatrix type="matrix" values="0 0 0 0 0.364706 0 0 0 0 0.447059 0 0 0 0 0.54902 0 0 0 0.08 0"/>
<feBlend mode="normal" in2="effect1_dropShadow_1183_17378" result="effect2_dropShadow_1183_17378"/>
<feColorMatrix in="SourceAlpha" type="matrix" values="0 0 0 0 0 0 0 0 0 0 0 0 0 0 0 0 0 0 127 0" result="hardAlpha"/>
<feMorphology radius="3" operator="dilate" in="SourceAlpha" result="effect3_dropShadow_1183_17378"/>
<feOffset dy="24"/>
<feGaussianBlur stdDeviation="19"/>
<feColorMatrix type="matrix" values="0 0 0 0 0.364706 0 0 0 0 0.447059 0 0 0 0 0.54902 0 0 0 0.1 0"/>
<feBlend mode="normal" in2="effect2_dropShadow_1183_17378" result="effect3_dropShadow_1183_17378"/>
<feBlend mode="normal" in="SourceGraphic" in2="effect3_dropShadow_1183_17378" result="shape"/>
</filter>
</defs>
</svg>
