<svg width="40" height="40" viewBox="0 0 40 40" fill="none" xmlns="http://www.w3.org/2000/svg">
<circle cx="20" cy="20" r="20" fill="white"/>
<path fill-rule="evenodd" clip-rule="evenodd" d="M20 31C14 28.3271 11 25.6604 11 23V13C11 12.2324 11.2946 12.054 12.1099 11.5603L12.1099 11.5603C12.3568 11.4108 12.6514 11.2324 13 11C13.1618 10.8921 16.5632 9 20 9C22.9952 9 25.5 10 27 11C27.3486 11.2324 27.6432 11.4108 27.8901 11.5603C28.7054 12.054 29 12.2324 29 13C29.0197 13.2172 29.01 17.8371 29.0038 20.7947C29.0017 21.8033 29 22.6186 29 23C29 25.6667 26 28.3333 20 31ZM27 23C27 22.7697 27.0006 22.3838 27.0018 21.7547L27.0059 19.8014C27.0072 19.1695 27.0082 18.6272 27.009 18.1098C27.0127 15.8776 27.0117 13.9618 27.0096 13.3693L26.8722 13.284C26.5488 13.0834 26.1274 12.8219 25.8906 12.6641C24.4143 11.6799 22.2602 11 20 11C17.8381 11 15.0286 12.0513 14.1094 12.6641C13.8726 12.8219 13.4512 13.0834 13.1278 13.284L13.1278 13.284L13.1278 13.284L13 13.3633V23C13 24.5085 15.2291 26.5687 20.0009 28.802C24.7722 26.5737 27 24.5142 27 23ZM25 19C25 17.8954 24.1046 17 23 17V15C23 13.3431 21.6569 12 20 12C18.3431 12 17 13.3431 17 15V17C15.8954 17 15 17.8954 15 19V23C15 24.1046 15.8954 25 17 25H23C24.1046 25 25 24.1046 25 23V19ZM21 15V17H19V15C19 14.4477 19.4477 14 20 14C20.5523 14 21 14.4477 21 15ZM17 23V19H23V23H17ZM19 21C19 21.5523 19.4477 22 20 22C20.5523 22 21 21.5523 21 21C21 20.4477 20.5523 20 20 20C19.4477 20 19 20.4477 19 21Z" fill="#205260"/>
</svg>
