<svg width="149" height="57" viewBox="0 0 149 57" fill="none" xmlns="http://www.w3.org/2000/svg">
<g clip-path="url(#clip0_1_1018)">
<path d="M46.2464 28.1006L40.0409 13.1407C39.607 12.109 38.4353 11.6361 37.4372 12.066C36.3958 12.4959 35.9184 13.6566 36.3524 14.6453L41.4296 26.8969H25.1131V13.8715C25.1131 12.7968 24.2018 11.894 23.0735 11.894C21.9452 11.894 21.0773 12.7968 21.0773 13.8715V43.5334C21.0773 44.6511 21.9886 45.5108 23.0735 45.5108C24.1584 45.5108 25.0697 44.6081 25.0697 43.5334V30.8519H41.3428L36.309 42.8026C35.875 43.8343 36.3524 44.995 37.3938 45.4249C37.6542 45.5108 37.9146 45.5968 38.1749 45.5968C38.9561 45.5968 39.6938 45.1239 40.0409 44.3931L46.2464 29.6482C46.4634 29.1753 46.4634 28.6165 46.2464 28.1006Z" fill="#1A938A"/>
<path d="M61.3479 13.0977C61.0441 12.3669 60.3498 11.894 59.5253 11.894C58.7442 11.894 58.0065 12.3669 57.6593 13.0547L44.2069 42.7166C43.7729 43.7053 44.2069 44.909 45.2049 45.3389C46.203 45.7688 47.4181 45.3389 47.852 44.3502L59.4385 18.8151L70.5476 44.3502C70.8948 45.081 71.6325 45.5538 72.3702 45.5538C72.6306 45.5538 72.8909 45.5108 73.1513 45.3819C74.1494 44.952 74.6267 43.7913 74.1928 42.7596L61.3479 13.0977Z" fill="#1A938A"/>
<path d="M126.831 42.7596L113.899 13.0977C113.595 12.3669 112.858 11.894 112.077 11.894C111.295 11.894 110.558 12.3669 110.211 13.0547L96.7582 42.7166C96.3242 43.7053 96.7582 44.909 97.7562 45.3389C98.7543 45.7688 99.9694 45.3389 100.403 44.3502L111.99 18.8151L123.099 44.3502C123.446 45.081 124.184 45.5538 124.921 45.5538C125.182 45.5538 125.442 45.5108 125.703 45.3819C126.787 44.952 127.265 43.7913 126.831 42.7596Z" fill="#1A938A"/>
<path d="M92.1149 41.5559H81.7869V13.8715C81.7869 12.7538 80.8756 11.894 79.7907 11.894C78.7059 11.894 77.7946 12.7968 77.7946 13.8715V43.5334C77.7946 44.6511 78.7059 45.5108 79.7907 45.5108H92.1583C93.2866 45.5108 94.1545 44.6081 94.1545 43.5334C94.1111 42.4587 93.1998 41.5559 92.1149 41.5559Z" fill="#1A938A"/>
</g>
<defs>
<clipPath id="clip0_1_1018">
<rect width="105.927" height="33.6598" fill="white" transform="translate(21.0773 11.894)"/>
</clipPath>
</defs>
</svg>
