<svg width="149" height="57" viewBox="0 0 149 57" fill="none" xmlns="http://www.w3.org/2000/svg">
<g clip-path="url(#clip0_1_1959)">
<path d="M46.2464 27.6074L40.0409 12.6475C39.607 11.6158 38.4353 11.1429 37.4372 11.5728C36.3958 12.0027 35.9184 13.1634 36.3524 14.1521L41.4296 26.4038H25.1131V13.3783C25.1131 12.3036 24.2018 11.4009 23.0735 11.4009C21.9452 11.4009 21.0773 12.3036 21.0773 13.3783V43.0402C21.0773 44.1579 21.9886 45.0177 23.0735 45.0177C24.1584 45.0177 25.0697 44.1149 25.0697 43.0402V30.3587H41.3428L36.309 42.3094C35.875 43.3411 36.3524 44.5018 37.3938 44.9317C37.6542 45.0177 37.9146 45.1037 38.1749 45.1037C38.9561 45.1037 39.6938 44.6308 40.0409 43.9L46.2464 29.155C46.4634 28.6821 46.4634 28.1233 46.2464 27.6074Z" fill="#1A938A"/>
<path d="M61.3478 12.6045C61.0441 11.8737 60.3497 11.4009 59.5252 11.4009C58.7441 11.4009 58.0064 11.8737 57.6593 12.5616L44.2068 42.2234C43.7729 43.2122 44.2068 44.4158 45.2049 44.8457C46.203 45.2756 47.418 44.8457 47.852 43.857L59.4385 18.322L70.5476 43.857C70.8947 44.5878 71.6324 45.0607 72.3702 45.0607C72.6305 45.0607 72.8909 45.0177 73.1513 44.8887C74.1493 44.4588 74.6267 43.2982 74.1927 42.2664L61.3478 12.6045Z" fill="#1A938A"/>
<path d="M126.831 42.2664L113.899 12.6045C113.595 11.8737 112.858 11.4009 112.077 11.4009C111.295 11.4009 110.558 11.8737 110.211 12.5616L96.7582 42.2234C96.3242 43.2122 96.7582 44.4158 97.7562 44.8457C98.7543 45.2756 99.9694 44.8457 100.403 43.857L111.99 18.322L123.099 43.857C123.446 44.5878 124.184 45.0607 124.921 45.0607C125.182 45.0607 125.442 45.0177 125.703 44.8887C126.787 44.4588 127.265 43.2982 126.831 42.2664Z" fill="#1A938A"/>
<path d="M92.1149 41.0628H81.7869V13.3783C81.7869 12.2606 80.8756 11.4009 79.7907 11.4009C78.7059 11.4009 77.7946 12.3036 77.7946 13.3783V43.0402C77.7946 44.1579 78.7059 45.0177 79.7907 45.0177H92.1583C93.2866 45.0177 94.1545 44.1149 94.1545 43.0402C94.1111 41.9655 93.1998 41.0628 92.1149 41.0628Z" fill="#1A938A"/>
</g>
<defs>
<clipPath id="clip0_1_1959">
<rect width="105.927" height="33.6598" fill="white" transform="translate(21.0773 11.4009)"/>
</clipPath>
</defs>
</svg>
