<svg width="149" height="63" viewBox="0 0 149 63" fill="none" xmlns="http://www.w3.org/2000/svg">
<path d="M37.4448 30.4602V28.4341L34.6445 28.6556V39.3361H37.4448V33.5377C37.4448 32.5149 37.8241 31.6661 38.4951 31.068C39.1662 30.4699 40.1284 30.1225 41.3247 30.1225C42.1319 30.1225 42.7732 30.3926 43.2108 30.8654C43.6485 31.3382 43.9013 32.0324 43.9013 32.8818V39.3361H46.7017V32.1486C46.7017 31.0102 46.2932 30.0647 45.5157 29.418C44.728 28.7718 43.5998 28.4438 42.2291 28.4438C41.1982 28.4438 40.2063 28.6464 39.3412 29.0322C38.5729 29.3796 37.9213 29.8713 37.4448 30.4602Z" fill="#1A938A"/>
<path fill-rule="evenodd" clip-rule="evenodd" d="M62.2988 39.3266V24.4199L59.4985 24.6414V30.1027C58.312 29.0319 56.7662 28.4429 55.1032 28.4429C53.431 28.4429 52.0019 28.9352 50.9905 29.8904C49.9596 30.8554 49.4247 32.2353 49.4247 33.8653C49.4247 35.5727 49.979 37.0012 50.9899 37.9948C51.9916 38.9889 53.4315 39.5481 55.1518 39.5481C56.9996 39.5481 58.6621 38.8825 59.7416 37.6955V39.3358L62.2988 39.3261V39.3266ZM53.3434 31.1055C53.9561 30.401 54.8114 29.9671 55.8131 29.9671C56.8829 29.9671 57.8068 30.401 58.4676 31.1055C59.1289 31.8101 59.5374 32.8037 59.5374 33.9712C59.5374 35.1772 59.1483 36.1805 58.4967 36.8942C57.8452 37.5988 56.9218 38.0137 55.8228 38.0137C54.8017 38.0137 53.9367 37.5988 53.324 36.8845C52.7113 36.1708 52.3417 35.148 52.3417 33.9226C52.3515 32.7842 52.7405 31.8101 53.3434 31.1055ZM86.4423 28.4429C84.7021 28.4429 82.757 28.6747 80.9 29.0605L80.725 29.0994L81.1918 30.2859L81.3085 30.2664C82.8592 30.0646 84.4215 29.9648 85.9853 29.9677C87.1231 29.9677 87.8914 30.093 88.3679 30.3437C88.6014 30.469 88.7667 30.6236 88.8634 30.7975C88.9704 30.9807 89.019 31.2028 89.019 31.4632V32.2347C89.019 32.2347 85.3828 32.4471 84.1769 32.534C82.8834 32.6594 81.8239 33.0452 81.0945 33.6627C80.3554 34.2803 79.9567 35.1291 79.9567 36.1324C79.9567 37.2422 80.404 38.1104 81.2793 38.6988C82.1059 39.2585 83.3113 39.5384 84.741 39.5384C86.1214 39.5384 87.8622 39.2007 89.2427 37.5988V39.3261H91.8102V31.347C91.8102 30.8262 91.7129 30.3826 91.4989 30.0157C91.285 29.6397 90.9543 29.3404 90.5167 29.1189C89.6706 28.6553 88.3193 28.4435 86.4423 28.4435V28.4429ZM89.0287 35.5921V33.4796C89.0287 33.4796 86.0533 33.6724 85.0716 33.7497C84.3811 33.8172 83.8268 34.0582 83.4572 34.4348C83.0877 34.8108 82.8737 35.322 82.8737 35.9492C82.8737 36.576 83.1266 37.0493 83.6128 37.3675C84.0796 37.6668 84.7604 37.8305 85.6449 37.8305C86.7341 37.8305 87.444 37.5318 88.0762 37.0974C88.6889 36.6635 89.0287 36.1032 89.0287 35.5921Z" fill="#1A938A"/>
<path d="M96.876 28.6553H93.6477L99.2484 39.3358H101.427L107.144 28.6553H105.267L101.009 36.6149L96.876 28.6553Z" fill="#1A938A"/>
<path fill-rule="evenodd" clip-rule="evenodd" d="M114.563 28.4429C112.628 28.4429 110.946 28.9351 109.731 29.8806C108.457 30.8747 107.786 32.3022 107.786 33.9906C107.786 35.679 108.457 37.0973 109.731 38.0914C110.956 39.0461 112.628 39.5481 114.563 39.5481C116.489 39.5481 118.161 39.0461 119.367 38.0909C120.631 37.0973 121.292 35.6693 121.292 33.9906C121.292 32.3022 120.621 30.8742 119.367 29.8806C118.151 28.9351 116.489 28.4434 114.563 28.4434V28.4429ZM111.811 31.0482C112.492 30.3242 113.435 29.8325 114.544 29.8325C116.771 29.8325 118.336 31.5398 118.336 33.9522C118.346 35.1679 117.927 36.181 117.257 36.9044C116.586 37.6376 115.643 38.1395 114.544 38.1395C113.435 38.1395 112.492 37.6376 111.811 36.9044C111.131 36.1712 110.713 35.1582 110.713 33.9522C110.713 32.7652 111.141 31.7619 111.811 31.0482Z" fill="#1A938A"/>
<path d="M126.699 30.981V28.4341L123.898 28.6556V39.3361H126.699V34.8501C126.699 33.6247 127.068 32.5825 127.759 31.8493C128.478 31.0777 128.974 30.6433 129.868 30.3732C130.549 30.1706 131.045 30.1609 131.618 30.1609H132.144L132.99 28.5497L132.785 28.5205C132.455 28.4724 131.803 28.4438 131.317 28.4438C130.396 28.4423 129.489 28.6741 128.681 29.1178C127.874 29.5615 127.192 30.2025 126.699 30.981Z" fill="#1A938A"/>
<path fill-rule="evenodd" clip-rule="evenodd" d="M19.5244 32.9781C20.0301 30.3144 22.7623 28.4429 25.6599 28.4429C30.0358 28.4429 31.6107 31.569 31.6107 33.2574C31.6107 33.6048 31.5426 33.875 31.3481 34.0581C31.1536 34.2418 30.8819 34.2996 30.5512 34.2996H22.208C22.3539 35.5153 22.9082 36.4414 23.7057 37.0687C24.5421 37.7343 25.6599 38.072 26.8659 38.072C28.3338 38.072 29.637 37.744 30.9499 37.2037L31.0856 37.1454L31.5815 38.3324L31.4454 38.3902C29.5203 39.2493 27.7898 39.5383 25.8155 39.5383C24.1336 39.5383 22.5387 39.0656 21.3619 38.1201C20.2732 37.2421 19.5535 35.9589 19.4466 34.2894H16.2864L16.9963 32.9776H19.5244V32.9781ZM22.2177 32.9781H27.6044C28.1393 32.9781 28.47 32.9003 28.6645 32.7847C28.8396 32.6788 28.9174 32.5145 28.9174 32.3022C28.9174 31.1638 27.692 29.7844 25.6702 29.7844C24.5901 29.7844 23.7738 30.1896 23.1902 30.8164C22.6651 31.3956 22.3344 32.1768 22.2177 32.9776V32.9781ZM71.4584 28.4429C68.2399 28.4429 65.2451 30.7488 65.2451 33.875C65.2451 35.7563 65.9939 37.1843 67.1701 38.1298C68.3469 39.0753 69.9418 39.5481 71.6238 39.5481C73.5974 39.5481 75.3285 39.2487 77.2536 38.3999L77.3898 38.3421L76.8938 37.1551L76.7576 37.2129C75.4452 37.7532 74.1421 38.0817 72.6735 38.0817C71.4682 38.0817 70.3595 37.7343 69.5134 37.0778C68.7164 36.4511 68.1518 35.5245 68.0162 34.3088H76.3492C76.6798 34.3088 76.9618 34.251 77.1466 34.0679C77.3411 33.8842 77.4092 33.614 77.4092 33.2671C77.4189 31.569 75.8337 28.4429 71.4584 28.4429ZM73.4127 32.9776H68.0259C68.1426 32.1671 68.4636 31.3956 69.0082 30.8164C69.5814 30.1988 70.4081 29.7844 71.4876 29.7844C73.5002 29.7844 74.7353 31.1638 74.7353 32.3022C74.7353 32.5145 74.6672 32.6788 74.4824 32.7847C74.2879 32.91 73.9573 32.9873 73.4127 32.9776Z" fill="#1A938A"/>
</svg>
