<svg width="149" height="63" viewBox="0 0 149 63" fill="none" xmlns="http://www.w3.org/2000/svg">
<path d="M41.5781 26.9615C41.0962 26.309 40.4484 25.798 39.7023 25.4818C38.8205 25.0834 37.862 24.8847 36.8949 24.8997C35.8909 24.9045 34.9012 25.1373 33.9999 25.5805C33.0987 26.0237 32.3093 26.6659 31.6912 27.4588V18.8354H27.1895V42.3768H31.6912V33.8869C31.6435 32.7879 31.7827 31.6887 32.1028 30.6364C32.3289 29.9555 32.7817 29.3731 33.3854 28.987C33.9905 28.6194 34.6868 28.4302 35.3943 28.4412C35.9643 28.4234 36.5273 28.5708 37.0158 28.8657C37.4387 29.1369 37.7584 29.5427 37.9234 30.0179C38.1526 31.1344 38.2379 32.2756 38.1775 33.4139V42.4253H42.6794V32.3708C42.7115 31.2381 42.6345 30.1049 42.4494 28.987C42.3028 28.2584 42.0061 27.5685 41.5781 26.9615V26.9615Z" fill="#1A938A"/>
<path d="M51.3439 27.75C50.8592 26.8698 50.2004 26.098 49.4077 25.4819C48.8255 25.113 48.1481 24.9232 47.4594 24.9362C46.4147 24.9448 45.3929 25.2428 44.5067 25.7973L45.8983 29.7269C46.5132 29.2799 47.2452 29.0227 48.004 28.9871C48.5857 28.9612 49.157 29.1464 49.6135 29.5086C50.1391 30.0207 50.4976 30.6803 50.6421 31.4006C50.9719 33.2857 51.0977 35.201 51.0173 37.1132V42.3769H55.519V25.3243H51.3439V27.75Z" fill="#1A938A"/>
<path d="M80.0244 27.6526C79.41 26.8206 78.6117 26.1423 77.6921 25.671C76.7726 25.1997 75.7567 24.9481 74.724 24.9359C73.7373 24.9127 72.7616 25.1468 71.8923 25.6151C71.055 26.0926 70.3707 26.7994 69.9197 27.6526C69.2572 26.8179 68.4341 26.1251 67.4994 25.6151C66.6439 25.1678 65.6931 24.9348 64.7282 24.9359C63.622 24.8999 62.5266 25.1638 61.5576 25.7C60.6843 26.2184 60.0011 27.0053 59.6093 27.9437C59.2442 29.0826 59.0884 30.2784 59.1495 31.4731V42.3887H63.6633V32.686C63.5685 31.5736 63.7257 30.4542 64.1231 29.4113C64.3312 29.0959 64.6187 28.8412 64.9566 28.6729C65.2944 28.5047 65.6707 28.4288 66.0472 28.4531C66.6863 28.4563 67.3082 28.6599 67.8261 29.0353C68.4045 29.4475 68.8301 30.0405 69.0362 30.7211C69.3246 31.8742 69.447 33.0627 69.3993 34.2505V42.4372H73.901V33.0255C73.8495 31.9483 73.9308 30.8688 74.1431 29.8115C74.2688 29.3824 74.5273 29.0044 74.8813 28.7321C75.2956 28.4789 75.7762 28.3563 76.2609 28.3803C76.9282 28.3707 77.5824 28.5653 78.1365 28.9383C78.7068 29.3323 79.132 29.9034 79.3466 30.5635C79.6407 31.7114 79.7631 32.8968 79.7097 34.0807V42.3645H84.2356V25.324H80.0848L80.0244 27.6526Z" fill="#1A938A"/>
<path d="M99.2292 27.8348C98.5955 26.934 97.7541 26.2 96.7764 25.6953C95.7988 25.1906 94.7138 24.9301 93.6141 24.9361C92.6784 24.9245 91.7507 25.1104 90.8913 25.4818C90.1614 25.7678 89.5189 26.2403 89.0277 26.8524C88.6044 27.4142 88.3035 28.0587 88.1443 28.7444C87.9594 29.744 87.8783 30.7601 87.9023 31.7765V42.3768H92.404V33.6807C92.3406 32.4804 92.4382 31.277 92.6944 30.1028C92.8663 29.6083 93.1932 29.1828 93.6262 28.8899C94.0873 28.5811 94.6331 28.4242 95.1874 28.4412C95.9387 28.4319 96.6744 28.6565 97.293 29.084C97.8729 29.5 98.2986 30.0973 98.5032 30.782C98.7892 32.0669 98.903 33.3844 98.8419 34.6995V42.4253H103.344V25.3242H99.1686L99.2292 27.8348Z" fill="#1A938A"/>
<path d="M119.402 25.3242L115.433 37.4527L111.355 25.3242H106.514L112.976 42.4254C112.744 43.2869 112.332 44.089 111.766 44.7783C111.477 45.102 111.116 45.3539 110.713 45.5138C110.31 45.6738 109.875 45.7376 109.443 45.7C108.804 45.6905 108.168 45.6215 107.543 45.4939L107.942 49.0232C108.777 49.2072 109.629 49.3007 110.483 49.3022C111.259 49.3103 112.032 49.2165 112.783 49.0232C113.396 48.8722 113.978 48.6135 114.501 48.2591C114.969 47.9253 115.378 47.5153 115.711 47.0463C116.166 46.3283 116.543 45.564 116.837 44.7661L117.914 41.7947L123.964 25.3849L119.402 25.3242Z" fill="#1A938A"/>
<path d="M19.4084 14.3237H15.9595V18.8355V41.7704V46.2822H20.4612H25.3502V41.7704H21.9497H20.4612V34.6996V26.0883V18.8355H25.3502V14.3237H21.9497H19.4084Z" fill="#1A938A"/>
<path d="M133.162 18.8355V14.3237H129.701H127.171H123.759V18.8355H128.66V26.0883V34.6996V41.7704H127.171H123.759V46.2822H128.66H133.162V41.7704V18.8355Z" fill="#1A938A"/>
</svg>
