<svg width="152" height="60" viewBox="0 0 152 60" fill="none" xmlns="http://www.w3.org/2000/svg">
<g clip-path="url(#clip0_1_1017)">
<path d="M69.7113 22.9231H67.8184C63.8974 22.9231 60.1117 24.0073 56.7856 26.0672C55.5417 25.0915 54.4331 23.9802 53.4596 22.7063C55.4336 19.4266 56.4882 15.6861 56.4882 11.8373V9.66888C56.4882 7.01262 54.3249 4.84424 51.6749 4.84424C50.3769 4.84424 49.1871 5.35923 48.2677 6.25368C47.3483 7.17524 46.8615 8.36785 46.8615 9.66888V11.8373C46.8615 15.6861 47.9162 19.4266 49.8902 22.7063C48.9437 23.9531 47.835 25.0915 46.5911 26.0672C43.2921 24.0073 39.4793 22.9231 35.5584 22.9231H33.6655C30.9884 22.9231 28.8251 25.0915 28.8251 27.7477V27.9917C28.8251 30.6479 30.9884 32.8163 33.6384 32.8163H35.5313C39.4523 32.8163 43.238 31.7321 46.5641 29.6722C47.808 30.6479 48.9167 31.7592 49.8631 33.0331C47.8891 36.3128 46.8345 40.0533 46.8345 43.9021V46.0705C46.8345 47.3716 47.3483 48.5642 48.2406 49.4857C49.16 50.4073 50.3498 50.8952 51.6478 50.8952C54.2978 50.8952 56.4611 48.7268 56.4611 46.0705V43.9021C56.4611 40.0533 55.4065 36.3128 53.4325 33.0331C54.379 31.7863 55.4877 30.6479 56.7586 29.6722C60.0576 31.7321 63.8434 32.8163 67.7914 32.8163H69.6842C72.3343 32.8163 74.4975 30.6479 74.4975 27.9917V27.7477C74.5246 25.0915 72.3613 22.9231 69.7113 22.9231ZM54.2167 27.9375C53.3244 28.6964 52.4861 29.5366 51.756 30.4311L51.6749 30.3227L51.5937 30.4311C50.8366 29.5366 50.0254 28.6964 49.133 27.9375L49.2141 27.8833L49.133 27.829C50.0254 27.0701 50.8636 26.2299 51.5937 25.3354L51.6749 25.4438L51.756 25.3354C52.5131 26.2299 53.3244 27.0701 54.2167 27.829L54.1086 27.8833L54.2167 27.9375ZM49.8361 9.66888C49.8361 9.18099 50.0254 8.72021 50.3769 8.36785C50.7284 8.01549 51.1881 7.82576 51.6749 7.82576C52.7024 7.82576 53.5137 8.666 53.5137 9.66888V11.8373C53.5137 14.629 52.8917 17.3395 51.6749 19.806C50.458 17.3395 49.8361 14.629 49.8361 11.8373V9.66888ZM35.5313 29.8619H33.6384C32.6109 29.8619 31.7997 29.0217 31.7997 28.0188V27.7748C31.7997 26.7449 32.6379 25.9317 33.6384 25.9317H35.5313C38.3977 25.9317 41.21 26.6093 43.7248 27.9104C41.21 29.1843 38.4247 29.8619 35.5313 29.8619ZM53.5137 46.0976C53.5137 47.1276 52.6754 47.9408 51.6749 47.9408C51.1881 47.9408 50.7284 47.751 50.3769 47.3987C50.0254 47.0463 49.8361 46.5855 49.8361 46.0976V43.9292C49.8361 41.1375 50.458 38.427 51.6749 35.9605C52.8917 38.427 53.5137 41.1375 53.5137 43.9292V46.0976ZM71.5501 28.0188C71.5501 29.0488 70.7118 29.8619 69.7113 29.8619H67.8184C64.952 29.8619 62.1398 29.1843 59.6249 27.8833C62.1398 26.5822 64.952 25.9046 67.8184 25.9046H69.7113C70.7388 25.9046 71.5501 26.7449 71.5501 27.7477V28.0188Z" fill="#1A938A"/>
<path d="M94.2646 22.3269C94.2646 21.8662 93.886 21.5138 93.4534 21.5138H85.5303C85.5303 21.5138 85.314 21.4325 85.314 21.0801C85.314 20.7278 85.8278 20.5651 85.8278 20.5651L93.4263 15.7405C93.4263 15.7405 94.2646 15.4695 94.2646 13.3282C94.2646 11.1869 93.183 10.4551 91.5605 10.4551H84.3946C83.9349 10.4551 83.5834 10.8345 83.5834 11.2682V12.2982C83.5834 12.759 83.9619 13.1113 84.3946 13.1113H91.3442C91.3442 13.1113 91.6146 13.1113 91.6146 13.545C91.6146 13.9787 91.1008 14.2497 91.1008 14.2497L83.8538 18.9389C83.8538 18.9389 82.718 19.5894 82.718 21.4867C82.718 23.384 84.0431 24.2243 85.314 24.2243H93.4534C93.9131 24.2243 94.2646 23.8448 94.2646 23.4111V22.3269Z" fill="#1A938A"/>
<path d="M98.8616 24.1969C99.3213 24.1969 99.6999 23.8175 99.6999 23.3567V11.268C99.6999 10.8072 99.3213 10.4277 98.8616 10.4277H97.4555C96.9958 10.4277 96.6172 10.8072 96.6172 11.268V23.3567C96.6172 23.8175 96.9958 24.1969 97.4555 24.1969H98.8616Z" fill="#1A938A"/>
<path d="M98.1585 8.42206C99.1442 8.42206 99.9432 7.62114 99.9432 6.63315C99.9432 5.64516 99.1442 4.84424 98.1585 4.84424C97.1728 4.84424 96.3738 5.64516 96.3738 6.63315C96.3738 7.62114 97.1728 8.42206 98.1585 8.42206Z" fill="#1A938A"/>
<path d="M98.1585 31.0544C99.1442 31.0544 99.9432 30.2535 99.9432 29.2655C99.9432 28.2775 99.1442 27.4766 98.1585 27.4766C97.1728 27.4766 96.3738 28.2775 96.3738 29.2655C96.3738 30.2535 97.1728 31.0544 98.1585 31.0544Z" fill="#1A938A"/>
<path d="M114.383 4.84424H112.977C112.517 4.84424 112.139 5.2237 112.139 5.68448V11.8915C112.139 11.8915 110.895 10.1026 108.218 10.1026C105.541 10.1026 102.512 10.6989 102.512 17.3395C102.512 23.9802 105.865 24.5765 108.813 24.5765C111.76 24.5765 115.248 23.8447 115.248 17.8003V5.68448C115.221 5.2237 114.843 4.84424 114.383 4.84424ZM108.84 21.8118C105.46 21.8118 105.378 20.321 105.378 17.3124C105.378 14.3038 105.757 12.7859 108.705 12.7859C111.652 12.7859 112.112 14.7646 112.112 14.7646V17.7732C112.139 19.9416 112.139 21.8118 108.84 21.8118Z" fill="#1A938A"/>
<path d="M88.1804 33.1958C88.1804 33.1958 88.0181 33.1145 85.314 33.1958C82.6099 33.2771 83.2589 35.0389 83.313 35.6352C83.313 35.6352 83.313 35.6352 83.313 35.6623C83.367 36.0418 83.7727 36.2857 84.1512 36.1231C84.4487 35.9876 85.1247 35.825 86.7472 35.825C87.3691 35.825 87.8559 35.9063 88.2885 36.0418C89.3431 36.3671 90.0462 37.0447 90.0462 40.1888V43.0077C90.0462 44.6611 88.4778 44.5527 88.4778 44.5527H87.937H86.8283H83.1778C82.8803 44.5527 82.6369 44.7966 82.6369 45.0948V47.1005C82.6369 47.3987 82.8803 47.6426 83.1778 47.6426H87.9099C87.937 47.6426 87.9911 47.6426 88.0181 47.6426C92.561 47.4258 92.8585 44.3087 92.8585 44.3087C92.8585 44.3087 92.8585 42.1133 92.8585 37.5868C92.8585 33.0603 88.1804 33.1958 88.1804 33.1958Z" fill="#1A938A"/>
<path d="M98.8616 33.0601H97.4555C96.9958 33.0601 96.6172 33.4395 96.6172 33.9003V41.6794V41.9504V44.0104C96.6172 44.0104 96.9958 45.989 94.3728 48.5098C94.1564 48.6995 94.1294 49.0518 94.2917 49.2687L95.211 50.5697C95.4003 50.8408 95.7789 50.895 96.0493 50.6781C97.1039 49.8379 99.5647 47.5882 99.6728 44.3627V41.9233V41.327V33.9003C99.6999 33.4395 99.3213 33.0601 98.8616 33.0601Z" fill="#1A938A"/>
</g>
<defs>
<clipPath id="clip0_1_1017">
<rect width="86.3963" height="46.078" fill="white" transform="translate(28.8251 4.84424)"/>
</clipPath>
</defs>
</svg>
