<svg width="149" height="63" viewBox="0 0 149 63" fill="none" xmlns="http://www.w3.org/2000/svg">
<path d="M31.8645 41.1149C31.1938 41.3496 29.6138 41.4908 28.6074 41.4908C25.4928 41.4908 23.1936 40.4581 21.8522 38.7195C20.8459 37.4045 20.4147 35.7135 20.4147 32.9891V26.3203H15.9595V21.9985H20.4154V13.1685H25.6367V22.0461H32.0084V26.3671H25.6367V33.6474C25.6367 34.8212 25.8285 35.5256 26.2597 36.0427C26.7864 36.6534 27.601 36.9818 28.8946 36.9818C29.6615 36.9818 30.6671 36.8406 31.0028 36.7938L31.8645 41.1149ZM98.7923 50.5556L104.158 39.1891L95.4382 22.0461H101.188L106.889 33.5062L112.159 22.0461H117.668L104.254 50.6024H98.7923V50.5556ZM47.7225 22.0453V23.5959C46.1894 22.3745 44.2252 21.6701 42.0214 21.6701C36.7039 21.6701 32.4881 25.9912 32.4881 31.6273C32.4881 34.2105 33.446 36.6058 34.9791 38.2968C36.7039 40.2694 39.435 41.5376 42.3086 41.5376C44.2729 41.5376 46.1417 40.9269 47.7225 39.6118V41.1617H52.7528V22.0453H47.7225ZM42.4526 36.9342C39.4343 36.9342 36.9433 34.5397 36.9433 31.5329C36.9433 28.5744 39.3865 26.1316 42.4526 26.1316C45.471 26.1316 47.9619 28.5276 47.9619 31.5329C47.9658 32.2433 47.826 32.9474 47.5505 33.6044C47.2751 34.2615 46.8694 34.8585 46.357 35.3608C45.8447 35.8631 45.2358 36.2608 44.5656 36.5309C43.8954 36.801 43.1772 36.9381 42.4526 36.9342ZM65.7834 21.6233C63.5797 21.6233 61.6155 22.3277 60.0824 23.5491V13.1685H55.052V41.1149H60.0824V39.565C61.7117 40.8801 63.532 41.4908 65.4962 41.4908C68.3706 41.4908 71.1018 40.2226 72.8258 38.25C74.3588 36.5115 75.3175 34.1637 75.3175 31.5805C75.3652 25.9912 71.1018 21.6233 65.7842 21.6233H65.7834ZM65.3522 36.935C62.3346 36.935 59.8429 34.5397 59.8429 31.5337C59.8429 28.5744 62.2861 26.1323 65.3522 26.1323C68.3706 26.1323 70.8615 28.5276 70.8615 31.5337C70.8138 34.5397 68.3706 36.935 65.3522 36.935Z" fill="#1A938A"/>
<path d="M87.3903 21.6232C85.1858 21.6232 83.2223 22.3275 81.6892 23.5489V13.1683H76.6589V41.1147H81.6892V39.5649C83.3178 40.8799 85.138 41.4907 87.1023 41.4907C89.9767 41.4907 92.7078 40.2224 94.4326 38.2499C95.9657 36.5113 96.9236 34.1636 96.9236 31.5803C96.9236 25.9911 92.6601 21.6232 87.3903 21.6232ZM86.9106 36.9348C83.893 36.9348 81.4013 34.5395 81.4013 31.5335C81.4013 28.5743 83.8445 26.1322 86.9106 26.1322C89.9289 26.1322 92.4206 28.5275 92.4206 31.5335C92.3721 34.5395 89.9289 36.9348 86.9113 36.9348H86.9106ZM130.22 15.1409C130.888 15.7885 131.367 16.5992 131.609 17.4894H128.831L130.22 15.1416V15.1409ZM129.98 13.8734L127.345 18.3824H132.663C132.471 16.5027 131.465 14.9061 129.98 13.8727V13.8734ZM123.656 24.6285C124.482 25.0033 125.381 25.1959 126.291 25.1924C127.249 25.1924 128.159 25.0044 128.926 24.6285L126.291 20.1194L123.656 24.6292V24.6285ZM127.345 19.5563L129.98 24.0653C131.465 23.0326 132.471 21.4352 132.615 19.5563H127.345ZM128.926 13.2627C128.1 12.8879 127.201 12.6954 126.291 12.6988C125.332 12.6988 124.422 12.8867 123.656 13.2627L126.291 17.7717L128.926 13.2619V13.2627ZM125.189 19.4627H119.872C119.962 20.3538 120.243 21.2162 120.697 21.9933C121.152 22.7704 121.768 23.4446 122.507 23.9717L125.189 19.4619V19.4627ZM125.189 18.2881L122.554 13.779C121.069 14.8117 120.063 16.4091 119.919 18.2888H125.189V18.2881Z" fill="#1A938A"/>
</svg>
