<svg width="149" height="57" viewBox="0 0 149 57" fill="none" xmlns="http://www.w3.org/2000/svg">
<g clip-path="url(#clip0_1_1033)">
<path d="M74.9291 3.20777C92.2658 3.20777 109.66 3.20777 126.997 3.20777C128.273 3.20777 128.273 3.20777 128.273 4.55381C128.273 20.6478 128.273 36.8003 128.273 52.8943C128.273 53.0699 128.273 53.2454 128.273 53.421C128.389 54.0648 128.099 54.2989 127.519 54.1818C127.345 54.1818 127.171 54.1818 126.997 54.1818C92.2078 54.1818 57.4186 54.1818 22.6294 54.1818C21.3538 54.1818 21.3538 54.1818 21.3538 52.8943C21.3538 36.7418 21.3538 20.6478 21.3538 4.55381C21.3538 4.43676 21.3538 4.37824 21.3538 4.31972C21.3538 3.0322 21.2378 3.20777 22.4554 3.20777C39.908 3.20777 57.4186 3.20777 74.9291 3.20777ZM74.8132 52.4846C91.6859 52.4846 108.501 52.4846 125.373 52.4846C126.823 52.4846 126.649 52.6602 126.649 51.2556C126.649 36.2736 126.649 21.3501 126.649 6.36804C126.649 4.84643 126.649 4.84643 125.2 4.84643C91.57 4.84643 57.9984 4.84643 24.3688 4.84643C24.1369 4.84643 23.9629 4.84643 23.731 4.84643C23.1512 4.78791 22.8613 5.022 22.9772 5.60724C22.9772 5.72428 22.9772 5.89985 22.9772 6.0169C22.9772 21.116 22.9772 36.1566 22.9772 51.2556C22.9772 51.4312 22.9772 51.6068 22.9772 51.7824C22.9193 52.3091 23.0932 52.5432 23.6151 52.4846C23.847 52.4846 24.1369 52.4846 24.3688 52.4846C41.1836 52.4846 57.9984 52.4846 74.8132 52.4846Z" fill="#1A938A"/>
<path d="M82.6407 30.4796C83.3945 31.7672 84.5541 32.1768 86.0616 31.6501C87.2213 31.299 88.149 30.5967 89.0187 29.7774C89.2506 29.5433 89.5985 29.3677 89.8305 29.1921C89.9464 29.0751 90.0624 28.958 90.0624 28.841C90.0624 27.9046 90.0624 26.9682 90.0624 26.0318C90.0624 25.5637 89.8884 25.4466 89.4826 25.5051C89.2506 25.5051 89.0767 25.5051 88.8448 25.5051C88.3809 25.5051 88.149 25.271 88.149 24.7443C88.149 24.3347 88.2649 23.9835 88.7868 23.925C88.8448 23.925 88.8448 23.925 88.9028 23.925C89.3666 23.8665 90.0044 23.9835 90.2943 23.6909C90.5842 23.4568 90.5262 22.813 90.6422 22.4034C91.1061 20.8232 91.5699 19.2431 92.0338 17.663C92.0918 17.4289 92.2077 17.1948 92.3237 16.9607C92.6136 16.4925 93.2514 16.3169 93.7153 16.551C94.2371 16.8436 94.1791 17.2533 94.0052 17.78C93.4833 19.3602 92.9035 20.9403 92.4976 22.579C92.1497 24.042 92.0338 23.8665 93.5413 23.925C94.0632 23.925 94.527 23.8665 95.0488 23.925C95.3388 23.9835 95.5707 24.1591 95.8026 24.2761C95.6287 24.5688 95.5707 24.9784 95.3388 25.154C94.9329 25.3881 94.469 25.4466 94.0052 25.5051C93.5413 25.5637 93.0775 25.5637 92.6136 25.5051C92.1497 25.4466 91.9758 25.6807 91.9758 26.1489C92.0338 27.3194 92.0338 28.5484 92.2077 29.7188C92.4976 31.6501 94.643 32.4109 96.0925 31.1234C96.3244 30.9478 96.3824 30.5382 96.4404 30.187C96.7303 28.4898 96.9623 26.7927 97.3101 25.0955C97.3681 24.7443 97.716 24.3347 98.0639 24.1591C98.9336 23.8079 99.3975 24.2176 99.2236 25.0955C98.9916 26.5 98.7017 27.9046 98.4698 29.3092C98.4118 29.8359 98.4118 30.3626 98.5278 30.8893C98.7017 31.5916 99.1656 31.7672 99.8034 31.5331C100.615 31.2404 101.021 30.5382 101.079 29.6603C101.253 28.1972 101.485 26.6756 101.775 25.2125C101.891 24.6858 102.123 24.3347 102.702 24.1591C103.688 23.8665 103.862 24.042 103.688 25.0955C103.398 26.5586 103.166 28.0802 102.934 29.5433C102.876 29.8359 102.876 30.1285 102.876 30.5382C103.398 29.3677 103.804 28.3143 104.326 27.3194C104.732 26.5586 105.312 25.7978 105.891 25.154C106.297 24.7443 106.877 24.3932 107.399 24.2176C108.559 23.808 109.196 24.2761 109.023 25.4466C108.849 26.9097 108.559 28.3728 108.327 29.7774C108.327 29.8944 108.269 30.0115 108.269 30.07C108.153 31.0064 108.501 31.5916 109.138 31.6501C109.834 31.6501 110.53 30.9478 110.588 30.2455C110.646 28.1387 111.4 26.383 113.081 25.0955C113.719 24.6273 114.531 24.3347 115.285 24.042C115.748 23.8665 116.328 23.8079 116.56 24.5688C116.618 24.6858 117.024 24.7443 117.256 24.7443C118.358 24.7443 118.474 24.7443 118.3 25.8563C118.126 27.4364 117.836 28.958 117.604 30.5382C117.546 30.9478 117.488 31.3575 117.43 32.0013C118.184 31.5331 118.821 31.1234 119.459 30.7137C119.807 30.4796 120.155 30.2455 120.445 30.7137C120.677 31.1819 120.329 31.416 119.981 31.6501C119.053 32.2353 117.894 32.7035 117.314 33.5814C116.734 34.4007 116.676 35.6882 116.444 36.7417C115.98 38.3803 115.516 40.0775 114.531 41.4821C114.009 42.2429 113.313 42.7696 112.385 42.8866C110.878 43.0622 109.776 42.1258 110.008 40.6627C110.124 39.7849 110.414 38.79 110.936 38.0877C111.864 36.8587 112.965 35.6882 114.125 34.6933C115.111 33.874 115.864 33.0547 115.69 31.5916C115.516 31.8257 115.343 32.1183 115.169 32.3524C114.241 33.6399 112.675 33.874 111.574 32.7621C111.168 32.3524 110.994 32.4109 110.646 32.7035C109.892 33.2888 109.08 33.5229 108.153 33.4643C107.109 33.4058 106.471 32.8791 106.471 31.7672C106.471 30.8308 106.645 29.8944 106.761 29.0165C106.819 28.4898 106.935 28.0216 106.935 27.4949C106.935 27.2608 106.819 26.9097 106.645 26.8512C106.413 26.7927 106.065 26.9097 105.891 27.0267C105.66 27.2023 105.428 27.4949 105.312 27.7876C104.732 29.0751 104.21 30.4211 103.63 31.7086C103.572 31.8842 103.572 32.0598 103.514 32.2353C103.34 32.7621 103.282 33.2888 102.587 33.4058C102.065 33.4643 101.775 33.2888 101.369 32.3524C101.021 32.528 100.731 32.7621 100.383 32.9376C99.1656 33.6399 98.2379 33.5229 97.1942 32.5865C96.8463 32.2939 96.7303 32.4694 96.4984 32.645C95.7446 33.2302 94.8749 33.4058 94.0052 33.4058C92.3237 33.4058 91.28 32.7035 90.6422 31.1234C90.5262 30.8308 90.4683 30.5967 90.4103 30.4211C89.6565 31.0649 88.9607 31.8842 88.091 32.4694C86.1196 33.6984 84.0323 33.9325 81.9449 32.645C81.597 32.4109 81.3651 32.528 81.0752 32.7035C80.3214 33.1132 79.5676 33.5814 78.7559 33.8155C77.0164 34.3422 75.335 33.4643 74.8131 31.6501C74.5812 30.7723 74.5232 29.8359 74.4072 28.841C73.5375 29.0751 72.6678 29.3677 72.4359 30.5967C72.2619 31.6501 71.7981 32.645 71.5081 33.6984C71.3342 34.1666 71.1023 34.5178 70.5225 34.5178C69.7687 34.5178 69.4208 34.1081 69.5947 33.3473C69.7107 32.8206 69.9426 32.3524 70.1166 31.8257C70.2905 31.3575 70.4065 30.8893 70.5225 30.4211C69.8847 30.4211 69.3048 30.4796 68.783 30.4211C67.6813 30.3041 67.1015 29.6018 67.1595 28.4313C67.1595 28.1387 67.2755 27.7876 67.2755 27.4949C67.2175 26.9097 66.8116 26.6756 66.3477 27.0267C66.0578 27.2608 65.7679 27.5535 65.594 27.9046C65.0142 29.1921 64.4343 30.5382 63.9125 31.8257C63.7965 32.1183 63.7965 32.4694 63.6226 32.7621C63.4486 33.0547 63.1008 33.3473 62.8108 33.4643C62.347 33.5814 61.9991 33.3473 61.7672 32.8791C61.7092 32.7621 61.6512 32.645 61.5352 32.4109C60.7235 32.9962 60.0277 33.6399 59.042 33.4643C57.9983 33.2888 57.6504 32.4694 57.2446 31.4745C56.9547 31.8257 56.7807 32.1183 56.6068 32.4109C55.853 33.4058 54.8093 33.757 53.6497 33.4058C52.49 33.0547 52.0262 32.1183 51.9102 31.0649C51.6783 28.6069 52.548 26.5 54.5774 25.0369C55.2152 24.5688 56.0269 24.3932 56.8387 24.1591C57.1866 24.042 57.6504 24.042 57.7664 24.6273C57.8244 24.7443 58.1143 24.9199 58.2882 24.9199C58.5202 24.9784 58.8101 24.9199 59.042 24.9199C59.5059 24.9199 59.7958 25.0955 59.6798 25.6222C59.4479 26.8512 59.2739 28.0216 59.1 29.2506C59.042 29.8359 58.984 30.4211 58.984 30.9478C59.042 31.5916 59.4479 31.8842 60.0857 31.7086C60.8395 31.4745 61.4193 30.6552 61.5352 29.8359C61.7092 28.3728 61.9411 26.8512 62.231 25.3881C62.289 25.0369 62.5789 24.5688 62.9268 24.3932C63.2747 24.2176 63.7386 24.2761 64.1444 24.2761C64.1444 24.6273 64.2024 24.9784 64.1444 25.271C63.9705 26.2074 63.6806 27.0853 63.5646 28.0216C63.4486 28.7825 63.3907 29.6018 63.4486 30.4211C63.6226 30.0115 63.7965 29.6018 63.9705 29.1336C64.5503 27.6705 65.1881 26.2659 66.3477 25.271C66.8696 24.8614 67.4494 24.4517 68.0872 24.2761C69.0729 23.9835 69.5947 24.4517 69.5368 25.5051C69.4788 26.0904 69.3628 26.7341 69.3048 27.3194C69.2468 27.8461 69.1309 28.3728 69.7687 28.5484C70.4645 28.7825 71.2762 28.3143 71.3922 27.612C71.7981 25.4466 72.2039 23.2227 72.5518 21.0573C72.7838 19.5357 72.7838 17.9556 72.9577 16.434C73.0157 15.4976 73.3056 15.205 74.0014 15.2635C74.6392 15.322 74.8711 15.6732 74.8711 16.6095C74.7551 20.0624 74.3493 23.4568 73.5955 26.8512C73.5955 26.9682 73.5955 27.0267 73.5955 27.3779C75.277 26.2659 76.9005 25.271 78.466 24.2761C78.7559 24.1006 79.0458 23.8079 79.3357 23.6909C79.8576 23.4568 80.3214 23.6909 80.6113 24.1591C80.9012 24.6273 80.6693 24.9784 80.3214 25.271C79.2777 25.9733 78.292 26.7341 77.2484 27.4364C76.8425 27.6705 76.6106 27.9631 76.6106 28.4313C76.6685 29.2506 76.6106 30.07 76.7265 30.8893C76.9005 31.7672 77.4803 32.2353 78.35 32.0598C79.1038 31.8842 79.7996 31.5331 80.4954 31.1819C80.6693 31.0649 80.7273 30.5382 80.7273 30.2455C80.5533 28.958 80.7853 27.729 81.4231 26.6171C82.0609 25.4466 83.0466 24.6858 84.3222 24.4517C85.3079 24.2176 86.2936 24.3347 86.9893 25.154C87.6851 26.0318 87.6851 27.0853 87.2793 28.0802C86.9314 29.0165 86.1776 29.5433 85.3079 29.9529C84.2642 29.8944 83.4524 30.1285 82.6407 30.4796ZM55.2152 31.7672C55.2732 31.7672 55.5051 31.7672 55.6211 31.6501C56.0269 31.1234 56.5488 30.5967 56.7227 30.0114C57.1286 28.7239 57.3026 27.4364 57.5925 26.1489C57.7664 25.3881 57.6504 25.271 56.8387 25.4466C54.9253 25.9148 53.2438 29.2506 54.0556 31.0649C54.2295 31.5331 54.5774 31.8257 55.2152 31.7672ZM116.502 25.8563C116.56 25.3881 116.328 25.3296 115.922 25.3881C115.111 25.5051 114.531 25.9148 114.067 26.5C113.197 27.612 112.733 28.841 112.791 30.3041C112.849 31.1234 113.081 31.5916 113.661 31.7086C114.357 31.8842 114.821 31.5916 115.169 31.0064C115.285 30.7723 115.459 30.5967 115.516 30.3626C115.864 28.8995 116.154 27.3779 116.502 25.8563ZM115.169 35.3371C115.111 35.2786 114.995 35.2786 114.937 35.2201C113.777 36.215 112.617 37.2099 111.864 38.6144C111.574 39.1411 111.458 39.8434 111.4 40.4287C111.4 40.7213 111.69 41.1309 111.922 41.248C112.154 41.365 112.617 41.1895 112.849 41.0139C113.255 40.5457 113.603 40.0775 113.835 39.4923C114.357 38.1462 114.763 36.7417 115.169 35.3371ZM82.4667 29.3092C83.1045 29.0751 83.6844 28.8995 84.2062 28.6069C84.902 28.2557 85.4238 27.729 85.5398 26.9097C85.7137 25.9733 84.902 25.2125 84.0323 25.5637C83.6264 25.7392 83.2785 26.0904 82.9886 26.4415C82.4667 27.2608 82.2928 28.1387 82.4667 29.3092Z" fill="#1A938A"/>
<path d="M42.807 27.4951C44.5465 24.803 46.228 22.1695 47.9674 19.4774C48.6632 18.424 49.243 17.312 49.9388 16.2586C50.4607 15.4393 50.7506 15.2637 51.3304 15.4978C51.9682 15.7319 52.1421 16.2001 51.9682 17.1364C51.6783 18.6581 51.3304 20.1797 51.0405 21.6428C50.4607 24.6275 49.9968 27.6707 50.0548 30.7139C50.1128 32.06 49.9968 33.4645 51.0405 34.5765C51.0985 34.635 51.0405 35.0447 50.9245 35.2202C50.2867 35.9225 49.1271 35.864 48.6632 34.9861C48.3153 34.2839 48.0254 33.4645 47.9674 32.6452C47.7355 29.4264 48.1414 26.2661 48.6632 23.1059C48.7212 22.8718 48.7212 22.6377 48.8372 22.111C48.4893 22.5206 48.3153 22.7547 48.1994 23.0473C46.6338 25.3883 45.0104 27.7292 43.4448 30.0702C43.3289 30.2457 43.2129 30.3628 43.0969 30.4798C42.4012 31.2406 41.4155 31.1236 41.1256 30.0702C40.5457 28.1974 40.0819 26.2661 39.618 24.3934C39.3861 23.574 39.2122 22.7547 38.8643 21.9354C38.3424 23.6911 37.8206 25.5053 37.2987 27.261C35.7912 32.2941 33.9358 37.1515 31.6745 41.8919C31.5585 42.126 31.4426 42.3601 31.3266 42.5357C31.0367 43.1209 30.6308 43.1795 30.109 43.0039C29.5871 42.7698 29.3552 42.2431 29.5292 41.6578C29.5871 41.4823 29.7031 41.2482 29.7611 41.0726C33.24 33.9912 35.5593 26.5587 37.4727 18.9507C37.6466 18.1313 37.8786 17.3705 38.0525 16.5512C38.1685 15.966 38.5743 15.7319 39.0962 15.7319C39.676 15.7319 39.9659 16.083 40.0819 16.6683C40.6617 19.5944 41.2995 22.5206 41.9373 25.3883C42.1113 26.0906 42.3432 26.7928 42.5171 27.5536C42.6331 27.4951 42.7491 27.4951 42.807 27.4951Z" fill="#1A938A"/>
<path d="M86.0036 43.706C86.2935 41.9503 86.5834 40.2531 86.8734 38.4974C87.0473 37.3269 87.0473 37.3269 88.2649 37.3269C88.3809 37.3269 88.4969 37.3269 88.6128 37.3269C89.5985 37.3269 89.4825 37.2684 89.4825 38.2047C89.4825 41.3065 89.4825 44.4668 89.4825 47.5685C89.4825 48.1538 89.3086 48.3879 88.7288 48.3293C88.2069 48.2708 87.8011 48.3293 87.8011 47.5685C87.859 45.4617 87.8011 43.3548 87.7431 41.248C87.3952 43.0037 87.0473 44.7594 86.6994 46.5151C86.6414 46.9248 86.5255 47.3344 86.4675 47.8026C86.4095 48.2123 86.2935 48.3879 85.8297 48.3879C85.4238 48.3879 85.4238 48.1538 85.3658 47.8026C85.0179 45.8128 84.67 43.823 84.3221 41.8917C84.3221 41.7747 84.2642 41.5991 84.0902 41.4821C84.0902 43.1207 84.0902 44.7594 84.0902 46.3981C84.0902 46.7492 84.0902 47.0418 84.0902 47.393C84.0902 48.3293 83.6843 48.622 82.7566 48.3293C82.5827 48.2708 82.4667 47.9782 82.4667 47.7441C82.4087 46.9833 82.4667 46.2225 82.4667 45.4617C82.4667 43.0037 82.4667 40.5457 82.4667 38.1462C82.4667 37.4439 82.6407 37.3269 83.2785 37.3269C84.786 37.3269 84.728 37.3269 85.0179 38.8485C85.3078 40.4872 85.5978 42.0673 85.8877 43.706C85.9456 43.6474 86.0036 43.6474 86.0036 43.706Z" fill="#1A938A"/>
<path d="M99.9773 43.4719C99.9773 41.7747 99.9773 40.0775 99.9773 38.3804C99.9773 37.2684 99.9773 37.2684 101.079 37.3269C101.659 37.3269 101.659 37.6196 101.659 38.0877C101.659 40.3702 101.659 42.7111 101.659 44.9935C101.659 45.8714 101.659 46.6907 101.659 47.5686C101.659 47.8612 101.833 48.3879 101.253 48.3294C100.731 48.2708 100.093 48.622 99.8613 47.8027C99.5135 46.6907 99.1076 45.5788 98.7597 44.4668C98.5278 43.8231 98.2958 43.1208 97.89 42.477C97.89 43.9401 97.89 45.4032 97.89 46.8663C97.89 47.1004 97.89 47.2759 97.89 47.51C97.832 47.8027 97.832 48.2708 97.716 48.2708C97.3101 48.3294 96.8463 48.3294 96.4404 48.2708C96.3244 48.2708 96.2665 47.8612 96.2665 47.6271C96.2665 45.9884 96.2665 44.3498 96.2665 42.6526C96.2665 41.131 96.2665 39.6094 96.2665 38.1463C96.2665 37.8536 96.0925 37.3269 96.6723 37.3855C97.1362 37.444 97.774 37.0928 98.0059 37.9122C98.3538 39.1412 98.7597 40.3116 99.1656 41.4821C99.3975 42.1844 99.6294 42.8867 99.8613 43.589C99.8613 43.5304 99.9193 43.4719 99.9773 43.4719Z" fill="#1A938A"/>
<path d="M47.1557 42.7697C47.1557 41.1896 47.1557 39.6095 47.1557 38.0293C47.1557 37.4441 47.3296 37.2685 47.8515 37.3271C48.5473 37.3856 49.1851 37.3271 49.8809 37.3271C51.2724 37.3856 52.1421 38.0879 52.2001 39.4339C52.2581 41.6578 52.2581 43.8817 52.2001 46.1056C52.1421 47.4516 51.2724 48.2124 49.8809 48.271C49.1851 48.3295 48.4313 48.271 47.7355 48.271C47.1557 48.3295 47.0977 48.0369 47.0977 47.5687C47.1557 45.9885 47.1557 44.4084 47.1557 42.7697ZM48.8372 42.7697C48.8372 43.8232 48.8372 44.8766 48.8372 45.8715C48.8372 46.1056 49.0111 46.5738 49.0691 46.5738C49.475 46.5738 49.8809 46.5153 50.2287 46.2812C50.4027 46.1641 50.4607 45.7545 50.4607 45.5204C50.4607 43.7647 50.4607 42.0089 50.4607 40.2532C50.4607 40.0191 50.4027 39.8436 50.3447 39.6095C50.1128 39.0242 49.6489 38.9072 49.1271 38.9657C48.6052 39.0242 48.8372 39.551 48.8372 39.8436C48.8372 40.8385 48.8372 41.8334 48.8372 42.7697Z" fill="#1A938A"/>
<path d="M64.0285 14.5613C64.0285 16.1999 63.9705 17.7801 64.0285 19.4187C64.0285 20.0625 63.6806 20.121 63.2167 20.0625C62.8108 20.0039 62.231 20.238 62.289 19.4187C62.347 18.3653 62.289 17.2533 62.289 16.1999C62.289 15.1465 62.289 15.1465 61.4772 15.1465C60.7235 15.1465 60.7235 15.1465 60.7235 16.2584C60.7235 17.3119 60.6655 18.3653 60.7235 19.3602C60.7815 20.121 60.3176 20.0039 59.8538 20.0625C59.3319 20.0625 58.984 20.0625 58.984 19.3602C59.042 16.1414 58.984 12.9226 58.984 9.64527C58.984 9.17708 59.158 9.06003 59.6218 9.06003C60.7815 9.06003 60.7815 9.00151 60.7815 10.1135C60.7815 10.9328 60.7815 11.7521 60.7815 12.5714C60.7815 13.1567 60.7815 13.5664 61.5352 13.4493C62.347 13.3908 62.347 13.4493 62.347 12.5129C62.347 11.5765 62.347 10.6402 62.347 9.70379C62.347 9.2356 62.405 9.00151 62.9848 9.00151C64.0864 9.00151 64.0864 8.94298 64.0864 10.0549C64.0285 11.6351 64.0285 13.0982 64.0285 14.5613Z" fill="#1A938A"/>
<path d="M66.9855 37.3267C68.1452 37.3267 68.1452 37.3267 68.2612 38.3801C68.725 41.2477 69.1889 44.1154 69.6527 46.9831C69.6527 47.0416 69.6527 47.0416 69.6527 47.1001C69.8846 48.3291 69.6527 48.5632 68.4351 48.3291C68.2611 48.2706 68.0292 48.095 67.9712 47.8609C67.8553 47.5098 67.8553 47.1586 67.7973 46.8075C67.7393 46.5149 67.6813 46.0467 67.5074 45.9881C67.1015 45.8711 66.6377 45.9296 66.2318 45.9881C66.1158 45.9881 66.0578 46.2808 65.9999 46.3978C65.9419 46.8075 65.8259 47.2171 65.8259 47.6853C65.7679 48.1535 65.536 48.3291 65.0721 48.3291C64.0285 48.3291 64.0285 48.3291 64.2024 47.2757C64.6663 44.1739 65.2461 41.0722 65.7099 37.9704C65.8839 37.034 66.5797 37.4437 66.9855 37.3267ZM67.0435 40.2528C66.9856 40.2528 66.9276 40.2528 66.8696 40.3114C66.6956 41.4818 66.5217 42.6523 66.4057 43.8228C66.4057 43.9983 66.5797 44.291 66.6956 44.291C66.9855 44.291 67.4494 44.1154 67.4494 44.0569C67.3914 42.7694 67.2175 41.5404 67.0435 40.2528Z" fill="#1A938A"/>
<path d="M75.9727 48.212C75.6249 48.212 75.3929 48.212 75.161 48.2705C74.5812 48.3876 74.2913 48.1535 74.1753 47.5097C74.0014 46.4563 73.7114 45.4029 73.4795 44.3494C73.4215 43.9398 73.4215 43.5301 72.7837 43.5886C72.0879 43.6471 72.3779 44.1739 72.3779 44.4665C72.3199 45.5199 72.3199 46.5733 72.3779 47.5682C72.4358 48.2705 71.972 48.1535 71.5661 48.212C71.1602 48.212 70.8123 48.2705 70.8123 47.6267C70.8123 44.3494 70.8123 41.0721 70.8123 37.7948C70.8123 37.4436 70.9283 37.2681 71.2762 37.2681C72.0879 37.2681 72.8417 37.2681 73.6535 37.2681C74.8131 37.3266 75.4509 37.8533 75.6828 39.0238C75.9148 40.3698 76.0887 41.7159 75.045 42.8863C74.8711 43.0619 74.9291 43.5301 74.9871 43.8812C75.277 45.3443 75.6249 46.7489 75.9727 48.212ZM72.3779 40.4869C72.3779 40.8965 72.3199 41.2477 72.3779 41.6573C72.3779 41.8329 72.5518 42.067 72.6678 42.1255C73.3056 42.3596 74.0014 42.0085 74.0593 41.3062C74.1753 40.721 74.1173 40.1357 74.0014 39.5505C73.8854 38.8482 73.2476 38.9067 72.7258 38.9067C72.03 38.9653 72.3779 39.4334 72.3199 39.7846C72.3779 39.9602 72.3779 40.2528 72.3779 40.4869Z" fill="#1A938A"/>
<path d="M58.926 42.7696C58.926 41.2479 58.984 39.6678 58.926 38.1462C58.926 37.4439 59.158 37.2683 59.7958 37.3269C60.4336 37.3854 61.0714 37.3269 61.7092 37.3269C62.9848 37.3269 63.7965 37.9121 63.9705 39.1411C64.0864 40.136 64.0864 41.1309 63.8545 42.1258C63.5646 43.4133 62.9268 43.823 61.5932 43.823C60.6075 43.823 60.6655 43.7645 60.6655 44.7594C60.6655 45.7543 60.6655 46.7492 60.6655 47.8026C60.6655 48.5634 60.2016 48.3293 59.7958 48.3878C59.3899 48.3878 58.926 48.5049 58.926 47.8026C58.926 46.1054 58.926 44.4082 58.926 42.7696ZM60.6075 40.4871C60.6075 40.8383 60.6075 41.1309 60.6075 41.482C60.6075 41.7747 60.4916 42.2428 60.9554 42.2428C61.3613 42.2428 61.8831 42.0673 62.0571 41.8332C62.4629 41.0724 62.4629 40.1945 62.0571 39.4922C61.8831 39.1996 61.3033 39.1411 60.8974 39.0241C60.7815 39.3167 60.6655 39.5508 60.6075 39.8434C60.6075 39.9604 60.6075 40.253 60.6075 40.4871Z" fill="#1A938A"/>
<path d="M65.362 14.4442C65.362 12.8641 65.362 11.284 65.362 9.70383C65.362 9.17712 65.536 9.00155 65.9998 9.06007C67.0435 9.11859 68.1452 9.11859 69.1888 9.06007C69.8266 9.06007 69.7687 9.41121 69.7687 9.82088C69.7687 10.2305 69.9426 10.7573 69.1888 10.6987C68.667 10.6987 68.1452 10.6987 67.5653 10.6987C67.1595 10.6987 66.9855 10.8743 66.9855 11.284C66.9855 11.5181 66.9855 11.8107 66.9855 12.0448C66.9855 13.4493 66.9855 13.4493 68.3191 13.5079C69.0729 13.5079 68.8989 13.9761 68.8989 14.3857C68.8989 14.7369 69.0149 15.1465 68.3771 15.1465C66.9855 15.205 66.9855 15.205 66.9855 16.6681C66.9855 18.3653 66.9855 18.3653 68.609 18.3653C68.8409 18.3653 69.0729 18.3068 69.2468 18.3653C69.4208 18.4238 69.6527 18.5994 69.6527 18.775C69.8266 19.8869 69.7107 20.004 68.609 20.004C67.7393 20.004 66.8116 19.9455 65.9418 20.004C65.362 20.004 65.1881 19.8284 65.2461 19.2432C65.362 17.7216 65.362 16.0829 65.362 14.4442Z" fill="#1A938A"/>
<path d="M53.5337 42.7108C53.5337 41.1306 53.5337 39.5505 53.5337 37.9704C53.5337 37.4436 53.6497 37.2681 54.1715 37.2681C55.2152 37.3266 56.3168 37.3266 57.3605 37.2681C58.1143 37.2681 57.8824 37.7363 57.9403 38.1459C57.9403 38.5556 57.9403 38.9067 57.3605 38.9067C56.8387 38.8482 56.3168 38.9067 55.737 38.9067C55.3891 38.9067 55.2152 39.0238 55.2152 39.3749C55.2152 39.6675 55.2152 39.9602 55.2152 40.2528C55.2152 41.6573 55.2152 41.7159 56.5488 41.7159C57.3605 41.7159 57.1286 42.1841 57.1866 42.6522C57.1866 43.0619 57.3025 43.4716 56.6068 43.4716C55.2732 43.4716 55.2732 43.5301 55.2732 44.8761C55.2732 45.4614 55.0992 46.2222 55.3891 46.5148C55.679 46.8074 56.4328 46.6318 57.0126 46.6904C57.8824 46.6904 58.2882 47.2756 57.9403 48.0949C57.8824 48.212 57.7084 48.329 57.5345 48.329C56.3748 48.329 55.2152 48.329 53.9976 48.329C53.4757 48.329 53.5337 47.9779 53.5337 47.6853C53.5337 46.0466 53.5337 44.3494 53.5337 42.7108Z" fill="#1A938A"/>
<path d="M95.1068 46.7493C95.1068 46.8078 95.1648 46.9248 95.1648 46.9834C95.2228 48.3879 95.2228 48.3879 93.8312 48.3879C93.0195 48.3879 92.2077 48.3879 91.396 48.3879C90.9901 48.3879 90.8161 48.2709 90.8161 47.8612C90.8161 44.5254 90.8161 41.248 90.8161 37.9122C90.8161 37.5025 90.9321 37.327 91.338 37.3855C92.4396 37.3855 93.5413 37.444 94.643 37.3855C95.2808 37.3855 95.1648 37.7951 95.1648 38.2048C95.1648 38.556 95.2808 39.0827 94.643 39.0241C94.527 39.0241 94.411 39.0241 94.2951 39.0241C93.7152 39.0827 93.1354 39.1412 92.4976 39.1412C92.4976 39.902 92.4396 40.7213 92.4396 41.4821C92.4396 41.5992 92.6136 41.7748 92.7875 41.7748C93.0194 41.8333 93.3094 41.8333 93.5413 41.7748C94.1791 41.7162 94.469 41.8333 94.411 42.5941C94.353 43.6475 94.469 43.4719 93.4833 43.4719C92.4976 43.4719 92.4976 43.4719 92.4976 44.5254C92.4976 44.935 92.4976 45.4032 92.4976 45.8129C92.4976 46.8078 92.3816 46.6907 93.4253 46.6907C93.9472 46.6907 94.411 46.6907 94.9329 46.6907C94.9329 46.6322 94.9908 46.6907 95.1068 46.7493Z" fill="#1A938A"/>
<path d="M78.1761 43.5886C78.1761 42.3596 78.1761 41.1306 78.1761 39.9016C78.1761 38.9067 78.1761 38.9067 77.2484 38.9067C76.6106 38.9067 76.4366 38.7312 76.4946 38.0874C76.4946 37.5022 76.6106 37.2681 77.2484 37.2681C78.466 37.3266 79.7416 37.3266 80.9592 37.2681C81.655 37.2681 81.713 37.5607 81.713 38.0874C81.713 38.7312 81.539 38.9653 80.9012 38.8482C80.7853 38.8482 80.6693 38.8482 80.5533 38.8482C79.9735 38.7897 79.8575 39.0823 79.8575 39.609C79.8575 41.8329 79.8575 44.0568 79.8575 46.2807C79.8575 46.6318 79.8575 46.983 79.8575 47.3341C79.8575 48.2705 79.8575 48.212 78.9298 48.2705C78.35 48.2705 78.1181 48.0949 78.1181 47.5097C78.1761 46.2222 78.1761 44.8761 78.1761 43.5886Z" fill="#1A938A"/>
<path d="M54.8093 15.3808C54.8093 14.0933 54.7513 12.8058 54.8093 11.5183C54.8673 10.816 54.6354 10.6404 53.9976 10.6989C53.0699 10.7575 53.1279 10.8745 53.0699 9.76256C53.0699 9.1188 53.3018 9.06028 53.8236 9.06028C55.0413 9.06028 56.3169 9.1188 57.5345 9.06028C58.2303 9.00175 58.2303 9.41142 58.2303 9.87961C58.2303 10.4648 58.1143 10.7575 57.4765 10.6404C57.3605 10.6404 57.2446 10.6404 57.1286 10.6404C56.4908 10.5234 56.4328 10.8745 56.4328 11.4012C56.4328 12.4546 56.4328 13.5081 56.4328 14.503C56.4328 16.0246 56.4328 17.6047 56.4328 19.1263C56.4328 20.0042 56.4328 20.0042 55.5631 20.0042C54.7513 20.0042 54.7513 20.0042 54.7513 19.1263C54.8093 17.8973 54.8093 16.6098 54.8093 15.3808Z" fill="#1A938A"/>
<path d="M105.833 43.6472C105.833 44.9347 105.775 46.2222 105.833 47.5098C105.833 48.212 105.66 48.3876 104.964 48.3291C104.326 48.3291 104.094 48.212 104.094 47.5098C104.152 44.9933 104.094 42.4767 104.094 39.9602C104.094 38.7312 104.094 38.8483 103.108 38.8483C102.876 38.8483 102.413 38.7897 102.355 38.6727C102.239 38.3216 102.297 37.9119 102.355 37.5022C102.355 37.4437 102.644 37.3267 102.818 37.3267C104.268 37.3267 105.66 37.3267 107.109 37.3267C107.747 37.3267 107.631 37.7948 107.631 38.146C107.631 38.5557 107.747 38.9068 107.109 38.9068C105.891 38.9653 105.891 38.9653 105.891 40.2528C105.833 41.4233 105.833 42.5353 105.833 43.6472Z" fill="#1A938A"/>
<path d="M98.9336 22.052C97.9479 22.052 97.5421 21.7008 97.5421 20.823C97.5421 19.9451 98.2378 19.3599 99.2815 19.3599C100.209 19.3599 100.673 19.8281 100.673 20.5889C100.673 21.5252 100.035 22.052 98.9336 22.052Z" fill="#1A938A"/>
<path d="M27.8477 8.41604C28.5435 8.41604 29.0653 8.94275 29.0653 9.64504C29.0653 10.4058 28.5435 10.874 27.7897 10.874C27.0939 10.874 26.63 10.4058 26.63 9.64504C26.5721 8.82571 27.0359 8.35752 27.8477 8.41604Z" fill="#1A938A"/>
<path d="M121.837 8.4165C122.59 8.4165 123.054 8.88469 123.054 9.58698C123.054 10.3478 122.59 10.8745 121.837 10.8745C121.083 10.8745 120.561 10.3478 120.619 9.58698C120.619 8.88469 121.141 8.4165 121.837 8.4165Z" fill="#1A938A"/>
<path d="M29.0073 47.7441C29.0073 48.4464 28.5435 48.9731 27.8477 49.0317C27.1519 49.0902 26.5721 48.5635 26.5721 47.8027C26.5721 47.0418 27.0939 46.5151 27.7897 46.5151C28.4855 46.5151 29.0073 47.0418 29.0073 47.7441Z" fill="#1A938A"/>
<path d="M123.112 47.8027C123.112 48.5049 122.59 49.0317 121.952 49.0317C121.257 49.0317 120.677 48.4464 120.677 47.7441C120.677 47.0418 121.199 46.5151 121.894 46.5151C122.532 46.5151 123.112 47.0418 123.112 47.8027Z" fill="#1A938A"/>
</g>
<defs>
<clipPath id="clip0_1_1033">
<rect width="106.977" height="51.0326" fill="white" transform="translate(21.3537 3.20752)"/>
</clipPath>
</defs>
</svg>
