<svg width="126" height="50" viewBox="0 0 126 50" fill="none" xmlns="http://www.w3.org/2000/svg">
<g clip-path="url(#clip0_1_1958)">
<path d="M58.2956 19.4373H56.7214C53.4607 19.4373 50.3125 20.3389 47.5465 22.052C46.5121 21.2405 45.5901 20.3163 44.7806 19.2569C46.4222 16.5296 47.2992 13.419 47.2992 10.2183V8.41502C47.2992 6.20606 45.5002 4.40283 43.2964 4.40283C42.217 4.40283 41.2276 4.8311 40.463 5.57493C39.6984 6.3413 39.2936 7.33308 39.2936 8.41502V10.2183C39.2936 13.419 40.1707 16.5296 41.8122 19.2569C41.0252 20.2938 40.1032 21.2405 39.0688 22.052C36.3253 20.3389 33.1546 19.4373 29.8939 19.4373H28.3198C26.0935 19.4373 24.2945 21.2405 24.2945 23.4495V23.6523C24.2945 25.8613 26.0935 27.6645 28.2973 27.6645H29.8714C33.1321 27.6645 36.2803 26.7629 39.0463 25.0498C40.0807 25.8613 41.0027 26.7854 41.7897 27.8448C40.1482 30.5722 39.2712 33.6828 39.2712 36.8835V38.6868C39.2712 39.7687 39.6984 40.7605 40.4405 41.5268C41.2051 42.2932 42.1945 42.6989 43.2739 42.6989C45.4777 42.6989 47.2767 40.8957 47.2767 38.6868V36.8835C47.2767 33.6828 46.3997 30.5722 44.7581 27.8448C45.5452 26.808 46.4671 25.8613 47.5241 25.0498C50.2675 26.7629 53.4158 27.6645 56.6989 27.6645H58.2731C60.4768 27.6645 62.2758 25.8613 62.2758 23.6523V23.4495C62.2983 21.2405 60.4993 19.4373 58.2956 19.4373ZM45.4102 23.6072C44.6681 24.2384 43.971 24.9371 43.3639 25.681L43.2964 25.5908L43.2289 25.681C42.5993 24.9371 41.9247 24.2384 41.1826 23.6072L41.25 23.5622L41.1826 23.5171C41.9247 22.8859 42.6218 22.1872 43.2289 21.4434L43.2964 21.5335L43.3639 21.4434C43.9935 22.1872 44.6681 22.8859 45.4102 23.5171L45.3203 23.5622L45.4102 23.6072ZM41.7673 8.41502C41.7673 8.00929 41.9247 7.62611 42.217 7.33308C42.5093 7.04006 42.8916 6.88227 43.2964 6.88227C44.1509 6.88227 44.8256 7.58103 44.8256 8.41502V10.2183C44.8256 12.5399 44.3083 14.7939 43.2964 16.8451C42.2845 14.7939 41.7673 12.5399 41.7673 10.2183V8.41502ZM29.8714 25.2076H28.2973C27.4427 25.2076 26.7681 24.5089 26.7681 23.6749V23.472C26.7681 22.6155 27.4652 21.9393 28.2973 21.9393H29.8714C32.2551 21.9393 34.5938 22.5028 36.6851 23.5847C34.5938 24.6441 32.2775 25.2076 29.8714 25.2076ZM44.8256 38.7093C44.8256 39.5658 44.1284 40.242 43.2964 40.242C42.8916 40.242 42.5093 40.0843 42.217 39.7912C41.9247 39.4982 41.7673 39.115 41.7673 38.7093V36.9061C41.7673 34.5844 42.2845 32.3304 43.2964 30.2792C44.3083 32.3304 44.8256 34.5844 44.8256 36.9061V38.7093ZM59.8247 23.6749C59.8247 24.5314 59.1276 25.2076 58.2956 25.2076H56.7214C54.3378 25.2076 51.9991 24.6441 49.9077 23.5622C51.9991 22.4802 54.3378 21.9167 56.7214 21.9167H58.2956C59.1501 21.9167 59.8247 22.6155 59.8247 23.4495V23.6749Z" fill="#1A938A"/>
<path d="M78.7142 18.9415C78.7142 18.5583 78.3993 18.2653 78.0395 18.2653H71.4507C71.4507 18.2653 71.2708 18.1977 71.2708 17.9047C71.2708 17.6117 71.6981 17.4764 71.6981 17.4764L78.017 13.4642C78.017 13.4642 78.7142 13.2388 78.7142 11.4581C78.7142 9.67744 77.8147 9.06885 76.4654 9.06885H70.5062C70.1239 9.06885 69.8316 9.38441 69.8316 9.74506V10.6016C69.8316 10.9848 70.1464 11.2778 70.5062 11.2778H76.2855C76.2855 11.2778 76.5104 11.2778 76.5104 11.6385C76.5104 11.9991 76.0831 12.2245 76.0831 12.2245L70.0565 16.124C70.0565 16.124 69.112 16.665 69.112 18.2428C69.112 19.8206 70.2139 20.5194 71.2708 20.5194H78.0395C78.4218 20.5194 78.7142 20.2038 78.7142 19.8431V18.9415Z" fill="#1A938A"/>
<path d="M82.537 20.4969C82.9193 20.4969 83.2342 20.1813 83.2342 19.7981V9.74514C83.2342 9.36195 82.9193 9.04639 82.537 9.04639H81.3677C80.9854 9.04639 80.6706 9.36195 80.6706 9.74514V19.7981C80.6706 20.1813 80.9854 20.4969 81.3677 20.4969H82.537V20.4969Z" fill="#1A938A"/>
<path d="M81.9524 7.37816C82.7721 7.37816 83.4365 6.71211 83.4365 5.8905C83.4365 5.06888 82.7721 4.40283 81.9524 4.40283C81.1327 4.40283 80.4682 5.06888 80.4682 5.8905C80.4682 6.71211 81.1327 7.37816 81.9524 7.37816Z" fill="#1A938A"/>
<path d="M81.9524 26.1995C82.7721 26.1995 83.4365 25.5334 83.4365 24.7118C83.4365 23.8902 82.7721 23.2241 81.9524 23.2241C81.1327 23.2241 80.4682 23.8902 80.4682 24.7118C80.4682 25.5334 81.1327 26.1995 81.9524 26.1995Z" fill="#1A938A"/>
<path d="M95.4448 4.40283H94.2755C93.8932 4.40283 93.5784 4.7184 93.5784 5.10158V10.2633C93.5784 10.2633 92.5439 8.77567 90.3177 8.77567C88.0914 8.77567 85.5728 9.27155 85.5728 14.7939C85.5728 20.3163 88.3613 20.8122 90.8124 20.8122C93.2635 20.8122 96.1644 20.2036 96.1644 15.1771V5.10158C96.1419 4.7184 95.8271 4.40283 95.4448 4.40283ZM90.8349 18.5131C88.0239 18.5131 87.9565 17.2734 87.9565 14.7714C87.9565 12.2694 88.2713 11.0072 90.7224 11.0072C93.1736 11.0072 93.5559 12.6526 93.5559 12.6526V15.1546C93.5784 16.9578 93.5784 18.5131 90.8349 18.5131Z" fill="#1A938A"/>
<path d="M73.6545 27.9802C73.6545 27.9802 73.5196 27.9126 71.2708 27.9802C69.0221 28.0479 69.5618 29.513 69.6067 30.0089C69.6067 30.0089 69.6067 30.0089 69.6067 30.0314C69.6517 30.347 69.989 30.5499 70.3039 30.4146C70.5512 30.3019 71.1134 30.1667 72.4627 30.1667C72.9799 30.1667 73.3846 30.2343 73.7444 30.347C74.6214 30.6175 75.2061 31.181 75.2061 33.7957V36.1399C75.2061 37.5148 73.9019 37.4247 73.9019 37.4247H73.4521H72.5301H69.4943C69.2469 37.4247 69.0446 37.6275 69.0446 37.8755V39.5435C69.0446 39.7914 69.2469 39.9943 69.4943 39.9943H73.4296C73.4521 39.9943 73.4971 39.9943 73.5196 39.9943C77.2975 39.8139 77.5448 37.2218 77.5448 37.2218C77.5448 37.2218 77.5448 35.396 77.5448 31.6318C77.5448 27.8675 73.6545 27.9802 73.6545 27.9802Z" fill="#1A938A"/>
<path d="M82.537 27.8677H81.3677C80.9854 27.8677 80.6706 28.1832 80.6706 28.5664V35.0355V35.2609V36.974C80.6706 36.974 80.9854 38.6194 78.8041 40.7157C78.6242 40.8735 78.6017 41.1665 78.7366 41.3468L79.5012 42.4288C79.6586 42.6542 79.9735 42.6992 80.1983 42.5189C81.0753 41.8202 83.1217 39.9493 83.2116 37.267V35.2384V34.7425V28.5664C83.2341 28.1832 82.9193 27.8677 82.537 27.8677Z" fill="#1A938A"/>
</g>
<defs>
<clipPath id="clip0_1_1958">
<rect width="71.8475" height="38.3187" fill="white" transform="translate(24.2945 4.40283)"/>
</clipPath>
</defs>
</svg>
