<svg width="150" height="63" viewBox="0 0 150 63" fill="none" xmlns="http://www.w3.org/2000/svg">
<path d="M39.4226 14.397L38.0693 15.7463V15.9362V16.1262L39.4226 17.4755L40.7798 18.8247L42.1916 17.4212C42.9716 16.6458 43.6073 16.0409 43.6073 16.0719C43.6073 16.103 44.2157 16.7349 44.9607 17.4755L46.3179 18.8247L47.7687 17.3824L49.2234 15.9362L47.7726 14.4939L46.3179 13.0478L44.9802 14.3776C44.2469 15.1065 43.6346 15.7346 43.6229 15.7773C43.6034 15.8354 43.3265 15.5795 42.1877 14.4474L40.7798 13.0478L39.4226 14.397Z" fill="#1A938A"/>
<path d="M107.333 14.5014L105.988 15.8391V16.0329V16.2268L107.345 17.5721L108.698 18.9214L110.149 17.4752L111.604 16.0329L110.161 14.5984C109.369 13.8113 108.71 13.1638 108.698 13.1638C108.687 13.1638 108.074 13.7648 107.333 14.5014Z" fill="#1A938A"/>
<path d="M75.6576 16.9053C74.3628 18.0995 74.0703 18.3825 74.0508 18.4872C74.0001 18.7353 73.9806 27.3465 74.0235 30.359C74.0937 35.1705 74.1522 36.64 74.3004 37.3379C74.7099 39.292 76.0632 40.6218 78.1614 41.1336C78.5865 41.2383 80.0412 41.4709 80.7159 41.5446C81.2814 41.6066 82.2525 41.595 82.6464 41.5291C83.5785 41.3623 84.3546 40.9204 84.9591 40.207C85.4427 39.637 85.9108 38.8306 86.1955 38.0823C86.2774 37.8652 86.3944 37.5821 86.4529 37.4542L86.5621 37.2216L86.5894 37.5705C86.722 39.2958 87.5761 40.3659 89.2765 40.9397C89.7055 41.0832 91.8856 41.719 92.338 41.8315C92.9659 41.9866 93.7615 42.1339 94.015 42.1378C94.1944 42.1417 94.2997 42.1184 94.4674 42.0408C95.0056 41.7927 95.185 41.4942 95.5945 40.1488C95.8363 39.3656 96.0625 38.7143 96.0976 38.7143C96.1093 38.7143 96.2107 38.85 96.316 39.0167C96.8074 39.7727 97.4704 40.4706 98.0866 40.8777C98.9251 41.436 99.6505 41.5833 101.569 41.5833C102.856 41.5833 103.515 41.5213 104.303 41.3275C106.109 40.8816 107.127 39.858 108.515 37.1052C109.307 35.5272 109.716 34.1935 109.982 32.3131C110.118 31.3554 110.181 30.3513 110.22 28.6531C110.27 26.4315 110.27 26.3462 110.212 26.3462C110.184 26.3462 109.451 26.6021 108.585 26.9161L107.01 27.486L107.033 29.8472C107.053 31.7664 107.049 32.2976 107.002 32.6814C106.854 33.9144 106.468 34.6975 105.867 34.9612C105.333 35.1938 102.876 35.2985 101.932 35.1318C101.417 35.0387 100.774 34.8526 100.446 34.7053C99.7246 34.3719 98.9368 33.3018 97.2364 30.3513C95.9494 28.1103 94.9861 26.6176 94.3699 25.9081C93.5392 24.9465 92.3614 24.5278 91.2265 24.7953C90.2944 25.0163 89.218 25.815 88.4068 26.8812C87.6073 27.9397 87.0964 29.0834 86.5816 30.96C86.3086 31.968 86.1487 32.4178 85.8639 32.9955C85.4583 33.8135 85.0098 34.2982 84.3507 34.6277C83.7696 34.9224 82.818 35.0465 81.1644 35.0465C80.0763 35.0504 79.9983 35.0465 79.7058 34.9612C78.8166 34.7053 78.1848 34.1509 77.7558 33.2436C77.4516 32.6078 77.2995 31.9331 77.2215 30.9251C77.1474 29.9868 77.2059 24.8069 77.3619 18.0375C77.397 16.6533 77.4126 15.5057 77.4009 15.4863C77.3853 15.4669 77.3463 15.4514 77.3073 15.4514C77.2683 15.4514 76.5273 16.1066 75.6576 16.9053ZM91.3396 30.0682C91.6438 30.2311 91.9753 30.549 92.2327 30.929C92.7202 31.6501 93.4417 33.0342 94.0462 34.4106C94.5142 35.4846 94.5064 35.4575 94.4518 35.4575C94.3504 35.4575 90.8053 34.7828 90.0721 34.6239C89.6431 34.5308 89.1946 34.4184 89.0698 34.3719C88.4068 34.1237 88.087 33.3909 88.2781 32.5418C88.4575 31.7509 89.1517 30.7041 89.8147 30.2349C90.1735 29.9791 90.3919 29.9093 90.778 29.9248C91.0432 29.9364 91.1251 29.9558 91.3396 30.0682Z" fill="#1A938A"/>
<path d="M62.4444 18.305C62.3274 18.3592 61.6683 18.6384 60.9819 18.9292C58.5794 19.9372 56.6684 20.8445 56.3291 21.1353C56.138 21.2981 56.0522 21.492 55.5998 22.7637C55.1942 23.8997 55.1669 24.0005 55.2293 24.0393C55.2683 24.0625 56.4149 23.574 59.6168 22.1705C61.2198 21.4648 61.3953 21.3757 61.641 21.112C61.8867 20.8522 62.0154 20.5615 62.4405 19.3324C62.7018 18.5686 62.7798 18.2933 62.7486 18.2546C62.6979 18.1925 62.6979 18.1886 62.4444 18.305Z" fill="#1A938A"/>
<path d="M92.689 18.8278C91.8973 19.1651 90.9223 19.5839 90.5245 19.7584C89.6509 20.1422 88.1143 20.9099 87.8686 21.0921C87.6307 21.2627 87.5683 21.3906 87.0925 22.7321C86.7337 23.7479 86.6479 24.0581 86.7376 24.0581C86.7688 24.0581 89.4949 22.8756 91.519 21.9838C92.9971 21.3363 93.1648 21.22 93.4222 20.6811C93.5431 20.4213 94.2685 18.3781 94.2685 18.2889C94.2685 18.2579 94.1632 18.192 94.1398 18.2075C94.1359 18.2114 93.4846 18.4905 92.689 18.8278Z" fill="#1A938A"/>
<path d="M110.099 19.5493C109.373 20.2705 108.765 20.9025 108.738 20.9529C108.691 21.042 108.648 21.0033 107.291 19.654L105.891 18.2621L104.545 19.5997C103.118 21.0188 103.094 21.0498 103.196 21.2979C103.223 21.3561 103.839 21.9997 104.565 22.7208L105.891 24.0391L107.287 22.651C108.051 21.8911 108.691 21.2669 108.71 21.2669C108.726 21.2669 108.738 21.2902 108.738 21.3173C108.738 21.3406 109.342 21.9648 110.083 22.7014L111.429 24.0391L112.883 22.5929L114.334 21.1506L112.872 19.6967L111.409 18.2427L110.099 19.5493Z" fill="#1A938A"/>
<path d="M67.2686 19.6307C66.044 20.852 65.9153 20.9916 65.9153 21.1041C65.9153 21.1739 65.9387 21.2785 65.9699 21.3367C66.0011 21.3948 66.6173 22.0268 67.3349 22.7402L68.6454 24.0391L70.0962 22.5929L71.5509 21.1506L70.1079 19.716C69.3162 18.929 68.6571 18.2815 68.6454 18.2815C68.6337 18.2815 68.0136 18.8902 67.2686 19.6307Z" fill="#1A938A"/>
<path d="M46.6688 19.4876C46.3061 19.7009 45.5651 20.1196 45.0269 20.422L44.048 20.9687L44.0207 21.434C44.009 21.6899 43.9973 22.0155 43.9973 22.1512C43.9973 22.4886 43.9037 22.6747 43.5878 22.9654C43.229 23.2989 42.7883 23.5587 41.1893 24.369C40.4054 24.7683 39.5708 25.2103 39.3329 25.3499C36.7511 26.8775 35.5343 29.0448 35.5343 32.1C35.5343 32.8599 35.5967 33.3601 35.7917 34.0929C36.1193 35.3529 36.6653 36.3494 37.4024 37.0589C37.7963 37.435 38.0693 37.6094 38.5997 37.8188C39.2237 38.0669 39.6722 38.1406 40.5653 38.1445C41.2283 38.1483 41.3648 38.1367 41.6261 38.0669C42.3593 37.8614 43.0106 37.4892 43.463 37.0123C43.7555 36.7022 43.9232 36.4346 44.0363 36.0973C44.1494 35.7561 44.4107 33.8525 44.5238 32.5304C44.5589 32.1465 44.594 31.8247 44.6057 31.817C44.6408 31.7821 44.6993 31.9061 44.6993 32.0147C44.6993 32.1698 44.8475 33.3058 44.9567 33.9843C45.6665 38.4585 47.0276 40.7848 49.2701 41.3703C49.8785 41.5292 50.3465 41.5641 51.7193 41.5602C52.9595 41.5602 52.9946 41.5564 53.3612 41.4594C54.1257 41.2539 54.6834 40.9709 55.2762 40.4979C56.0523 39.8737 56.805 38.9509 57.6084 37.6288C57.8892 37.1674 57.9243 37.1248 57.9555 37.2101C58.716 39.1603 59.6286 40.3312 60.8766 40.9593C61.6878 41.3664 62.8344 41.5835 64.1799 41.5835C65.6853 41.5835 66.867 41.3237 67.6548 40.8119C68.7039 40.1373 69.6672 38.7997 70.4511 36.9503C71.2311 35.1048 71.7381 32.4412 71.9604 29.0409C72.0072 28.2888 72.0579 26.3075 72.0306 26.3075C72.0189 26.3075 71.2935 26.5673 70.416 26.8891C69.5424 27.207 68.8209 27.4707 68.817 27.4707C68.8092 27.4707 68.8092 28.3198 68.8131 29.3589C68.817 30.9601 68.8053 31.3246 68.7507 31.7355C68.5362 33.2554 68.0409 34.0812 67.0152 34.6163C65.8452 35.225 64.4568 35.3646 63.3258 34.9885C62.5341 34.721 61.5279 34.0347 61.0833 33.4531C60.276 32.3947 60.1005 31.0183 60.4008 28.1182C60.4359 27.7809 60.4593 27.4978 60.4515 27.4901C60.4281 27.4707 57.2964 28.6183 57.2535 28.661C57.2262 28.6881 57.1716 29.0177 56.9415 30.5142C56.7153 32.0031 56.3604 32.825 55.6428 33.5423C55.1124 34.0696 54.4455 34.4651 53.4938 34.8179C52.8971 35.0389 52.4603 35.1164 51.8168 35.1164C51.1889 35.1164 50.7014 35.0428 50.1788 34.8722C49.7498 34.7287 49.4924 34.5891 49.0868 34.2751C48.1391 33.5384 47.753 32.8716 47.6282 31.7549C47.4956 30.5995 47.3201 22.6243 47.3747 20.267C47.3903 19.5729 47.3864 19.0961 47.3669 19.0999C47.3474 19.0999 47.0354 19.2744 46.6688 19.4876ZM43.4123 30.2196C43.3499 30.5491 43.2173 30.743 42.956 30.8709L42.7298 30.9795L41.7431 30.9911C40.3703 31.0105 39.0326 30.9446 38.6621 30.8438C38.1083 30.6887 37.7183 30.429 37.7183 30.2157C37.7183 29.9327 38.5958 29.3317 40.2338 28.4943C41.1152 28.0445 41.9888 27.6452 42.8468 27.2962L43.4318 27.0558L43.4435 28.533C43.4474 29.4015 43.4357 30.0916 43.4123 30.2196Z" fill="#1A938A"/>
<path d="M70.7319 45.3669C67.5261 46.7239 65.9349 47.4954 65.7009 47.8017C65.5722 47.9684 65.4747 48.2166 65.0535 49.4107C64.6986 50.411 64.6479 50.6437 64.7766 50.6049C64.839 50.5855 68.6922 48.9067 70.0104 48.3251C71.0556 47.8637 71.2662 47.6699 71.5548 46.9332C71.8161 46.2509 72.2763 44.8667 72.2568 44.8124C72.2451 44.7853 72.2139 44.762 72.1866 44.7659C72.1593 44.7698 71.5041 45.0373 70.7319 45.3669Z" fill="#1A938A"/>
<path d="M53.6576 46.3441L52.3043 47.6934V47.864V48.0346L53.6693 49.3954L55.0343 50.7524L56.4344 49.3605L57.8345 47.9687L57.893 48.0811C57.9281 48.1431 58.5326 48.7673 59.2424 49.473L60.5333 50.7524L61.9958 49.2985L63.4584 47.8446L62.027 46.4217C61.2353 45.6346 60.5723 44.9949 60.5528 44.9949C60.4904 44.9949 57.8423 47.6468 57.8423 47.7089C57.8423 47.7399 57.2144 47.1428 56.4461 46.379C55.6817 45.6191 55.046 44.9949 55.0343 44.9949C55.0226 44.9949 54.4025 45.6036 53.6576 46.3441Z" fill="#1A938A"/>
</svg>
