<svg width="149" height="63" viewBox="0 0 149 63" fill="none" xmlns="http://www.w3.org/2000/svg">
<path d="M41.8807 27.0538C41.3989 26.4012 40.751 25.8902 40.0049 25.5741C39.1231 25.1757 38.1646 24.9769 37.1975 24.992C36.1936 24.9968 35.2038 25.2295 34.3026 25.6728C33.4013 26.116 32.6119 26.7582 31.9938 27.5511V18.9277H27.4921V42.4691H31.9938V33.9792C31.9461 32.8801 32.0854 31.781 32.4054 30.7287C32.6315 30.0477 33.0844 29.4654 33.688 29.0793C34.2931 28.7117 34.9894 28.5225 35.6969 28.5335C36.2669 28.5157 36.8299 28.6631 37.3185 28.958C37.7413 29.2292 38.061 29.635 38.2261 30.1102C38.4552 31.2266 38.5405 32.3679 38.4801 33.5062V42.5176H42.982V32.4631C43.0141 31.3304 42.9371 30.1972 42.752 29.0793C42.6054 28.3507 42.3087 27.6608 41.8807 27.0538Z" fill="#1A938A"/>
<path d="M51.6464 27.8423C51.1618 26.9621 50.5029 26.1903 49.7102 25.5742C49.128 25.2052 48.4507 25.0155 47.7619 25.0285C46.7173 25.0371 45.6954 25.3351 44.8093 25.8896L46.2008 29.8192C46.8157 29.3721 47.5478 29.115 48.3066 29.0794C48.8882 29.0535 49.4596 29.2387 49.916 29.6009C50.4416 30.113 50.8002 30.7726 50.9446 31.4929C51.2745 33.378 51.4003 35.2933 51.3198 37.2054V42.4692H55.8215V25.4166H51.6464V27.8423Z" fill="#1A938A"/>
<path d="M80.327 27.7449C79.7126 26.9129 78.9143 26.2346 77.9947 25.7633C77.0752 25.2919 76.0593 25.0403 75.0265 25.0281C74.0399 25.005 73.0642 25.2391 72.1948 25.7073C71.3575 26.1849 70.6733 26.8917 70.2223 27.7449C69.5597 26.9102 68.7367 26.2173 67.802 25.7073C66.9465 25.2601 65.9957 25.0271 65.0308 25.0281C63.9245 24.9921 62.8292 25.2561 61.8602 25.7922C60.9869 26.3107 60.3037 27.0976 59.9119 28.036C59.5468 29.1749 59.391 30.3707 59.452 31.5654V42.481H63.9658V32.7782C63.871 31.6659 64.0282 30.5465 64.4257 29.5036C64.6338 29.1882 64.9213 28.9334 65.2591 28.7652C65.597 28.5969 65.9733 28.5211 66.3498 28.5454C66.9888 28.5486 67.6108 28.7522 68.1286 29.1276C68.7071 29.5398 69.1327 30.1327 69.3388 30.8134C69.6272 31.9665 69.7495 33.155 69.7019 34.3428V42.5295H74.2036V33.1178C74.152 32.0406 74.2334 30.9611 74.4457 29.9038C74.5714 29.4747 74.8299 29.0967 75.1839 28.8244C75.5981 28.5712 76.0788 28.4486 76.5634 28.4726C77.2308 28.463 77.885 28.6576 78.4391 29.0305C79.0093 29.4246 79.4346 29.9957 79.6492 30.6558C79.9433 31.8037 80.0657 32.989 80.0123 34.173V42.4567H84.5382V25.4163H80.3874L80.327 27.7449Z" fill="#1A938A"/>
<path d="M99.5318 27.927C98.8981 27.0262 98.0567 26.2922 97.079 25.7875C96.1014 25.2828 95.0164 25.0224 93.9167 25.0283C92.981 25.0168 92.0532 25.2027 91.1939 25.5741C90.464 25.8601 89.8214 26.3326 89.3302 26.9446C88.907 27.5065 88.6061 28.151 88.4469 28.8367C88.2619 29.8363 88.1809 30.8524 88.2049 31.8688V42.4691H92.7066V33.773C92.6432 32.5727 92.7408 31.3693 92.997 30.1951C93.1688 29.7006 93.4958 29.2751 93.9288 28.9822C94.3899 28.6733 94.9357 28.5165 95.49 28.5335C96.2413 28.5242 96.977 28.7488 97.5956 29.1763C98.1755 29.5923 98.6012 30.1895 98.8057 30.8743C99.0918 32.1592 99.2056 33.4766 99.1445 34.7918V42.5176H103.646V25.4165H99.4712L99.5318 27.927Z" fill="#1A938A"/>
<path d="M119.705 25.4165L115.736 37.545L111.657 25.4165H106.817L113.279 42.5176C113.047 43.3792 112.634 44.1813 112.069 44.8706C111.779 45.1943 111.419 45.4461 111.016 45.6061C110.612 45.7661 110.177 45.8299 109.745 45.7923C109.107 45.7828 108.471 45.7137 107.845 45.5861L108.245 49.1155C109.079 49.2995 109.931 49.393 110.786 49.3945C111.561 49.4026 112.334 49.3088 113.085 49.1155C113.699 48.9645 114.28 48.7058 114.804 48.3514C115.272 48.0175 115.681 47.6076 116.014 47.1386C116.469 46.4206 116.846 45.6563 117.139 44.8584L118.216 41.887L124.267 25.4771L119.705 25.4165Z" fill="#1A938A"/>
<path d="M19.7109 14.416H16.262V18.9278V41.8627V46.3745H20.7637H25.6527V41.8627H22.2522H20.7637V34.7918V26.1806V18.9278H25.6527V14.416H22.2522H19.7109Z" fill="#1A938A"/>
<path d="M133.464 18.9278V14.416H130.003H127.474H124.061V18.9278H128.962V26.1806V34.7918V41.8627H127.474H124.061V46.3745H128.962H133.464V41.8627V18.9278Z" fill="#1A938A"/>
</svg>
