<svg width="150" height="57" viewBox="0 0 150 57" fill="none" xmlns="http://www.w3.org/2000/svg">
<g clip-path="url(#clip0_1_1975)">
<path d="M75.4203 3.13941C92.757 3.13941 110.152 3.13941 127.488 3.13941C128.764 3.13941 128.764 3.13941 128.764 4.48545C128.764 20.5794 128.764 36.732 128.764 52.8259C128.764 53.0015 128.764 53.1771 128.764 53.3527C128.88 53.9964 128.59 54.2305 128.01 54.1135C127.836 54.1135 127.662 54.1135 127.488 54.1135C92.699 54.1135 57.9098 54.1135 23.1206 54.1135C21.8449 54.1135 21.8449 54.1135 21.8449 52.8259C21.8449 36.6734 21.8449 20.5794 21.8449 4.48545C21.8449 4.36841 21.8449 4.30988 21.8449 4.25136C21.8449 2.96384 21.729 3.13941 22.9466 3.13941C40.3992 3.13941 57.9098 3.13941 75.4203 3.13941ZM75.3044 52.4163C92.1771 52.4163 108.992 52.4163 125.865 52.4163C127.314 52.4163 127.14 52.5918 127.14 51.1873C127.14 36.2052 127.14 21.2817 127.14 6.29968C127.14 4.77807 127.14 4.77807 125.691 4.77807C92.0612 4.77807 58.4896 4.77807 24.86 4.77807C24.6281 4.77807 24.4541 4.77807 24.2222 4.77807C23.6424 4.71955 23.3525 4.95364 23.4684 5.53888C23.4684 5.65592 23.4684 5.83149 23.4684 5.94854C23.4684 21.0476 23.4684 36.0882 23.4684 51.1873C23.4684 51.3629 23.4684 51.5384 23.4684 51.714C23.4105 52.2407 23.5844 52.4748 24.1062 52.4163C24.3382 52.4163 24.6281 52.4163 24.86 52.4163C41.6748 52.4163 58.4896 52.4163 75.3044 52.4163Z" fill="#1A938A"/>
<path d="M83.1319 30.4113C83.8857 31.6988 85.0454 32.1085 86.5529 31.5818C87.7125 31.2306 88.6402 30.5283 89.51 29.709C89.7419 29.4749 90.0898 29.2993 90.3217 29.1238C90.4377 29.0067 90.5537 28.8897 90.5537 28.7726C90.5537 27.8362 90.5537 26.8999 90.5537 25.9635C90.5537 25.4953 90.3797 25.3782 89.9738 25.4368C89.7419 25.4368 89.568 25.4368 89.336 25.4368C88.8722 25.4368 88.6402 25.2027 88.6402 24.676C88.6402 24.2663 88.7562 23.9152 89.278 23.8566C89.336 23.8566 89.336 23.8566 89.394 23.8566C89.8579 23.7981 90.4957 23.9152 90.7856 23.6225C91.0755 23.3884 91.0175 22.7447 91.1335 22.335C91.5973 20.7549 92.0612 19.1747 92.525 17.5946C92.583 17.3605 92.699 17.1264 92.8149 16.8923C93.1049 16.4241 93.7427 16.2486 94.2065 16.4827C94.7284 16.7753 94.6704 17.1849 94.4964 17.7117C93.9746 19.2918 93.3948 20.8719 92.9889 22.5106C92.641 23.9737 92.525 23.7981 94.0326 23.8566C94.5544 23.8566 95.0183 23.7981 95.5401 23.8566C95.83 23.9152 96.0619 24.0907 96.2939 24.2078C96.1199 24.5004 96.0619 24.9101 95.83 25.0856C95.4241 25.3197 94.9603 25.3782 94.4964 25.4368C94.0326 25.4953 93.5687 25.4953 93.1049 25.4368C92.641 25.3782 92.4671 25.6123 92.4671 26.0805C92.525 27.251 92.525 28.48 92.699 29.6505C92.9889 31.5818 95.1342 32.3426 96.5838 31.055C96.8157 30.8795 96.8737 30.4698 96.9317 30.1187C97.2216 28.4215 97.4535 26.7243 97.8014 25.0271C97.8594 24.676 98.2073 24.2663 98.5552 24.0907C99.4249 23.7396 99.8888 24.1493 99.7148 25.0271C99.4829 26.4317 99.193 27.8362 98.961 29.2408C98.9031 29.7675 98.9031 30.2942 99.019 30.8209C99.193 31.5232 99.6568 31.6988 100.295 31.4647C101.106 31.1721 101.512 30.4698 101.57 29.5919C101.744 28.1289 101.976 26.6072 102.266 25.1442C102.382 24.6174 102.614 24.2663 103.194 24.0907C104.179 23.7981 104.353 23.9737 104.179 25.0271C103.89 26.4902 103.658 28.0118 103.426 29.4749C103.368 29.7675 103.368 30.0601 103.368 30.4698C103.89 29.2993 104.295 28.2459 104.817 27.251C105.223 26.4902 105.803 25.7294 106.383 25.0856C106.789 24.676 107.368 24.3248 107.89 24.1493C109.05 23.7396 109.688 24.2078 109.514 25.3782C109.34 26.8413 109.05 28.3044 108.818 29.709C108.818 29.826 108.76 29.9431 108.76 30.0016C108.644 30.938 108.992 31.5232 109.63 31.5818C110.326 31.5818 111.021 30.8795 111.079 30.1772C111.137 28.0703 111.891 26.3146 113.573 25.0271C114.21 24.5589 115.022 24.2663 115.776 23.9737C116.24 23.7981 116.82 23.7396 117.051 24.5004C117.109 24.6174 117.515 24.676 117.747 24.676C118.849 24.676 118.965 24.676 118.791 25.7879C118.617 27.3681 118.327 28.8897 118.095 30.4698C118.037 30.8795 117.979 31.2891 117.921 31.9329C118.675 31.4647 119.313 31.055 119.951 30.6454C120.298 30.4113 120.646 30.1772 120.936 30.6454C121.168 31.1136 120.82 31.3477 120.472 31.5818C119.545 32.167 118.385 32.6352 117.805 33.513C117.225 34.3324 117.167 35.6199 116.935 36.6733C116.472 38.312 116.008 40.0092 115.022 41.4137C114.5 42.1745 113.804 42.7012 112.877 42.8183C111.369 42.9939 110.268 42.0575 110.499 40.5944C110.615 39.7165 110.905 38.7216 111.427 38.0193C112.355 36.7904 113.457 35.6199 114.616 34.625C115.602 33.8056 116.356 32.9863 116.182 31.5232C116.008 31.7573 115.834 32.0499 115.66 32.284C114.732 33.5716 113.167 33.8056 112.065 32.6937C111.659 32.284 111.485 32.3426 111.137 32.6352C110.383 33.2204 109.572 33.4545 108.644 33.396C107.6 33.3375 106.963 32.8107 106.963 31.6988C106.963 30.7624 107.137 29.826 107.252 28.9482C107.31 28.4215 107.426 27.9533 107.426 27.4266C107.426 27.1925 107.31 26.8413 107.137 26.7828C106.905 26.7243 106.557 26.8413 106.383 26.9584C106.151 27.134 105.919 27.4266 105.803 27.7192C105.223 29.0067 104.701 30.3528 104.121 31.6403C104.063 31.8158 104.063 31.9914 104.005 32.167C103.832 32.6937 103.774 33.2204 103.078 33.3375C102.556 33.396 102.266 33.2204 101.86 32.284C101.512 32.4596 101.222 32.6937 100.874 32.8693C99.6568 33.5716 98.7291 33.4545 97.6854 32.5181C97.3375 32.2255 97.2216 32.4011 96.9897 32.5767C96.2359 33.1619 95.3662 33.3375 94.4964 33.3375C92.815 33.3375 91.7713 32.6352 91.1335 31.055C91.0175 30.7624 90.9595 30.5283 90.9015 30.3528C90.1478 30.9965 89.452 31.8158 88.5823 32.4011C86.6109 33.6301 84.5235 33.8642 82.4362 32.5767C82.0883 32.3426 81.8563 32.4596 81.5664 32.6352C80.8127 33.0448 80.0589 33.513 79.2472 33.7471C77.5077 34.2738 75.8262 33.396 75.3044 31.5818C75.0724 30.7039 75.0145 29.7675 74.8985 28.7726C74.0288 29.0067 73.159 29.2993 72.9271 30.5283C72.7532 31.5818 72.2893 32.5767 71.9994 33.6301C71.8255 34.0983 71.5935 34.4494 71.0137 34.4494C70.2599 34.4494 69.912 34.0397 70.086 33.2789C70.202 32.7522 70.4339 32.284 70.6078 31.7573C70.7818 31.2891 70.8977 30.8209 71.0137 30.3528C70.3759 30.3528 69.7961 30.4113 69.2742 30.3528C68.1726 30.2357 67.5928 29.5334 67.6508 28.363C67.6508 28.0703 67.7667 27.7192 67.7667 27.4266C67.7087 26.8413 67.3029 26.6072 66.839 26.9584C66.5491 27.1925 66.2592 27.4851 66.0852 27.8362C65.5054 29.1238 64.9256 30.4698 64.4038 31.7573C64.2878 32.0499 64.2878 32.4011 64.1138 32.6937C63.9399 32.9863 63.592 33.2789 63.3021 33.396C62.8382 33.513 62.4904 33.2789 62.2584 32.8107C62.2004 32.6937 62.1425 32.5767 62.0265 32.3426C61.2147 32.9278 60.519 33.5716 59.5333 33.396C58.4896 33.2204 58.1417 32.4011 57.7358 31.4062C57.4459 31.7573 57.272 32.0499 57.098 32.3426C56.3443 33.3375 55.3006 33.6886 54.1409 33.3375C52.9813 32.9863 52.5174 32.0499 52.4015 30.9965C52.1696 28.5385 53.0393 26.4317 55.0687 24.9686C55.7065 24.5004 56.5182 24.3248 57.33 24.0907C57.6778 23.9737 58.1417 23.9737 58.2577 24.5589C58.3156 24.676 58.6056 24.8515 58.7795 24.8515C59.0114 24.9101 59.3013 24.8515 59.5333 24.8515C59.9971 24.8515 60.287 25.0271 60.1711 25.5538C59.9391 26.7828 59.7652 27.9533 59.5913 29.1823C59.5333 29.7675 59.4753 30.3528 59.4753 30.8795C59.5333 31.5232 59.9391 31.8158 60.5769 31.6403C61.3307 31.4062 61.9105 30.5869 62.0265 29.7675C62.2004 28.3044 62.4324 26.7828 62.7223 25.3197C62.7803 24.9686 63.0702 24.5004 63.4181 24.3248C63.766 24.1493 64.2298 24.2078 64.6357 24.2078C64.6357 24.5589 64.6937 24.9101 64.6357 25.2027C64.4617 26.1391 64.1718 27.0169 64.0559 27.9533C63.9399 28.7141 63.8819 29.5334 63.9399 30.3528C64.1138 29.9431 64.2878 29.5334 64.4617 29.0652C65.0416 27.6021 65.6794 26.1976 66.839 25.2027C67.3608 24.793 67.9407 24.3833 68.5785 24.2078C69.5642 23.9152 70.086 24.3833 70.028 25.4368C69.97 26.022 69.8541 26.6658 69.7961 27.251C69.7381 27.7777 69.6221 28.3044 70.2599 28.48C70.9557 28.7141 71.7675 28.2459 71.8834 27.5436C72.2893 25.3783 72.6952 23.1544 73.0431 20.989C73.275 19.4674 73.275 17.8872 73.449 16.3656C73.5069 15.4292 73.7968 15.1366 74.4926 15.1951C75.1304 15.2537 75.3624 15.6048 75.3624 16.5412C75.2464 19.9941 74.8405 23.3884 74.0868 26.7828C74.0868 26.8999 74.0868 26.9584 74.0868 27.3095C75.7682 26.1976 77.3917 25.2027 78.9572 24.2078C79.2472 24.0322 79.5371 23.7396 79.827 23.6225C80.3488 23.3884 80.8127 23.6225 81.1026 24.0907C81.3925 24.5589 81.1606 24.9101 80.8127 25.2027C79.769 25.905 78.7833 26.6658 77.7396 27.3681C77.3337 27.6021 77.1018 27.8948 77.1018 28.363C77.1598 29.1823 77.1018 30.0016 77.2178 30.8209C77.3917 31.6988 77.9716 32.167 78.8413 31.9914C79.595 31.8158 80.2908 31.4647 80.9866 31.1136C81.1606 30.9965 81.2185 30.4698 81.2185 30.1772C81.0446 28.8897 81.2765 27.6607 81.9143 26.5487C82.5521 25.3782 83.5378 24.6174 84.8134 24.3833C85.7991 24.1493 86.7848 24.2663 87.4806 25.0856C88.1764 25.9635 88.1764 27.0169 87.7705 28.0118C87.4226 28.9482 86.6689 29.4749 85.7991 29.8846C84.7554 29.826 83.9437 30.0601 83.1319 30.4113ZM55.7065 31.6988C55.7644 31.6988 55.9964 31.6988 56.1123 31.5818C56.5182 31.055 57.04 30.5283 57.214 29.9431C57.6199 28.6556 57.7938 27.3681 58.0837 26.0805C58.2577 25.3197 58.1417 25.2027 57.33 25.3782C55.4165 25.8464 53.7351 29.1823 54.5468 30.9965C54.7208 31.4647 55.0687 31.7573 55.7065 31.6988ZM116.993 25.7879C117.051 25.3197 116.82 25.2612 116.414 25.3197C115.602 25.4368 115.022 25.8464 114.558 26.4317C113.688 27.5436 113.225 28.7726 113.283 30.2357C113.341 31.055 113.573 31.5232 114.152 31.6403C114.848 31.8158 115.312 31.5232 115.66 30.938C115.776 30.7039 115.95 30.5283 116.008 30.2942C116.356 28.8311 116.646 27.3095 116.993 25.7879ZM115.66 35.2687C115.602 35.2102 115.486 35.2102 115.428 35.1517C114.268 36.1466 113.109 37.1415 112.355 38.5461C112.065 39.0728 111.949 39.7751 111.891 40.3603C111.891 40.6529 112.181 41.0626 112.413 41.1796C112.645 41.2967 113.109 41.1211 113.341 40.9455C113.746 40.4773 114.094 40.0092 114.326 39.4239C114.848 38.0779 115.254 36.6733 115.66 35.2687ZM82.958 29.2408C83.5958 29.0067 84.1756 28.8311 84.6975 28.5385C85.3932 28.1874 85.9151 27.6607 86.031 26.8413C86.205 25.905 85.3932 25.1442 84.5235 25.4953C84.1176 25.6709 83.7698 26.022 83.4798 26.3732C82.958 27.1925 82.7841 28.0703 82.958 29.2408Z" fill="#1A938A"/>
<path d="M43.2982 27.4268C45.0377 24.7347 46.7192 22.1011 48.4586 19.409C49.1544 18.3556 49.7343 17.2437 50.43 16.1902C50.9519 15.3709 51.2418 15.1953 51.8216 15.4294C52.4594 15.6635 52.6334 16.1317 52.4594 17.0681C52.1695 18.5897 51.8216 20.1113 51.5317 21.5744C50.9519 24.5591 50.488 27.6023 50.546 30.6456C50.604 31.9916 50.488 33.3962 51.5317 34.5081C51.5897 34.5666 51.5317 34.9763 51.4157 35.1519C50.7779 35.8542 49.6183 35.7956 49.1544 34.9178C48.8065 34.2155 48.5166 33.3962 48.4586 32.5768C48.2267 29.358 48.6326 26.1978 49.1544 23.0375C49.2124 22.8034 49.2124 22.5693 49.3284 22.0426C48.9805 22.4523 48.8065 22.6864 48.6906 22.979C47.1251 25.3199 45.5016 27.6609 43.936 30.0018C43.8201 30.1774 43.7041 30.2944 43.5882 30.4115C42.8924 31.1723 41.9067 31.0552 41.6168 30.0018C41.0369 28.1291 40.5731 26.1978 40.1092 24.325C39.8773 23.5057 39.7034 22.6864 39.3555 21.867C38.8336 23.6227 38.3118 25.437 37.79 27.1927C36.2824 32.2257 34.427 37.0832 32.1657 41.8236C32.0497 42.0577 31.9338 42.2918 31.8178 42.4673C31.5279 43.0526 31.122 43.1111 30.6002 42.9355C30.0783 42.7014 29.8464 42.1747 30.0204 41.5895C30.0783 41.4139 30.1943 41.1798 30.2523 41.0042C33.7312 33.9229 36.0505 26.4904 37.9639 18.8823C38.1378 18.063 38.3698 17.3022 38.5437 16.4829C38.6597 15.8976 39.0656 15.6635 39.5874 15.6635C40.1672 15.6635 40.4571 16.0147 40.5731 16.5999C41.1529 19.5261 41.7907 22.4523 42.4285 25.3199C42.6025 26.0222 42.8344 26.7245 43.0083 27.4853C43.1243 27.4268 43.2403 27.4268 43.2982 27.4268Z" fill="#1A938A"/>
<path d="M86.4949 43.6376C86.7848 41.8819 87.0747 40.1847 87.3646 38.429C87.5385 37.2585 87.5385 37.2585 88.7562 37.2585C88.8721 37.2585 88.9881 37.2585 89.1041 37.2585C90.0898 37.2585 89.9738 37.2 89.9738 38.1364C89.9738 41.2381 89.9738 44.3984 89.9738 47.5002C89.9738 48.0854 89.7998 48.3195 89.22 48.261C88.6982 48.2024 88.2923 48.261 88.2923 47.5002C88.3503 45.3933 88.2923 43.2865 88.2343 41.1796C87.8864 42.9353 87.5385 44.691 87.1906 46.4467C87.1327 46.8564 87.0167 47.2661 86.9587 47.7343C86.9007 48.1439 86.7848 48.3195 86.3209 48.3195C85.915 48.3195 85.915 48.0854 85.8571 47.7343C85.5092 45.7445 85.1613 43.7547 84.8134 41.8234C84.8134 41.7063 84.7554 41.5308 84.5815 41.4137C84.5815 43.0524 84.5815 44.691 84.5815 46.3297C84.5815 46.6808 84.5815 46.9735 84.5815 47.3246C84.5815 48.261 84.1756 48.5536 83.2479 48.261C83.0739 48.2024 82.958 47.9098 82.958 47.6757C82.9 46.9149 82.958 46.1541 82.958 45.3933C82.958 42.9353 82.958 40.4773 82.958 38.0779C82.958 37.3756 83.1319 37.2585 83.7697 37.2585C85.2772 37.2585 85.2193 37.2585 85.5092 38.7802C85.7991 40.4188 86.089 41.9989 86.3789 43.6376C86.4369 43.5791 86.4949 43.5791 86.4949 43.6376Z" fill="#1A938A"/>
<path d="M100.469 43.4036C100.469 41.7064 100.469 40.0092 100.469 38.312C100.469 37.2 100.469 37.2 101.57 37.2586C102.15 37.2586 102.15 37.5512 102.15 38.0194C102.15 40.3018 102.15 42.6427 102.15 44.9252C102.15 45.803 102.15 46.6224 102.15 47.5002C102.15 47.7928 102.324 48.3195 101.744 48.261C101.222 48.2025 100.584 48.5536 100.353 47.7343C100.005 46.6223 99.5988 45.5104 99.2509 44.3985C99.019 43.7547 98.787 43.0524 98.3812 42.4086C98.3812 43.8717 98.3812 45.3348 98.3812 46.7979C98.3812 47.032 98.3812 47.2076 98.3812 47.4417C98.3232 47.7343 98.3232 48.2025 98.2072 48.2025C97.8014 48.261 97.3375 48.261 96.9316 48.2025C96.8157 48.2025 96.7577 47.7928 96.7577 47.5587C96.7577 45.9201 96.7577 44.2814 96.7577 42.5842C96.7577 41.0626 96.7577 39.541 96.7577 38.0779C96.7577 37.7853 96.5837 37.2586 97.1635 37.3171C97.6274 37.3756 98.2652 37.0245 98.4971 37.8438C98.845 39.0728 99.2509 40.2433 99.6568 41.4138C99.8887 42.116 100.121 42.8183 100.353 43.5206C100.353 43.4621 100.411 43.4036 100.469 43.4036Z" fill="#1A938A"/>
<path d="M47.6469 42.7014C47.6469 41.1213 47.6469 39.5411 47.6469 37.961C47.6469 37.3757 47.8209 37.2002 48.3427 37.2587C49.0385 37.3172 49.6763 37.2587 50.3721 37.2587C51.7636 37.3172 52.6334 38.0195 52.6913 39.3655C52.7493 41.5894 52.7493 43.8133 52.6913 46.0372C52.6334 47.3833 51.7636 48.1441 50.3721 48.2026C49.6763 48.2611 48.9225 48.2026 48.2267 48.2026C47.6469 48.2611 47.5889 47.9685 47.5889 47.5003C47.6469 45.9202 47.6469 44.3401 47.6469 42.7014ZM49.3284 42.7014C49.3284 43.7548 49.3284 44.8082 49.3284 45.8031C49.3284 46.0372 49.5023 46.5054 49.5603 46.5054C49.9662 46.5054 50.3721 46.4469 50.72 46.2128C50.8939 46.0958 50.9519 45.6861 50.9519 45.452C50.9519 43.6963 50.9519 41.9406 50.9519 40.1849C50.9519 39.9508 50.8939 39.7752 50.8359 39.5411C50.604 38.9559 50.1401 38.8388 49.6183 38.8974C49.0965 38.9559 49.3284 39.4826 49.3284 39.7752C49.3284 40.7701 49.3284 41.765 49.3284 42.7014Z" fill="#1A938A"/>
<path d="M64.5197 14.4929C64.5197 16.1316 64.4617 17.7117 64.5197 19.3504C64.5197 19.9941 64.1718 20.0526 63.7079 19.9941C63.302 19.9356 62.7222 20.1697 62.7802 19.3504C62.8382 18.2969 62.7802 17.185 62.7802 16.1316C62.7802 15.0781 62.7802 15.0781 61.9684 15.0781C61.2147 15.0781 61.2147 15.0781 61.2147 16.1901C61.2147 17.2435 61.1567 18.2969 61.2147 19.2918C61.2727 20.0526 60.8088 19.9356 60.345 19.9941C59.8231 19.9941 59.4752 19.9941 59.4752 19.2918C59.5332 16.073 59.4752 12.8542 59.4752 9.57691C59.4752 9.10872 59.6492 8.99167 60.113 8.99167C61.2727 8.99167 61.2727 8.93315 61.2727 10.0451C61.2727 10.8644 61.2727 11.6838 61.2727 12.5031C61.2727 13.0883 61.2727 13.498 62.0264 13.3809C62.8382 13.3224 62.8382 13.3809 62.8382 12.4446C62.8382 11.5082 62.8382 10.5718 62.8382 9.63543C62.8382 9.16724 62.8962 8.93315 63.476 8.93315C64.5776 8.93315 64.5776 8.87462 64.5776 9.98657C64.5197 11.5667 64.5197 13.0298 64.5197 14.4929Z" fill="#1A938A"/>
<path d="M67.4768 37.2583C68.6364 37.2583 68.6364 37.2583 68.7524 38.3117C69.2162 41.1794 69.6801 44.047 70.144 46.9147C70.144 46.9732 70.144 46.9732 70.144 47.0317C70.3759 48.2607 70.144 48.4948 68.9263 48.2607C68.7524 48.2022 68.5205 48.0266 68.4625 47.7925C68.3465 47.4414 68.3465 47.0903 68.2885 46.7391C68.2306 46.4465 68.1726 45.9783 67.9986 45.9198C67.5928 45.8027 67.1289 45.8613 66.723 45.9198C66.6071 45.9198 66.5491 46.2124 66.4911 46.3295C66.4331 46.7391 66.3171 47.1488 66.3171 47.617C66.2592 48.0852 66.0272 48.2607 65.5634 48.2607C64.5197 48.2607 64.5197 48.2607 64.6937 47.2073C65.1575 44.1056 65.7373 41.0038 66.2012 37.9021C66.3751 36.9657 67.0709 37.3753 67.4768 37.2583ZM67.5348 40.1845C67.4768 40.1845 67.4188 40.1845 67.3608 40.243C67.1869 41.4135 67.0129 42.5839 66.897 43.7544C66.897 43.93 67.0709 44.2226 67.1869 44.2226C67.4768 44.2226 67.9406 44.047 67.9406 43.9885C67.8827 42.701 67.7087 41.472 67.5348 40.1845Z" fill="#1A938A"/>
<path d="M76.464 48.1436C76.1161 48.1436 75.8842 48.1436 75.6522 48.2021C75.0724 48.3192 74.7825 48.0851 74.6665 47.4413C74.4926 46.3879 74.2027 45.3345 73.9708 44.2811C73.9128 43.8714 73.9128 43.4617 73.275 43.5203C72.5792 43.5788 72.8691 44.1055 72.8691 44.3981C72.8111 45.4515 72.8111 46.505 72.8691 47.4999C72.9271 48.2021 72.4632 48.0851 72.0574 48.1436C71.6515 48.1436 71.3036 48.2021 71.3036 47.5584C71.3036 44.2811 71.3036 41.0037 71.3036 37.7264C71.3036 37.3753 71.4196 37.1997 71.7674 37.1997C72.5792 37.1997 73.333 37.1997 74.1447 37.1997C75.3043 37.2582 75.9421 37.7849 76.1741 38.9554C76.406 40.3015 76.5799 41.6475 75.5363 42.818C75.3623 42.9935 75.4203 43.4617 75.4783 43.8129C75.7682 45.276 76.1161 46.6805 76.464 48.1436ZM72.8691 40.4185C72.8691 40.8282 72.8111 41.1793 72.8691 41.589C72.8691 41.7645 73.043 41.9986 73.159 42.0572C73.7968 42.2913 74.4926 41.9401 74.5506 41.2378C74.6665 40.6526 74.6086 40.0674 74.4926 39.4821C74.3766 38.7798 73.7388 38.8384 73.217 38.8384C72.5212 38.8969 72.8691 39.3651 72.8111 39.7162C72.8691 39.8918 72.8691 40.1844 72.8691 40.4185Z" fill="#1A938A"/>
<path d="M59.4172 42.7012C59.4172 41.1796 59.4752 39.5995 59.4172 38.0778C59.4172 37.3756 59.6492 37.2 60.287 37.2585C60.9248 37.317 61.5626 37.2585 62.2004 37.2585C63.476 37.2585 64.2877 37.8437 64.4617 39.0727C64.5776 40.0676 64.5776 41.0625 64.3457 42.0574C64.0558 43.345 63.418 43.7546 62.0844 43.7546C61.0987 43.7546 61.1567 43.6961 61.1567 44.691C61.1567 45.6859 61.1567 46.6808 61.1567 47.7342C61.1567 48.495 60.6928 48.2609 60.287 48.3195C59.8811 48.3195 59.4172 48.4365 59.4172 47.7342C59.4172 46.037 59.4172 44.3399 59.4172 42.7012ZM61.0987 40.4188C61.0987 40.7699 61.0987 41.0625 61.0987 41.4137C61.0987 41.7063 60.9827 42.1745 61.4466 42.1745C61.8525 42.1745 62.3743 41.9989 62.5483 41.7648C62.9541 41.004 62.9541 40.1262 62.5483 39.4239C62.3743 39.1313 61.7945 39.0727 61.3886 38.9557C61.2727 39.2483 61.1567 39.4824 61.0987 39.775C61.0987 39.8921 61.0987 40.1847 61.0987 40.4188Z" fill="#1A938A"/>
<path d="M65.8533 14.3759C65.8533 12.7957 65.8533 11.2156 65.8533 9.63547C65.8533 9.10876 66.0272 8.93319 66.4911 8.99171C67.5347 9.05024 68.6364 9.05024 69.6801 8.99171C70.3179 8.99171 70.2599 9.34285 70.2599 9.75252C70.2599 10.1622 70.4338 10.6889 69.6801 10.6304C69.1582 10.6304 68.6364 10.6304 68.0566 10.6304C67.6507 10.6304 67.4768 10.8059 67.4768 11.2156C67.4768 11.4497 67.4768 11.7423 67.4768 11.9764C67.4768 13.381 67.4768 13.381 68.8104 13.4395C69.5641 13.4395 69.3902 13.9077 69.3902 14.3174C69.3902 14.6685 69.5061 15.0782 68.8683 15.0782C67.4768 15.1367 67.4768 15.1367 67.4768 16.5998C67.4768 18.297 67.4768 18.297 69.1003 18.297C69.3322 18.297 69.5641 18.2384 69.7381 18.297C69.912 18.3555 70.1439 18.5311 70.1439 18.7066C70.3179 19.8186 70.2019 19.9356 69.1003 19.9356C68.2305 19.9356 67.3028 19.8771 66.4331 19.9356C65.8533 19.9356 65.6793 19.7601 65.7373 19.1748C65.8533 17.6532 65.8533 16.0145 65.8533 14.3759Z" fill="#1A938A"/>
<path d="M54.0249 42.6424C54.0249 41.0623 54.0249 39.4821 54.0249 37.902C54.0249 37.3753 54.1409 37.1997 54.6627 37.1997C55.7064 37.2582 56.8081 37.2582 57.8517 37.1997C58.6055 37.1997 58.3736 37.6679 58.4316 38.0776C58.4316 38.4872 58.4316 38.8384 57.8517 38.8384C57.3299 38.7798 56.8081 38.8384 56.2282 38.8384C55.8804 38.8384 55.7064 38.9554 55.7064 39.3066C55.7064 39.5992 55.7064 39.8918 55.7064 40.1844C55.7064 41.589 55.7064 41.6475 57.04 41.6475C57.8517 41.6475 57.6198 42.1157 57.6778 42.5839C57.6778 42.9935 57.7938 43.4032 57.098 43.4032C55.7644 43.4032 55.7644 43.4617 55.7644 44.8078C55.7644 45.393 55.5904 46.1538 55.8804 46.4464C56.1703 46.7391 56.924 46.5635 57.5039 46.622C58.3736 46.622 58.7795 47.2072 58.4316 48.0266C58.3736 48.1436 58.1996 48.2607 58.0257 48.2607C56.866 48.2607 55.7064 48.2607 54.4888 48.2607C53.9669 48.2607 54.0249 47.9095 54.0249 47.6169C54.0249 45.9783 54.0249 44.2811 54.0249 42.6424Z" fill="#1A938A"/>
<path d="M95.598 46.6809C95.598 46.7394 95.656 46.8565 95.656 46.915C95.714 48.3196 95.714 48.3196 94.3224 48.3196C93.5107 48.3196 92.6989 48.3196 91.8872 48.3196C91.4813 48.3196 91.3074 48.2025 91.3074 47.7928C91.3074 44.457 91.3074 41.1797 91.3074 37.8438C91.3074 37.4342 91.4233 37.2586 91.8292 37.3171C92.9309 37.3171 94.0325 37.3756 95.1342 37.3171C95.772 37.3171 95.656 37.7268 95.656 38.1365C95.656 38.4876 95.772 39.0143 95.1342 38.9558C95.0182 38.9558 94.9023 38.9558 94.7863 38.9558C94.2065 39.0143 93.6267 39.0728 92.9889 39.0728C92.9889 39.8336 92.9309 40.653 92.9309 41.4138C92.9309 41.5308 93.1048 41.7064 93.2788 41.7064C93.5107 41.7649 93.8006 41.7649 94.0325 41.7064C94.6703 41.6479 94.9602 41.7649 94.9023 42.5257C94.8443 43.5791 94.9602 43.4036 93.9746 43.4036C92.9889 43.4036 92.9889 43.4036 92.9889 44.457C92.9889 44.8667 92.9889 45.3349 92.9889 45.7445C92.9889 46.7394 92.8729 46.6224 93.9166 46.6224C94.4384 46.6224 94.9023 46.6224 95.4241 46.6224C95.4241 46.5639 95.4821 46.6224 95.598 46.6809Z" fill="#1A938A"/>
<path d="M78.6673 43.5203C78.6673 42.2913 78.6673 41.0623 78.6673 39.8333C78.6673 38.8384 78.6673 38.8384 77.7396 38.8384C77.1018 38.8384 76.9278 38.6628 76.9858 38.019C76.9858 37.4338 77.1018 37.1997 77.7396 37.1997C78.9572 37.2582 80.2328 37.2582 81.4504 37.1997C82.1462 37.1997 82.2042 37.4923 82.2042 38.019C82.2042 38.6628 82.0302 38.8969 81.3924 38.7798C81.2765 38.7798 81.1605 38.7798 81.0445 38.7798C80.4647 38.7213 80.3488 39.0139 80.3488 39.5407C80.3488 41.7645 80.3488 43.9884 80.3488 46.2123C80.3488 46.5635 80.3488 46.9146 80.3488 47.2658C80.3488 48.2021 80.3488 48.1436 79.421 48.2021C78.8412 48.2021 78.6093 48.0266 78.6093 47.4413C78.6673 46.1538 78.6673 44.8078 78.6673 43.5203Z" fill="#1A938A"/>
<path d="M55.3006 15.3125C55.3006 14.0249 55.2426 12.7374 55.3006 11.4499C55.3585 10.7476 55.1266 10.5721 54.4888 10.6306C53.5611 10.6891 53.6191 10.8062 53.5611 9.6942C53.5611 9.05044 53.793 8.99192 54.3149 8.99192C55.5325 8.99192 56.8081 9.05044 58.0257 8.99192C58.7215 8.9334 58.7215 9.34306 58.7215 9.81125C58.7215 10.3965 58.6055 10.6891 57.9677 10.5721C57.8518 10.5721 57.7358 10.5721 57.6198 10.5721C56.982 10.455 56.9241 10.8062 56.9241 11.3329C56.9241 12.3863 56.9241 13.4397 56.9241 14.4346C56.9241 15.9562 56.9241 17.5364 56.9241 19.058C56.9241 19.9358 56.9241 19.9358 56.0543 19.9358C55.2426 19.9358 55.2426 19.9358 55.2426 19.058C55.3006 17.829 55.3006 16.5415 55.3006 15.3125Z" fill="#1A938A"/>
<path d="M106.325 43.5788C106.325 44.8664 106.267 46.1539 106.325 47.4414C106.325 48.1437 106.151 48.3193 105.455 48.2607C104.817 48.2607 104.585 48.1437 104.585 47.4414C104.643 44.9249 104.585 42.4084 104.585 39.8919C104.585 38.6629 104.585 38.7799 103.6 38.7799C103.368 38.7799 102.904 38.7214 102.846 38.6043C102.73 38.2532 102.788 37.8435 102.846 37.4339C102.846 37.3753 103.136 37.2583 103.31 37.2583C104.759 37.2583 106.151 37.2583 107.6 37.2583C108.238 37.2583 108.122 37.7265 108.122 38.0776C108.122 38.4873 108.238 38.8384 107.6 38.8384C106.383 38.897 106.383 38.897 106.383 40.1845C106.325 41.355 106.325 42.4669 106.325 43.5788Z" fill="#1A938A"/>
<path d="M99.4248 21.9836C98.4391 21.9836 98.0333 21.6325 98.0333 20.7546C98.0333 19.8767 98.729 19.2915 99.7727 19.2915C100.7 19.2915 101.164 19.7597 101.164 20.5205C101.164 21.4569 100.526 21.9836 99.4248 21.9836Z" fill="#1A938A"/>
<path d="M28.3389 8.34768C29.0347 8.34768 29.5566 8.87439 29.5566 9.57668C29.5566 10.3375 29.0347 10.8057 28.281 10.8057C27.5852 10.8057 27.1213 10.3375 27.1213 9.57668C27.0633 8.75735 27.5272 8.28916 28.3389 8.34768Z" fill="#1A938A"/>
<path d="M122.328 8.34814C123.081 8.34814 123.545 8.81633 123.545 9.51862C123.545 10.2794 123.081 10.8061 122.328 10.8061C121.574 10.8061 121.052 10.2794 121.11 9.51862C121.11 8.81633 121.632 8.34814 122.328 8.34814Z" fill="#1A938A"/>
<path d="M29.4985 47.6758C29.4985 48.3781 29.0347 48.9048 28.3389 48.9633C27.6431 49.0218 27.0633 48.4951 27.0633 47.7343C27.0633 46.9735 27.5851 46.4468 28.2809 46.4468C28.9767 46.4468 29.4985 46.9735 29.4985 47.6758Z" fill="#1A938A"/>
<path d="M123.603 47.7343C123.603 48.4366 123.081 48.9633 122.444 48.9633C121.748 48.9633 121.168 48.3781 121.168 47.6758C121.168 46.9735 121.69 46.4468 122.386 46.4468C123.024 46.4468 123.603 46.9735 123.603 47.7343Z" fill="#1A938A"/>
</g>
<defs>
<clipPath id="clip0_1_1975">
<rect width="106.977" height="51.0326" fill="white" transform="translate(21.8449 3.13916)"/>
</clipPath>
</defs>
</svg>
