<svg width="153" height="34" viewBox="0 0 153 34" fill="none" xmlns="http://www.w3.org/2000/svg">
<g clip-path="url(#clip0_1_1019)">
<path d="M33.5947 16.7347C33.5947 22.0837 33.5947 27.4884 33.5947 32.8374C33.5947 33.3389 33.6497 33.2832 33.1543 33.2832C22.475 33.2832 11.8507 33.2832 1.17141 33.2832C0.620932 33.2832 0.67598 33.3389 0.67598 32.8374C0.67598 22.0837 0.67598 11.2743 0.67598 0.520594C0.67598 0.520594 0.67598 0.520594 0.67598 0.464875C0.67598 0.0748446 0.565884 0.0191259 1.11636 0.0191259C5.41011 0.0191259 9.70385 0.0191259 13.9976 0.0191259C20.3832 0.0191259 26.7137 0.0191259 33.0992 0.0191259C33.6497 0.0191259 33.5947 -0.0365928 33.5947 0.520594C33.5947 5.92531 33.5947 11.33 33.5947 16.7347ZM22.3098 30.8873C22.475 30.943 22.6401 30.943 22.8053 30.943C25.4476 30.943 28.0899 30.943 30.7322 30.943C31.2826 30.943 31.2276 30.9987 31.2276 30.4415C31.2276 21.3037 31.2276 12.1658 31.2276 3.02793C31.2276 2.41503 31.2827 2.47075 30.6771 2.47075C21.6493 2.47075 12.6214 2.47075 3.59352 2.47075C3.53847 2.47075 3.42838 2.47075 3.37333 2.47075C3.04304 2.47075 3.04304 2.47075 3.04304 2.80506C3.04304 2.86078 3.04304 2.9165 3.04304 2.97222C3.04304 5.14525 3.04304 7.26255 3.04304 9.43558C3.04304 9.4913 3.04304 9.60274 3.04304 9.65846C3.04304 9.82561 3.09809 9.88133 3.26323 9.88133C3.53847 9.82561 3.81371 9.82561 4.08895 9.7699C4.69448 9.65846 5.24496 9.4913 5.85049 9.37986C6.73126 9.21271 7.55698 9.10127 8.43774 9.04555C9.20842 8.98983 9.92404 8.98983 10.6947 9.04555C11.6856 9.10127 12.5113 8.82268 13.2269 8.09834C13.5572 7.76402 13.8875 7.42971 14.1627 7.0954C14.7132 6.48249 15.2637 5.81387 15.8692 5.25668C17.7959 3.64084 20.0529 3.02793 22.53 3.5294C24.0163 3.808 25.2824 4.53234 26.2182 5.75815C27.044 6.81681 27.5944 7.9869 28.0899 9.21271C28.4752 10.2156 28.6954 11.2743 28.6403 12.3887C28.5853 13.0573 28.4752 13.7816 28.0899 14.3945C27.9247 14.6174 27.7596 14.7846 27.4843 14.7846C27.099 14.7846 26.8238 15.0075 26.6036 15.3418C26.2733 15.8432 25.8879 16.289 25.5026 16.7347C25.3375 16.9019 25.1723 17.069 24.9521 17.069C24.787 17.069 24.6769 17.1805 24.6218 17.3476C24.4567 17.7934 24.2916 18.1834 24.1264 18.5734C23.9613 18.9635 23.8512 19.2978 23.686 19.6878C23.4108 20.245 23.0805 20.3007 22.5851 19.9664C22.475 19.855 22.3649 19.7435 22.1997 19.6878L22.1447 19.7435C22.0346 19.9107 21.8694 20.0779 21.7594 20.245C21.4291 20.635 21.4291 20.635 21.7594 21.0808C22.6401 22.2509 23.4658 23.421 24.0714 24.7025C24.5668 25.8169 24.6769 26.987 24.0714 28.1013C23.7411 28.77 23.3557 29.3829 23.0255 30.0515C22.6952 30.1629 22.53 30.4972 22.3098 30.8873ZM14.7132 30.8873C14.8784 30.8873 15.0435 30.8873 15.2637 30.8873C15.4288 30.8873 15.594 30.8316 15.7591 30.7201C16.5848 30.0515 17.4106 29.3272 18.1812 28.6585C18.5666 28.3242 19.007 27.9899 19.3923 27.6556C19.9428 27.1541 19.8327 26.5412 19.2271 26.2069C18.8418 25.984 18.5115 25.7054 18.2913 25.3154C18.0161 24.7582 17.6858 24.201 17.4106 23.6438C17.3005 23.421 17.1353 23.3095 16.9151 23.2538C16.75 23.1981 16.5298 23.1981 16.3647 23.0867C16.0894 22.9195 15.8692 23.0309 15.594 23.1424C15.3738 23.3095 15.1536 23.421 14.8784 23.5881C14.6582 23.7553 14.3829 23.811 14.1077 23.9224C13.9976 23.9782 13.8324 23.9782 13.7223 23.8667C13.5572 23.6996 13.4471 23.811 13.282 23.8667C13.1168 23.9224 13.0067 24.0339 13.0067 24.2568C12.9517 24.9254 12.8416 25.5383 12.7315 26.2069C12.6214 26.7641 12.6764 27.2656 12.8966 27.8228C13.1719 28.5471 13.4471 29.3272 13.6673 30.1072C13.7223 30.3858 13.6673 30.7201 13.9425 30.8316C14.1077 30.943 14.438 30.8873 14.7132 30.8873ZM13.0067 22.2509C13.3921 21.9723 13.7223 21.638 13.9425 21.2479C14.2728 20.6908 14.6582 20.3007 15.2637 20.245C15.4288 20.245 15.4839 20.1336 15.3738 19.9664C15.2086 19.7435 15.0435 19.4649 14.8784 19.2421C14.6031 18.9078 14.5481 18.852 14.1077 18.9635C13.6123 19.1306 13.1719 19.2978 12.6764 19.4092C12.5113 19.4649 12.4562 19.5207 12.5113 19.6878C12.6764 20.5793 12.8966 21.3594 13.0067 22.2509Z" fill="#1A938A"/>
<path d="M116.608 23.9783C115.287 20.5795 114.021 17.1807 112.7 13.7818C112.645 13.7818 112.645 13.7818 112.589 13.7818C111.268 17.1807 110.002 20.5795 108.681 23.9783C108.626 23.9783 108.626 23.9783 108.571 23.9783C106.92 19.2423 105.323 14.5062 103.672 9.77008C103.782 9.65864 103.892 9.65864 104.002 9.65864C104.387 9.65864 104.773 9.65864 105.158 9.65864C105.543 9.65864 105.543 9.65864 105.653 9.99295C105.984 11.1073 106.369 12.2217 106.699 13.2804C107.305 15.1191 107.91 16.9578 108.461 18.7965C108.516 18.9079 108.571 19.0194 108.626 19.2423C109.947 15.8434 111.268 12.5003 112.589 9.21289H112.644C113.966 12.5003 115.232 15.8434 116.553 19.1865C116.718 19.0194 116.718 18.8522 116.773 18.7408C117.709 15.8434 118.645 12.946 119.581 10.0487C119.581 9.99295 119.636 9.88152 119.636 9.8258C119.691 9.65864 119.801 9.60292 119.911 9.60292C120.351 9.60292 120.792 9.60292 121.232 9.60292C121.507 9.60292 121.562 9.60292 121.452 9.88152C121.177 10.7173 120.902 11.5531 120.571 12.3889C119.305 16.0663 118.039 19.688 116.773 23.3654C116.718 23.5326 116.663 23.644 116.608 23.8112C116.663 23.9783 116.663 23.9783 116.608 23.9783Z" fill="#1A938A"/>
<path d="M87.2666 23.9783C83.7985 20.4123 80.3305 16.8464 76.8625 13.2804C76.7524 13.4475 76.8074 13.6147 76.8074 13.7261C76.8074 16.8464 76.8074 19.9109 76.8074 23.0311C76.8074 23.0868 76.8074 23.1983 76.8074 23.254C76.8074 23.5883 76.8074 23.5883 76.4771 23.5883C76.0918 23.5883 75.7615 23.5883 75.3762 23.5883C75.156 23.5883 75.0459 23.5326 75.1009 23.3097C75.1009 23.254 75.1009 23.1983 75.1009 23.1426C75.1009 18.6293 75.1009 14.1719 75.1009 9.65864C75.1009 9.5472 75.1009 9.43577 75.1009 9.21289C76.0368 10.1044 76.8625 11.0516 77.7432 11.9431C78.624 12.8346 79.5048 13.7818 80.3856 14.6733C81.2663 15.5648 82.1471 16.4563 82.9728 17.3478C83.8536 18.2393 84.6793 19.1308 85.5601 20.0223C85.5601 20.0223 85.6151 20.0223 85.6151 19.9666C85.6151 19.7994 85.6151 19.688 85.6151 19.5208C85.6151 16.4006 85.6151 13.2804 85.6151 10.1601C85.6151 10.0487 85.6151 9.99295 85.6151 9.88152C85.6151 9.71436 85.6702 9.60292 85.8904 9.60292C86.2757 9.60292 86.7161 9.60292 87.1014 9.60292C87.2666 9.60292 87.3766 9.65864 87.3216 9.8258C87.3216 9.88152 87.3216 9.93723 87.3216 9.99295C87.3216 14.5062 87.3216 19.0751 87.3216 23.5883C87.3216 23.644 87.3216 23.7555 87.3216 23.8112C87.3216 23.9783 87.3216 23.9783 87.2666 23.9783Z" fill="#1A938A"/>
<path d="M53.6875 16.623C53.6875 14.5057 53.6875 12.3327 53.6875 10.2154C53.6875 10.104 53.6875 10.0482 53.6875 9.9368C53.6875 9.76964 53.7425 9.6582 53.9627 9.6582C54.3481 9.6582 54.7334 9.6582 55.1187 9.6582C55.394 9.6582 55.394 9.6582 55.394 9.99252C55.394 10.7169 55.394 11.4969 55.394 12.2213C55.394 13.1128 55.394 14.0043 55.394 14.8958C55.394 15.2301 55.394 15.2301 55.7243 15.2301C57.761 15.2301 59.7978 15.2301 61.7795 15.2301C62.1098 15.2301 62.1098 15.2301 62.1098 14.8958C62.1098 13.3914 62.1098 11.8312 62.1098 10.3268C62.1098 10.2154 62.1098 10.1597 62.1098 10.0482C62.1098 9.76964 62.1098 9.71392 62.3851 9.71392C62.7704 9.71392 63.1557 9.71392 63.5411 9.71392C63.7613 9.71392 63.8163 9.76964 63.8163 9.99252C63.8163 10.104 63.8163 10.1597 63.8163 10.2711C63.8163 14.5614 63.8163 18.8518 63.8163 23.0864C63.8163 23.6436 63.8714 23.5879 63.3209 23.5879C62.9906 23.5879 62.6603 23.5879 62.33 23.5879C62.1649 23.5879 62.1098 23.5322 62.1098 23.365C62.1098 23.2536 62.1098 23.1978 62.1098 23.0864C62.1098 21.192 62.1098 19.2975 62.1098 17.4031C62.1098 17.3474 62.1098 17.2917 62.1098 17.1802C62.1098 16.8459 62.1098 16.8459 61.7795 16.8459C61.3392 16.8459 60.8988 16.8459 60.4584 16.8459C58.9171 16.8459 57.4308 16.8459 55.8894 16.8459C55.7793 16.8459 55.7243 16.8459 55.6142 16.8459C55.449 16.8459 55.394 16.9016 55.394 17.0688C55.394 17.1802 55.394 17.2917 55.394 17.4031C55.394 19.2975 55.394 21.1363 55.394 23.0307C55.394 23.1421 55.394 23.1978 55.394 23.3093C55.394 23.4764 55.3389 23.5879 55.1187 23.5879C54.7334 23.5879 54.3481 23.5879 53.9627 23.5879C53.6875 23.5879 53.6875 23.5879 53.6875 23.2536C53.6875 22.3621 53.6875 21.4706 53.6875 20.5233C53.6875 19.2418 53.6875 17.9603 53.6875 16.623Z" fill="#1A938A"/>
<path d="M93.8735 15.2864C94.0937 15.2306 94.1487 15.0635 94.2588 15.0078C95.9103 13.3362 97.5617 11.6646 99.2132 9.93737C99.3783 9.77021 99.5985 9.65877 99.8737 9.65877C100.479 9.65877 101.085 9.65877 101.69 9.65877C101.635 9.88165 101.525 9.93737 101.415 10.0488C99.4884 11.9432 97.6168 13.8934 95.6901 15.7878C95.2497 16.2336 95.3048 16.1221 95.6901 16.5122C97.7269 18.7409 99.7086 21.0254 101.745 23.2541C101.8 23.3099 101.911 23.3656 101.911 23.477C101.855 23.5884 101.745 23.5327 101.635 23.5327C101.085 23.5327 100.479 23.5327 99.9288 23.5327C99.7086 23.5327 99.5985 23.477 99.4333 23.3098C98.0021 21.694 96.5709 20.0782 95.1396 18.4623C94.8644 18.128 94.5891 17.8494 94.3139 17.5151C94.2588 17.4594 94.2038 17.2922 94.0387 17.348C93.9286 17.4037 93.8185 17.5151 93.8185 17.6265C93.8185 17.738 93.8185 17.8494 93.8185 17.9609C93.8185 19.6324 93.8185 21.304 93.8185 22.9755C93.8185 23.087 93.8185 23.1427 93.8185 23.2541C93.8185 23.4213 93.7634 23.5327 93.5432 23.5327C93.1579 23.5327 92.7175 23.5327 92.3322 23.5327C92.167 23.5327 92.0569 23.477 92.112 23.3098C92.112 23.2541 92.112 23.1427 92.112 23.087C92.112 18.7966 92.112 14.4506 92.112 10.1602C92.112 9.60306 92.0569 9.65877 92.6074 9.65877C92.8826 9.65877 93.1579 9.65877 93.4331 9.65877C93.8185 9.65877 93.8185 9.65877 93.8185 10.0488C93.8185 11.1075 93.8185 12.1661 93.8185 13.2248C93.8735 13.9491 93.8735 14.6177 93.8735 15.2864Z" fill="#1A938A"/>
<path d="M125.086 16.5673C125.086 14.45 125.086 12.3327 125.086 10.2154C125.086 10.104 125.086 10.0482 125.086 9.9368C125.086 9.76964 125.141 9.6582 125.361 9.6582C125.802 9.6582 126.187 9.6582 126.627 9.6582C128.389 9.6582 130.095 9.6582 131.857 9.6582C131.967 9.6582 132.022 9.6582 132.132 9.6582C132.242 9.6582 132.352 9.71392 132.352 9.82536C132.352 10.2154 132.352 10.6611 132.352 11.0512C132.352 11.1626 132.297 11.274 132.187 11.274C132.077 11.274 132.022 11.274 131.912 11.274C130.426 11.274 128.939 11.274 127.398 11.274C127.288 11.274 127.233 11.274 127.123 11.274C126.903 11.274 126.847 11.3298 126.847 11.5526C126.847 12.3327 126.847 13.057 126.847 13.8371C126.847 14.1714 126.847 14.5057 126.847 14.84C126.847 15.0629 126.903 15.1186 127.123 15.1186C127.673 15.1186 128.224 15.1186 128.774 15.1186C129.82 15.1186 130.811 15.1186 131.857 15.1186C132.187 15.1186 132.187 15.1186 132.187 15.4529C132.187 15.7873 132.187 16.1216 132.187 16.4559C132.187 16.6788 132.132 16.7345 131.912 16.7345C131.637 16.7345 131.361 16.7345 131.086 16.7345C129.82 16.7345 128.499 16.7345 127.233 16.7345C126.847 16.7345 126.847 16.7345 126.847 17.1245C126.847 18.5732 126.847 20.0776 126.847 21.5263C126.847 21.9163 126.847 21.9163 127.233 21.9163C128.774 21.9163 130.315 21.9163 131.857 21.9163C131.967 21.9163 132.022 21.9163 132.132 21.9163C132.297 21.9163 132.352 21.972 132.352 22.1392C132.352 22.5292 132.352 22.9192 132.352 23.3093C132.352 23.4764 132.297 23.5322 132.132 23.5322C132.077 23.5322 131.967 23.5322 131.912 23.5322C129.82 23.5322 127.673 23.5322 125.581 23.5322C125.526 23.5322 125.471 23.5322 125.361 23.5322C125.196 23.5322 125.086 23.4764 125.086 23.3093C125.086 23.1978 125.086 23.0864 125.086 22.975C125.086 20.8577 125.086 18.7403 125.086 16.5673Z" fill="#1A938A"/>
<path d="M46.8078 17.4596C46.8078 19.354 46.8078 21.1927 46.8078 23.0872C46.8078 23.1429 46.8078 23.1986 46.8078 23.3101C46.8078 23.5886 46.8078 23.5886 46.5326 23.6444C46.1473 23.6444 45.7619 23.6444 45.3766 23.6444C45.2114 23.6444 45.1013 23.5886 45.1013 23.3658C45.1013 23.2543 45.1013 23.1429 45.1013 23.0315C45.1013 19.2983 45.1013 15.5652 45.1013 11.832C45.1013 11.2748 45.1564 11.3305 44.6059 11.3305C43.8352 11.3305 43.0646 11.3305 42.2388 11.3305C41.8535 11.3305 41.8535 11.3305 41.8535 10.8848C41.8535 10.5505 41.8535 10.2719 41.8535 9.93756C41.8535 9.77041 41.9086 9.65897 42.0737 9.71469C42.1288 9.71469 42.2388 9.71469 42.2939 9.71469C44.716 9.71469 47.1932 9.71469 49.6153 9.71469C49.7254 9.71469 49.7804 9.71469 49.8905 9.71469C50.0006 9.71469 50.1107 9.77041 50.1107 9.93756C50.1107 10.3833 50.1107 10.7733 50.1107 11.2191C50.1107 11.3305 50.0557 11.3863 49.9456 11.3863C49.8355 11.3863 49.7804 11.3863 49.6703 11.3863C48.8446 11.3863 48.0739 11.3863 47.2482 11.3863C46.8078 11.3863 46.8078 11.3305 46.8078 11.832C46.8078 13.6707 46.8078 15.5652 46.8078 17.4596Z" fill="#1A938A"/>
<path d="M136.81 16.6235C136.81 14.5062 136.81 12.3889 136.81 10.2715C136.81 10.1601 136.81 10.1044 136.81 9.99295C136.81 9.82579 136.865 9.71436 137.085 9.71436C137.47 9.71436 137.911 9.71436 138.296 9.71436C138.516 9.71436 138.571 9.82579 138.571 9.99295C138.571 10.1044 138.571 10.1601 138.571 10.2715C138.571 13.949 138.571 17.6821 138.571 21.3596C138.571 21.4153 138.571 21.5267 138.571 21.5824C138.571 21.9167 138.571 21.9167 138.956 21.9167C139.947 21.9167 140.993 21.9167 141.984 21.9167C142.314 21.9167 142.314 21.9167 142.314 22.2511C142.314 22.5854 142.314 22.9197 142.314 23.254C142.314 23.4769 142.259 23.5326 142.039 23.5326C140.388 23.5326 138.736 23.5326 137.085 23.5326C136.865 23.5326 136.81 23.4769 136.81 23.254C136.81 23.1426 136.81 23.0868 136.81 22.9754C136.81 20.9138 136.81 18.7408 136.81 16.6235Z" fill="#1A938A"/>
<path d="M145.729 16.6235C145.729 14.5062 145.729 12.3331 145.729 10.2158C145.729 10.1044 145.729 10.0487 145.729 9.93723C145.729 9.77007 145.784 9.71436 145.949 9.71436C146.389 9.71436 146.775 9.71436 147.215 9.71436C147.38 9.71436 147.435 9.77007 147.435 9.93723C147.435 9.99295 147.435 10.1044 147.435 10.1601C147.435 13.949 147.435 17.6821 147.435 21.471C147.435 21.5267 147.435 21.5824 147.435 21.6382C147.435 21.9167 147.435 21.9725 147.765 21.9725C148.756 21.9725 149.802 21.9725 150.793 21.9725C151.178 21.9725 151.178 21.9725 151.178 22.3625C151.178 22.6411 151.178 22.9754 151.178 23.254C151.178 23.5883 151.178 23.5883 150.848 23.5883C149.472 23.5883 148.151 23.5883 146.775 23.5883C146.499 23.5883 146.224 23.5883 145.949 23.5883C145.784 23.5883 145.729 23.5326 145.729 23.3654C145.729 23.254 145.729 23.1983 145.729 23.0868C145.729 20.9138 145.729 18.7408 145.729 16.6235Z" fill="#1A938A"/>
<path d="M70.312 16.6791C70.312 18.8522 70.312 20.9695 70.312 23.1425C70.312 23.1982 70.312 23.2539 70.312 23.3654C70.312 23.5883 70.2019 23.644 70.0367 23.644C69.6514 23.644 69.266 23.644 68.8807 23.644C68.6055 23.644 68.6055 23.644 68.6055 23.3654C68.6055 22.641 68.6055 21.9167 68.6055 21.1924C68.6055 17.5706 68.6055 13.9489 68.6055 10.2715C68.6055 10.2158 68.6055 10.1601 68.6055 10.1043C68.6055 9.77002 68.6055 9.77002 68.9358 9.77002C69.3211 9.77002 69.7064 9.77002 70.0918 9.77002C70.312 9.77002 70.367 9.82574 70.367 10.0486C70.367 10.773 70.367 11.4416 70.367 12.1659C70.312 13.5589 70.312 15.119 70.312 16.6791Z" fill="#1A938A"/>
<path d="M152.004 10.6616C151.784 10.9402 151.729 11.2745 151.509 11.6088C151.344 11.2745 151.234 10.9959 151.068 10.6616H151.013C150.958 10.8288 150.958 10.9959 150.903 11.1631C150.903 11.2188 150.903 11.3303 150.848 11.386C150.848 11.4974 150.738 11.4974 150.683 11.4974C150.573 11.4974 150.573 11.386 150.628 11.3303C150.628 11.1631 150.683 11.0517 150.683 10.8845C150.738 10.4945 150.848 10.1044 150.903 9.65869C151.179 10.0487 151.234 10.4945 151.509 10.8845C151.784 10.5502 151.839 10.1044 152.059 9.77013C152.224 9.77013 152.169 9.88157 152.169 9.93728C152.224 10.383 152.335 10.8288 152.39 11.2745C152.39 11.386 152.445 11.4974 152.335 11.4974C152.169 11.5531 152.169 11.4417 152.114 11.3303C152.114 11.1074 152.114 10.8845 152.004 10.6616Z" fill="#1A938A"/>
<path d="M149.912 10.773C149.912 10.9401 149.912 11.163 149.912 11.3301C149.912 11.4416 149.912 11.553 149.746 11.4973C149.636 11.4973 149.636 11.3859 149.636 11.3301C149.636 11.1073 149.636 10.9401 149.636 10.7172C149.636 10.6058 149.636 10.4386 149.636 10.3272C149.636 10.1601 149.636 10.0486 149.416 10.0486C149.306 10.0486 149.251 9.99289 149.251 9.88146C149.251 9.77002 149.306 9.77002 149.416 9.77002C149.691 9.77002 149.912 9.77002 150.187 9.77002C150.242 9.77002 150.297 9.77002 150.297 9.88146C150.297 9.93718 150.297 9.99289 150.242 9.99289C149.801 9.99289 149.912 10.2715 149.912 10.5501C149.912 10.6615 149.967 10.7172 149.912 10.773Z" fill="#1A938A"/>
</g>
<defs>
<clipPath id="clip0_1_1019">
<rect width="151.767" height="33.2641" fill="white" transform="translate(0.675781 0.0195312)"/>
</clipPath>
</defs>
</svg>
