<svg width="313" height="383" viewBox="0 0 313 383" fill="none" xmlns="http://www.w3.org/2000/svg">
<rect width="313" height="382.555" rx="8" fill="white"/>
<rect width="270.797" height="337.415" transform="translate(20.764 21.6292)" fill="white"/>
<g filter="url(#filter0_i_1_2155)">
<path d="M281.481 172.567C282.649 172.672 283.233 172.725 283.742 172.822C287.991 173.632 291.314 176.955 292.124 181.204C292.22 181.712 292.273 182.296 292.379 183.464C292.428 184.014 292.453 184.289 292.475 184.564C292.648 186.794 292.648 189.034 292.475 191.265C292.453 191.539 292.428 191.814 292.379 192.364C292.273 193.532 292.22 194.117 292.124 194.625C291.314 198.874 287.991 202.197 283.742 203.007C283.233 203.103 282.649 203.156 281.481 203.262C280.931 203.311 280.656 203.336 280.382 203.358C278.151 203.531 153.567 203.531 151.337 203.358C151.062 203.336 150.787 203.311 150.237 203.262C149.069 203.156 148.485 203.103 147.977 203.007C143.728 202.197 140.405 198.874 139.595 194.625C139.498 194.117 139.445 193.533 139.34 192.365C139.29 191.814 139.265 191.539 139.244 191.265C139.071 189.034 139.071 186.794 139.244 184.564C139.265 184.289 139.29 184.014 139.34 183.464C139.445 182.296 139.498 181.712 139.595 181.204C140.405 176.955 143.728 173.632 147.977 172.822C148.485 172.725 149.069 172.672 150.237 172.567C150.787 172.517 151.062 172.492 151.337 172.471C153.567 172.298 278.151 172.298 280.382 172.471C280.656 172.492 280.931 172.517 281.481 172.567Z" fill="#FF7762"/>
</g>
<g filter="url(#filter1_i_1_2155)">
<path d="M40.7872 276.214C41.9552 276.319 42.5393 276.372 43.0478 276.469C47.2967 277.279 50.6198 280.602 51.4293 284.851C51.5262 285.359 51.579 285.943 51.6845 287.111C51.7342 287.661 51.759 287.936 51.7804 288.211C51.9533 290.441 51.9533 292.681 51.7804 294.912C51.759 295.186 51.7342 295.461 51.6845 296.011C51.579 297.179 51.5262 297.764 51.4293 298.272C50.6198 302.521 47.2967 305.844 43.0478 306.654C42.5393 306.75 41.9552 306.803 40.7872 306.909C40.2372 306.958 39.9622 306.983 39.6873 307.005C37.4572 307.178 35.2169 307.178 32.9868 307.005C32.7119 306.983 32.4369 306.958 31.8869 306.909C30.7189 306.803 30.1348 306.75 29.6263 306.654C25.3774 305.844 22.0543 302.521 21.2448 298.272C21.1479 297.764 21.0952 297.179 20.9896 296.011C20.9399 295.461 20.9151 295.186 20.8937 294.912C20.7208 292.681 20.7208 290.441 20.8937 288.211C20.9151 287.936 20.9399 287.661 20.9896 287.111C21.0952 285.943 21.1479 285.359 21.2448 284.851C22.0543 280.602 25.3774 277.279 29.6263 276.469C30.1348 276.372 30.7189 276.319 31.8869 276.214C32.4369 276.164 32.7119 276.139 32.9868 276.118C35.2169 275.945 37.4572 275.945 39.6873 276.118C39.9622 276.139 40.2372 276.164 40.7872 276.214Z" fill="#32C69A"/>
</g>
<rect x="21.1966" y="22.0617" width="269.932" height="33.7415" rx="3.02809" fill="white"/>
<path fill-rule="evenodd" clip-rule="evenodd" d="M36.5759 38.9325L40.3744 42.731C40.5997 42.9563 40.5997 43.3215 40.3744 43.5467C40.1492 43.7719 39.784 43.7719 39.5587 43.5467L34.9445 38.9325L39.5587 34.3182C39.784 34.093 40.1492 34.093 40.3744 34.3182C40.5997 34.5435 40.5997 34.9087 40.3744 35.1339L36.5759 38.9325Z" fill="#93A5B1"/>
<mask id="mask0_1_2155" style="mask-type:luminance" maskUnits="userSpaceOnUse" x="34" y="34" width="7" height="10">
<path fill-rule="evenodd" clip-rule="evenodd" d="M36.5759 38.9325L40.3744 42.731C40.5997 42.9563 40.5997 43.3215 40.3744 43.5467C40.1492 43.7719 39.784 43.7719 39.5587 43.5467L34.9445 38.9325L39.5587 34.3182C39.784 34.093 40.1492 34.093 40.3744 34.3182C40.5997 34.5435 40.5997 34.9087 40.3744 35.1339L36.5759 38.9325Z" fill="white"/>
</mask>
<g mask="url(#mask0_1_2155)">
</g>
<path d="M111.989 39.6641C111.989 38.6397 112.174 37.7538 112.543 37.0063C112.921 36.2588 113.461 35.682 114.163 35.2759C114.864 34.8607 115.699 34.653 116.668 34.653C117.628 34.653 118.459 34.8607 119.16 35.2759C119.861 35.682 120.401 36.2588 120.78 37.0063C121.167 37.7538 121.361 38.6351 121.361 39.6502C121.361 40.6746 121.167 41.5651 120.78 42.3219C120.401 43.0694 119.861 43.6508 119.16 44.066C118.459 44.4813 117.628 44.689 116.668 44.689C115.699 44.689 114.864 44.4813 114.163 44.066C113.471 43.6508 112.935 43.0694 112.557 42.3219C112.179 41.5651 111.989 40.6792 111.989 39.6641ZM113.858 39.6641C113.858 40.7623 114.094 41.6205 114.564 42.2388C115.035 42.8571 115.736 43.1663 116.668 43.1663C117.573 43.1663 118.269 42.8571 118.758 42.2388C119.248 41.6205 119.492 40.7623 119.492 39.6641C119.492 38.5567 119.248 37.6984 118.758 37.0893C118.279 36.4803 117.582 36.1757 116.668 36.1757C115.736 36.1757 115.035 36.4803 114.564 37.0893C114.094 37.6984 113.858 38.5567 113.858 39.6641ZM126.277 44.689C125.557 44.689 124.925 44.5413 124.38 44.246C123.845 43.9507 123.43 43.5308 123.134 42.9863C122.839 42.4326 122.691 41.7774 122.691 41.0207C122.691 40.2639 122.839 39.6179 123.134 39.0827C123.439 38.5474 123.859 38.1368 124.394 37.8507C124.929 37.5646 125.557 37.4216 126.277 37.4216C126.738 37.4216 127.186 37.4954 127.619 37.643C128.062 37.7815 128.422 37.9845 128.699 38.2521L128.173 39.4564C127.924 39.2257 127.642 39.055 127.329 38.9443C127.024 38.8243 126.724 38.7643 126.429 38.7643C125.811 38.7643 125.326 38.9581 124.975 39.3457C124.634 39.7333 124.463 40.2962 124.463 41.0345C124.463 41.7728 124.634 42.3403 124.975 42.7371C125.326 43.134 125.811 43.3324 126.429 43.3324C126.715 43.3324 127.01 43.277 127.315 43.1663C127.629 43.0555 127.915 42.8848 128.173 42.6541L128.699 43.8446C128.413 44.1122 128.048 44.3198 127.605 44.4675C127.172 44.6151 126.729 44.689 126.277 44.689ZM133.058 44.689C132.227 44.689 131.599 44.4721 131.175 44.0384C130.75 43.6046 130.538 42.954 130.538 42.0865V38.8612H129.195V37.56H130.538V35.7743L132.269 35.3313V37.56H134.137V38.8612H132.269V41.9758C132.269 42.4557 132.361 42.7925 132.545 42.9863C132.73 43.1801 132.984 43.277 133.307 43.277C133.482 43.277 133.63 43.2632 133.75 43.2355C133.879 43.2078 134.003 43.1709 134.123 43.1247V44.4952C133.967 44.5598 133.791 44.6059 133.597 44.6336C133.413 44.6705 133.233 44.689 133.058 44.689ZM138.401 44.689C137.681 44.689 137.058 44.5413 136.532 44.246C136.006 43.9507 135.596 43.5308 135.3 42.9863C135.014 42.4418 134.871 41.7958 134.871 41.0483C134.871 40.3008 135.014 39.6595 135.3 39.1242C135.596 38.5797 136.006 38.1598 136.532 37.8645C137.058 37.5692 137.681 37.4216 138.401 37.4216C139.121 37.4216 139.744 37.5692 140.27 37.8645C140.805 38.1598 141.216 38.5797 141.502 39.1242C141.797 39.6595 141.945 40.3008 141.945 41.0483C141.945 41.7958 141.797 42.4418 141.502 42.9863C141.216 43.5308 140.805 43.9507 140.27 44.246C139.744 44.5413 139.121 44.689 138.401 44.689ZM138.401 43.3601C138.946 43.3601 139.379 43.1709 139.702 42.7925C140.025 42.4049 140.187 41.8235 140.187 41.0483C140.187 40.2731 140.025 39.6964 139.702 39.318C139.379 38.9396 138.946 38.7505 138.401 38.7505C137.857 38.7505 137.423 38.9396 137.1 39.318C136.777 39.6964 136.615 40.2731 136.615 41.0483C136.615 41.8235 136.777 42.4049 137.1 42.7925C137.423 43.1709 137.857 43.3601 138.401 43.3601ZM147.438 44.689C146.847 44.689 146.33 44.5459 145.887 44.2598C145.444 43.9645 145.149 43.5677 145.001 43.0694H145.154V44.5505H143.437V34.3623H145.167V38.9858H145.001C145.158 38.5059 145.458 38.1275 145.901 37.8507C146.344 37.5646 146.856 37.4216 147.438 37.4216C148.056 37.4216 148.596 37.5692 149.057 37.8645C149.519 38.1598 149.879 38.5797 150.137 39.1242C150.395 39.6595 150.525 40.3054 150.525 41.0622C150.525 41.8189 150.395 42.4695 150.137 43.014C149.879 43.5492 149.514 43.9645 149.043 44.2598C148.582 44.5459 148.047 44.689 147.438 44.689ZM146.953 43.3601C147.498 43.3601 147.936 43.1709 148.268 42.7925C148.61 42.4142 148.78 41.8374 148.78 41.0622C148.78 40.287 148.61 39.7102 148.268 39.3318C147.936 38.9443 147.498 38.7505 146.953 38.7505C146.409 38.7505 145.97 38.9396 145.638 39.318C145.306 39.6964 145.14 40.2731 145.14 41.0483C145.14 41.8235 145.306 42.4049 145.638 42.7925C145.97 43.1709 146.409 43.3601 146.953 43.3601ZM155.399 44.689C154.227 44.689 153.309 44.366 152.644 43.72C151.98 43.074 151.647 42.1881 151.647 41.0622C151.647 40.3331 151.79 39.6964 152.077 39.1519C152.363 38.6074 152.759 38.1829 153.267 37.8784C153.784 37.5738 154.384 37.4216 155.067 37.4216C155.74 37.4216 156.303 37.5646 156.755 37.8507C157.208 38.1368 157.549 38.5382 157.78 39.055C158.02 39.5718 158.14 40.1763 158.14 40.8684V41.3252H153.046V40.4116H156.908L156.672 40.6054C156.672 39.9594 156.534 39.4657 156.257 39.1242C155.989 38.7828 155.597 38.612 155.08 38.612C154.508 38.612 154.065 38.8151 153.751 39.2211C153.447 39.6272 153.295 40.1947 153.295 40.9238V41.1037C153.295 41.8604 153.479 42.428 153.848 42.8064C154.227 43.1755 154.757 43.3601 155.44 43.3601C155.837 43.3601 156.206 43.3093 156.548 43.2078C156.898 43.0971 157.231 42.9217 157.544 42.6818L158.057 43.8446C157.724 44.1122 157.328 44.3198 156.866 44.4675C156.405 44.6151 155.916 44.689 155.399 44.689ZM159.591 44.5505V39.3457C159.591 39.0504 159.582 38.7505 159.563 38.4459C159.554 38.1414 159.531 37.8461 159.494 37.56H161.169L161.363 39.4703H161.086C161.178 39.0089 161.331 38.6259 161.543 38.3213C161.764 38.0168 162.032 37.7907 162.346 37.643C162.659 37.4954 163.001 37.4216 163.37 37.4216C163.536 37.4216 163.67 37.4308 163.772 37.4492C163.873 37.4585 163.975 37.4815 164.076 37.5185L164.062 39.0412C163.887 38.9673 163.735 38.9212 163.605 38.9027C163.485 38.8843 163.333 38.875 163.149 38.875C162.752 38.875 162.415 38.9581 162.138 39.1242C161.87 39.2903 161.667 39.521 161.529 39.8163C161.4 40.1117 161.335 40.4485 161.335 40.8269V44.5505H159.591ZM168.976 44.5505V43.2355L172.215 39.8579C172.622 39.4334 172.921 39.0412 173.115 38.6812C173.309 38.3213 173.406 37.9522 173.406 37.5738C173.406 37.1032 173.258 36.7479 172.963 36.5079C172.668 36.268 172.239 36.148 171.676 36.148C171.223 36.148 170.79 36.2311 170.374 36.3972C169.959 36.5541 169.553 36.8033 169.156 37.1447L168.575 35.8158C168.972 35.4651 169.461 35.1837 170.042 34.9714C170.633 34.7591 171.251 34.653 171.897 34.653C172.949 34.653 173.757 34.8883 174.32 35.359C174.882 35.8296 175.164 36.5033 175.164 37.38C175.164 37.9891 175.021 38.5705 174.735 39.1242C174.449 39.6687 174.006 40.2408 173.406 40.8407L170.707 43.54V43.0694H175.552V44.5505H168.976ZM180.35 44.689C179.205 44.689 178.324 44.2552 177.706 43.3878C177.087 42.511 176.778 41.2652 176.778 39.6502C176.778 38.0168 177.087 36.7756 177.706 35.9265C178.324 35.0775 179.205 34.653 180.35 34.653C181.503 34.653 182.384 35.0775 182.993 35.9265C183.612 36.7756 183.921 38.0122 183.921 39.6364C183.921 41.2606 183.612 42.511 182.993 43.3878C182.384 44.2552 181.503 44.689 180.35 44.689ZM180.35 43.2216C180.977 43.2216 181.443 42.9356 181.748 42.3634C182.052 41.782 182.204 40.873 182.204 39.6364C182.204 38.3998 182.052 37.5046 181.748 36.9509C181.443 36.388 180.977 36.1065 180.35 36.1065C179.731 36.1065 179.265 36.388 178.951 36.9509C178.647 37.5046 178.495 38.3998 178.495 39.6364C178.495 40.873 178.647 41.782 178.951 42.3634C179.265 42.9356 179.731 43.2216 180.35 43.2216ZM185.577 44.5505V43.2355L188.816 39.8579C189.222 39.4334 189.522 39.0412 189.716 38.6812C189.909 38.3213 190.006 37.9522 190.006 37.5738C190.006 37.1032 189.859 36.7479 189.563 36.5079C189.268 36.268 188.839 36.148 188.276 36.148C187.824 36.148 187.39 36.2311 186.975 36.3972C186.559 36.5541 186.153 36.8033 185.757 37.1447L185.175 35.8158C185.572 35.4651 186.061 35.1837 186.643 34.9714C187.233 34.7591 187.851 34.653 188.497 34.653C189.55 34.653 190.357 34.8883 190.92 35.359C191.483 35.8296 191.764 36.5033 191.764 37.38C191.764 37.9891 191.621 38.5705 191.335 39.1242C191.049 39.6687 190.606 40.2408 190.006 40.8407L187.307 43.54V43.0694H192.152V44.5505H185.577ZM194.334 44.5505V43.0694H196.576V36.2865H197.434L194.555 38.003V36.3141L197.088 34.7914H198.362V43.0694H200.466V44.5505H194.334Z" fill="#043344"/>
<path fill-rule="evenodd" clip-rule="evenodd" d="M275.749 38.9325L271.951 35.1339C271.726 34.9087 271.726 34.5435 271.951 34.3182C272.176 34.093 272.541 34.093 272.767 34.3182L277.381 38.9325L272.767 43.5467C272.541 43.7719 272.176 43.7719 271.951 43.5467C271.726 43.3215 271.726 42.9563 271.951 42.731L275.749 38.9325Z" fill="#93A5B1"/>
<mask id="mask1_1_2155" style="mask-type:luminance" maskUnits="userSpaceOnUse" x="271" y="34" width="7" height="10">
<path fill-rule="evenodd" clip-rule="evenodd" d="M275.749 38.9325L271.951 35.1339C271.726 34.9087 271.726 34.5435 271.951 34.3182C272.176 34.093 272.541 34.093 272.767 34.3182L277.381 38.9325L272.767 43.5467C272.541 43.7719 272.176 43.7719 271.951 43.5467C271.726 43.3215 271.726 42.9563 271.951 42.731L275.749 38.9325Z" fill="white"/>
</mask>
<g mask="url(#mask1_1_2155)">
</g>
<rect x="21.1966" y="22.0617" width="269.932" height="33.7415" rx="3.02809" stroke="#E9EDEF" stroke-width="0.865167"/>
<g filter="url(#filter2_i_1_2155)">
<rect width="267.337" height="30.2809" transform="translate(20.764 77)" fill="white"/>
<rect x="20.764" y="77" width="30.7752" height="30.2809" fill="white"/>
<path d="M28.8576 95.2379C30.504 95.2379 31.5413 94.2958 31.5413 93.03C31.5413 90.4034 27.1731 91.6215 27.1731 90.0132C27.1731 89.4136 27.7631 88.9663 28.6767 88.9663C29.6379 88.9663 30.3327 89.5373 30.3327 90.3367H31.389C31.3795 88.9949 30.2375 88.0242 28.6672 88.0242C27.0969 88.0242 26.0406 88.9092 26.0406 90.175C26.0406 92.7826 30.4088 91.5454 30.4088 93.2013C30.4088 93.8009 29.8473 94.2958 28.8861 94.2958C27.8012 94.2958 27.0398 93.6676 27.0398 92.8016H25.9549C25.9549 94.2101 27.1731 95.2379 28.8576 95.2379ZM37.5744 92.2306C37.5744 93.4012 36.8797 94.2482 35.8614 94.2482C34.8145 94.2387 34.1388 93.2775 34.1388 92.2306V88.2621H32.9968V92.2496C32.9968 93.9912 34.1864 95.2379 35.8614 95.2379C37.5268 95.2379 38.7164 93.9912 38.7164 92.2496V88.2621H37.5744V92.2306ZM41.8901 88.2621H40.4531V95H41.5666V89.6515L44.6405 95H46.068V88.2621H44.9546V93.6201L41.8901 88.2621Z" fill="#93A5B1"/>
<rect x="60.1909" y="77" width="30.7752" height="30.2809" fill="white"/>
<path d="M64.9919 95V89.6896L67.1999 95H68.0754L70.2833 89.6801V95H71.4158V88.2621H69.8075L67.6376 93.5344L65.4583 88.2621H63.8594V95H64.9919ZM72.8775 91.631C72.8775 93.7533 74.3811 95.2379 76.5415 95.2379C78.7018 95.2379 80.215 93.7533 80.215 91.631C80.215 89.5183 78.7018 88.0242 76.5415 88.0242C74.3811 88.0242 72.8775 89.5183 72.8775 91.631ZM74.0195 91.631C74.0195 90.1083 75.0663 89.0139 76.5415 89.0139C78.0261 89.0139 79.0729 90.1083 79.0729 91.631C79.0729 93.1537 78.0261 94.2482 76.5415 94.2482C75.0663 94.2387 74.0195 93.1537 74.0195 91.631ZM83.1154 88.2621H81.6783V95H82.7918V89.6515L85.8657 95H87.2933V88.2621H86.1798V93.6201L83.1154 88.2621Z" fill="#93A5B1"/>
<rect x="99.6179" y="77" width="30.7752" height="30.2809" fill="white"/>
<path d="M107.629 89.2423V95H108.771V89.2423H110.921V88.2621H105.468V89.2423H107.629ZM116.549 92.2306C116.549 93.4012 115.854 94.2482 114.836 94.2482C113.789 94.2387 113.113 93.2775 113.113 92.2306V88.2621H111.971V92.2496C111.971 93.9912 113.161 95.2379 114.836 95.2379C116.501 95.2379 117.691 93.9912 117.691 92.2496V88.2621H116.549V92.2306ZM120.532 94.0293V91.9641H123.71V91.0886H120.532V89.2328H124.091V88.2621H119.428V95H124.186V94.0293H120.532Z" fill="#93A5B1"/>
<rect x="139.045" y="77" width="30.7752" height="30.2809" fill="white"/>
<path d="M149.673 94.1816L148.274 88.2621H146.77L145.333 94.1816L143.734 88.2621H142.564L144.429 95H146.199L147.503 89.5373L148.816 95H150.577L152.433 88.2621H151.262L149.673 94.1816ZM154.887 94.0293V91.9641H158.066V91.0886H154.887V89.2328H158.447V88.2621H153.784V95H158.542V94.0293H154.887ZM160.002 95H162.296C164.637 95 166.198 93.6581 166.198 91.631C166.198 89.604 164.637 88.2621 162.296 88.2621H160.002V95ZM165.056 91.631C165.056 93.1157 163.942 94.0483 162.296 94.0483H161.135V89.2138H162.296C163.942 89.2138 165.056 90.1464 165.056 91.631Z" fill="#93A5B1"/>
<rect x="178.472" y="77" width="30.7752" height="30.2809" fill="white"/>
<path d="M185.906 89.2423V95H187.048V89.2423H189.199V88.2621H183.746V89.2423H185.906ZM191.439 95V91.9736H194.751V95H195.893V88.2621H194.751V91.0124H191.439V88.2621H190.297V95H191.439ZM202.198 92.2306C202.198 93.4012 201.503 94.2482 200.485 94.2482C199.438 94.2387 198.762 93.2775 198.762 92.2306V88.2621H197.62V92.2496C197.62 93.9912 198.81 95.2379 200.485 95.2379C202.15 95.2379 203.34 93.9912 203.34 92.2496V88.2621H202.198V92.2306Z" fill="#93A5B1"/>
<rect x="217.899" y="77" width="30.7752" height="30.2809" fill="white"/>
<path d="M230.105 92.3924V91.4883H227.412V89.2518H230.676V88.2621H226.27V95H227.412V92.3924H230.105ZM231.959 95H233.101V92.478H234.919L236.394 95H237.698L236.023 92.3163C236.936 92.0783 237.593 91.2979 237.593 90.4034C237.593 89.1471 236.537 88.2621 235.061 88.2621H231.959V95ZM234.928 89.2042C235.813 89.2042 236.451 89.642 236.451 90.4034C236.451 91.0791 235.804 91.5644 234.928 91.5644H233.101V89.2042H234.928ZM240.305 88.2621H239.163V95H240.305V88.2621Z" fill="#93A5B1"/>
<rect x="257.326" y="77" width="30.7752" height="30.2809" fill="white"/>
<path d="M266.558 95.2379C268.204 95.2379 269.241 94.2958 269.241 93.03C269.241 90.4034 264.873 91.6215 264.873 90.0132C264.873 89.4136 265.463 88.9663 266.377 88.9663C267.338 88.9663 268.033 89.5373 268.033 90.3367H269.089C269.079 88.9949 267.937 88.0242 266.367 88.0242C264.797 88.0242 263.741 88.9092 263.741 90.175C263.741 92.7826 268.109 91.5454 268.109 93.2013C268.109 93.8009 267.547 94.2958 266.586 94.2958C265.501 94.2958 264.74 93.6676 264.74 92.8016H263.655C263.655 94.2101 264.873 95.2379 266.558 95.2379ZM274.208 88.2621H272.553L270.145 95H271.353L271.829 93.5725H274.913L275.398 95H276.607L274.208 88.2621ZM273.38 89.2518L274.646 92.7255H272.115L273.38 89.2518ZM278.885 89.2423V95H280.027V89.2423H282.177V88.2621H276.724V89.2423H278.885Z" fill="#93A5B1"/>
</g>
<rect x="20.764" y="121.124" width="31.2696" height="30.2809" fill="white"/>
<path d="M31.3318 129.343C29.3903 129.343 27.7431 130.799 27.4342 132.814L29.0815 133.137C29.2433 131.799 30.1993 130.843 31.3318 130.843C32.5231 130.843 33.3762 131.667 33.3762 132.784C33.3762 133.711 32.7731 134.373 31.876 135.049L27.5371 138.3V140.124H34.8911V138.667H29.405L32.9643 136.064C34.2145 135.152 35.0823 134.049 35.0823 132.652C35.0823 130.755 33.4644 129.343 31.3318 129.343ZM37.574 134.093C36.7945 135.123 36.4268 136.138 36.4268 136.991C36.4268 138.947 38.1182 140.491 40.5008 140.491C42.8688 140.491 44.5749 138.976 44.5749 136.858C44.5749 134.873 43.0747 133.446 40.9862 133.446C40.7215 133.446 40.3685 133.476 39.9714 133.608L42.9129 129.71H40.8538L37.574 134.093ZM38.1917 136.858C38.1917 135.652 39.1771 134.785 40.545 134.785C41.854 134.799 42.81 135.652 42.81 136.858C42.81 138.094 41.854 138.991 40.5597 138.991C39.1771 139.006 38.1917 138.109 38.1917 136.858Z" fill="#BEC9D0"/>
<rect x="60.6853" y="121.124" width="31.2696" height="30.2809" fill="white"/>
<path d="M72.1866 129.343C70.2452 129.343 68.5979 130.799 68.2891 132.814L69.9363 133.137C70.0981 131.799 71.0541 130.843 72.1866 130.843C73.378 130.843 74.231 131.667 74.231 132.784C74.231 133.711 73.628 134.373 72.7308 135.049L68.392 138.3V140.124H75.7459V138.667H70.2599L73.8192 136.064C75.0694 135.152 75.9371 134.049 75.9371 132.652C75.9371 130.755 74.3193 129.343 72.1866 129.343ZM80.0467 140.124L83.9884 130.755V129.71H76.8551V131.211H81.944L78.1788 140.124H80.0467Z" fill="#BEC9D0"/>
<rect x="100.607" y="121.124" width="31.2696" height="30.2809" fill="white"/>
<path d="M110.894 129.343C108.953 129.343 107.305 130.799 106.997 132.814L108.644 133.137C108.806 131.799 109.762 130.843 110.894 130.843C112.086 130.843 112.939 131.667 112.939 132.784C112.939 133.711 112.336 134.373 111.438 135.049L107.1 138.3V140.124H114.454V138.667H108.967L112.527 136.064C113.777 135.152 114.645 134.049 114.645 132.652C114.645 130.755 113.027 129.343 110.894 129.343ZM120.343 129.328C118.24 129.328 116.71 130.505 116.71 132.167C116.71 133.284 117.401 134.299 118.357 134.579C117.136 134.858 116.269 136.049 116.269 137.358C116.269 139.168 117.975 140.462 120.343 140.462C122.711 140.462 124.417 139.182 124.417 137.358C124.417 136.049 123.534 134.858 122.328 134.579C123.284 134.299 123.976 133.284 123.976 132.167C123.976 130.475 122.446 129.328 120.343 129.328ZM120.343 135.358C121.608 135.358 122.534 136.123 122.534 137.167C122.534 138.226 121.622 138.991 120.343 138.991C119.078 138.991 118.151 138.226 118.151 137.167C118.151 136.123 119.078 135.358 120.343 135.358ZM120.343 130.799C121.461 130.799 122.255 131.461 122.255 132.373C122.255 133.299 121.461 133.976 120.343 133.976C119.225 133.976 118.431 133.299 118.431 132.373C118.431 131.461 119.225 130.799 120.343 130.799Z" fill="#BEC9D0"/>
<rect x="140.528" y="121.124" width="31.2696" height="30.2809" fill="white"/>
<path d="M151.096 129.343C149.154 129.343 147.507 130.799 147.198 132.814L148.845 133.137C149.007 131.799 149.963 130.843 151.096 130.843C152.287 130.843 153.14 131.667 153.14 132.784C153.14 133.711 152.537 134.373 151.64 135.049L147.301 138.3V140.124H154.655V138.667H149.169L152.728 136.064C153.978 135.152 154.846 134.049 154.846 132.652C154.846 130.755 153.228 129.343 151.096 129.343ZM163.192 135.741C163.971 134.711 164.339 133.696 164.339 132.843C164.339 130.887 162.633 129.357 160.265 129.357C157.882 129.357 156.191 130.858 156.191 132.976C156.191 134.961 157.691 136.388 159.765 136.388C160.044 136.388 160.397 136.358 160.794 136.226L157.853 140.124H159.897L163.192 135.741ZM162.574 132.976C162.574 134.196 161.574 135.049 160.206 135.049C158.912 135.049 157.956 134.182 157.956 132.976C157.956 131.74 158.897 130.858 160.206 130.843C161.574 130.843 162.574 131.74 162.574 132.976Z" fill="#BEC9D0"/>
<rect x="180.449" y="121.124" width="31.2696" height="30.2809" fill="white"/>
<path d="M186.645 131.166H191.307L188.63 133.961L189.101 135.123C189.336 135.02 189.733 134.946 190.028 134.946C191.337 134.946 192.278 135.814 192.278 136.991C192.278 138.153 191.337 138.991 190.013 138.991C188.807 138.991 187.807 137.961 187.615 136.535L186.071 136.8C186.248 138.932 187.924 140.491 190.086 140.491C192.337 140.491 193.984 139.05 193.984 137.064C193.984 135.285 192.646 133.946 190.91 133.726L193.631 130.813V129.71H186.645V131.166ZM195.594 134.917C195.594 138.153 197.433 140.491 200.168 140.491C202.904 140.491 204.743 138.153 204.743 134.917C204.743 131.681 202.904 129.343 200.168 129.343C197.433 129.343 195.594 131.681 195.594 134.917ZM197.286 134.917C197.286 132.578 198.462 130.872 200.168 130.872C201.874 130.872 203.051 132.578 203.051 134.917C203.051 137.256 201.874 138.962 200.168 138.962C198.462 138.962 197.286 137.256 197.286 134.917Z" fill="#BEC9D0"/>
<rect x="220.37" y="121.124" width="31.2696" height="30.2809" fill="white"/>
<path d="M235.469 131.858V140.124H237.205V129.71H235.764L232.91 131.843V133.77L235.469 131.858Z" fill="#93A5B1"/>
<rect x="260.292" y="121.124" width="31.2696" height="30.2809" fill="white"/>
<path d="M275.466 129.343C273.525 129.343 271.877 130.799 271.568 132.814L273.216 133.137C273.377 131.799 274.333 130.843 275.466 130.843C276.657 130.843 277.51 131.667 277.51 132.784C277.51 133.711 276.907 134.373 276.01 135.049L271.671 138.3V140.124H279.025V138.667H273.539L277.099 136.064C278.349 135.152 279.216 134.049 279.216 132.652C279.216 130.755 277.599 129.343 275.466 129.343Z" fill="#93A5B1"/>
<rect x="20.764" y="173.033" width="31.2696" height="30.2809" fill="white"/>
<path d="M32.3416 183.076H37.004L34.3272 185.871L34.7978 187.033C35.0331 186.93 35.4303 186.856 35.7244 186.856C37.0334 186.856 37.9747 187.724 37.9747 188.901C37.9747 190.063 37.0334 190.901 35.7097 190.901C34.5037 190.901 33.5035 189.871 33.3123 188.445L31.768 188.709C31.9445 190.842 33.6212 192.401 35.7832 192.401C38.0335 192.401 39.6808 190.96 39.6808 188.974C39.6808 187.195 38.3424 185.856 36.6069 185.636L39.3278 182.723V181.62H32.3416V183.076Z" fill="#043344"/>
<rect x="60.6853" y="173.033" width="31.2696" height="30.2809" fill="white"/>
<path d="M71.6301 188.768V189.827H76.7043V192.033H78.4692V189.827H79.7341V188.371H78.4692V181.62H76.013L71.6301 188.768ZM76.6896 183.268L76.7043 188.371H73.5862L76.6896 183.268Z" fill="#043344"/>
<rect x="100.607" y="173.033" width="31.2696" height="30.2809" fill="white"/>
<path d="M113.119 181.62L112.589 186.753H115.487C117.031 186.753 117.943 187.651 117.943 188.886C117.943 190.048 117.017 190.901 115.737 190.901C114.487 190.901 113.516 189.871 113.398 188.445L111.854 188.695C112.016 190.842 113.634 192.401 115.796 192.401C118.031 192.401 119.635 190.93 119.635 188.886C119.635 186.856 118.134 185.371 115.796 185.371H114.251L114.487 183.076H118.796V181.62H113.119Z" fill="#043344"/>
<path d="M152.739 186.003C151.959 187.033 151.591 188.048 151.591 188.901C151.591 190.857 153.283 192.401 155.665 192.401C158.033 192.401 159.74 190.886 159.74 188.768C159.74 186.783 158.239 185.356 156.151 185.356C155.886 185.356 155.533 185.386 155.136 185.518L158.078 181.62H156.018L152.739 186.003ZM153.356 188.768C153.356 187.562 154.342 186.694 155.71 186.694C157.019 186.709 157.975 187.562 157.975 188.768C157.975 190.004 157.019 190.901 155.724 190.901C154.342 190.916 153.356 190.018 153.356 188.768Z" fill="white"/>
<path d="M195.211 192.033L199.153 182.665V181.62H192.02V183.12H197.109L193.343 192.033H195.211Z" fill="white"/>
<path d="M235.507 181.238C233.404 181.238 231.875 182.415 231.875 184.077C231.875 185.194 232.566 186.209 233.522 186.489C232.301 186.768 231.433 187.959 231.433 189.268C231.433 191.077 233.139 192.372 235.507 192.372C237.875 192.372 239.581 191.092 239.581 189.268C239.581 187.959 238.699 186.768 237.493 186.489C238.449 186.209 239.14 185.194 239.14 184.077C239.14 182.385 237.611 181.238 235.507 181.238ZM235.507 187.268C236.772 187.268 237.699 188.033 237.699 189.077C237.699 190.136 236.787 190.901 235.507 190.901C234.243 190.901 233.316 190.136 233.316 189.077C233.316 188.033 234.243 187.268 235.507 187.268ZM235.507 182.709C236.625 182.709 237.419 183.371 237.419 184.282C237.419 185.209 236.625 185.886 235.507 185.886C234.39 185.886 233.595 185.209 233.595 184.282C233.595 183.371 234.39 182.709 235.507 182.709Z" fill="white"/>
<path d="M278.356 187.651C279.136 186.621 279.503 185.606 279.503 184.753C279.503 182.797 277.797 181.267 275.429 181.267C273.047 181.267 271.355 182.768 271.355 184.885C271.355 186.871 272.855 188.298 274.929 188.298C275.209 188.298 275.562 188.268 275.959 188.136L273.017 192.033H275.062L278.356 187.651ZM277.738 184.885C277.738 186.106 276.738 186.959 275.371 186.959C274.076 186.959 273.12 186.091 273.12 184.885C273.12 183.65 274.062 182.768 275.371 182.753C276.738 182.753 277.738 183.65 277.738 184.885Z" fill="white"/>
<rect x="20.764" y="224.944" width="31.2696" height="30.2809" fill="white"/>
<path d="M30.4809 235.678V243.944H32.2165V233.53H30.7751L27.9218 235.663V237.59L30.4809 235.678ZM34.3291 238.737C34.3291 241.973 36.1676 244.311 38.9033 244.311C41.6389 244.311 43.4774 241.973 43.4774 238.737C43.4774 235.501 41.6389 233.163 38.9033 233.163C36.1676 233.163 34.3291 235.501 34.3291 238.737ZM36.0205 238.737C36.0205 236.398 37.1971 234.692 38.9033 234.692C40.6094 234.692 41.786 236.398 41.786 238.737C41.786 241.076 40.6094 242.782 38.9033 242.782C37.1971 242.782 36.0205 241.076 36.0205 238.737Z" fill="#043344"/>
<rect x="60.6853" y="224.944" width="31.2696" height="30.2809" fill="white"/>
<path d="M72.7865 235.678V243.944H74.522V233.53H73.0807L70.2273 235.663V237.59L72.7865 235.678ZM78.782 235.678V243.944H80.5175V233.53H79.0762L76.2228 235.663V237.59L78.782 235.678Z" fill="#043344"/>
<rect x="100.607" y="224.944" width="31.2696" height="30.2809" fill="white"/>
<path d="M111.106 235.678V243.944H112.842V233.53H111.4L108.547 235.663V237.59L111.106 235.678ZM118.778 233.163C116.837 233.163 115.19 234.619 114.881 236.634L116.528 236.957C116.69 235.619 117.646 234.663 118.778 234.663C119.97 234.663 120.823 235.487 120.823 236.604C120.823 237.531 120.22 238.193 119.323 238.869L114.984 242.12V243.944H122.338V242.488H116.852L120.411 239.884C121.661 238.972 122.529 237.869 122.529 236.472C122.529 234.575 120.911 233.163 118.778 233.163Z" fill="#043344"/>
<rect x="140.528" y="224.944" width="31.2696" height="30.2809" fill="white"/>
<path d="M151.049 235.678V243.944H152.785V233.53H151.343L148.49 235.663V237.59L151.049 235.678ZM155.103 234.987H159.766L157.089 237.781L157.559 238.943C157.795 238.84 158.192 238.766 158.486 238.766C159.795 238.766 160.736 239.634 160.736 240.811C160.736 241.973 159.795 242.811 158.471 242.811C157.265 242.811 156.265 241.782 156.074 240.355L154.53 240.62C154.706 242.752 156.383 244.311 158.545 244.311C160.795 244.311 162.442 242.87 162.442 240.884C162.442 239.105 161.104 237.766 159.368 237.546L162.089 234.634V233.53H155.103V234.987Z" fill="#043344"/>
<rect x="180.449" y="224.944" width="31.2696" height="30.2809" fill="white"/>
<path d="M190.985 235.678V243.944H192.72V233.53H191.279L188.426 235.663V237.59L190.985 235.678ZM194.392 240.678V241.737H199.466V243.944H201.231V241.737H202.496V240.281H201.231V233.53H198.775L194.392 240.678ZM199.451 235.178L199.466 240.281H196.348L199.451 235.178Z" fill="#043344"/>
<rect x="220.37" y="224.944" width="31.2696" height="30.2809" fill="white"/>
<path d="M230.856 235.678V243.944H232.591V233.53H231.15L228.297 235.663V237.59L230.856 235.678ZM235.881 233.53L235.351 238.663H238.249C239.793 238.663 240.705 239.561 240.705 240.796C240.705 241.958 239.778 242.811 238.499 242.811C237.248 242.811 236.278 241.782 236.16 240.355L234.616 240.605C234.778 242.752 236.395 244.311 238.557 244.311C240.793 244.311 242.396 242.841 242.396 240.796C242.396 238.766 240.896 237.281 238.557 237.281H237.013L237.248 234.987H241.558V233.53H235.881Z" fill="#93A5B1"/>
<rect x="260.292" y="224.944" width="31.2696" height="30.2809" fill="white"/>
<path d="M270.784 235.678V243.944H272.52V233.53H271.078L268.225 235.663V237.59L270.784 235.678ZM275.5 237.913C274.721 238.943 274.353 239.958 274.353 240.811C274.353 242.767 276.044 244.311 278.427 244.311C280.795 244.311 282.501 242.796 282.501 240.678C282.501 238.693 281.001 237.266 278.912 237.266C278.648 237.266 278.295 237.296 277.898 237.428L280.839 233.53H278.78L275.5 237.913ZM276.118 240.678C276.118 239.472 277.103 238.605 278.471 238.605C279.78 238.619 280.736 239.472 280.736 240.678C280.736 241.914 279.78 242.811 278.486 242.811C277.103 242.826 276.118 241.929 276.118 240.678Z" fill="#93A5B1"/>
<path d="M32.1902 287.588V295.854H33.9257V285.44H32.4843L29.631 287.573V289.5L32.1902 287.588ZM38.524 295.854L42.4657 286.485V285.44H35.3324V286.941H40.4213L36.6561 295.854H38.524Z" fill="white"/>
<rect x="60.6853" y="276.854" width="31.2696" height="30.2809" fill="white"/>
<path d="M70.8977 287.588V295.854H72.6333V285.44H71.1919L68.3386 287.573V289.5L70.8977 287.588ZM78.82 285.058C76.7168 285.058 75.1871 286.235 75.1871 287.897C75.1871 289.014 75.8784 290.029 76.8344 290.309C75.6137 290.588 74.7459 291.779 74.7459 293.088C74.7459 294.898 76.452 296.192 78.82 296.192C81.1879 296.192 82.8941 294.912 82.8941 293.088C82.8941 291.779 82.0116 290.588 80.8055 290.309C81.7616 290.029 82.4528 289.014 82.4528 287.897C82.4528 286.205 80.9232 285.058 78.82 285.058ZM78.82 291.088C80.0849 291.088 81.0115 291.853 81.0115 292.897C81.0115 293.956 80.0996 294.721 78.82 294.721C77.5551 294.721 76.6285 293.956 76.6285 292.897C76.6285 291.853 77.5551 291.088 78.82 291.088ZM78.82 286.529C79.9378 286.529 80.732 287.191 80.732 288.102C80.732 289.029 79.9378 289.706 78.82 289.706C77.7022 289.706 76.908 289.029 76.908 288.102C76.908 287.191 77.7022 286.529 78.82 286.529Z" fill="#043344"/>
<rect x="100.607" y="276.854" width="31.2696" height="30.2809" fill="white"/>
<path d="M111.099 287.588V295.854H112.835V285.44H111.393L108.54 287.573V289.5L111.099 287.588ZM121.669 291.471C122.448 290.441 122.816 289.426 122.816 288.573C122.816 286.617 121.11 285.087 118.742 285.087C116.359 285.087 114.668 286.588 114.668 288.706C114.668 290.691 116.168 292.118 118.242 292.118C118.521 292.118 118.874 292.088 119.271 291.956L116.33 295.854H118.374L121.669 291.471ZM121.051 288.706C121.051 289.926 120.051 290.779 118.683 290.779C117.389 290.779 116.433 289.912 116.433 288.706C116.433 287.47 117.374 286.588 118.683 286.573C120.051 286.573 121.051 287.47 121.051 288.706Z" fill="#043344"/>
<rect x="140.528" y="276.854" width="31.2696" height="30.2809" fill="white"/>
<path d="M150.32 285.073C148.379 285.073 146.731 286.529 146.422 288.544L148.07 288.867C148.231 287.529 149.188 286.573 150.32 286.573C151.511 286.573 152.364 287.397 152.364 288.514C152.364 289.441 151.761 290.103 150.864 290.779L146.525 294.03V295.854H153.879V294.397H148.393L151.953 291.794C153.203 290.882 154.071 289.779 154.071 288.382C154.071 286.485 152.453 285.073 150.32 285.073ZM155.694 290.647C155.694 293.883 157.533 296.221 160.269 296.221C163.004 296.221 164.843 293.883 164.843 290.647C164.843 287.411 163.004 285.073 160.269 285.073C157.533 285.073 155.694 287.411 155.694 290.647ZM157.386 290.647C157.386 288.308 158.562 286.602 160.269 286.602C161.975 286.602 163.151 288.308 163.151 290.647C163.151 292.985 161.975 294.692 160.269 294.692C158.562 294.692 157.386 292.985 157.386 290.647Z" fill="#043344"/>
<rect x="180.449" y="276.854" width="31.2696" height="30.2809" fill="white"/>
<path d="M192.626 285.073C190.684 285.073 189.037 286.529 188.728 288.544L190.375 288.867C190.537 287.529 191.493 286.573 192.626 286.573C193.817 286.573 194.67 287.397 194.67 288.514C194.67 289.441 194.067 290.103 193.17 290.779L188.831 294.03V295.854H196.185V294.397H190.699L194.258 291.794C195.508 290.882 196.376 289.779 196.376 288.382C196.376 286.485 194.758 285.073 192.626 285.073ZM200.147 287.588V295.854H201.883V285.44H200.442L197.588 287.573V289.5L200.147 287.588Z" fill="#043344"/>
<rect x="220.37" y="276.854" width="31.2696" height="30.2809" fill="white"/>
<path d="M230.945 285.073C229.004 285.073 227.357 286.529 227.048 288.544L228.695 288.867C228.857 287.529 229.813 286.573 230.945 286.573C232.137 286.573 232.99 287.397 232.99 288.514C232.99 289.441 232.387 290.103 231.49 290.779L227.151 294.03V295.854H234.505V294.397H229.019L232.578 291.794C233.828 290.882 234.696 289.779 234.696 288.382C234.696 286.485 233.078 285.073 230.945 285.073ZM240.144 285.073C238.202 285.073 236.555 286.529 236.246 288.544L237.894 288.867C238.055 287.529 239.011 286.573 240.144 286.573C241.335 286.573 242.188 287.397 242.188 288.514C242.188 289.441 241.585 290.103 240.688 290.779L236.349 294.03V295.854H243.703V294.397H238.217L241.776 291.794C243.027 290.882 243.894 289.779 243.894 288.382C243.894 286.485 242.277 285.073 240.144 285.073Z" fill="#93A5B1"/>
<rect x="260.292" y="276.854" width="31.2696" height="30.2809" fill="white"/>
<path d="M270.888 285.073C268.947 285.073 267.3 286.529 266.991 288.544L268.638 288.867C268.8 287.529 269.756 286.573 270.888 286.573C272.08 286.573 272.933 287.397 272.933 288.514C272.933 289.441 272.33 290.103 271.432 290.779L267.094 294.03V295.854H274.448V294.397H268.962L272.521 291.794C273.771 290.882 274.639 289.779 274.639 288.382C274.639 286.485 273.021 285.073 270.888 285.073ZM276.469 286.896H281.131L278.454 289.691L278.925 290.853C279.16 290.75 279.557 290.676 279.851 290.676C281.16 290.676 282.102 291.544 282.102 292.721C282.102 293.883 281.16 294.721 279.837 294.721C278.631 294.721 277.631 293.691 277.439 292.265L275.895 292.53C276.072 294.662 277.748 296.221 279.91 296.221C282.161 296.221 283.808 294.78 283.808 292.794C283.808 291.015 282.469 289.676 280.734 289.456L283.455 286.543V285.44H276.469V286.896Z" fill="#93A5B1"/>
<rect x="20.764" y="328.764" width="31.2902" height="30.2809" fill="white"/>
<path d="M31.3749 336.983C29.4334 336.983 27.7861 338.439 27.4773 340.454L29.1246 340.777C29.2863 339.439 30.2423 338.483 31.3749 338.483C32.5662 338.483 33.4192 339.307 33.4192 340.424C33.4192 341.351 32.8162 342.013 31.919 342.689L27.5802 345.94V347.764H34.9342V346.308H29.4481L33.0074 343.704C34.2576 342.792 35.1254 341.689 35.1254 340.292C35.1254 338.395 33.5075 336.983 31.3749 336.983ZM36.3081 344.499V345.557H41.3823V347.764H43.1472V345.557H44.4121V344.101H43.1472V337.351H40.691L36.3081 344.499ZM41.3676 338.998L41.3823 344.101H38.2642L41.3676 338.998Z" fill="#043344"/>
<rect x="60.7059" y="328.764" width="31.2902" height="30.2809" fill="white"/>
<path d="M71.2665 336.983C69.325 336.983 67.6778 338.439 67.3689 340.454L69.0162 340.777C69.178 339.439 70.134 338.483 71.2665 338.483C72.4578 338.483 73.3109 339.307 73.3109 340.424C73.3109 341.351 72.7078 342.013 71.8107 342.689L67.4719 345.94V347.764H74.8258V346.308H69.3397L72.899 343.704C74.1492 342.792 75.017 341.689 75.017 340.292C75.017 338.395 73.3991 336.983 71.2665 336.983ZM77.8176 337.351L77.2881 342.484H80.1855C81.7298 342.484 82.6417 343.381 82.6417 344.616C82.6417 345.778 81.7151 346.631 80.4356 346.631C79.1854 346.631 78.2147 345.602 78.097 344.175L76.5527 344.425C76.7145 346.572 78.3323 348.131 80.4944 348.131C82.73 348.131 84.3331 346.661 84.3331 344.616C84.3331 342.587 82.8329 341.101 80.4944 341.101H78.9501L79.1854 338.807H83.4948V337.351H77.8176Z" fill="#043344"/>
<rect x="100.648" y="328.764" width="31.2902" height="30.2809" fill="white"/>
<path d="M111.215 336.983C109.274 336.983 107.627 338.439 107.318 340.454L108.965 340.777C109.127 339.439 110.083 338.483 111.215 338.483C112.407 338.483 113.26 339.307 113.26 340.424C113.26 341.351 112.657 342.013 111.76 342.689L107.421 345.94V347.764H114.775V346.308H109.289L112.848 343.704C114.098 342.792 114.966 341.689 114.966 340.292C114.966 338.395 113.348 336.983 111.215 336.983ZM117.458 341.733C116.678 342.763 116.31 343.778 116.31 344.631C116.31 346.587 118.002 348.131 120.385 348.131C122.753 348.131 124.459 346.616 124.459 344.499C124.459 342.513 122.958 341.086 120.87 341.086C120.605 341.086 120.252 341.116 119.855 341.248L122.797 337.351H120.738L117.458 341.733ZM118.075 344.499C118.075 343.292 119.061 342.425 120.429 342.425C121.738 342.439 122.694 343.292 122.694 344.499C122.694 345.734 121.738 346.631 120.443 346.631C119.061 346.646 118.075 345.749 118.075 344.499Z" fill="#043344"/>
<g filter="url(#filter3_i_1_2155)">
<path d="M160.613 328.989C161.781 329.095 162.365 329.148 162.874 329.244C167.122 330.054 170.445 333.377 171.255 337.626C171.352 338.134 171.405 338.718 171.51 339.887C171.56 340.437 171.585 340.712 171.606 340.986C171.779 343.217 171.779 345.457 171.606 347.687C171.585 347.962 171.56 348.237 171.51 348.787C171.405 349.955 171.352 350.539 171.255 351.047C170.445 355.296 167.122 358.619 162.874 359.429C162.365 359.526 161.781 359.579 160.613 359.684C160.063 359.734 159.788 359.759 159.513 359.78C157.283 359.953 155.043 359.953 152.812 359.78C152.538 359.759 152.263 359.734 151.713 359.684C150.545 359.579 149.961 359.526 149.452 359.429C145.203 358.619 141.88 355.296 141.071 351.047C140.974 350.539 140.921 349.955 140.815 348.787C140.766 348.237 140.741 347.962 140.719 347.687C140.546 345.457 140.546 343.217 140.719 340.986C140.741 340.712 140.766 340.437 140.815 339.887C140.921 338.718 140.974 338.134 141.071 337.626C141.88 333.377 145.203 330.054 149.452 329.244C149.961 329.148 150.545 329.095 151.713 328.989C152.263 328.94 152.538 328.915 152.812 328.893C155.043 328.72 157.283 328.72 159.513 328.893C159.788 328.915 160.063 328.94 160.613 328.989Z" fill="#043344"/>
</g>
<path d="M152.462 337.848C150.52 337.848 148.873 339.304 148.564 341.319L150.211 341.642C150.373 340.304 151.329 339.348 152.462 339.348C153.653 339.348 154.506 340.172 154.506 341.289C154.506 342.216 153.903 342.878 153.006 343.554L148.667 346.805V348.629H156.021V347.173H150.535L154.094 344.569C155.344 343.657 156.212 342.554 156.212 341.157C156.212 339.26 154.594 337.848 152.462 337.848ZM160.322 348.629L164.264 339.26V338.216H157.13V339.716H162.219L158.454 348.629H160.322Z" fill="white"/>
<rect x="180.387" y="328.764" width="31.2902" height="30.2809" fill="white"/>
<path d="M190.675 336.983C188.734 336.983 187.086 338.439 186.777 340.454L188.425 340.777C188.587 339.439 189.543 338.483 190.675 338.483C191.866 338.483 192.719 339.307 192.719 340.424C192.719 341.351 192.116 342.013 191.219 342.689L186.88 345.94V347.764H194.234V346.308H188.748L192.308 343.704C193.558 342.792 194.426 341.689 194.426 340.292C194.426 338.395 192.808 336.983 190.675 336.983ZM200.124 336.968C198.02 336.968 196.491 338.145 196.491 339.807C196.491 340.925 197.182 341.939 198.138 342.219C196.917 342.498 196.049 343.69 196.049 344.999C196.049 346.808 197.756 348.102 200.124 348.102C202.492 348.102 204.198 346.822 204.198 344.999C204.198 343.69 203.315 342.498 202.109 342.219C203.065 341.939 203.756 340.925 203.756 339.807C203.756 338.115 202.227 336.968 200.124 336.968ZM200.124 342.998C201.388 342.998 202.315 343.763 202.315 344.807C202.315 345.866 201.403 346.631 200.124 346.631C198.859 346.631 197.932 345.866 197.932 344.807C197.932 343.763 198.859 342.998 200.124 342.998ZM200.124 338.439C201.241 338.439 202.036 339.101 202.036 340.013C202.036 340.939 201.241 341.616 200.124 341.616C199.006 341.616 198.212 340.939 198.212 340.013C198.212 339.101 199.006 338.439 200.124 338.439Z" fill="#043344"/>
<rect x="220.329" y="328.764" width="31.2902" height="30.2809" fill="white"/>
<path d="M230.897 336.983C228.956 336.983 227.308 338.439 226.999 340.454L228.647 340.777C228.809 339.439 229.765 338.483 230.897 338.483C232.088 338.483 232.941 339.307 232.941 340.424C232.941 341.351 232.338 342.013 231.441 342.689L227.102 345.94V347.764H234.456V346.308H228.97L232.53 343.704C233.78 342.792 234.648 341.689 234.648 340.292C234.648 338.395 233.03 336.983 230.897 336.983ZM242.993 343.381C243.773 342.351 244.14 341.336 244.14 340.483C244.14 338.527 242.434 336.998 240.066 336.998C237.683 336.998 235.992 338.498 235.992 340.616C235.992 342.601 237.492 344.028 239.566 344.028C239.846 344.028 240.199 343.998 240.596 343.866L237.654 347.764H239.698L242.993 343.381ZM242.375 340.616C242.375 341.836 241.375 342.689 240.007 342.689C238.713 342.689 237.757 341.822 237.757 340.616C237.757 339.38 238.698 338.498 240.007 338.483C241.375 338.483 242.375 339.38 242.375 340.616Z" fill="#93A5B1"/>
<rect x="260.271" y="328.764" width="31.2902" height="30.2809" fill="white"/>
<path d="M266.467 338.807H271.129L268.452 341.601L268.923 342.763C269.158 342.66 269.555 342.587 269.85 342.587C271.159 342.587 272.1 343.454 272.1 344.631C272.1 345.793 271.159 346.631 269.835 346.631C268.629 346.631 267.629 345.602 267.437 344.175L265.893 344.44C266.07 346.572 267.746 348.131 269.908 348.131C272.159 348.131 273.806 346.69 273.806 344.704C273.806 342.925 272.468 341.586 270.732 341.366L273.453 338.454V337.351H266.467V338.807ZM275.416 342.557C275.416 345.793 277.255 348.131 279.99 348.131C282.726 348.131 284.565 345.793 284.565 342.557C284.565 339.321 282.726 336.983 279.99 336.983C277.255 336.983 275.416 339.321 275.416 342.557ZM277.108 342.557C277.108 340.219 278.284 338.512 279.99 338.512C281.697 338.512 282.873 340.219 282.873 342.557C282.873 344.896 281.697 346.602 279.99 346.602C278.284 346.602 277.108 344.896 277.108 342.557Z" fill="#93A5B1"/>
<defs>
<filter id="filter0_i_1_2155" x="139.114" y="172.341" width="153.49" height="31.146" filterUnits="userSpaceOnUse" color-interpolation-filters="sRGB">
<feFlood flood-opacity="0" result="BackgroundImageFix"/>
<feBlend mode="normal" in="SourceGraphic" in2="BackgroundImageFix" result="shape"/>
<feColorMatrix in="SourceAlpha" type="matrix" values="0 0 0 0 0 0 0 0 0 0 0 0 0 0 0 0 0 0 127 0" result="hardAlpha"/>
<feOffset/>
<feGaussianBlur stdDeviation="6.48876"/>
<feComposite in2="hardAlpha" operator="arithmetic" k2="-1" k3="1"/>
<feColorMatrix type="matrix" values="0 0 0 0 0 0 0 0 0 0 0 0 0 0 0 0 0 0 0.1 0"/>
<feBlend mode="normal" in2="shape" result="effect1_innerShadow_1_2155"/>
</filter>
<filter id="filter1_i_1_2155" x="20.764" y="275.988" width="31.146" height="31.146" filterUnits="userSpaceOnUse" color-interpolation-filters="sRGB">
<feFlood flood-opacity="0" result="BackgroundImageFix"/>
<feBlend mode="normal" in="SourceGraphic" in2="BackgroundImageFix" result="shape"/>
<feColorMatrix in="SourceAlpha" type="matrix" values="0 0 0 0 0 0 0 0 0 0 0 0 0 0 0 0 0 0 127 0" result="hardAlpha"/>
<feOffset/>
<feGaussianBlur stdDeviation="6.48876"/>
<feComposite in2="hardAlpha" operator="arithmetic" k2="-1" k3="1"/>
<feColorMatrix type="matrix" values="0 0 0 0 0 0 0 0 0 0 0 0 0 0 0 0 0 0 0.1 0"/>
<feBlend mode="normal" in2="shape" result="effect1_innerShadow_1_2155"/>
</filter>
<filter id="filter2_i_1_2155" x="20.764" y="77" width="267.337" height="30.2808" filterUnits="userSpaceOnUse" color-interpolation-filters="sRGB">
<feFlood flood-opacity="0" result="BackgroundImageFix"/>
<feBlend mode="normal" in="SourceGraphic" in2="BackgroundImageFix" result="shape"/>
<feColorMatrix in="SourceAlpha" type="matrix" values="0 0 0 0 0 0 0 0 0 0 0 0 0 0 0 0 0 0 127 0" result="hardAlpha"/>
<feOffset dy="-1"/>
<feComposite in2="hardAlpha" operator="arithmetic" k2="-1" k3="1"/>
<feColorMatrix type="matrix" values="0 0 0 0 0.913725 0 0 0 0 0.929412 0 0 0 0 0.937255 0 0 0 1 0"/>
<feBlend mode="normal" in2="shape" result="effect1_innerShadow_1_2155"/>
</filter>
<filter id="filter3_i_1_2155" x="140.59" y="328.764" width="31.146" height="31.146" filterUnits="userSpaceOnUse" color-interpolation-filters="sRGB">
<feFlood flood-opacity="0" result="BackgroundImageFix"/>
<feBlend mode="normal" in="SourceGraphic" in2="BackgroundImageFix" result="shape"/>
<feColorMatrix in="SourceAlpha" type="matrix" values="0 0 0 0 0 0 0 0 0 0 0 0 0 0 0 0 0 0 127 0" result="hardAlpha"/>
<feOffset/>
<feGaussianBlur stdDeviation="6.48876"/>
<feComposite in2="hardAlpha" operator="arithmetic" k2="-1" k3="1"/>
<feColorMatrix type="matrix" values="0 0 0 0 0 0 0 0 0 0 0 0 0 0 0 0 0 0 0.1 0"/>
<feBlend mode="normal" in2="shape" result="effect1_innerShadow_1_2155"/>
</filter>
</defs>
</svg>
