<svg width="24" height="24" viewBox="0 0 24 24" fill="none" xmlns="http://www.w3.org/2000/svg">
<path d="M17.2 13.5888C14.1064 13.5888 11.6 11.0757 11.6 7.99908C11.6 4.9112 14.1177 2.39807 17.2 2.39807C20.2935 2.39807 22.7999 4.9112 22.7999 7.99908C22.8112 11.0757 20.2935 13.5888 17.2 13.5888ZM17.2 3.97582C14.9758 3.97582 13.1806 5.77896 13.1806 7.99908C13.1806 10.2192 14.9871 12.0111 17.2 12.0111C19.4241 12.0111 21.2193 10.2079 21.2193 7.99908C21.2306 5.77896 19.4241 3.97582 17.2 3.97582Z" fill="#1A938A"/>
<path d="M8.0781 15.5872H2.72192C1.88428 15.5872 1.20001 14.9035 1.20001 14.0665V8.71475C1.20001 7.8778 1.88428 7.19409 2.72192 7.19409H8.0781C8.91574 7.19409 9.60001 7.8778 9.60001 8.71475V14.0665C9.58821 14.9152 8.91574 15.5872 8.0781 15.5872ZM2.8517 13.9368H7.93653V8.8562H2.8517V13.9368Z" fill="#1A938A"/>
<path d="M18.6698 20.4121L12.5185 14.1244C12.3396 13.9431 12.06 13.9431 11.881 14.1244L5.72982 20.4121C5.45022 20.6953 5.65153 21.1825 6.05416 21.1825H18.3566C18.748 21.1825 18.9494 20.6953 18.6698 20.4121Z" fill="#043344"/>
</svg>
