<svg width="531" height="454" viewBox="0 0 531 454" fill="none" xmlns="http://www.w3.org/2000/svg">
<g clip-path="url(#clip0_1_1690)">
<path d="M100.845 7.01367C137.727 7.41841 167.72 23.4587 176.635 56.9557L134.889 65.8865C132.05 59.3895 120.094 49.6439 100.643 49.6439C75.9183 49.6439 65.5839 63.4475 65.5839 79.2854C65.5839 96.9499 79.565 109.332 100.643 109.332C121.721 109.332 132.459 99.586 134.889 92.8866L176.635 102.02C167.72 135.517 137.727 151.557 100.845 151.962C56.669 152.367 23.0293 128.817 23.0293 79.4877C23.0293 30.1581 56.669 6.60894 100.845 7.01367Z" fill="#188B83"/>
<path d="M185.349 79.4877C185.349 30.1581 220.408 6.60894 263.574 7.01367C306.74 7.41841 341.799 30.3604 341.799 79.4877C341.799 128.615 306.74 151.962 263.574 151.962C220.408 151.962 185.349 128.615 185.349 79.4877ZM228.111 79.4877C228.111 100.395 245.536 113.39 263.574 113.39C282.621 113.39 299.037 100.395 299.037 79.4877C299.037 58.58 281.611 45.7883 263.574 45.5859C245.738 45.3835 228.111 58.3776 228.111 79.4877Z" fill="#188B83"/>
<path d="M352.537 8.43555H397.122L457.714 80.1001C461.159 84.1581 464.604 90.4528 466.629 95.7303L467.033 95.528C465.008 90.4528 463.589 83.3487 463.589 77.8635V8.43555H506.143V150.545H461.558L400.966 79.083C397.521 74.8173 394.076 68.5279 392.253 63.2504L391.849 63.4528C393.672 68.5279 395.092 75.6321 395.092 81.1173V150.545H352.537V8.43555Z" fill="#188B83"/>
<path d="M162.149 157.894C199.031 158.299 229.024 174.339 237.939 207.836L196.192 216.767C193.354 210.27 181.398 200.525 161.947 200.525C137.222 200.525 126.888 214.328 126.888 230.166C126.888 247.831 140.869 260.212 161.947 260.212C183.025 260.212 193.763 250.467 196.192 243.767L237.939 252.9C229.024 286.397 199.031 302.438 162.149 302.842C117.973 303.247 84.333 279.698 84.333 230.368C84.333 181.039 117.973 157.49 162.149 157.894Z" fill="#188B83"/>
<path d="M248.273 159.316H290.828V301.426H248.273V159.316Z" fill="#188B83"/>
<path d="M302.986 159.316H444.844V197.888H345.546V215.755H434.308V247.223H345.546V262.854H444.844V301.426H302.986V159.316Z" fill="#188B83"/>
<path d="M28.7012 452.306V310.197H127.191C159.613 310.197 179.07 321.567 179.07 345.521C179.07 365.012 168.124 368.867 158.603 371.711C153.537 373.335 146.647 374.555 141.177 374.757V375.162C146.647 374.96 153.744 375.769 158.81 377.393C168.135 380.642 180.494 387.746 180.494 424.896V452.301H137.94V424.896C137.94 413.324 128.414 408.249 117.675 408.249L71.6758 408.451V452.301H28.7012V452.306ZM113.412 373.74C123.948 373.74 142.389 371.509 142.389 359.532C142.389 347.555 132.055 344.104 121.519 344.104H71.6651V373.745H113.412V373.74Z" fill="#188B83"/>
<path d="M270.261 308.78C307.749 309.185 338.152 325.225 347.269 358.722L307.951 368.873C299.844 353.04 284.646 347.353 270.261 347.353C251.006 347.353 233.782 357.301 233.782 381.254C233.782 403.382 249.385 415.156 270.665 415.156C281.201 415.156 287.283 409.272 290.727 404.399H273.504V374.96H333.691C344.839 374.96 349.496 380.237 349.496 388.966V452.307H307.951V404.393H307.345C305.926 446.417 295.794 453.723 266.003 453.723C221.013 453.723 191.222 430.376 191.222 381.249C191.222 332.122 225.468 308.37 270.256 308.775L270.261 308.78Z" fill="#188B83"/>
<path d="M360.234 310.197H502.092V348.769H402.794V366.636H491.556V398.104H402.794V413.734H502.092V452.307H360.234V310.197Z" fill="#188B83"/>
<path d="M507.69 382.634C511.905 380.163 516.987 379.598 521.841 380.136C524.446 380.424 527.184 381.057 529.044 382.905C530.905 384.753 531.42 388.162 529.491 389.94C528.342 391 526.673 391.24 525.116 391.304C521.347 391.463 517.136 391.021 514.244 393.45C512.596 394.834 511.57 397.05 509.55 397.795C507.578 398.525 505.25 397.46 504.085 395.702C502.921 393.945 502.767 391.676 503.155 389.605C503.155 389.605 503.442 385.115 507.684 382.628L507.69 382.634Z" fill="#1EBAA9"/>
<path d="M496.739 363.973C499.588 367.621 504.67 366.093 506.935 363.648C509.199 361.209 510.029 357.801 510.778 354.553C512.485 347.134 514.197 339.354 512.235 331.999C511.65 329.8 510.699 327.627 509.051 326.061C507.403 324.496 504.952 323.644 502.788 324.341C500.226 325.167 498.754 327.803 497.712 330.285C494.666 337.591 493.267 345.585 493.666 353.493C493.852 357.189 494.49 361.039 496.733 363.973" fill="#1EBAA9"/>
<g opacity="0.2">
<path d="M496.739 363.973C499.588 367.621 504.67 366.093 506.935 363.648C509.199 361.209 510.029 357.801 510.778 354.553C512.485 347.134 514.197 339.354 512.235 331.999C511.65 329.8 510.699 327.627 509.051 326.061C507.403 324.496 504.952 323.644 502.788 324.341C500.226 325.167 498.754 327.803 497.712 330.285C494.666 337.591 493.267 345.585 493.666 353.493C493.852 357.189 494.49 361.039 496.733 363.973" fill="#1EBAA9"/>
</g>
<path d="M489.631 368.878C492.326 365.305 492.603 360.288 491.098 356.07C489.589 351.853 486.505 348.364 483.013 345.569C478.919 342.288 474.183 339.822 469.149 338.347C467.171 337.767 465.093 337.335 463.051 337.644C461.01 337.948 459 339.109 458.145 340.989C456.874 343.769 458.405 346.969 460.016 349.568C462.849 354.143 466.044 358.488 469.563 362.562C472.391 365.837 475.602 369.043 479.717 370.374C483.831 371.701 488.01 371.296 489.998 368.383" fill="#1EBAA9"/>
<path d="M499.673 423.256C496.771 368.857 504.378 339.354 504.378 339.354" stroke="#002E3C" stroke-width="3" stroke-linecap="round" stroke-linejoin="round"/>
<path d="M470.68 346.964C470.68 346.964 499.577 355.288 499.673 423.256" stroke="#002E3C" stroke-width="3" stroke-linecap="round" stroke-linejoin="round"/>
<path d="M517.53 385.291C517.53 385.291 497.807 388.295 499.668 423.139" stroke="#002E3C" stroke-width="3" stroke-linecap="round" stroke-linejoin="round"/>
<path d="M482.795 421.866L490.907 452.706H510.651L518.763 421.866C519.124 420.487 518.088 419.134 516.658 419.134H484.895C483.47 419.134 482.428 420.487 482.79 421.866H482.795Z" fill="#284B64" stroke="#002F3C" stroke-width="3" stroke-linecap="round" stroke-linejoin="round"/>
<path d="M32.1831 404.601C17.4099 398.738 10.7543 383.07 7.87301 368.271C7.39456 365.8 6.52274 363.276 7.2085 360.858C7.89427 358.435 10.3024 356.331 12.7637 356.853C14.7998 357.285 16.0916 359.218 17.5269 360.73C19.4353 362.743 21.9232 364.202 24.6078 364.879C26.3727 365.326 28.4406 365.369 29.8015 364.16C31.6728 362.498 31.2528 359.521 30.6734 357.087C29.5995 352.55 28.5204 348.013 27.4465 343.476C26.8671 341.042 26.2877 338.555 26.5216 336.063C26.7555 333.57 27.9516 331.03 30.1471 329.842C32.3426 328.65 35.5535 329.321 36.6007 331.589C37.0366 332.537 37.0685 333.613 37.3715 334.609C37.6745 335.605 38.4081 336.616 39.4448 336.675C40.492 336.734 41.3213 335.812 41.8955 334.934C43.873 331.882 44.8671 328.314 45.7549 324.789C46.6426 321.263 47.4666 317.674 49.1571 314.457C50.8476 311.241 53.5535 308.376 57.0354 307.364C60.5227 306.352 64.7809 307.641 66.466 310.863C68.1512 314.09 66.9285 318.047 65.3603 321.338C63.0372 326.221 60.0071 330.764 56.3922 334.784C55.7383 335.509 55.0313 336.292 54.9463 337.266C54.7868 339.013 56.7165 340.27 58.4601 340.429C60.4377 340.611 62.3887 339.961 64.3609 339.742C66.3385 339.524 68.6137 339.881 69.7566 341.511C71.3408 343.769 69.8364 346.868 68.1565 349.057C64.7915 353.44 60.6716 357.242 56.036 360.24C54.3721 361.316 52.5966 362.333 51.4271 363.931C50.2522 365.528 49.8748 367.925 51.1559 369.437C52.4371 370.955 54.8346 370.976 56.6527 370.193C58.4708 369.405 59.938 367.994 61.5913 366.902C64.6905 364.857 69.1187 364.08 71.9575 366.471C73.8234 368.047 74.5623 370.667 74.3603 373.101C74.1636 375.535 73.1483 377.83 72.0106 379.987C68.0343 387.538 62.2451 394.216 55.0047 398.727C47.7643 403.238 40.6462 405.645 32.1831 404.622" fill="#284B64"/>
<path d="M32.1831 404.601C17.4099 398.738 10.7543 383.07 7.87301 368.271C7.39456 365.8 6.52274 363.276 7.2085 360.858C7.89427 358.435 10.3024 356.331 12.7637 356.853C14.7998 357.285 16.0916 359.218 17.5269 360.73C19.4353 362.743 21.9232 364.202 24.6078 364.879C26.3727 365.326 28.4406 365.369 29.8015 364.16C31.6728 362.498 31.2528 359.521 30.6734 357.087C29.5995 352.55 28.5204 348.013 27.4465 343.476C26.8671 341.042 26.2877 338.555 26.5216 336.063C26.7555 333.57 27.9516 331.03 30.1471 329.842C32.3426 328.65 35.5535 329.321 36.6007 331.589C37.0366 332.537 37.0685 333.613 37.3715 334.609C37.6745 335.605 38.4081 336.616 39.4448 336.675C40.492 336.734 41.3213 335.812 41.8955 334.934C43.873 331.882 44.8671 328.314 45.7549 324.789C46.6426 321.263 47.4666 317.674 49.1571 314.457C50.8476 311.241 53.5535 308.376 57.0354 307.364C60.5227 306.352 64.7809 307.641 66.466 310.863C68.1512 314.09 66.9285 318.047 65.3603 321.338C63.0372 326.221 60.0071 330.764 56.3922 334.784C55.7383 335.509 55.0313 336.292 54.9462 337.266C54.7868 339.013 56.7165 340.27 58.4601 340.429C60.4377 340.611 62.3887 339.961 64.3609 339.742C66.3385 339.524 68.6137 339.881 69.7566 341.511C71.3408 343.769 69.8364 346.868 68.1565 349.057C64.7915 353.44 60.6716 357.242 56.036 360.24C54.3721 361.316 52.5966 362.333 51.4271 363.931C50.2522 365.528 49.8748 367.925 51.1559 369.437C52.4371 370.955 54.8346 370.976 56.6527 370.193C58.4708 369.405 59.938 367.994 61.5913 366.902C64.6905 364.857 69.1187 364.08 71.9575 366.471C73.8234 368.047 74.5623 370.667 74.3603 373.101C74.1636 375.535 73.1483 377.83 72.0106 379.987C68.0343 387.538 62.2451 394.216 55.0047 398.727C47.7643 403.238 40.6462 405.645 32.1831 404.622" stroke="#002F3C" stroke-width="3" stroke-linecap="round" stroke-linejoin="round"/>
<path d="M61.9046 308.578C61.9046 308.578 18.9725 372.111 39.4338 434.227" stroke="#002F3C" stroke-width="3" stroke-linecap="round" stroke-linejoin="round"/>
<path d="M8.62215 358.376C8.62215 358.376 34.3357 388.108 34.3463 388.002C34.3569 387.895 73.1585 367.829 73.1585 367.829" stroke="#002F3C" stroke-width="3" stroke-linecap="round" stroke-linejoin="round"/>
<path d="M30.1475 329.837L40.8008 354.872L70.2887 342.64" stroke="#002F3C" stroke-width="3" stroke-linecap="round" stroke-linejoin="round"/>
<path d="M14.6137 415.982L24.2782 452.706H47.7856L57.4501 415.982C57.8807 414.336 56.6421 412.728 54.9462 412.728H17.1175C15.4217 412.728 14.1831 414.336 14.6137 415.982Z" fill="white" stroke="#002F3C" stroke-width="3" stroke-linecap="round" stroke-linejoin="round"/>
<path d="M320.507 99.458C319.104 100.342 318.269 101.093 318.046 101.743L310.976 113.501L318.859 116.894L322.501 104.246C329.661 104.943 344.254 100.433 344.254 99.4793L320.507 99.458Z" fill="white" stroke="#002F3C" stroke-width="3" stroke-linecap="round" stroke-linejoin="round"/>
<path d="M257.338 100.678C264.7 107.105 277.677 154.678 280.909 155.322C290.834 138.105 297.713 128.263 311.146 111.824L319.694 115.775C314.171 149.544 294.31 186.284 275.859 185.336C261.495 184.596 250.507 165.446 242.107 150.891C233.708 136.337 257.338 100.672 257.338 100.672V100.678Z" fill="white" stroke="#002F3C" stroke-width="3" stroke-linecap="round" stroke-linejoin="round"/>
<path d="M213.023 63.6498C209.525 63.1279 184.896 25.0988 195.794 16.1947C201.355 11.6468 211.147 28.5923 211.147 28.5923C211.147 28.5923 220.721 62.6539 213.023 63.6498Z" fill="#43BDAB" stroke="#002F3C" stroke-width="3" stroke-linecap="round" stroke-linejoin="round"/>
<path d="M195.794 16.2C185.503 24.6088 200.154 66.19 212.359 63.3408C211.53 60.9444 210.977 57.8823 210.323 53.4568C210.164 51.0071 210.02 48.7331 209.898 46.5657L210.398 50.1817L212.689 50.3947C212.689 50.3947 210.472 33.5556 213.018 23.6662C211.285 25.3491 201.743 33.71 195.731 26.0574C191.77 21.0195 195.794 16.2 195.794 16.2Z" fill="#43BDAB" stroke="#002F3C" stroke-width="3" stroke-linecap="round" stroke-linejoin="round"/>
<path d="M238.668 439.877C238.668 439.877 241.974 444.664 249.177 447.535C256.386 450.405 260.873 449.761 260.474 451.683C260.075 453.601 232.724 452.637 232.815 450.405C232.905 448.174 234.314 444.984 234.208 439.877C234.101 434.77 238.668 439.877 238.668 439.877Z" fill="#284B64" stroke="#002F3C" stroke-width="3" stroke-linecap="round" stroke-linejoin="round"/>
<path d="M208.621 439.877C209.126 446.47 211.077 449.766 211.317 451.683C211.551 453.6 193.508 453.808 193.056 451.683C192.424 448.712 202.418 446.459 202.981 439.877C203.513 433.71 208.621 439.877 208.621 439.877Z" fill="#284B64" stroke="#002F3C" stroke-width="3" stroke-linecap="round" stroke-linejoin="round"/>
<path d="M183.408 212.011C183.408 212.011 179.41 248.752 194.082 319.708C194.082 319.708 189.128 351.176 188.559 361.912C187.894 374.4 198.633 441.917 198.633 441.917H211.295C212.141 412.525 215.793 386.361 216.92 363.579C217.728 347.321 215.979 332.787 216.792 320.033C219.556 276.726 222.039 253.939 222.039 253.939H224.187C224.187 253.939 229.152 313.259 228.971 319.708C228.785 326.157 223.698 354.015 223.405 364.048C223.118 374.081 230.38 441.917 230.38 441.917H243.957C253.015 272.099 255.089 272.365 255.96 212.278L183.402 212.011H183.408Z" fill="#284B64" stroke="#002F3C" stroke-width="3" stroke-linecap="round" stroke-linejoin="round"/>
<path d="M230.385 441.911H243.962C254.716 314.409 255.811 286.877 256.093 212.028L229.205 211.905L226.993 248.96L220.976 253.933H224.192C224.192 253.933 229.157 313.254 228.976 319.703C228.79 326.152 221.863 354.009 221.449 364.043C221.034 374.076 230.39 441.911 230.39 441.911H230.385Z" fill="#284B64" stroke="#002F3C" stroke-width="3" stroke-linecap="round" stroke-linejoin="round"/>
<path d="M256.088 212.027L183.407 212.006C183.407 212.006 183.301 213.14 183.189 215.35C188.272 218.487 204.103 226.278 232.937 223.829C242.867 222.987 250.139 221.693 255.966 220.202C256.003 217.603 256.051 214.871 256.088 212.022V212.027Z" fill="#284B64" stroke="#002F3C" stroke-width="3" stroke-linecap="round" stroke-linejoin="round"/>
<path d="M176.97 97.4504L205.724 86.9006C214.862 87.5077 224.484 88.3279 237.094 90.2503L257.342 100.678C257.342 100.678 258.422 125.91 257.443 157.218C256.465 188.526 256.152 215.409 256.152 215.409C232.044 220.255 206.532 220.942 183.407 212.006C183.407 212.006 181.621 210.329 182.695 205.312C183.769 200.295 189.234 169.855 189.234 169.855C189.234 169.855 184.125 131.847 176.975 97.445L176.97 97.4504Z" fill="#284B64" stroke="#002F3C" stroke-width="3" stroke-linecap="round" stroke-linejoin="round"/>
<path d="M237.094 90.2451C224.485 88.3279 214.863 87.5025 205.724 86.8954L195.576 90.6179C198.489 95.6451 214.108 121.772 233.022 137.727C233.022 137.727 243.335 117.799 246.897 95.2883L237.094 90.2398V90.2451Z" fill="white" stroke="#002F3C" stroke-width="3" stroke-linecap="round" stroke-linejoin="round"/>
<path d="M208.718 50.3574C208.718 50.3574 212.295 73.5231 207.963 88.0456C207.963 88.0456 224.799 96.1563 229.711 95.6664C234.623 95.1711 235.829 92.6362 235.829 92.6362C235.829 92.6362 233.618 87.0018 234.341 75.1847L208.718 50.3627V50.3574Z" fill="white" stroke="#002F3C" stroke-width="3" stroke-linecap="round" stroke-linejoin="round"/>
<path d="M230.321 96.0339L232.044 85.9475C232.044 85.9475 234.5 81.0267 235.233 81.1492C235.972 81.2717 238.178 90.6232 238.178 90.6232C238.178 90.6232 235.967 96.0924 230.321 96.0339Z" fill="white" stroke="#002F3C" stroke-width="3" stroke-linecap="round" stroke-linejoin="round"/>
<path d="M229.094 96.0338L225.165 85.9474C225.165 85.9474 210.429 76.2285 208.468 76.6013C207.474 76.7877 205.028 87.6729 205.028 87.6729C205.028 87.6729 209.696 96.5291 229.094 96.0338Z" fill="white" stroke="#002F3C" stroke-width="3" stroke-linecap="round" stroke-linejoin="round"/>
<path d="M256.088 215.963V214.179C252.069 214.845 243.728 216.155 228.971 216.698C209.078 217.438 196.554 211.532 196.554 210.057C196.554 208.582 201.344 174.265 200.977 168.359C200.61 162.453 188.086 116.697 188.086 116.697L183.439 132.167C187.006 153.309 189.234 169.861 189.234 169.861C189.234 169.861 183.769 200.301 182.695 205.317C181.621 210.334 183.408 212.011 183.408 212.011C206.532 220.942 231.985 220.814 256.088 215.968V215.963Z" fill="#284B64" stroke="#002F3C" stroke-width="3" stroke-linecap="round" stroke-linejoin="round"/>
<path d="M184.668 262.609C184.142 260.91 183.185 256.207 182.558 253.848C181.909 251.42 180.16 248.619 180.16 248.619L180.224 249.231C179.357 248.709 176.598 247.389 174.206 249.971C174.206 249.971 172.399 258.279 172.463 265.612C172.526 272.945 173.101 273.84 173.818 273.734C174.541 273.627 174.552 272.099 174.387 269.814C174.387 269.814 174.717 266.022 174.95 265.99C175.184 265.958 175.301 269.952 175.291 270.677C175.28 271.401 175.429 276.412 176.572 276.348C177.667 276.284 177.534 272.711 177.454 270.767C177.454 270.767 177.709 265.937 178.044 265.942C178.385 265.942 178.406 270.277 178.432 271.002C178.459 271.726 178.533 277.073 179.591 277.041C180.655 277.009 180.947 275.736 180.766 271.183C180.766 271.183 180.405 265.697 180.74 265.735C181.686 265.649 181.075 275.065 182.728 274.996C183.568 274.964 183.573 272.839 183.467 270.075C183.355 267.252 183.36 266.352 183.126 264.377C183.116 264.307 183.105 264.217 183.095 264.116C183.913 265.703 184.982 265.394 185.216 265.037C185.37 264.797 185.184 264.291 184.663 262.593L184.668 262.609Z" fill="white" stroke="#002F3C" stroke-width="3" stroke-linecap="round" stroke-linejoin="round"/>
<path d="M177.459 97.4504C163.547 101.769 157.402 153.384 159.071 181.891C161.527 223.712 171.41 243.639 171.41 243.639L181.127 242.393C181.127 242.393 185.96 219.776 184.641 205.999C183.328 192.222 181.202 186.811 180.707 181.891C180.218 176.97 188.564 152.372 191.02 144.006C193.476 135.645 187.948 94.1912 177.449 97.4504H177.459Z" fill="white" stroke="#002F3C" stroke-width="3" stroke-linecap="round" stroke-linejoin="round"/>
<path d="M171.415 243.639L172.856 249.3L181.207 248.257L181.133 242.393L171.415 243.639Z" fill="white" stroke="#002F3C" stroke-width="3" stroke-linecap="round" stroke-linejoin="round"/>
<path d="M208.228 27.0267C218.44 35.9894 236.095 48.7651 247.896 38.4178C247.896 38.4178 255.302 27.6604 253.016 14.7568C250.724 1.85325 188.936 -10.8426 200.339 19.6349" fill="#43BDAB"/>
<path d="M208.228 27.0267C218.44 35.9894 236.095 48.7651 247.896 38.4178C247.896 38.4178 255.302 27.6604 253.016 14.7568C250.724 1.85325 188.936 -10.8426 200.339 19.6349" stroke="#002F3C" stroke-width="3" stroke-linecap="round" stroke-linejoin="round"/>
<path d="M210.323 53.4515C211.025 58.2125 211.54 61.4024 212.38 63.8788C215.596 72.1279 224.99 76.7664 224.99 76.7664C227.711 78.7048 236.961 78.4119 238.944 76.9208C240.821 75.5096 247.726 60.4758 248.396 53.622C248.805 49.4202 248.274 45.7776 248.284 42.79C248.295 37.0332 248.89 32.9273 248.449 26.3663C248.019 19.8959 240.172 15.9284 230.444 16.3545C208.17 17.329 208.563 26.6858 210.328 53.4622L210.323 53.4515Z" fill="white" stroke="#002F3C" stroke-width="3" stroke-linecap="round" stroke-linejoin="round"/>
<path d="M248.763 36.9906C250.639 33.6781 254.812 24.8911 253.016 14.7568C252.877 13.99 252.521 13.2231 251.995 12.4615C247.189 6.11361 226.095 19.6722 220.981 21.8769C232.182 17.0414 238.386 16.8923 242.299 18.4793C246.477 20.5775 247.322 23.5491 248.763 36.9906Z" fill="#43BDAB" stroke="#002F3C" stroke-width="3" stroke-linecap="round" stroke-linejoin="round"/>
<path d="M211.492 56.3592C208.276 56.1196 205.82 53.3131 206.006 50.0912C206.192 46.8693 208.946 44.4568 212.162 44.7018" fill="white"/>
<path d="M211.492 56.3592C208.276 56.1196 205.82 53.3131 206.006 50.0912C206.192 46.8693 208.946 44.4568 212.162 44.7018" stroke="#002F3C" stroke-width="3" stroke-linecap="round" stroke-linejoin="round"/>
<path d="M206.581 24.6195C206.054 30.6585 208.314 38.7585 209.887 50.1497L212.689 50.3893C212.689 50.3893 210.472 33.5503 213.018 23.6609" fill="#43BDAB"/>
<path d="M206.581 24.6195C206.054 30.6585 208.314 38.7585 209.887 50.1497L212.689 50.3893C212.689 50.3893 210.472 33.5502 213.018 23.6609" stroke="#002F3C" stroke-width="3" stroke-linecap="round" stroke-linejoin="round"/>
<path d="M203.8 87.6677L205.522 85.6973C210.923 93.2008 232.288 99.3517 238.061 90.0002L239.412 91.3529C232.724 101.706 211.481 96.9553 203.8 87.6624V87.6677Z" fill="#43BDAB" stroke="#002F3C" stroke-width="3" stroke-linecap="round" stroke-linejoin="round"/>
<path d="M229.524 98.0948C231.015 98.0948 232.224 96.8836 232.224 95.3894C232.224 93.8953 231.015 92.6841 229.524 92.6841C228.032 92.6841 226.823 93.8953 226.823 95.3894C226.823 96.8836 228.032 98.0948 229.524 98.0948Z" fill="#43BDAB" stroke="#002F3C" stroke-width="3" stroke-linecap="round" stroke-linejoin="round"/>
<path d="M227.77 94.0368C227.77 94.0368 219.668 89.4836 217.6 90.3037C215.708 91.0546 215.899 99.6285 218.015 100.273C219.551 100.742 227.951 96.9871 227.951 96.9871L227.775 94.0315L227.77 94.0368Z" fill="#43BDAB" stroke="#002F3C" stroke-width="3" stroke-linecap="round" stroke-linejoin="round"/>
<path d="M231.454 93.68C231.454 93.68 237.27 88.8498 238.434 89.3238C239.598 89.7977 240.513 97.9776 239.45 98.5528C238.392 99.1333 231.619 96.4972 231.619 96.4972L231.454 93.6747V93.68Z" fill="#43BDAB" stroke="#002F3C" stroke-width="3" stroke-linecap="round" stroke-linejoin="round"/>
<path d="M311.146 111.824L315.086 105.63L321.534 108.581L319.695 115.775L311.146 111.824Z" fill="white" stroke="#002F3C" stroke-width="3" stroke-linecap="round" stroke-linejoin="round"/>
<path d="M233.714 136.342L233.022 137.732L238.53 143.51C238.53 143.51 236.813 163.688 236.074 177.71C235.335 191.732 235.776 218.818 235.776 218.818" fill="#284B64"/>
<path d="M233.714 136.342L233.022 137.732L238.53 143.51C238.53 143.51 236.813 163.688 236.074 177.71C235.335 191.732 235.776 218.818 235.776 218.818" stroke="#002F3C" stroke-width="3" stroke-linecap="round" stroke-linejoin="round"/>
<path d="M230.178 152.862C230.178 154.358 228.972 155.567 227.478 155.567C225.984 155.567 224.777 154.358 224.777 152.862C224.777 151.365 225.984 150.156 227.478 150.156C228.972 150.156 230.178 151.365 230.178 152.862Z" fill="#43BDAB" stroke="#002F3C" stroke-width="3" stroke-linecap="round" stroke-linejoin="round"/>
<path d="M228.461 176.97C228.461 178.467 227.254 179.675 225.76 179.675C224.266 179.675 223.06 178.467 223.06 176.97C223.06 175.474 224.266 174.265 225.76 174.265C227.254 174.265 228.461 175.474 228.461 176.97Z" fill="#43BDAB" stroke="#002F3C" stroke-width="3" stroke-linecap="round" stroke-linejoin="round"/>
<path d="M228.216 203.049C228.216 204.545 227.01 205.754 225.516 205.754C224.022 205.754 222.815 204.545 222.815 203.049C222.815 201.552 224.022 200.343 225.516 200.343C227.01 200.343 228.216 201.552 228.216 203.049Z" fill="#43BDAB" stroke="#002F3C" stroke-width="3" stroke-linecap="round" stroke-linejoin="round"/>
<path d="M375.943 99.4581H298.313C297.362 99.4581 296.447 99.064 295.772 98.3664C295.097 97.6688 294.72 96.7315 294.72 95.7463C294.72 94.7611 295.097 93.8238 295.772 93.1315C296.447 92.4392 297.362 92.0451 298.313 92.0451H370.032C360.356 76.0954 343.26 72.5859 343.069 72.5486L342.851 72.4954C327.716 68.5226 313.485 71.2652 300.599 80.6273C294.773 84.8184 289.691 90.0108 285.582 95.9859C285.326 96.396 284.997 96.7475 284.609 97.0297C284.221 97.3066 283.785 97.5037 283.322 97.6049C282.86 97.706 282.381 97.7167 281.919 97.6262C281.456 97.5356 281.01 97.3546 280.616 97.0936C279.814 96.5611 279.255 95.7196 279.053 94.7611C278.851 93.8025 279.027 92.796 279.542 91.9705C284.136 85.1859 289.861 79.2906 296.442 74.5563C310.907 64.0545 327.541 60.8433 344.531 65.2634C346.609 65.7001 369.298 70.9084 379.287 94.2338C379.521 94.793 379.616 95.4054 379.569 96.0125C379.521 96.6196 379.329 97.2054 379.005 97.7167C378.681 98.2492 378.229 98.6859 377.692 98.9895C377.155 99.293 376.554 99.4528 375.948 99.4528L375.943 99.4581Z" fill="#43BDAB" stroke="#002F3C" stroke-width="3" stroke-linecap="round" stroke-linejoin="round"/>
<path d="M335.557 50.9326H322.969C320.986 50.9326 319.375 52.5888 319.375 54.6338V54.6444C319.375 56.6894 320.98 58.3456 322.969 58.3456H335.557C337.54 58.3456 339.145 56.6894 339.145 54.6444V54.6338C339.145 52.5888 337.54 50.9326 335.557 50.9326Z" fill="#43BDAB" stroke="#002F3C" stroke-width="3" stroke-linecap="round" stroke-linejoin="round"/>
<path d="M235.823 38.7V52.5514C235.823 54.6603 234.117 56.3698 232.012 56.3698H230.321" fill="white"/>
<path d="M235.823 38.7V52.5515C235.823 54.6603 234.117 56.3698 232.012 56.3698H230.321" stroke="#002F3C" stroke-width="3" stroke-linecap="round" stroke-linejoin="round"/>
<path d="M239.917 64.7521C239.917 64.7521 233.464 71.4142 224.416 63.655L239.917 64.7521Z" fill="white"/>
<path d="M239.917 64.7521C239.917 64.7521 233.464 71.4142 224.416 63.655" stroke="#002F3C" stroke-width="3" stroke-linecap="round" stroke-linejoin="round"/>
<path d="M207.963 22.8781C207.963 22.8781 210.743 27.5912 220.992 22.9687C242.66 13.1965 247.094 25.3971 247.094 25.3971C247.094 25.3971 241.719 -1.51776 207.957 22.8835L207.963 22.8781Z" fill="#43BDAB" stroke="#002F3C" stroke-width="3" stroke-linecap="round" stroke-linejoin="round"/>
<path d="M0.797852 452.711H530.203" stroke="#002F3C" stroke-width="3" stroke-linecap="round" stroke-linejoin="round"/>
</g>
<defs>
<clipPath id="clip0_1_1690">
<rect width="531" height="454" fill="white"/>
</clipPath>
</defs>
</svg>
