<svg width="347" height="297" viewBox="0 0 347 297" fill="none" xmlns="http://www.w3.org/2000/svg">
<g clip-path="url(#clip0_1_2572)">
<path d="M65.9002 4.58343C90.0023 4.84792 109.602 15.33 115.428 37.2198L88.1472 43.0559C86.2922 38.8102 78.4793 32.4416 65.7682 32.4416C49.611 32.4416 42.8577 41.462 42.8577 51.8118C42.8577 63.3553 51.9941 71.4465 65.7682 71.4465C79.5423 71.4465 86.5597 65.0779 88.1472 60.7L115.428 66.6684C109.602 88.5582 90.0023 99.0402 65.9002 99.3047C37.0319 99.5692 15.0489 84.1802 15.0489 51.9441C15.0489 19.7079 37.0319 4.31894 65.9002 4.58343Z" fill="#188B83"/>
<path d="M121.122 51.9441C121.122 19.7079 144.033 4.31894 172.241 4.58343C200.449 4.84792 223.36 19.8402 223.36 51.9441C223.36 84.048 200.449 99.3047 172.241 99.3047C144.033 99.3047 121.122 84.048 121.122 51.9441ZM149.067 51.9441C149.067 65.6069 160.454 74.0984 172.241 74.0984C184.688 74.0984 195.416 65.6069 195.416 51.9441C195.416 38.2812 184.028 29.922 172.241 29.7898C160.586 29.6575 149.067 38.149 149.067 51.9441Z" fill="#188B83"/>
<path d="M230.377 5.51221H259.513L299.108 52.3439C301.359 54.9957 303.611 59.1092 304.934 62.558L305.198 62.4257C303.875 59.1092 302.947 54.4667 302.947 50.8822V5.51221H330.756V98.3786H301.62L262.024 51.6792C259.773 48.8916 257.522 44.7816 256.33 41.3328L256.066 41.4651C257.258 44.7816 258.186 49.4241 258.186 53.0086V98.3786H230.377V5.51221Z" fill="#188B83"/>
<path d="M105.961 103.182C130.063 103.446 149.663 113.928 155.488 135.818L128.208 141.654C126.353 137.409 118.54 131.04 105.829 131.04C89.6715 131.04 82.9181 140.06 82.9181 150.41C82.9181 161.954 92.0546 170.045 105.829 170.045C119.603 170.045 126.62 163.676 128.208 159.298L155.488 165.267C149.663 187.157 130.063 197.639 105.961 197.903C77.0924 198.168 55.1094 182.779 55.1094 150.542C55.1094 118.306 77.0924 102.917 105.961 103.182Z" fill="#188B83"/>
<path d="M162.243 104.111H190.052V196.977H162.243V104.111Z" fill="#188B83"/>
<path d="M197.996 104.111H290.698V129.317H225.808V140.993H283.812V161.557H225.808V171.771H290.698V196.977H197.996V104.111Z" fill="#188B83"/>
<path d="M18.7548 295.575V202.709H83.1162C104.304 202.709 117.018 210.139 117.018 225.792C117.018 238.53 109.865 241.049 103.644 242.908C100.333 243.969 95.8307 244.766 92.2561 244.898V245.163C95.8307 245.03 100.468 245.559 103.779 246.621C109.872 248.744 117.949 253.386 117.949 277.663V295.572H90.1405V277.663C90.1405 270.101 83.9152 266.785 76.8979 266.785L46.838 266.917V295.572H18.7548V295.575ZM74.1118 244.234C80.9971 244.234 93.0481 242.775 93.0481 234.949C93.0481 227.122 86.2948 224.867 79.4095 224.867H46.831V244.237H74.1118V244.234Z" fill="#188B83"/>
<path d="M176.611 201.783C201.109 202.048 220.976 212.53 226.934 234.419L201.241 241.052C195.943 230.706 186.011 226.989 176.611 226.989C164.028 226.989 152.773 233.49 152.773 249.144C152.773 263.603 162.969 271.298 176.875 271.298C183.76 271.298 187.734 267.452 189.985 264.268H178.73V245.03H218.062C225.347 245.03 228.39 248.479 228.39 254.183V295.575H201.241V264.265H200.845C199.917 291.726 193.296 296.501 173.828 296.501C144.428 296.501 124.961 281.244 124.961 249.14C124.961 217.036 147.34 201.515 176.607 201.78L176.611 201.783Z" fill="#188B83"/>
<path d="M235.407 202.709H328.109V227.915H263.22V239.591H321.224V260.155H263.22V270.369H328.109V295.575H235.407V202.709Z" fill="#188B83"/>
<path d="M331.765 250.045C334.52 248.43 337.841 248.061 341.013 248.412C342.715 248.6 344.504 249.014 345.72 250.222C346.936 251.43 347.273 253.657 346.012 254.819C345.261 255.512 344.171 255.668 343.153 255.71C340.69 255.815 337.938 255.526 336.048 257.113C334.972 258.017 334.301 259.465 332.981 259.952C331.692 260.429 330.171 259.733 329.41 258.585C328.649 257.436 328.548 255.954 328.802 254.6C328.802 254.6 328.989 251.666 331.762 250.041L331.765 250.045Z" fill="#1EBAA9"/>
<path d="M324.608 237.85C326.47 240.234 329.791 239.235 331.271 237.638C332.751 236.044 333.293 233.817 333.783 231.694C334.898 226.846 336.016 221.762 334.735 216.956C334.352 215.518 333.731 214.098 332.654 213.075C331.577 212.052 329.975 211.495 328.561 211.951C326.887 212.491 325.925 214.213 325.244 215.835C323.253 220.61 322.34 225.833 322.6 231.001C322.722 233.416 323.139 235.933 324.605 237.85" fill="#1EBAA9"/>
<g opacity="0.2">
<path d="M324.608 237.85C326.47 240.234 329.791 239.235 331.271 237.638C332.751 236.044 333.293 233.817 333.782 231.694C334.898 226.846 336.016 221.762 334.734 216.956C334.352 215.518 333.73 214.098 332.653 213.075C331.576 212.052 329.975 211.495 328.561 211.951C326.887 212.491 325.924 214.213 325.243 215.835C323.253 220.61 322.339 225.833 322.6 231.001C322.721 233.416 323.138 235.933 324.604 237.85" fill="#1EBAA9"/>
</g>
<path d="M319.964 241.056C321.725 238.72 321.906 235.442 320.923 232.686C319.936 229.93 317.922 227.65 315.639 225.823C312.964 223.679 309.869 222.068 306.579 221.104C305.287 220.725 303.929 220.443 302.595 220.645C301.261 220.843 299.947 221.602 299.388 222.83C298.558 224.647 299.558 226.738 300.611 228.437C302.463 231.426 304.55 234.266 306.85 236.928C308.698 239.068 310.797 241.163 313.485 242.034C316.174 242.9 318.905 242.636 320.204 240.732" fill="#1EBAA9"/>
<path d="M326.527 276.591C324.63 241.042 329.601 221.762 329.601 221.762" stroke="#002E3C" stroke-width="1.96045" stroke-linecap="round" stroke-linejoin="round"/>
<path d="M307.58 226.735C307.58 226.735 326.464 232.174 326.527 276.591" stroke="#002E3C" stroke-width="1.96045" stroke-linecap="round" stroke-linejoin="round"/>
<path d="M338.196 251.781C338.196 251.781 325.307 253.744 326.523 276.514" stroke="#002E3C" stroke-width="1.96045" stroke-linecap="round" stroke-linejoin="round"/>
<path d="M315.498 275.683L320.799 295.836H333.701L339.003 275.683C339.239 274.781 338.561 273.897 337.627 273.897H316.87C315.939 273.897 315.258 274.781 315.494 275.683H315.498Z" fill="#284B64" stroke="#002F3C" stroke-width="1.96045" stroke-linecap="round" stroke-linejoin="round"/>
<path d="M21.0311 264.401C11.3771 260.569 7.02771 250.331 5.14484 240.659C4.83219 239.045 4.26247 237.395 4.7106 235.815C5.15874 234.232 6.73243 232.857 8.34086 233.198C9.67137 233.48 10.5155 234.743 11.4535 235.732C12.7006 237.047 14.3264 238.001 16.0808 238.443C17.2341 238.735 18.5855 238.763 19.4748 237.973C20.6976 236.887 20.4232 234.942 20.0445 233.351C19.3428 230.386 18.6376 227.421 17.9358 224.456C17.5572 222.866 17.1785 221.241 17.3314 219.612C17.4842 217.983 18.2659 216.323 19.7006 215.547C21.1353 214.768 23.2336 215.206 23.9179 216.689C24.2028 217.308 24.2236 218.011 24.4217 218.662C24.6197 219.313 25.0991 219.974 25.7765 220.012C26.4609 220.05 27.0028 219.448 27.378 218.874C28.6703 216.88 29.3199 214.548 29.9 212.244C30.4802 209.941 31.0186 207.595 32.1234 205.493C33.2281 203.391 34.9963 201.519 37.2717 200.858C39.5506 200.196 42.3332 201.039 43.4345 203.144C44.5357 205.253 43.7367 207.839 42.7119 209.989C41.1938 213.181 39.2136 216.149 36.8514 218.777C36.4241 219.25 35.962 219.761 35.9065 220.398C35.8022 221.54 37.0633 222.361 38.2027 222.466C39.495 222.584 40.77 222.159 42.0588 222.017C43.3511 221.874 44.8379 222.107 45.5848 223.172C46.62 224.648 45.6369 226.673 44.5392 228.103C42.3402 230.967 39.6479 233.452 36.6186 235.411C35.5313 236.114 34.371 236.779 33.6067 237.823C32.839 238.867 32.5923 240.433 33.4295 241.422C34.2668 242.413 35.8335 242.427 37.0216 241.916C38.2097 241.401 39.1685 240.478 40.2489 239.765C42.2742 238.429 45.1679 237.921 47.023 239.483C48.2424 240.513 48.7252 242.225 48.5932 243.816C48.4647 245.406 47.8012 246.906 47.0578 248.316C44.4593 253.25 40.6762 257.614 35.9447 260.562C31.2132 263.51 26.5616 265.083 21.0311 264.415" fill="#284B64"/>
<path d="M21.0311 264.401C11.3771 260.569 7.02771 250.331 5.14484 240.659C4.83219 239.045 4.26247 237.395 4.7106 235.815C5.15874 234.232 6.73243 232.857 8.34086 233.198C9.67137 233.48 10.5155 234.743 11.4535 235.732C12.7006 237.047 14.3264 238.001 16.0808 238.443C17.2341 238.735 18.5855 238.763 19.4748 237.973C20.6976 236.887 20.4232 234.942 20.0445 233.351C19.3428 230.386 18.6376 227.421 17.9358 224.456C17.5572 222.866 17.1785 221.241 17.3314 219.612C17.4842 217.983 18.2659 216.323 19.7006 215.547C21.1353 214.768 23.2336 215.206 23.9179 216.689C24.2028 217.308 24.2236 218.011 24.4217 218.662C24.6197 219.313 25.0991 219.974 25.7765 220.012C26.4609 220.05 27.0028 219.448 27.378 218.874C28.6703 216.88 29.3199 214.548 29.9 212.244C30.4802 209.941 31.0186 207.595 32.1234 205.493C33.2281 203.391 34.9963 201.519 37.2717 200.858C39.5506 200.196 42.3332 201.039 43.4345 203.144C44.5357 205.253 43.7367 207.839 42.7119 209.989C41.1938 213.181 39.2136 216.149 36.8514 218.777C36.4241 219.25 35.962 219.761 35.9065 220.398C35.8022 221.54 37.0633 222.361 38.2027 222.466C39.495 222.584 40.77 222.159 42.0588 222.017C43.3511 221.874 44.8379 222.107 45.5848 223.172C46.62 224.648 45.6369 226.673 44.5392 228.103C42.3402 230.967 39.6479 233.452 36.6186 235.411C35.5313 236.114 34.371 236.779 33.6067 237.823C32.839 238.867 32.5923 240.433 33.4295 241.422C34.2668 242.413 35.8335 242.427 37.0216 241.916C38.2097 241.401 39.1685 240.478 40.2489 239.765C42.2742 238.429 45.1679 237.921 47.023 239.483C48.2424 240.513 48.7252 242.225 48.5932 243.816C48.4647 245.406 47.8012 246.906 47.0578 248.316C44.4593 253.25 40.6762 257.614 35.9447 260.562C31.2132 263.51 26.5616 265.083 21.0311 264.415" stroke="#002F3C" stroke-width="1.96045" stroke-linecap="round" stroke-linejoin="round"/>
<path d="M40.4534 201.651C40.4534 201.651 12.398 243.169 25.7691 283.761" stroke="#002F3C" stroke-width="1.96045" stroke-linecap="round" stroke-linejoin="round"/>
<path d="M5.63464 234.193C5.63464 234.193 22.438 253.623 22.445 253.553C22.4519 253.483 47.8081 240.37 47.8081 240.37" stroke="#002F3C" stroke-width="1.96045" stroke-linecap="round" stroke-linejoin="round"/>
<path d="M19.7005 215.544L26.6622 231.904L45.9321 223.91" stroke="#002F3C" stroke-width="1.96045" stroke-linecap="round" stroke-linejoin="round"/>
<path d="M9.54883 271.837L15.8644 295.836H31.2261L37.5417 271.837C37.8231 270.762 37.0137 269.711 35.9055 269.711H11.185C10.0769 269.711 9.26744 270.762 9.54883 271.837Z" fill="white" stroke="#002F3C" stroke-width="1.96045" stroke-linecap="round" stroke-linejoin="round"/>
<path d="M209.447 64.9941C208.529 65.5718 207.984 66.0625 207.838 66.4871L203.218 74.1712L208.37 76.388L210.749 68.1227C215.429 68.5786 224.965 65.631 224.965 65.0081L209.447 64.9941Z" fill="white" stroke="#002F3C" stroke-width="1.96045" stroke-linecap="round" stroke-linejoin="round"/>
<path d="M168.166 65.7912C172.978 69.9917 181.458 101.079 183.57 101.5C190.056 90.2493 194.551 83.8181 203.33 73.075L208.916 75.6573C205.306 97.7246 192.328 121.734 180.27 121.114C170.883 120.631 163.702 108.116 158.214 98.605C152.725 89.0939 168.166 65.7877 168.166 65.7877V65.7912Z" fill="white" stroke="#002F3C" stroke-width="1.96045" stroke-linecap="round" stroke-linejoin="round"/>
<path d="M139.207 41.5938C136.921 41.2528 120.827 16.4014 127.948 10.5827C131.582 7.6107 137.981 18.6844 137.981 18.6844C137.981 18.6844 144.237 40.9431 139.207 41.5938Z" fill="#43BDAB" stroke="#002F3C" stroke-width="1.96045" stroke-linecap="round" stroke-linejoin="round"/>
<path d="M127.949 10.5865C121.223 16.0816 130.797 43.2542 138.774 41.3924C138.232 39.8263 137.87 37.8253 137.443 34.9333C137.339 33.3325 137.245 31.8465 137.165 30.4301L137.492 32.793L138.989 32.9322C138.989 32.9322 137.54 21.9282 139.204 15.4656C138.072 16.5654 131.836 22.0291 127.907 17.0282C125.319 13.736 127.949 10.5865 127.949 10.5865Z" fill="#43BDAB" stroke="#002F3C" stroke-width="1.96045" stroke-linecap="round" stroke-linejoin="round"/>
<path d="M155.965 287.453C155.965 287.453 158.126 290.581 162.833 292.457C167.544 294.333 170.476 293.912 170.215 295.168C169.955 296.421 152.081 295.791 152.14 294.333C152.199 292.875 153.12 290.79 153.05 287.453C152.981 284.115 155.965 287.453 155.965 287.453Z" fill="#284B64" stroke="#002F3C" stroke-width="1.96045" stroke-linecap="round" stroke-linejoin="round"/>
<path d="M136.331 287.452C136.661 291.761 137.936 293.915 138.093 295.168C138.245 296.42 126.455 296.556 126.16 295.168C125.746 293.226 132.277 291.754 132.646 287.452C132.993 283.422 136.331 287.452 136.331 287.452Z" fill="#284B64" stroke="#002F3C" stroke-width="1.96045" stroke-linecap="round" stroke-linejoin="round"/>
<path d="M119.854 138.546C119.854 138.546 117.242 162.555 126.83 208.924C126.83 208.924 123.592 229.488 123.22 236.504C122.786 244.665 129.803 288.785 129.803 288.785H138.078C138.631 269.579 141.017 252.481 141.754 237.593C142.282 226.968 141.139 217.471 141.67 209.136C143.477 180.836 145.099 165.945 145.099 165.945H146.502C146.502 165.945 149.747 204.71 149.629 208.924C149.507 213.138 146.183 231.343 145.992 237.899C145.804 244.456 150.55 288.785 150.55 288.785H159.422C165.342 177.812 166.696 177.986 167.266 138.72L119.851 138.546H119.854Z" fill="#284B64" stroke="#002F3C" stroke-width="1.96045" stroke-linecap="round" stroke-linejoin="round"/>
<path d="M150.553 288.782H159.426C166.453 205.461 167.169 187.469 167.353 138.556L149.782 138.476L148.337 162.691L144.404 165.941H146.506C146.506 165.941 149.751 204.706 149.633 208.921C149.511 213.135 144.984 231.339 144.713 237.896C144.443 244.452 150.557 288.782 150.557 288.782H150.553Z" fill="#284B64" stroke="#002F3C" stroke-width="1.96045" stroke-linecap="round" stroke-linejoin="round"/>
<path d="M167.349 138.557L119.854 138.543C119.854 138.543 119.784 139.284 119.711 140.728C123.033 142.778 133.378 147.869 152.22 146.268C158.71 145.719 163.462 144.873 167.27 143.898C167.294 142.2 167.325 140.415 167.349 138.553V138.557Z" fill="#284B64" stroke="#002F3C" stroke-width="1.96045" stroke-linecap="round" stroke-linejoin="round"/>
<path d="M115.647 63.6824L134.438 56.7883C140.41 57.1851 146.697 57.721 154.938 58.9773L168.17 65.7913C168.17 65.7913 168.875 82.28 168.236 102.74C167.596 123.199 167.392 140.767 167.392 140.767C151.637 143.933 134.966 144.382 119.854 138.543C119.854 138.543 118.687 137.447 119.389 134.168C120.091 130.89 123.662 110.998 123.662 110.998C123.662 110.998 120.323 86.1603 115.651 63.6789L115.647 63.6824Z" fill="#284B64" stroke="#002F3C" stroke-width="1.96045" stroke-linecap="round" stroke-linejoin="round"/>
<path d="M154.937 58.9733C146.697 57.7205 140.409 57.181 134.437 56.7843L127.806 59.2169C129.709 62.5021 139.916 79.5755 152.276 90.0018C152.276 90.0018 159.015 76.9793 161.343 62.2689L154.937 58.9698V58.9733Z" fill="white" stroke="#002F3C" stroke-width="1.96045" stroke-linecap="round" stroke-linejoin="round"/>
<path d="M136.394 32.9073C136.394 32.9073 138.732 48.0458 135.901 57.536C135.901 57.536 146.903 62.8362 150.113 62.516C153.322 62.1924 154.111 60.5358 154.111 60.5358C154.111 60.5358 152.666 56.8539 153.138 49.1316L136.394 32.9108V32.9073Z" fill="white" stroke="#002F3C" stroke-width="1.96045" stroke-linecap="round" stroke-linejoin="round"/>
<path d="M150.512 62.7567L151.637 56.1654C151.637 56.1654 153.242 52.9497 153.722 53.0298C154.205 53.1098 155.646 59.2209 155.646 59.2209C155.646 59.2209 154.201 62.7949 150.512 62.7567Z" fill="white" stroke="#002F3C" stroke-width="1.96045" stroke-linecap="round" stroke-linejoin="round"/>
<path d="M149.709 62.7566L147.142 56.1653C147.142 56.1653 137.512 49.8141 136.23 50.0577C135.581 50.1795 133.983 57.2929 133.983 57.2929C133.983 57.2929 137.033 63.0803 149.709 62.7566Z" fill="white" stroke="#002F3C" stroke-width="1.96045" stroke-linecap="round" stroke-linejoin="round"/>
<path d="M167.349 141.129V139.963C164.723 140.398 159.273 141.254 149.629 141.609C136.63 142.093 128.445 138.233 128.445 137.269C128.445 136.305 131.575 113.879 131.335 110.02C131.096 106.161 122.911 76.2595 122.911 76.2595L119.875 86.3692C122.206 100.185 123.661 111.001 123.661 111.001C123.661 111.001 120.09 130.894 119.388 134.172C118.687 137.45 119.854 138.546 119.854 138.546C134.965 144.382 151.599 144.299 167.349 141.132V141.129Z" fill="#284B64" stroke="#002F3C" stroke-width="1.96045" stroke-linecap="round" stroke-linejoin="round"/>
<path d="M120.678 171.61C120.334 170.5 119.708 167.427 119.298 165.886C118.875 164.299 117.732 162.468 117.732 162.468L117.773 162.868C117.207 162.527 115.404 161.664 113.841 163.352C113.841 163.352 112.66 168.781 112.701 173.573C112.743 178.365 113.118 178.95 113.587 178.88C114.06 178.811 114.067 177.812 113.959 176.319C113.959 176.319 114.174 173.841 114.327 173.82C114.48 173.799 114.557 176.41 114.55 176.883C114.543 177.356 114.64 180.631 115.387 180.589C116.102 180.547 116.016 178.212 115.963 176.942C115.963 176.942 116.13 173.786 116.349 173.789C116.571 173.789 116.585 176.622 116.603 177.095C116.62 177.568 116.669 181.062 117.36 181.042C118.055 181.021 118.246 180.189 118.128 177.213C118.128 177.213 117.891 173.629 118.11 173.653C118.729 173.598 118.329 179.75 119.41 179.705C119.958 179.684 119.962 178.296 119.892 176.49C119.82 174.645 119.823 174.057 119.67 172.766C119.663 172.721 119.656 172.661 119.649 172.595C120.184 173.632 120.883 173.431 121.035 173.197C121.136 173.041 121.015 172.71 120.674 171.6L120.678 171.61Z" fill="white" stroke="#002F3C" stroke-width="1.96045" stroke-linecap="round" stroke-linejoin="round"/>
<path d="M115.967 63.6824C106.875 66.5047 102.86 100.234 103.95 118.863C105.555 146.192 112.013 159.215 112.013 159.215L118.364 158.4C118.364 158.4 121.522 143.62 120.66 134.617C119.802 125.614 118.412 122.078 118.089 118.863C117.77 115.647 123.224 99.5726 124.829 94.1054C126.434 88.6416 122.821 61.5526 115.96 63.6824H115.967Z" fill="white" stroke="#002F3C" stroke-width="1.96045" stroke-linecap="round" stroke-linejoin="round"/>
<path d="M112.017 159.214L112.958 162.914L118.416 162.232L118.367 158.4L112.017 159.214Z" fill="white" stroke="#002F3C" stroke-width="1.96045" stroke-linecap="round" stroke-linejoin="round"/>
<path d="M136.074 17.6617C142.747 23.5187 154.284 31.8674 161.996 25.1056C161.996 25.1056 166.836 18.0758 165.342 9.64355C163.845 1.21127 123.467 -7.08528 130.919 12.8313" fill="#43BDAB"/>
<path d="M136.074 17.6617C142.747 23.5187 154.284 31.8674 161.996 25.1056C161.996 25.1056 166.836 18.0758 165.342 9.64355C163.845 1.21127 123.467 -7.08528 130.919 12.8313" stroke="#002F3C" stroke-width="1.96045" stroke-linecap="round" stroke-linejoin="round"/>
<path d="M137.443 34.9297C137.901 38.0409 138.238 40.1255 138.787 41.7438C140.889 47.1344 147.027 50.1656 147.027 50.1656C148.806 51.4324 154.85 51.241 156.146 50.2665C157.372 49.3443 161.885 39.52 162.323 35.0411C162.59 32.2953 162.243 29.9149 162.25 27.9626C162.257 24.2006 162.646 21.5174 162.358 17.23C162.076 13.0016 156.949 10.409 150.591 10.6874C136.036 11.3242 136.293 17.4388 137.446 34.9367L137.443 34.9297Z" fill="white" stroke="#002F3C" stroke-width="1.96045" stroke-linecap="round" stroke-linejoin="round"/>
<path d="M162.562 24.1726C163.789 22.008 166.516 16.2659 165.342 9.64324C165.251 9.1421 165.019 8.64097 164.675 8.14331C161.534 3.99504 147.75 12.8554 144.408 14.2961C151.727 11.1362 155.781 11.0388 158.338 12.0758C161.069 13.447 161.621 15.3889 162.562 24.1726Z" fill="#43BDAB" stroke="#002F3C" stroke-width="1.96045" stroke-linecap="round" stroke-linejoin="round"/>
<path d="M138.206 36.83C136.105 36.6734 134.5 34.8394 134.621 32.734C134.743 30.6285 136.542 29.052 138.644 29.2121" fill="white"/>
<path d="M138.206 36.83C136.105 36.6734 134.5 34.8394 134.621 32.734C134.743 30.6285 136.542 29.052 138.644 29.2121" stroke="#002F3C" stroke-width="1.96045" stroke-linecap="round" stroke-linejoin="round"/>
<path d="M134.998 16.0883C134.654 20.0348 136.13 25.328 137.158 32.7719L138.989 32.9285C138.989 32.9285 137.541 21.9245 139.205 15.4619" fill="#43BDAB"/>
<path d="M134.998 16.0883C134.654 20.0348 136.13 25.328 137.158 32.7719L138.989 32.9285C138.989 32.9285 137.541 21.9245 139.205 15.4619" stroke="#002F3C" stroke-width="1.96045" stroke-linecap="round" stroke-linejoin="round"/>
<path d="M133.18 57.2892L134.305 56.0016C137.835 60.905 151.796 64.9246 155.569 58.8135L156.451 59.6974C152.081 66.4628 138.199 63.3585 133.18 57.2857V57.2892Z" fill="#43BDAB" stroke="#002F3C" stroke-width="1.96045" stroke-linecap="round" stroke-linejoin="round"/>
<path d="M149.989 64.1034C150.963 64.1034 151.753 63.3119 151.753 62.3355C151.753 61.3591 150.963 60.5676 149.989 60.5676C149.014 60.5676 148.224 61.3591 148.224 62.3355C148.224 63.3119 149.014 64.1034 149.989 64.1034Z" fill="#43BDAB" stroke="#002F3C" stroke-width="1.96045" stroke-linecap="round" stroke-linejoin="round"/>
<path d="M148.843 61.4509C148.843 61.4509 143.549 58.4754 142.197 59.0114C140.961 59.5021 141.086 65.105 142.468 65.5261C143.472 65.8324 148.961 63.3789 148.961 63.3789L148.846 61.4474L148.843 61.4509Z" fill="#43BDAB" stroke="#002F3C" stroke-width="1.96045" stroke-linecap="round" stroke-linejoin="round"/>
<path d="M151.251 61.2182C151.251 61.2182 155.051 58.0618 155.812 58.3715C156.573 58.6812 157.17 64.0266 156.476 64.4025C155.784 64.7818 151.359 63.0592 151.359 63.0592L151.251 61.2147V61.2182Z" fill="#43BDAB" stroke="#002F3C" stroke-width="1.96045" stroke-linecap="round" stroke-linejoin="round"/>
<path d="M203.33 73.0754L205.904 69.0281L210.118 70.956L208.916 75.6577L203.33 73.0754Z" fill="white" stroke="#002F3C" stroke-width="1.96045" stroke-linecap="round" stroke-linejoin="round"/>
<path d="M152.729 89.0977L152.277 90.006L155.876 93.7819C155.876 93.7819 154.754 106.968 154.271 116.131C153.788 125.294 154.076 142.994 154.076 142.994" fill="#284B64"/>
<path d="M152.729 89.0977L152.277 90.006L155.876 93.7819C155.876 93.7819 154.754 106.968 154.271 116.131C153.788 125.294 154.076 142.994 154.076 142.994" stroke="#002F3C" stroke-width="1.96045" stroke-linecap="round" stroke-linejoin="round"/>
<path d="M150.418 99.8923C150.418 100.87 149.629 101.66 148.653 101.66C147.677 101.66 146.888 100.87 146.888 99.8923C146.888 98.9144 147.677 98.1244 148.653 98.1244C149.629 98.1244 150.418 98.9144 150.418 99.8923Z" fill="#43BDAB" stroke="#002F3C" stroke-width="1.96045" stroke-linecap="round" stroke-linejoin="round"/>
<path d="M149.295 115.647C149.295 116.625 148.507 117.415 147.53 117.415C146.554 117.415 145.766 116.625 145.766 115.647C145.766 114.669 146.554 113.879 147.53 113.879C148.507 113.879 149.295 114.669 149.295 115.647Z" fill="#43BDAB" stroke="#002F3C" stroke-width="1.96045" stroke-linecap="round" stroke-linejoin="round"/>
<path d="M149.135 132.689C149.135 133.667 148.347 134.457 147.371 134.457C146.395 134.457 145.606 133.667 145.606 132.689C145.606 131.711 146.395 130.921 147.371 130.921C148.347 130.921 149.135 131.711 149.135 132.689Z" fill="#43BDAB" stroke="#002F3C" stroke-width="1.96045" stroke-linecap="round" stroke-linejoin="round"/>
<path d="M245.673 64.9941H194.943C194.321 64.9941 193.724 64.7366 193.283 64.2807C192.842 63.8248 192.595 63.2123 192.595 62.5685C192.595 61.9247 192.842 61.3122 193.283 60.8598C193.724 60.4073 194.321 60.1498 194.943 60.1498H241.81C235.488 49.7269 224.315 47.4335 224.19 47.4092L224.048 47.3744C214.158 44.7782 204.858 46.5705 196.437 52.6885C192.63 55.4273 189.309 58.8204 186.623 62.7251C186.457 62.9931 186.241 63.2227 185.988 63.4072C185.734 63.5882 185.449 63.7169 185.147 63.783C184.845 63.8492 184.532 63.8561 184.23 63.797C183.928 63.7378 183.636 63.6195 183.379 63.449C182.854 63.1009 182.489 62.5511 182.357 61.9247C182.225 61.2983 182.34 60.6405 182.677 60.1011C185.678 55.6675 189.42 51.815 193.721 48.7212C203.173 41.8584 214.043 39.7599 225.146 42.6484C226.504 42.9338 241.331 46.3373 247.858 61.5801C248.011 61.9455 248.074 62.3458 248.042 62.7425C248.011 63.1392 247.886 63.522 247.674 63.8561C247.462 64.2041 247.167 64.4895 246.816 64.6879C246.465 64.8862 246.073 64.9906 245.677 64.9906L245.673 64.9941Z" fill="#43BDAB" stroke="#002F3C" stroke-width="1.96045" stroke-linecap="round" stroke-linejoin="round"/>
<path d="M219.282 33.2833H211.055C209.759 33.2833 208.707 34.3656 208.707 35.702V35.709C208.707 37.0453 209.756 38.1276 211.055 38.1276H219.282C220.577 38.1276 221.626 37.0453 221.626 35.709V35.702C221.626 34.3656 220.577 33.2833 219.282 33.2833Z" fill="#43BDAB" stroke="#002F3C" stroke-width="1.96045" stroke-linecap="round" stroke-linejoin="round"/>
<path d="M154.107 25.2897V34.3414C154.107 35.7195 152.992 36.8366 151.617 36.8366H150.512" fill="white"/>
<path d="M154.107 25.2897V34.3414C154.107 35.7195 152.992 36.8366 151.617 36.8366H150.512" stroke="#002F3C" stroke-width="1.96045" stroke-linecap="round" stroke-linejoin="round"/>
<path d="M156.782 42.3144C156.782 42.3144 152.565 46.668 146.652 41.5975L156.782 42.3144Z" fill="white"/>
<path d="M156.782 42.3144C156.782 42.3144 152.565 46.668 146.652 41.5975" stroke="#002F3C" stroke-width="1.96045" stroke-linecap="round" stroke-linejoin="round"/>
<path d="M135.901 14.9507C135.901 14.9507 137.718 18.0306 144.415 15.0098C158.575 8.62386 161.472 16.5968 161.472 16.5968C161.472 16.5968 157.96 -0.991646 135.897 14.9542L135.901 14.9507Z" fill="#43BDAB" stroke="#002F3C" stroke-width="1.96045" stroke-linecap="round" stroke-linejoin="round"/>
<path d="M0.521423 295.839H346.479" stroke="#002F3C" stroke-width="1.96045" stroke-linecap="round" stroke-linejoin="round"/>
</g>
<defs>
<clipPath id="clip0_1_2572">
<rect width="347" height="296.682" fill="white"/>
</clipPath>
</defs>
</svg>
