<svg width="150" height="63" viewBox="0 0 150 63" fill="none" xmlns="http://www.w3.org/2000/svg">
<path d="M37.741 30.3679V28.3418L34.9406 28.5633V39.2438H37.741V33.4454C37.741 32.4226 38.1202 31.5738 38.7913 30.9757C39.4623 30.3776 40.4246 30.0302 41.6208 30.0302C42.428 30.0302 43.0693 30.3004 43.507 30.7731C43.9446 31.2459 44.1975 31.9401 44.1975 32.7895V39.2438H46.9978V32.0563C46.9978 30.9179 46.5893 29.9724 45.8119 29.3257C45.0241 28.6795 43.896 28.3515 42.5253 28.3515C41.4944 28.3515 40.5024 28.5541 39.6374 28.9399C38.8691 29.2873 38.2175 29.779 37.741 30.3679V30.3679Z" fill="#1A938A"/>
<path fill-rule="evenodd" clip-rule="evenodd" d="M62.5949 39.2343V24.3276L59.7946 24.5492V30.0104C58.6081 28.9396 57.0623 28.3507 55.3993 28.3507C53.7271 28.3507 52.298 28.8429 51.2866 29.7981C50.2557 30.7631 49.7208 32.143 49.7208 33.773C49.7208 35.4804 50.2752 36.9089 51.2861 37.9025C52.2878 38.8966 53.7276 39.4558 55.4479 39.4558C57.2957 39.4558 58.9582 38.7902 60.0377 37.6032V39.2435L62.5949 39.2338V39.2343ZM53.6396 31.0132C54.2523 30.3087 55.1075 29.8748 56.1093 29.8748C57.179 29.8748 58.1029 30.3087 58.7637 31.0132C59.425 31.7178 59.8335 32.7114 59.8335 33.8789C59.8335 35.0849 59.4445 36.0882 58.7929 36.8019C58.1413 37.5065 57.2179 37.9214 56.119 37.9214C55.0978 37.9214 54.2328 37.5065 53.6201 36.7922C53.0074 36.0785 52.6379 35.0557 52.6379 33.8303C52.6476 32.6919 53.0366 31.7178 53.6396 31.0132V31.0132ZM86.7385 28.3507C84.9982 28.3507 83.0531 28.5824 81.1962 28.9682L81.0211 29.0071L81.4879 30.1936L81.6046 30.1742C83.1553 29.9723 84.7176 29.8725 86.2814 29.8754C87.4193 29.8754 88.1876 30.0007 88.6641 30.2514C88.8975 30.3768 89.0628 30.5313 89.1595 30.7053C89.2665 30.8884 89.3151 31.1105 89.3151 31.3709V32.1424C89.3151 32.1424 85.679 32.3548 84.473 32.4418C83.1796 32.5671 82.1201 32.9529 81.3907 33.5704C80.6515 34.188 80.2528 35.0368 80.2528 36.0401C80.2528 37.1499 80.7002 38.0181 81.5754 38.6065C82.4021 39.1663 83.6075 39.4461 85.0371 39.4461C86.4175 39.4461 88.1584 39.1084 89.5388 37.5065V39.2338H92.1063V31.2547C92.1063 30.7339 92.009 30.2903 91.7951 29.9235C91.5811 29.5474 91.2505 29.2481 90.8128 29.0266C89.9667 28.563 88.6155 28.3512 86.7385 28.3512V28.3507ZM89.3249 35.4998V33.3873C89.3249 33.3873 86.3495 33.5802 85.3678 33.6574C84.6773 33.725 84.1229 33.9659 83.7534 34.3425C83.3838 34.7186 83.1698 35.2297 83.1698 35.857C83.1698 36.4837 83.4227 36.957 83.909 37.2752C84.3758 37.5745 85.0565 37.7383 85.941 37.7383C87.0302 37.7383 87.7402 37.4395 88.3723 37.0051C88.985 36.5712 89.3249 36.0109 89.3249 35.4998Z" fill="#1A938A"/>
<path d="M97.1721 28.563H93.9438L99.5445 39.2435H101.723L107.44 28.563H105.563L101.305 36.5226L97.1721 28.563V28.563Z" fill="#1A938A"/>
<path fill-rule="evenodd" clip-rule="evenodd" d="M114.859 28.3506C112.924 28.3506 111.242 28.8428 110.027 29.7883C108.753 30.7824 108.082 32.2099 108.082 33.8983C108.082 35.5867 108.753 37.005 110.027 37.9991C111.252 38.9538 112.924 39.4558 114.859 39.4558C116.785 39.4558 118.457 38.9538 119.663 37.9986C120.927 37.005 121.588 35.577 121.588 33.8983C121.588 32.2099 120.917 30.7819 119.663 29.7883C118.447 28.8428 116.785 28.3511 114.859 28.3511V28.3506ZM112.107 30.9559C112.788 30.2319 113.732 29.7402 114.84 29.7402C117.067 29.7402 118.632 31.4475 118.632 33.86C118.642 35.0756 118.224 36.0887 117.553 36.8121C116.882 37.5453 115.939 38.0472 114.84 38.0472C113.732 38.0472 112.788 37.5453 112.107 36.8121C111.427 36.0789 111.009 35.0659 111.009 33.86C111.009 32.6729 111.437 31.6696 112.107 30.9559Z" fill="#1A938A"/>
<path d="M126.995 30.8887V28.3418L124.194 28.5633V39.2438H126.995V34.7578C126.995 33.5324 127.364 32.4902 128.055 31.757C128.774 30.9855 129.27 30.5511 130.165 30.2809C130.845 30.0783 131.341 30.0686 131.915 30.0686H132.44L133.286 28.4574L133.082 28.4282C132.751 28.3802 132.099 28.3515 131.614 28.3515C130.692 28.35 129.785 28.5819 128.978 29.0255C128.17 29.4692 127.488 30.1102 126.995 30.8887V30.8887Z" fill="#1A938A"/>
<path fill-rule="evenodd" clip-rule="evenodd" d="M19.8205 32.8858C20.3262 30.2222 23.0585 28.3506 25.9561 28.3506C30.3319 28.3506 31.9069 31.4767 31.9069 33.1651C31.9069 33.5125 31.8388 33.7827 31.6443 33.9659C31.4498 34.1496 31.178 34.2074 30.8473 34.2074H22.5041C22.65 35.423 23.2044 36.3491 24.0018 36.9764C24.8382 37.642 25.9561 37.9797 27.162 37.9797C28.63 37.9797 29.9332 37.6517 31.2461 37.1114L31.3817 37.0531L31.8777 38.2401L31.7415 38.2979C29.8165 39.157 28.0859 39.446 26.1117 39.446C24.4297 39.446 22.8348 38.9733 21.658 38.0278C20.5693 37.1498 19.8497 35.8666 19.7427 34.1971H16.5825L17.2925 32.8853H19.8205V32.8858ZM22.5139 32.8858H27.9006C28.4355 32.8858 28.7661 32.808 28.9606 32.6924C29.1357 32.5865 29.2135 32.4222 29.2135 32.2099C29.2135 31.0715 27.9881 29.6921 25.9663 29.6921C24.8863 29.6921 24.0699 30.0974 23.4864 30.7241C22.9612 31.3033 22.6306 32.0846 22.5139 32.8853V32.8858ZM71.7546 28.3506C68.536 28.3506 65.5412 30.6566 65.5412 33.7827C65.5412 35.664 66.29 37.092 67.4663 38.0375C68.643 38.983 70.238 39.4558 71.9199 39.4558C73.8936 39.4558 75.6247 39.1565 77.5498 38.3077L77.6859 38.2498L77.1899 37.0628L77.0538 37.1206C75.7414 37.6609 74.4382 37.9894 72.9697 37.9894C71.7643 37.9894 70.6556 37.642 69.8095 36.9856C69.0126 36.3588 68.448 35.4322 68.3124 34.2165H76.6453C76.976 34.2165 77.258 34.1587 77.4428 33.9756C77.6373 33.7919 77.7054 33.5217 77.7054 33.1749C77.7151 31.4767 76.1299 28.3506 71.7546 28.3506ZM73.7088 32.8853H68.3221C68.4388 32.0748 68.7597 31.3033 69.3043 30.7241C69.8776 30.1065 70.7042 29.6921 71.7837 29.6921C73.7963 29.6921 75.0314 31.0715 75.0314 32.2099C75.0314 32.4222 74.9634 32.5865 74.7786 32.6924C74.5841 32.8177 74.2534 32.895 73.7088 32.8853V32.8853Z" fill="#1A938A"/>
</svg>
